solid OpenSCAD_Model
  facet normal 0.707107 0.707107 0
    outer loop
      vertex 12.7279 0 15
      vertex 0 12.7279 -15
      vertex 0 12.7279 15
    endloop
  endfacet
  facet normal 0.707107 0.707107 0
    outer loop
      vertex 0 12.7279 -15
      vertex 12.7279 0 15
      vertex 12.7279 0 -15
    endloop
  endfacet
  facet normal 0 0 1
    outer loop
      vertex 0 12.7279 15
      vertex 0 -12.7279 15
      vertex 12.7279 0 15
    endloop
  endfacet
  facet normal 0 0 1
    outer loop
      vertex 31.5 12.3485 -15
      vertex 32 -12 -15
      vertex 32 12 -15
    endloop
  endfacet
  facet normal 0 0 1
    outer loop
      vertex 32 -12 -15
      vertex 31.5 12.3485 -15
      vertex 31.5 -12.3485 -15
    endloop
  endfacet
  facet normal 0 0 1
    outer loop
      vertex 28.5 12.5 -15
      vertex 12.7279 0 -15
      vertex 28.5 -12.5 -15
    endloop
  endfacet
  facet normal 0 -0 1
    outer loop
      vertex 15.7279 -15.0294 -15
      vertex 28.5 -12.5 -15
      vertex 12.7279 0 -15
    endloop
  endfacet
  facet normal 0 0 1
    outer loop
      vertex 28.5 -12.5 -15
      vertex 15.7279 -15.0294 -15
      vertex 17.5815 -16.883 -15
    endloop
  endfacet
  facet normal 0 0 1
    outer loop
      vertex 15.7279 15.0294 -15
      vertex 0 12.7279 -15
      vertex 12.7279 0 -15
    endloop
  endfacet
  facet normal 0 0 1
    outer loop
      vertex 0 12.7279 -15
      vertex -1 31.7574 -15
      vertex 0 -12.7279 -15
    endloop
  endfacet
  facet normal 0 0 1
    outer loop
      vertex -1 31.7574 -15
      vertex 0 12.7279 -15
      vertex 15.7279 15.0294 -15
    endloop
  endfacet
  facet normal -0 0 1
    outer loop
      vertex 15.7279 15.0294 -15
      vertex 28.5 12.5 -15
      vertex 17.5815 16.883 -15
    endloop
  endfacet
  facet normal 0 0 1
    outer loop
      vertex 31.2826 12.5 -15
      vertex 17.5815 16.883 -15
      vertex 28.5 12.5 -15
    endloop
  endfacet
  facet normal 0 0 1
    outer loop
      vertex 31.2826 12.5 -15
      vertex 0.610913 33.8536 -15
      vertex 17.5815 16.883 -15
    endloop
  endfacet
  facet normal 0 0 1
    outer loop
      vertex -1 35 -15
      vertex 0.610913 33.8536 -15
      vertex 31.2826 12.5 -15
    endloop
  endfacet
  facet normal 0 0 1
    outer loop
      vertex 0.610913 33.8536 -15
      vertex -1 35 -15
      vertex -1 32.2426 -15
    endloop
  endfacet
  facet normal 0 0 1
    outer loop
      vertex 12.7279 0 -15
      vertex 28.5 12.5 -15
      vertex 15.7279 15.0294 -15
    endloop
  endfacet
  facet normal 0 0 1
    outer loop
      vertex 17.5815 -16.883 -15
      vertex 31.2826 -12.5 -15
      vertex 28.5 -12.5 -15
    endloop
  endfacet
  facet normal 0 0 1
    outer loop
      vertex 0.610913 -33.8536 -15
      vertex 31.2826 -12.5 -15
      vertex 17.5815 -16.883 -15
    endloop
  endfacet
  facet normal -0 0 1
    outer loop
      vertex 0.610913 -33.8536 -15
      vertex -1 -35 -15
      vertex 31.2826 -12.5 -15
    endloop
  endfacet
  facet normal 0 0 1
    outer loop
      vertex -1 -35 -15
      vertex 0.610913 -33.8536 -15
      vertex -1 -32.2426 -15
    endloop
  endfacet
  facet normal -0 0 1
    outer loop
      vertex 0 -12.7279 -15
      vertex 15.7279 -15.0294 -15
      vertex 12.7279 0 -15
    endloop
  endfacet
  facet normal 0 0 1
    outer loop
      vertex 0 -12.7279 -15
      vertex -1 -31.7574 -15
      vertex 15.7279 -15.0294 -15
    endloop
  endfacet
  facet normal 0 0 1
    outer loop
      vertex -1 -31.7574 -15
      vertex 0 -12.7279 -15
      vertex -1 31.7574 -15
    endloop
  endfacet
  facet normal 0 0 -1
    outer loop
      vertex 31.5 12.3485 -15
      vertex 31.2826 12.5 -15
      vertex 31.5 12.5 -15
    endloop
  endfacet
  facet normal 0 0 -1
    outer loop
      vertex 31.5 -12.5 -15
      vertex 31.2826 -12.5 -15
      vertex 31.5 -12.3485 -15
    endloop
  endfacet
  facet normal 0 0 -1
    outer loop
      vertex -1 -32.2426 -15
      vertex -1.24264 -32 -15
      vertex -1 -31.7574 -15
    endloop
  endfacet
  facet normal 0 0 -1
    outer loop
      vertex -1 31.7574 -15
      vertex -1.24264 32 -15
      vertex -1 32.2426 -15
    endloop
  endfacet
  facet normal 0.707107 -0.707107 0
    outer loop
      vertex 0 -12.7279 15
      vertex 12.7279 0 -15
      vertex 12.7279 0 15
    endloop
  endfacet
  facet normal 0.707107 -0.707107 0
    outer loop
      vertex 12.7279 0 -15
      vertex 0 -12.7279 15
      vertex 0 -12.7279 -15
    endloop
  endfacet
  facet normal -1 0 0
    outer loop
      vertex 0 -12.7279 -15
      vertex 0 12.7279 15
      vertex 0 12.7279 -15
    endloop
  endfacet
  facet normal -1 -0 0
    outer loop
      vertex 0 12.7279 15
      vertex 0 -12.7279 -15
      vertex 0 -12.7279 15
    endloop
  endfacet
  facet normal 0 0 1
    outer loop
      vertex 0.610913 33.8536 15
      vertex 15.7279 15.0294 15
      vertex 17.5815 16.883 15
    endloop
  endfacet
  facet normal 0 0 1
    outer loop
      vertex 15.7279 15.0294 15
      vertex 0.610913 33.8536 15
      vertex -1.24264 32 15
    endloop
  endfacet
  facet normal -0.707126 0.707088 0
    outer loop
      vertex -1 32.2426 -15
      vertex 0.610913 33.8536 15
      vertex 0.610913 33.8536 -15
    endloop
  endfacet
  facet normal -0.707048 0.707165 0
    outer loop
      vertex -1.24264 32 15
      vertex -1 32.2426 -15
      vertex -1.24264 32 -15
    endloop
  endfacet
  facet normal -0.707116 0.707098 -1.08781e-06
    outer loop
      vertex -1 32.2426 -15
      vertex -1.24264 32 15
      vertex 0.610913 33.8536 15
    endloop
  endfacet
  facet normal -0.707048 -0.707165 0
    outer loop
      vertex -1 31.7574 -15
      vertex -1.24264 32 15
      vertex -1.24264 32 -15
    endloop
  endfacet
  facet normal -0.707109 -0.707105 -9.76995e-07
    outer loop
      vertex 15.7279 15.0294 -15
      vertex -1.24264 32 15
      vertex -1 31.7574 -15
    endloop
  endfacet
  facet normal -0.707108 -0.707106 0
    outer loop
      vertex -1.24264 32 15
      vertex 15.7279 15.0294 -15
      vertex 15.7279 15.0294 15
    endloop
  endfacet
  facet normal 0.707107 -0.707107 0
    outer loop
      vertex 15.7279 15.0294 15
      vertex 17.5815 16.883 -15
      vertex 17.5815 16.883 15
    endloop
  endfacet
  facet normal 0.707107 -0.707107 0
    outer loop
      vertex 17.5815 16.883 -15
      vertex 15.7279 15.0294 15
      vertex 15.7279 15.0294 -15
    endloop
  endfacet
  facet normal 0.707107 0.707107 0
    outer loop
      vertex 17.5815 16.883 15
      vertex 0.610913 33.8536 -15
      vertex 0.610913 33.8536 15
    endloop
  endfacet
  facet normal 0.707107 0.707107 0
    outer loop
      vertex 0.610913 33.8536 -15
      vertex 17.5815 16.883 15
      vertex 17.5815 16.883 -15
    endloop
  endfacet
  facet normal 0.707107 0.707107 0
    outer loop
      vertex 17.5815 -16.883 15
      vertex 15.7279 -15.0294 -15
      vertex 15.7279 -15.0294 15
    endloop
  endfacet
  facet normal 0.707107 0.707107 0
    outer loop
      vertex 15.7279 -15.0294 -15
      vertex 17.5815 -16.883 15
      vertex 17.5815 -16.883 -15
    endloop
  endfacet
  facet normal 0 0 1
    outer loop
      vertex 15.7279 -15.0294 15
      vertex 0.610913 -33.8536 15
      vertex 17.5815 -16.883 15
    endloop
  endfacet
  facet normal 0 -0 1
    outer loop
      vertex 0.610913 -33.8536 15
      vertex 15.7279 -15.0294 15
      vertex -1.24264 -32 15
    endloop
  endfacet
  facet normal -0.707048 -0.707165 0
    outer loop
      vertex -1 -32.2426 -15
      vertex -1.24264 -32 15
      vertex -1.24264 -32 -15
    endloop
  endfacet
  facet normal -0.707126 -0.707088 -1.25164e-06
    outer loop
      vertex 0.610913 -33.8536 -15
      vertex -1.24264 -32 15
      vertex -1 -32.2426 -15
    endloop
  endfacet
  facet normal -0.707116 -0.707098 0
    outer loop
      vertex -1.24264 -32 15
      vertex 0.610913 -33.8536 -15
      vertex 0.610913 -33.8536 15
    endloop
  endfacet
  facet normal -0.707109 0.707105 0
    outer loop
      vertex -1 -31.7574 -15
      vertex 15.7279 -15.0294 15
      vertex 15.7279 -15.0294 -15
    endloop
  endfacet
  facet normal -0.707048 0.707165 0
    outer loop
      vertex -1.24264 -32 15
      vertex -1 -31.7574 -15
      vertex -1.24264 -32 -15
    endloop
  endfacet
  facet normal -0.707108 0.707106 -9.63027e-07
    outer loop
      vertex -1 -31.7574 -15
      vertex -1.24264 -32 15
      vertex 15.7279 -15.0294 15
    endloop
  endfacet
  facet normal 0.707107 -0.707107 0
    outer loop
      vertex 0.610913 -33.8536 15
      vertex 17.5815 -16.883 -15
      vertex 17.5815 -16.883 15
    endloop
  endfacet
  facet normal 0.707107 -0.707107 0
    outer loop
      vertex 17.5815 -16.883 -15
      vertex 0.610913 -33.8536 15
      vertex 0.610913 -33.8536 -15
    endloop
  endfacet
  facet normal -1 0 0
    outer loop
      vertex 28.5 -9.20096 -2.75
      vertex 28.5 -6 -6.5
      vertex 28.5 -9.05111 -3.11177
    endloop
  endfacet
  facet normal -1 0 0
    outer loop
      vertex 28.5 -6 -6.5
      vertex 28.5 -9.05111 8.11177
      vertex 28.5 -9 8.5
    endloop
  endfacet
  facet normal -1 0 0
    outer loop
      vertex 28.5 -9.20096 7.75
      vertex 28.5 -6 -6.5
      vertex 28.5 -9.20096 -2.75
    endloop
  endfacet
  facet normal -1 0 0
    outer loop
      vertex 28.5 -6 -6.5
      vertex 28.5 -9.20096 7.75
      vertex 28.5 -9.05111 8.11177
    endloop
  endfacet
  facet normal -1 0 0
    outer loop
      vertex 28.5 -9.43934 -2.43934
      vertex 28.5 -9.20096 7.75
      vertex 28.5 -9.20096 -2.75
    endloop
  endfacet
  facet normal -1 0 0
    outer loop
      vertex 28.5 -9.43934 -2.43934
      vertex 28.5 -9.43934 7.43934
      vertex 28.5 -9.20096 7.75
    endloop
  endfacet
  facet normal -1 0 0
    outer loop
      vertex 28.5 -9.75 -2.20096
      vertex 28.5 -9.43934 7.43934
      vertex 28.5 -9.43934 -2.43934
    endloop
  endfacet
  facet normal -1 0 0
    outer loop
      vertex 28.5 -9.75 -2.20096
      vertex 28.5 -9.75 7.20096
      vertex 28.5 -9.43934 7.43934
    endloop
  endfacet
  facet normal -1 0 0
    outer loop
      vertex 28.5 -10.1118 -2.05111
      vertex 28.5 -9.75 7.20096
      vertex 28.5 -9.75 -2.20096
    endloop
  endfacet
  facet normal -1 0 0
    outer loop
      vertex 28.5 -10.1118 -2.05111
      vertex 28.5 -10.1118 7.05111
      vertex 28.5 -9.75 7.20096
    endloop
  endfacet
  facet normal -1 0 0
    outer loop
      vertex 28.5 -10.5 -2
      vertex 28.5 -10.1118 7.05111
      vertex 28.5 -10.1118 -2.05111
    endloop
  endfacet
  facet normal -1 0 0
    outer loop
      vertex 28.5 -10.5 -2
      vertex 28.5 -10.5 7
      vertex 28.5 -10.1118 7.05111
    endloop
  endfacet
  facet normal -1 0 0
    outer loop
      vertex 28.5 -10.8882 -2.05111
      vertex 28.5 -10.5 7
      vertex 28.5 -10.5 -2
    endloop
  endfacet
  facet normal -1 0 0
    outer loop
      vertex 28.5 -10.8882 -2.05111
      vertex 28.5 -10.8882 7.05111
      vertex 28.5 -10.5 7
    endloop
  endfacet
  facet normal -1 0 0
    outer loop
      vertex 28.5 -11.25 -2.20096
      vertex 28.5 -10.8882 7.05111
      vertex 28.5 -10.8882 -2.05111
    endloop
  endfacet
  facet normal -1 0 0
    outer loop
      vertex 28.5 -11.25 -2.20096
      vertex 28.5 -11.25 7.20096
      vertex 28.5 -10.8882 7.05111
    endloop
  endfacet
  facet normal -1 0 0
    outer loop
      vertex 28.5 -11.5607 -2.43934
      vertex 28.5 -11.25 7.20096
      vertex 28.5 -11.25 -2.20096
    endloop
  endfacet
  facet normal -1 0 0
    outer loop
      vertex 28.5 -11.5607 -2.43934
      vertex 28.5 -11.5607 7.43934
      vertex 28.5 -11.25 7.20096
    endloop
  endfacet
  facet normal -1 0 0
    outer loop
      vertex 28.5 -11.799 -2.75
      vertex 28.5 -11.5607 7.43934
      vertex 28.5 -11.5607 -2.43934
    endloop
  endfacet
  facet normal -1 0 0
    outer loop
      vertex 28.5 -11.799 -2.75
      vertex 28.5 -11.799 7.75
      vertex 28.5 -11.5607 7.43934
    endloop
  endfacet
  facet normal -1 0 0
    outer loop
      vertex 28.5 -11.9489 -3.11177
      vertex 28.5 -11.799 7.75
      vertex 28.5 -11.799 -2.75
    endloop
  endfacet
  facet normal -1 0 0
    outer loop
      vertex 28.5 -11.9489 -3.11177
      vertex 28.5 -11.9489 8.11177
      vertex 28.5 -11.799 7.75
    endloop
  endfacet
  facet normal -1 0 0
    outer loop
      vertex 28.5 -12 -3.5
      vertex 28.5 -11.9489 8.11177
      vertex 28.5 -11.9489 -3.11177
    endloop
  endfacet
  facet normal -1 -0 0
    outer loop
      vertex 28.5 -11.9489 8.11177
      vertex 28.5 -12 -3.5
      vertex 28.5 -12 8.5
    endloop
  endfacet
  facet normal -1 0 0
    outer loop
      vertex 28.5 11.9489 -3.11177
      vertex 28.5 12 8.5
      vertex 28.5 12 -3.5
    endloop
  endfacet
  facet normal -1 0 0
    outer loop
      vertex 28.5 11.9489 -3.11177
      vertex 28.5 11.9489 8.11177
      vertex 28.5 12 8.5
    endloop
  endfacet
  facet normal -1 0 0
    outer loop
      vertex 28.5 11.799 -2.75
      vertex 28.5 11.9489 8.11177
      vertex 28.5 11.9489 -3.11177
    endloop
  endfacet
  facet normal -1 0 0
    outer loop
      vertex 28.5 11.799 -2.75
      vertex 28.5 11.799 7.75
      vertex 28.5 11.9489 8.11177
    endloop
  endfacet
  facet normal -1 0 0
    outer loop
      vertex 28.5 11.5607 -2.43934
      vertex 28.5 11.799 7.75
      vertex 28.5 11.799 -2.75
    endloop
  endfacet
  facet normal -1 0 0
    outer loop
      vertex 28.5 11.5607 -2.43934
      vertex 28.5 11.5607 7.43934
      vertex 28.5 11.799 7.75
    endloop
  endfacet
  facet normal -1 0 0
    outer loop
      vertex 28.5 11.25 -2.20096
      vertex 28.5 11.5607 7.43934
      vertex 28.5 11.5607 -2.43934
    endloop
  endfacet
  facet normal -1 0 0
    outer loop
      vertex 28.5 11.25 -2.20096
      vertex 28.5 11.25 7.20096
      vertex 28.5 11.5607 7.43934
    endloop
  endfacet
  facet normal -1 0 0
    outer loop
      vertex 28.5 10.8882 -2.05111
      vertex 28.5 11.25 7.20096
      vertex 28.5 11.25 -2.20096
    endloop
  endfacet
  facet normal -1 0 0
    outer loop
      vertex 28.5 10.8882 -2.05111
      vertex 28.5 10.8882 7.05111
      vertex 28.5 11.25 7.20096
    endloop
  endfacet
  facet normal -1 0 0
    outer loop
      vertex 28.5 10.5 -2
      vertex 28.5 10.8882 7.05111
      vertex 28.5 10.8882 -2.05111
    endloop
  endfacet
  facet normal -1 0 0
    outer loop
      vertex 28.5 10.5 -2
      vertex 28.5 10.5 7
      vertex 28.5 10.8882 7.05111
    endloop
  endfacet
  facet normal -1 0 0
    outer loop
      vertex 28.5 10.1118 -2.05111
      vertex 28.5 10.5 7
      vertex 28.5 10.5 -2
    endloop
  endfacet
  facet normal -1 0 0
    outer loop
      vertex 28.5 10.1118 -2.05111
      vertex 28.5 10.1118 7.05111
      vertex 28.5 10.5 7
    endloop
  endfacet
  facet normal -1 0 0
    outer loop
      vertex 28.5 9.75 -2.20096
      vertex 28.5 10.1118 7.05111
      vertex 28.5 10.1118 -2.05111
    endloop
  endfacet
  facet normal -1 0 0
    outer loop
      vertex 28.5 9.75 -2.20096
      vertex 28.5 9.75 7.20096
      vertex 28.5 10.1118 7.05111
    endloop
  endfacet
  facet normal -1 0 0
    outer loop
      vertex 28.5 9.43934 -2.43934
      vertex 28.5 9.75 7.20096
      vertex 28.5 9.75 -2.20096
    endloop
  endfacet
  facet normal -1 0 0
    outer loop
      vertex 28.5 9.43934 -2.43934
      vertex 28.5 9.43934 7.43934
      vertex 28.5 9.75 7.20096
    endloop
  endfacet
  facet normal -1 0 0
    outer loop
      vertex 28.5 9.20096 -2.75
      vertex 28.5 9.43934 7.43934
      vertex 28.5 9.43934 -2.43934
    endloop
  endfacet
  facet normal -1 0 0
    outer loop
      vertex 28.5 9.20096 -2.75
      vertex 28.5 9.20096 7.75
      vertex 28.5 9.43934 7.43934
    endloop
  endfacet
  facet normal -1 0 0
    outer loop
      vertex 28.5 6 -6.5
      vertex 28.5 9.20096 -2.75
      vertex 28.5 9.05111 -3.11177
    endloop
  endfacet
  facet normal -1 -0 0
    outer loop
      vertex 28.5 9.20096 -2.75
      vertex 28.5 6 -6.5
      vertex 28.5 9.20096 7.75
    endloop
  endfacet
  facet normal -1 0 0
    outer loop
      vertex 28.5 6 -6.5
      vertex 28.5 9.05111 -3.11177
      vertex 28.5 9 -3.5
    endloop
  endfacet
  facet normal -1 -0 0
    outer loop
      vertex 28.5 9.20096 7.75
      vertex 28.5 6 -6.5
      vertex 28.5 9.05111 8.11177
    endloop
  endfacet
  facet normal -1 0 0
    outer loop
      vertex 28.5 12.5 -15
      vertex 28.5 12 -3.5
      vertex 28.5 12.5 15
    endloop
  endfacet
  facet normal -1 0 0
    outer loop
      vertex 28.5 12.5 -15
      vertex 28.5 11.9489 -3.88823
      vertex 28.5 12 -3.5
    endloop
  endfacet
  facet normal -1 0 0
    outer loop
      vertex 28.5 12.5 -15
      vertex 28.5 11.799 -4.25
      vertex 28.5 11.9489 -3.88823
    endloop
  endfacet
  facet normal -1 0 0
    outer loop
      vertex 28.5 12.5 -15
      vertex 28.5 11.5607 -4.56066
      vertex 28.5 11.799 -4.25
    endloop
  endfacet
  facet normal -1 0 0
    outer loop
      vertex 28.5 12.5 -15
      vertex 28.5 11.25 -4.79904
      vertex 28.5 11.5607 -4.56066
    endloop
  endfacet
  facet normal -1 0 0
    outer loop
      vertex 28.5 12.5 -15
      vertex 28.5 10.8882 -4.94889
      vertex 28.5 11.25 -4.79904
    endloop
  endfacet
  facet normal -1 0 0
    outer loop
      vertex 28.5 12.5 -15
      vertex 28.5 10.5 -5
      vertex 28.5 10.8882 -4.94889
    endloop
  endfacet
  facet normal -1 0 0
    outer loop
      vertex 28.5 6 -6.5
      vertex 28.5 10.5 -5
      vertex 28.5 12.5 -15
    endloop
  endfacet
  facet normal -1 -0 0
    outer loop
      vertex 28.5 10.5 -5
      vertex 28.5 6 -6.5
      vertex 28.5 10.1118 -4.94889
    endloop
  endfacet
  facet normal -1 -0 0
    outer loop
      vertex 28.5 10.1118 -4.94889
      vertex 28.5 6 -6.5
      vertex 28.5 9.75 -4.79904
    endloop
  endfacet
  facet normal -1 -0 0
    outer loop
      vertex 28.5 9.75 -4.79904
      vertex 28.5 6 -6.5
      vertex 28.5 9.43934 -4.56066
    endloop
  endfacet
  facet normal -1 -0 0
    outer loop
      vertex 28.5 9.43934 -4.56066
      vertex 28.5 6 -6.5
      vertex 28.5 9.20096 -4.25
    endloop
  endfacet
  facet normal -1 0 0
    outer loop
      vertex 28.5 6 13.5
      vertex 28.5 9.05111 8.11177
      vertex 28.5 6 -6.5
    endloop
  endfacet
  facet normal -1 -0 0
    outer loop
      vertex 28.5 9.05111 -3.88823
      vertex 28.5 6 -6.5
      vertex 28.5 9 -3.5
    endloop
  endfacet
  facet normal -1 -0 0
    outer loop
      vertex 28.5 9.20096 -4.25
      vertex 28.5 6 -6.5
      vertex 28.5 9.05111 -3.88823
    endloop
  endfacet
  facet normal -1 0 0
    outer loop
      vertex 28.5 12.5 -15
      vertex 28.5 -6 -6.5
      vertex 28.5 6 -6.5
    endloop
  endfacet
  facet normal -1 0 0
    outer loop
      vertex 28.5 -9.05111 -3.11177
      vertex 28.5 -6 -6.5
      vertex 28.5 -9 -3.5
    endloop
  endfacet
  facet normal -1 0 0
    outer loop
      vertex 28.5 -6 -6.5
      vertex 28.5 -9.05111 -3.88823
      vertex 28.5 -9 -3.5
    endloop
  endfacet
  facet normal -1 0 0
    outer loop
      vertex 28.5 -6 -6.5
      vertex 28.5 -9.20096 -4.25
      vertex 28.5 -9.05111 -3.88823
    endloop
  endfacet
  facet normal -1 0 0
    outer loop
      vertex 28.5 -6 -6.5
      vertex 28.5 -9.43934 -4.56066
      vertex 28.5 -9.20096 -4.25
    endloop
  endfacet
  facet normal -1 0 0
    outer loop
      vertex 28.5 -6 -6.5
      vertex 28.5 -9.75 -4.79904
      vertex 28.5 -9.43934 -4.56066
    endloop
  endfacet
  facet normal -1 0 0
    outer loop
      vertex 28.5 -12.5 -15
      vertex 28.5 -6 -6.5
      vertex 28.5 12.5 -15
    endloop
  endfacet
  facet normal -1 0 -0
    outer loop
      vertex 28.5 -10.5 -5
      vertex 28.5 -6 -6.5
      vertex 28.5 -12.5 -15
    endloop
  endfacet
  facet normal -1 0 0
    outer loop
      vertex 28.5 -6 -6.5
      vertex 28.5 -10.1118 -4.94889
      vertex 28.5 -9.75 -4.79904
    endloop
  endfacet
  facet normal -1 0 0
    outer loop
      vertex 28.5 -6 -6.5
      vertex 28.5 -10.5 -5
      vertex 28.5 -10.1118 -4.94889
    endloop
  endfacet
  facet normal -1 -0 0
    outer loop
      vertex 28.5 -10.5 -5
      vertex 28.5 -12.5 -15
      vertex 28.5 -10.8882 -4.94889
    endloop
  endfacet
  facet normal -1 0 0
    outer loop
      vertex 28.5 -12.5 15
      vertex 28.5 -12 -3.5
      vertex 28.5 -12.5 -15
    endloop
  endfacet
  facet normal -1 -0 0
    outer loop
      vertex 28.5 -11.9489 -3.88823
      vertex 28.5 -12.5 -15
      vertex 28.5 -12 -3.5
    endloop
  endfacet
  facet normal -1 -0 0
    outer loop
      vertex 28.5 -11.799 -4.25
      vertex 28.5 -12.5 -15
      vertex 28.5 -11.9489 -3.88823
    endloop
  endfacet
  facet normal -1 -0 0
    outer loop
      vertex 28.5 -11.5607 -4.56066
      vertex 28.5 -12.5 -15
      vertex 28.5 -11.799 -4.25
    endloop
  endfacet
  facet normal -1 -0 0
    outer loop
      vertex 28.5 -11.25 -4.79904
      vertex 28.5 -12.5 -15
      vertex 28.5 -11.5607 -4.56066
    endloop
  endfacet
  facet normal -1 -0 0
    outer loop
      vertex 28.5 -10.8882 -4.94889
      vertex 28.5 -12.5 -15
      vertex 28.5 -11.25 -4.79904
    endloop
  endfacet
  facet normal -1 0 0
    outer loop
      vertex 28.5 12 8.5
      vertex 28.5 12.5 15
      vertex 28.5 12 -3.5
    endloop
  endfacet
  facet normal -1 0 0
    outer loop
      vertex 28.5 11.9489 8.88823
      vertex 28.5 12.5 15
      vertex 28.5 12 8.5
    endloop
  endfacet
  facet normal -1 0 0
    outer loop
      vertex 28.5 11.799 9.25
      vertex 28.5 12.5 15
      vertex 28.5 11.9489 8.88823
    endloop
  endfacet
  facet normal -1 0 0
    outer loop
      vertex 28.5 11.5607 9.56066
      vertex 28.5 12.5 15
      vertex 28.5 11.799 9.25
    endloop
  endfacet
  facet normal -1 0 0
    outer loop
      vertex 28.5 11.25 9.79904
      vertex 28.5 12.5 15
      vertex 28.5 11.5607 9.56066
    endloop
  endfacet
  facet normal -1 0 0
    outer loop
      vertex 28.5 10.8882 9.94889
      vertex 28.5 12.5 15
      vertex 28.5 11.25 9.79904
    endloop
  endfacet
  facet normal -1 0 0
    outer loop
      vertex 28.5 10.5 10
      vertex 28.5 12.5 15
      vertex 28.5 10.8882 9.94889
    endloop
  endfacet
  facet normal -1 0 0
    outer loop
      vertex 28.5 10.1118 9.94889
      vertex 28.5 12.5 15
      vertex 28.5 10.5 10
    endloop
  endfacet
  facet normal -1 0 0
    outer loop
      vertex 28.5 6 13.5
      vertex 28.5 10.1118 9.94889
      vertex 28.5 9.75 9.79904
    endloop
  endfacet
  facet normal -1 0 0
    outer loop
      vertex 28.5 6 13.5
      vertex 28.5 9.75 9.79904
      vertex 28.5 9.43934 9.56066
    endloop
  endfacet
  facet normal -1 0 0
    outer loop
      vertex 28.5 6 13.5
      vertex 28.5 9.43934 9.56066
      vertex 28.5 9.20096 9.25
    endloop
  endfacet
  facet normal -1 0 0
    outer loop
      vertex 28.5 9.05111 8.11177
      vertex 28.5 6 13.5
      vertex 28.5 9 8.5
    endloop
  endfacet
  facet normal -1 0 0
    outer loop
      vertex 28.5 9 8.5
      vertex 28.5 6 13.5
      vertex 28.5 9.05111 8.88823
    endloop
  endfacet
  facet normal -1 0 0
    outer loop
      vertex 28.5 6 13.5
      vertex 28.5 9.20096 9.25
      vertex 28.5 9.05111 8.88823
    endloop
  endfacet
  facet normal -1 0 0
    outer loop
      vertex 28.5 10.1118 9.94889
      vertex 28.5 6 13.5
      vertex 28.5 12.5 15
    endloop
  endfacet
  facet normal -1 0 0
    outer loop
      vertex 28.5 -6 13.5
      vertex 28.5 12.5 15
      vertex 28.5 6 13.5
    endloop
  endfacet
  facet normal -1 0 0
    outer loop
      vertex 28.5 -6 -6.5
      vertex 28.5 -9 8.5
      vertex 28.5 -6 13.5
    endloop
  endfacet
  facet normal -1 0 0
    outer loop
      vertex 28.5 -9.05111 8.88823
      vertex 28.5 -6 13.5
      vertex 28.5 -9 8.5
    endloop
  endfacet
  facet normal -1 0 0
    outer loop
      vertex 28.5 -9.20096 9.25
      vertex 28.5 -6 13.5
      vertex 28.5 -9.05111 8.88823
    endloop
  endfacet
  facet normal -1 0 0
    outer loop
      vertex 28.5 -9.43934 9.56066
      vertex 28.5 -6 13.5
      vertex 28.5 -9.20096 9.25
    endloop
  endfacet
  facet normal -1 0 0
    outer loop
      vertex 28.5 -9.75 9.79904
      vertex 28.5 -6 13.5
      vertex 28.5 -9.43934 9.56066
    endloop
  endfacet
  facet normal -1 0 0
    outer loop
      vertex 28.5 -10.1118 9.94889
      vertex 28.5 -6 13.5
      vertex 28.5 -9.75 9.79904
    endloop
  endfacet
  facet normal -1 0 0
    outer loop
      vertex 28.5 -12.5 15
      vertex 28.5 -10.1118 9.94889
      vertex 28.5 -10.5 10
    endloop
  endfacet
  facet normal -1 0 0
    outer loop
      vertex 28.5 -12.5 15
      vertex 28.5 -10.5 10
      vertex 28.5 -10.8882 9.94889
    endloop
  endfacet
  facet normal -1 0 0
    outer loop
      vertex 28.5 -12.5 15
      vertex 28.5 -10.8882 9.94889
      vertex 28.5 -11.25 9.79904
    endloop
  endfacet
  facet normal -1 0 0
    outer loop
      vertex 28.5 -6 13.5
      vertex 28.5 -12.5 15
      vertex 28.5 12.5 15
    endloop
  endfacet
  facet normal -1 0 0
    outer loop
      vertex 28.5 -10.1118 9.94889
      vertex 28.5 -12.5 15
      vertex 28.5 -6 13.5
    endloop
  endfacet
  facet normal -1 0 0
    outer loop
      vertex 28.5 -11.5607 9.56066
      vertex 28.5 -12.5 15
      vertex 28.5 -11.25 9.79904
    endloop
  endfacet
  facet normal -1 0 0
    outer loop
      vertex 28.5 -11.799 9.25
      vertex 28.5 -12.5 15
      vertex 28.5 -11.5607 9.56066
    endloop
  endfacet
  facet normal -1 0 0
    outer loop
      vertex 28.5 -11.9489 8.88823
      vertex 28.5 -12.5 15
      vertex 28.5 -11.799 9.25
    endloop
  endfacet
  facet normal -1 0 0
    outer loop
      vertex 28.5 -12 8.5
      vertex 28.5 -12.5 15
      vertex 28.5 -11.9489 8.88823
    endloop
  endfacet
  facet normal -1 0 0
    outer loop
      vertex 28.5 -12 -3.5
      vertex 28.5 -12.5 15
      vertex 28.5 -12 8.5
    endloop
  endfacet
  facet normal -0 0 1
    outer loop
      vertex 28.5 12.5 15
      vertex 31.5 -12.5 15
      vertex 31.5 12.5 15
    endloop
  endfacet
  facet normal 0 0 1
    outer loop
      vertex 31.5 -12.5 15
      vertex 28.5 12.5 15
      vertex 28.5 -12.5 15
    endloop
  endfacet
  facet normal 1 -0 0
    outer loop
      vertex 31.5 -9.20096 7.75
      vertex 31.5 -6 -6.5
      vertex 31.5 -9.05111 8.11177
    endloop
  endfacet
  facet normal 1 0 0
    outer loop
      vertex 31.5 -6 -6.5
      vertex 31.5 -9.05111 -3.11177
      vertex 31.5 -9 -3.5
    endloop
  endfacet
  facet normal 1 -0 0
    outer loop
      vertex 31.5 -9.20096 -2.75
      vertex 31.5 -6 -6.5
      vertex 31.5 -9.20096 7.75
    endloop
  endfacet
  facet normal 1 0 0
    outer loop
      vertex 31.5 -6 -6.5
      vertex 31.5 -9.20096 -2.75
      vertex 31.5 -9.05111 -3.11177
    endloop
  endfacet
  facet normal 1 -0 0
    outer loop
      vertex 31.5 -9.43934 7.43934
      vertex 31.5 -9.20096 -2.75
      vertex 31.5 -9.20096 7.75
    endloop
  endfacet
  facet normal 1 0 0
    outer loop
      vertex 31.5 -9.43934 7.43934
      vertex 31.5 -9.43934 -2.43934
      vertex 31.5 -9.20096 -2.75
    endloop
  endfacet
  facet normal 1 -0 0
    outer loop
      vertex 31.5 -9.75 7.20096
      vertex 31.5 -9.43934 -2.43934
      vertex 31.5 -9.43934 7.43934
    endloop
  endfacet
  facet normal 1 0 0
    outer loop
      vertex 31.5 -9.75 7.20096
      vertex 31.5 -9.75 -2.20096
      vertex 31.5 -9.43934 -2.43934
    endloop
  endfacet
  facet normal 1 -0 0
    outer loop
      vertex 31.5 -10.1118 7.05111
      vertex 31.5 -9.75 -2.20096
      vertex 31.5 -9.75 7.20096
    endloop
  endfacet
  facet normal 1 0 0
    outer loop
      vertex 31.5 -10.1118 7.05111
      vertex 31.5 -10.1118 -2.05111
      vertex 31.5 -9.75 -2.20096
    endloop
  endfacet
  facet normal 1 -0 0
    outer loop
      vertex 31.5 -10.5 7
      vertex 31.5 -10.1118 -2.05111
      vertex 31.5 -10.1118 7.05111
    endloop
  endfacet
  facet normal 1 0 0
    outer loop
      vertex 31.5 -10.5 7
      vertex 31.5 -10.5 -2
      vertex 31.5 -10.1118 -2.05111
    endloop
  endfacet
  facet normal 1 0 0
    outer loop
      vertex 31.5 -10.8882 7.05111
      vertex 31.5 -10.5 -2
      vertex 31.5 -10.5 7
    endloop
  endfacet
  facet normal 1 0 0
    outer loop
      vertex 31.5 -10.8882 7.05111
      vertex 31.5 -10.8882 -2.05111
      vertex 31.5 -10.5 -2
    endloop
  endfacet
  facet normal 1 0 0
    outer loop
      vertex 31.5 -11.25 7.20096
      vertex 31.5 -10.8882 -2.05111
      vertex 31.5 -10.8882 7.05111
    endloop
  endfacet
  facet normal 1 0 0
    outer loop
      vertex 31.5 -11.25 7.20096
      vertex 31.5 -11.25 -2.20096
      vertex 31.5 -10.8882 -2.05111
    endloop
  endfacet
  facet normal 1 0 0
    outer loop
      vertex 31.5 -11.5607 7.43934
      vertex 31.5 -11.25 -2.20096
      vertex 31.5 -11.25 7.20096
    endloop
  endfacet
  facet normal 1 0 0
    outer loop
      vertex 31.5 -11.5607 7.43934
      vertex 31.5 -11.5607 -2.43934
      vertex 31.5 -11.25 -2.20096
    endloop
  endfacet
  facet normal 1 0 0
    outer loop
      vertex 31.5 -11.799 7.75
      vertex 31.5 -11.5607 -2.43934
      vertex 31.5 -11.5607 7.43934
    endloop
  endfacet
  facet normal 1 0 0
    outer loop
      vertex 31.5 -11.799 7.75
      vertex 31.5 -11.799 -2.75
      vertex 31.5 -11.5607 -2.43934
    endloop
  endfacet
  facet normal 1 0 0
    outer loop
      vertex 31.5 -11.9489 8.11177
      vertex 31.5 -11.799 -2.75
      vertex 31.5 -11.799 7.75
    endloop
  endfacet
  facet normal 1 0 0
    outer loop
      vertex 31.5 -11.9489 8.11177
      vertex 31.5 -11.9489 -3.11177
      vertex 31.5 -11.799 -2.75
    endloop
  endfacet
  facet normal 1 0 0
    outer loop
      vertex 31.5 -12 8.5
      vertex 31.5 -11.9489 -3.11177
      vertex 31.5 -11.9489 8.11177
    endloop
  endfacet
  facet normal 1 0 0
    outer loop
      vertex 31.5 -11.9489 -3.11177
      vertex 31.5 -12 8.5
      vertex 31.5 -12 -3.5
    endloop
  endfacet
  facet normal 1 -0 0
    outer loop
      vertex 31.5 11.9489 8.11177
      vertex 31.5 12 -3.5
      vertex 31.5 12 8.5
    endloop
  endfacet
  facet normal 1 0 0
    outer loop
      vertex 31.5 11.9489 8.11177
      vertex 31.5 11.9489 -3.11177
      vertex 31.5 12 -3.5
    endloop
  endfacet
  facet normal 1 -0 0
    outer loop
      vertex 31.5 11.799 7.75
      vertex 31.5 11.9489 -3.11177
      vertex 31.5 11.9489 8.11177
    endloop
  endfacet
  facet normal 1 0 0
    outer loop
      vertex 31.5 11.799 7.75
      vertex 31.5 11.799 -2.75
      vertex 31.5 11.9489 -3.11177
    endloop
  endfacet
  facet normal 1 -0 0
    outer loop
      vertex 31.5 11.5607 7.43934
      vertex 31.5 11.799 -2.75
      vertex 31.5 11.799 7.75
    endloop
  endfacet
  facet normal 1 0 0
    outer loop
      vertex 31.5 11.5607 7.43934
      vertex 31.5 11.5607 -2.43934
      vertex 31.5 11.799 -2.75
    endloop
  endfacet
  facet normal 1 -0 0
    outer loop
      vertex 31.5 11.25 7.20096
      vertex 31.5 11.5607 -2.43934
      vertex 31.5 11.5607 7.43934
    endloop
  endfacet
  facet normal 1 0 0
    outer loop
      vertex 31.5 11.25 7.20096
      vertex 31.5 11.25 -2.20096
      vertex 31.5 11.5607 -2.43934
    endloop
  endfacet
  facet normal 1 -0 0
    outer loop
      vertex 31.5 10.8882 7.05111
      vertex 31.5 11.25 -2.20096
      vertex 31.5 11.25 7.20096
    endloop
  endfacet
  facet normal 1 0 0
    outer loop
      vertex 31.5 10.8882 7.05111
      vertex 31.5 10.8882 -2.05111
      vertex 31.5 11.25 -2.20096
    endloop
  endfacet
  facet normal 1 -0 0
    outer loop
      vertex 31.5 10.5 7
      vertex 31.5 10.8882 -2.05111
      vertex 31.5 10.8882 7.05111
    endloop
  endfacet
  facet normal 1 0 0
    outer loop
      vertex 31.5 10.5 7
      vertex 31.5 10.5 -2
      vertex 31.5 10.8882 -2.05111
    endloop
  endfacet
  facet normal 1 0 0
    outer loop
      vertex 31.5 10.1118 7.05111
      vertex 31.5 10.5 -2
      vertex 31.5 10.5 7
    endloop
  endfacet
  facet normal 1 0 0
    outer loop
      vertex 31.5 10.1118 7.05111
      vertex 31.5 10.1118 -2.05111
      vertex 31.5 10.5 -2
    endloop
  endfacet
  facet normal 1 0 0
    outer loop
      vertex 31.5 9.75 7.20096
      vertex 31.5 10.1118 -2.05111
      vertex 31.5 10.1118 7.05111
    endloop
  endfacet
  facet normal 1 0 0
    outer loop
      vertex 31.5 9.75 7.20096
      vertex 31.5 9.75 -2.20096
      vertex 31.5 10.1118 -2.05111
    endloop
  endfacet
  facet normal 1 0 0
    outer loop
      vertex 31.5 9.43934 7.43934
      vertex 31.5 9.75 -2.20096
      vertex 31.5 9.75 7.20096
    endloop
  endfacet
  facet normal 1 0 0
    outer loop
      vertex 31.5 9.43934 7.43934
      vertex 31.5 9.43934 -2.43934
      vertex 31.5 9.75 -2.20096
    endloop
  endfacet
  facet normal 1 0 0
    outer loop
      vertex 31.5 9.20096 7.75
      vertex 31.5 9.43934 -2.43934
      vertex 31.5 9.43934 7.43934
    endloop
  endfacet
  facet normal 1 0 0
    outer loop
      vertex 31.5 9.20096 7.75
      vertex 31.5 9.20096 -2.75
      vertex 31.5 9.43934 -2.43934
    endloop
  endfacet
  facet normal 1 0 0
    outer loop
      vertex 31.5 6 -6.5
      vertex 31.5 9.20096 7.75
      vertex 31.5 9.05111 8.11177
    endloop
  endfacet
  facet normal 1 0 0
    outer loop
      vertex 31.5 9.20096 7.75
      vertex 31.5 6 -6.5
      vertex 31.5 9.20096 -2.75
    endloop
  endfacet
  facet normal 1 0 0
    outer loop
      vertex 31.5 6 13.5
      vertex 31.5 9.05111 8.11177
      vertex 31.5 9 8.5
    endloop
  endfacet
  facet normal 1 0 0
    outer loop
      vertex 31.5 9.20096 -2.75
      vertex 31.5 6 -6.5
      vertex 31.5 9.05111 -3.11177
    endloop
  endfacet
  facet normal 1 -0 0
    outer loop
      vertex 31.5 12 -3.5
      vertex 31.5 12.5 -15
      vertex 31.5 12.5 15
    endloop
  endfacet
  facet normal 1 0 0
    outer loop
      vertex 31.5 12 -3.5
      vertex 31.5 12.5 15
      vertex 31.5 12 8.5
    endloop
  endfacet
  facet normal 1 0 0
    outer loop
      vertex 31.5 12.5 15
      vertex 31.5 11.9489 8.88823
      vertex 31.5 12 8.5
    endloop
  endfacet
  facet normal 1 0 0
    outer loop
      vertex 31.5 12.5 15
      vertex 31.5 11.799 9.25
      vertex 31.5 11.9489 8.88823
    endloop
  endfacet
  facet normal 1 0 0
    outer loop
      vertex 31.5 12.5 15
      vertex 31.5 11.5607 9.56066
      vertex 31.5 11.799 9.25
    endloop
  endfacet
  facet normal 1 0 0
    outer loop
      vertex 31.5 12.5 15
      vertex 31.5 11.25 9.79904
      vertex 31.5 11.5607 9.56066
    endloop
  endfacet
  facet normal 1 0 0
    outer loop
      vertex 31.5 12.5 15
      vertex 31.5 10.8882 9.94889
      vertex 31.5 11.25 9.79904
    endloop
  endfacet
  facet normal 1 0 0
    outer loop
      vertex 31.5 12.5 15
      vertex 31.5 10.5 10
      vertex 31.5 10.8882 9.94889
    endloop
  endfacet
  facet normal 1 0 0
    outer loop
      vertex 31.5 12.5 15
      vertex 31.5 10.1118 9.94889
      vertex 31.5 10.5 10
    endloop
  endfacet
  facet normal 1 -0 0
    outer loop
      vertex 31.5 6 13.5
      vertex 31.5 10.1118 9.94889
      vertex 31.5 12.5 15
    endloop
  endfacet
  facet normal 1 0 0
    outer loop
      vertex 31.5 10.1118 9.94889
      vertex 31.5 6 13.5
      vertex 31.5 9.75 9.79904
    endloop
  endfacet
  facet normal 1 0 0
    outer loop
      vertex 31.5 9.75 9.79904
      vertex 31.5 6 13.5
      vertex 31.5 9.43934 9.56066
    endloop
  endfacet
  facet normal 1 0 0
    outer loop
      vertex 31.5 9.05111 8.11177
      vertex 31.5 6 13.5
      vertex 31.5 6 -6.5
    endloop
  endfacet
  facet normal 1 0 0
    outer loop
      vertex 31.5 9.05111 8.88823
      vertex 31.5 6 13.5
      vertex 31.5 9 8.5
    endloop
  endfacet
  facet normal 1 0 0
    outer loop
      vertex 31.5 9.20096 9.25
      vertex 31.5 6 13.5
      vertex 31.5 9.05111 8.88823
    endloop
  endfacet
  facet normal 1 0 0
    outer loop
      vertex 31.5 9.43934 9.56066
      vertex 31.5 6 13.5
      vertex 31.5 9.20096 9.25
    endloop
  endfacet
  facet normal 1 0 0
    outer loop
      vertex 31.5 12.5 15
      vertex 31.5 -6 13.5
      vertex 31.5 6 13.5
    endloop
  endfacet
  facet normal 1 0 0
    outer loop
      vertex 31.5 -9.05111 8.11177
      vertex 31.5 -6 13.5
      vertex 31.5 -9 8.5
    endloop
  endfacet
  facet normal 1 0 0
    outer loop
      vertex 31.5 -6 13.5
      vertex 31.5 -9.05111 8.88823
      vertex 31.5 -9 8.5
    endloop
  endfacet
  facet normal 1 0 0
    outer loop
      vertex 31.5 -6 13.5
      vertex 31.5 -9.20096 9.25
      vertex 31.5 -9.05111 8.88823
    endloop
  endfacet
  facet normal 1 0 0
    outer loop
      vertex 31.5 -6 13.5
      vertex 31.5 -9.43934 9.56066
      vertex 31.5 -9.20096 9.25
    endloop
  endfacet
  facet normal 1 0 0
    outer loop
      vertex 31.5 -6 13.5
      vertex 31.5 -9.75 9.79904
      vertex 31.5 -9.43934 9.56066
    endloop
  endfacet
  facet normal 1 0 0
    outer loop
      vertex 31.5 -6 13.5
      vertex 31.5 -10.1118 9.94889
      vertex 31.5 -9.75 9.79904
    endloop
  endfacet
  facet normal 1 0 0
    outer loop
      vertex 31.5 -12.5 15
      vertex 31.5 -10.1118 9.94889
      vertex 31.5 -6 13.5
    endloop
  endfacet
  facet normal 1 0 0
    outer loop
      vertex 31.5 -10.1118 9.94889
      vertex 31.5 -12.5 15
      vertex 31.5 -10.5 10
    endloop
  endfacet
  facet normal 1 0 0
    outer loop
      vertex 31.5 -10.5 10
      vertex 31.5 -12.5 15
      vertex 31.5 -10.8882 9.94889
    endloop
  endfacet
  facet normal 1 0 0
    outer loop
      vertex 31.5 -12.5 15
      vertex 31.5 -12 -3.5
      vertex 31.5 -12 8.5
    endloop
  endfacet
  facet normal 1 -0 0
    outer loop
      vertex 31.5 -12.5 15
      vertex 31.5 -6 13.5
      vertex 31.5 12.5 15
    endloop
  endfacet
  facet normal 1 0 0
    outer loop
      vertex 31.5 -10.8882 9.94889
      vertex 31.5 -12.5 15
      vertex 31.5 -11.25 9.79904
    endloop
  endfacet
  facet normal 1 0 0
    outer loop
      vertex 31.5 -12.5 15
      vertex 31.5 -11.5607 9.56066
      vertex 31.5 -11.25 9.79904
    endloop
  endfacet
  facet normal 1 0 0
    outer loop
      vertex 31.5 -12.5 15
      vertex 31.5 -11.799 9.25
      vertex 31.5 -11.5607 9.56066
    endloop
  endfacet
  facet normal 1 0 0
    outer loop
      vertex 31.5 -12.5 15
      vertex 31.5 -11.9489 8.88823
      vertex 31.5 -11.799 9.25
    endloop
  endfacet
  facet normal 1 0 0
    outer loop
      vertex 31.5 -12.5 15
      vertex 31.5 -12 8.5
      vertex 31.5 -11.9489 8.88823
    endloop
  endfacet
  facet normal 1 0 0
    outer loop
      vertex 31.5 -12 -3.5
      vertex 31.5 -12.5 15
      vertex 31.5 -12.5 -15
    endloop
  endfacet
  facet normal 1 0 0
    outer loop
      vertex 31.5 -12 -3.5
      vertex 31.5 -12.5 -15
      vertex 31.5 -12.3485 -15
    endloop
  endfacet
  facet normal 1 -0 0
    outer loop
      vertex 31.5 11.9489 -3.88823
      vertex 31.5 12.5 -15
      vertex 31.5 12 -3.5
    endloop
  endfacet
  facet normal 1 -0 0
    outer loop
      vertex 31.5 11.799 -4.25
      vertex 31.5 12.5 -15
      vertex 31.5 11.9489 -3.88823
    endloop
  endfacet
  facet normal 1 -0 0
    outer loop
      vertex 31.5 11.5607 -4.56066
      vertex 31.5 12.5 -15
      vertex 31.5 11.799 -4.25
    endloop
  endfacet
  facet normal 1 -0 0
    outer loop
      vertex 31.5 11.25 -4.79904
      vertex 31.5 12.5 -15
      vertex 31.5 11.5607 -4.56066
    endloop
  endfacet
  facet normal 1 -0 0
    outer loop
      vertex 31.5 10.8882 -4.94889
      vertex 31.5 12.5 -15
      vertex 31.5 11.25 -4.79904
    endloop
  endfacet
  facet normal 1 0 0
    outer loop
      vertex 31.5 12.5 -15
      vertex 31.5 10.8882 -4.94889
      vertex 31.5 12.3485 -15
    endloop
  endfacet
  facet normal 1 -0 0
    outer loop
      vertex 31.5 10.5 -5
      vertex 31.5 12.3485 -15
      vertex 31.5 10.8882 -4.94889
    endloop
  endfacet
  facet normal 1 0 0
    outer loop
      vertex 31.5 6 -6.5
      vertex 31.5 10.5 -5
      vertex 31.5 10.1118 -4.94889
    endloop
  endfacet
  facet normal 1 0 0
    outer loop
      vertex 31.5 6 -6.5
      vertex 31.5 10.1118 -4.94889
      vertex 31.5 9.75 -4.79904
    endloop
  endfacet
  facet normal 1 0 0
    outer loop
      vertex 31.5 6 -6.5
      vertex 31.5 9.75 -4.79904
      vertex 31.5 9.43934 -4.56066
    endloop
  endfacet
  facet normal 1 0 0
    outer loop
      vertex 31.5 6 -6.5
      vertex 31.5 9.43934 -4.56066
      vertex 31.5 9.20096 -4.25
    endloop
  endfacet
  facet normal 1 0 0
    outer loop
      vertex 31.5 6 -6.5
      vertex 31.5 9.20096 -4.25
      vertex 31.5 9.05111 -3.88823
    endloop
  endfacet
  facet normal 1 0 0
    outer loop
      vertex 31.5 9.05111 -3.11177
      vertex 31.5 6 -6.5
      vertex 31.5 9 -3.5
    endloop
  endfacet
  facet normal 1 0 0
    outer loop
      vertex 31.5 9 -3.5
      vertex 31.5 6 -6.5
      vertex 31.5 9.05111 -3.88823
    endloop
  endfacet
  facet normal 1 0 0
    outer loop
      vertex 31.5 10.5 -5
      vertex 31.5 6 -6.5
      vertex 31.5 12.3485 -15
    endloop
  endfacet
  facet normal 1 -0 0
    outer loop
      vertex 31.5 -6 -6.5
      vertex 31.5 12.3485 -15
      vertex 31.5 6 -6.5
    endloop
  endfacet
  facet normal 1 0 0
    outer loop
      vertex 31.5 -6 13.5
      vertex 31.5 -9.05111 8.11177
      vertex 31.5 -6 -6.5
    endloop
  endfacet
  facet normal 1 -0 0
    outer loop
      vertex 31.5 -9.05111 -3.88823
      vertex 31.5 -6 -6.5
      vertex 31.5 -9 -3.5
    endloop
  endfacet
  facet normal 1 -0 0
    outer loop
      vertex 31.5 -9.20096 -4.25
      vertex 31.5 -6 -6.5
      vertex 31.5 -9.05111 -3.88823
    endloop
  endfacet
  facet normal 1 -0 0
    outer loop
      vertex 31.5 -9.43934 -4.56066
      vertex 31.5 -6 -6.5
      vertex 31.5 -9.20096 -4.25
    endloop
  endfacet
  facet normal 1 -0 0
    outer loop
      vertex 31.5 -9.75 -4.79904
      vertex 31.5 -6 -6.5
      vertex 31.5 -9.43934 -4.56066
    endloop
  endfacet
  facet normal 1 -0 0
    outer loop
      vertex 31.5 -10.1118 -4.94889
      vertex 31.5 -6 -6.5
      vertex 31.5 -9.75 -4.79904
    endloop
  endfacet
  facet normal 1 -0 0
    outer loop
      vertex 31.5 -10.5 -5
      vertex 31.5 -6 -6.5
      vertex 31.5 -10.1118 -4.94889
    endloop
  endfacet
  facet normal 1 0 0
    outer loop
      vertex 31.5 -6 -6.5
      vertex 31.5 -10.5 -5
      vertex 31.5 -12.3485 -15
    endloop
  endfacet
  facet normal 1 0 0
    outer loop
      vertex 31.5 -12.3485 -15
      vertex 31.5 -10.5 -5
      vertex 31.5 -10.8882 -4.94889
    endloop
  endfacet
  facet normal 1 0 0
    outer loop
      vertex 31.5 -12.3485 -15
      vertex 31.5 -10.8882 -4.94889
      vertex 31.5 -11.25 -4.79904
    endloop
  endfacet
  facet normal 1 0 0
    outer loop
      vertex 31.5 -6 -6.5
      vertex 31.5 -12.3485 -15
      vertex 31.5 12.3485 -15
    endloop
  endfacet
  facet normal 1 0 0
    outer loop
      vertex 31.5 -11.5607 -4.56066
      vertex 31.5 -12.3485 -15
      vertex 31.5 -11.25 -4.79904
    endloop
  endfacet
  facet normal 1 0 0
    outer loop
      vertex 31.5 -11.799 -4.25
      vertex 31.5 -12.3485 -15
      vertex 31.5 -11.5607 -4.56066
    endloop
  endfacet
  facet normal 1 0 0
    outer loop
      vertex 31.5 -11.9489 -3.88823
      vertex 31.5 -12.3485 -15
      vertex 31.5 -11.799 -4.25
    endloop
  endfacet
  facet normal 1 0 0
    outer loop
      vertex 31.5 -12.3485 -15
      vertex 31.5 -11.9489 -3.88823
      vertex 31.5 -12 -3.5
    endloop
  endfacet
  facet normal 0 -1 0
    outer loop
      vertex 28.5 -12.5 -15
      vertex 31.5 -12.5 15
      vertex 28.5 -12.5 15
    endloop
  endfacet
  facet normal 0 -1 0
    outer loop
      vertex 31.2826 -12.5 -15
      vertex 31.5 -12.5 15
      vertex 28.5 -12.5 -15
    endloop
  endfacet
  facet normal 0 -1 -0
    outer loop
      vertex 31.5 -12.5 15
      vertex 31.2826 -12.5 -15
      vertex 31.5 -12.5 -15
    endloop
  endfacet
  facet normal 0 1 0
    outer loop
      vertex 31.2826 12.5 -15
      vertex 31.5 12.5 15
      vertex 31.5 12.5 -15
    endloop
  endfacet
  facet normal 0 1 0
    outer loop
      vertex 31.5 12.5 15
      vertex 31.2826 12.5 -15
      vertex 28.5 12.5 15
    endloop
  endfacet
  facet normal 0 1 0
    outer loop
      vertex 28.5 12.5 15
      vertex 31.2826 12.5 -15
      vertex 28.5 12.5 -15
    endloop
  endfacet
  facet normal 0 -0.130532 0.991444
    outer loop
      vertex 28.5 10.8882 -4.94889
      vertex 31.5 10.5 -5
      vertex 31.5 10.8882 -4.94889
    endloop
  endfacet
  facet normal 0 -0.130532 0.991444
    outer loop
      vertex 31.5 10.5 -5
      vertex 28.5 10.8882 -4.94889
      vertex 28.5 10.5 -5
    endloop
  endfacet
  facet normal 0 0.130532 -0.991444
    outer loop
      vertex 28.5 10.1118 -2.05111
      vertex 31.5 10.5 -2
      vertex 31.5 10.1118 -2.05111
    endloop
  endfacet
  facet normal 0 0.130532 -0.991444
    outer loop
      vertex 31.5 10.5 -2
      vertex 28.5 10.1118 -2.05111
      vertex 28.5 10.5 -2
    endloop
  endfacet
  facet normal 0 -0.991449 -0.130497
    outer loop
      vertex 28.5 12 -3.5
      vertex 31.5 11.9489 -3.11177
      vertex 28.5 11.9489 -3.11177
    endloop
  endfacet
  facet normal 0 -0.991449 -0.130497
    outer loop
      vertex 31.5 11.9489 -3.11177
      vertex 28.5 12 -3.5
      vertex 31.5 12 -3.5
    endloop
  endfacet
  facet normal 0 0.991445 0.130523
    outer loop
      vertex 31.5 9.05111 -3.88823
      vertex 28.5 9 -3.5
      vertex 31.5 9 -3.5
    endloop
  endfacet
  facet normal 0 0.991445 0.130523
    outer loop
      vertex 28.5 9 -3.5
      vertex 31.5 9.05111 -3.88823
      vertex 28.5 9.05111 -3.88823
    endloop
  endfacet
  facet normal 0 0.793351 -0.608765
    outer loop
      vertex 31.5 9.20096 -2.75
      vertex 28.5 9.43934 -2.43934
      vertex 31.5 9.43934 -2.43934
    endloop
  endfacet
  facet normal 0 0.793351 -0.608765
    outer loop
      vertex 28.5 9.43934 -2.43934
      vertex 31.5 9.20096 -2.75
      vertex 28.5 9.20096 -2.75
    endloop
  endfacet
  facet normal 0 -0.382656 0.923891
    outer loop
      vertex 28.5 11.25 -4.79904
      vertex 31.5 10.8882 -4.94889
      vertex 31.5 11.25 -4.79904
    endloop
  endfacet
  facet normal 0 -0.382656 0.923891
    outer loop
      vertex 31.5 10.8882 -4.94889
      vertex 28.5 11.25 -4.79904
      vertex 28.5 10.8882 -4.94889
    endloop
  endfacet
  facet normal 0 -0.608716 -0.793388
    outer loop
      vertex 28.5 11.25 -2.20096
      vertex 31.5 11.5607 -2.43934
      vertex 31.5 11.25 -2.20096
    endloop
  endfacet
  facet normal -0 -0.608716 -0.793388
    outer loop
      vertex 31.5 11.5607 -2.43934
      vertex 28.5 11.25 -2.20096
      vertex 28.5 11.5607 -2.43934
    endloop
  endfacet
  facet normal 0 -0.923834 -0.382792
    outer loop
      vertex 28.5 11.9489 -3.11177
      vertex 31.5 11.799 -2.75
      vertex 28.5 11.799 -2.75
    endloop
  endfacet
  facet normal 0 -0.923834 -0.382792
    outer loop
      vertex 31.5 11.799 -2.75
      vertex 28.5 11.9489 -3.11177
      vertex 31.5 11.9489 -3.11177
    endloop
  endfacet
  facet normal 0 0.382656 -0.923891
    outer loop
      vertex 28.5 9.75 -2.20096
      vertex 31.5 10.1118 -2.05111
      vertex 31.5 9.75 -2.20096
    endloop
  endfacet
  facet normal 0 0.382656 -0.923891
    outer loop
      vertex 31.5 10.1118 -2.05111
      vertex 28.5 9.75 -2.20096
      vertex 28.5 10.1118 -2.05111
    endloop
  endfacet
  facet normal 0 -0.608716 0.793388
    outer loop
      vertex 28.5 11.5607 -4.56066
      vertex 31.5 11.25 -4.79904
      vertex 31.5 11.5607 -4.56066
    endloop
  endfacet
  facet normal 0 -0.608716 0.793388
    outer loop
      vertex 31.5 11.25 -4.79904
      vertex 28.5 11.5607 -4.56066
      vertex 28.5 11.25 -4.79904
    endloop
  endfacet
  facet normal 0 -0.923834 0.382792
    outer loop
      vertex 28.5 11.799 -4.25
      vertex 31.5 11.9489 -3.88823
      vertex 28.5 11.9489 -3.88823
    endloop
  endfacet
  facet normal 0 -0.923834 0.382792
    outer loop
      vertex 31.5 11.9489 -3.88823
      vertex 28.5 11.799 -4.25
      vertex 31.5 11.799 -4.25
    endloop
  endfacet
  facet normal 0 -0.382656 -0.923891
    outer loop
      vertex 28.5 10.8882 -2.05111
      vertex 31.5 11.25 -2.20096
      vertex 31.5 10.8882 -2.05111
    endloop
  endfacet
  facet normal -0 -0.382656 -0.923891
    outer loop
      vertex 31.5 11.25 -2.20096
      vertex 28.5 10.8882 -2.05111
      vertex 28.5 11.25 -2.20096
    endloop
  endfacet
  facet normal 0 -0.130532 -0.991444
    outer loop
      vertex 28.5 10.5 -2
      vertex 31.5 10.8882 -2.05111
      vertex 31.5 10.5 -2
    endloop
  endfacet
  facet normal -0 -0.130532 -0.991444
    outer loop
      vertex 31.5 10.8882 -2.05111
      vertex 28.5 10.5 -2
      vertex 28.5 10.8882 -2.05111
    endloop
  endfacet
  facet normal 0 -0.793449 -0.608636
    outer loop
      vertex 28.5 11.799 -2.75
      vertex 31.5 11.5607 -2.43934
      vertex 28.5 11.5607 -2.43934
    endloop
  endfacet
  facet normal 0 -0.793449 -0.608636
    outer loop
      vertex 31.5 11.5607 -2.43934
      vertex 28.5 11.799 -2.75
      vertex 31.5 11.799 -2.75
    endloop
  endfacet
  facet normal -0 0.130532 0.991444
    outer loop
      vertex 28.5 10.5 -5
      vertex 31.5 10.1118 -4.94889
      vertex 31.5 10.5 -5
    endloop
  endfacet
  facet normal 0 0.130532 0.991444
    outer loop
      vertex 31.5 10.1118 -4.94889
      vertex 28.5 10.5 -5
      vertex 28.5 10.1118 -4.94889
    endloop
  endfacet
  facet normal 0 0.92388 0.382683
    outer loop
      vertex 31.5 9.20096 -4.25
      vertex 28.5 9.05111 -3.88823
      vertex 31.5 9.05111 -3.88823
    endloop
  endfacet
  facet normal 0 0.92388 0.382683
    outer loop
      vertex 28.5 9.05111 -3.88823
      vertex 31.5 9.20096 -4.25
      vertex 28.5 9.20096 -4.25
    endloop
  endfacet
  facet normal -0 0.382656 0.923891
    outer loop
      vertex 28.5 10.1118 -4.94889
      vertex 31.5 9.75 -4.79904
      vertex 31.5 10.1118 -4.94889
    endloop
  endfacet
  facet normal 0 0.382656 0.923891
    outer loop
      vertex 31.5 9.75 -4.79904
      vertex 28.5 10.1118 -4.94889
      vertex 28.5 9.75 -4.79904
    endloop
  endfacet
  facet normal 0 0.92388 -0.382683
    outer loop
      vertex 31.5 9.05111 -3.11177
      vertex 28.5 9.20096 -2.75
      vertex 31.5 9.20096 -2.75
    endloop
  endfacet
  facet normal 0 0.92388 -0.382683
    outer loop
      vertex 28.5 9.20096 -2.75
      vertex 31.5 9.05111 -3.11177
      vertex 28.5 9.05111 -3.11177
    endloop
  endfacet
  facet normal 0 0.991445 -0.130523
    outer loop
      vertex 31.5 9 -3.5
      vertex 28.5 9.05111 -3.11177
      vertex 31.5 9.05111 -3.11177
    endloop
  endfacet
  facet normal 0 0.991445 -0.130523
    outer loop
      vertex 28.5 9.05111 -3.11177
      vertex 31.5 9 -3.5
      vertex 28.5 9 -3.5
    endloop
  endfacet
  facet normal 0 0.608765 -0.793351
    outer loop
      vertex 28.5 9.43934 -2.43934
      vertex 31.5 9.75 -2.20096
      vertex 31.5 9.43934 -2.43934
    endloop
  endfacet
  facet normal 0 0.608765 -0.793351
    outer loop
      vertex 31.5 9.75 -2.20096
      vertex 28.5 9.43934 -2.43934
      vertex 28.5 9.75 -2.20096
    endloop
  endfacet
  facet normal 0 -0.793449 0.608636
    outer loop
      vertex 28.5 11.5607 -4.56066
      vertex 31.5 11.799 -4.25
      vertex 28.5 11.799 -4.25
    endloop
  endfacet
  facet normal 0 -0.793449 0.608636
    outer loop
      vertex 31.5 11.799 -4.25
      vertex 28.5 11.5607 -4.56066
      vertex 31.5 11.5607 -4.56066
    endloop
  endfacet
  facet normal 0 -0.991449 0.130497
    outer loop
      vertex 28.5 11.9489 -3.88823
      vertex 31.5 12 -3.5
      vertex 28.5 12 -3.5
    endloop
  endfacet
  facet normal 0 -0.991449 0.130497
    outer loop
      vertex 31.5 12 -3.5
      vertex 28.5 11.9489 -3.88823
      vertex 31.5 11.9489 -3.88823
    endloop
  endfacet
  facet normal 0 0.793351 0.608765
    outer loop
      vertex 31.5 9.43934 -4.56066
      vertex 28.5 9.20096 -4.25
      vertex 31.5 9.20096 -4.25
    endloop
  endfacet
  facet normal 0 0.793351 0.608765
    outer loop
      vertex 28.5 9.20096 -4.25
      vertex 31.5 9.43934 -4.56066
      vertex 28.5 9.43934 -4.56066
    endloop
  endfacet
  facet normal -0 0.608765 0.793351
    outer loop
      vertex 28.5 9.75 -4.79904
      vertex 31.5 9.43934 -4.56066
      vertex 31.5 9.75 -4.79904
    endloop
  endfacet
  facet normal 0 0.608765 0.793351
    outer loop
      vertex 31.5 9.43934 -4.56066
      vertex 28.5 9.75 -4.79904
      vertex 28.5 9.43934 -4.56066
    endloop
  endfacet
  facet normal 0 -0.130532 0.991444
    outer loop
      vertex 28.5 -10.1118 -4.94889
      vertex 31.5 -10.5 -5
      vertex 31.5 -10.1118 -4.94889
    endloop
  endfacet
  facet normal 0 -0.130532 0.991444
    outer loop
      vertex 31.5 -10.5 -5
      vertex 28.5 -10.1118 -4.94889
      vertex 28.5 -10.5 -5
    endloop
  endfacet
  facet normal 0 0.130532 -0.991444
    outer loop
      vertex 28.5 -10.8882 -2.05111
      vertex 31.5 -10.5 -2
      vertex 31.5 -10.8882 -2.05111
    endloop
  endfacet
  facet normal 0 0.130532 -0.991444
    outer loop
      vertex 31.5 -10.5 -2
      vertex 28.5 -10.8882 -2.05111
      vertex 28.5 -10.5 -2
    endloop
  endfacet
  facet normal 0 -0.991445 -0.130523
    outer loop
      vertex 28.5 -9 -3.5
      vertex 31.5 -9.05111 -3.11177
      vertex 28.5 -9.05111 -3.11177
    endloop
  endfacet
  facet normal 0 -0.991445 -0.130523
    outer loop
      vertex 31.5 -9.05111 -3.11177
      vertex 28.5 -9 -3.5
      vertex 31.5 -9 -3.5
    endloop
  endfacet
  facet normal 0 -0.608765 0.793351
    outer loop
      vertex 28.5 -9.43934 -4.56066
      vertex 31.5 -9.75 -4.79904
      vertex 31.5 -9.43934 -4.56066
    endloop
  endfacet
  facet normal 0 -0.608765 0.793351
    outer loop
      vertex 31.5 -9.75 -4.79904
      vertex 28.5 -9.43934 -4.56066
      vertex 28.5 -9.75 -4.79904
    endloop
  endfacet
  facet normal 0 -0.382656 0.923891
    outer loop
      vertex 28.5 -9.75 -4.79904
      vertex 31.5 -10.1118 -4.94889
      vertex 31.5 -9.75 -4.79904
    endloop
  endfacet
  facet normal 0 -0.382656 0.923891
    outer loop
      vertex 31.5 -10.1118 -4.94889
      vertex 28.5 -9.75 -4.79904
      vertex 28.5 -10.1118 -4.94889
    endloop
  endfacet
  facet normal 0 -0.92388 -0.382683
    outer loop
      vertex 28.5 -9.05111 -3.11177
      vertex 31.5 -9.20096 -2.75
      vertex 28.5 -9.20096 -2.75
    endloop
  endfacet
  facet normal 0 -0.92388 -0.382683
    outer loop
      vertex 31.5 -9.20096 -2.75
      vertex 28.5 -9.05111 -3.11177
      vertex 31.5 -9.05111 -3.11177
    endloop
  endfacet
  facet normal 0 -0.130532 -0.991444
    outer loop
      vertex 28.5 -10.5 -2
      vertex 31.5 -10.1118 -2.05111
      vertex 31.5 -10.5 -2
    endloop
  endfacet
  facet normal -0 -0.130532 -0.991444
    outer loop
      vertex 31.5 -10.1118 -2.05111
      vertex 28.5 -10.5 -2
      vertex 28.5 -10.1118 -2.05111
    endloop
  endfacet
  facet normal 0 -0.92388 0.382683
    outer loop
      vertex 28.5 -9.20096 -4.25
      vertex 31.5 -9.05111 -3.88823
      vertex 28.5 -9.05111 -3.88823
    endloop
  endfacet
  facet normal 0 -0.92388 0.382683
    outer loop
      vertex 31.5 -9.05111 -3.88823
      vertex 28.5 -9.20096 -4.25
      vertex 31.5 -9.20096 -4.25
    endloop
  endfacet
  facet normal 0 -0.382656 -0.923891
    outer loop
      vertex 28.5 -10.1118 -2.05111
      vertex 31.5 -9.75 -2.20096
      vertex 31.5 -10.1118 -2.05111
    endloop
  endfacet
  facet normal -0 -0.382656 -0.923891
    outer loop
      vertex 31.5 -9.75 -2.20096
      vertex 28.5 -10.1118 -2.05111
      vertex 28.5 -9.75 -2.20096
    endloop
  endfacet
  facet normal 0 -0.793351 -0.608765
    outer loop
      vertex 28.5 -9.20096 -2.75
      vertex 31.5 -9.43934 -2.43934
      vertex 28.5 -9.43934 -2.43934
    endloop
  endfacet
  facet normal 0 -0.793351 -0.608765
    outer loop
      vertex 31.5 -9.43934 -2.43934
      vertex 28.5 -9.20096 -2.75
      vertex 31.5 -9.20096 -2.75
    endloop
  endfacet
  facet normal 0 -0.608765 -0.793351
    outer loop
      vertex 28.5 -9.75 -2.20096
      vertex 31.5 -9.43934 -2.43934
      vertex 31.5 -9.75 -2.20096
    endloop
  endfacet
  facet normal -0 -0.608765 -0.793351
    outer loop
      vertex 31.5 -9.43934 -2.43934
      vertex 28.5 -9.75 -2.20096
      vertex 28.5 -9.43934 -2.43934
    endloop
  endfacet
  facet normal -0 0.382656 0.923891
    outer loop
      vertex 28.5 -10.8882 -4.94889
      vertex 31.5 -11.25 -4.79904
      vertex 31.5 -10.8882 -4.94889
    endloop
  endfacet
  facet normal 0 0.382656 0.923891
    outer loop
      vertex 31.5 -11.25 -4.79904
      vertex 28.5 -10.8882 -4.94889
      vertex 28.5 -11.25 -4.79904
    endloop
  endfacet
  facet normal 0 0.923834 0.382792
    outer loop
      vertex 31.5 -11.799 -4.25
      vertex 28.5 -11.9489 -3.88823
      vertex 31.5 -11.9489 -3.88823
    endloop
  endfacet
  facet normal 0 0.923834 0.382792
    outer loop
      vertex 28.5 -11.9489 -3.88823
      vertex 31.5 -11.799 -4.25
      vertex 28.5 -11.799 -4.25
    endloop
  endfacet
  facet normal 0 0.793449 0.608636
    outer loop
      vertex 31.5 -11.5607 -4.56066
      vertex 28.5 -11.799 -4.25
      vertex 31.5 -11.799 -4.25
    endloop
  endfacet
  facet normal 0 0.793449 0.608636
    outer loop
      vertex 28.5 -11.799 -4.25
      vertex 31.5 -11.5607 -4.56066
      vertex 28.5 -11.5607 -4.56066
    endloop
  endfacet
  facet normal -0 0.130532 0.991444
    outer loop
      vertex 28.5 -10.5 -5
      vertex 31.5 -10.8882 -4.94889
      vertex 31.5 -10.5 -5
    endloop
  endfacet
  facet normal 0 0.130532 0.991444
    outer loop
      vertex 31.5 -10.8882 -4.94889
      vertex 28.5 -10.5 -5
      vertex 28.5 -10.8882 -4.94889
    endloop
  endfacet
  facet normal 0 -0.793351 0.608765
    outer loop
      vertex 28.5 -9.43934 -4.56066
      vertex 31.5 -9.20096 -4.25
      vertex 28.5 -9.20096 -4.25
    endloop
  endfacet
  facet normal 0 -0.793351 0.608765
    outer loop
      vertex 31.5 -9.20096 -4.25
      vertex 28.5 -9.43934 -4.56066
      vertex 31.5 -9.43934 -4.56066
    endloop
  endfacet
  facet normal 0 -0.991445 0.130523
    outer loop
      vertex 28.5 -9.05111 -3.88823
      vertex 31.5 -9 -3.5
      vertex 28.5 -9 -3.5
    endloop
  endfacet
  facet normal 0 -0.991445 0.130523
    outer loop
      vertex 31.5 -9 -3.5
      vertex 28.5 -9.05111 -3.88823
      vertex 31.5 -9.05111 -3.88823
    endloop
  endfacet
  facet normal 0 0.991449 0.130497
    outer loop
      vertex 31.5 -11.9489 -3.88823
      vertex 28.5 -12 -3.5
      vertex 31.5 -12 -3.5
    endloop
  endfacet
  facet normal 0 0.991449 0.130497
    outer loop
      vertex 28.5 -12 -3.5
      vertex 31.5 -11.9489 -3.88823
      vertex 28.5 -11.9489 -3.88823
    endloop
  endfacet
  facet normal 0 0.382656 -0.923891
    outer loop
      vertex 28.5 -11.25 -2.20096
      vertex 31.5 -10.8882 -2.05111
      vertex 31.5 -11.25 -2.20096
    endloop
  endfacet
  facet normal 0 0.382656 -0.923891
    outer loop
      vertex 31.5 -10.8882 -2.05111
      vertex 28.5 -11.25 -2.20096
      vertex 28.5 -10.8882 -2.05111
    endloop
  endfacet
  facet normal 0 0.793449 -0.608636
    outer loop
      vertex 31.5 -11.799 -2.75
      vertex 28.5 -11.5607 -2.43934
      vertex 31.5 -11.5607 -2.43934
    endloop
  endfacet
  facet normal 0 0.793449 -0.608636
    outer loop
      vertex 28.5 -11.5607 -2.43934
      vertex 31.5 -11.799 -2.75
      vertex 28.5 -11.799 -2.75
    endloop
  endfacet
  facet normal 0 0.991449 -0.130497
    outer loop
      vertex 31.5 -12 -3.5
      vertex 28.5 -11.9489 -3.11177
      vertex 31.5 -11.9489 -3.11177
    endloop
  endfacet
  facet normal 0 0.991449 -0.130497
    outer loop
      vertex 28.5 -11.9489 -3.11177
      vertex 31.5 -12 -3.5
      vertex 28.5 -12 -3.5
    endloop
  endfacet
  facet normal 0 0.923834 -0.382792
    outer loop
      vertex 31.5 -11.9489 -3.11177
      vertex 28.5 -11.799 -2.75
      vertex 31.5 -11.799 -2.75
    endloop
  endfacet
  facet normal 0 0.923834 -0.382792
    outer loop
      vertex 28.5 -11.799 -2.75
      vertex 31.5 -11.9489 -3.11177
      vertex 28.5 -11.9489 -3.11177
    endloop
  endfacet
  facet normal 0 0.608716 -0.793388
    outer loop
      vertex 28.5 -11.5607 -2.43934
      vertex 31.5 -11.25 -2.20096
      vertex 31.5 -11.5607 -2.43934
    endloop
  endfacet
  facet normal 0 0.608716 -0.793388
    outer loop
      vertex 31.5 -11.25 -2.20096
      vertex 28.5 -11.5607 -2.43934
      vertex 28.5 -11.25 -2.20096
    endloop
  endfacet
  facet normal -0 0.608716 0.793388
    outer loop
      vertex 28.5 -11.25 -4.79904
      vertex 31.5 -11.5607 -4.56066
      vertex 31.5 -11.25 -4.79904
    endloop
  endfacet
  facet normal 0 0.608716 0.793388
    outer loop
      vertex 31.5 -11.5607 -4.56066
      vertex 28.5 -11.25 -4.79904
      vertex 28.5 -11.5607 -4.56066
    endloop
  endfacet
  facet normal 0 -0.130532 0.991444
    outer loop
      vertex 28.5 10.8882 7.05111
      vertex 31.5 10.5 7
      vertex 31.5 10.8882 7.05111
    endloop
  endfacet
  facet normal 0 -0.130532 0.991444
    outer loop
      vertex 31.5 10.5 7
      vertex 28.5 10.8882 7.05111
      vertex 28.5 10.5 7
    endloop
  endfacet
  facet normal 0 -0.130532 -0.991444
    outer loop
      vertex 28.5 10.5 10
      vertex 31.5 10.8882 9.94889
      vertex 31.5 10.5 10
    endloop
  endfacet
  facet normal -0 -0.130532 -0.991444
    outer loop
      vertex 31.5 10.8882 9.94889
      vertex 28.5 10.5 10
      vertex 28.5 10.8882 9.94889
    endloop
  endfacet
  facet normal 0 0.991445 0.130523
    outer loop
      vertex 31.5 9.05111 8.11177
      vertex 28.5 9 8.5
      vertex 31.5 9 8.5
    endloop
  endfacet
  facet normal 0 0.991445 0.130523
    outer loop
      vertex 28.5 9 8.5
      vertex 31.5 9.05111 8.11177
      vertex 28.5 9.05111 8.11177
    endloop
  endfacet
  facet normal 0 0.92388 0.382683
    outer loop
      vertex 31.5 9.20096 7.75
      vertex 28.5 9.05111 8.11177
      vertex 31.5 9.05111 8.11177
    endloop
  endfacet
  facet normal 0 0.92388 0.382683
    outer loop
      vertex 28.5 9.05111 8.11177
      vertex 31.5 9.20096 7.75
      vertex 28.5 9.20096 7.75
    endloop
  endfacet
  facet normal 0 -0.382656 0.923891
    outer loop
      vertex 28.5 11.25 7.20096
      vertex 31.5 10.8882 7.05111
      vertex 31.5 11.25 7.20096
    endloop
  endfacet
  facet normal 0 -0.382656 0.923891
    outer loop
      vertex 31.5 10.8882 7.05111
      vertex 28.5 11.25 7.20096
      vertex 28.5 10.8882 7.05111
    endloop
  endfacet
  facet normal 0 -0.923834 0.382792
    outer loop
      vertex 28.5 11.799 7.75
      vertex 31.5 11.9489 8.11177
      vertex 28.5 11.9489 8.11177
    endloop
  endfacet
  facet normal 0 -0.923834 0.382792
    outer loop
      vertex 31.5 11.9489 8.11177
      vertex 28.5 11.799 7.75
      vertex 31.5 11.799 7.75
    endloop
  endfacet
  facet normal 0 -0.793449 -0.608636
    outer loop
      vertex 28.5 11.799 9.25
      vertex 31.5 11.5607 9.56066
      vertex 28.5 11.5607 9.56066
    endloop
  endfacet
  facet normal 0 -0.793449 -0.608636
    outer loop
      vertex 31.5 11.5607 9.56066
      vertex 28.5 11.799 9.25
      vertex 31.5 11.799 9.25
    endloop
  endfacet
  facet normal 0 -0.608716 -0.793388
    outer loop
      vertex 28.5 11.25 9.79904
      vertex 31.5 11.5607 9.56066
      vertex 31.5 11.25 9.79904
    endloop
  endfacet
  facet normal -0 -0.608716 -0.793388
    outer loop
      vertex 31.5 11.5607 9.56066
      vertex 28.5 11.25 9.79904
      vertex 28.5 11.5607 9.56066
    endloop
  endfacet
  facet normal 0 -0.923834 -0.382792
    outer loop
      vertex 28.5 11.9489 8.88823
      vertex 31.5 11.799 9.25
      vertex 28.5 11.799 9.25
    endloop
  endfacet
  facet normal 0 -0.923834 -0.382792
    outer loop
      vertex 31.5 11.799 9.25
      vertex 28.5 11.9489 8.88823
      vertex 31.5 11.9489 8.88823
    endloop
  endfacet
  facet normal 0 -0.608716 0.793388
    outer loop
      vertex 28.5 11.5607 7.43934
      vertex 31.5 11.25 7.20096
      vertex 31.5 11.5607 7.43934
    endloop
  endfacet
  facet normal 0 -0.608716 0.793388
    outer loop
      vertex 31.5 11.25 7.20096
      vertex 28.5 11.5607 7.43934
      vertex 28.5 11.25 7.20096
    endloop
  endfacet
  facet normal 0 -0.991449 0.130497
    outer loop
      vertex 28.5 11.9489 8.11177
      vertex 31.5 12 8.5
      vertex 28.5 12 8.5
    endloop
  endfacet
  facet normal 0 -0.991449 0.130497
    outer loop
      vertex 31.5 12 8.5
      vertex 28.5 11.9489 8.11177
      vertex 31.5 11.9489 8.11177
    endloop
  endfacet
  facet normal 0 -0.382656 -0.923891
    outer loop
      vertex 28.5 10.8882 9.94889
      vertex 31.5 11.25 9.79904
      vertex 31.5 10.8882 9.94889
    endloop
  endfacet
  facet normal -0 -0.382656 -0.923891
    outer loop
      vertex 31.5 11.25 9.79904
      vertex 28.5 10.8882 9.94889
      vertex 28.5 11.25 9.79904
    endloop
  endfacet
  facet normal 0 -0.991449 -0.130497
    outer loop
      vertex 28.5 12 8.5
      vertex 31.5 11.9489 8.88823
      vertex 28.5 11.9489 8.88823
    endloop
  endfacet
  facet normal 0 -0.991449 -0.130497
    outer loop
      vertex 31.5 11.9489 8.88823
      vertex 28.5 12 8.5
      vertex 31.5 12 8.5
    endloop
  endfacet
  facet normal 0 0.608765 -0.793351
    outer loop
      vertex 28.5 9.43934 9.56066
      vertex 31.5 9.75 9.79904
      vertex 31.5 9.43934 9.56066
    endloop
  endfacet
  facet normal 0 0.608765 -0.793351
    outer loop
      vertex 31.5 9.75 9.79904
      vertex 28.5 9.43934 9.56066
      vertex 28.5 9.75 9.79904
    endloop
  endfacet
  facet normal -0 0.382656 0.923891
    outer loop
      vertex 28.5 10.1118 7.05111
      vertex 31.5 9.75 7.20096
      vertex 31.5 10.1118 7.05111
    endloop
  endfacet
  facet normal 0 0.382656 0.923891
    outer loop
      vertex 31.5 9.75 7.20096
      vertex 28.5 10.1118 7.05111
      vertex 28.5 9.75 7.20096
    endloop
  endfacet
  facet normal 0 -0.793449 0.608636
    outer loop
      vertex 28.5 11.5607 7.43934
      vertex 31.5 11.799 7.75
      vertex 28.5 11.799 7.75
    endloop
  endfacet
  facet normal 0 -0.793449 0.608636
    outer loop
      vertex 31.5 11.799 7.75
      vertex 28.5 11.5607 7.43934
      vertex 31.5 11.5607 7.43934
    endloop
  endfacet
  facet normal 0 0.793351 -0.608765
    outer loop
      vertex 31.5 9.20096 9.25
      vertex 28.5 9.43934 9.56066
      vertex 31.5 9.43934 9.56066
    endloop
  endfacet
  facet normal 0 0.793351 -0.608765
    outer loop
      vertex 28.5 9.43934 9.56066
      vertex 31.5 9.20096 9.25
      vertex 28.5 9.20096 9.25
    endloop
  endfacet
  facet normal 0 0.92388 -0.382683
    outer loop
      vertex 31.5 9.05111 8.88823
      vertex 28.5 9.20096 9.25
      vertex 31.5 9.20096 9.25
    endloop
  endfacet
  facet normal 0 0.92388 -0.382683
    outer loop
      vertex 28.5 9.20096 9.25
      vertex 31.5 9.05111 8.88823
      vertex 28.5 9.05111 8.88823
    endloop
  endfacet
  facet normal 0 0.793351 0.608765
    outer loop
      vertex 31.5 9.43934 7.43934
      vertex 28.5 9.20096 7.75
      vertex 31.5 9.20096 7.75
    endloop
  endfacet
  facet normal 0 0.793351 0.608765
    outer loop
      vertex 28.5 9.20096 7.75
      vertex 31.5 9.43934 7.43934
      vertex 28.5 9.43934 7.43934
    endloop
  endfacet
  facet normal -0 0.130532 0.991444
    outer loop
      vertex 28.5 10.5 7
      vertex 31.5 10.1118 7.05111
      vertex 31.5 10.5 7
    endloop
  endfacet
  facet normal 0 0.130532 0.991444
    outer loop
      vertex 31.5 10.1118 7.05111
      vertex 28.5 10.5 7
      vertex 28.5 10.1118 7.05111
    endloop
  endfacet
  facet normal 0 0.991445 -0.130523
    outer loop
      vertex 31.5 9 8.5
      vertex 28.5 9.05111 8.88823
      vertex 31.5 9.05111 8.88823
    endloop
  endfacet
  facet normal 0 0.991445 -0.130523
    outer loop
      vertex 28.5 9.05111 8.88823
      vertex 31.5 9 8.5
      vertex 28.5 9 8.5
    endloop
  endfacet
  facet normal 0 0.382656 -0.923891
    outer loop
      vertex 28.5 9.75 9.79904
      vertex 31.5 10.1118 9.94889
      vertex 31.5 9.75 9.79904
    endloop
  endfacet
  facet normal 0 0.382656 -0.923891
    outer loop
      vertex 31.5 10.1118 9.94889
      vertex 28.5 9.75 9.79904
      vertex 28.5 10.1118 9.94889
    endloop
  endfacet
  facet normal 0 0.130532 -0.991444
    outer loop
      vertex 28.5 10.1118 9.94889
      vertex 31.5 10.5 10
      vertex 31.5 10.1118 9.94889
    endloop
  endfacet
  facet normal 0 0.130532 -0.991444
    outer loop
      vertex 31.5 10.5 10
      vertex 28.5 10.1118 9.94889
      vertex 28.5 10.5 10
    endloop
  endfacet
  facet normal -0 0.608765 0.793351
    outer loop
      vertex 28.5 9.75 7.20096
      vertex 31.5 9.43934 7.43934
      vertex 31.5 9.75 7.20096
    endloop
  endfacet
  facet normal 0 0.608765 0.793351
    outer loop
      vertex 31.5 9.43934 7.43934
      vertex 28.5 9.75 7.20096
      vertex 28.5 9.43934 7.43934
    endloop
  endfacet
  facet normal 0 -0.130532 0.991444
    outer loop
      vertex 28.5 -10.1118 7.05111
      vertex 31.5 -10.5 7
      vertex 31.5 -10.1118 7.05111
    endloop
  endfacet
  facet normal 0 -0.130532 0.991444
    outer loop
      vertex 31.5 -10.5 7
      vertex 28.5 -10.1118 7.05111
      vertex 28.5 -10.5 7
    endloop
  endfacet
  facet normal 0 -0.130532 -0.991444
    outer loop
      vertex 28.5 -10.5 10
      vertex 31.5 -10.1118 9.94889
      vertex 31.5 -10.5 10
    endloop
  endfacet
  facet normal -0 -0.130532 -0.991444
    outer loop
      vertex 31.5 -10.1118 9.94889
      vertex 28.5 -10.5 10
      vertex 28.5 -10.1118 9.94889
    endloop
  endfacet
  facet normal 0 -0.92388 0.382683
    outer loop
      vertex 28.5 -9.20096 7.75
      vertex 31.5 -9.05111 8.11177
      vertex 28.5 -9.05111 8.11177
    endloop
  endfacet
  facet normal 0 -0.92388 0.382683
    outer loop
      vertex 31.5 -9.05111 8.11177
      vertex 28.5 -9.20096 7.75
      vertex 31.5 -9.20096 7.75
    endloop
  endfacet
  facet normal 0 -0.382656 0.923891
    outer loop
      vertex 28.5 -9.75 7.20096
      vertex 31.5 -10.1118 7.05111
      vertex 31.5 -9.75 7.20096
    endloop
  endfacet
  facet normal 0 -0.382656 0.923891
    outer loop
      vertex 31.5 -10.1118 7.05111
      vertex 28.5 -9.75 7.20096
      vertex 28.5 -10.1118 7.05111
    endloop
  endfacet
  facet normal 0 -0.991445 -0.130523
    outer loop
      vertex 28.5 -9 8.5
      vertex 31.5 -9.05111 8.88823
      vertex 28.5 -9.05111 8.88823
    endloop
  endfacet
  facet normal 0 -0.991445 -0.130523
    outer loop
      vertex 31.5 -9.05111 8.88823
      vertex 28.5 -9 8.5
      vertex 31.5 -9 8.5
    endloop
  endfacet
  facet normal 0 -0.92388 -0.382683
    outer loop
      vertex 28.5 -9.05111 8.88823
      vertex 31.5 -9.20096 9.25
      vertex 28.5 -9.20096 9.25
    endloop
  endfacet
  facet normal 0 -0.92388 -0.382683
    outer loop
      vertex 31.5 -9.20096 9.25
      vertex 28.5 -9.05111 8.88823
      vertex 31.5 -9.05111 8.88823
    endloop
  endfacet
  facet normal 0 -0.382656 -0.923891
    outer loop
      vertex 28.5 -10.1118 9.94889
      vertex 31.5 -9.75 9.79904
      vertex 31.5 -10.1118 9.94889
    endloop
  endfacet
  facet normal -0 -0.382656 -0.923891
    outer loop
      vertex 31.5 -9.75 9.79904
      vertex 28.5 -10.1118 9.94889
      vertex 28.5 -9.75 9.79904
    endloop
  endfacet
  facet normal 0 0.793449 0.608636
    outer loop
      vertex 31.5 -11.5607 7.43934
      vertex 28.5 -11.799 7.75
      vertex 31.5 -11.799 7.75
    endloop
  endfacet
  facet normal 0 0.793449 0.608636
    outer loop
      vertex 28.5 -11.799 7.75
      vertex 31.5 -11.5607 7.43934
      vertex 28.5 -11.5607 7.43934
    endloop
  endfacet
  facet normal 0 0.382656 -0.923891
    outer loop
      vertex 28.5 -11.25 9.79904
      vertex 31.5 -10.8882 9.94889
      vertex 31.5 -11.25 9.79904
    endloop
  endfacet
  facet normal 0 0.382656 -0.923891
    outer loop
      vertex 31.5 -10.8882 9.94889
      vertex 28.5 -11.25 9.79904
      vertex 28.5 -10.8882 9.94889
    endloop
  endfacet
  facet normal 0 0.608716 -0.793388
    outer loop
      vertex 28.5 -11.5607 9.56066
      vertex 31.5 -11.25 9.79904
      vertex 31.5 -11.5607 9.56066
    endloop
  endfacet
  facet normal 0 0.608716 -0.793388
    outer loop
      vertex 31.5 -11.25 9.79904
      vertex 28.5 -11.5607 9.56066
      vertex 28.5 -11.25 9.79904
    endloop
  endfacet
  facet normal 0 -0.608765 0.793351
    outer loop
      vertex 28.5 -9.43934 7.43934
      vertex 31.5 -9.75 7.20096
      vertex 31.5 -9.43934 7.43934
    endloop
  endfacet
  facet normal 0 -0.608765 0.793351
    outer loop
      vertex 31.5 -9.75 7.20096
      vertex 28.5 -9.43934 7.43934
      vertex 28.5 -9.75 7.20096
    endloop
  endfacet
  facet normal 0 -0.793351 -0.608765
    outer loop
      vertex 28.5 -9.20096 9.25
      vertex 31.5 -9.43934 9.56066
      vertex 28.5 -9.43934 9.56066
    endloop
  endfacet
  facet normal 0 -0.793351 -0.608765
    outer loop
      vertex 31.5 -9.43934 9.56066
      vertex 28.5 -9.20096 9.25
      vertex 31.5 -9.20096 9.25
    endloop
  endfacet
  facet normal 0 -0.608765 -0.793351
    outer loop
      vertex 28.5 -9.75 9.79904
      vertex 31.5 -9.43934 9.56066
      vertex 31.5 -9.75 9.79904
    endloop
  endfacet
  facet normal -0 -0.608765 -0.793351
    outer loop
      vertex 31.5 -9.43934 9.56066
      vertex 28.5 -9.75 9.79904
      vertex 28.5 -9.43934 9.56066
    endloop
  endfacet
  facet normal -0 0.382656 0.923891
    outer loop
      vertex 28.5 -10.8882 7.05111
      vertex 31.5 -11.25 7.20096
      vertex 31.5 -10.8882 7.05111
    endloop
  endfacet
  facet normal 0 0.382656 0.923891
    outer loop
      vertex 31.5 -11.25 7.20096
      vertex 28.5 -10.8882 7.05111
      vertex 28.5 -11.25 7.20096
    endloop
  endfacet
  facet normal 0 0.991449 0.130497
    outer loop
      vertex 31.5 -11.9489 8.11177
      vertex 28.5 -12 8.5
      vertex 31.5 -12 8.5
    endloop
  endfacet
  facet normal 0 0.991449 0.130497
    outer loop
      vertex 28.5 -12 8.5
      vertex 31.5 -11.9489 8.11177
      vertex 28.5 -11.9489 8.11177
    endloop
  endfacet
  facet normal 0 0.923834 0.382792
    outer loop
      vertex 31.5 -11.799 7.75
      vertex 28.5 -11.9489 8.11177
      vertex 31.5 -11.9489 8.11177
    endloop
  endfacet
  facet normal 0 0.923834 0.382792
    outer loop
      vertex 28.5 -11.9489 8.11177
      vertex 31.5 -11.799 7.75
      vertex 28.5 -11.799 7.75
    endloop
  endfacet
  facet normal 0 0.991449 -0.130497
    outer loop
      vertex 31.5 -12 8.5
      vertex 28.5 -11.9489 8.88823
      vertex 31.5 -11.9489 8.88823
    endloop
  endfacet
  facet normal 0 0.991449 -0.130497
    outer loop
      vertex 28.5 -11.9489 8.88823
      vertex 31.5 -12 8.5
      vertex 28.5 -12 8.5
    endloop
  endfacet
  facet normal 0 0.793449 -0.608636
    outer loop
      vertex 31.5 -11.799 9.25
      vertex 28.5 -11.5607 9.56066
      vertex 31.5 -11.5607 9.56066
    endloop
  endfacet
  facet normal 0 0.793449 -0.608636
    outer loop
      vertex 28.5 -11.5607 9.56066
      vertex 31.5 -11.799 9.25
      vertex 28.5 -11.799 9.25
    endloop
  endfacet
  facet normal 0 0.130532 -0.991444
    outer loop
      vertex 28.5 -10.8882 9.94889
      vertex 31.5 -10.5 10
      vertex 31.5 -10.8882 9.94889
    endloop
  endfacet
  facet normal 0 0.130532 -0.991444
    outer loop
      vertex 31.5 -10.5 10
      vertex 28.5 -10.8882 9.94889
      vertex 28.5 -10.5 10
    endloop
  endfacet
  facet normal 0 -0.793351 0.608765
    outer loop
      vertex 28.5 -9.43934 7.43934
      vertex 31.5 -9.20096 7.75
      vertex 28.5 -9.20096 7.75
    endloop
  endfacet
  facet normal 0 -0.793351 0.608765
    outer loop
      vertex 31.5 -9.20096 7.75
      vertex 28.5 -9.43934 7.43934
      vertex 31.5 -9.43934 7.43934
    endloop
  endfacet
  facet normal 0 -0.991445 0.130523
    outer loop
      vertex 28.5 -9.05111 8.11177
      vertex 31.5 -9 8.5
      vertex 28.5 -9 8.5
    endloop
  endfacet
  facet normal 0 -0.991445 0.130523
    outer loop
      vertex 31.5 -9 8.5
      vertex 28.5 -9.05111 8.11177
      vertex 31.5 -9.05111 8.11177
    endloop
  endfacet
  facet normal -0 0.130532 0.991444
    outer loop
      vertex 28.5 -10.5 7
      vertex 31.5 -10.8882 7.05111
      vertex 31.5 -10.5 7
    endloop
  endfacet
  facet normal 0 0.130532 0.991444
    outer loop
      vertex 31.5 -10.8882 7.05111
      vertex 28.5 -10.5 7
      vertex 28.5 -10.8882 7.05111
    endloop
  endfacet
  facet normal -0 0.608716 0.793388
    outer loop
      vertex 28.5 -11.25 7.20096
      vertex 31.5 -11.5607 7.43934
      vertex 31.5 -11.25 7.20096
    endloop
  endfacet
  facet normal 0 0.608716 0.793388
    outer loop
      vertex 31.5 -11.5607 7.43934
      vertex 28.5 -11.25 7.20096
      vertex 28.5 -11.5607 7.43934
    endloop
  endfacet
  facet normal 0 0.923834 -0.382792
    outer loop
      vertex 31.5 -11.9489 8.88823
      vertex 28.5 -11.799 9.25
      vertex 31.5 -11.799 9.25
    endloop
  endfacet
  facet normal 0 0.923834 -0.382792
    outer loop
      vertex 28.5 -11.799 9.25
      vertex 31.5 -11.9489 8.88823
      vertex 28.5 -11.9489 8.88823
    endloop
  endfacet
  facet normal 0 0 -1
    outer loop
      vertex 28.5 -6 13.5
      vertex 31.5 6 13.5
      vertex 31.5 -6 13.5
    endloop
  endfacet
  facet normal -0 0 -1
    outer loop
      vertex 31.5 6 13.5
      vertex 28.5 -6 13.5
      vertex 28.5 6 13.5
    endloop
  endfacet
  facet normal 0 -1 0
    outer loop
      vertex 28.5 6 -6.5
      vertex 31.5 6 13.5
      vertex 28.5 6 13.5
    endloop
  endfacet
  facet normal 0 -1 -0
    outer loop
      vertex 31.5 6 13.5
      vertex 28.5 6 -6.5
      vertex 31.5 6 -6.5
    endloop
  endfacet
  facet normal -0 0 1
    outer loop
      vertex 28.5 6 -6.5
      vertex 31.5 -6 -6.5
      vertex 31.5 6 -6.5
    endloop
  endfacet
  facet normal 0 0 1
    outer loop
      vertex 31.5 -6 -6.5
      vertex 28.5 6 -6.5
      vertex 28.5 -6 -6.5
    endloop
  endfacet
  facet normal 0 1 -0
    outer loop
      vertex 31.5 -6 -6.5
      vertex 28.5 -6 13.5
      vertex 31.5 -6 13.5
    endloop
  endfacet
  facet normal 0 1 0
    outer loop
      vertex 28.5 -6 13.5
      vertex 31.5 -6 -6.5
      vertex 28.5 -6 -6.5
    endloop
  endfacet
  facet normal 0.571809 0.820387 -0
    outer loop
      vertex 32 12 -18
      vertex 31.5 12.3485 -15
      vertex 32 12 -15
    endloop
  endfacet
  facet normal 0.571739 0.820436 -1.74855e-05
    outer loop
      vertex 31.5 12.3485 -15
      vertex 32 12 -18
      vertex 31.2826 12.5 -15
    endloop
  endfacet
  facet normal 0.571793 0.820398 1.65737e-06
    outer loop
      vertex -1 35 -18
      vertex 31.2826 12.5 -15
      vertex 32 12 -18
    endloop
  endfacet
  facet normal 0.571793 0.820398 0
    outer loop
      vertex 31.2826 12.5 -15
      vertex -1 35 -18
      vertex -1 35 -15
    endloop
  endfacet
  facet normal 1 -0 0
    outer loop
      vertex 32 -12 -15
      vertex 32 12 -18
      vertex 32 12 -15
    endloop
  endfacet
  facet normal 1 0 0
    outer loop
      vertex 32 12 -18
      vertex 32 -12 -15
      vertex 32 -12 -18
    endloop
  endfacet
  facet normal -1 0 0
    outer loop
      vertex -1 35 -18
      vertex -1 32.2426 -15
      vertex -1 35 -15
    endloop
  endfacet
  facet normal -1 0 0
    outer loop
      vertex -1 35 -18
      vertex -1 31.7574 -15
      vertex -1 32.2426 -15
    endloop
  endfacet
  facet normal -1 0 0
    outer loop
      vertex -1 35 -18
      vertex -1 -31.7574 -15
      vertex -1 31.7574 -15
    endloop
  endfacet
  facet normal -1 0 0
    outer loop
      vertex -1 -35 -18
      vertex -1 -31.7574 -15
      vertex -1 35 -18
    endloop
  endfacet
  facet normal -1 -0 0
    outer loop
      vertex -1 -31.7574 -15
      vertex -1 -35 -18
      vertex -1 -32.2426 -15
    endloop
  endfacet
  facet normal -1 -0 0
    outer loop
      vertex -1 -32.2426 -15
      vertex -1 -35 -18
      vertex -1 -35 -15
    endloop
  endfacet
  facet normal 0 0 -1
    outer loop
      vertex -1 -35 -18
      vertex 32 12 -18
      vertex 32 -12 -18
    endloop
  endfacet
  facet normal -0 0 -1
    outer loop
      vertex 32 12 -18
      vertex -1 -35 -18
      vertex -1 35 -18
    endloop
  endfacet
  facet normal 0.571793 -0.820398 0
    outer loop
      vertex -1 -35 -18
      vertex 31.2826 -12.5 -15
      vertex -1 -35 -15
    endloop
  endfacet
  facet normal 0.571793 -0.820398 1.65737e-06
    outer loop
      vertex 32 -12 -18
      vertex 31.2826 -12.5 -15
      vertex -1 -35 -18
    endloop
  endfacet
  facet normal 0.571739 -0.820436 -1.74855e-05
    outer loop
      vertex 31.2826 -12.5 -15
      vertex 32 -12 -18
      vertex 31.5 -12.3485 -15
    endloop
  endfacet
  facet normal 0.571809 -0.820387 0
    outer loop
      vertex 31.5 -12.3485 -15
      vertex 32 -12 -18
      vertex 32 -12 -15
    endloop
  endfacet
endsolid OpenSCAD_Model
