solid OpenSCAD_Model
  facet normal -1 0 0
    outer loop
      vertex -55 55 -0.174999
      vertex -55 54.9001 0.174999
      vertex -55 55 0.174999
    endloop
  endfacet
  facet normal -1 0 0
    outer loop
      vertex -55 52.5 1.13397
      vertex -55 54.9001 0.174999
      vertex -55 55 -0.174999
    endloop
  endfacet
  facet normal -1 0 0
    outer loop
      vertex -55 54.9001 0.174999
      vertex -55 52.9659 1.74118
      vertex -55 53 2
    endloop
  endfacet
  facet normal -1 0 0
    outer loop
      vertex -55 54.9001 0.174999
      vertex -55 52.866 1.5
      vertex -55 52.9659 1.74118
    endloop
  endfacet
  facet normal -1 0 0
    outer loop
      vertex -55 54.9001 0.174999
      vertex -55 52.7071 1.29289
      vertex -55 52.866 1.5
    endloop
  endfacet
  facet normal -1 0 0
    outer loop
      vertex -55 54.9001 0.174999
      vertex -55 52.5 1.13397
      vertex -55 52.7071 1.29289
    endloop
  endfacet
  facet normal -1 0 0
    outer loop
      vertex -55 55 -0.174999
      vertex -55 52.2588 1.03407
      vertex -55 52.5 1.13397
    endloop
  endfacet
  facet normal -1 0 0
    outer loop
      vertex -55 55 -0.174999
      vertex -55 52 1
      vertex -55 52.2588 1.03407
    endloop
  endfacet
  facet normal -1 0 0
    outer loop
      vertex -55 55 -0.174999
      vertex -55 51.7412 1.03407
      vertex -55 52 1
    endloop
  endfacet
  facet normal -1 0 0
    outer loop
      vertex -55 51 2
      vertex -55 -50.9804 3.43204
      vertex -55 50.9804 3.43204
    endloop
  endfacet
  facet normal -1 0 0
    outer loop
      vertex -55 -51 2
      vertex -55 51 2
      vertex -55 51.0341 1.74118
    endloop
  endfacet
  facet normal -1 0 0
    outer loop
      vertex -55 -51.0341 1.74118
      vertex -55 51.0341 1.74118
      vertex -55 51.134 1.5
    endloop
  endfacet
  facet normal -1 0 0
    outer loop
      vertex -55 -51.134 1.5
      vertex -55 51.134 1.5
      vertex -55 51.2929 1.29289
    endloop
  endfacet
  facet normal -1 0 0
    outer loop
      vertex -55 -51.2929 1.29289
      vertex -55 51.2929 1.29289
      vertex -55 51.5 1.13397
    endloop
  endfacet
  facet normal -1 0 0
    outer loop
      vertex -55 -51.5 1.13397
      vertex -55 51.5 1.13397
      vertex -55 51.7412 1.03407
    endloop
  endfacet
  facet normal -1 0 0
    outer loop
      vertex -55 -51.7412 1.03407
      vertex -55 51.7412 1.03407
      vertex -55 55 -0.174999
    endloop
  endfacet
  facet normal -1 0 0
    outer loop
      vertex -55 51 2
      vertex -55 -51 2
      vertex -55 -50.9804 3.43204
    endloop
  endfacet
  facet normal -1 0 0
    outer loop
      vertex -55 51.0341 1.74118
      vertex -55 -51.0341 1.74118
      vertex -55 -51 2
    endloop
  endfacet
  facet normal -1 0 0
    outer loop
      vertex -55 51.134 1.5
      vertex -55 -51.134 1.5
      vertex -55 -51.0341 1.74118
    endloop
  endfacet
  facet normal -1 0 0
    outer loop
      vertex -55 51.2929 1.29289
      vertex -55 -51.2929 1.29289
      vertex -55 -51.134 1.5
    endloop
  endfacet
  facet normal -1 0 0
    outer loop
      vertex -55 51.5 1.13397
      vertex -55 -51.5 1.13397
      vertex -55 -51.2929 1.29289
    endloop
  endfacet
  facet normal -1 0 0
    outer loop
      vertex -55 51.7412 1.03407
      vertex -55 -51.7412 1.03407
      vertex -55 -51.5 1.13397
    endloop
  endfacet
  facet normal -1 0 0
    outer loop
      vertex -55 -55 -0.174999
      vertex -55 -51.7412 1.03407
      vertex -55 55 -0.174999
    endloop
  endfacet
  facet normal -1 -0 0
    outer loop
      vertex -55 -52.9659 1.74118
      vertex -55 -54.9001 0.174999
      vertex -55 -53 2
    endloop
  endfacet
  facet normal -1 -0 0
    outer loop
      vertex -55 -52.866 1.5
      vertex -55 -54.9001 0.174999
      vertex -55 -52.9659 1.74118
    endloop
  endfacet
  facet normal -1 -0 0
    outer loop
      vertex -55 -52.7071 1.29289
      vertex -55 -54.9001 0.174999
      vertex -55 -52.866 1.5
    endloop
  endfacet
  facet normal -1 -0 0
    outer loop
      vertex -55 -52.5 1.13397
      vertex -55 -54.9001 0.174999
      vertex -55 -52.7071 1.29289
    endloop
  endfacet
  facet normal -1 0 0
    outer loop
      vertex -55 -55 -0.174999
      vertex -55 -52.5 1.13397
      vertex -55 -52.2588 1.03407
    endloop
  endfacet
  facet normal -1 0 0
    outer loop
      vertex -55 -55 -0.174999
      vertex -55 -52.2588 1.03407
      vertex -55 -52 1
    endloop
  endfacet
  facet normal -1 0 0
    outer loop
      vertex -55 -51.7412 1.03407
      vertex -55 -55 -0.174999
      vertex -55 -52 1
    endloop
  endfacet
  facet normal -1 0 0
    outer loop
      vertex -55 -52.5 1.13397
      vertex -55 -55 -0.174999
      vertex -55 -54.9001 0.174999
    endloop
  endfacet
  facet normal -1 -0 0
    outer loop
      vertex -55 -54.9001 0.174999
      vertex -55 -55 -0.174999
      vertex -55 -55 0.174999
    endloop
  endfacet
  facet normal -1 0 0
    outer loop
      vertex -55 52.9659 2.25882
      vertex -55 54.9001 0.174999
      vertex -55 53 2
    endloop
  endfacet
  facet normal -1 0 0
    outer loop
      vertex -55 52.866 2.5
      vertex -55 54.9001 0.174999
      vertex -55 52.9659 2.25882
    endloop
  endfacet
  facet normal -1 0 0
    outer loop
      vertex -55 52 5.19807
      vertex -55 52.866 2.5
      vertex -55 52.7071 2.70711
    endloop
  endfacet
  facet normal -1 0 0
    outer loop
      vertex -55 52.866 2.5
      vertex -55 52 5.19807
      vertex -55 54.9001 0.174999
    endloop
  endfacet
  facet normal -1 0 0
    outer loop
      vertex -55 52.5 2.86602
      vertex -55 52 5.19807
      vertex -55 52.7071 2.70711
    endloop
  endfacet
  facet normal -1 0 0
    outer loop
      vertex -55 52.2588 2.96593
      vertex -55 52 5.19807
      vertex -55 52.5 2.86602
    endloop
  endfacet
  facet normal -1 0 0
    outer loop
      vertex -55 52 3
      vertex -55 52 5.19807
      vertex -55 52.2588 2.96593
    endloop
  endfacet
  facet normal -1 0 0
    outer loop
      vertex -55 50.9804 3.43204
      vertex -55 52 3
      vertex -55 51.7412 2.96593
    endloop
  endfacet
  facet normal -1 0 0
    outer loop
      vertex -55 50.9804 3.43204
      vertex -55 51.7412 2.96593
      vertex -55 51.5 2.86602
    endloop
  endfacet
  facet normal -1 0 0
    outer loop
      vertex -55 50.9804 3.43204
      vertex -55 51.5 2.86602
      vertex -55 51.2929 2.70711
    endloop
  endfacet
  facet normal -1 0 0
    outer loop
      vertex -55 50.9804 3.43204
      vertex -55 51.2929 2.70711
      vertex -55 51.134 2.5
    endloop
  endfacet
  facet normal -1 0 0
    outer loop
      vertex -55 50.9804 3.43204
      vertex -55 51.134 2.5
      vertex -55 51.0341 2.25882
    endloop
  endfacet
  facet normal -1 0 0
    outer loop
      vertex -55 52 3
      vertex -55 50.9804 3.43204
      vertex -55 52 5.19807
    endloop
  endfacet
  facet normal -1 0 0
    outer loop
      vertex -55 50.9804 3.43204
      vertex -55 51.0341 2.25882
      vertex -55 51 2
    endloop
  endfacet
  facet normal -1 0 0
    outer loop
      vertex -55 -51.0341 2.25882
      vertex -55 -50.9804 3.43204
      vertex -55 -51 2
    endloop
  endfacet
  facet normal -1 0 0
    outer loop
      vertex -55 -51.134 2.5
      vertex -55 -50.9804 3.43204
      vertex -55 -51.0341 2.25882
    endloop
  endfacet
  facet normal -1 0 0
    outer loop
      vertex -55 -51.2929 2.70711
      vertex -55 -50.9804 3.43204
      vertex -55 -51.134 2.5
    endloop
  endfacet
  facet normal -1 0 0
    outer loop
      vertex -55 -51.5 2.86602
      vertex -55 -50.9804 3.43204
      vertex -55 -51.2929 2.70711
    endloop
  endfacet
  facet normal -1 0 0
    outer loop
      vertex -55 -51.7412 2.96593
      vertex -55 -50.9804 3.43204
      vertex -55 -51.5 2.86602
    endloop
  endfacet
  facet normal -1 0 0
    outer loop
      vertex -55 -52 3
      vertex -55 -50.9804 3.43204
      vertex -55 -51.7412 2.96593
    endloop
  endfacet
  facet normal -1 0 0
    outer loop
      vertex -55 -52 3
      vertex -55 -52 5.19807
      vertex -55 -50.9804 3.43204
    endloop
  endfacet
  facet normal -1 0 0
    outer loop
      vertex -55 -52.2588 2.96593
      vertex -55 -52 5.19807
      vertex -55 -52 3
    endloop
  endfacet
  facet normal -1 0 0
    outer loop
      vertex -55 -52.5 2.86602
      vertex -55 -52 5.19807
      vertex -55 -52.2588 2.96593
    endloop
  endfacet
  facet normal -1 0 0
    outer loop
      vertex -55 -52.7071 2.70711
      vertex -55 -52 5.19807
      vertex -55 -52.5 2.86602
    endloop
  endfacet
  facet normal -1 0 0
    outer loop
      vertex -55 -52.866 2.5
      vertex -55 -52 5.19807
      vertex -55 -52.7071 2.70711
    endloop
  endfacet
  facet normal -1 0 0
    outer loop
      vertex -55 -54.9001 0.174999
      vertex -55 -52.866 2.5
      vertex -55 -52.9659 2.25882
    endloop
  endfacet
  facet normal -1 -0 0
    outer loop
      vertex -55 -52.866 2.5
      vertex -55 -54.9001 0.174999
      vertex -55 -52 5.19807
    endloop
  endfacet
  facet normal -1 0 0
    outer loop
      vertex -55 -54.9001 0.174999
      vertex -55 -52.9659 2.25882
      vertex -55 -53 2
    endloop
  endfacet
  facet normal -0 0 1
    outer loop
      vertex -55 -54.9001 0.174999
      vertex 55 -55 0.174999
      vertex 55 -54.9001 0.174999
    endloop
  endfacet
  facet normal 0 0 1
    outer loop
      vertex 55 -55 0.174999
      vertex -55 -54.9001 0.174999
      vertex -55 -55 0.174999
    endloop
  endfacet
  facet normal -0 0 1
    outer loop
      vertex -55 55 0.174999
      vertex 55 54.9001 0.174999
      vertex 55 55 0.174999
    endloop
  endfacet
  facet normal 0 0 1
    outer loop
      vertex 55 54.9001 0.174999
      vertex -55 55 0.174999
      vertex -55 54.9001 0.174999
    endloop
  endfacet
  facet normal 0 0 1
    outer loop
      vertex 0 -2.65938 0.174999
      vertex -46.4405 -49.0999 0.174999
      vertex 46.4405 -49.0999 0.174999
    endloop
  endfacet
  facet normal -0 0 1
    outer loop
      vertex 51.7593 49.0999 0.174999
      vertex 53.1195 -49.0999 0.174999
      vertex 53.1195 49.0999 0.174999
    endloop
  endfacet
  facet normal 0 0 1
    outer loop
      vertex 51.7593 49.0999 0.174999
      vertex 51.7593 -49.0999 0.174999
      vertex 53.1195 -49.0999 0.174999
    endloop
  endfacet
  facet normal 0 -0 1
    outer loop
      vertex 51.7593 -49.0999 0.174999
      vertex 51.7593 49.0999 0.174999
      vertex 2.65938 0 0.174999
    endloop
  endfacet
  facet normal 0 0 1
    outer loop
      vertex -51.7593 49.0999 0.174999
      vertex -51.7593 -49.0999 0.174999
      vertex -2.65938 0 0.174999
    endloop
  endfacet
  facet normal -0 0 1
    outer loop
      vertex -53.1195 49.0999 0.174999
      vertex -51.7593 -49.0999 0.174999
      vertex -51.7593 49.0999 0.174999
    endloop
  endfacet
  facet normal 0 0 1
    outer loop
      vertex -51.7593 -49.0999 0.174999
      vertex -53.1195 49.0999 0.174999
      vertex -53.1195 -49.0999 0.174999
    endloop
  endfacet
  facet normal 0 0 1
    outer loop
      vertex 46.4405 49.0999 0.174999
      vertex -46.4405 49.0999 0.174999
      vertex 0 2.65938 0.174999
    endloop
  endfacet
  facet normal 1 0 0
    outer loop
      vertex 55 -50.9804 3.43204
      vertex 55 -51.0341 2.25882
      vertex 55 -51 2
    endloop
  endfacet
  facet normal 1 0 0
    outer loop
      vertex 55 -50.9804 3.43204
      vertex 55 -51.134 2.5
      vertex 55 -51.0341 2.25882
    endloop
  endfacet
  facet normal 1 0 0
    outer loop
      vertex 55 -50.9804 3.43204
      vertex 55 -51.2929 2.70711
      vertex 55 -51.134 2.5
    endloop
  endfacet
  facet normal 1 0 0
    outer loop
      vertex 55 -50.9804 3.43204
      vertex 55 -51.5 2.86602
      vertex 55 -51.2929 2.70711
    endloop
  endfacet
  facet normal 1 0 0
    outer loop
      vertex 55 -50.9804 3.43204
      vertex 55 -51.7412 2.96593
      vertex 55 -51.5 2.86602
    endloop
  endfacet
  facet normal 1 0 0
    outer loop
      vertex 55 -52 3
      vertex 55 -50.9804 3.43204
      vertex 55 -52 5.19807
    endloop
  endfacet
  facet normal 1 0 0
    outer loop
      vertex 55 -50.9804 3.43204
      vertex 55 -52 3
      vertex 55 -51.7412 2.96593
    endloop
  endfacet
  facet normal 1 0 0
    outer loop
      vertex 55 -52 5.19807
      vertex 55 -52.2588 2.96593
      vertex 55 -52 3
    endloop
  endfacet
  facet normal 1 0 0
    outer loop
      vertex 55 -52 5.19807
      vertex 55 -52.5 2.86602
      vertex 55 -52.2588 2.96593
    endloop
  endfacet
  facet normal 1 0 0
    outer loop
      vertex 55 -52 5.19807
      vertex 55 -52.7071 2.70711
      vertex 55 -52.5 2.86602
    endloop
  endfacet
  facet normal 1 0 0
    outer loop
      vertex 55 -52 5.19807
      vertex 55 -52.866 2.5
      vertex 55 -52.7071 2.70711
    endloop
  endfacet
  facet normal 1 0 0
    outer loop
      vertex 55 -54.9001 0.174999
      vertex 55 -52.866 2.5
      vertex 55 -52 5.19807
    endloop
  endfacet
  facet normal 1 0 0
    outer loop
      vertex 55 -52.9659 2.25882
      vertex 55 -54.9001 0.174999
      vertex 55 -53 2
    endloop
  endfacet
  facet normal 1 0 0
    outer loop
      vertex 55 -52.866 2.5
      vertex 55 -54.9001 0.174999
      vertex 55 -52.9659 2.25882
    endloop
  endfacet
  facet normal 1 0 0
    outer loop
      vertex 55 54.9001 0.174999
      vertex 55 52.9659 2.25882
      vertex 55 53 2
    endloop
  endfacet
  facet normal 1 0 0
    outer loop
      vertex 55 54.9001 0.174999
      vertex 55 52.866 2.5
      vertex 55 52.9659 2.25882
    endloop
  endfacet
  facet normal 1 0 0
    outer loop
      vertex 55 52 5.19807
      vertex 55 52.866 2.5
      vertex 55 54.9001 0.174999
    endloop
  endfacet
  facet normal 1 0 0
    outer loop
      vertex 55 52.866 2.5
      vertex 55 52 5.19807
      vertex 55 52.7071 2.70711
    endloop
  endfacet
  facet normal 1 0 0
    outer loop
      vertex 55 52 5.19807
      vertex 55 52.5 2.86602
      vertex 55 52.7071 2.70711
    endloop
  endfacet
  facet normal 1 0 0
    outer loop
      vertex 55 52 5.19807
      vertex 55 52.2588 2.96593
      vertex 55 52.5 2.86602
    endloop
  endfacet
  facet normal 1 0 0
    outer loop
      vertex 55 52 5.19807
      vertex 55 52 3
      vertex 55 52.2588 2.96593
    endloop
  endfacet
  facet normal 1 -0 0
    outer loop
      vertex 55 50.9804 3.43204
      vertex 55 52 3
      vertex 55 52 5.19807
    endloop
  endfacet
  facet normal 1 0 0
    outer loop
      vertex 55 52 3
      vertex 55 50.9804 3.43204
      vertex 55 51.7412 2.96593
    endloop
  endfacet
  facet normal 1 0 0
    outer loop
      vertex 55 51.7412 2.96593
      vertex 55 50.9804 3.43204
      vertex 55 51.5 2.86602
    endloop
  endfacet
  facet normal 1 0 0
    outer loop
      vertex 55 51.5 2.86602
      vertex 55 50.9804 3.43204
      vertex 55 51.2929 2.70711
    endloop
  endfacet
  facet normal 1 0 0
    outer loop
      vertex 55 51.2929 2.70711
      vertex 55 50.9804 3.43204
      vertex 55 51.134 2.5
    endloop
  endfacet
  facet normal 1 0 0
    outer loop
      vertex 55 51.0341 2.25882
      vertex 55 50.9804 3.43204
      vertex 55 51 2
    endloop
  endfacet
  facet normal 1 0 0
    outer loop
      vertex 55 51.134 2.5
      vertex 55 50.9804 3.43204
      vertex 55 51.0341 2.25882
    endloop
  endfacet
  facet normal 1 -0 0
    outer loop
      vertex 55 54.9001 0.174999
      vertex 55 55 -0.174999
      vertex 55 55 0.174999
    endloop
  endfacet
  facet normal 1 -0 0
    outer loop
      vertex 55 52.9659 1.74118
      vertex 55 54.9001 0.174999
      vertex 55 53 2
    endloop
  endfacet
  facet normal 1 -0 0
    outer loop
      vertex 55 52.866 1.5
      vertex 55 54.9001 0.174999
      vertex 55 52.9659 1.74118
    endloop
  endfacet
  facet normal 1 -0 0
    outer loop
      vertex 55 52.7071 1.29289
      vertex 55 54.9001 0.174999
      vertex 55 52.866 1.5
    endloop
  endfacet
  facet normal 1 -0 0
    outer loop
      vertex 55 52.5 1.13397
      vertex 55 54.9001 0.174999
      vertex 55 52.7071 1.29289
    endloop
  endfacet
  facet normal 1 0 0
    outer loop
      vertex 55 54.9001 0.174999
      vertex 55 52.5 1.13397
      vertex 55 55 -0.174999
    endloop
  endfacet
  facet normal 1 -0 0
    outer loop
      vertex 55 52.2588 1.03407
      vertex 55 55 -0.174999
      vertex 55 52.5 1.13397
    endloop
  endfacet
  facet normal 1 -0 0
    outer loop
      vertex 55 52 1
      vertex 55 55 -0.174999
      vertex 55 52.2588 1.03407
    endloop
  endfacet
  facet normal 1 0 0
    outer loop
      vertex 55 51.7412 1.03407
      vertex 55 55 -0.174999
      vertex 55 52 1
    endloop
  endfacet
  facet normal 1 -0 0
    outer loop
      vertex 55 -50.9804 3.43204
      vertex 55 51 2
      vertex 55 50.9804 3.43204
    endloop
  endfacet
  facet normal 1 0 0
    outer loop
      vertex 55 -51 2
      vertex 55 51 2
      vertex 55 -50.9804 3.43204
    endloop
  endfacet
  facet normal 1 0 0
    outer loop
      vertex 55 51 2
      vertex 55 -51 2
      vertex 55 51.0341 1.74118
    endloop
  endfacet
  facet normal 1 0 0
    outer loop
      vertex 55 -51.0341 1.74118
      vertex 55 51.0341 1.74118
      vertex 55 -51 2
    endloop
  endfacet
  facet normal 1 0 0
    outer loop
      vertex 55 51.0341 1.74118
      vertex 55 -51.0341 1.74118
      vertex 55 51.134 1.5
    endloop
  endfacet
  facet normal 1 0 0
    outer loop
      vertex 55 -51.134 1.5
      vertex 55 51.134 1.5
      vertex 55 -51.0341 1.74118
    endloop
  endfacet
  facet normal 1 0 0
    outer loop
      vertex 55 51.134 1.5
      vertex 55 -51.134 1.5
      vertex 55 51.2929 1.29289
    endloop
  endfacet
  facet normal 1 0 0
    outer loop
      vertex 55 -51.2929 1.29289
      vertex 55 51.2929 1.29289
      vertex 55 -51.134 1.5
    endloop
  endfacet
  facet normal 1 0 0
    outer loop
      vertex 55 51.2929 1.29289
      vertex 55 -51.2929 1.29289
      vertex 55 51.5 1.13397
    endloop
  endfacet
  facet normal 1 0 0
    outer loop
      vertex 55 -51.5 1.13397
      vertex 55 51.5 1.13397
      vertex 55 -51.2929 1.29289
    endloop
  endfacet
  facet normal 1 0 0
    outer loop
      vertex 55 51.5 1.13397
      vertex 55 -51.5 1.13397
      vertex 55 51.7412 1.03407
    endloop
  endfacet
  facet normal 1 0 0
    outer loop
      vertex 55 -51.7412 1.03407
      vertex 55 51.7412 1.03407
      vertex 55 -51.5 1.13397
    endloop
  endfacet
  facet normal 1 0 0
    outer loop
      vertex 55 51.7412 1.03407
      vertex 55 -51.7412 1.03407
      vertex 55 55 -0.174999
    endloop
  endfacet
  facet normal 1 0 0
    outer loop
      vertex 55 -55 -0.174999
      vertex 55 -51.7412 1.03407
      vertex 55 -52 1
    endloop
  endfacet
  facet normal 1 0 0
    outer loop
      vertex 55 -54.9001 0.174999
      vertex 55 -52.9659 1.74118
      vertex 55 -53 2
    endloop
  endfacet
  facet normal 1 0 0
    outer loop
      vertex 55 -54.9001 0.174999
      vertex 55 -52.866 1.5
      vertex 55 -52.9659 1.74118
    endloop
  endfacet
  facet normal 1 0 0
    outer loop
      vertex 55 -54.9001 0.174999
      vertex 55 -52.7071 1.29289
      vertex 55 -52.866 1.5
    endloop
  endfacet
  facet normal 1 0 0
    outer loop
      vertex 55 -54.9001 0.174999
      vertex 55 -52.5 1.13397
      vertex 55 -52.7071 1.29289
    endloop
  endfacet
  facet normal 1 0 0
    outer loop
      vertex 55 -55 -0.174999
      vertex 55 -52.5 1.13397
      vertex 55 -54.9001 0.174999
    endloop
  endfacet
  facet normal 1 0 0
    outer loop
      vertex 55 -52.5 1.13397
      vertex 55 -55 -0.174999
      vertex 55 -52.2588 1.03407
    endloop
  endfacet
  facet normal 1 0 0
    outer loop
      vertex 55 -52.2588 1.03407
      vertex 55 -55 -0.174999
      vertex 55 -52 1
    endloop
  endfacet
  facet normal 1 0 0
    outer loop
      vertex 55 -55 -0.174999
      vertex 55 -54.9001 0.174999
      vertex 55 -55 0.174999
    endloop
  endfacet
  facet normal 1 0 0
    outer loop
      vertex 55 -51.7412 1.03407
      vertex 55 -55 -0.174999
      vertex 55 55 -0.174999
    endloop
  endfacet
  facet normal 0 1 -0
    outer loop
      vertex 55 55 -0.174999
      vertex -55 55 0.174999
      vertex 55 55 0.174999
    endloop
  endfacet
  facet normal 0 1 0
    outer loop
      vertex -55 55 0.174999
      vertex 55 55 -0.174999
      vertex -55 55 -0.174999
    endloop
  endfacet
  facet normal 0 0 -1
    outer loop
      vertex -55 -55 -0.174999
      vertex 55 55 -0.174999
      vertex 55 -55 -0.174999
    endloop
  endfacet
  facet normal -0 0 -1
    outer loop
      vertex 55 55 -0.174999
      vertex -55 -55 -0.174999
      vertex -55 55 -0.174999
    endloop
  endfacet
  facet normal 0 -1 0
    outer loop
      vertex -55 -55 -0.174999
      vertex 55 -55 0.174999
      vertex -55 -55 0.174999
    endloop
  endfacet
  facet normal 0 -1 -0
    outer loop
      vertex 55 -55 0.174999
      vertex -55 -55 -0.174999
      vertex 55 -55 -0.174999
    endloop
  endfacet
  facet normal 0 0.866023 0.500004
    outer loop
      vertex 55 54.9001 0.174999
      vertex -55 52 5.19807
      vertex 55 52 5.19807
    endloop
  endfacet
  facet normal 0 0.866023 0.500004
    outer loop
      vertex -55 52 5.19807
      vertex 55 54.9001 0.174999
      vertex -55 54.9001 0.174999
    endloop
  endfacet
  facet normal 0 -0.86602 0.500009
    outer loop
      vertex -46.4405 49.0999 0.174999
      vertex 50.9804 50.9804 3.43204
      vertex -50.9804 50.9804 3.43204
    endloop
  endfacet
  facet normal 0 -0.86602 0.500009
    outer loop
      vertex 50.9804 50.9804 3.43204
      vertex -46.4405 49.0999 0.174999
      vertex 46.4405 49.0999 0.174999
    endloop
  endfacet
  facet normal 0 -0.86602 0.500009
    outer loop
      vertex -53.1195 49.0999 0.174999
      vertex -50.9804 50.9804 3.43204
      vertex -55 50.9804 3.43204
    endloop
  endfacet
  facet normal 0 -0.86602 0.500009
    outer loop
      vertex -50.9804 50.9804 3.43204
      vertex -53.1195 49.0999 0.174999
      vertex -51.7593 49.0999 0.174999
    endloop
  endfacet
  facet normal 0 -0.866029 0.499993
    outer loop
      vertex -50.9804 50.9804 3.43204
      vertex -55 52 5.19807
      vertex -55 50.9804 3.43204
    endloop
  endfacet
  facet normal 0 -0.866029 0.499993
    outer loop
      vertex -55 52 5.19807
      vertex -50.9804 50.9804 3.43204
      vertex 55 52 5.19807
    endloop
  endfacet
  facet normal 0 -0.866029 0.499993
    outer loop
      vertex 50.9804 50.9804 3.43204
      vertex 55 52 5.19807
      vertex -50.9804 50.9804 3.43204
    endloop
  endfacet
  facet normal 0 -0.866029 0.499993
    outer loop
      vertex 50.9804 50.9804 3.43204
      vertex 55 50.9804 3.43204
      vertex 55 52 5.19807
    endloop
  endfacet
  facet normal 0 -0.86602 0.500009
    outer loop
      vertex 53.1195 49.0999 0.174999
      vertex 50.9804 50.9804 3.43204
      vertex 51.7593 49.0999 0.174999
    endloop
  endfacet
  facet normal 0 -0.86602 0.500009
    outer loop
      vertex 50.9804 50.9804 3.43204
      vertex 53.1195 49.0999 0.174999
      vertex 55 50.9804 3.43204
    endloop
  endfacet
  facet normal 0 0.86602 0.500009
    outer loop
      vertex 46.4405 -49.0999 0.174999
      vertex -50.9804 -50.9804 3.43204
      vertex 50.9804 -50.9804 3.43204
    endloop
  endfacet
  facet normal 0 0.86602 0.500009
    outer loop
      vertex -50.9804 -50.9804 3.43204
      vertex 46.4405 -49.0999 0.174999
      vertex -46.4405 -49.0999 0.174999
    endloop
  endfacet
  facet normal 0 0.86602 0.500009
    outer loop
      vertex 53.1195 -49.0999 0.174999
      vertex 50.9804 -50.9804 3.43204
      vertex 55 -50.9804 3.43204
    endloop
  endfacet
  facet normal 0 0.86602 0.500009
    outer loop
      vertex 50.9804 -50.9804 3.43204
      vertex 53.1195 -49.0999 0.174999
      vertex 51.7593 -49.0999 0.174999
    endloop
  endfacet
  facet normal -0 0.866029 0.499993
    outer loop
      vertex 50.9804 -50.9804 3.43204
      vertex 55 -52 5.19807
      vertex 55 -50.9804 3.43204
    endloop
  endfacet
  facet normal 0 0.866029 0.499993
    outer loop
      vertex 55 -52 5.19807
      vertex 50.9804 -50.9804 3.43204
      vertex -55 -52 5.19807
    endloop
  endfacet
  facet normal -0 0.866029 0.499993
    outer loop
      vertex -50.9804 -50.9804 3.43204
      vertex -55 -52 5.19807
      vertex 50.9804 -50.9804 3.43204
    endloop
  endfacet
  facet normal 0 0.866029 0.499993
    outer loop
      vertex -50.9804 -50.9804 3.43204
      vertex -55 -50.9804 3.43204
      vertex -55 -52 5.19807
    endloop
  endfacet
  facet normal -0 0.86602 0.500009
    outer loop
      vertex -53.1195 -49.0999 0.174999
      vertex -50.9804 -50.9804 3.43204
      vertex -51.7593 -49.0999 0.174999
    endloop
  endfacet
  facet normal 0 0.86602 0.500009
    outer loop
      vertex -50.9804 -50.9804 3.43204
      vertex -53.1195 -49.0999 0.174999
      vertex -55 -50.9804 3.43204
    endloop
  endfacet
  facet normal 0 -0.866023 0.500004
    outer loop
      vertex -55 -54.9001 0.174999
      vertex 55 -52 5.19807
      vertex -55 -52 5.19807
    endloop
  endfacet
  facet normal 0 -0.866023 0.500004
    outer loop
      vertex 55 -52 5.19807
      vertex -55 -54.9001 0.174999
      vertex 55 -54.9001 0.174999
    endloop
  endfacet
  facet normal -0.61237 -0.61237 0.500005
    outer loop
      vertex 50.9804 -50.9804 3.43204
      vertex 0 -2.65938 0.174999
      vertex 46.4405 -49.0999 0.174999
    endloop
  endfacet
  facet normal -0.612371 -0.612371 0.500002
    outer loop
      vertex 0 -2.65938 0.174999
      vertex 50.9804 -50.9804 3.43204
      vertex 0 0 3.43204
    endloop
  endfacet
  facet normal -0.612371 -0.612372 0.500002
    outer loop
      vertex 0 0 3.43204
      vertex -51.7593 49.0999 0.174999
      vertex -2.65938 0 0.174999
    endloop
  endfacet
  facet normal -0.61237 -0.61237 0.500005
    outer loop
      vertex -51.7593 49.0999 0.174999
      vertex 0 0 3.43204
      vertex -50.9804 50.9804 3.43204
    endloop
  endfacet
  facet normal 0.61237 0.61237 0.500005
    outer loop
      vertex 2.65938 0 0.174999
      vertex 50.9804 -50.9804 3.43204
      vertex 51.7593 -49.0999 0.174999
    endloop
  endfacet
  facet normal 0.612371 0.612371 0.500002
    outer loop
      vertex 50.9804 -50.9804 3.43204
      vertex 2.65938 0 0.174999
      vertex 0 0 3.43204
    endloop
  endfacet
  facet normal 0.61237 0.61237 0.500005
    outer loop
      vertex -50.9804 50.9804 3.43204
      vertex 0 2.65938 0.174999
      vertex -46.4405 49.0999 0.174999
    endloop
  endfacet
  facet normal 0.612371 0.612371 0.500002
    outer loop
      vertex 0 2.65938 0.174999
      vertex -50.9804 50.9804 3.43204
      vertex 0 0 3.43204
    endloop
  endfacet
  facet normal 0.612371 -0.612371 0.500002
    outer loop
      vertex 2.65938 0 0.174999
      vertex 50.9804 50.9804 3.43204
      vertex 0 0 3.43204
    endloop
  endfacet
  facet normal 0.61237 -0.61237 0.500005
    outer loop
      vertex 50.9804 50.9804 3.43204
      vertex 2.65938 0 0.174999
      vertex 51.7593 49.0999 0.174999
    endloop
  endfacet
  facet normal 0.612371 -0.612371 0.500002
    outer loop
      vertex -50.9804 -50.9804 3.43204
      vertex 0 -2.65938 0.174999
      vertex 0 0 3.43204
    endloop
  endfacet
  facet normal 0.61237 -0.61237 0.500005
    outer loop
      vertex 0 -2.65938 0.174999
      vertex -50.9804 -50.9804 3.43204
      vertex -46.4405 -49.0999 0.174999
    endloop
  endfacet
  facet normal -0.61237 0.61237 0.500005
    outer loop
      vertex 0 2.65938 0.174999
      vertex 50.9804 50.9804 3.43204
      vertex 46.4405 49.0999 0.174999
    endloop
  endfacet
  facet normal -0.612371 0.612371 0.500002
    outer loop
      vertex 50.9804 50.9804 3.43204
      vertex 0 2.65938 0.174999
      vertex 0 0 3.43204
    endloop
  endfacet
  facet normal -0.612371 0.612372 0.500002
    outer loop
      vertex -51.7593 -49.0999 0.174999
      vertex 0 0 3.43204
      vertex -2.65938 0 0.174999
    endloop
  endfacet
  facet normal -0.61237 0.61237 0.500005
    outer loop
      vertex 0 0 3.43204
      vertex -51.7593 -49.0999 0.174999
      vertex -50.9804 -50.9804 3.43204
    endloop
  endfacet
  facet normal -0.86602 0 0.500009
    outer loop
      vertex 53.1195 -49.0999 0.174999
      vertex 55 50.9804 3.43204
      vertex 53.1195 49.0999 0.174999
    endloop
  endfacet
  facet normal -0.86602 0 0.500009
    outer loop
      vertex 55 50.9804 3.43204
      vertex 53.1195 -49.0999 0.174999
      vertex 55 -50.9804 3.43204
    endloop
  endfacet
  facet normal 0.86602 0 0.500009
    outer loop
      vertex -55 50.9804 3.43204
      vertex -53.1195 -49.0999 0.174999
      vertex -53.1195 49.0999 0.174999
    endloop
  endfacet
  facet normal 0.86602 0 0.500009
    outer loop
      vertex -53.1195 -49.0999 0.174999
      vertex -55 50.9804 3.43204
      vertex -55 -50.9804 3.43204
    endloop
  endfacet
  facet normal 0 -0.13052 0.991446
    outer loop
      vertex -55 52.2588 1.03407
      vertex 55 52 1
      vertex 55 52.2588 1.03407
    endloop
  endfacet
  facet normal 0 -0.13052 0.991446
    outer loop
      vertex 55 52 1
      vertex -55 52.2588 1.03407
      vertex -55 52 1
    endloop
  endfacet
  facet normal 0 -0.13052 -0.991446
    outer loop
      vertex -55 52 3
      vertex 55 52.2588 2.96593
      vertex 55 52 3
    endloop
  endfacet
  facet normal -0 -0.13052 -0.991446
    outer loop
      vertex 55 52.2588 2.96593
      vertex -55 52 3
      vertex -55 52.2588 2.96593
    endloop
  endfacet
  facet normal 0 0.991432 0.130623
    outer loop
      vertex 55 51.0341 1.74118
      vertex -55 51 2
      vertex 55 51 2
    endloop
  endfacet
  facet normal 0 0.991432 0.130623
    outer loop
      vertex -55 51 2
      vertex 55 51.0341 1.74118
      vertex -55 51.0341 1.74118
    endloop
  endfacet
  facet normal 0 -0.382656 0.923891
    outer loop
      vertex -55 52.5 1.13397
      vertex 55 52.2588 1.03407
      vertex 55 52.5 1.13397
    endloop
  endfacet
  facet normal 0 -0.382656 0.923891
    outer loop
      vertex 55 52.2588 1.03407
      vertex -55 52.5 1.13397
      vertex -55 52.2588 1.03407
    endloop
  endfacet
  facet normal 0 -0.793392 -0.608711
    outer loop
      vertex -55 52.866 2.5
      vertex 55 52.7071 2.70711
      vertex -55 52.7071 2.70711
    endloop
  endfacet
  facet normal 0 -0.793392 -0.608711
    outer loop
      vertex 55 52.7071 2.70711
      vertex -55 52.866 2.5
      vertex 55 52.866 2.5
    endloop
  endfacet
  facet normal 0 -0.608753 -0.79336
    outer loop
      vertex -55 52.5 2.86602
      vertex 55 52.7071 2.70711
      vertex 55 52.5 2.86602
    endloop
  endfacet
  facet normal -0 -0.608753 -0.79336
    outer loop
      vertex 55 52.7071 2.70711
      vertex -55 52.5 2.86602
      vertex -55 52.7071 2.70711
    endloop
  endfacet
  facet normal 0 -0.92388 -0.382683
    outer loop
      vertex -55 52.9659 2.25882
      vertex 55 52.866 2.5
      vertex -55 52.866 2.5
    endloop
  endfacet
  facet normal 0 -0.92388 -0.382683
    outer loop
      vertex 55 52.866 2.5
      vertex -55 52.9659 2.25882
      vertex 55 52.9659 2.25882
    endloop
  endfacet
  facet normal 0 -0.608777 0.793341
    outer loop
      vertex -55 52.7071 1.29289
      vertex 55 52.5 1.13397
      vertex 55 52.7071 1.29289
    endloop
  endfacet
  facet normal 0 -0.608777 0.793341
    outer loop
      vertex 55 52.5 1.13397
      vertex -55 52.7071 1.29289
      vertex -55 52.5 1.13397
    endloop
  endfacet
  facet normal 0 -0.991432 0.130623
    outer loop
      vertex -55 52.9659 1.74118
      vertex 55 53 2
      vertex -55 53 2
    endloop
  endfacet
  facet normal 0 -0.991432 0.130623
    outer loop
      vertex 55 53 2
      vertex -55 52.9659 1.74118
      vertex 55 52.9659 1.74118
    endloop
  endfacet
  facet normal 0 -0.793392 0.608711
    outer loop
      vertex -55 52.7071 1.29289
      vertex 55 52.866 1.5
      vertex -55 52.866 1.5
    endloop
  endfacet
  facet normal 0 -0.793392 0.608711
    outer loop
      vertex 55 52.866 1.5
      vertex -55 52.7071 1.29289
      vertex 55 52.7071 1.29289
    endloop
  endfacet
  facet normal 0 -0.382689 -0.923877
    outer loop
      vertex -55 52.2588 2.96593
      vertex 55 52.5 2.86602
      vertex 55 52.2588 2.96593
    endloop
  endfacet
  facet normal -0 -0.382689 -0.923877
    outer loop
      vertex 55 52.5 2.86602
      vertex -55 52.2588 2.96593
      vertex -55 52.5 2.86602
    endloop
  endfacet
  facet normal 0 -0.991432 -0.130623
    outer loop
      vertex -55 53 2
      vertex 55 52.9659 2.25882
      vertex -55 52.9659 2.25882
    endloop
  endfacet
  facet normal 0 -0.991432 -0.130623
    outer loop
      vertex 55 52.9659 2.25882
      vertex -55 53 2
      vertex 55 53 2
    endloop
  endfacet
  facet normal -0 0.13052 0.991446
    outer loop
      vertex -55 52 1
      vertex 55 51.7412 1.03407
      vertex 55 52 1
    endloop
  endfacet
  facet normal 0 0.13052 0.991446
    outer loop
      vertex 55 51.7412 1.03407
      vertex -55 52 1
      vertex -55 51.7412 1.03407
    endloop
  endfacet
  facet normal -0 0.608777 0.793341
    outer loop
      vertex -55 51.5 1.13397
      vertex 55 51.2929 1.29289
      vertex 55 51.5 1.13397
    endloop
  endfacet
  facet normal 0 0.608777 0.793341
    outer loop
      vertex 55 51.2929 1.29289
      vertex -55 51.5 1.13397
      vertex -55 51.2929 1.29289
    endloop
  endfacet
  facet normal -0 0.382656 0.923891
    outer loop
      vertex -55 51.7412 1.03407
      vertex 55 51.5 1.13397
      vertex 55 51.7412 1.03407
    endloop
  endfacet
  facet normal 0 0.382656 0.923891
    outer loop
      vertex 55 51.5 1.13397
      vertex -55 51.7412 1.03407
      vertex -55 51.5 1.13397
    endloop
  endfacet
  facet normal 0 -0.92388 0.382683
    outer loop
      vertex -55 52.866 1.5
      vertex 55 52.9659 1.74118
      vertex -55 52.9659 1.74118
    endloop
  endfacet
  facet normal 0 -0.92388 0.382683
    outer loop
      vertex 55 52.9659 1.74118
      vertex -55 52.866 1.5
      vertex 55 52.866 1.5
    endloop
  endfacet
  facet normal 0 0.13052 -0.991446
    outer loop
      vertex -55 51.7412 2.96593
      vertex 55 52 3
      vertex 55 51.7412 2.96593
    endloop
  endfacet
  facet normal 0 0.13052 -0.991446
    outer loop
      vertex 55 52 3
      vertex -55 51.7412 2.96593
      vertex -55 52 3
    endloop
  endfacet
  facet normal 0 0.608753 -0.79336
    outer loop
      vertex -55 51.2929 2.70711
      vertex 55 51.5 2.86602
      vertex 55 51.2929 2.70711
    endloop
  endfacet
  facet normal 0 0.608753 -0.79336
    outer loop
      vertex 55 51.5 2.86602
      vertex -55 51.2929 2.70711
      vertex -55 51.5 2.86602
    endloop
  endfacet
  facet normal 0 0.92388 0.382683
    outer loop
      vertex 55 51.134 1.5
      vertex -55 51.0341 1.74118
      vertex 55 51.0341 1.74118
    endloop
  endfacet
  facet normal 0 0.92388 0.382683
    outer loop
      vertex -55 51.0341 1.74118
      vertex 55 51.134 1.5
      vertex -55 51.134 1.5
    endloop
  endfacet
  facet normal 0 0.991432 -0.130623
    outer loop
      vertex 55 51 2
      vertex -55 51.0341 2.25882
      vertex 55 51.0341 2.25882
    endloop
  endfacet
  facet normal 0 0.991432 -0.130623
    outer loop
      vertex -55 51.0341 2.25882
      vertex 55 51 2
      vertex -55 51 2
    endloop
  endfacet
  facet normal 0 0.382689 -0.923877
    outer loop
      vertex -55 51.5 2.86602
      vertex 55 51.7412 2.96593
      vertex 55 51.5 2.86602
    endloop
  endfacet
  facet normal 0 0.382689 -0.923877
    outer loop
      vertex 55 51.7412 2.96593
      vertex -55 51.5 2.86602
      vertex -55 51.7412 2.96593
    endloop
  endfacet
  facet normal 0 0.793392 0.608711
    outer loop
      vertex 55 51.2929 1.29289
      vertex -55 51.134 1.5
      vertex 55 51.134 1.5
    endloop
  endfacet
  facet normal 0 0.793392 0.608711
    outer loop
      vertex -55 51.134 1.5
      vertex 55 51.2929 1.29289
      vertex -55 51.2929 1.29289
    endloop
  endfacet
  facet normal 0 0.92388 -0.382683
    outer loop
      vertex 55 51.0341 2.25882
      vertex -55 51.134 2.5
      vertex 55 51.134 2.5
    endloop
  endfacet
  facet normal 0 0.92388 -0.382683
    outer loop
      vertex -55 51.134 2.5
      vertex 55 51.0341 2.25882
      vertex -55 51.0341 2.25882
    endloop
  endfacet
  facet normal 0 0.793392 -0.608711
    outer loop
      vertex 55 51.134 2.5
      vertex -55 51.2929 2.70711
      vertex 55 51.2929 2.70711
    endloop
  endfacet
  facet normal 0 0.793392 -0.608711
    outer loop
      vertex -55 51.2929 2.70711
      vertex 55 51.134 2.5
      vertex -55 51.134 2.5
    endloop
  endfacet
  facet normal 0 -0.13052 0.991446
    outer loop
      vertex -55 -51.7412 1.03407
      vertex 55 -52 1
      vertex 55 -51.7412 1.03407
    endloop
  endfacet
  facet normal 0 -0.13052 0.991446
    outer loop
      vertex 55 -52 1
      vertex -55 -51.7412 1.03407
      vertex -55 -52 1
    endloop
  endfacet
  facet normal 0 -0.13052 -0.991446
    outer loop
      vertex -55 -52 3
      vertex 55 -51.7412 2.96593
      vertex 55 -52 3
    endloop
  endfacet
  facet normal -0 -0.13052 -0.991446
    outer loop
      vertex 55 -51.7412 2.96593
      vertex -55 -52 3
      vertex -55 -51.7412 2.96593
    endloop
  endfacet
  facet normal 0 -0.991432 -0.130623
    outer loop
      vertex -55 -51 2
      vertex 55 -51.0341 2.25882
      vertex -55 -51.0341 2.25882
    endloop
  endfacet
  facet normal 0 -0.991432 -0.130623
    outer loop
      vertex 55 -51.0341 2.25882
      vertex -55 -51 2
      vertex 55 -51 2
    endloop
  endfacet
  facet normal 0 0.991432 -0.130623
    outer loop
      vertex 55 -53 2
      vertex -55 -52.9659 2.25882
      vertex 55 -52.9659 2.25882
    endloop
  endfacet
  facet normal 0 0.991432 -0.130623
    outer loop
      vertex -55 -52.9659 2.25882
      vertex 55 -53 2
      vertex -55 -53 2
    endloop
  endfacet
  facet normal 0 0.608753 -0.79336
    outer loop
      vertex -55 -52.7071 2.70711
      vertex 55 -52.5 2.86602
      vertex 55 -52.7071 2.70711
    endloop
  endfacet
  facet normal 0 0.608753 -0.79336
    outer loop
      vertex 55 -52.5 2.86602
      vertex -55 -52.7071 2.70711
      vertex -55 -52.5 2.86602
    endloop
  endfacet
  facet normal 0 -0.92388 0.382683
    outer loop
      vertex -55 -51.134 1.5
      vertex 55 -51.0341 1.74118
      vertex -55 -51.0341 1.74118
    endloop
  endfacet
  facet normal 0 -0.92388 0.382683
    outer loop
      vertex 55 -51.0341 1.74118
      vertex -55 -51.134 1.5
      vertex 55 -51.134 1.5
    endloop
  endfacet
  facet normal 0 -0.793392 -0.608711
    outer loop
      vertex -55 -51.134 2.5
      vertex 55 -51.2929 2.70711
      vertex -55 -51.2929 2.70711
    endloop
  endfacet
  facet normal 0 -0.793392 -0.608711
    outer loop
      vertex 55 -51.2929 2.70711
      vertex -55 -51.134 2.5
      vertex 55 -51.134 2.5
    endloop
  endfacet
  facet normal 0 -0.92388 -0.382683
    outer loop
      vertex -55 -51.0341 2.25882
      vertex 55 -51.134 2.5
      vertex -55 -51.134 2.5
    endloop
  endfacet
  facet normal 0 -0.92388 -0.382683
    outer loop
      vertex 55 -51.134 2.5
      vertex -55 -51.0341 2.25882
      vertex 55 -51.0341 2.25882
    endloop
  endfacet
  facet normal 0 0.991432 0.130623
    outer loop
      vertex 55 -52.9659 1.74118
      vertex -55 -53 2
      vertex 55 -53 2
    endloop
  endfacet
  facet normal 0 0.991432 0.130623
    outer loop
      vertex -55 -53 2
      vertex 55 -52.9659 1.74118
      vertex -55 -52.9659 1.74118
    endloop
  endfacet
  facet normal -0 0.608777 0.793341
    outer loop
      vertex -55 -52.5 1.13397
      vertex 55 -52.7071 1.29289
      vertex 55 -52.5 1.13397
    endloop
  endfacet
  facet normal 0 0.608777 0.793341
    outer loop
      vertex 55 -52.7071 1.29289
      vertex -55 -52.5 1.13397
      vertex -55 -52.7071 1.29289
    endloop
  endfacet
  facet normal 0 0.793392 -0.608711
    outer loop
      vertex 55 -52.866 2.5
      vertex -55 -52.7071 2.70711
      vertex 55 -52.7071 2.70711
    endloop
  endfacet
  facet normal 0 0.793392 -0.608711
    outer loop
      vertex -55 -52.7071 2.70711
      vertex 55 -52.866 2.5
      vertex -55 -52.866 2.5
    endloop
  endfacet
  facet normal 0 0.382689 -0.923877
    outer loop
      vertex -55 -52.5 2.86602
      vertex 55 -52.2588 2.96593
      vertex 55 -52.5 2.86602
    endloop
  endfacet
  facet normal 0 0.382689 -0.923877
    outer loop
      vertex 55 -52.2588 2.96593
      vertex -55 -52.5 2.86602
      vertex -55 -52.2588 2.96593
    endloop
  endfacet
  facet normal 0 -0.382656 0.923891
    outer loop
      vertex -55 -51.5 1.13397
      vertex 55 -51.7412 1.03407
      vertex 55 -51.5 1.13397
    endloop
  endfacet
  facet normal 0 -0.382656 0.923891
    outer loop
      vertex 55 -51.7412 1.03407
      vertex -55 -51.5 1.13397
      vertex -55 -51.7412 1.03407
    endloop
  endfacet
  facet normal 0 -0.793392 0.608711
    outer loop
      vertex -55 -51.2929 1.29289
      vertex 55 -51.134 1.5
      vertex -55 -51.134 1.5
    endloop
  endfacet
  facet normal 0 -0.793392 0.608711
    outer loop
      vertex 55 -51.134 1.5
      vertex -55 -51.2929 1.29289
      vertex 55 -51.2929 1.29289
    endloop
  endfacet
  facet normal 0 -0.991432 0.130623
    outer loop
      vertex -55 -51.0341 1.74118
      vertex 55 -51 2
      vertex -55 -51 2
    endloop
  endfacet
  facet normal 0 -0.991432 0.130623
    outer loop
      vertex 55 -51 2
      vertex -55 -51.0341 1.74118
      vertex 55 -51.0341 1.74118
    endloop
  endfacet
  facet normal 0 -0.608753 -0.79336
    outer loop
      vertex -55 -51.5 2.86602
      vertex 55 -51.2929 2.70711
      vertex 55 -51.5 2.86602
    endloop
  endfacet
  facet normal -0 -0.608753 -0.79336
    outer loop
      vertex 55 -51.2929 2.70711
      vertex -55 -51.5 2.86602
      vertex -55 -51.2929 2.70711
    endloop
  endfacet
  facet normal 0 -0.382689 -0.923877
    outer loop
      vertex -55 -51.7412 2.96593
      vertex 55 -51.5 2.86602
      vertex 55 -51.7412 2.96593
    endloop
  endfacet
  facet normal -0 -0.382689 -0.923877
    outer loop
      vertex 55 -51.5 2.86602
      vertex -55 -51.7412 2.96593
      vertex -55 -51.5 2.86602
    endloop
  endfacet
  facet normal -0 0.13052 0.991446
    outer loop
      vertex -55 -52 1
      vertex 55 -52.2588 1.03407
      vertex 55 -52 1
    endloop
  endfacet
  facet normal 0 0.13052 0.991446
    outer loop
      vertex 55 -52.2588 1.03407
      vertex -55 -52 1
      vertex -55 -52.2588 1.03407
    endloop
  endfacet
  facet normal 0 0.92388 0.382683
    outer loop
      vertex 55 -52.866 1.5
      vertex -55 -52.9659 1.74118
      vertex 55 -52.9659 1.74118
    endloop
  endfacet
  facet normal 0 0.92388 0.382683
    outer loop
      vertex -55 -52.9659 1.74118
      vertex 55 -52.866 1.5
      vertex -55 -52.866 1.5
    endloop
  endfacet
  facet normal 0 0.92388 -0.382683
    outer loop
      vertex 55 -52.9659 2.25882
      vertex -55 -52.866 2.5
      vertex 55 -52.866 2.5
    endloop
  endfacet
  facet normal 0 0.92388 -0.382683
    outer loop
      vertex -55 -52.866 2.5
      vertex 55 -52.9659 2.25882
      vertex -55 -52.9659 2.25882
    endloop
  endfacet
  facet normal 0 0.13052 -0.991446
    outer loop
      vertex -55 -52.2588 2.96593
      vertex 55 -52 3
      vertex 55 -52.2588 2.96593
    endloop
  endfacet
  facet normal 0 0.13052 -0.991446
    outer loop
      vertex 55 -52 3
      vertex -55 -52.2588 2.96593
      vertex -55 -52 3
    endloop
  endfacet
  facet normal 0 -0.608777 0.793341
    outer loop
      vertex -55 -51.2929 1.29289
      vertex 55 -51.5 1.13397
      vertex 55 -51.2929 1.29289
    endloop
  endfacet
  facet normal 0 -0.608777 0.793341
    outer loop
      vertex 55 -51.5 1.13397
      vertex -55 -51.2929 1.29289
      vertex -55 -51.5 1.13397
    endloop
  endfacet
  facet normal 0 0.793392 0.608711
    outer loop
      vertex 55 -52.7071 1.29289
      vertex -55 -52.866 1.5
      vertex 55 -52.866 1.5
    endloop
  endfacet
  facet normal 0 0.793392 0.608711
    outer loop
      vertex -55 -52.866 1.5
      vertex 55 -52.7071 1.29289
      vertex -55 -52.7071 1.29289
    endloop
  endfacet
  facet normal -0 0.382656 0.923891
    outer loop
      vertex -55 -52.2588 1.03407
      vertex 55 -52.5 1.13397
      vertex 55 -52.2588 1.03407
    endloop
  endfacet
  facet normal 0 0.382656 0.923891
    outer loop
      vertex 55 -52.5 1.13397
      vertex -55 -52.2588 1.03407
      vertex -55 -52.5 1.13397
    endloop
  endfacet
endsolid OpenSCAD_Model
