solid OpenSCAD_Model
  facet normal -1 0 0
    outer loop
      vertex -109 -65 -1
      vertex -109 65 1
      vertex -109 65 -1
    endloop
  endfacet
  facet normal -1 -0 0
    outer loop
      vertex -109 65 1
      vertex -109 -65 -1
      vertex -109 -65 1
    endloop
  endfacet
  facet normal 0 0 1
    outer loop
      vertex 88 65 1
      vertex 83.5 60 1
      vertex 88 -65 1
    endloop
  endfacet
  facet normal 0 0 1
    outer loop
      vertex 88 65 1
      vertex -75.5 60 1
      vertex 83.5 60 1
    endloop
  endfacet
  facet normal 0 0 1
    outer loop
      vertex -75.5 60 1
      vertex -109 65 1
      vertex -75.5 -60 1
    endloop
  endfacet
  facet normal -0 0 1
    outer loop
      vertex -109 65 1
      vertex -75.5 60 1
      vertex 88 65 1
    endloop
  endfacet
  facet normal -0 0 1
    outer loop
      vertex 83.5 -60 1
      vertex 88 -65 1
      vertex 83.5 60 1
    endloop
  endfacet
  facet normal -0 0 1
    outer loop
      vertex -75.5 -60 1
      vertex 88 -65 1
      vertex 83.5 -60 1
    endloop
  endfacet
  facet normal 0 0 1
    outer loop
      vertex -75.5 -60 1
      vertex -109 -65 1
      vertex 88 -65 1
    endloop
  endfacet
  facet normal 0 0 1
    outer loop
      vertex -109 -65 1
      vertex -75.5 -60 1
      vertex -109 65 1
    endloop
  endfacet
  facet normal 1 -0 0
    outer loop
      vertex 88 -65 1
      vertex 88 65 -1
      vertex 88 65 1
    endloop
  endfacet
  facet normal 1 0 0
    outer loop
      vertex 88 65 -1
      vertex 88 -65 1
      vertex 88 -65 -1
    endloop
  endfacet
  facet normal 0 1 -0
    outer loop
      vertex 88 65 -1
      vertex -109 65 1
      vertex 88 65 1
    endloop
  endfacet
  facet normal 0 1 0
    outer loop
      vertex -109 65 1
      vertex 88 65 -1
      vertex -109 65 -1
    endloop
  endfacet
  facet normal 0 0 -1
    outer loop
      vertex -108 -65 -1
      vertex -109 -65 -1
      vertex -108 53 -1
    endloop
  endfacet
  facet normal 0 0 -1
    outer loop
      vertex -92 53 -1
      vertex -87.3 51 -1
      vertex -92 51 -1
    endloop
  endfacet
  facet normal 0 0 -1
    outer loop
      vertex 88 -65 -1
      vertex 87.3 -64 -1
      vertex 88 65 -1
    endloop
  endfacet
  facet normal 0 0 -1
    outer loop
      vertex 88 -65 -1
      vertex -87.3 -64 -1
      vertex 87.3 -64 -1
    endloop
  endfacet
  facet normal 0 0 -1
    outer loop
      vertex -92 -65 -1
      vertex -87.3 -64 -1
      vertex 88 -65 -1
    endloop
  endfacet
  facet normal 0 0 -1
    outer loop
      vertex -92 -51 -1
      vertex -87.3 -64 -1
      vertex -92 -65 -1
    endloop
  endfacet
  facet normal 0 0 -1
    outer loop
      vertex -87.3 -64 -1
      vertex -92 -51 -1
      vertex -87.3 -51 -1
    endloop
  endfacet
  facet normal 0 0 -1
    outer loop
      vertex 87.3 64 -1
      vertex 88 65 -1
      vertex 87.3 -64 -1
    endloop
  endfacet
  facet normal 0 0 -1
    outer loop
      vertex -87.3 64 -1
      vertex 88 65 -1
      vertex 87.3 64 -1
    endloop
  endfacet
  facet normal 0 0 -1
    outer loop
      vertex -87.3 51 -1
      vertex -92 53 -1
      vertex -87.3 64 -1
    endloop
  endfacet
  facet normal 0 0 -1
    outer loop
      vertex -109 65 -1
      vertex -92 53 -1
      vertex -108 53 -1
    endloop
  endfacet
  facet normal 0 0 -1
    outer loop
      vertex -87.3 64 -1
      vertex -109 65 -1
      vertex 88 65 -1
    endloop
  endfacet
  facet normal 0 0 -1
    outer loop
      vertex -92 53 -1
      vertex -109 65 -1
      vertex -87.3 64 -1
    endloop
  endfacet
  facet normal 0 0 -1
    outer loop
      vertex -109 65 -1
      vertex -108 53 -1
      vertex -109 -65 -1
    endloop
  endfacet
  facet normal 0 -1 0
    outer loop
      vertex -92 -65 0.2
      vertex -109 -65 1
      vertex -108 -65 0.2
    endloop
  endfacet
  facet normal 0 -1 0
    outer loop
      vertex -109 -65 -1
      vertex -108 -65 0.2
      vertex -109 -65 1
    endloop
  endfacet
  facet normal 0 -1 -0
    outer loop
      vertex -108 -65 0.2
      vertex -109 -65 -1
      vertex -108 -65 -1
    endloop
  endfacet
  facet normal 0 -1 0
    outer loop
      vertex -109 -65 1
      vertex -92 -65 0.2
      vertex 88 -65 1
    endloop
  endfacet
  facet normal 0 -1 0
    outer loop
      vertex -92 -65 -1
      vertex 88 -65 1
      vertex -92 -65 0.2
    endloop
  endfacet
  facet normal 0 -1 -0
    outer loop
      vertex 88 -65 1
      vertex -92 -65 -1
      vertex 88 -65 -1
    endloop
  endfacet
  facet normal 1 -0 0
    outer loop
      vertex -87.3 -64 0.2
      vertex -87.3 -51 -1
      vertex -87.3 -51 0.2
    endloop
  endfacet
  facet normal 1 0 0
    outer loop
      vertex -87.3 -51 -1
      vertex -87.3 -64 0.2
      vertex -87.3 -64 -1
    endloop
  endfacet
  facet normal 1 -0 0
    outer loop
      vertex -87.3 51 0.2
      vertex -87.3 64 -1
      vertex -87.3 64 0.2
    endloop
  endfacet
  facet normal 1 0 0
    outer loop
      vertex -87.3 64 -1
      vertex -87.3 51 0.2
      vertex -87.3 51 -1
    endloop
  endfacet
  facet normal 0 0 -1
    outer loop
      vertex -108 -65 0.2
      vertex -92 -51 0.2
      vertex -92 -65 0.2
    endloop
  endfacet
  facet normal 0 0 -1
    outer loop
      vertex -108 53 0.2
      vertex -92 -51 0.2
      vertex -108 -65 0.2
    endloop
  endfacet
  facet normal 0 0 -1
    outer loop
      vertex -92 -51 0.2
      vertex -108 53 0.2
      vertex -92 51 0.2
    endloop
  endfacet
  facet normal 0 0 -1
    outer loop
      vertex -92 51 0.2
      vertex -108 53 0.2
      vertex -92 53 0.2
    endloop
  endfacet
  facet normal 0 0 -1
    outer loop
      vertex -92 -51 0.2
      vertex -87.3 51 0.2
      vertex -87.3 -51 0.2
    endloop
  endfacet
  facet normal -0 0 -1
    outer loop
      vertex -87.3 51 0.2
      vertex -92 -51 0.2
      vertex -92 51 0.2
    endloop
  endfacet
  facet normal 0 0 -1
    outer loop
      vertex 87.3 -64 0.2
      vertex 83.5 -60 0.2
      vertex 87.3 64 0.2
    endloop
  endfacet
  facet normal 0 0 -1
    outer loop
      vertex 87.3 -64 0.2
      vertex -75.5 -60 0.2
      vertex 83.5 -60 0.2
    endloop
  endfacet
  facet normal 0 0 -1
    outer loop
      vertex -87.3 -51 0.2
      vertex -75.5 -60 0.2
      vertex -87.3 -64 0.2
    endloop
  endfacet
  facet normal 0 0 -1
    outer loop
      vertex -87.3 -64 0.2
      vertex -75.5 -60 0.2
      vertex 87.3 -64 0.2
    endloop
  endfacet
  facet normal 0 0 -1
    outer loop
      vertex 83.5 60 0.2
      vertex 87.3 64 0.2
      vertex 83.5 -60 0.2
    endloop
  endfacet
  facet normal 0 0 -1
    outer loop
      vertex -75.5 60 0.2
      vertex 87.3 64 0.2
      vertex 83.5 60 0.2
    endloop
  endfacet
  facet normal 0 0 -1
    outer loop
      vertex -75.5 -60 0.2
      vertex -87.3 -51 0.2
      vertex -75.5 60 0.2
    endloop
  endfacet
  facet normal 0 0 -1
    outer loop
      vertex -87.3 51 0.2
      vertex -75.5 60 0.2
      vertex -87.3 -51 0.2
    endloop
  endfacet
  facet normal 0 0 -1
    outer loop
      vertex -75.5 60 0.2
      vertex -87.3 64 0.2
      vertex 87.3 64 0.2
    endloop
  endfacet
  facet normal 0 0 -1
    outer loop
      vertex -87.3 64 0.2
      vertex -75.5 60 0.2
      vertex -87.3 51 0.2
    endloop
  endfacet
  facet normal -1 0 0
    outer loop
      vertex 87.3 -64 -1
      vertex 87.3 64 0.2
      vertex 87.3 64 -1
    endloop
  endfacet
  facet normal -1 -0 0
    outer loop
      vertex 87.3 64 0.2
      vertex 87.3 -64 -1
      vertex 87.3 -64 0.2
    endloop
  endfacet
  facet normal 0 1 -0
    outer loop
      vertex 87.3 -64 -1
      vertex -87.3 -64 0.2
      vertex 87.3 -64 0.2
    endloop
  endfacet
  facet normal 0 1 0
    outer loop
      vertex -87.3 -64 0.2
      vertex 87.3 -64 -1
      vertex -87.3 -64 -1
    endloop
  endfacet
  facet normal 0 -1 0
    outer loop
      vertex -87.3 64 -1
      vertex 87.3 64 0.2
      vertex -87.3 64 0.2
    endloop
  endfacet
  facet normal 0 -1 -0
    outer loop
      vertex 87.3 64 0.2
      vertex -87.3 64 -1
      vertex 87.3 64 -1
    endloop
  endfacet
  facet normal 1 -0 0
    outer loop
      vertex -75.5 -60 1
      vertex -75.5 60 0.2
      vertex -75.5 60 1
    endloop
  endfacet
  facet normal 1 0 0
    outer loop
      vertex -75.5 60 0.2
      vertex -75.5 -60 1
      vertex -75.5 -60 0.2
    endloop
  endfacet
  facet normal -1 0 0
    outer loop
      vertex 83.5 -60 0.2
      vertex 83.5 60 1
      vertex 83.5 60 0.2
    endloop
  endfacet
  facet normal -1 -0 0
    outer loop
      vertex 83.5 60 1
      vertex 83.5 -60 0.2
      vertex 83.5 -60 1
    endloop
  endfacet
  facet normal 0 -1 0
    outer loop
      vertex -75.5 60 0.2
      vertex 83.5 60 1
      vertex -75.5 60 1
    endloop
  endfacet
  facet normal 0 -1 -0
    outer loop
      vertex 83.5 60 1
      vertex -75.5 60 0.2
      vertex 83.5 60 0.2
    endloop
  endfacet
  facet normal 0 1 -0
    outer loop
      vertex 83.5 -60 0.2
      vertex -75.5 -60 1
      vertex 83.5 -60 1
    endloop
  endfacet
  facet normal 0 1 0
    outer loop
      vertex -75.5 -60 1
      vertex 83.5 -60 0.2
      vertex -75.5 -60 0.2
    endloop
  endfacet
  facet normal 0 -1 0
    outer loop
      vertex -92 51 -1
      vertex -87.3 51 0.2
      vertex -92 51 0.2
    endloop
  endfacet
  facet normal 0 -1 -0
    outer loop
      vertex -87.3 51 0.2
      vertex -92 51 -1
      vertex -87.3 51 -1
    endloop
  endfacet
  facet normal 0 1 -0
    outer loop
      vertex -87.3 -51 -1
      vertex -92 -51 0.2
      vertex -87.3 -51 0.2
    endloop
  endfacet
  facet normal 0 1 0
    outer loop
      vertex -92 -51 0.2
      vertex -87.3 -51 -1
      vertex -92 -51 -1
    endloop
  endfacet
  facet normal 1 -0 0
    outer loop
      vertex -108 -65 0.2
      vertex -108 53 -1
      vertex -108 53 0.2
    endloop
  endfacet
  facet normal 1 0 0
    outer loop
      vertex -108 53 -1
      vertex -108 -65 0.2
      vertex -108 -65 -1
    endloop
  endfacet
  facet normal -1 0 0
    outer loop
      vertex -92 51 -1
      vertex -92 53 0.2
      vertex -92 53 -1
    endloop
  endfacet
  facet normal -1 -0 0
    outer loop
      vertex -92 53 0.2
      vertex -92 51 -1
      vertex -92 51 0.2
    endloop
  endfacet
  facet normal -1 0 0
    outer loop
      vertex -92 -65 -1
      vertex -92 -51 0.2
      vertex -92 -51 -1
    endloop
  endfacet
  facet normal -1 -0 0
    outer loop
      vertex -92 -51 0.2
      vertex -92 -65 -1
      vertex -92 -65 0.2
    endloop
  endfacet
  facet normal 0 -1 0
    outer loop
      vertex -108 53 -1
      vertex -92 53 0.2
      vertex -108 53 0.2
    endloop
  endfacet
  facet normal 0 -1 -0
    outer loop
      vertex -92 53 0.2
      vertex -108 53 -1
      vertex -92 53 -1
    endloop
  endfacet
endsolid OpenSCAD_Model
