solid OpenSCAD_Model
  facet normal -1 0 0
    outer loop
      vertex -106 -65 -1
      vertex -106 65 1
      vertex -106 65 -1
    endloop
  endfacet
  facet normal -1 -0 0
    outer loop
      vertex -106 65 1
      vertex -106 -65 -1
      vertex -106 -65 1
    endloop
  endfacet
  facet normal 0 0 1
    outer loop
      vertex 88 65 1
      vertex 85.5 59.5 1
      vertex 88 -65 1
    endloop
  endfacet
  facet normal 0 0 1
    outer loop
      vertex 88 65 1
      vertex -73.5 59.5 1
      vertex 85.5 59.5 1
    endloop
  endfacet
  facet normal 0 0 1
    outer loop
      vertex -73.5 59.5 1
      vertex -106 65 1
      vertex -73.5 -59.5 1
    endloop
  endfacet
  facet normal -0 0 1
    outer loop
      vertex -106 65 1
      vertex -73.5 59.5 1
      vertex 88 65 1
    endloop
  endfacet
  facet normal -0 0 1
    outer loop
      vertex 85.5 -59.5 1
      vertex 88 -65 1
      vertex 85.5 59.5 1
    endloop
  endfacet
  facet normal -0 0 1
    outer loop
      vertex -73.5 -59.5 1
      vertex 88 -65 1
      vertex 85.5 -59.5 1
    endloop
  endfacet
  facet normal 0 0 1
    outer loop
      vertex -73.5 -59.5 1
      vertex -106 -65 1
      vertex 88 -65 1
    endloop
  endfacet
  facet normal 0 0 1
    outer loop
      vertex -106 -65 1
      vertex -73.5 -59.5 1
      vertex -106 65 1
    endloop
  endfacet
  facet normal 1 -0 0
    outer loop
      vertex 88 -65 1
      vertex 88 65 -1
      vertex 88 65 1
    endloop
  endfacet
  facet normal 1 0 0
    outer loop
      vertex 88 65 -1
      vertex 88 -65 1
      vertex 88 -65 -1
    endloop
  endfacet
  facet normal 0 1 0
    outer loop
      vertex 88 65 1
      vertex -89 65 0.2
      vertex -106 65 1
    endloop
  endfacet
  facet normal 0 1 -0
    outer loop
      vertex 88 65 -1
      vertex -89 65 0.2
      vertex 88 65 1
    endloop
  endfacet
  facet normal 0 1 0
    outer loop
      vertex -89 65 0.2
      vertex 88 65 -1
      vertex -89 65 -1
    endloop
  endfacet
  facet normal 0 1 -0
    outer loop
      vertex -105 65 0.2
      vertex -106 65 1
      vertex -89 65 0.2
    endloop
  endfacet
  facet normal 0 1 0
    outer loop
      vertex -106 65 -1
      vertex -105 65 0.2
      vertex -105 65 -1
    endloop
  endfacet
  facet normal 0 1 0
    outer loop
      vertex -105 65 0.2
      vertex -106 65 -1
      vertex -106 65 1
    endloop
  endfacet
  facet normal 0 0 -1
    outer loop
      vertex -87 51 -1
      vertex -89 51 -1
      vertex -87 64 -1
    endloop
  endfacet
  facet normal 0 0 -1
    outer loop
      vertex 88 -65 -1
      vertex 87 -64 -1
      vertex 88 65 -1
    endloop
  endfacet
  facet normal 0 0 -1
    outer loop
      vertex 88 -65 -1
      vertex -87 -64 -1
      vertex 87 -64 -1
    endloop
  endfacet
  facet normal 0 0 -1
    outer loop
      vertex -87 -64 -1
      vertex -89 -53 -1
      vertex -87 -51 -1
    endloop
  endfacet
  facet normal 0 0 -1
    outer loop
      vertex -106 -65 -1
      vertex -89 -53 -1
      vertex -87 -64 -1
    endloop
  endfacet
  facet normal 0 0 -1
    outer loop
      vertex -106 -65 -1
      vertex -87 -64 -1
      vertex 88 -65 -1
    endloop
  endfacet
  facet normal -0 0 -1
    outer loop
      vertex -89 -53 -1
      vertex -106 -65 -1
      vertex -105 -53 -1
    endloop
  endfacet
  facet normal 0 0 -1
    outer loop
      vertex -106 65 -1
      vertex -105 -53 -1
      vertex -106 -65 -1
    endloop
  endfacet
  facet normal 0 0 -1
    outer loop
      vertex -105 -53 -1
      vertex -106 65 -1
      vertex -105 65 -1
    endloop
  endfacet
  facet normal 0 0 -1
    outer loop
      vertex 87 64 -1
      vertex 88 65 -1
      vertex 87 -64 -1
    endloop
  endfacet
  facet normal 0 0 -1
    outer loop
      vertex -87 64 -1
      vertex 88 65 -1
      vertex 87 64 -1
    endloop
  endfacet
  facet normal 0 0 -1
    outer loop
      vertex -87 64 -1
      vertex -89 65 -1
      vertex 88 65 -1
    endloop
  endfacet
  facet normal 0 0 -1
    outer loop
      vertex -89 65 -1
      vertex -87 64 -1
      vertex -89 51 -1
    endloop
  endfacet
  facet normal -0 0 -1
    outer loop
      vertex -87 -51 -1
      vertex -89 -53 -1
      vertex -89 -51 -1
    endloop
  endfacet
  facet normal 0 -1 0
    outer loop
      vertex -106 -65 -1
      vertex 88 -65 1
      vertex -106 -65 1
    endloop
  endfacet
  facet normal 0 -1 -0
    outer loop
      vertex 88 -65 1
      vertex -106 -65 -1
      vertex 88 -65 -1
    endloop
  endfacet
  facet normal 1 -0 0
    outer loop
      vertex -87 -64 0.2
      vertex -87 -51 -1
      vertex -87 -51 0.2
    endloop
  endfacet
  facet normal 1 0 0
    outer loop
      vertex -87 -51 -1
      vertex -87 -64 0.2
      vertex -87 -64 -1
    endloop
  endfacet
  facet normal 1 -0 0
    outer loop
      vertex -87 51 0.2
      vertex -87 64 -1
      vertex -87 64 0.2
    endloop
  endfacet
  facet normal 1 0 0
    outer loop
      vertex -87 64 -1
      vertex -87 51 0.2
      vertex -87 51 -1
    endloop
  endfacet
  facet normal 0 0 -1
    outer loop
      vertex -105 -53 0.2
      vertex -89 -51 0.2
      vertex -89 -53 0.2
    endloop
  endfacet
  facet normal -0 0 -1
    outer loop
      vertex -89 -51 0.2
      vertex -105 -53 0.2
      vertex -89 51 0.2
    endloop
  endfacet
  facet normal 0 0 -1
    outer loop
      vertex -105 65 0.2
      vertex -89 51 0.2
      vertex -105 -53 0.2
    endloop
  endfacet
  facet normal 0 0 -1
    outer loop
      vertex -89 51 0.2
      vertex -105 65 0.2
      vertex -89 65 0.2
    endloop
  endfacet
  facet normal 0 0 -1
    outer loop
      vertex -89 -51 0.2
      vertex -87 51 0.2
      vertex -87 -51 0.2
    endloop
  endfacet
  facet normal -0 0 -1
    outer loop
      vertex -87 51 0.2
      vertex -89 -51 0.2
      vertex -89 51 0.2
    endloop
  endfacet
  facet normal 0 0 -1
    outer loop
      vertex 87 -64 0.2
      vertex 85.5 -59.5 0.2
      vertex 87 64 0.2
    endloop
  endfacet
  facet normal 0 0 -1
    outer loop
      vertex 87 -64 0.2
      vertex -73.5 -59.5 0.2
      vertex 85.5 -59.5 0.2
    endloop
  endfacet
  facet normal 0 0 -1
    outer loop
      vertex -87 -51 0.2
      vertex -73.5 -59.5 0.2
      vertex -87 -64 0.2
    endloop
  endfacet
  facet normal 0 0 -1
    outer loop
      vertex -87 -64 0.2
      vertex -73.5 -59.5 0.2
      vertex 87 -64 0.2
    endloop
  endfacet
  facet normal 0 0 -1
    outer loop
      vertex 85.5 59.5 0.2
      vertex 87 64 0.2
      vertex 85.5 -59.5 0.2
    endloop
  endfacet
  facet normal 0 0 -1
    outer loop
      vertex -73.5 59.5 0.2
      vertex 87 64 0.2
      vertex 85.5 59.5 0.2
    endloop
  endfacet
  facet normal 0 0 -1
    outer loop
      vertex -73.5 -59.5 0.2
      vertex -87 -51 0.2
      vertex -73.5 59.5 0.2
    endloop
  endfacet
  facet normal 0 0 -1
    outer loop
      vertex -87 51 0.2
      vertex -73.5 59.5 0.2
      vertex -87 -51 0.2
    endloop
  endfacet
  facet normal 0 0 -1
    outer loop
      vertex -73.5 59.5 0.2
      vertex -87 64 0.2
      vertex 87 64 0.2
    endloop
  endfacet
  facet normal 0 0 -1
    outer loop
      vertex -87 64 0.2
      vertex -73.5 59.5 0.2
      vertex -87 51 0.2
    endloop
  endfacet
  facet normal -1 0 0
    outer loop
      vertex 87 -64 -1
      vertex 87 64 0.2
      vertex 87 64 -1
    endloop
  endfacet
  facet normal -1 -0 0
    outer loop
      vertex 87 64 0.2
      vertex 87 -64 -1
      vertex 87 -64 0.2
    endloop
  endfacet
  facet normal 0 1 -0
    outer loop
      vertex 87 -64 -1
      vertex -87 -64 0.2
      vertex 87 -64 0.2
    endloop
  endfacet
  facet normal 0 1 0
    outer loop
      vertex -87 -64 0.2
      vertex 87 -64 -1
      vertex -87 -64 -1
    endloop
  endfacet
  facet normal 0 -1 0
    outer loop
      vertex -87 64 -1
      vertex 87 64 0.2
      vertex -87 64 0.2
    endloop
  endfacet
  facet normal 0 -1 -0
    outer loop
      vertex 87 64 0.2
      vertex -87 64 -1
      vertex 87 64 -1
    endloop
  endfacet
  facet normal 1 -0 0
    outer loop
      vertex -73.5 -59.5 1
      vertex -73.5 59.5 0.2
      vertex -73.5 59.5 1
    endloop
  endfacet
  facet normal 1 0 0
    outer loop
      vertex -73.5 59.5 0.2
      vertex -73.5 -59.5 1
      vertex -73.5 -59.5 0.2
    endloop
  endfacet
  facet normal -1 0 0
    outer loop
      vertex 85.5 -59.5 0.2
      vertex 85.5 59.5 1
      vertex 85.5 59.5 0.2
    endloop
  endfacet
  facet normal -1 -0 0
    outer loop
      vertex 85.5 59.5 1
      vertex 85.5 -59.5 0.2
      vertex 85.5 -59.5 1
    endloop
  endfacet
  facet normal 0 -1 0
    outer loop
      vertex -73.5 59.5 0.2
      vertex 85.5 59.5 1
      vertex -73.5 59.5 1
    endloop
  endfacet
  facet normal 0 -1 -0
    outer loop
      vertex 85.5 59.5 1
      vertex -73.5 59.5 0.2
      vertex 85.5 59.5 0.2
    endloop
  endfacet
  facet normal 0 1 -0
    outer loop
      vertex 85.5 -59.5 0.2
      vertex -73.5 -59.5 1
      vertex 85.5 -59.5 1
    endloop
  endfacet
  facet normal 0 1 0
    outer loop
      vertex -73.5 -59.5 1
      vertex 85.5 -59.5 0.2
      vertex -73.5 -59.5 0.2
    endloop
  endfacet
  facet normal 0 -1 0
    outer loop
      vertex -89 51 -1
      vertex -87 51 0.2
      vertex -89 51 0.2
    endloop
  endfacet
  facet normal 0 -1 -0
    outer loop
      vertex -87 51 0.2
      vertex -89 51 -1
      vertex -87 51 -1
    endloop
  endfacet
  facet normal 0 1 -0
    outer loop
      vertex -87 -51 -1
      vertex -89 -51 0.2
      vertex -87 -51 0.2
    endloop
  endfacet
  facet normal 0 1 0
    outer loop
      vertex -89 -51 0.2
      vertex -87 -51 -1
      vertex -89 -51 -1
    endloop
  endfacet
  facet normal 1 -0 0
    outer loop
      vertex -105 -53 0.2
      vertex -105 65 -1
      vertex -105 65 0.2
    endloop
  endfacet
  facet normal 1 0 0
    outer loop
      vertex -105 65 -1
      vertex -105 -53 0.2
      vertex -105 -53 -1
    endloop
  endfacet
  facet normal -1 0 0
    outer loop
      vertex -89 -53 -1
      vertex -89 -51 0.2
      vertex -89 -51 -1
    endloop
  endfacet
  facet normal -1 -0 0
    outer loop
      vertex -89 -51 0.2
      vertex -89 -53 -1
      vertex -89 -53 0.2
    endloop
  endfacet
  facet normal -1 0 0
    outer loop
      vertex -89 51 -1
      vertex -89 65 0.2
      vertex -89 65 -1
    endloop
  endfacet
  facet normal -1 -0 0
    outer loop
      vertex -89 65 0.2
      vertex -89 51 -1
      vertex -89 51 0.2
    endloop
  endfacet
  facet normal 0 1 -0
    outer loop
      vertex -89 -53 -1
      vertex -105 -53 0.2
      vertex -89 -53 0.2
    endloop
  endfacet
  facet normal 0 1 0
    outer loop
      vertex -105 -53 0.2
      vertex -89 -53 -1
      vertex -105 -53 -1
    endloop
  endfacet
endsolid OpenSCAD_Model
