solid OpenSCAD_Model
  facet normal -1 0 0
    outer loop
      vertex -109 -65 -2
      vertex -109 65 2
      vertex -109 65 -2
    endloop
  endfacet
  facet normal -1 -0 0
    outer loop
      vertex -109 65 2
      vertex -109 -65 -2
      vertex -109 -65 2
    endloop
  endfacet
  facet normal 0 0 -1
    outer loop
      vertex 88 -65 -2
      vertex 82.5 -60 -2
      vertex 88 65 -2
    endloop
  endfacet
  facet normal 0 0 -1
    outer loop
      vertex 88 -65 -2
      vertex -76.5 -60 -2
      vertex 82.5 -60 -2
    endloop
  endfacet
  facet normal -0 0 -1
    outer loop
      vertex -76.5 -60 -2
      vertex -109 -65 -2
      vertex -76.5 60 -2
    endloop
  endfacet
  facet normal 0 0 -1
    outer loop
      vertex -109 -65 -2
      vertex -76.5 -60 -2
      vertex 88 -65 -2
    endloop
  endfacet
  facet normal 0 0 -1
    outer loop
      vertex 82.5 60 -2
      vertex 88 65 -2
      vertex 82.5 -60 -2
    endloop
  endfacet
  facet normal 0 0 -1
    outer loop
      vertex -76.5 60 -2
      vertex 88 65 -2
      vertex 82.5 60 -2
    endloop
  endfacet
  facet normal 0 0 -1
    outer loop
      vertex -76.5 60 -2
      vertex -109 65 -2
      vertex 88 65 -2
    endloop
  endfacet
  facet normal 0 0 -1
    outer loop
      vertex -109 65 -2
      vertex -76.5 60 -2
      vertex -109 -65 -2
    endloop
  endfacet
  facet normal 1 -0 0
    outer loop
      vertex 88 -65 2
      vertex 88 65 -2
      vertex 88 65 2
    endloop
  endfacet
  facet normal 1 0 0
    outer loop
      vertex 88 65 -2
      vertex 88 -65 2
      vertex 88 -65 -2
    endloop
  endfacet
  facet normal 0 -1 0
    outer loop
      vertex -109 -65 -2
      vertex 88 -65 2
      vertex -109 -65 2
    endloop
  endfacet
  facet normal 0 -1 -0
    outer loop
      vertex 88 -65 2
      vertex -109 -65 -2
      vertex 88 -65 -2
    endloop
  endfacet
  facet normal 0 0 1
    outer loop
      vertex -108 65 2
      vertex -109 65 2
      vertex -108 -53 2
    endloop
  endfacet
  facet normal 0 0 1
    outer loop
      vertex -92 -53 2
      vertex -89 -51 2
      vertex -92 -51 2
    endloop
  endfacet
  facet normal 0 0 1
    outer loop
      vertex 88 65 2
      vertex 87 64 2
      vertex 88 -65 2
    endloop
  endfacet
  facet normal 0 0 1
    outer loop
      vertex 88 65 2
      vertex -89 64 2
      vertex 87 64 2
    endloop
  endfacet
  facet normal -0 0 1
    outer loop
      vertex -92 65 2
      vertex -89 64 2
      vertex 88 65 2
    endloop
  endfacet
  facet normal 0 0 1
    outer loop
      vertex -92 51 2
      vertex -89 64 2
      vertex -92 65 2
    endloop
  endfacet
  facet normal 0 0 1
    outer loop
      vertex -89 64 2
      vertex -92 51 2
      vertex -89 51 2
    endloop
  endfacet
  facet normal -0 0 1
    outer loop
      vertex 87 -64 2
      vertex 88 -65 2
      vertex 87 64 2
    endloop
  endfacet
  facet normal -0 0 1
    outer loop
      vertex -89 -64 2
      vertex 88 -65 2
      vertex 87 -64 2
    endloop
  endfacet
  facet normal 0 0 1
    outer loop
      vertex -89 -51 2
      vertex -92 -53 2
      vertex -89 -64 2
    endloop
  endfacet
  facet normal 0 0 1
    outer loop
      vertex -109 -65 2
      vertex -92 -53 2
      vertex -108 -53 2
    endloop
  endfacet
  facet normal 0 0 1
    outer loop
      vertex -89 -64 2
      vertex -109 -65 2
      vertex 88 -65 2
    endloop
  endfacet
  facet normal 0 0 1
    outer loop
      vertex -92 -53 2
      vertex -109 -65 2
      vertex -89 -64 2
    endloop
  endfacet
  facet normal 0 0 1
    outer loop
      vertex -109 -65 2
      vertex -108 -53 2
      vertex -109 65 2
    endloop
  endfacet
  facet normal 0 1 0
    outer loop
      vertex 88 65 2
      vertex -92 65 -1.2
      vertex -92 65 2
    endloop
  endfacet
  facet normal 0 1 0
    outer loop
      vertex -109 65 -2
      vertex -92 65 -1.2
      vertex 88 65 -2
    endloop
  endfacet
  facet normal 0 1 -0
    outer loop
      vertex 88 65 -2
      vertex -92 65 -1.2
      vertex 88 65 2
    endloop
  endfacet
  facet normal 0 1 -0
    outer loop
      vertex -108 65 -1.2
      vertex -109 65 2
      vertex -108 65 2
    endloop
  endfacet
  facet normal 0 1 0
    outer loop
      vertex -108 65 -1.2
      vertex -109 65 -2
      vertex -109 65 2
    endloop
  endfacet
  facet normal 0 1 0
    outer loop
      vertex -92 65 -1.2
      vertex -109 65 -2
      vertex -108 65 -1.2
    endloop
  endfacet
  facet normal 1 -0 0
    outer loop
      vertex -89 51 2
      vertex -89 64 -1.2
      vertex -89 64 2
    endloop
  endfacet
  facet normal 1 0 0
    outer loop
      vertex -89 64 -1.2
      vertex -89 51 2
      vertex -89 51 -1.2
    endloop
  endfacet
  facet normal 1 -0 0
    outer loop
      vertex -89 -64 2
      vertex -89 -51 -1.2
      vertex -89 -51 2
    endloop
  endfacet
  facet normal 1 0 0
    outer loop
      vertex -89 -51 -1.2
      vertex -89 -64 2
      vertex -89 -64 -1.2
    endloop
  endfacet
  facet normal -0 0 1
    outer loop
      vertex -108 65 -1.2
      vertex -92 51 -1.2
      vertex -92 65 -1.2
    endloop
  endfacet
  facet normal 0 0 1
    outer loop
      vertex -108 -53 -1.2
      vertex -92 51 -1.2
      vertex -108 65 -1.2
    endloop
  endfacet
  facet normal 0 0 1
    outer loop
      vertex -92 51 -1.2
      vertex -108 -53 -1.2
      vertex -92 -51 -1.2
    endloop
  endfacet
  facet normal 0 0 1
    outer loop
      vertex -92 -51 -1.2
      vertex -108 -53 -1.2
      vertex -92 -53 -1.2
    endloop
  endfacet
  facet normal -0 0 1
    outer loop
      vertex -92 51 -1.2
      vertex -89 -51 -1.2
      vertex -89 51 -1.2
    endloop
  endfacet
  facet normal 0 0 1
    outer loop
      vertex -89 -51 -1.2
      vertex -92 51 -1.2
      vertex -92 -51 -1.2
    endloop
  endfacet
  facet normal 0 0 1
    outer loop
      vertex 87 64 -1.2
      vertex 82.5 60 -1.2
      vertex 87 -64 -1.2
    endloop
  endfacet
  facet normal 0 0 1
    outer loop
      vertex 87 64 -1.2
      vertex -76.5 60 -1.2
      vertex 82.5 60 -1.2
    endloop
  endfacet
  facet normal 0 0 1
    outer loop
      vertex -89 51 -1.2
      vertex -76.5 60 -1.2
      vertex -89 64 -1.2
    endloop
  endfacet
  facet normal -0 0 1
    outer loop
      vertex -89 64 -1.2
      vertex -76.5 60 -1.2
      vertex 87 64 -1.2
    endloop
  endfacet
  facet normal -0 0 1
    outer loop
      vertex 82.5 -60 -1.2
      vertex 87 -64 -1.2
      vertex 82.5 60 -1.2
    endloop
  endfacet
  facet normal -0 0 1
    outer loop
      vertex -76.5 -60 -1.2
      vertex 87 -64 -1.2
      vertex 82.5 -60 -1.2
    endloop
  endfacet
  facet normal 0 0 1
    outer loop
      vertex -76.5 60 -1.2
      vertex -89 51 -1.2
      vertex -76.5 -60 -1.2
    endloop
  endfacet
  facet normal -0 0 1
    outer loop
      vertex -89 -51 -1.2
      vertex -76.5 -60 -1.2
      vertex -89 51 -1.2
    endloop
  endfacet
  facet normal 0 0 1
    outer loop
      vertex -76.5 -60 -1.2
      vertex -89 -64 -1.2
      vertex 87 -64 -1.2
    endloop
  endfacet
  facet normal 0 0 1
    outer loop
      vertex -89 -64 -1.2
      vertex -76.5 -60 -1.2
      vertex -89 -51 -1.2
    endloop
  endfacet
  facet normal -1 0 0
    outer loop
      vertex 87 -64 -1.2
      vertex 87 64 2
      vertex 87 64 -1.2
    endloop
  endfacet
  facet normal -1 -0 0
    outer loop
      vertex 87 64 2
      vertex 87 -64 -1.2
      vertex 87 -64 2
    endloop
  endfacet
  facet normal 0 -1 0
    outer loop
      vertex -89 64 -1.2
      vertex 87 64 2
      vertex -89 64 2
    endloop
  endfacet
  facet normal 0 -1 -0
    outer loop
      vertex 87 64 2
      vertex -89 64 -1.2
      vertex 87 64 -1.2
    endloop
  endfacet
  facet normal 0 1 -0
    outer loop
      vertex 87 -64 -1.2
      vertex -89 -64 2
      vertex 87 -64 2
    endloop
  endfacet
  facet normal 0 1 0
    outer loop
      vertex -89 -64 2
      vertex 87 -64 -1.2
      vertex -89 -64 -1.2
    endloop
  endfacet
  facet normal 1 -0 0
    outer loop
      vertex -76.5 -60 -1.2
      vertex -76.5 60 -2
      vertex -76.5 60 -1.2
    endloop
  endfacet
  facet normal 1 0 0
    outer loop
      vertex -76.5 60 -2
      vertex -76.5 -60 -1.2
      vertex -76.5 -60 -2
    endloop
  endfacet
  facet normal -1 0 0
    outer loop
      vertex 82.5 -60 -2
      vertex 82.5 60 -1.2
      vertex 82.5 60 -2
    endloop
  endfacet
  facet normal -1 -0 0
    outer loop
      vertex 82.5 60 -1.2
      vertex 82.5 -60 -2
      vertex 82.5 -60 -1.2
    endloop
  endfacet
  facet normal 0 1 -0
    outer loop
      vertex 82.5 -60 -2
      vertex -76.5 -60 -1.2
      vertex 82.5 -60 -1.2
    endloop
  endfacet
  facet normal 0 1 0
    outer loop
      vertex -76.5 -60 -1.2
      vertex 82.5 -60 -2
      vertex -76.5 -60 -2
    endloop
  endfacet
  facet normal 0 -1 0
    outer loop
      vertex -76.5 60 -2
      vertex 82.5 60 -1.2
      vertex -76.5 60 -1.2
    endloop
  endfacet
  facet normal 0 -1 -0
    outer loop
      vertex 82.5 60 -1.2
      vertex -76.5 60 -2
      vertex 82.5 60 -2
    endloop
  endfacet
  facet normal 0 -1 0
    outer loop
      vertex -92 51 -1.2
      vertex -89 51 2
      vertex -92 51 2
    endloop
  endfacet
  facet normal 0 -1 -0
    outer loop
      vertex -89 51 2
      vertex -92 51 -1.2
      vertex -89 51 -1.2
    endloop
  endfacet
  facet normal 0 1 -0
    outer loop
      vertex -89 -51 -1.2
      vertex -92 -51 2
      vertex -89 -51 2
    endloop
  endfacet
  facet normal 0 1 0
    outer loop
      vertex -92 -51 2
      vertex -89 -51 -1.2
      vertex -92 -51 -1.2
    endloop
  endfacet
  facet normal 1 -0 0
    outer loop
      vertex -108 -53 2
      vertex -108 65 -1.2
      vertex -108 65 2
    endloop
  endfacet
  facet normal 1 0 0
    outer loop
      vertex -108 65 -1.2
      vertex -108 -53 2
      vertex -108 -53 -1.2
    endloop
  endfacet
  facet normal -1 0 0
    outer loop
      vertex -92 -53 -1.2
      vertex -92 -51 2
      vertex -92 -51 -1.2
    endloop
  endfacet
  facet normal -1 -0 0
    outer loop
      vertex -92 -51 2
      vertex -92 -53 -1.2
      vertex -92 -53 2
    endloop
  endfacet
  facet normal -1 0 0
    outer loop
      vertex -92 51 -1.2
      vertex -92 65 2
      vertex -92 65 -1.2
    endloop
  endfacet
  facet normal -1 -0 0
    outer loop
      vertex -92 65 2
      vertex -92 51 -1.2
      vertex -92 51 2
    endloop
  endfacet
  facet normal 0 1 -0
    outer loop
      vertex -92 -53 -1.2
      vertex -108 -53 2
      vertex -92 -53 2
    endloop
  endfacet
  facet normal 0 1 0
    outer loop
      vertex -108 -53 2
      vertex -92 -53 -1.2
      vertex -108 -53 -1.2
    endloop
  endfacet
endsolid OpenSCAD_Model
