solid OpenSCAD_Model
  facet normal -1 0 0
    outer loop
      vertex 10 -10 -10
      vertex 10 10 5
      vertex 10 10 -10
    endloop
  endfacet
  facet normal -1 -0 0
    outer loop
      vertex 10 10 5
      vertex 10 -10 -10
      vertex 10 -10 5
    endloop
  endfacet
  facet normal 1 -0 0
    outer loop
      vertex 30 -10 5
      vertex 30 10 -10
      vertex 30 10 5
    endloop
  endfacet
  facet normal 1 0 0
    outer loop
      vertex 30 10 -10
      vertex 30 -10 5
      vertex 30 -10 -10
    endloop
  endfacet
  facet normal 0 0 -1
    outer loop
      vertex 10 -10 -10
      vertex 30 10 -10
      vertex 30 -10 -10
    endloop
  endfacet
  facet normal -0 0 -1
    outer loop
      vertex 30 10 -10
      vertex 10 -10 -10
      vertex 10 10 -10
    endloop
  endfacet
  facet normal 0 -1 0
    outer loop
      vertex 10 -10 5
      vertex 15.7 -10 -5
      vertex 15.7 -10 5
    endloop
  endfacet
  facet normal 0 -1 -0
    outer loop
      vertex 15.7 -10 -5
      vertex 10 -10 -10
      vertex 24.3 -10 -5
    endloop
  endfacet
  facet normal 0 -1 0
    outer loop
      vertex 10 -10 -10
      vertex 15.7 -10 -5
      vertex 10 -10 5
    endloop
  endfacet
  facet normal 0 -1 0
    outer loop
      vertex 24.3 -10 -5
      vertex 30 -10 5
      vertex 24.3 -10 5
    endloop
  endfacet
  facet normal 0 -1 0
    outer loop
      vertex 24.3 -10 -5
      vertex 30 -10 -10
      vertex 30 -10 5
    endloop
  endfacet
  facet normal 0 -1 0
    outer loop
      vertex 30 -10 -10
      vertex 24.3 -10 -5
      vertex 10 -10 -10
    endloop
  endfacet
  facet normal 0 1 0
    outer loop
      vertex 30 10 5
      vertex 24.3 10 -5
      vertex 24.3 10 5
    endloop
  endfacet
  facet normal 0 1 0
    outer loop
      vertex 24.3 10 -5
      vertex 30 10 -10
      vertex 15.7 10 -5
    endloop
  endfacet
  facet normal 0 1 -0
    outer loop
      vertex 30 10 -10
      vertex 24.3 10 -5
      vertex 30 10 5
    endloop
  endfacet
  facet normal 0 1 -0
    outer loop
      vertex 15.7 10 -5
      vertex 10 10 5
      vertex 15.7 10 5
    endloop
  endfacet
  facet normal 0 1 0
    outer loop
      vertex 15.7 10 -5
      vertex 10 10 -10
      vertex 10 10 5
    endloop
  endfacet
  facet normal 0 1 0
    outer loop
      vertex 10 10 -10
      vertex 15.7 10 -5
      vertex 30 10 -10
    endloop
  endfacet
  facet normal 1 -0 0
    outer loop
      vertex 12 -8 5
      vertex 12 8 -8
      vertex 12 8 5
    endloop
  endfacet
  facet normal 1 0 0
    outer loop
      vertex 12 8 -8
      vertex 12 -8 5
      vertex 12 -8 -8
    endloop
  endfacet
  facet normal -1 0 0
    outer loop
      vertex 28 -8 -8
      vertex 28 8 5
      vertex 28 8 -8
    endloop
  endfacet
  facet normal -1 -0 0
    outer loop
      vertex 28 8 5
      vertex 28 -8 -8
      vertex 28 -8 5
    endloop
  endfacet
  facet normal 0 -1 0
    outer loop
      vertex 12 8 5
      vertex 15.7 8 -5
      vertex 15.7 8 5
    endloop
  endfacet
  facet normal 0 -1 -0
    outer loop
      vertex 15.7 8 -5
      vertex 12 8 -8
      vertex 24.3 8 -5
    endloop
  endfacet
  facet normal 0 -1 0
    outer loop
      vertex 12 8 -8
      vertex 15.7 8 -5
      vertex 12 8 5
    endloop
  endfacet
  facet normal 0 -1 0
    outer loop
      vertex 24.3 8 -5
      vertex 28 8 5
      vertex 24.3 8 5
    endloop
  endfacet
  facet normal 0 -1 0
    outer loop
      vertex 24.3 8 -5
      vertex 28 8 -8
      vertex 28 8 5
    endloop
  endfacet
  facet normal 0 -1 0
    outer loop
      vertex 28 8 -8
      vertex 24.3 8 -5
      vertex 12 8 -8
    endloop
  endfacet
  facet normal -0 0 1
    outer loop
      vertex 12 8 -8
      vertex 28 -8 -8
      vertex 28 8 -8
    endloop
  endfacet
  facet normal 0 0 1
    outer loop
      vertex 28 -8 -8
      vertex 12 8 -8
      vertex 12 -8 -8
    endloop
  endfacet
  facet normal 0 1 0
    outer loop
      vertex 28 -8 5
      vertex 24.3 -8 -5
      vertex 24.3 -8 5
    endloop
  endfacet
  facet normal 0 1 0
    outer loop
      vertex 24.3 -8 -5
      vertex 28 -8 -8
      vertex 15.7 -8 -5
    endloop
  endfacet
  facet normal 0 1 -0
    outer loop
      vertex 28 -8 -8
      vertex 24.3 -8 -5
      vertex 28 -8 5
    endloop
  endfacet
  facet normal 0 1 -0
    outer loop
      vertex 15.7 -8 -5
      vertex 12 -8 5
      vertex 15.7 -8 5
    endloop
  endfacet
  facet normal 0 1 0
    outer loop
      vertex 15.7 -8 -5
      vertex 12 -8 -8
      vertex 12 -8 5
    endloop
  endfacet
  facet normal 0 1 0
    outer loop
      vertex 12 -8 -8
      vertex 15.7 -8 -5
      vertex 28 -8 -8
    endloop
  endfacet
  facet normal -0 0 1
    outer loop
      vertex 10 10 5
      vertex 14.7 9 5
      vertex 15.7 10 5
    endloop
  endfacet
  facet normal 0 0 1
    outer loop
      vertex 12 8 5
      vertex 10 10 5
      vertex 12 -8 5
    endloop
  endfacet
  facet normal 0 0 1
    outer loop
      vertex 14.7 9 5
      vertex 10 10 5
      vertex 12 8 5
    endloop
  endfacet
  facet normal 0 0 1
    outer loop
      vertex 15.7 8 5
      vertex 14.7 9 5
      vertex 12 8 5
    endloop
  endfacet
  facet normal 0 0 1
    outer loop
      vertex 15.7 -8 5
      vertex 12 -8 5
      vertex 14.7 -9 5
    endloop
  endfacet
  facet normal 0 0 1
    outer loop
      vertex 10 -10 5
      vertex 14.7 -9 5
      vertex 12 -8 5
    endloop
  endfacet
  facet normal 0 0 1
    outer loop
      vertex 14.7 -9 5
      vertex 10 -10 5
      vertex 15.7 -10 5
    endloop
  endfacet
  facet normal 0 0 1
    outer loop
      vertex 10 -10 5
      vertex 12 -8 5
      vertex 10 10 5
    endloop
  endfacet
  facet normal 0 0 1
    outer loop
      vertex 28 -8 5
      vertex 24.3 -8 5
      vertex 25.3 -9 5
    endloop
  endfacet
  facet normal 0 0 1
    outer loop
      vertex 30 10 5
      vertex 28 8 5
      vertex 30 -10 5
    endloop
  endfacet
  facet normal 0 0 1
    outer loop
      vertex 30 10 5
      vertex 25.3 9 5
      vertex 28 8 5
    endloop
  endfacet
  facet normal 0 -0 1
    outer loop
      vertex 25.3 9 5
      vertex 30 10 5
      vertex 24.3 10 5
    endloop
  endfacet
  facet normal -0 0 1
    outer loop
      vertex 28 -8 5
      vertex 30 -10 5
      vertex 28 8 5
    endloop
  endfacet
  facet normal -0 0 1
    outer loop
      vertex 25.3 -9 5
      vertex 30 -10 5
      vertex 28 -8 5
    endloop
  endfacet
  facet normal 0 0 1
    outer loop
      vertex 30 -10 5
      vertex 25.3 -9 5
      vertex 24.3 -10 5
    endloop
  endfacet
  facet normal 0 0 1
    outer loop
      vertex 28 8 5
      vertex 25.3 9 5
      vertex 24.3 8 5
    endloop
  endfacet
  facet normal -0.707107 0.707107 0
    outer loop
      vertex 24.3 8 -5
      vertex 25.3 9 5
      vertex 25.3 9 -5
    endloop
  endfacet
  facet normal -0.707107 0.707107 0
    outer loop
      vertex 25.3 9 5
      vertex 24.3 8 -5
      vertex 24.3 8 5
    endloop
  endfacet
  facet normal 0 0 1
    outer loop
      vertex 24.3 10 -5
      vertex 24.3 8 -5
      vertex 25.3 9 -5
    endloop
  endfacet
  facet normal -0 0 1
    outer loop
      vertex 15.7 10 -5
      vertex 24.3 8 -5
      vertex 24.3 10 -5
    endloop
  endfacet
  facet normal 0 0 1
    outer loop
      vertex 15.7 10 -5
      vertex 15.7 8 -5
      vertex 24.3 8 -5
    endloop
  endfacet
  facet normal 0 -0 1
    outer loop
      vertex 15.7 8 -5
      vertex 15.7 10 -5
      vertex 14.7 9 -5
    endloop
  endfacet
  facet normal -0.707107 -0.707107 0
    outer loop
      vertex 25.3 9 -5
      vertex 24.3 10 5
      vertex 24.3 10 -5
    endloop
  endfacet
  facet normal -0.707107 -0.707107 0
    outer loop
      vertex 24.3 10 5
      vertex 25.3 9 -5
      vertex 25.3 9 5
    endloop
  endfacet
  facet normal 0.707107 0.707107 0
    outer loop
      vertex 15.7 8 5
      vertex 14.7 9 -5
      vertex 14.7 9 5
    endloop
  endfacet
  facet normal 0.707107 0.707107 0
    outer loop
      vertex 14.7 9 -5
      vertex 15.7 8 5
      vertex 15.7 8 -5
    endloop
  endfacet
  facet normal 0.707107 -0.707107 0
    outer loop
      vertex 14.7 9 5
      vertex 15.7 10 -5
      vertex 15.7 10 5
    endloop
  endfacet
  facet normal 0.707107 -0.707107 0
    outer loop
      vertex 15.7 10 -5
      vertex 14.7 9 5
      vertex 14.7 9 -5
    endloop
  endfacet
  facet normal -0.707107 0.707107 0
    outer loop
      vertex 24.3 -10 -5
      vertex 25.3 -9 5
      vertex 25.3 -9 -5
    endloop
  endfacet
  facet normal -0.707107 0.707107 0
    outer loop
      vertex 25.3 -9 5
      vertex 24.3 -10 -5
      vertex 24.3 -10 5
    endloop
  endfacet
  facet normal 0 0 1
    outer loop
      vertex 24.3 -8 -5
      vertex 24.3 -10 -5
      vertex 25.3 -9 -5
    endloop
  endfacet
  facet normal -0 0 1
    outer loop
      vertex 15.7 -8 -5
      vertex 24.3 -10 -5
      vertex 24.3 -8 -5
    endloop
  endfacet
  facet normal 0 0 1
    outer loop
      vertex 15.7 -8 -5
      vertex 15.7 -10 -5
      vertex 24.3 -10 -5
    endloop
  endfacet
  facet normal 0 -0 1
    outer loop
      vertex 15.7 -10 -5
      vertex 15.7 -8 -5
      vertex 14.7 -9 -5
    endloop
  endfacet
  facet normal 0.707107 0.707107 0
    outer loop
      vertex 15.7 -10 5
      vertex 14.7 -9 -5
      vertex 14.7 -9 5
    endloop
  endfacet
  facet normal 0.707107 0.707107 0
    outer loop
      vertex 14.7 -9 -5
      vertex 15.7 -10 5
      vertex 15.7 -10 -5
    endloop
  endfacet
  facet normal 0.707107 -0.707107 0
    outer loop
      vertex 14.7 -9 5
      vertex 15.7 -8 -5
      vertex 15.7 -8 5
    endloop
  endfacet
  facet normal 0.707107 -0.707107 0
    outer loop
      vertex 15.7 -8 -5
      vertex 14.7 -9 5
      vertex 14.7 -9 -5
    endloop
  endfacet
  facet normal -0.707107 -0.707107 0
    outer loop
      vertex 25.3 -9 -5
      vertex 24.3 -8 5
      vertex 24.3 -8 -5
    endloop
  endfacet
  facet normal -0.707107 -0.707107 0
    outer loop
      vertex 24.3 -8 5
      vertex 25.3 -9 -5
      vertex 25.3 -9 5
    endloop
  endfacet
endsolid OpenSCAD_Model
