solid OpenSCAD_Model
  facet normal -1 0 0
    outer loop
      vertex -10 -10 -10
      vertex -10 10 -5
      vertex -10 10 -10
    endloop
  endfacet
  facet normal -1 -0 0
    outer loop
      vertex -10 10 -5
      vertex -10 -10 -10
      vertex -10 -10 -5
    endloop
  endfacet
  facet normal 0 0 -1
    outer loop
      vertex -10 -10 -10
      vertex 10 10 -10
      vertex 10 -10 -10
    endloop
  endfacet
  facet normal -0 0 -1
    outer loop
      vertex 10 10 -10
      vertex -10 -10 -10
      vertex -10 10 -10
    endloop
  endfacet
  facet normal 1 -0 0
    outer loop
      vertex 10 -10 -5
      vertex 10 10 -10
      vertex 10 10 -5
    endloop
  endfacet
  facet normal 1 0 0
    outer loop
      vertex 10 10 -10
      vertex 10 -10 -5
      vertex 10 -10 -10
    endloop
  endfacet
  facet normal 0 -1 0
    outer loop
      vertex -10 -10 -10
      vertex -3.7 -10 -5
      vertex -10 -10 -5
    endloop
  endfacet
  facet normal 0 -1 -0
    outer loop
      vertex -3.7 -10 -5
      vertex -10 -10 -10
      vertex 3.7 -10 -5
    endloop
  endfacet
  facet normal 0 -1 0
    outer loop
      vertex 10 -10 -10
      vertex 3.7 -10 -5
      vertex -10 -10 -10
    endloop
  endfacet
  facet normal 0 -1 0
    outer loop
      vertex 3.7 -10 -5
      vertex 10 -10 -10
      vertex 10 -10 -5
    endloop
  endfacet
  facet normal 0 -1 0
    outer loop
      vertex -3.7 -10 -5
      vertex 3.7 -10 5
      vertex -3.7 -10 5
    endloop
  endfacet
  facet normal 0 -1 -0
    outer loop
      vertex 3.7 -10 5
      vertex -3.7 -10 -5
      vertex 3.7 -10 -5
    endloop
  endfacet
  facet normal 0 1 -0
    outer loop
      vertex 10 10 -10
      vertex 3.7 10 -5
      vertex 10 10 -5
    endloop
  endfacet
  facet normal 0 1 0
    outer loop
      vertex 3.7 10 -5
      vertex 10 10 -10
      vertex -3.7 10 -5
    endloop
  endfacet
  facet normal 0 1 0
    outer loop
      vertex -10 10 -10
      vertex -3.7 10 -5
      vertex 10 10 -10
    endloop
  endfacet
  facet normal 0 1 0
    outer loop
      vertex -3.7 10 -5
      vertex -10 10 -10
      vertex -10 10 -5
    endloop
  endfacet
  facet normal 0 1 -0
    outer loop
      vertex 3.7 10 -5
      vertex -3.7 10 5
      vertex 3.7 10 5
    endloop
  endfacet
  facet normal 0 1 0
    outer loop
      vertex -3.7 10 5
      vertex 3.7 10 -5
      vertex -3.7 10 -5
    endloop
  endfacet
  facet normal 1 -0 0
    outer loop
      vertex -8 -8 -5
      vertex -8 8 -8
      vertex -8 8 -5
    endloop
  endfacet
  facet normal 1 0 0
    outer loop
      vertex -8 8 -8
      vertex -8 -8 -5
      vertex -8 -8 -8
    endloop
  endfacet
  facet normal -0 0 1
    outer loop
      vertex -8 8 -8
      vertex 8 -8 -8
      vertex 8 8 -8
    endloop
  endfacet
  facet normal 0 0 1
    outer loop
      vertex 8 -8 -8
      vertex -8 8 -8
      vertex -8 -8 -8
    endloop
  endfacet
  facet normal -1 0 0
    outer loop
      vertex 8 -8 -8
      vertex 8 8 -5
      vertex 8 8 -8
    endloop
  endfacet
  facet normal -1 -0 0
    outer loop
      vertex 8 8 -5
      vertex 8 -8 -8
      vertex 8 -8 -5
    endloop
  endfacet
  facet normal 0 -1 0
    outer loop
      vertex -8 8 -8
      vertex -3.7 8 -5
      vertex -8 8 -5
    endloop
  endfacet
  facet normal 0 -1 -0
    outer loop
      vertex -3.7 8 -5
      vertex -8 8 -8
      vertex 3.7 8 -5
    endloop
  endfacet
  facet normal 0 -1 0
    outer loop
      vertex 8 8 -8
      vertex 3.7 8 -5
      vertex -8 8 -8
    endloop
  endfacet
  facet normal 0 -1 0
    outer loop
      vertex 3.7 8 -5
      vertex 8 8 -8
      vertex 8 8 -5
    endloop
  endfacet
  facet normal 0 1 -0
    outer loop
      vertex 8 -8 -8
      vertex 3.7 -8 -5
      vertex 8 -8 -5
    endloop
  endfacet
  facet normal 0 1 0
    outer loop
      vertex 3.7 -8 -5
      vertex 8 -8 -8
      vertex -3.7 -8 -5
    endloop
  endfacet
  facet normal 0 1 0
    outer loop
      vertex -8 -8 -8
      vertex -3.7 -8 -5
      vertex 8 -8 -8
    endloop
  endfacet
  facet normal 0 1 0
    outer loop
      vertex -3.7 -8 -5
      vertex -8 -8 -8
      vertex -8 -8 -5
    endloop
  endfacet
  facet normal 0 0 1
    outer loop
      vertex 8 -8 -5
      vertex 3.7 -8 -5
      vertex 4.7 -9 -5
    endloop
  endfacet
  facet normal 0 0 1
    outer loop
      vertex 10 10 -5
      vertex 8 8 -5
      vertex 10 -10 -5
    endloop
  endfacet
  facet normal 0 0 1
    outer loop
      vertex 10 10 -5
      vertex 4.7 9 -5
      vertex 8 8 -5
    endloop
  endfacet
  facet normal 0 -0 1
    outer loop
      vertex 4.7 9 -5
      vertex 10 10 -5
      vertex 3.7 10 -5
    endloop
  endfacet
  facet normal -0 0 1
    outer loop
      vertex 8 -8 -5
      vertex 10 -10 -5
      vertex 8 8 -5
    endloop
  endfacet
  facet normal -0 0 1
    outer loop
      vertex 4.7 -9 -5
      vertex 10 -10 -5
      vertex 8 -8 -5
    endloop
  endfacet
  facet normal 0 0 1
    outer loop
      vertex 10 -10 -5
      vertex 4.7 -9 -5
      vertex 3.7 -10 -5
    endloop
  endfacet
  facet normal 0 0 1
    outer loop
      vertex 8 8 -5
      vertex 4.7 9 -5
      vertex 3.7 8 -5
    endloop
  endfacet
  facet normal -0 0 1
    outer loop
      vertex -10 10 -5
      vertex -4.7 9 -5
      vertex -3.7 10 -5
    endloop
  endfacet
  facet normal 0 0 1
    outer loop
      vertex -8 8 -5
      vertex -10 10 -5
      vertex -8 -8 -5
    endloop
  endfacet
  facet normal 0 0 1
    outer loop
      vertex -4.7 9 -5
      vertex -10 10 -5
      vertex -8 8 -5
    endloop
  endfacet
  facet normal 0 0 1
    outer loop
      vertex -3.7 8 -5
      vertex -4.7 9 -5
      vertex -8 8 -5
    endloop
  endfacet
  facet normal 0 0 1
    outer loop
      vertex -3.7 -8 -5
      vertex -8 -8 -5
      vertex -4.7 -9 -5
    endloop
  endfacet
  facet normal 0 0 1
    outer loop
      vertex -10 -10 -5
      vertex -4.7 -9 -5
      vertex -8 -8 -5
    endloop
  endfacet
  facet normal 0 0 1
    outer loop
      vertex -4.7 -9 -5
      vertex -10 -10 -5
      vertex -3.7 -10 -5
    endloop
  endfacet
  facet normal 0 0 1
    outer loop
      vertex -10 -10 -5
      vertex -8 -8 -5
      vertex -10 10 -5
    endloop
  endfacet
  facet normal 0 1 -0
    outer loop
      vertex 3.7 -8 -5
      vertex -3.7 -8 5
      vertex 3.7 -8 5
    endloop
  endfacet
  facet normal 0 1 0
    outer loop
      vertex -3.7 -8 5
      vertex 3.7 -8 -5
      vertex -3.7 -8 -5
    endloop
  endfacet
  facet normal 0.707107 0.707107 0
    outer loop
      vertex 4.7 -9 5
      vertex 3.7 -8 -5
      vertex 3.7 -8 5
    endloop
  endfacet
  facet normal 0.707107 0.707107 0
    outer loop
      vertex 3.7 -8 -5
      vertex 4.7 -9 5
      vertex 4.7 -9 -5
    endloop
  endfacet
  facet normal 0 0 1
    outer loop
      vertex 3.7 -8 5
      vertex 3.7 -10 5
      vertex 4.7 -9 5
    endloop
  endfacet
  facet normal -0 0 1
    outer loop
      vertex -3.7 -8 5
      vertex 3.7 -10 5
      vertex 3.7 -8 5
    endloop
  endfacet
  facet normal 0 0 1
    outer loop
      vertex -3.7 -8 5
      vertex -3.7 -10 5
      vertex 3.7 -10 5
    endloop
  endfacet
  facet normal 0 -0 1
    outer loop
      vertex -3.7 -10 5
      vertex -3.7 -8 5
      vertex -4.7 -9 5
    endloop
  endfacet
  facet normal 0.707107 -0.707107 0
    outer loop
      vertex 3.7 -10 5
      vertex 4.7 -9 -5
      vertex 4.7 -9 5
    endloop
  endfacet
  facet normal 0.707107 -0.707107 0
    outer loop
      vertex 4.7 -9 -5
      vertex 3.7 -10 5
      vertex 3.7 -10 -5
    endloop
  endfacet
  facet normal -0.707107 0.707107 0
    outer loop
      vertex -4.7 -9 -5
      vertex -3.7 -8 5
      vertex -3.7 -8 -5
    endloop
  endfacet
  facet normal -0.707107 0.707107 0
    outer loop
      vertex -3.7 -8 5
      vertex -4.7 -9 -5
      vertex -4.7 -9 5
    endloop
  endfacet
  facet normal -0.707107 -0.707107 0
    outer loop
      vertex -3.7 -10 -5
      vertex -4.7 -9 5
      vertex -4.7 -9 -5
    endloop
  endfacet
  facet normal -0.707107 -0.707107 0
    outer loop
      vertex -4.7 -9 5
      vertex -3.7 -10 -5
      vertex -3.7 -10 5
    endloop
  endfacet
  facet normal 0.707107 0.707107 0
    outer loop
      vertex 4.7 9 5
      vertex 3.7 10 -5
      vertex 3.7 10 5
    endloop
  endfacet
  facet normal 0.707107 0.707107 0
    outer loop
      vertex 3.7 10 -5
      vertex 4.7 9 5
      vertex 4.7 9 -5
    endloop
  endfacet
  facet normal 0.707107 -0.707107 0
    outer loop
      vertex 3.7 8 5
      vertex 4.7 9 -5
      vertex 4.7 9 5
    endloop
  endfacet
  facet normal 0.707107 -0.707107 0
    outer loop
      vertex 4.7 9 -5
      vertex 3.7 8 5
      vertex 3.7 8 -5
    endloop
  endfacet
  facet normal -0.707107 0.707107 0
    outer loop
      vertex -4.7 9 -5
      vertex -3.7 10 5
      vertex -3.7 10 -5
    endloop
  endfacet
  facet normal -0.707107 0.707107 0
    outer loop
      vertex -3.7 10 5
      vertex -4.7 9 -5
      vertex -4.7 9 5
    endloop
  endfacet
  facet normal 0 0 1
    outer loop
      vertex 3.7 10 5
      vertex 3.7 8 5
      vertex 4.7 9 5
    endloop
  endfacet
  facet normal -0 0 1
    outer loop
      vertex -3.7 10 5
      vertex 3.7 8 5
      vertex 3.7 10 5
    endloop
  endfacet
  facet normal 0 0 1
    outer loop
      vertex -3.7 10 5
      vertex -3.7 8 5
      vertex 3.7 8 5
    endloop
  endfacet
  facet normal 0 -0 1
    outer loop
      vertex -3.7 8 5
      vertex -3.7 10 5
      vertex -4.7 9 5
    endloop
  endfacet
  facet normal -0.707107 -0.707107 0
    outer loop
      vertex -3.7 8 -5
      vertex -4.7 9 5
      vertex -4.7 9 -5
    endloop
  endfacet
  facet normal -0.707107 -0.707107 0
    outer loop
      vertex -4.7 9 5
      vertex -3.7 8 -5
      vertex -3.7 8 5
    endloop
  endfacet
  facet normal 0 -1 0
    outer loop
      vertex -3.7 8 -5
      vertex 3.7 8 5
      vertex -3.7 8 5
    endloop
  endfacet
  facet normal 0 -1 -0
    outer loop
      vertex 3.7 8 5
      vertex -3.7 8 -5
      vertex 3.7 8 -5
    endloop
  endfacet
endsolid OpenSCAD_Model
