solid OpenSCAD_Model
  facet normal -1 0 0
    outer loop
      vertex -50 -25 -50
      vertex -50 25 50
      vertex -50 25 -50
    endloop
  endfacet
  facet normal -1 -0 0
    outer loop
      vertex -50 25 50
      vertex -50 -25 -50
      vertex -50 -25 50
    endloop
  endfacet
  facet normal 0 0 1
    outer loop
      vertex 50 25 50
      vertex 49.25 24.25 50
      vertex 50 -25 50
    endloop
  endfacet
  facet normal 0 0 1
    outer loop
      vertex 50 25 50
      vertex -49.25 24.25 50
      vertex 49.25 24.25 50
    endloop
  endfacet
  facet normal 0 0 1
    outer loop
      vertex -49.25 24.25 50
      vertex -50 25 50
      vertex -49.25 -24.25 50
    endloop
  endfacet
  facet normal -0 0 1
    outer loop
      vertex -50 25 50
      vertex -49.25 24.25 50
      vertex 50 25 50
    endloop
  endfacet
  facet normal -0 0 1
    outer loop
      vertex 49.25 -24.25 50
      vertex 50 -25 50
      vertex 49.25 24.25 50
    endloop
  endfacet
  facet normal -0 0 1
    outer loop
      vertex -49.25 -24.25 50
      vertex 50 -25 50
      vertex 49.25 -24.25 50
    endloop
  endfacet
  facet normal 0 0 1
    outer loop
      vertex -49.25 -24.25 50
      vertex -50 -25 50
      vertex 50 -25 50
    endloop
  endfacet
  facet normal 0 0 1
    outer loop
      vertex -50 -25 50
      vertex -49.25 -24.25 50
      vertex -50 25 50
    endloop
  endfacet
  facet normal 1 -0 0
    outer loop
      vertex 50 -25 50
      vertex 50 25 -50
      vertex 50 25 50
    endloop
  endfacet
  facet normal 1 0 0
    outer loop
      vertex 50 25 -50
      vertex 50 -25 50
      vertex 50 -25 -50
    endloop
  endfacet
  facet normal 0 1 -0
    outer loop
      vertex 50 25 -50
      vertex -50 25 50
      vertex 50 25 50
    endloop
  endfacet
  facet normal 0 1 0
    outer loop
      vertex -50 25 50
      vertex 50 25 -50
      vertex -50 25 -50
    endloop
  endfacet
  facet normal 0 0 -1
    outer loop
      vertex -50 -25 -50
      vertex 50 25 -50
      vertex 50 -25 -50
    endloop
  endfacet
  facet normal -0 0 -1
    outer loop
      vertex 50 25 -50
      vertex -50 -25 -50
      vertex -50 25 -50
    endloop
  endfacet
  facet normal 0 -1 0
    outer loop
      vertex -50 -25 -50
      vertex 50 -25 50
      vertex -50 -25 50
    endloop
  endfacet
  facet normal 0 -1 -0
    outer loop
      vertex 50 -25 50
      vertex -50 -25 -50
      vertex 50 -25 -50
    endloop
  endfacet
  facet normal 1 -0 0
    outer loop
      vertex -49.25 -24.25 50
      vertex -49.25 24.25 -48.99
      vertex -49.25 24.25 50
    endloop
  endfacet
  facet normal 1 0 0
    outer loop
      vertex -49.25 24.25 -48.99
      vertex -49.25 -24.25 50
      vertex -49.25 -24.25 -48.99
    endloop
  endfacet
  facet normal -1 0 0
    outer loop
      vertex 49.25 -24.25 -48.99
      vertex 49.25 24.25 50
      vertex 49.25 24.25 -48.99
    endloop
  endfacet
  facet normal -1 -0 0
    outer loop
      vertex 49.25 24.25 50
      vertex 49.25 -24.25 -48.99
      vertex 49.25 -24.25 50
    endloop
  endfacet
  facet normal 0 -1 0
    outer loop
      vertex -49.25 24.25 -48.99
      vertex 49.25 24.25 50
      vertex -49.25 24.25 50
    endloop
  endfacet
  facet normal 0 -1 -0
    outer loop
      vertex 49.25 24.25 50
      vertex -49.25 24.25 -48.99
      vertex 49.25 24.25 -48.99
    endloop
  endfacet
  facet normal -0 0 1
    outer loop
      vertex -49.25 24.25 -48.99
      vertex 49.25 -24.25 -48.99
      vertex 49.25 24.25 -48.99
    endloop
  endfacet
  facet normal 0 0 1
    outer loop
      vertex 49.25 -24.25 -48.99
      vertex -49.25 24.25 -48.99
      vertex -49.25 -24.25 -48.99
    endloop
  endfacet
  facet normal 0 1 -0
    outer loop
      vertex 49.25 -24.25 -48.99
      vertex -49.25 -24.25 50
      vertex 49.25 -24.25 50
    endloop
  endfacet
  facet normal 0 1 0
    outer loop
      vertex -49.25 -24.25 50
      vertex 49.25 -24.25 -48.99
      vertex -49.25 -24.25 -48.99
    endloop
  endfacet
endsolid OpenSCAD_Model
