solid OpenSCAD_Model
  facet normal 0 -0.994004 -0.10934
    outer loop
      vertex 0 -27.5 0
      vertex 50 -33 50
      vertex 0 -33 50
    endloop
  endfacet
  facet normal 0 -0.994004 -0.10934
    outer loop
      vertex 50 -33 50
      vertex 0 -27.5 0
      vertex 50 -27.5 0
    endloop
  endfacet
  facet normal 0 0.994004 -0.10934
    outer loop
      vertex 50 27.5 0
      vertex 0 33 50
      vertex 50 33 50
    endloop
  endfacet
  facet normal 0 0.994004 -0.10934
    outer loop
      vertex 0 33 50
      vertex 50 27.5 0
      vertex 0 27.5 0
    endloop
  endfacet
  facet normal -1 0 0
    outer loop
      vertex 0 -27.5 0
      vertex 0 33 50
      vertex 0 27.5 0
    endloop
  endfacet
  facet normal -1 -0 0
    outer loop
      vertex 0 33 50
      vertex 0 -27.5 0
      vertex 0 -33 50
    endloop
  endfacet
  facet normal 1 0 0
    outer loop
      vertex 50 33 50
      vertex 50 -27.5 0
      vertex 50 27.5 0
    endloop
  endfacet
  facet normal 1 0 -0
    outer loop
      vertex 50 -27.5 0
      vertex 50 33 50
      vertex 50 -33 50
    endloop
  endfacet
  facet normal 0 0 1
    outer loop
      vertex 50 33 50
      vertex 49.5 32.387 50
      vertex 50 -33 50
    endloop
  endfacet
  facet normal 0 0 1
    outer loop
      vertex 50 33 50
      vertex 0.5 32.387 50
      vertex 49.5 32.387 50
    endloop
  endfacet
  facet normal 0 0 1
    outer loop
      vertex 0.5 32.387 50
      vertex 0 33 50
      vertex 0.5 -32.387 50
    endloop
  endfacet
  facet normal -0 0 1
    outer loop
      vertex 0 33 50
      vertex 0.5 32.387 50
      vertex 50 33 50
    endloop
  endfacet
  facet normal -0 0 1
    outer loop
      vertex 49.5 -32.387 50
      vertex 50 -33 50
      vertex 49.5 32.387 50
    endloop
  endfacet
  facet normal -0 0 1
    outer loop
      vertex 0.5 -32.387 50
      vertex 50 -33 50
      vertex 49.5 -32.387 50
    endloop
  endfacet
  facet normal 0 0 1
    outer loop
      vertex 0.5 -32.387 50
      vertex 0 -33 50
      vertex 50 -33 50
    endloop
  endfacet
  facet normal 0 0 1
    outer loop
      vertex 0 -33 50
      vertex 0.5 -32.387 50
      vertex 0 33 50
    endloop
  endfacet
  facet normal 0 0 -1
    outer loop
      vertex 0 -27.5 0
      vertex 50 27.5 0
      vertex 50 -27.5 0
    endloop
  endfacet
  facet normal -0 0 -1
    outer loop
      vertex 50 27.5 0
      vertex 0 -27.5 0
      vertex 0 27.5 0
    endloop
  endfacet
  facet normal 0 0.994004 0.10934
    outer loop
      vertex 49.5 -27.052 1.5
      vertex 0.5 -32.387 50
      vertex 49.5 -32.387 50
    endloop
  endfacet
  facet normal 0 0.994004 0.10934
    outer loop
      vertex 0.5 -32.387 50
      vertex 49.5 -27.052 1.5
      vertex 0.5 -27.052 1.5
    endloop
  endfacet
  facet normal 0 -0.994004 0.10934
    outer loop
      vertex 0.5 27.052 1.5
      vertex 49.5 32.387 50
      vertex 0.5 32.387 50
    endloop
  endfacet
  facet normal 0 -0.994004 0.10934
    outer loop
      vertex 49.5 32.387 50
      vertex 0.5 27.052 1.5
      vertex 49.5 27.052 1.5
    endloop
  endfacet
  facet normal 1 0 0
    outer loop
      vertex 0.5 32.387 50
      vertex 0.5 -27.052 1.5
      vertex 0.5 27.052 1.5
    endloop
  endfacet
  facet normal 1 0 -0
    outer loop
      vertex 0.5 -27.052 1.5
      vertex 0.5 32.387 50
      vertex 0.5 -32.387 50
    endloop
  endfacet
  facet normal -1 0 0
    outer loop
      vertex 49.5 -27.052 1.5
      vertex 49.5 32.387 50
      vertex 49.5 27.052 1.5
    endloop
  endfacet
  facet normal -1 -0 0
    outer loop
      vertex 49.5 32.387 50
      vertex 49.5 -27.052 1.5
      vertex 49.5 -32.387 50
    endloop
  endfacet
  facet normal -0 0 1
    outer loop
      vertex 0.5 27.052 1.5
      vertex 49.5 -27.052 1.5
      vertex 49.5 27.052 1.5
    endloop
  endfacet
  facet normal 0 0 1
    outer loop
      vertex 49.5 -27.052 1.5
      vertex 0.5 27.052 1.5
      vertex 0.5 -27.052 1.5
    endloop
  endfacet
endsolid OpenSCAD_Model
