solid OpenSCAD_Model
  facet normal -1 0 0
    outer loop
      vertex -50 -50 -100
      vertex -50 50 100
      vertex -50 50 -100
    endloop
  endfacet
  facet normal -1 -0 0
    outer loop
      vertex -50 50 100
      vertex -50 -50 -100
      vertex -50 -50 100
    endloop
  endfacet
  facet normal 0 0 1
    outer loop
      vertex 50 50 100
      vertex 49.25 49.25 100
      vertex 50 -50 100
    endloop
  endfacet
  facet normal 0 0 1
    outer loop
      vertex 50 50 100
      vertex -49.25 49.25 100
      vertex 49.25 49.25 100
    endloop
  endfacet
  facet normal 0 0 1
    outer loop
      vertex -49.25 49.25 100
      vertex -50 50 100
      vertex -49.25 -49.25 100
    endloop
  endfacet
  facet normal -0 0 1
    outer loop
      vertex -50 50 100
      vertex -49.25 49.25 100
      vertex 50 50 100
    endloop
  endfacet
  facet normal -0 0 1
    outer loop
      vertex 49.25 -49.25 100
      vertex 50 -50 100
      vertex 49.25 49.25 100
    endloop
  endfacet
  facet normal -0 0 1
    outer loop
      vertex -49.25 -49.25 100
      vertex 50 -50 100
      vertex 49.25 -49.25 100
    endloop
  endfacet
  facet normal 0 0 1
    outer loop
      vertex -49.25 -49.25 100
      vertex -50 -50 100
      vertex 50 -50 100
    endloop
  endfacet
  facet normal 0 0 1
    outer loop
      vertex -50 -50 100
      vertex -49.25 -49.25 100
      vertex -50 50 100
    endloop
  endfacet
  facet normal 1 -0 0
    outer loop
      vertex 50 -50 100
      vertex 50 50 -100
      vertex 50 50 100
    endloop
  endfacet
  facet normal 1 0 0
    outer loop
      vertex 50 50 -100
      vertex 50 -50 100
      vertex 50 -50 -100
    endloop
  endfacet
  facet normal 0 1 -0
    outer loop
      vertex 50 50 -100
      vertex -50 50 100
      vertex 50 50 100
    endloop
  endfacet
  facet normal 0 1 0
    outer loop
      vertex -50 50 100
      vertex 50 50 -100
      vertex -50 50 -100
    endloop
  endfacet
  facet normal 0 0 -1
    outer loop
      vertex -50 -50 -100
      vertex 50 50 -100
      vertex 50 -50 -100
    endloop
  endfacet
  facet normal -0 0 -1
    outer loop
      vertex 50 50 -100
      vertex -50 -50 -100
      vertex -50 50 -100
    endloop
  endfacet
  facet normal 0 -1 0
    outer loop
      vertex -50 -50 -100
      vertex 50 -50 100
      vertex -50 -50 100
    endloop
  endfacet
  facet normal 0 -1 -0
    outer loop
      vertex 50 -50 100
      vertex -50 -50 -100
      vertex 50 -50 -100
    endloop
  endfacet
  facet normal 1 -0 0
    outer loop
      vertex -49.25 -49.25 -0.677107
      vertex -49.25 49.25 -98.99
      vertex -49.25 49.25 -0.677107
    endloop
  endfacet
  facet normal 1 0 0
    outer loop
      vertex -49.25 49.25 -98.99
      vertex -49.25 -49.25 -0.677107
      vertex -49.25 -49.25 -98.99
    endloop
  endfacet
  facet normal 1 -0 0
    outer loop
      vertex -49.25 -49.25 100
      vertex -49.25 49.25 99.6771
      vertex -49.25 49.25 100
    endloop
  endfacet
  facet normal 1 0 0
    outer loop
      vertex -49.25 49.25 99.6771
      vertex -49.25 -49.25 100
      vertex -49.25 -49.25 99.6771
    endloop
  endfacet
  facet normal 1 -0 0
    outer loop
      vertex -49.25 -49.25 98.3229
      vertex -49.25 49.25 0.677107
      vertex -49.25 49.25 98.3229
    endloop
  endfacet
  facet normal 1 0 0
    outer loop
      vertex -49.25 49.25 0.677107
      vertex -49.25 -49.25 98.3229
      vertex -49.25 -49.25 0.677107
    endloop
  endfacet
  facet normal -1 0 0
    outer loop
      vertex 49.25 -49.25 -98.99
      vertex 49.25 49.25 -0.677107
      vertex 49.25 49.25 -98.99
    endloop
  endfacet
  facet normal -1 -0 0
    outer loop
      vertex 49.25 49.25 -0.677107
      vertex 49.25 -49.25 -98.99
      vertex 49.25 -49.25 -0.677107
    endloop
  endfacet
  facet normal -1 0 0
    outer loop
      vertex 49.25 -49.25 99.6771
      vertex 49.25 49.25 100
      vertex 49.25 49.25 99.6771
    endloop
  endfacet
  facet normal -1 -0 0
    outer loop
      vertex 49.25 49.25 100
      vertex 49.25 -49.25 99.6771
      vertex 49.25 -49.25 100
    endloop
  endfacet
  facet normal -1 0 0
    outer loop
      vertex 49.25 -49.25 0.677107
      vertex 49.25 49.25 98.3229
      vertex 49.25 49.25 0.677107
    endloop
  endfacet
  facet normal -1 -0 0
    outer loop
      vertex 49.25 49.25 98.3229
      vertex 49.25 -49.25 0.677107
      vertex 49.25 -49.25 98.3229
    endloop
  endfacet
  facet normal -0 0 1
    outer loop
      vertex -49.25 49.25 -98.99
      vertex 49.25 -49.25 -98.99
      vertex 49.25 49.25 -98.99
    endloop
  endfacet
  facet normal 0 0 1
    outer loop
      vertex 49.25 -49.25 -98.99
      vertex -49.25 49.25 -98.99
      vertex -49.25 -49.25 -98.99
    endloop
  endfacet
  facet normal 0 1 -0
    outer loop
      vertex 49.25 -49.25 -98.99
      vertex -49.25 -49.25 -0.677107
      vertex 49.25 -49.25 -0.677107
    endloop
  endfacet
  facet normal 0 1 0
    outer loop
      vertex -49.25 -49.25 -0.677107
      vertex 49.25 -49.25 -98.99
      vertex -49.25 -49.25 -98.99
    endloop
  endfacet
  facet normal 0 1 -0
    outer loop
      vertex 49.25 -49.25 99.6771
      vertex -49.25 -49.25 100
      vertex 49.25 -49.25 100
    endloop
  endfacet
  facet normal 0 1 0
    outer loop
      vertex -49.25 -49.25 100
      vertex 49.25 -49.25 99.6771
      vertex -49.25 -49.25 99.6771
    endloop
  endfacet
  facet normal 0 1 -0
    outer loop
      vertex 49.25 -49.25 0.677107
      vertex -49.25 -49.25 98.3229
      vertex 49.25 -49.25 98.3229
    endloop
  endfacet
  facet normal 0 1 0
    outer loop
      vertex -49.25 -49.25 98.3229
      vertex 49.25 -49.25 0.677107
      vertex -49.25 -49.25 0.677107
    endloop
  endfacet
  facet normal 0 -1 0
    outer loop
      vertex -49.25 49.25 -98.99
      vertex 49.25 49.25 -0.677107
      vertex -49.25 49.25 -0.677107
    endloop
  endfacet
  facet normal 0 -1 -0
    outer loop
      vertex 49.25 49.25 -0.677107
      vertex -49.25 49.25 -98.99
      vertex 49.25 49.25 -98.99
    endloop
  endfacet
  facet normal 0 -1 0
    outer loop
      vertex -49.25 49.25 99.6771
      vertex 49.25 49.25 100
      vertex -49.25 49.25 100
    endloop
  endfacet
  facet normal 0 -1 -0
    outer loop
      vertex 49.25 49.25 100
      vertex -49.25 49.25 99.6771
      vertex 49.25 49.25 99.6771
    endloop
  endfacet
  facet normal 0 -1 0
    outer loop
      vertex -49.25 49.25 0.677107
      vertex 49.25 49.25 98.3229
      vertex -49.25 49.25 98.3229
    endloop
  endfacet
  facet normal 0 -1 -0
    outer loop
      vertex 49.25 49.25 98.3229
      vertex -49.25 49.25 0.677107
      vertex 49.25 49.25 0.677107
    endloop
  endfacet
  facet normal 0 -0.70711 0.707103
    outer loop
      vertex 49.25 49.25 0.677107
      vertex -48.5729 48.5729 0
      vertex 48.5729 48.5729 0
    endloop
  endfacet
  facet normal 0 -0.70711 0.707103
    outer loop
      vertex -48.5729 48.5729 0
      vertex 49.25 49.25 0.677107
      vertex -49.25 49.25 0.677107
    endloop
  endfacet
  facet normal 0 -0.70711 -0.707103
    outer loop
      vertex -48.5729 48.5729 0
      vertex 49.25 49.25 -0.677107
      vertex 48.5729 48.5729 0
    endloop
  endfacet
  facet normal -0 -0.70711 -0.707103
    outer loop
      vertex 49.25 49.25 -0.677107
      vertex -48.5729 48.5729 0
      vertex -49.25 49.25 -0.677107
    endloop
  endfacet
  facet normal -0 0.70711 0.707103
    outer loop
      vertex -48.5729 -48.5729 0
      vertex 49.25 -49.25 0.677107
      vertex 48.5729 -48.5729 0
    endloop
  endfacet
  facet normal 0 0.70711 0.707103
    outer loop
      vertex 49.25 -49.25 0.677107
      vertex -48.5729 -48.5729 0
      vertex -49.25 -49.25 0.677107
    endloop
  endfacet
  facet normal 0 0.70711 -0.707103
    outer loop
      vertex 49.25 -49.25 -0.677107
      vertex -48.5729 -48.5729 0
      vertex 48.5729 -48.5729 0
    endloop
  endfacet
  facet normal 0 0.70711 -0.707103
    outer loop
      vertex -48.5729 -48.5729 0
      vertex 49.25 -49.25 -0.677107
      vertex -49.25 -49.25 -0.677107
    endloop
  endfacet
  facet normal -0.70711 0 0.707103
    outer loop
      vertex 48.5729 48.5729 0
      vertex 49.25 -49.25 0.677107
      vertex 49.25 49.25 0.677107
    endloop
  endfacet
  facet normal -0.70711 0 0.707103
    outer loop
      vertex 49.25 -49.25 0.677107
      vertex 48.5729 48.5729 0
      vertex 48.5729 -48.5729 0
    endloop
  endfacet
  facet normal -0.70711 0 -0.707103
    outer loop
      vertex 48.5729 -48.5729 0
      vertex 49.25 49.25 -0.677107
      vertex 49.25 -49.25 -0.677107
    endloop
  endfacet
  facet normal -0.70711 0 -0.707103
    outer loop
      vertex 49.25 49.25 -0.677107
      vertex 48.5729 -48.5729 0
      vertex 48.5729 48.5729 0
    endloop
  endfacet
  facet normal 0.70711 0 0.707103
    outer loop
      vertex -49.25 49.25 0.677107
      vertex -48.5729 -48.5729 0
      vertex -48.5729 48.5729 0
    endloop
  endfacet
  facet normal 0.70711 0 0.707103
    outer loop
      vertex -48.5729 -48.5729 0
      vertex -49.25 49.25 0.677107
      vertex -49.25 -49.25 0.677107
    endloop
  endfacet
  facet normal 0.70711 0 -0.707103
    outer loop
      vertex -49.25 -49.25 -0.677107
      vertex -48.5729 48.5729 0
      vertex -48.5729 -48.5729 0
    endloop
  endfacet
  facet normal 0.70711 0 -0.707103
    outer loop
      vertex -48.5729 48.5729 0
      vertex -49.25 -49.25 -0.677107
      vertex -49.25 49.25 -0.677107
    endloop
  endfacet
  facet normal 0 -0.707107 -0.707107
    outer loop
      vertex -49.25 49.25 98.3229
      vertex 48.5729 48.5729 99
      vertex -48.5729 48.5729 99
    endloop
  endfacet
  facet normal 0 -0.707107 -0.707107
    outer loop
      vertex 48.5729 48.5729 99
      vertex -49.25 49.25 98.3229
      vertex 49.25 49.25 98.3229
    endloop
  endfacet
  facet normal 0 -0.707107 0.707107
    outer loop
      vertex -48.5729 48.5729 99
      vertex 49.25 49.25 99.6771
      vertex -49.25 49.25 99.6771
    endloop
  endfacet
  facet normal 0 -0.707107 0.707107
    outer loop
      vertex 49.25 49.25 99.6771
      vertex -48.5729 48.5729 99
      vertex 48.5729 48.5729 99
    endloop
  endfacet
  facet normal 0 0.707107 0.707107
    outer loop
      vertex 48.5729 -48.5729 99
      vertex -49.25 -49.25 99.6771
      vertex 49.25 -49.25 99.6771
    endloop
  endfacet
  facet normal 0 0.707107 0.707107
    outer loop
      vertex -49.25 -49.25 99.6771
      vertex 48.5729 -48.5729 99
      vertex -48.5729 -48.5729 99
    endloop
  endfacet
  facet normal 0 0.707107 -0.707107
    outer loop
      vertex 49.25 -49.25 98.3229
      vertex -48.5729 -48.5729 99
      vertex 48.5729 -48.5729 99
    endloop
  endfacet
  facet normal 0 0.707107 -0.707107
    outer loop
      vertex -48.5729 -48.5729 99
      vertex 49.25 -49.25 98.3229
      vertex -49.25 -49.25 98.3229
    endloop
  endfacet
  facet normal -0.707107 0 0.707107
    outer loop
      vertex 48.5729 -48.5729 99
      vertex 49.25 49.25 99.6771
      vertex 48.5729 48.5729 99
    endloop
  endfacet
  facet normal -0.707107 0 0.707107
    outer loop
      vertex 49.25 49.25 99.6771
      vertex 48.5729 -48.5729 99
      vertex 49.25 -49.25 99.6771
    endloop
  endfacet
  facet normal -0.707107 0 -0.707107
    outer loop
      vertex 49.25 49.25 98.3229
      vertex 48.5729 -48.5729 99
      vertex 48.5729 48.5729 99
    endloop
  endfacet
  facet normal -0.707107 0 -0.707107
    outer loop
      vertex 48.5729 -48.5729 99
      vertex 49.25 49.25 98.3229
      vertex 49.25 -49.25 98.3229
    endloop
  endfacet
  facet normal 0.707107 0 0.707107
    outer loop
      vertex -49.25 49.25 99.6771
      vertex -48.5729 -48.5729 99
      vertex -48.5729 48.5729 99
    endloop
  endfacet
  facet normal 0.707107 0 0.707107
    outer loop
      vertex -48.5729 -48.5729 99
      vertex -49.25 49.25 99.6771
      vertex -49.25 -49.25 99.6771
    endloop
  endfacet
  facet normal 0.707107 0 -0.707107
    outer loop
      vertex -48.5729 -48.5729 99
      vertex -49.25 49.25 98.3229
      vertex -48.5729 48.5729 99
    endloop
  endfacet
  facet normal 0.707107 0 -0.707107
    outer loop
      vertex -49.25 49.25 98.3229
      vertex -48.5729 -48.5729 99
      vertex -49.25 -49.25 98.3229
    endloop
  endfacet
endsolid OpenSCAD_Model
