solid OpenSCAD_Model
  facet normal 0.0299287 0.993559 -0.109291
    outer loop
      vertex 0 55 0
      vertex -8.13672 55.2451 0
      vertex 0 66 100
    endloop
  endfacet
  facet normal 0.0299267 0.993559 -0.109291
    outer loop
      vertex -8.13672 55.2451 0
      vertex -9.76406 66.2941 100
      vertex 0 66 100
    endloop
  endfacet
  facet normal 1 0 0
    outer loop
      vertex 0 66 100
      vertex 0 -55 0
      vertex 0 55 0
    endloop
  endfacet
  facet normal 1 0 -0
    outer loop
      vertex 0 -55 0
      vertex 0 66 100
      vertex 0 -66 100
    endloop
  endfacet
  facet normal -0.150692 -0.981483 -0.118253
    outer loop
      vertex -58.4695 -63.3129 100
      vertex -68.1246 -61.8305 100
      vertex -56.7705 -51.5254 0
    endloop
  endfacet
  facet normal -0.0909441 0.989338 -0.113749
    outer loop
      vertex -40.6445 53.751 0
      vertex -48.7734 64.5012 100
      vertex -39.0469 65.3953 100
    endloop
  endfacet
  facet normal -0.29701 0.945137 -0.136017
    outer loop
      vertex -96.2334 41.7148 0
      vertex -115.48 50.0578 100
      vertex -106.161 52.9863 100
    endloop
  endfacet
  facet normal -0.239254 0.962507 -0.127824
    outer loop
      vertex -80.6318 46.3584 0
      vertex -96.7582 55.6301 100
      vertex -87.2777 57.9867 100
    endloop
  endfacet
  facet normal -0.583922 -0.785663 -0.204373
    outer loop
      vertex -168.467 -4.85547 0
      vertex -210 0 100
      vertex -175 0 0
    endloop
  endfacet
  facet normal -0.268298 0.954285 -0.131743
    outer loop
      vertex -88.4678 44.1553 0
      vertex -106.161 52.9863 100
      vertex -80.6318 46.3584 0
    endloop
  endfacet
  facet normal -0.000231987 -0.993951 -0.109825
    outer loop
      vertex -8.13672 -55.2451 0
      vertex -19.5328 -66.2918 100
      vertex -16.2773 -55.2432 0
    endloop
  endfacet
  facet normal -0.000234021 0.993951 -0.109825
    outer loop
      vertex -8.13672 55.2451 0
      vertex -19.5328 66.2918 100
      vertex -9.76406 66.2941 100
    endloop
  endfacet
  facet normal -0.0606733 -0.991848 -0.112052
    outer loop
      vertex -29.2957 -65.9918 100
      vertex -39.0469 -65.3953 100
      vertex -24.4131 -54.9932 0
    endloop
  endfacet
  facet normal -0.20998 -0.969776 -0.124268
    outer loop
      vertex -77.7305 -60.0539 100
      vertex -87.2777 -57.9867 100
      vertex -64.7754 -50.0449 0
    endloop
  endfacet
  facet normal -0.408292 -0.899328 -0.156545
    outer loop
      vertex -142.843 -39.5906 100
      vertex -151.738 -35.5523 100
      vertex -126.448 -29.627 0
    endloop
  endfacet
  facet normal -0.583922 0.785663 -0.204373
    outer loop
      vertex -175 0 0
      vertex -210 0 100
      vertex -168.467 4.85547 0
    endloop
  endfacet
  facet normal 0 0 1
    outer loop
      vertex 0 66 100
      vertex -0.598999 65.3088 100
      vertex 0 -66 100
    endloop
  endfacet
  facet normal 0 0 1
    outer loop
      vertex -9.76406 66.2941 100
      vertex -0.598999 65.3088 100
      vertex 0 66 100
    endloop
  endfacet
  facet normal 0 0 1
    outer loop
      vertex -0.598999 65.3088 100
      vertex -9.76406 66.2941 100
      vertex -9.68021 65.5823 100
    endloop
  endfacet
  facet normal 0 0 1
    outer loop
      vertex -9.68021 65.5823 100
      vertex -9.76406 66.2941 100
      vertex -9.75665 65.5846 100
    endloop
  endfacet
  facet normal 0 0 1
    outer loop
      vertex -9.76406 66.2941 100
      vertex -9.83791 65.5846 100
      vertex -9.75665 65.5846 100
    endloop
  endfacet
  facet normal -0 0 1
    outer loop
      vertex -19.5328 66.2918 100
      vertex -9.83791 65.5846 100
      vertex -9.76406 66.2941 100
    endloop
  endfacet
  facet normal 0 0 1
    outer loop
      vertex -9.83791 65.5846 100
      vertex -19.5328 66.2918 100
      vertex -19.4907 65.5823 100
    endloop
  endfacet
  facet normal 0 0 1
    outer loop
      vertex -19.5328 66.2918 100
      vertex -19.5719 65.5798 100
      vertex -19.4907 65.5823 100
    endloop
  endfacet
  facet normal 0 0 1
    outer loop
      vertex -19.5328 66.2918 100
      vertex -29.2196 65.2834 100
      vertex -19.5719 65.5798 100
    endloop
  endfacet
  facet normal -0 0 1
    outer loop
      vertex -29.2957 65.9918 100
      vertex -29.2196 65.2834 100
      vertex -19.5328 66.2918 100
    endloop
  endfacet
  facet normal 0 0 1
    outer loop
      vertex -29.2957 65.9918 100
      vertex -38.9364 64.689 100
      vertex -29.2196 65.2834 100
    endloop
  endfacet
  facet normal -0 0 1
    outer loop
      vertex -39.0469 65.3953 100
      vertex -38.9364 64.689 100
      vertex -29.2957 65.9918 100
    endloop
  endfacet
  facet normal 0 0 1
    outer loop
      vertex -39.0469 65.3953 100
      vertex -48.547 63.8055 100
      vertex -38.9364 64.689 100
    endloop
  endfacet
  facet normal -0 0 1
    outer loop
      vertex -48.7734 64.5012 100
      vertex -48.547 63.8055 100
      vertex -39.0469 65.3953 100
    endloop
  endfacet
  facet normal 0 0 1
    outer loop
      vertex -48.547 63.8055 100
      vertex -48.7734 64.5012 100
      vertex -48.6279 63.7981 100
    endloop
  endfacet
  facet normal 0 0 1
    outer loop
      vertex -48.7734 64.5012 100
      vertex -58.21 62.6238 100
      vertex -48.6279 63.7981 100
    endloop
  endfacet
  facet normal -0 0 1
    outer loop
      vertex -58.4695 63.3129 100
      vertex -58.21 62.6238 100
      vertex -48.7734 64.5012 100
    endloop
  endfacet
  facet normal 0 0 1
    outer loop
      vertex -58.21 62.6238 100
      vertex -58.4695 63.3129 100
      vertex -58.2906 62.6139 100
    endloop
  endfacet
  facet normal 0 0 1
    outer loop
      vertex -58.4695 63.3129 100
      vertex -67.8303 61.1492 100
      vertex -58.2906 62.6139 100
    endloop
  endfacet
  facet normal -0 0 1
    outer loop
      vertex -68.1246 61.8305 100
      vertex -67.8303 61.1492 100
      vertex -58.4695 63.3129 100
    endloop
  endfacet
  facet normal 0 0 1
    outer loop
      vertex -67.8303 61.1492 100
      vertex -68.1246 61.8305 100
      vertex -67.9106 61.1368 100
    endloop
  endfacet
  facet normal 0 0 1
    outer loop
      vertex -68.1246 61.8305 100
      vertex -77.4832 59.3664 100
      vertex -67.9106 61.1368 100
    endloop
  endfacet
  facet normal -0 0 1
    outer loop
      vertex -77.7305 60.0539 100
      vertex -77.4832 59.3664 100
      vertex -68.1246 61.8305 100
    endloop
  endfacet
  facet normal 0 0 1
    outer loop
      vertex -77.4832 59.3664 100
      vertex -77.7305 60.0539 100
      vertex -77.5627 59.3492 100
    endloop
  endfacet
  facet normal 0 0 1
    outer loop
      vertex -77.7305 60.0539 100
      vertex -86.9968 57.3065 100
      vertex -77.5627 59.3492 100
    endloop
  endfacet
  facet normal -0 0 1
    outer loop
      vertex -87.2777 57.9867 100
      vertex -86.9968 57.3065 100
      vertex -77.7305 60.0539 100
    endloop
  endfacet
  facet normal 0 0 1
    outer loop
      vertex -86.9968 57.3065 100
      vertex -87.2777 57.9867 100
      vertex -87.0756 57.2869 100
    endloop
  endfacet
  facet normal 0 0 1
    outer loop
      vertex -87.2777 57.9867 100
      vertex -96.4434 54.9583 100
      vertex -87.0756 57.2869 100
    endloop
  endfacet
  facet normal -0 0 1
    outer loop
      vertex -96.7582 55.6301 100
      vertex -96.4434 54.9583 100
      vertex -87.2777 57.9867 100
    endloop
  endfacet
  facet normal 0 0 1
    outer loop
      vertex -96.4434 54.9583 100
      vertex -96.7582 55.6301 100
      vertex -96.5217 54.9363 100
    endloop
  endfacet
  facet normal 0 0 1
    outer loop
      vertex -96.7582 55.6301 100
      vertex -105.813 52.3239 100
      vertex -96.5217 54.9363 100
    endloop
  endfacet
  facet normal -0 0 1
    outer loop
      vertex -106.161 52.9863 100
      vertex -105.813 52.3239 100
      vertex -96.7582 55.6301 100
    endloop
  endfacet
  facet normal 0 0 1
    outer loop
      vertex -105.813 52.3239 100
      vertex -106.161 52.9863 100
      vertex -105.891 52.2995 100
    endloop
  endfacet
  facet normal 0 0 1
    outer loop
      vertex -106.161 52.9863 100
      vertex -115.1 49.4056 100
      vertex -105.891 52.2995 100
    endloop
  endfacet
  facet normal -0 0 1
    outer loop
      vertex -115.48 50.0578 100
      vertex -115.1 49.4056 100
      vertex -106.161 52.9863 100
    endloop
  endfacet
  facet normal 0 0 1
    outer loop
      vertex -115.48 50.0578 100
      vertex -124.216 46.2317 100
      vertex -115.1 49.4056 100
    endloop
  endfacet
  facet normal -0 0 1
    outer loop
      vertex -124.706 46.8457 100
      vertex -124.216 46.2317 100
      vertex -115.48 50.0578 100
    endloop
  endfacet
  facet normal 0 0 1
    outer loop
      vertex -124.216 46.2317 100
      vertex -124.706 46.8457 100
      vertex -124.293 46.205 100
    endloop
  endfacet
  facet normal 0 0 1
    outer loop
      vertex -124.706 46.8457 100
      vertex -133.309 42.7564 100
      vertex -124.293 46.205 100
    endloop
  endfacet
  facet normal -0 0 1
    outer loop
      vertex -133.83 43.3559 100
      vertex -133.309 42.7564 100
      vertex -124.706 46.8457 100
    endloop
  endfacet
  facet normal 0 0 1
    outer loop
      vertex -133.309 42.7564 100
      vertex -133.83 43.3559 100
      vertex -133.385 42.7274 100
    endloop
  endfacet
  facet normal 0 0 1
    outer loop
      vertex -133.385 42.7274 100
      vertex -133.83 43.3559 100
      vertex -133.46 42.6961 100
    endloop
  endfacet
  facet normal 0 0 1
    outer loop
      vertex -133.83 43.3559 100
      vertex -142.366 38.9754 100
      vertex -133.46 42.6961 100
    endloop
  endfacet
  facet normal -0 0 1
    outer loop
      vertex -142.843 39.5906 100
      vertex -142.366 38.9754 100
      vertex -133.83 43.3559 100
    endloop
  endfacet
  facet normal 0 0 1
    outer loop
      vertex -142.843 39.5906 100
      vertex -151.155 34.9851 100
      vertex -142.366 38.9754 100
    endloop
  endfacet
  facet normal -0 0 1
    outer loop
      vertex -151.738 35.5523 100
      vertex -151.155 34.9851 100
      vertex -142.843 39.5906 100
    endloop
  endfacet
  facet normal 0 0 1
    outer loop
      vertex -151.155 34.9851 100
      vertex -151.738 35.5523 100
      vertex -151.229 34.9515 100
    endloop
  endfacet
  facet normal 0 0 1
    outer loop
      vertex -151.738 35.5523 100
      vertex -159.893 30.6947 100
      vertex -151.229 34.9515 100
    endloop
  endfacet
  facet normal -0 0 1
    outer loop
      vertex -160.506 31.2445 100
      vertex -159.893 30.6947 100
      vertex -151.738 35.5523 100
    endloop
  endfacet
  facet normal 0 0 1
    outer loop
      vertex -159.893 30.6947 100
      vertex -160.506 31.2445 100
      vertex -159.966 30.6589 100
    endloop
  endfacet
  facet normal 0 0 1
    outer loop
      vertex -160.506 31.2445 100
      vertex -168.496 26.1416 100
      vertex -159.966 30.6589 100
    endloop
  endfacet
  facet normal -0 0 1
    outer loop
      vertex -169.138 26.673 100
      vertex -168.496 26.1416 100
      vertex -160.506 31.2445 100
    endloop
  endfacet
  facet normal 0 0 1
    outer loop
      vertex -168.496 26.1416 100
      vertex -169.138 26.673 100
      vertex -168.568 26.1036 100
    endloop
  endfacet
  facet normal 0 0 1
    outer loop
      vertex -169.138 26.673 100
      vertex -176.956 21.3279 100
      vertex -168.568 26.1036 100
    endloop
  endfacet
  facet normal -0 0 1
    outer loop
      vertex -177.627 21.8402 100
      vertex -176.956 21.3279 100
      vertex -169.138 26.673 100
    endloop
  endfacet
  facet normal 0 0 1
    outer loop
      vertex -176.956 21.3279 100
      vertex -177.627 21.8402 100
      vertex -177.027 21.2877 100
    endloop
  endfacet
  facet normal 0 0 1
    outer loop
      vertex -177.627 21.8402 100
      vertex -185.267 16.2598 100
      vertex -177.027 21.2877 100
    endloop
  endfacet
  facet normal -0 0 1
    outer loop
      vertex -185.966 16.752 100
      vertex -185.267 16.2598 100
      vertex -177.627 21.8402 100
    endloop
  endfacet
  facet normal 0 0 1
    outer loop
      vertex -185.267 16.2598 100
      vertex -185.966 16.752 100
      vertex -185.336 16.2175 100
    endloop
  endfacet
  facet normal 0 0 1
    outer loop
      vertex -185.336 16.2175 100
      vertex -185.966 16.752 100
      vertex -185.404 16.1731 100
    endloop
  endfacet
  facet normal 0 0 1
    outer loop
      vertex -185.966 16.752 100
      vertex -193.487 10.8972 100
      vertex -185.404 16.1731 100
    endloop
  endfacet
  facet normal -0 0 1
    outer loop
      vertex -194.146 11.4129 100
      vertex -193.487 10.8972 100
      vertex -185.966 16.752 100
    endloop
  endfacet
  facet normal 0 0 1
    outer loop
      vertex -194.146 11.4129 100
      vertex -201.407 5.37701 100
      vertex -193.487 10.8972 100
    endloop
  endfacet
  facet normal -0 0 1
    outer loop
      vertex -202.16 5.82656 100
      vertex -201.407 5.37701 100
      vertex -194.146 11.4129 100
    endloop
  endfacet
  facet normal 0 0 1
    outer loop
      vertex -201.407 5.37701 100
      vertex -202.16 5.82656 100
      vertex -201.473 5.33055 100
    endloop
  endfacet
  facet normal 0 0 1
    outer loop
      vertex -202.16 5.82656 100
      vertex -208.646 0 100
      vertex -201.473 5.33055 100
    endloop
  endfacet
  facet normal 0 -0 1
    outer loop
      vertex -208.646 0 100
      vertex -202.16 5.82656 100
      vertex -210 0 100
    endloop
  endfacet
  facet normal -0 0 1
    outer loop
      vertex -0.598999 -65.3088 100
      vertex 0 -66 100
      vertex -0.598999 65.3088 100
    endloop
  endfacet
  facet normal 0 0 1
    outer loop
      vertex -9.76406 -66.2941 100
      vertex -0.598999 -65.3088 100
      vertex -9.68021 -65.5823 100
    endloop
  endfacet
  facet normal 0 0 1
    outer loop
      vertex -9.76406 -66.2941 100
      vertex -9.68021 -65.5823 100
      vertex -9.75665 -65.5846 100
    endloop
  endfacet
  facet normal 0 0 1
    outer loop
      vertex -0.598999 -65.3088 100
      vertex -9.76406 -66.2941 100
      vertex 0 -66 100
    endloop
  endfacet
  facet normal -0 0 1
    outer loop
      vertex -9.83791 -65.5846 100
      vertex -9.76406 -66.2941 100
      vertex -9.75665 -65.5846 100
    endloop
  endfacet
  facet normal 0 0 1
    outer loop
      vertex -19.5328 -66.2918 100
      vertex -9.83791 -65.5846 100
      vertex -19.4907 -65.5823 100
    endloop
  endfacet
  facet normal 0 0 1
    outer loop
      vertex -9.83791 -65.5846 100
      vertex -19.5328 -66.2918 100
      vertex -9.76406 -66.2941 100
    endloop
  endfacet
  facet normal 0 0 1
    outer loop
      vertex -19.5719 -65.5798 100
      vertex -19.5328 -66.2918 100
      vertex -19.4907 -65.5823 100
    endloop
  endfacet
  facet normal 0 0 1
    outer loop
      vertex -29.2196 -65.2834 100
      vertex -19.5328 -66.2918 100
      vertex -19.5719 -65.5798 100
    endloop
  endfacet
  facet normal 0 0 1
    outer loop
      vertex -29.2196 -65.2834 100
      vertex -29.2957 -65.9918 100
      vertex -19.5328 -66.2918 100
    endloop
  endfacet
  facet normal 0 0 1
    outer loop
      vertex -38.9364 -64.689 100
      vertex -29.2957 -65.9918 100
      vertex -29.2196 -65.2834 100
    endloop
  endfacet
  facet normal 0 0 1
    outer loop
      vertex -38.9364 -64.689 100
      vertex -39.0469 -65.3953 100
      vertex -29.2957 -65.9918 100
    endloop
  endfacet
  facet normal 0 0 1
    outer loop
      vertex -48.547 -63.8055 100
      vertex -39.0469 -65.3953 100
      vertex -38.9364 -64.689 100
    endloop
  endfacet
  facet normal 0 0 1
    outer loop
      vertex -48.7734 -64.5012 100
      vertex -48.547 -63.8055 100
      vertex -48.6279 -63.7981 100
    endloop
  endfacet
  facet normal 0 0 1
    outer loop
      vertex -48.547 -63.8055 100
      vertex -48.7734 -64.5012 100
      vertex -39.0469 -65.3953 100
    endloop
  endfacet
  facet normal 0 0 1
    outer loop
      vertex -58.21 -62.6238 100
      vertex -48.7734 -64.5012 100
      vertex -48.6279 -63.7981 100
    endloop
  endfacet
  facet normal 0 0 1
    outer loop
      vertex -58.4695 -63.3129 100
      vertex -58.21 -62.6238 100
      vertex -58.2906 -62.6139 100
    endloop
  endfacet
  facet normal 0 0 1
    outer loop
      vertex -58.21 -62.6238 100
      vertex -58.4695 -63.3129 100
      vertex -48.7734 -64.5012 100
    endloop
  endfacet
  facet normal 0 0 1
    outer loop
      vertex -67.8303 -61.1492 100
      vertex -58.4695 -63.3129 100
      vertex -58.2906 -62.6139 100
    endloop
  endfacet
  facet normal 0 0 1
    outer loop
      vertex -68.1246 -61.8305 100
      vertex -67.8303 -61.1492 100
      vertex -67.9106 -61.1368 100
    endloop
  endfacet
  facet normal 0 0 1
    outer loop
      vertex -67.8303 -61.1492 100
      vertex -68.1246 -61.8305 100
      vertex -58.4695 -63.3129 100
    endloop
  endfacet
  facet normal 0 0 1
    outer loop
      vertex -77.4832 -59.3664 100
      vertex -68.1246 -61.8305 100
      vertex -67.9106 -61.1368 100
    endloop
  endfacet
  facet normal 0 0 1
    outer loop
      vertex -77.7305 -60.0539 100
      vertex -77.4832 -59.3664 100
      vertex -77.5627 -59.3492 100
    endloop
  endfacet
  facet normal 0 0 1
    outer loop
      vertex -77.4832 -59.3664 100
      vertex -77.7305 -60.0539 100
      vertex -68.1246 -61.8305 100
    endloop
  endfacet
  facet normal 0 0 1
    outer loop
      vertex -86.9968 -57.3065 100
      vertex -77.7305 -60.0539 100
      vertex -77.5627 -59.3492 100
    endloop
  endfacet
  facet normal 0 0 1
    outer loop
      vertex -87.2777 -57.9867 100
      vertex -86.9968 -57.3065 100
      vertex -87.0756 -57.2869 100
    endloop
  endfacet
  facet normal 0 0 1
    outer loop
      vertex -86.9968 -57.3065 100
      vertex -87.2777 -57.9867 100
      vertex -77.7305 -60.0539 100
    endloop
  endfacet
  facet normal 0 0 1
    outer loop
      vertex -96.4434 -54.9583 100
      vertex -87.2777 -57.9867 100
      vertex -87.0756 -57.2869 100
    endloop
  endfacet
  facet normal 0 0 1
    outer loop
      vertex -96.7582 -55.6301 100
      vertex -96.4434 -54.9583 100
      vertex -96.5217 -54.9363 100
    endloop
  endfacet
  facet normal 0 0 1
    outer loop
      vertex -96.4434 -54.9583 100
      vertex -96.7582 -55.6301 100
      vertex -87.2777 -57.9867 100
    endloop
  endfacet
  facet normal 0 0 1
    outer loop
      vertex -105.813 -52.3239 100
      vertex -96.7582 -55.6301 100
      vertex -96.5217 -54.9363 100
    endloop
  endfacet
  facet normal 0 0 1
    outer loop
      vertex -106.161 -52.9863 100
      vertex -105.813 -52.3239 100
      vertex -105.891 -52.2995 100
    endloop
  endfacet
  facet normal 0 0 1
    outer loop
      vertex -105.813 -52.3239 100
      vertex -106.161 -52.9863 100
      vertex -96.7582 -55.6301 100
    endloop
  endfacet
  facet normal 0 0 1
    outer loop
      vertex -115.1 -49.4056 100
      vertex -106.161 -52.9863 100
      vertex -105.891 -52.2995 100
    endloop
  endfacet
  facet normal 0 0 1
    outer loop
      vertex -115.1 -49.4056 100
      vertex -115.48 -50.0578 100
      vertex -106.161 -52.9863 100
    endloop
  endfacet
  facet normal 0 0 1
    outer loop
      vertex -124.216 -46.2317 100
      vertex -115.48 -50.0578 100
      vertex -115.1 -49.4056 100
    endloop
  endfacet
  facet normal 0 0 1
    outer loop
      vertex -124.706 -46.8457 100
      vertex -124.216 -46.2317 100
      vertex -124.293 -46.205 100
    endloop
  endfacet
  facet normal 0 0 1
    outer loop
      vertex -124.216 -46.2317 100
      vertex -124.706 -46.8457 100
      vertex -115.48 -50.0578 100
    endloop
  endfacet
  facet normal 0 0 1
    outer loop
      vertex -133.309 -42.7564 100
      vertex -124.706 -46.8457 100
      vertex -124.293 -46.205 100
    endloop
  endfacet
  facet normal 0 0 1
    outer loop
      vertex -133.83 -43.3559 100
      vertex -133.309 -42.7564 100
      vertex -133.385 -42.7274 100
    endloop
  endfacet
  facet normal 0 0 1
    outer loop
      vertex -133.83 -43.3559 100
      vertex -133.385 -42.7274 100
      vertex -133.46 -42.6961 100
    endloop
  endfacet
  facet normal 0 0 1
    outer loop
      vertex -133.309 -42.7564 100
      vertex -133.83 -43.3559 100
      vertex -124.706 -46.8457 100
    endloop
  endfacet
  facet normal 0 0 1
    outer loop
      vertex -142.366 -38.9754 100
      vertex -133.83 -43.3559 100
      vertex -133.46 -42.6961 100
    endloop
  endfacet
  facet normal 0 0 1
    outer loop
      vertex -142.366 -38.9754 100
      vertex -142.843 -39.5906 100
      vertex -133.83 -43.3559 100
    endloop
  endfacet
  facet normal 0 0 1
    outer loop
      vertex -151.155 -34.9851 100
      vertex -142.843 -39.5906 100
      vertex -142.366 -38.9754 100
    endloop
  endfacet
  facet normal 0 0 1
    outer loop
      vertex -151.738 -35.5523 100
      vertex -151.155 -34.9851 100
      vertex -151.229 -34.9515 100
    endloop
  endfacet
  facet normal 0 0 1
    outer loop
      vertex -151.155 -34.9851 100
      vertex -151.738 -35.5523 100
      vertex -142.843 -39.5906 100
    endloop
  endfacet
  facet normal 0 0 1
    outer loop
      vertex -159.893 -30.6947 100
      vertex -151.738 -35.5523 100
      vertex -151.229 -34.9515 100
    endloop
  endfacet
  facet normal 0 0 1
    outer loop
      vertex -160.506 -31.2445 100
      vertex -159.893 -30.6947 100
      vertex -159.966 -30.6589 100
    endloop
  endfacet
  facet normal 0 0 1
    outer loop
      vertex -159.893 -30.6947 100
      vertex -160.506 -31.2445 100
      vertex -151.738 -35.5523 100
    endloop
  endfacet
  facet normal 0 0 1
    outer loop
      vertex -168.496 -26.1416 100
      vertex -160.506 -31.2445 100
      vertex -159.966 -30.6589 100
    endloop
  endfacet
  facet normal 0 0 1
    outer loop
      vertex -169.138 -26.673 100
      vertex -168.496 -26.1416 100
      vertex -168.568 -26.1036 100
    endloop
  endfacet
  facet normal 0 0 1
    outer loop
      vertex -168.496 -26.1416 100
      vertex -169.138 -26.673 100
      vertex -160.506 -31.2445 100
    endloop
  endfacet
  facet normal 0 0 1
    outer loop
      vertex -176.956 -21.3279 100
      vertex -169.138 -26.673 100
      vertex -168.568 -26.1036 100
    endloop
  endfacet
  facet normal 0 0 1
    outer loop
      vertex -177.627 -21.8402 100
      vertex -176.956 -21.3279 100
      vertex -177.027 -21.2877 100
    endloop
  endfacet
  facet normal 0 0 1
    outer loop
      vertex -176.956 -21.3279 100
      vertex -177.627 -21.8402 100
      vertex -169.138 -26.673 100
    endloop
  endfacet
  facet normal 0 0 1
    outer loop
      vertex -185.267 -16.2598 100
      vertex -177.627 -21.8402 100
      vertex -177.027 -21.2877 100
    endloop
  endfacet
  facet normal 0 0 1
    outer loop
      vertex -185.966 -16.752 100
      vertex -185.267 -16.2598 100
      vertex -185.336 -16.2175 100
    endloop
  endfacet
  facet normal 0 0 1
    outer loop
      vertex -185.966 -16.752 100
      vertex -185.336 -16.2175 100
      vertex -185.404 -16.1731 100
    endloop
  endfacet
  facet normal 0 0 1
    outer loop
      vertex -185.267 -16.2598 100
      vertex -185.966 -16.752 100
      vertex -177.627 -21.8402 100
    endloop
  endfacet
  facet normal 0 0 1
    outer loop
      vertex -193.487 -10.8972 100
      vertex -185.966 -16.752 100
      vertex -185.404 -16.1731 100
    endloop
  endfacet
  facet normal 0 0 1
    outer loop
      vertex -193.487 -10.8972 100
      vertex -194.146 -11.4129 100
      vertex -185.966 -16.752 100
    endloop
  endfacet
  facet normal 0 0 1
    outer loop
      vertex -201.407 -5.37701 100
      vertex -194.146 -11.4129 100
      vertex -193.487 -10.8972 100
    endloop
  endfacet
  facet normal 0 0 1
    outer loop
      vertex -202.16 -5.82656 100
      vertex -201.407 -5.37701 100
      vertex -201.473 -5.33055 100
    endloop
  endfacet
  facet normal 0 0 1
    outer loop
      vertex -201.407 -5.37701 100
      vertex -202.16 -5.82656 100
      vertex -194.146 -11.4129 100
    endloop
  endfacet
  facet normal 0 0 1
    outer loop
      vertex -208.646 0 100
      vertex -202.16 -5.82656 100
      vertex -201.473 -5.33055 100
    endloop
  endfacet
  facet normal 0 0 1
    outer loop
      vertex -202.16 -5.82656 100
      vertex -208.646 0 100
      vertex -210 0 100
    endloop
  endfacet
  facet normal -0.536732 0.822241 -0.189312
    outer loop
      vertex -161.788 9.51074 0
      vertex -185.966 16.752 100
      vertex -154.972 13.96 0
    endloop
  endfacet
  facet normal -0.461304 0.871044 -0.168764
    outer loop
      vertex -140.948 22.2275 0
      vertex -169.138 26.673 100
      vertex -160.506 31.2445 100
    endloop
  endfacet
  facet normal -0.268316 0.954279 -0.131748
    outer loop
      vertex -80.6318 46.3584 0
      vertex -106.161 52.9863 100
      vertex -96.7582 55.6301 100
    endloop
  endfacet
  facet normal -0.20998 0.969776 -0.124268
    outer loop
      vertex -64.7754 50.0449 0
      vertex -87.2777 57.9867 100
      vertex -77.7305 60.0539 100
    endloop
  endfacet
  facet normal -0.0909463 0.989338 -0.113749
    outer loop
      vertex -32.5391 54.4961 0
      vertex -40.6445 53.751 0
      vertex -39.0469 65.3953 100
    endloop
  endfacet
  facet normal 0.0299287 -0.993559 -0.109291
    outer loop
      vertex 0 -66 100
      vertex -8.13672 -55.2451 0
      vertex 0 -55 0
    endloop
  endfacet
  facet normal -0.120826 -0.985895 -0.115808
    outer loop
      vertex -48.7734 -64.5012 100
      vertex -58.4695 -63.3129 100
      vertex -40.6445 -53.751 0
    endloop
  endfacet
  facet normal -0.150689 -0.981483 -0.118253
    outer loop
      vertex -48.7246 -52.7607 0
      vertex -58.4695 -63.3129 100
      vertex -56.7705 -51.5254 0
    endloop
  endfacet
  facet normal -0.0606753 -0.991848 -0.112052
    outer loop
      vertex -24.4131 -54.9932 0
      vertex -39.0469 -65.3953 100
      vertex -32.5391 -54.4961 0
    endloop
  endfacet
  facet normal -0.29701 -0.945137 -0.136017
    outer loop
      vertex -106.161 -52.9863 100
      vertex -115.48 -50.0578 100
      vertex -96.2334 -41.7148 0
    endloop
  endfacet
  facet normal -0.583904 -0.785679 -0.204364
    outer loop
      vertex -202.16 -5.82656 100
      vertex -210 0 100
      vertex -168.467 -4.85547 0
    endloop
  endfacet
  facet normal -0.512108 -0.839383 -0.182158
    outer loop
      vertex -148.022 -18.2002 0
      vertex -185.966 -16.752 100
      vertex -154.972 -13.96 0
    endloop
  endfacet
  facet normal -0.381051 -0.912156 -0.150904
    outer loop
      vertex -111.525 -36.1299 0
      vertex -142.843 -39.5906 100
      vertex -119.036 -32.9922 0
    endloop
  endfacet
  facet normal -0.48708 0.855575 -0.175342
    outer loop
      vertex -140.948 22.2275 0
      vertex -177.627 21.8402 100
      vertex -169.138 26.673 100
    endloop
  endfacet
  facet normal -0.560675 0.804328 -0.196723
    outer loop
      vertex -161.788 9.51074 0
      vertex -202.16 5.82656 100
      vertex -194.146 11.4129 100
    endloop
  endfacet
  facet normal -0.536695 0.822267 -0.189305
    outer loop
      vertex -161.788 9.51074 0
      vertex -194.146 11.4129 100
      vertex -185.966 16.752 100
    endloop
  endfacet
  facet normal -0.381063 0.91215 -0.150908
    outer loop
      vertex -111.525 36.1299 0
      vertex -142.843 39.5906 100
      vertex -133.83 43.3559 100
    endloop
  endfacet
  facet normal -0.353438 0.924056 -0.145607
    outer loop
      vertex -111.525 36.1299 0
      vertex -133.83 43.3559 100
      vertex -124.706 46.8457 100
    endloop
  endfacet
  facet normal -0.435091 0.885599 -0.162509
    outer loop
      vertex -133.755 26.0371 0
      vertex -151.738 35.5523 100
      vertex -126.448 29.627 0
    endloop
  endfacet
  facet normal -0.239262 0.962504 -0.127824
    outer loop
      vertex -80.6318 46.3584 0
      vertex -87.2777 57.9867 100
      vertex -72.7314 48.3223 0
    endloop
  endfacet
  facet normal -0.150692 0.981483 -0.118253
    outer loop
      vertex -56.7705 51.5254 0
      vertex -68.1246 61.8305 100
      vertex -58.4695 63.3129 100
    endloop
  endfacet
  facet normal -0.150689 0.981483 -0.118253
    outer loop
      vertex -56.7705 51.5254 0
      vertex -58.4695 63.3129 100
      vertex -48.7246 52.7607 0
    endloop
  endfacet
  facet normal -0.0305251 0.99338 -0.110748
    outer loop
      vertex -24.4131 54.9932 0
      vertex -29.2957 65.9918 100
      vertex -19.5328 66.2918 100
    endloop
  endfacet
  facet normal -0.030525 0.99338 -0.110748
    outer loop
      vertex -16.2773 55.2432 0
      vertex -24.4131 54.9932 0
      vertex -19.5328 66.2918 100
    endloop
  endfacet
  facet normal -0.120832 -0.985895 -0.115808
    outer loop
      vertex -40.6445 -53.751 0
      vertex -58.4695 -63.3129 100
      vertex -48.7246 -52.7607 0
    endloop
  endfacet
  facet normal -0.030525 -0.99338 -0.110748
    outer loop
      vertex -19.5328 -66.2918 100
      vertex -24.4131 -54.9932 0
      vertex -16.2773 -55.2432 0
    endloop
  endfacet
  facet normal -0.0305251 -0.99338 -0.110748
    outer loop
      vertex -19.5328 -66.2918 100
      vertex -29.2957 -65.9918 100
      vertex -24.4131 -54.9932 0
    endloop
  endfacet
  facet normal 0.0299267 -0.993559 -0.109291
    outer loop
      vertex 0 -66 100
      vertex -9.76406 -66.2941 100
      vertex -8.13672 -55.2451 0
    endloop
  endfacet
  facet normal -0.000234021 -0.993951 -0.109825
    outer loop
      vertex -9.76406 -66.2941 100
      vertex -19.5328 -66.2918 100
      vertex -8.13672 -55.2451 0
    endloop
  endfacet
  facet normal -0.239262 -0.962504 -0.127824
    outer loop
      vertex -72.7314 -48.3223 0
      vertex -87.2777 -57.9867 100
      vertex -80.6318 -46.3584 0
    endloop
  endfacet
  facet normal -0.209972 -0.969778 -0.124266
    outer loop
      vertex -64.7754 -50.0449 0
      vertex -87.2777 -57.9867 100
      vertex -72.7314 -48.3223 0
    endloop
  endfacet
  facet normal -0.239254 -0.962507 -0.127824
    outer loop
      vertex -87.2777 -57.9867 100
      vertex -96.7582 -55.6301 100
      vertex -80.6318 -46.3584 0
    endloop
  endfacet
  facet normal -0.353438 -0.924056 -0.145607
    outer loop
      vertex -124.706 -46.8457 100
      vertex -133.83 -43.3559 100
      vertex -111.525 -36.1299 0
    endloop
  endfacet
  facet normal 0 0 -1
    outer loop
      vertex -8.13672 -55.2451 0
      vertex 0 55 0
      vertex 0 -55 0
    endloop
  endfacet
  facet normal 0 0 -1
    outer loop
      vertex -8.13672 -55.2451 0
      vertex -8.13672 55.2451 0
      vertex 0 55 0
    endloop
  endfacet
  facet normal 0 0 -1
    outer loop
      vertex -16.2773 -55.2432 0
      vertex -8.13672 55.2451 0
      vertex -8.13672 -55.2451 0
    endloop
  endfacet
  facet normal 0 0 -1
    outer loop
      vertex -16.2773 -55.2432 0
      vertex -16.2773 55.2432 0
      vertex -8.13672 55.2451 0
    endloop
  endfacet
  facet normal 0 0 -1
    outer loop
      vertex -24.4131 -54.9932 0
      vertex -16.2773 55.2432 0
      vertex -16.2773 -55.2432 0
    endloop
  endfacet
  facet normal 0 0 -1
    outer loop
      vertex -24.4131 -54.9932 0
      vertex -24.4131 54.9932 0
      vertex -16.2773 55.2432 0
    endloop
  endfacet
  facet normal 0 0 -1
    outer loop
      vertex -32.5391 -54.4961 0
      vertex -24.4131 54.9932 0
      vertex -24.4131 -54.9932 0
    endloop
  endfacet
  facet normal 0 0 -1
    outer loop
      vertex -32.5391 -54.4961 0
      vertex -32.5391 54.4961 0
      vertex -24.4131 54.9932 0
    endloop
  endfacet
  facet normal 0 0 -1
    outer loop
      vertex -40.6445 -53.751 0
      vertex -32.5391 54.4961 0
      vertex -32.5391 -54.4961 0
    endloop
  endfacet
  facet normal 0 0 -1
    outer loop
      vertex -40.6445 -53.751 0
      vertex -40.6445 53.751 0
      vertex -32.5391 54.4961 0
    endloop
  endfacet
  facet normal 0 0 -1
    outer loop
      vertex -48.7246 -52.7607 0
      vertex -40.6445 53.751 0
      vertex -40.6445 -53.751 0
    endloop
  endfacet
  facet normal 0 0 -1
    outer loop
      vertex -48.7246 -52.7607 0
      vertex -48.7246 52.7607 0
      vertex -40.6445 53.751 0
    endloop
  endfacet
  facet normal 0 0 -1
    outer loop
      vertex -56.7705 -51.5254 0
      vertex -48.7246 52.7607 0
      vertex -48.7246 -52.7607 0
    endloop
  endfacet
  facet normal 0 0 -1
    outer loop
      vertex -56.7705 -51.5254 0
      vertex -56.7705 51.5254 0
      vertex -48.7246 52.7607 0
    endloop
  endfacet
  facet normal 0 0 -1
    outer loop
      vertex -64.7754 -50.0449 0
      vertex -56.7705 51.5254 0
      vertex -56.7705 -51.5254 0
    endloop
  endfacet
  facet normal 0 0 -1
    outer loop
      vertex -64.7754 -50.0449 0
      vertex -64.7754 50.0449 0
      vertex -56.7705 51.5254 0
    endloop
  endfacet
  facet normal 0 0 -1
    outer loop
      vertex -72.7314 -48.3223 0
      vertex -64.7754 50.0449 0
      vertex -64.7754 -50.0449 0
    endloop
  endfacet
  facet normal 0 0 -1
    outer loop
      vertex -72.7314 -48.3223 0
      vertex -72.7314 48.3223 0
      vertex -64.7754 50.0449 0
    endloop
  endfacet
  facet normal 0 0 -1
    outer loop
      vertex -80.6318 -46.3584 0
      vertex -72.7314 48.3223 0
      vertex -72.7314 -48.3223 0
    endloop
  endfacet
  facet normal 0 0 -1
    outer loop
      vertex -80.6318 -46.3584 0
      vertex -80.6318 46.3584 0
      vertex -72.7314 48.3223 0
    endloop
  endfacet
  facet normal 0 0 -1
    outer loop
      vertex -88.4678 -44.1553 0
      vertex -80.6318 46.3584 0
      vertex -80.6318 -46.3584 0
    endloop
  endfacet
  facet normal 0 0 -1
    outer loop
      vertex -88.4678 -44.1553 0
      vertex -88.4678 44.1553 0
      vertex -80.6318 46.3584 0
    endloop
  endfacet
  facet normal 0 0 -1
    outer loop
      vertex -96.2334 -41.7148 0
      vertex -88.4678 44.1553 0
      vertex -88.4678 -44.1553 0
    endloop
  endfacet
  facet normal 0 0 -1
    outer loop
      vertex -96.2334 -41.7148 0
      vertex -96.2334 41.7148 0
      vertex -88.4678 44.1553 0
    endloop
  endfacet
  facet normal 0 0 -1
    outer loop
      vertex -103.922 -39.0381 0
      vertex -96.2334 41.7148 0
      vertex -96.2334 -41.7148 0
    endloop
  endfacet
  facet normal 0 0 -1
    outer loop
      vertex -103.922 -39.0381 0
      vertex -103.922 39.0381 0
      vertex -96.2334 41.7148 0
    endloop
  endfacet
  facet normal 0 0 -1
    outer loop
      vertex -111.525 -36.1299 0
      vertex -103.922 39.0381 0
      vertex -103.922 -39.0381 0
    endloop
  endfacet
  facet normal 0 0 -1
    outer loop
      vertex -111.525 -36.1299 0
      vertex -111.525 36.1299 0
      vertex -103.922 39.0381 0
    endloop
  endfacet
  facet normal 0 0 -1
    outer loop
      vertex -119.036 -32.9922 0
      vertex -111.525 36.1299 0
      vertex -111.525 -36.1299 0
    endloop
  endfacet
  facet normal 0 0 -1
    outer loop
      vertex -119.036 -32.9922 0
      vertex -119.036 32.9922 0
      vertex -111.525 36.1299 0
    endloop
  endfacet
  facet normal 0 0 -1
    outer loop
      vertex -126.448 -29.627 0
      vertex -119.036 32.9922 0
      vertex -119.036 -32.9922 0
    endloop
  endfacet
  facet normal 0 0 -1
    outer loop
      vertex -126.448 -29.627 0
      vertex -126.448 29.627 0
      vertex -119.036 32.9922 0
    endloop
  endfacet
  facet normal 0 0 -1
    outer loop
      vertex -133.755 -26.0371 0
      vertex -126.448 29.627 0
      vertex -126.448 -29.627 0
    endloop
  endfacet
  facet normal 0 0 -1
    outer loop
      vertex -133.755 -26.0371 0
      vertex -133.755 26.0371 0
      vertex -126.448 29.627 0
    endloop
  endfacet
  facet normal 0 0 -1
    outer loop
      vertex -140.948 -22.2275 0
      vertex -133.755 26.0371 0
      vertex -133.755 -26.0371 0
    endloop
  endfacet
  facet normal 0 0 -1
    outer loop
      vertex -140.948 -22.2275 0
      vertex -140.948 22.2275 0
      vertex -133.755 26.0371 0
    endloop
  endfacet
  facet normal 0 0 -1
    outer loop
      vertex -148.022 -18.2002 0
      vertex -140.948 22.2275 0
      vertex -140.948 -22.2275 0
    endloop
  endfacet
  facet normal 0 0 -1
    outer loop
      vertex -148.022 -18.2002 0
      vertex -148.022 18.2002 0
      vertex -140.948 22.2275 0
    endloop
  endfacet
  facet normal 0 0 -1
    outer loop
      vertex -154.972 -13.96 0
      vertex -148.022 18.2002 0
      vertex -148.022 -18.2002 0
    endloop
  endfacet
  facet normal 0 0 -1
    outer loop
      vertex -154.972 -13.96 0
      vertex -154.972 13.96 0
      vertex -148.022 18.2002 0
    endloop
  endfacet
  facet normal 0 0 -1
    outer loop
      vertex -161.788 -9.51074 0
      vertex -154.972 13.96 0
      vertex -154.972 -13.96 0
    endloop
  endfacet
  facet normal 0 0 -1
    outer loop
      vertex -161.788 -9.51074 0
      vertex -161.788 9.51074 0
      vertex -154.972 13.96 0
    endloop
  endfacet
  facet normal 0 0 -1
    outer loop
      vertex -168.467 -4.85547 0
      vertex -161.788 9.51074 0
      vertex -161.788 -9.51074 0
    endloop
  endfacet
  facet normal 0 0 -1
    outer loop
      vertex -168.467 -4.85547 0
      vertex -168.467 4.85547 0
      vertex -161.788 9.51074 0
    endloop
  endfacet
  facet normal 0 -0 -1
    outer loop
      vertex -168.467 4.85547 0
      vertex -168.467 -4.85547 0
      vertex -175 0 0
    endloop
  endfacet
  facet normal -0.536732 -0.822241 -0.189312
    outer loop
      vertex -154.972 -13.96 0
      vertex -185.966 -16.752 100
      vertex -161.788 -9.51074 0
    endloop
  endfacet
  facet normal -0.536695 -0.822267 -0.189305
    outer loop
      vertex -185.966 -16.752 100
      vertex -194.146 -11.4129 100
      vertex -161.788 -9.51074 0
    endloop
  endfacet
  facet normal -0.435101 -0.885595 -0.16251
    outer loop
      vertex -151.738 -35.5523 100
      vertex -160.506 -31.2445 100
      vertex -133.755 -26.0371 0
    endloop
  endfacet
  facet normal -0.461322 -0.871034 -0.168766
    outer loop
      vertex -133.755 -26.0371 0
      vertex -160.506 -31.2445 100
      vertex -140.948 -22.2275 0
    endloop
  endfacet
  facet normal -0.435091 -0.885599 -0.162509
    outer loop
      vertex -126.448 -29.627 0
      vertex -151.738 -35.5523 100
      vertex -133.755 -26.0371 0
    endloop
  endfacet
  facet normal -0.325531 -0.93501 -0.140661
    outer loop
      vertex -115.48 -50.0578 100
      vertex -124.706 -46.8457 100
      vertex -96.2334 -41.7148 0
    endloop
  endfacet
  facet normal -0.512148 0.839355 -0.182174
    outer loop
      vertex -148.022 18.2002 0
      vertex -185.966 16.752 100
      vertex -177.627 21.8402 100
    endloop
  endfacet
  facet normal -0.487085 0.855571 -0.175344
    outer loop
      vertex -148.022 18.2002 0
      vertex -177.627 21.8402 100
      vertex -140.948 22.2275 0
    endloop
  endfacet
  facet normal -0.583904 0.785679 -0.204364
    outer loop
      vertex -168.467 4.85547 0
      vertex -210 0 100
      vertex -202.16 5.82656 100
    endloop
  endfacet
  facet normal -0.560638 0.804358 -0.196707
    outer loop
      vertex -168.467 4.85547 0
      vertex -202.16 5.82656 100
      vertex -161.788 9.51074 0
    endloop
  endfacet
  facet normal -0.297027 0.945132 -0.136018
    outer loop
      vertex -96.2334 41.7148 0
      vertex -106.161 52.9863 100
      vertex -88.4678 44.1553 0
    endloop
  endfacet
  facet normal -0.408292 0.899328 -0.156545
    outer loop
      vertex -126.448 29.627 0
      vertex -151.738 35.5523 100
      vertex -142.843 39.5906 100
    endloop
  endfacet
  facet normal -0.435101 0.885595 -0.16251
    outer loop
      vertex -133.755 26.0371 0
      vertex -160.506 31.2445 100
      vertex -151.738 35.5523 100
    endloop
  endfacet
  facet normal -0.461322 0.871034 -0.168766
    outer loop
      vertex -140.948 22.2275 0
      vertex -160.506 31.2445 100
      vertex -133.755 26.0371 0
    endloop
  endfacet
  facet normal -0.180526 0.976089 -0.121084
    outer loop
      vertex -64.7754 50.0449 0
      vertex -77.7305 60.0539 100
      vertex -68.1246 61.8305 100
    endloop
  endfacet
  facet normal -0.180527 0.976088 -0.121084
    outer loop
      vertex -64.7754 50.0449 0
      vertex -68.1246 61.8305 100
      vertex -56.7705 51.5254 0
    endloop
  endfacet
  facet normal -0.120832 0.985895 -0.115808
    outer loop
      vertex -48.7246 52.7607 0
      vertex -58.4695 63.3129 100
      vertex -40.6445 53.751 0
    endloop
  endfacet
  facet normal -0.120826 0.985895 -0.115808
    outer loop
      vertex -40.6445 53.751 0
      vertex -58.4695 63.3129 100
      vertex -48.7734 64.5012 100
    endloop
  endfacet
  facet normal -0.0606753 0.991848 -0.112052
    outer loop
      vertex -32.5391 54.4961 0
      vertex -39.0469 65.3953 100
      vertex -24.4131 54.9932 0
    endloop
  endfacet
  facet normal -0.0606733 0.991848 -0.112052
    outer loop
      vertex -24.4131 54.9932 0
      vertex -39.0469 65.3953 100
      vertex -29.2957 65.9918 100
    endloop
  endfacet
  facet normal -0.0909463 -0.989338 -0.113749
    outer loop
      vertex -39.0469 -65.3953 100
      vertex -40.6445 -53.751 0
      vertex -32.5391 -54.4961 0
    endloop
  endfacet
  facet normal -0.0909441 -0.989338 -0.113749
    outer loop
      vertex -39.0469 -65.3953 100
      vertex -48.7734 -64.5012 100
      vertex -40.6445 -53.751 0
    endloop
  endfacet
  facet normal -0.180527 -0.976088 -0.121084
    outer loop
      vertex -56.7705 -51.5254 0
      vertex -68.1246 -61.8305 100
      vertex -64.7754 -50.0449 0
    endloop
  endfacet
  facet normal -0.180526 -0.976089 -0.121084
    outer loop
      vertex -68.1246 -61.8305 100
      vertex -77.7305 -60.0539 100
      vertex -64.7754 -50.0449 0
    endloop
  endfacet
  facet normal -0.268316 -0.954279 -0.131748
    outer loop
      vertex -96.7582 -55.6301 100
      vertex -106.161 -52.9863 100
      vertex -80.6318 -46.3584 0
    endloop
  endfacet
  facet normal -0.560675 -0.804328 -0.196723
    outer loop
      vertex -194.146 -11.4129 100
      vertex -202.16 -5.82656 100
      vertex -161.788 -9.51074 0
    endloop
  endfacet
  facet normal -0.560638 -0.804358 -0.196707
    outer loop
      vertex -161.788 -9.51074 0
      vertex -202.16 -5.82656 100
      vertex -168.467 -4.85547 0
    endloop
  endfacet
  facet normal -0.48708 -0.855575 -0.175342
    outer loop
      vertex -169.138 -26.673 100
      vertex -177.627 -21.8402 100
      vertex -140.948 -22.2275 0
    endloop
  endfacet
  facet normal -0.461304 -0.871044 -0.168764
    outer loop
      vertex -160.506 -31.2445 100
      vertex -169.138 -26.673 100
      vertex -140.948 -22.2275 0
    endloop
  endfacet
  facet normal -0.40831 -0.89932 -0.156547
    outer loop
      vertex -119.036 -32.9922 0
      vertex -142.843 -39.5906 100
      vertex -126.448 -29.627 0
    endloop
  endfacet
  facet normal -0.381063 -0.91215 -0.150908
    outer loop
      vertex -133.83 -43.3559 100
      vertex -142.843 -39.5906 100
      vertex -111.525 -36.1299 0
    endloop
  endfacet
  facet normal -0.353455 -0.92405 -0.145608
    outer loop
      vertex -103.922 -39.0381 0
      vertex -124.706 -46.8457 100
      vertex -111.525 -36.1299 0
    endloop
  endfacet
  facet normal -0.325515 -0.935016 -0.140657
    outer loop
      vertex -96.2334 -41.7148 0
      vertex -124.706 -46.8457 100
      vertex -103.922 -39.0381 0
    endloop
  endfacet
  facet normal -0.512108 0.839383 -0.182158
    outer loop
      vertex -154.972 13.96 0
      vertex -185.966 16.752 100
      vertex -148.022 18.2002 0
    endloop
  endfacet
  facet normal -0.325531 0.93501 -0.140661
    outer loop
      vertex -96.2334 41.7148 0
      vertex -124.706 46.8457 100
      vertex -115.48 50.0578 100
    endloop
  endfacet
  facet normal -0.353455 0.92405 -0.145608
    outer loop
      vertex -111.525 36.1299 0
      vertex -124.706 46.8457 100
      vertex -103.922 39.0381 0
    endloop
  endfacet
  facet normal -0.40831 0.89932 -0.156547
    outer loop
      vertex -126.448 29.627 0
      vertex -142.843 39.5906 100
      vertex -119.036 32.9922 0
    endloop
  endfacet
  facet normal -0.381051 0.912156 -0.150904
    outer loop
      vertex -119.036 32.9922 0
      vertex -142.843 39.5906 100
      vertex -111.525 36.1299 0
    endloop
  endfacet
  facet normal -0.209972 0.969778 -0.124266
    outer loop
      vertex -72.7314 48.3223 0
      vertex -87.2777 57.9867 100
      vertex -64.7754 50.0449 0
    endloop
  endfacet
  facet normal -0.000231987 0.993951 -0.109825
    outer loop
      vertex -16.2773 55.2432 0
      vertex -19.5328 66.2918 100
      vertex -8.13672 55.2451 0
    endloop
  endfacet
  facet normal -0.268298 -0.954285 -0.131743
    outer loop
      vertex -80.6318 -46.3584 0
      vertex -106.161 -52.9863 100
      vertex -88.4678 -44.1553 0
    endloop
  endfacet
  facet normal -0.297027 -0.945132 -0.136018
    outer loop
      vertex -88.4678 -44.1553 0
      vertex -106.161 -52.9863 100
      vertex -96.2334 -41.7148 0
    endloop
  endfacet
  facet normal -0.487085 -0.855571 -0.175344
    outer loop
      vertex -140.948 -22.2275 0
      vertex -177.627 -21.8402 100
      vertex -148.022 -18.2002 0
    endloop
  endfacet
  facet normal -0.512148 -0.839355 -0.182174
    outer loop
      vertex -177.627 -21.8402 100
      vertex -185.966 -16.752 100
      vertex -148.022 -18.2002 0
    endloop
  endfacet
  facet normal -0.325515 0.935016 -0.140657
    outer loop
      vertex -103.922 39.0381 0
      vertex -124.706 46.8457 100
      vertex -96.2334 41.7148 0
    endloop
  endfacet
  facet normal -0.0299264 -0.993667 0.10831
    outer loop
      vertex -0.5 54.5148 1
      vertex -0.598999 65.3088 100
      vertex -9.68021 65.5823 100
    endloop
  endfacet
  facet normal 0.0606728 0.991959 0.111071
    outer loop
      vertex -32.5012 -53.9975 1
      vertex -29.2196 -65.2834 100
      vertex -24.3903 -54.4936 1
    endloop
  endfacet
  facet normal 0.0606805 0.991958 0.111071
    outer loop
      vertex -29.2196 -65.2834 100
      vertex -32.5012 -53.9975 1
      vertex -38.9364 -64.689 100
    endloop
  endfacet
  facet normal -0.0298984 -0.993668 0.10831
    outer loop
      vertex -8.14412 54.7451 1
      vertex -9.68021 65.5823 100
      vertex -9.75665 65.5846 100
    endloop
  endfacet
  facet normal -0.0299369 -0.993666 0.108309
    outer loop
      vertex -9.68021 65.5823 100
      vertex -8.14412 54.7451 1
      vertex -0.5 54.5148 1
    endloop
  endfacet
  facet normal -1 0 -0.000999989
    outer loop
      vertex -0.5 -54.5148 1
      vertex -0.598999 65.3088 100
      vertex -0.5 54.5148 1
    endloop
  endfacet
  facet normal -1 -0 -0.000999989
    outer loop
      vertex -0.598999 65.3088 100
      vertex -0.5 -54.5148 1
      vertex -0.598999 -65.3088 100
    endloop
  endfacet
  facet normal 0.150712 0.981597 0.117274
    outer loop
      vertex -58.2906 -62.6139 100
      vertex -48.6566 -52.2653 1
      vertex -67.8303 -61.1492 100
    endloop
  endfacet
  facet normal 0.461367 -0.871197 0.167799
    outer loop
      vertex -133.528 25.5917 1
      vertex -159.966 30.6589 100
      vertex -168.496 26.1416 100
    endloop
  endfacet
  facet normal 0.0305223 -0.993489 0.109767
    outer loop
      vertex -24.3903 54.4936 1
      vertex -19.5719 65.5798 100
      vertex -29.2196 65.2834 100
    endloop
  endfacet
  facet normal 0.435178 0.885732 0.161549
    outer loop
      vertex -133.528 -25.5917 1
      vertex -159.893 -30.6947 100
      vertex -126.235 -29.1749 1
    endloop
  endfacet
  facet normal 0.43454 0.886073 0.161397
    outer loop
      vertex -159.893 -30.6947 100
      vertex -133.528 -25.5917 1
      vertex -159.966 -30.6589 100
    endloop
  endfacet
  facet normal 0.297047 -0.945265 0.135045
    outer loop
      vertex -96.0764 41.2401 1
      vertex -105.891 52.2995 100
      vertex -115.1 49.4056 100
    endloop
  endfacet
  facet normal 0.239285 -0.962628 0.126848
    outer loop
      vertex -80.5037 45.875 1
      vertex -87.0756 57.2869 100
      vertex -96.4434 54.9583 100
    endloop
  endfacet
  facet normal 0.0909598 0.989449 0.112768
    outer loop
      vertex -38.9364 -64.689 100
      vertex -32.5012 -53.9975 1
      vertex -48.547 -63.8055 100
    endloop
  endfacet
  facet normal 0.150709 0.981597 0.117273
    outer loop
      vertex -56.6867 -51.0324 1
      vertex -67.8303 -61.1492 100
      vertex -48.6566 -52.2653 1
    endloop
  endfacet
  facet normal 0.151558 0.981457 0.117355
    outer loop
      vertex -67.8303 -61.1492 100
      vertex -56.6867 -51.0324 1
      vertex -67.9106 -61.1368 100
    endloop
  endfacet
  facet normal 0.268174 -0.954455 0.130763
    outer loop
      vertex -88.325 43.676 1
      vertex -96.4434 54.9583 100
      vertex -96.5217 54.9363 100
    endloop
  endfacet
  facet normal 0.268337 -0.954408 0.130772
    outer loop
      vertex -96.4434 54.9583 100
      vertex -88.325 43.676 1
      vertex -80.5037 45.875 1
    endloop
  endfacet
  facet normal 0.000236857 0.994059 0.108843
    outer loop
      vertex -9.83791 -65.5846 100
      vertex -16.2694 -54.7432 1
      vertex -19.4907 -65.5823 100
    endloop
  endfacet
  facet normal 0.000232449 -0.994059 0.108843
    outer loop
      vertex -8.14412 54.7451 1
      vertex -9.83791 65.5846 100
      vertex -16.2694 54.7432 1
    endloop
  endfacet
  facet normal 0 -0.994059 0.108839
    outer loop
      vertex -9.83791 65.5846 100
      vertex -8.14412 54.7451 1
      vertex -9.75665 65.5846 100
    endloop
  endfacet
  facet normal 0.210005 0.969896 0.12329
    outer loop
      vertex -77.5627 -59.3492 100
      vertex -72.6183 -47.8352 1
      vertex -86.9968 -57.3065 100
    endloop
  endfacet
  facet normal 0.268346 0.954405 0.130772
    outer loop
      vertex -96.5217 -54.9363 100
      vertex -88.325 -43.676 1
      vertex -105.813 -52.3239 100
    endloop
  endfacet
  facet normal 0.239285 0.962628 0.126848
    outer loop
      vertex -87.0756 -57.2869 100
      vertex -80.5037 -45.875 1
      vertex -96.4434 -54.9583 100
    endloop
  endfacet
  facet normal 0.268337 0.954408 0.130772
    outer loop
      vertex -88.325 -43.676 1
      vertex -96.4434 -54.9583 100
      vertex -80.5037 -45.875 1
    endloop
  endfacet
  facet normal 0.268174 0.954455 0.130763
    outer loop
      vertex -96.4434 -54.9583 100
      vertex -88.325 -43.676 1
      vertex -96.5217 -54.9363 100
    endloop
  endfacet
  facet normal 0.381128 0.912282 0.149945
    outer loop
      vertex -133.46 -42.6961 100
      vertex -118.836 -32.5337 1
      vertex -142.366 -38.9754 100
    endloop
  endfacet
  facet normal 0.53693 -0.822325 0.188384
    outer loop
      vertex -161.508 9.09619 1
      vertex -185.336 16.2175 100
      vertex -185.404 16.1731 100
    endloop
  endfacet
  facet normal 0.536843 -0.822385 0.188367
    outer loop
      vertex -185.336 16.2175 100
      vertex -161.508 9.09619 1
      vertex -154.705 13.5371 1
    endloop
  endfacet
  facet normal 0.560742 -0.804515 0.195767
    outer loop
      vertex -161.508 9.09619 1
      vertex -193.487 10.8972 100
      vertex -201.407 5.37701 100
    endloop
  endfacet
  facet normal 0.536802 -0.822414 0.188359
    outer loop
      vertex -161.508 9.09619 1
      vertex -185.404 16.1731 100
      vertex -193.487 10.8972 100
    endloop
  endfacet
  facet normal 0.460164 -0.871891 0.167497
    outer loop
      vertex -140.707 21.7893 1
      vertex -168.496 26.1416 100
      vertex -168.568 26.1036 100
    endloop
  endfacet
  facet normal 0.461418 -0.871166 0.167817
    outer loop
      vertex -168.496 26.1416 100
      vertex -140.707 21.7893 1
      vertex -133.528 25.5917 1
    endloop
  endfacet
  facet normal 0.43454 -0.886073 0.161397
    outer loop
      vertex -133.528 25.5917 1
      vertex -159.893 30.6947 100
      vertex -159.966 30.6589 100
    endloop
  endfacet
  facet normal 0.435178 -0.885732 0.161549
    outer loop
      vertex -159.893 30.6947 100
      vertex -133.528 25.5917 1
      vertex -126.235 29.1749 1
    endloop
  endfacet
  facet normal 0.268346 -0.954405 0.130772
    outer loop
      vertex -88.325 43.676 1
      vertex -96.5217 54.9363 100
      vertex -105.813 52.3239 100
    endloop
  endfacet
  facet normal 0.150712 -0.981597 0.117274
    outer loop
      vertex -48.6566 52.2653 1
      vertex -58.2906 62.6139 100
      vertex -67.8303 61.1492 100
    endloop
  endfacet
  facet normal 0.0909598 -0.989449 0.112768
    outer loop
      vertex -32.5012 53.9975 1
      vertex -38.9364 64.689 100
      vertex -48.547 63.8055 100
    endloop
  endfacet
  facet normal 0.09051 -0.989494 0.112737
    outer loop
      vertex -40.5909 53.2538 1
      vertex -48.547 63.8055 100
      vertex -48.6279 63.7981 100
    endloop
  endfacet
  facet normal 0.0909617 -0.989449 0.112768
    outer loop
      vertex -48.547 63.8055 100
      vertex -40.5909 53.2538 1
      vertex -32.5012 53.9975 1
    endloop
  endfacet
  facet normal -0.0299264 0.993667 0.10831
    outer loop
      vertex -0.598999 -65.3088 100
      vertex -0.5 -54.5148 1
      vertex -9.68021 -65.5823 100
    endloop
  endfacet
  facet normal 0.120837 0.986009 0.114828
    outer loop
      vertex -48.6279 -63.7981 100
      vertex -40.5909 -53.2538 1
      vertex -58.21 -62.6238 100
    endloop
  endfacet
  facet normal 0.210001 0.969896 0.12329
    outer loop
      vertex -72.6183 -47.8352 1
      vertex -77.4832 -59.3664 100
      vertex -64.6772 -49.5546 1
    endloop
  endfacet
  facet normal 0.209847 0.96993 0.123286
    outer loop
      vertex -77.4832 -59.3664 100
      vertex -72.6183 -47.8352 1
      vertex -77.5627 -59.3492 100
    endloop
  endfacet
  facet normal 0.180544 0.976206 0.120105
    outer loop
      vertex -64.6772 -49.5546 1
      vertex -67.9106 -61.1368 100
      vertex -56.6867 -51.0324 1
    endloop
  endfacet
  facet normal 0.180544 0.976206 0.120105
    outer loop
      vertex -67.9106 -61.1368 100
      vertex -64.6772 -49.5546 1
      vertex -77.4832 -59.3664 100
    endloop
  endfacet
  facet normal 0.239295 0.962625 0.126849
    outer loop
      vertex -80.5037 -45.875 1
      vertex -86.9968 -57.3065 100
      vertex -72.6183 -47.8352 1
    endloop
  endfacet
  facet normal 0.239426 0.962592 0.126853
    outer loop
      vertex -86.9968 -57.3065 100
      vertex -80.5037 -45.875 1
      vertex -87.0756 -57.2869 100
    endloop
  endfacet
  facet normal 0.353461 0.924201 0.144631
    outer loop
      vertex -111.34 -35.6656 1
      vertex -133.309 -42.7564 100
      vertex -103.75 -38.5684 1
    endloop
  endfacet
  facet normal 0.352765 0.924488 0.144497
    outer loop
      vertex -133.309 -42.7564 100
      vertex -111.34 -35.6656 1
      vertex -133.385 -42.7274 100
    endloop
  endfacet
  facet normal 0.583999 -0.785853 0.203421
    outer loop
      vertex -174.162 0 1
      vertex -201.473 5.33055 100
      vertex -208.646 0 100
    endloop
  endfacet
  facet normal 0.584029 -0.785829 0.203427
    outer loop
      vertex -201.473 5.33055 100
      vertex -174.162 0 1
      vertex -168.175 4.44954 1
    endloop
  endfacet
  facet normal 0.564348 -0.8017 0.196949
    outer loop
      vertex -168.175 4.44954 1
      vertex -201.407 5.37701 100
      vertex -201.473 5.33055 100
    endloop
  endfacet
  facet normal 0.560726 -0.804528 0.19576
    outer loop
      vertex -201.407 5.37701 100
      vertex -168.175 4.44954 1
      vertex -161.508 9.09619 1
    endloop
  endfacet
  facet normal 0.513947 -0.838354 0.181716
    outer loop
      vertex -154.705 13.5371 1
      vertex -185.267 16.2598 100
      vertex -185.336 16.2175 100
    endloop
  endfacet
  facet normal 0.512246 -0.839501 0.181222
    outer loop
      vertex -185.267 16.2598 100
      vertex -154.705 13.5371 1
      vertex -147.769 17.7693 1
    endloop
  endfacet
  facet normal 0.408365 -0.899462 0.155585
    outer loop
      vertex -118.836 32.5337 1
      vertex -142.366 38.9754 100
      vertex -151.155 34.9851 100
    endloop
  endfacet
  facet normal 0.352765 -0.924488 0.144497
    outer loop
      vertex -111.34 35.6656 1
      vertex -133.309 42.7564 100
      vertex -133.385 42.7274 100
    endloop
  endfacet
  facet normal 0.353461 -0.924201 0.144631
    outer loop
      vertex -133.309 42.7564 100
      vertex -111.34 35.6656 1
      vertex -103.75 38.5684 1
    endloop
  endfacet
  facet normal 0.435178 -0.885732 0.161549
    outer loop
      vertex -126.235 29.1749 1
      vertex -151.229 34.9515 100
      vertex -159.893 30.6947 100
    endloop
  endfacet
  facet normal 0.239426 -0.962592 0.126853
    outer loop
      vertex -80.5037 45.875 1
      vertex -86.9968 57.3065 100
      vertex -87.0756 57.2869 100
    endloop
  endfacet
  facet normal 0.239295 -0.962625 0.126849
    outer loop
      vertex -86.9968 57.3065 100
      vertex -80.5037 45.875 1
      vertex -72.6183 47.8352 1
    endloop
  endfacet
  facet normal 0.180544 -0.976206 0.120105
    outer loop
      vertex -64.6772 49.5546 1
      vertex -67.9106 61.1368 100
      vertex -77.4832 59.3664 100
    endloop
  endfacet
  facet normal 0.180544 -0.976206 0.120105
    outer loop
      vertex -67.9106 61.1368 100
      vertex -64.6772 49.5546 1
      vertex -56.6867 51.0324 1
    endloop
  endfacet
  facet normal 0.151558 -0.981457 0.117355
    outer loop
      vertex -56.6867 51.0324 1
      vertex -67.8303 61.1492 100
      vertex -67.9106 61.1368 100
    endloop
  endfacet
  facet normal 0.150709 -0.981597 0.117273
    outer loop
      vertex -67.8303 61.1492 100
      vertex -56.6867 51.0324 1
      vertex -48.6566 52.2653 1
    endloop
  endfacet
  facet normal 0.000236857 -0.994059 0.108843
    outer loop
      vertex -16.2694 54.7432 1
      vertex -9.83791 65.5846 100
      vertex -19.4907 65.5823 100
    endloop
  endfacet
  facet normal 0.0606805 -0.991958 0.111071
    outer loop
      vertex -32.5012 53.9975 1
      vertex -29.2196 65.2834 100
      vertex -38.9364 64.689 100
    endloop
  endfacet
  facet normal 0.0606728 -0.991959 0.111071
    outer loop
      vertex -29.2196 65.2834 100
      vertex -32.5012 53.9975 1
      vertex -24.3903 54.4936 1
    endloop
  endfacet
  facet normal 0.0305354 -0.993488 0.109766
    outer loop
      vertex -16.2694 54.7432 1
      vertex -19.5719 65.5798 100
      vertex -24.3903 54.4936 1
    endloop
  endfacet
  facet normal 0.0305876 -0.993486 0.109768
    outer loop
      vertex -19.5719 65.5798 100
      vertex -16.2694 54.7432 1
      vertex -19.4907 65.5823 100
    endloop
  endfacet
  facet normal 0.0305876 0.993486 0.109768
    outer loop
      vertex -16.2694 -54.7432 1
      vertex -19.5719 -65.5798 100
      vertex -19.4907 -65.5823 100
    endloop
  endfacet
  facet normal 0.0305354 0.993488 0.109766
    outer loop
      vertex -19.5719 -65.5798 100
      vertex -16.2694 -54.7432 1
      vertex -24.3903 -54.4936 1
    endloop
  endfacet
  facet normal 0.0305223 0.993489 0.109767
    outer loop
      vertex -19.5719 -65.5798 100
      vertex -24.3903 -54.4936 1
      vertex -29.2196 -65.2834 100
    endloop
  endfacet
  facet normal -0.0299369 0.993666 0.108309
    outer loop
      vertex -8.14412 -54.7451 1
      vertex -9.68021 -65.5823 100
      vertex -0.5 -54.5148 1
    endloop
  endfacet
  facet normal -0.0298984 0.993668 0.10831
    outer loop
      vertex -9.68021 -65.5823 100
      vertex -8.14412 -54.7451 1
      vertex -9.75665 -65.5846 100
    endloop
  endfacet
  facet normal 0 0.994059 0.108839
    outer loop
      vertex -8.14412 -54.7451 1
      vertex -9.83791 -65.5846 100
      vertex -9.75665 -65.5846 100
    endloop
  endfacet
  facet normal 0.000232449 0.994059 0.108843
    outer loop
      vertex -9.83791 -65.5846 100
      vertex -8.14412 -54.7451 1
      vertex -16.2694 -54.7432 1
    endloop
  endfacet
  facet normal 0.0909617 0.989449 0.112768
    outer loop
      vertex -40.5909 -53.2538 1
      vertex -48.547 -63.8055 100
      vertex -32.5012 -53.9975 1
    endloop
  endfacet
  facet normal 0.09051 0.989494 0.112737
    outer loop
      vertex -48.547 -63.8055 100
      vertex -40.5909 -53.2538 1
      vertex -48.6279 -63.7981 100
    endloop
  endfacet
  facet normal 0.584029 0.785829 0.203427
    outer loop
      vertex -174.162 0 1
      vertex -201.473 -5.33055 100
      vertex -168.175 -4.44954 1
    endloop
  endfacet
  facet normal 0.583999 0.785853 0.203421
    outer loop
      vertex -201.473 -5.33055 100
      vertex -174.162 0 1
      vertex -208.646 0 100
    endloop
  endfacet
  facet normal 0.560742 0.804515 0.195767
    outer loop
      vertex -193.487 -10.8972 100
      vertex -161.508 -9.09619 1
      vertex -201.407 -5.37701 100
    endloop
  endfacet
  facet normal 0.487194 0.855703 0.174399
    outer loop
      vertex -168.568 -26.1036 100
      vertex -140.707 -21.7893 1
      vertex -176.956 -21.3279 100
    endloop
  endfacet
  facet normal 0.461367 0.871197 0.167799
    outer loop
      vertex -159.966 -30.6589 100
      vertex -133.528 -25.5917 1
      vertex -168.496 -26.1416 100
    endloop
  endfacet
  facet normal 0.461418 0.871166 0.167817
    outer loop
      vertex -140.707 -21.7893 1
      vertex -168.496 -26.1416 100
      vertex -133.528 -25.5917 1
    endloop
  endfacet
  facet normal 0.460164 0.871891 0.167497
    outer loop
      vertex -168.496 -26.1416 100
      vertex -140.707 -21.7893 1
      vertex -168.568 -26.1036 100
    endloop
  endfacet
  facet normal 0.435178 0.885732 0.161549
    outer loop
      vertex -151.229 -34.9515 100
      vertex -126.235 -29.1749 1
      vertex -159.893 -30.6947 100
    endloop
  endfacet
  facet normal 0.297047 0.945265 0.135045
    outer loop
      vertex -105.891 -52.2995 100
      vertex -96.0764 -41.2401 1
      vertex -115.1 -49.4056 100
    endloop
  endfacet
  facet normal 0.487194 -0.855703 0.174399
    outer loop
      vertex -140.707 21.7893 1
      vertex -168.568 26.1036 100
      vertex -176.956 21.3279 100
    endloop
  endfacet
  facet normal 0.295822 -0.94566 0.134968
    outer loop
      vertex -96.0764 41.2401 1
      vertex -105.813 52.3239 100
      vertex -105.891 52.2995 100
    endloop
  endfacet
  facet normal 0.297052 -0.945264 0.135044
    outer loop
      vertex -105.813 52.3239 100
      vertex -96.0764 41.2401 1
      vertex -88.325 43.676 1
    endloop
  endfacet
  facet normal 0.408397 -0.899446 0.155588
    outer loop
      vertex -126.235 29.1749 1
      vertex -151.155 34.9851 100
      vertex -151.229 34.9515 100
    endloop
  endfacet
  facet normal 0.408323 -0.899483 0.155572
    outer loop
      vertex -151.155 34.9851 100
      vertex -126.235 29.1749 1
      vertex -118.836 32.5337 1
    endloop
  endfacet
  facet normal 0.210005 -0.969896 0.12329
    outer loop
      vertex -72.6183 47.8352 1
      vertex -77.5627 59.3492 100
      vertex -86.9968 57.3065 100
    endloop
  endfacet
  facet normal 0.121106 -0.985973 0.11485
    outer loop
      vertex -48.6566 52.2653 1
      vertex -58.21 62.6238 100
      vertex -58.2906 62.6139 100
    endloop
  endfacet
  facet normal 0.120841 -0.986008 0.114828
    outer loop
      vertex -58.21 62.6238 100
      vertex -48.6566 52.2653 1
      vertex -40.5909 53.2538 1
    endloop
  endfacet
  facet normal 0.120837 -0.986009 0.114828
    outer loop
      vertex -40.5909 53.2538 1
      vertex -48.6279 63.7981 100
      vertex -58.21 62.6238 100
    endloop
  endfacet
  facet normal 0.120841 0.986008 0.114828
    outer loop
      vertex -48.6566 -52.2653 1
      vertex -58.21 -62.6238 100
      vertex -40.5909 -53.2538 1
    endloop
  endfacet
  facet normal 0.121106 0.985973 0.11485
    outer loop
      vertex -58.21 -62.6238 100
      vertex -48.6566 -52.2653 1
      vertex -58.2906 -62.6139 100
    endloop
  endfacet
  facet normal 0.536843 0.822385 0.188367
    outer loop
      vertex -161.508 -9.09619 1
      vertex -185.336 -16.2175 100
      vertex -154.705 -13.5371 1
    endloop
  endfacet
  facet normal 0.53693 0.822325 0.188384
    outer loop
      vertex -185.336 -16.2175 100
      vertex -161.508 -9.09619 1
      vertex -185.404 -16.1731 100
    endloop
  endfacet
  facet normal 0.536802 0.822414 0.188359
    outer loop
      vertex -185.404 -16.1731 100
      vertex -161.508 -9.09619 1
      vertex -193.487 -10.8972 100
    endloop
  endfacet
  facet normal 0.512246 0.839501 0.181222
    outer loop
      vertex -154.705 -13.5371 1
      vertex -185.267 -16.2598 100
      vertex -147.769 -17.7693 1
    endloop
  endfacet
  facet normal 0.513947 0.838354 0.181716
    outer loop
      vertex -185.267 -16.2598 100
      vertex -154.705 -13.5371 1
      vertex -185.336 -16.2175 100
    endloop
  endfacet
  facet normal 0.408365 0.899462 0.155585
    outer loop
      vertex -142.366 -38.9754 100
      vertex -118.836 -32.5337 1
      vertex -151.155 -34.9851 100
    endloop
  endfacet
  facet normal 0.408323 0.899483 0.155572
    outer loop
      vertex -126.235 -29.1749 1
      vertex -151.155 -34.9851 100
      vertex -118.836 -32.5337 1
    endloop
  endfacet
  facet normal 0.408397 0.899446 0.155588
    outer loop
      vertex -151.155 -34.9851 100
      vertex -126.235 -29.1749 1
      vertex -151.229 -34.9515 100
    endloop
  endfacet
  facet normal 0.512248 -0.8395 0.181223
    outer loop
      vertex -147.769 17.7693 1
      vertex -177.027 21.2877 100
      vertex -185.267 16.2598 100
    endloop
  endfacet
  facet normal 0.485201 -0.856946 0.173849
    outer loop
      vertex -147.769 17.7693 1
      vertex -176.956 21.3279 100
      vertex -177.027 21.2877 100
    endloop
  endfacet
  facet normal 0.487128 -0.855745 0.174374
    outer loop
      vertex -176.956 21.3279 100
      vertex -147.769 17.7693 1
      vertex -140.707 21.7893 1
    endloop
  endfacet
  facet normal 0.325585 -0.935137 0.139693
    outer loop
      vertex -96.0764 41.2401 1
      vertex -115.1 49.4056 100
      vertex -124.216 46.2317 100
    endloop
  endfacet
  facet normal 0.353499 -0.924185 0.144642
    outer loop
      vertex -103.75 38.5684 1
      vertex -124.293 46.205 100
      vertex -133.309 42.7564 100
    endloop
  endfacet
  facet normal 0.381128 -0.912282 0.149945
    outer loop
      vertex -118.836 32.5337 1
      vertex -133.46 42.6961 100
      vertex -142.366 38.9754 100
    endloop
  endfacet
  facet normal 0.380787 -0.91243 0.14991
    outer loop
      vertex -118.836 32.5337 1
      vertex -133.385 42.7274 100
      vertex -133.46 42.6961 100
    endloop
  endfacet
  facet normal 0.381155 -0.91227 0.149948
    outer loop
      vertex -133.385 42.7274 100
      vertex -118.836 32.5337 1
      vertex -111.34 35.6656 1
    endloop
  endfacet
  facet normal 0.209847 -0.96993 0.123286
    outer loop
      vertex -72.6183 47.8352 1
      vertex -77.4832 59.3664 100
      vertex -77.5627 59.3492 100
    endloop
  endfacet
  facet normal 0.210001 -0.969896 0.12329
    outer loop
      vertex -77.4832 59.3664 100
      vertex -72.6183 47.8352 1
      vertex -64.6772 49.5546 1
    endloop
  endfacet
  facet normal 0 0 1
    outer loop
      vertex -8.14412 54.7451 1
      vertex -0.5 -54.5148 1
      vertex -0.5 54.5148 1
    endloop
  endfacet
  facet normal 0 0 1
    outer loop
      vertex -8.14412 54.7451 1
      vertex -8.14412 -54.7451 1
      vertex -0.5 -54.5148 1
    endloop
  endfacet
  facet normal -0 0 1
    outer loop
      vertex -16.2694 54.7432 1
      vertex -8.14412 -54.7451 1
      vertex -8.14412 54.7451 1
    endloop
  endfacet
  facet normal 0 0 1
    outer loop
      vertex -16.2694 54.7432 1
      vertex -16.2694 -54.7432 1
      vertex -8.14412 -54.7451 1
    endloop
  endfacet
  facet normal -0 0 1
    outer loop
      vertex -24.3903 54.4936 1
      vertex -16.2694 -54.7432 1
      vertex -16.2694 54.7432 1
    endloop
  endfacet
  facet normal 0 0 1
    outer loop
      vertex -24.3903 54.4936 1
      vertex -24.3903 -54.4936 1
      vertex -16.2694 -54.7432 1
    endloop
  endfacet
  facet normal -0 0 1
    outer loop
      vertex -32.5012 53.9975 1
      vertex -24.3903 -54.4936 1
      vertex -24.3903 54.4936 1
    endloop
  endfacet
  facet normal 0 0 1
    outer loop
      vertex -32.5012 53.9975 1
      vertex -32.5012 -53.9975 1
      vertex -24.3903 -54.4936 1
    endloop
  endfacet
  facet normal -0 0 1
    outer loop
      vertex -40.5909 53.2538 1
      vertex -32.5012 -53.9975 1
      vertex -32.5012 53.9975 1
    endloop
  endfacet
  facet normal 0 0 1
    outer loop
      vertex -40.5909 53.2538 1
      vertex -40.5909 -53.2538 1
      vertex -32.5012 -53.9975 1
    endloop
  endfacet
  facet normal -0 0 1
    outer loop
      vertex -48.6566 52.2653 1
      vertex -40.5909 -53.2538 1
      vertex -40.5909 53.2538 1
    endloop
  endfacet
  facet normal 0 0 1
    outer loop
      vertex -48.6566 52.2653 1
      vertex -48.6566 -52.2653 1
      vertex -40.5909 -53.2538 1
    endloop
  endfacet
  facet normal -0 0 1
    outer loop
      vertex -56.6867 51.0324 1
      vertex -48.6566 -52.2653 1
      vertex -48.6566 52.2653 1
    endloop
  endfacet
  facet normal 0 0 1
    outer loop
      vertex -56.6867 51.0324 1
      vertex -56.6867 -51.0324 1
      vertex -48.6566 -52.2653 1
    endloop
  endfacet
  facet normal -0 0 1
    outer loop
      vertex -64.6772 49.5546 1
      vertex -56.6867 -51.0324 1
      vertex -56.6867 51.0324 1
    endloop
  endfacet
  facet normal 0 0 1
    outer loop
      vertex -64.6772 49.5546 1
      vertex -64.6772 -49.5546 1
      vertex -56.6867 -51.0324 1
    endloop
  endfacet
  facet normal -0 0 1
    outer loop
      vertex -72.6183 47.8352 1
      vertex -64.6772 -49.5546 1
      vertex -64.6772 49.5546 1
    endloop
  endfacet
  facet normal 0 0 1
    outer loop
      vertex -72.6183 47.8352 1
      vertex -72.6183 -47.8352 1
      vertex -64.6772 -49.5546 1
    endloop
  endfacet
  facet normal -0 0 1
    outer loop
      vertex -80.5037 45.875 1
      vertex -72.6183 -47.8352 1
      vertex -72.6183 47.8352 1
    endloop
  endfacet
  facet normal 0 0 1
    outer loop
      vertex -80.5037 45.875 1
      vertex -80.5037 -45.875 1
      vertex -72.6183 -47.8352 1
    endloop
  endfacet
  facet normal -0 0 1
    outer loop
      vertex -88.325 43.676 1
      vertex -80.5037 -45.875 1
      vertex -80.5037 45.875 1
    endloop
  endfacet
  facet normal 0 0 1
    outer loop
      vertex -88.325 43.676 1
      vertex -88.325 -43.676 1
      vertex -80.5037 -45.875 1
    endloop
  endfacet
  facet normal -0 0 1
    outer loop
      vertex -96.0764 41.2401 1
      vertex -88.325 -43.676 1
      vertex -88.325 43.676 1
    endloop
  endfacet
  facet normal 0 0 1
    outer loop
      vertex -96.0764 41.2401 1
      vertex -96.0764 -41.2401 1
      vertex -88.325 -43.676 1
    endloop
  endfacet
  facet normal -0 0 1
    outer loop
      vertex -103.75 38.5684 1
      vertex -96.0764 -41.2401 1
      vertex -96.0764 41.2401 1
    endloop
  endfacet
  facet normal 0 0 1
    outer loop
      vertex -103.75 38.5684 1
      vertex -103.75 -38.5684 1
      vertex -96.0764 -41.2401 1
    endloop
  endfacet
  facet normal -0 0 1
    outer loop
      vertex -111.34 35.6656 1
      vertex -103.75 -38.5684 1
      vertex -103.75 38.5684 1
    endloop
  endfacet
  facet normal 0 0 1
    outer loop
      vertex -111.34 35.6656 1
      vertex -111.34 -35.6656 1
      vertex -103.75 -38.5684 1
    endloop
  endfacet
  facet normal -0 0 1
    outer loop
      vertex -118.836 32.5337 1
      vertex -111.34 -35.6656 1
      vertex -111.34 35.6656 1
    endloop
  endfacet
  facet normal 0 0 1
    outer loop
      vertex -118.836 32.5337 1
      vertex -118.836 -32.5337 1
      vertex -111.34 -35.6656 1
    endloop
  endfacet
  facet normal -0 0 1
    outer loop
      vertex -126.235 29.1749 1
      vertex -118.836 -32.5337 1
      vertex -118.836 32.5337 1
    endloop
  endfacet
  facet normal 0 0 1
    outer loop
      vertex -126.235 29.1749 1
      vertex -126.235 -29.1749 1
      vertex -118.836 -32.5337 1
    endloop
  endfacet
  facet normal -0 0 1
    outer loop
      vertex -133.528 25.5917 1
      vertex -126.235 -29.1749 1
      vertex -126.235 29.1749 1
    endloop
  endfacet
  facet normal 0 0 1
    outer loop
      vertex -133.528 25.5917 1
      vertex -133.528 -25.5917 1
      vertex -126.235 -29.1749 1
    endloop
  endfacet
  facet normal -0 0 1
    outer loop
      vertex -140.707 21.7893 1
      vertex -133.528 -25.5917 1
      vertex -133.528 25.5917 1
    endloop
  endfacet
  facet normal 0 0 1
    outer loop
      vertex -140.707 21.7893 1
      vertex -140.707 -21.7893 1
      vertex -133.528 -25.5917 1
    endloop
  endfacet
  facet normal -0 0 1
    outer loop
      vertex -147.769 17.7693 1
      vertex -140.707 -21.7893 1
      vertex -140.707 21.7893 1
    endloop
  endfacet
  facet normal 0 0 1
    outer loop
      vertex -147.769 17.7693 1
      vertex -147.769 -17.7693 1
      vertex -140.707 -21.7893 1
    endloop
  endfacet
  facet normal -0 0 1
    outer loop
      vertex -154.705 13.5371 1
      vertex -147.769 -17.7693 1
      vertex -147.769 17.7693 1
    endloop
  endfacet
  facet normal 0 0 1
    outer loop
      vertex -154.705 13.5371 1
      vertex -154.705 -13.5371 1
      vertex -147.769 -17.7693 1
    endloop
  endfacet
  facet normal -0 0 1
    outer loop
      vertex -161.508 9.09619 1
      vertex -154.705 -13.5371 1
      vertex -154.705 13.5371 1
    endloop
  endfacet
  facet normal 0 0 1
    outer loop
      vertex -161.508 9.09619 1
      vertex -161.508 -9.09619 1
      vertex -154.705 -13.5371 1
    endloop
  endfacet
  facet normal -0 0 1
    outer loop
      vertex -168.175 4.44954 1
      vertex -161.508 -9.09619 1
      vertex -161.508 9.09619 1
    endloop
  endfacet
  facet normal 0 0 1
    outer loop
      vertex -168.175 4.44954 1
      vertex -168.175 -4.44954 1
      vertex -161.508 -9.09619 1
    endloop
  endfacet
  facet normal 0 -0 1
    outer loop
      vertex -168.175 -4.44954 1
      vertex -168.175 4.44954 1
      vertex -174.162 0 1
    endloop
  endfacet
  facet normal 0.560726 0.804528 0.19576
    outer loop
      vertex -168.175 -4.44954 1
      vertex -201.407 -5.37701 100
      vertex -161.508 -9.09619 1
    endloop
  endfacet
  facet normal 0.564348 0.8017 0.196949
    outer loop
      vertex -201.407 -5.37701 100
      vertex -168.175 -4.44954 1
      vertex -201.473 -5.33055 100
    endloop
  endfacet
  facet normal 0.512248 0.8395 0.181223
    outer loop
      vertex -177.027 -21.2877 100
      vertex -147.769 -17.7693 1
      vertex -185.267 -16.2598 100
    endloop
  endfacet
  facet normal 0.487128 0.855745 0.174374
    outer loop
      vertex -147.769 -17.7693 1
      vertex -176.956 -21.3279 100
      vertex -140.707 -21.7893 1
    endloop
  endfacet
  facet normal 0.485201 0.856946 0.173849
    outer loop
      vertex -176.956 -21.3279 100
      vertex -147.769 -17.7693 1
      vertex -177.027 -21.2877 100
    endloop
  endfacet
  facet normal 0.381155 0.91227 0.149948
    outer loop
      vertex -118.836 -32.5337 1
      vertex -133.385 -42.7274 100
      vertex -111.34 -35.6656 1
    endloop
  endfacet
  facet normal 0.380787 0.91243 0.14991
    outer loop
      vertex -133.385 -42.7274 100
      vertex -118.836 -32.5337 1
      vertex -133.46 -42.6961 100
    endloop
  endfacet
  facet normal 0.297052 0.945264 0.135044
    outer loop
      vertex -96.0764 -41.2401 1
      vertex -105.813 -52.3239 100
      vertex -88.325 -43.676 1
    endloop
  endfacet
  facet normal 0.295822 0.94566 0.134968
    outer loop
      vertex -105.813 -52.3239 100
      vertex -96.0764 -41.2401 1
      vertex -105.891 -52.2995 100
    endloop
  endfacet
  facet normal 0.353499 0.924185 0.144642
    outer loop
      vertex -124.293 -46.205 100
      vertex -103.75 -38.5684 1
      vertex -133.309 -42.7564 100
    endloop
  endfacet
  facet normal 0.324414 -0.935575 0.139485
    outer loop
      vertex -103.75 38.5684 1
      vertex -124.216 46.2317 100
      vertex -124.293 46.205 100
    endloop
  endfacet
  facet normal 0.325584 -0.935137 0.139693
    outer loop
      vertex -124.216 46.2317 100
      vertex -103.75 38.5684 1
      vertex -96.0764 41.2401 1
    endloop
  endfacet
  facet normal 0.325585 0.935137 0.139693
    outer loop
      vertex -115.1 -49.4056 100
      vertex -96.0764 -41.2401 1
      vertex -124.216 -46.2317 100
    endloop
  endfacet
  facet normal 0.325584 0.935137 0.139693
    outer loop
      vertex -103.75 -38.5684 1
      vertex -124.216 -46.2317 100
      vertex -96.0764 -41.2401 1
    endloop
  endfacet
  facet normal 0.324414 0.935575 0.139485
    outer loop
      vertex -124.216 -46.2317 100
      vertex -103.75 -38.5684 1
      vertex -124.293 -46.205 100
    endloop
  endfacet
endsolid OpenSCAD_Model
