solid OpenSCAD_Model
  facet normal -1 0 0
    outer loop
      vertex -50 -0.424999 -0.25
      vertex -50 0.424999 0
      vertex -50 0.424999 -0.25
    endloop
  endfacet
  facet normal -1 -0 0
    outer loop
      vertex -50 0.424999 0
      vertex -50 -0.424999 -0.25
      vertex -50 -0.424999 0
    endloop
  endfacet
  facet normal -0 0 1
    outer loop
      vertex -49 0.424999 0.25
      vertex -46 -0.424999 0.25
      vertex -46 0.424999 0.25
    endloop
  endfacet
  facet normal 0 0 1
    outer loop
      vertex -46 -0.424999 0.25
      vertex -49 0.424999 0.25
      vertex -49 -0.424999 0.25
    endloop
  endfacet
  facet normal -0 0 1
    outer loop
      vertex -44 0.424999 0.25
      vertex -36 -0.424999 0.25
      vertex -36 0.424999 0.25
    endloop
  endfacet
  facet normal 0 0 1
    outer loop
      vertex -36 -0.424999 0.25
      vertex -44 0.424999 0.25
      vertex -44 -0.424999 0.25
    endloop
  endfacet
  facet normal -0 0 1
    outer loop
      vertex -34 0.424999 0.25
      vertex -21 -0.424999 0.25
      vertex -21 0.424999 0.25
    endloop
  endfacet
  facet normal 0 0 1
    outer loop
      vertex -21 -0.424999 0.25
      vertex -34 0.424999 0.25
      vertex -34 -0.424999 0.25
    endloop
  endfacet
  facet normal -0 0 1
    outer loop
      vertex -19 0.424999 0.25
      vertex 4 -0.424999 0.25
      vertex 4 0.424999 0.25
    endloop
  endfacet
  facet normal 0 0 1
    outer loop
      vertex 4 -0.424999 0.25
      vertex -19 0.424999 0.25
      vertex -19 -0.424999 0.25
    endloop
  endfacet
  facet normal -0 0 1
    outer loop
      vertex 6 0.424999 0.25
      vertex 34 -0.424999 0.25
      vertex 34 0.424999 0.25
    endloop
  endfacet
  facet normal 0 0 1
    outer loop
      vertex 34 -0.424999 0.25
      vertex 6 0.424999 0.25
      vertex 6 -0.424999 0.25
    endloop
  endfacet
  facet normal -0 0 1
    outer loop
      vertex 36 0.424999 0.25
      vertex 49 -0.424999 0.25
      vertex 49 0.424999 0.25
    endloop
  endfacet
  facet normal 0 0 1
    outer loop
      vertex 49 -0.424999 0.25
      vertex 36 0.424999 0.25
      vertex 36 -0.424999 0.25
    endloop
  endfacet
  facet normal 1 -0 0
    outer loop
      vertex 50 -0.424999 0
      vertex 50 0.424999 -0.25
      vertex 50 0.424999 0
    endloop
  endfacet
  facet normal 1 0 0
    outer loop
      vertex 50 0.424999 -0.25
      vertex 50 -0.424999 0
      vertex 50 -0.424999 -0.25
    endloop
  endfacet
  facet normal 0 0 -1
    outer loop
      vertex -50 -0.424999 -0.25
      vertex 50 0.424999 -0.25
      vertex 50 -0.424999 -0.25
    endloop
  endfacet
  facet normal -0 0 -1
    outer loop
      vertex 50 0.424999 -0.25
      vertex -50 -0.424999 -0.25
      vertex -50 0.424999 -0.25
    endloop
  endfacet
  facet normal 0 -1 0
    outer loop
      vertex 50 -0.424999 -0.25
      vertex 6 -0.424999 0.25
      vertex -50 -0.424999 -0.25
    endloop
  endfacet
  facet normal 0 -1 0
    outer loop
      vertex 6 -0.424999 0.25
      vertex 50 -0.424999 -0.25
      vertex 50 -0.424999 0
    endloop
  endfacet
  facet normal 0 -1 0
    outer loop
      vertex 34 -0.424999 0.25
      vertex 36 -0.424999 2.725
      vertex 34 -0.424999 2.725
    endloop
  endfacet
  facet normal 0 -1 -0
    outer loop
      vertex 36 -0.424999 2.725
      vertex 34 -0.424999 0.25
      vertex 36 -0.424999 0.25
    endloop
  endfacet
  facet normal 0 -1 0
    outer loop
      vertex 4 -0.424999 0.25
      vertex 6 -0.424999 2.725
      vertex 4 -0.424999 2.725
    endloop
  endfacet
  facet normal 0 -1 -0
    outer loop
      vertex 6 -0.424999 2.725
      vertex 4 -0.424999 0.25
      vertex 6 -0.424999 0.25
    endloop
  endfacet
  facet normal 0 -1 0
    outer loop
      vertex -21 -0.424999 0.25
      vertex -19 -0.424999 2.725
      vertex -21 -0.424999 2.725
    endloop
  endfacet
  facet normal 0 -1 -0
    outer loop
      vertex -19 -0.424999 2.725
      vertex -21 -0.424999 0.25
      vertex -19 -0.424999 0.25
    endloop
  endfacet
  facet normal 0 -1 0
    outer loop
      vertex -36 -0.424999 0.25
      vertex -34 -0.424999 2.725
      vertex -36 -0.424999 2.725
    endloop
  endfacet
  facet normal 0 -1 -0
    outer loop
      vertex -34 -0.424999 2.725
      vertex -36 -0.424999 0.25
      vertex -34 -0.424999 0.25
    endloop
  endfacet
  facet normal 0 -1 0
    outer loop
      vertex -46 -0.424999 0.25
      vertex -44 -0.424999 2.725
      vertex -46 -0.424999 2.725
    endloop
  endfacet
  facet normal 0 -1 -0
    outer loop
      vertex -44 -0.424999 2.725
      vertex -46 -0.424999 0.25
      vertex -44 -0.424999 0.25
    endloop
  endfacet
  facet normal 0 -1 0
    outer loop
      vertex -50 -0.424999 0
      vertex -50 -0.424999 3
      vertex -51 -0.424999 3
    endloop
  endfacet
  facet normal 0 -1 0
    outer loop
      vertex -50 -0.424999 3
      vertex -21 -0.424999 2.725
      vertex 50 -0.424999 3
    endloop
  endfacet
  facet normal 0 -1 0
    outer loop
      vertex -50 -0.424999 3
      vertex -49 -0.424999 2.725
      vertex -46 -0.424999 2.725
    endloop
  endfacet
  facet normal 0 -1 0
    outer loop
      vertex -50 -0.424999 3
      vertex -50 -0.424999 0
      vertex -49 -0.424999 2.725
    endloop
  endfacet
  facet normal 0 -1 0
    outer loop
      vertex -50 -0.424999 -0.25
      vertex -49 -0.424999 0.25
      vertex -50 -0.424999 0
    endloop
  endfacet
  facet normal 0 -1 -0
    outer loop
      vertex -49 -0.424999 0.25
      vertex -50 -0.424999 -0.25
      vertex -46 -0.424999 0.25
    endloop
  endfacet
  facet normal 0 -1 -0
    outer loop
      vertex -46 -0.424999 0.25
      vertex -50 -0.424999 -0.25
      vertex -44 -0.424999 0.25
    endloop
  endfacet
  facet normal 0 -1 -0
    outer loop
      vertex -44 -0.424999 0.25
      vertex -50 -0.424999 -0.25
      vertex -36 -0.424999 0.25
    endloop
  endfacet
  facet normal 0 -1 -0
    outer loop
      vertex -36 -0.424999 0.25
      vertex -50 -0.424999 -0.25
      vertex -34 -0.424999 0.25
    endloop
  endfacet
  facet normal 0 -1 -0
    outer loop
      vertex -34 -0.424999 0.25
      vertex -50 -0.424999 -0.25
      vertex -21 -0.424999 0.25
    endloop
  endfacet
  facet normal 0 -1 -0
    outer loop
      vertex -21 -0.424999 0.25
      vertex -50 -0.424999 -0.25
      vertex -19 -0.424999 0.25
    endloop
  endfacet
  facet normal 0 -1 -0
    outer loop
      vertex -19 -0.424999 0.25
      vertex -50 -0.424999 -0.25
      vertex 4 -0.424999 0.25
    endloop
  endfacet
  facet normal 0 -1 -0
    outer loop
      vertex 4 -0.424999 0.25
      vertex -50 -0.424999 -0.25
      vertex 6 -0.424999 0.25
    endloop
  endfacet
  facet normal 0 -1 0
    outer loop
      vertex 6 -0.424999 0.25
      vertex 50 -0.424999 0
      vertex 34 -0.424999 0.25
    endloop
  endfacet
  facet normal 0 -1 -0
    outer loop
      vertex -49 -0.424999 2.725
      vertex -50 -0.424999 0
      vertex -49 -0.424999 0.25
    endloop
  endfacet
  facet normal 0 -1 0
    outer loop
      vertex -50 -0.424999 0
      vertex -51 -0.424999 3
      vertex -51 -0.424999 0
    endloop
  endfacet
  facet normal 0 -1 0
    outer loop
      vertex -50 -0.424999 3
      vertex 50 -0.424999 3.275
      vertex -50 -0.424999 3.275
    endloop
  endfacet
  facet normal 0 -1 -0
    outer loop
      vertex 50 -0.424999 3.275
      vertex -50 -0.424999 3
      vertex 50 -0.424999 3
    endloop
  endfacet
  facet normal 0 -1 0
    outer loop
      vertex -50 -0.424999 3
      vertex -46 -0.424999 2.725
      vertex -44 -0.424999 2.725
    endloop
  endfacet
  facet normal 0 -1 0
    outer loop
      vertex -50 -0.424999 3
      vertex -44 -0.424999 2.725
      vertex -36 -0.424999 2.725
    endloop
  endfacet
  facet normal 0 -1 0
    outer loop
      vertex -50 -0.424999 3
      vertex -36 -0.424999 2.725
      vertex -34 -0.424999 2.725
    endloop
  endfacet
  facet normal 0 -1 0
    outer loop
      vertex -50 -0.424999 3
      vertex -34 -0.424999 2.725
      vertex -21 -0.424999 2.725
    endloop
  endfacet
  facet normal 0 -1 0
    outer loop
      vertex -19 -0.424999 2.725
      vertex 50 -0.424999 3
      vertex -21 -0.424999 2.725
    endloop
  endfacet
  facet normal 0 -1 0
    outer loop
      vertex 4 -0.424999 2.725
      vertex 50 -0.424999 3
      vertex -19 -0.424999 2.725
    endloop
  endfacet
  facet normal 0 -1 0
    outer loop
      vertex 6 -0.424999 2.725
      vertex 50 -0.424999 3
      vertex 4 -0.424999 2.725
    endloop
  endfacet
  facet normal 0 -1 0
    outer loop
      vertex 34 -0.424999 2.725
      vertex 50 -0.424999 3
      vertex 6 -0.424999 2.725
    endloop
  endfacet
  facet normal 0 -1 0
    outer loop
      vertex 36 -0.424999 2.725
      vertex 50 -0.424999 3
      vertex 34 -0.424999 2.725
    endloop
  endfacet
  facet normal 0 -1 0
    outer loop
      vertex 49 -0.424999 2.725
      vertex 50 -0.424999 3
      vertex 36 -0.424999 2.725
    endloop
  endfacet
  facet normal 0 -1 0
    outer loop
      vertex 50 -0.424999 0
      vertex 50 -0.424999 3
      vertex 49 -0.424999 2.725
    endloop
  endfacet
  facet normal 0 -1 0
    outer loop
      vertex 50 -0.424999 0
      vertex 49 -0.424999 2.725
      vertex 49 -0.424999 0.25
    endloop
  endfacet
  facet normal 0 -1 0
    outer loop
      vertex 34 -0.424999 0.25
      vertex 50 -0.424999 0
      vertex 36 -0.424999 0.25
    endloop
  endfacet
  facet normal 0 -1 0
    outer loop
      vertex 36 -0.424999 0.25
      vertex 50 -0.424999 0
      vertex 49 -0.424999 0.25
    endloop
  endfacet
  facet normal 0 -1 0
    outer loop
      vertex 50 -0.424999 3
      vertex 50 -0.424999 0
      vertex 51 -0.424999 3
    endloop
  endfacet
  facet normal 0 -1 -0
    outer loop
      vertex 51 -0.424999 3
      vertex 50 -0.424999 0
      vertex 51 -0.424999 0
    endloop
  endfacet
  facet normal 0 1 0
    outer loop
      vertex -50 0.424999 -0.25
      vertex -21 0.424999 0.25
      vertex 50 0.424999 -0.25
    endloop
  endfacet
  facet normal 0 1 0
    outer loop
      vertex -21 0.424999 0.25
      vertex -50 0.424999 -0.25
      vertex -50 0.424999 0
    endloop
  endfacet
  facet normal 0 1 -0
    outer loop
      vertex -44 0.424999 0.25
      vertex -46 0.424999 2.725
      vertex -44 0.424999 2.725
    endloop
  endfacet
  facet normal 0 1 0
    outer loop
      vertex -46 0.424999 2.725
      vertex -44 0.424999 0.25
      vertex -46 0.424999 0.25
    endloop
  endfacet
  facet normal 0 1 -0
    outer loop
      vertex -34 0.424999 0.25
      vertex -36 0.424999 2.725
      vertex -34 0.424999 2.725
    endloop
  endfacet
  facet normal 0 1 0
    outer loop
      vertex -36 0.424999 2.725
      vertex -34 0.424999 0.25
      vertex -36 0.424999 0.25
    endloop
  endfacet
  facet normal 0 1 -0
    outer loop
      vertex -19 0.424999 0.25
      vertex -21 0.424999 2.725
      vertex -19 0.424999 2.725
    endloop
  endfacet
  facet normal 0 1 0
    outer loop
      vertex -21 0.424999 2.725
      vertex -19 0.424999 0.25
      vertex -21 0.424999 0.25
    endloop
  endfacet
  facet normal 0 1 -0
    outer loop
      vertex 6 0.424999 0.25
      vertex 4 0.424999 2.725
      vertex 6 0.424999 2.725
    endloop
  endfacet
  facet normal 0 1 0
    outer loop
      vertex 4 0.424999 2.725
      vertex 6 0.424999 0.25
      vertex 4 0.424999 0.25
    endloop
  endfacet
  facet normal 0 1 -0
    outer loop
      vertex 36 0.424999 0.25
      vertex 34 0.424999 2.725
      vertex 36 0.424999 2.725
    endloop
  endfacet
  facet normal 0 1 0
    outer loop
      vertex 34 0.424999 2.725
      vertex 36 0.424999 0.25
      vertex 34 0.424999 0.25
    endloop
  endfacet
  facet normal 0 1 0
    outer loop
      vertex 50 0.424999 0
      vertex 50 0.424999 3
      vertex 51 0.424999 3
    endloop
  endfacet
  facet normal 0 1 0
    outer loop
      vertex 50 0.424999 3
      vertex 6 0.424999 2.725
      vertex -50 0.424999 3
    endloop
  endfacet
  facet normal 0 1 0
    outer loop
      vertex 50 0.424999 3
      vertex 49 0.424999 2.725
      vertex 36 0.424999 2.725
    endloop
  endfacet
  facet normal 0 1 0
    outer loop
      vertex 50 0.424999 3
      vertex 50 0.424999 0
      vertex 49 0.424999 2.725
    endloop
  endfacet
  facet normal 0 1 -0
    outer loop
      vertex 50 0.424999 -0.25
      vertex 49 0.424999 0.25
      vertex 50 0.424999 0
    endloop
  endfacet
  facet normal 0 1 0
    outer loop
      vertex 49 0.424999 0.25
      vertex 50 0.424999 -0.25
      vertex 36 0.424999 0.25
    endloop
  endfacet
  facet normal 0 1 0
    outer loop
      vertex 36 0.424999 0.25
      vertex 50 0.424999 -0.25
      vertex 34 0.424999 0.25
    endloop
  endfacet
  facet normal 0 1 0
    outer loop
      vertex 34 0.424999 0.25
      vertex 50 0.424999 -0.25
      vertex 6 0.424999 0.25
    endloop
  endfacet
  facet normal 0 1 0
    outer loop
      vertex 6 0.424999 0.25
      vertex 50 0.424999 -0.25
      vertex 4 0.424999 0.25
    endloop
  endfacet
  facet normal 0 1 0
    outer loop
      vertex 4 0.424999 0.25
      vertex 50 0.424999 -0.25
      vertex -19 0.424999 0.25
    endloop
  endfacet
  facet normal 0 1 0
    outer loop
      vertex -19 0.424999 0.25
      vertex 50 0.424999 -0.25
      vertex -21 0.424999 0.25
    endloop
  endfacet
  facet normal 0 1 0
    outer loop
      vertex -21 0.424999 0.25
      vertex -50 0.424999 0
      vertex -34 0.424999 0.25
    endloop
  endfacet
  facet normal 0 1 0
    outer loop
      vertex -34 0.424999 0.25
      vertex -50 0.424999 0
      vertex -36 0.424999 0.25
    endloop
  endfacet
  facet normal 0 1 0
    outer loop
      vertex -36 0.424999 0.25
      vertex -50 0.424999 0
      vertex -44 0.424999 0.25
    endloop
  endfacet
  facet normal 0 1 0
    outer loop
      vertex 49 0.424999 2.725
      vertex 50 0.424999 0
      vertex 49 0.424999 0.25
    endloop
  endfacet
  facet normal 0 1 0
    outer loop
      vertex 50 0.424999 0
      vertex 51 0.424999 3
      vertex 51 0.424999 0
    endloop
  endfacet
  facet normal 0 1 -0
    outer loop
      vertex 50 0.424999 3
      vertex -50 0.424999 3.275
      vertex 50 0.424999 3.275
    endloop
  endfacet
  facet normal 0 1 0
    outer loop
      vertex -50 0.424999 3.275
      vertex 50 0.424999 3
      vertex -50 0.424999 3
    endloop
  endfacet
  facet normal 0 1 0
    outer loop
      vertex 50 0.424999 3
      vertex 36 0.424999 2.725
      vertex 34 0.424999 2.725
    endloop
  endfacet
  facet normal 0 1 0
    outer loop
      vertex 50 0.424999 3
      vertex 34 0.424999 2.725
      vertex 6 0.424999 2.725
    endloop
  endfacet
  facet normal 0 1 -0
    outer loop
      vertex 4 0.424999 2.725
      vertex -50 0.424999 3
      vertex 6 0.424999 2.725
    endloop
  endfacet
  facet normal 0 1 -0
    outer loop
      vertex -19 0.424999 2.725
      vertex -50 0.424999 3
      vertex 4 0.424999 2.725
    endloop
  endfacet
  facet normal 0 1 -0
    outer loop
      vertex -21 0.424999 2.725
      vertex -50 0.424999 3
      vertex -19 0.424999 2.725
    endloop
  endfacet
  facet normal 0 1 -0
    outer loop
      vertex -34 0.424999 2.725
      vertex -50 0.424999 3
      vertex -21 0.424999 2.725
    endloop
  endfacet
  facet normal 0 1 -0
    outer loop
      vertex -36 0.424999 2.725
      vertex -50 0.424999 3
      vertex -34 0.424999 2.725
    endloop
  endfacet
  facet normal 0 1 -0
    outer loop
      vertex -44 0.424999 2.725
      vertex -50 0.424999 3
      vertex -36 0.424999 2.725
    endloop
  endfacet
  facet normal 0 1 -0
    outer loop
      vertex -46 0.424999 2.725
      vertex -50 0.424999 3
      vertex -44 0.424999 2.725
    endloop
  endfacet
  facet normal 0 1 -0
    outer loop
      vertex -49 0.424999 2.725
      vertex -50 0.424999 3
      vertex -46 0.424999 2.725
    endloop
  endfacet
  facet normal 0 1 0
    outer loop
      vertex -50 0.424999 0
      vertex -50 0.424999 3
      vertex -49 0.424999 2.725
    endloop
  endfacet
  facet normal 0 1 0
    outer loop
      vertex -50 0.424999 0
      vertex -49 0.424999 2.725
      vertex -49 0.424999 0.25
    endloop
  endfacet
  facet normal 0 1 0
    outer loop
      vertex -44 0.424999 0.25
      vertex -50 0.424999 0
      vertex -46 0.424999 0.25
    endloop
  endfacet
  facet normal 0 1 0
    outer loop
      vertex -46 0.424999 0.25
      vertex -50 0.424999 0
      vertex -49 0.424999 0.25
    endloop
  endfacet
  facet normal 0 1 0
    outer loop
      vertex -50 0.424999 3
      vertex -50 0.424999 0
      vertex -51 0.424999 3
    endloop
  endfacet
  facet normal 0 1 0
    outer loop
      vertex -51 0.424999 3
      vertex -50 0.424999 0
      vertex -51 0.424999 0
    endloop
  endfacet
  facet normal -1 0 0
    outer loop
      vertex -50 -0.424999 3
      vertex -50 0.424999 3.275
      vertex -50 0.424999 3
    endloop
  endfacet
  facet normal -1 -0 0
    outer loop
      vertex -50 0.424999 3.275
      vertex -50 -0.424999 3
      vertex -50 -0.424999 3.275
    endloop
  endfacet
  facet normal -0 0 1
    outer loop
      vertex -50 0.424999 3.275
      vertex 50 -0.424999 3.275
      vertex 50 0.424999 3.275
    endloop
  endfacet
  facet normal 0 0 1
    outer loop
      vertex 50 -0.424999 3.275
      vertex -50 0.424999 3.275
      vertex -50 -0.424999 3.275
    endloop
  endfacet
  facet normal 1 -0 0
    outer loop
      vertex 50 -0.424999 3.275
      vertex 50 0.424999 3
      vertex 50 0.424999 3.275
    endloop
  endfacet
  facet normal 1 0 0
    outer loop
      vertex 50 0.424999 3
      vertex 50 -0.424999 3.275
      vertex 50 -0.424999 3
    endloop
  endfacet
  facet normal 0 0 -1
    outer loop
      vertex -49 -0.424999 2.725
      vertex -46 0.424999 2.725
      vertex -46 -0.424999 2.725
    endloop
  endfacet
  facet normal -0 0 -1
    outer loop
      vertex -46 0.424999 2.725
      vertex -49 -0.424999 2.725
      vertex -49 0.424999 2.725
    endloop
  endfacet
  facet normal 0 0 -1
    outer loop
      vertex -44 -0.424999 2.725
      vertex -36 0.424999 2.725
      vertex -36 -0.424999 2.725
    endloop
  endfacet
  facet normal -0 0 -1
    outer loop
      vertex -36 0.424999 2.725
      vertex -44 -0.424999 2.725
      vertex -44 0.424999 2.725
    endloop
  endfacet
  facet normal 0 0 -1
    outer loop
      vertex -34 -0.424999 2.725
      vertex -21 0.424999 2.725
      vertex -21 -0.424999 2.725
    endloop
  endfacet
  facet normal -0 0 -1
    outer loop
      vertex -21 0.424999 2.725
      vertex -34 -0.424999 2.725
      vertex -34 0.424999 2.725
    endloop
  endfacet
  facet normal 0 0 -1
    outer loop
      vertex -19 -0.424999 2.725
      vertex 4 0.424999 2.725
      vertex 4 -0.424999 2.725
    endloop
  endfacet
  facet normal -0 0 -1
    outer loop
      vertex 4 0.424999 2.725
      vertex -19 -0.424999 2.725
      vertex -19 0.424999 2.725
    endloop
  endfacet
  facet normal 0 0 -1
    outer loop
      vertex 6 -0.424999 2.725
      vertex 34 0.424999 2.725
      vertex 34 -0.424999 2.725
    endloop
  endfacet
  facet normal -0 0 -1
    outer loop
      vertex 34 0.424999 2.725
      vertex 6 -0.424999 2.725
      vertex 6 0.424999 2.725
    endloop
  endfacet
  facet normal 0 0 -1
    outer loop
      vertex 36 -0.424999 2.725
      vertex 49 0.424999 2.725
      vertex 49 -0.424999 2.725
    endloop
  endfacet
  facet normal -0 0 -1
    outer loop
      vertex 49 0.424999 2.725
      vertex 36 -0.424999 2.725
      vertex 36 0.424999 2.725
    endloop
  endfacet
  facet normal -1 0 0
    outer loop
      vertex -51 -0.424999 0
      vertex -51 0.424999 3
      vertex -51 0.424999 0
    endloop
  endfacet
  facet normal -1 -0 0
    outer loop
      vertex -51 0.424999 3
      vertex -51 -0.424999 0
      vertex -51 -0.424999 3
    endloop
  endfacet
  facet normal -0 0 1
    outer loop
      vertex -51 0.424999 3
      vertex -50 -0.424999 3
      vertex -50 0.424999 3
    endloop
  endfacet
  facet normal 0 0 1
    outer loop
      vertex -50 -0.424999 3
      vertex -51 0.424999 3
      vertex -51 -0.424999 3
    endloop
  endfacet
  facet normal 1 -0 0
    outer loop
      vertex -49 -0.424999 2.725
      vertex -49 0.424999 0.25
      vertex -49 0.424999 2.725
    endloop
  endfacet
  facet normal 1 0 0
    outer loop
      vertex -49 0.424999 0.25
      vertex -49 -0.424999 2.725
      vertex -49 -0.424999 0.25
    endloop
  endfacet
  facet normal 0 0 -1
    outer loop
      vertex -51 -0.424999 0
      vertex -50 0.424999 0
      vertex -50 -0.424999 0
    endloop
  endfacet
  facet normal -0 0 -1
    outer loop
      vertex -50 0.424999 0
      vertex -51 -0.424999 0
      vertex -51 0.424999 0
    endloop
  endfacet
  facet normal -1 0 0
    outer loop
      vertex -46 -0.424999 0.25
      vertex -46 0.424999 2.725
      vertex -46 0.424999 0.25
    endloop
  endfacet
  facet normal -1 -0 0
    outer loop
      vertex -46 0.424999 2.725
      vertex -46 -0.424999 0.25
      vertex -46 -0.424999 2.725
    endloop
  endfacet
  facet normal 1 -0 0
    outer loop
      vertex -44 -0.424999 2.725
      vertex -44 0.424999 0.25
      vertex -44 0.424999 2.725
    endloop
  endfacet
  facet normal 1 0 0
    outer loop
      vertex -44 0.424999 0.25
      vertex -44 -0.424999 2.725
      vertex -44 -0.424999 0.25
    endloop
  endfacet
  facet normal -1 0 0
    outer loop
      vertex -36 -0.424999 0.25
      vertex -36 0.424999 2.725
      vertex -36 0.424999 0.25
    endloop
  endfacet
  facet normal -1 -0 0
    outer loop
      vertex -36 0.424999 2.725
      vertex -36 -0.424999 0.25
      vertex -36 -0.424999 2.725
    endloop
  endfacet
  facet normal 1 -0 0
    outer loop
      vertex -34 -0.424999 2.725
      vertex -34 0.424999 0.25
      vertex -34 0.424999 2.725
    endloop
  endfacet
  facet normal 1 0 0
    outer loop
      vertex -34 0.424999 0.25
      vertex -34 -0.424999 2.725
      vertex -34 -0.424999 0.25
    endloop
  endfacet
  facet normal -1 0 0
    outer loop
      vertex -21 -0.424999 0.25
      vertex -21 0.424999 2.725
      vertex -21 0.424999 0.25
    endloop
  endfacet
  facet normal -1 -0 0
    outer loop
      vertex -21 0.424999 2.725
      vertex -21 -0.424999 0.25
      vertex -21 -0.424999 2.725
    endloop
  endfacet
  facet normal 1 -0 0
    outer loop
      vertex -19 -0.424999 2.725
      vertex -19 0.424999 0.25
      vertex -19 0.424999 2.725
    endloop
  endfacet
  facet normal 1 0 0
    outer loop
      vertex -19 0.424999 0.25
      vertex -19 -0.424999 2.725
      vertex -19 -0.424999 0.25
    endloop
  endfacet
  facet normal -1 0 0
    outer loop
      vertex 4 -0.424999 0.25
      vertex 4 0.424999 2.725
      vertex 4 0.424999 0.25
    endloop
  endfacet
  facet normal -1 -0 0
    outer loop
      vertex 4 0.424999 2.725
      vertex 4 -0.424999 0.25
      vertex 4 -0.424999 2.725
    endloop
  endfacet
  facet normal 1 -0 0
    outer loop
      vertex 6 -0.424999 2.725
      vertex 6 0.424999 0.25
      vertex 6 0.424999 2.725
    endloop
  endfacet
  facet normal 1 0 0
    outer loop
      vertex 6 0.424999 0.25
      vertex 6 -0.424999 2.725
      vertex 6 -0.424999 0.25
    endloop
  endfacet
  facet normal -1 0 0
    outer loop
      vertex 34 -0.424999 0.25
      vertex 34 0.424999 2.725
      vertex 34 0.424999 0.25
    endloop
  endfacet
  facet normal -1 -0 0
    outer loop
      vertex 34 0.424999 2.725
      vertex 34 -0.424999 0.25
      vertex 34 -0.424999 2.725
    endloop
  endfacet
  facet normal 1 -0 0
    outer loop
      vertex 36 -0.424999 2.725
      vertex 36 0.424999 0.25
      vertex 36 0.424999 2.725
    endloop
  endfacet
  facet normal 1 0 0
    outer loop
      vertex 36 0.424999 0.25
      vertex 36 -0.424999 2.725
      vertex 36 -0.424999 0.25
    endloop
  endfacet
  facet normal -1 0 0
    outer loop
      vertex 49 -0.424999 0.25
      vertex 49 0.424999 2.725
      vertex 49 0.424999 0.25
    endloop
  endfacet
  facet normal -1 -0 0
    outer loop
      vertex 49 0.424999 2.725
      vertex 49 -0.424999 0.25
      vertex 49 -0.424999 2.725
    endloop
  endfacet
  facet normal -0 0 1
    outer loop
      vertex 50 0.424999 3
      vertex 51 -0.424999 3
      vertex 51 0.424999 3
    endloop
  endfacet
  facet normal 0 0 1
    outer loop
      vertex 51 -0.424999 3
      vertex 50 0.424999 3
      vertex 50 -0.424999 3
    endloop
  endfacet
  facet normal 1 -0 0
    outer loop
      vertex 51 -0.424999 3
      vertex 51 0.424999 0
      vertex 51 0.424999 3
    endloop
  endfacet
  facet normal 1 0 0
    outer loop
      vertex 51 0.424999 0
      vertex 51 -0.424999 3
      vertex 51 -0.424999 0
    endloop
  endfacet
  facet normal 0 0 -1
    outer loop
      vertex 50 -0.424999 0
      vertex 51 0.424999 0
      vertex 51 -0.424999 0
    endloop
  endfacet
  facet normal -0 0 -1
    outer loop
      vertex 51 0.424999 0
      vertex 50 -0.424999 0
      vertex 50 0.424999 0
    endloop
  endfacet
endsolid OpenSCAD_Model
