solid OpenSCAD_Model
  facet normal -0.674344 -0.2191 -0.705163
    outer loop
      vertex 13.6052 -2.84716 4
      vertex 13.153 -1.45538 4
      vertex 17.0656 -0.623734 0
    endloop
  endfacet
  facet normal 0.705161 0.0741316 -0.705161
    outer loop
      vertex 27 0 4
      vertex 23 0 0
      vertex 26.847 1.45538 4
    endloop
  endfacet
  facet normal 0.705154 0.0741631 -0.705165
    outer loop
      vertex 23 0 0
      vertex 22.9344 0.623734 0
      vertex 26.847 1.45538 4
    endloop
  endfacet
  facet normal 0.705154 -0.0741631 -0.705165
    outer loop
      vertex 26.847 -1.45538 4
      vertex 22.9344 -0.623734 0
      vertex 23 0 0
    endloop
  endfacet
  facet normal 0.147415 -0.693553 -0.705161
    outer loop
      vertex 20.7317 -6.96165 4
      vertex 20.3136 -2.98357 0
      vertex 20.9271 -2.85317 0
    endloop
  endfacet
  facet normal -0.288393 0.647749 -0.70516
    outer loop
      vertex 19.0729 2.85317 0
      vertex 16.5 6.06218 4
      vertex 17.8369 6.6574 4
    endloop
  endfacet
  facet normal 0.526927 -0.474448 -0.705157
    outer loop
      vertex 24.6839 -5.20201 4
      vertex 22.4271 -1.76336 0
      vertex 25.6631 -4.1145 4
    endloop
  endfacet
  facet normal 0.416772 -0.573627 -0.705162
    outer loop
      vertex 23.5 -6.06218 4
      vertex 21.5 -2.59808 0
      vertex 24.6839 -5.20201 4
    endloop
  endfacet
  facet normal 0.288412 -0.647737 -0.705163
    outer loop
      vertex 23.5 -6.06218 4
      vertex 20.9271 -2.85317 0
      vertex 21.5 -2.59808 0
    endloop
  endfacet
  facet normal -0.526896 -0.474474 -0.705163
    outer loop
      vertex 17.9926 -2.22943 0
      vertex 15.3161 -5.20201 4
      vertex 17.5729 -1.76336 0
    endloop
  endfacet
  facet normal -0.416772 -0.573627 -0.705162
    outer loop
      vertex 16.5 -6.06218 4
      vertex 15.3161 -5.20201 4
      vertex 18.5 -2.59808 0
    endloop
  endfacet
  facet normal -0.614056 0.354526 -0.705157
    outer loop
      vertex 17.5729 1.76336 0
      vertex 13.6052 2.84716 4
      vertex 14.3369 4.1145 4
    endloop
  endfacet
  facet normal 0.674344 -0.2191 -0.705163
    outer loop
      vertex 26.3948 -2.84716 4
      vertex 22.9344 -0.623734 0
      vertex 26.847 -1.45538 4
    endloop
  endfacet
  facet normal 0.705161 -0.0741316 -0.705161
    outer loop
      vertex 26.847 -1.45538 4
      vertex 23 0 0
      vertex 27 0 4
    endloop
  endfacet
  facet normal 0.61409 -0.354446 -0.705168
    outer loop
      vertex 26.3948 -2.84716 4
      vertex 22.4271 -1.76336 0
      vertex 22.7406 -1.22021 0
    endloop
  endfacet
  facet normal 0.614056 -0.354526 -0.705157
    outer loop
      vertex 25.6631 -4.1145 4
      vertex 22.4271 -1.76336 0
      vertex 26.3948 -2.84716 4
    endloop
  endfacet
  facet normal 0.416769 -0.57363 -0.705161
    outer loop
      vertex 24.6839 -5.20201 4
      vertex 21.5 -2.59808 0
      vertex 22.0074 -2.22943 0
    endloop
  endfacet
  facet normal -0.526927 -0.474448 -0.705157
    outer loop
      vertex 15.3161 -5.20201 4
      vertex 14.3369 -4.1145 4
      vertex 17.5729 -1.76336 0
    endloop
  endfacet
  facet normal -0.288393 -0.647749 -0.70516
    outer loop
      vertex 17.8369 -6.6574 4
      vertex 16.5 -6.06218 4
      vertex 19.0729 -2.85317 0
    endloop
  endfacet
  facet normal -0.614056 -0.354526 -0.705157
    outer loop
      vertex 14.3369 -4.1145 4
      vertex 13.6052 -2.84716 4
      vertex 17.5729 -1.76336 0
    endloop
  endfacet
  facet normal 0.288393 0.647749 -0.70516
    outer loop
      vertex 23.5 6.06218 4
      vertex 20.9271 2.85317 0
      vertex 22.1631 6.6574 4
    endloop
  endfacet
  facet normal -0.526927 0.474448 -0.705157
    outer loop
      vertex 17.5729 1.76336 0
      vertex 14.3369 4.1145 4
      vertex 15.3161 5.20201 4
    endloop
  endfacet
  facet normal 0 0 1
    outer loop
      vertex 26.847 1.45538 4
      vertex 26.847 -1.45538 4
      vertex 27 0 4
    endloop
  endfacet
  facet normal 0 0 1
    outer loop
      vertex 26.3948 2.84716 4
      vertex 26.847 -1.45538 4
      vertex 26.847 1.45538 4
    endloop
  endfacet
  facet normal 0 0 1
    outer loop
      vertex 26.3948 2.84716 4
      vertex 26.3948 -2.84716 4
      vertex 26.847 -1.45538 4
    endloop
  endfacet
  facet normal 0 0 1
    outer loop
      vertex 25.6631 4.1145 4
      vertex 26.3948 -2.84716 4
      vertex 26.3948 2.84716 4
    endloop
  endfacet
  facet normal 0 0 1
    outer loop
      vertex 25.6631 4.1145 4
      vertex 25.6631 -4.1145 4
      vertex 26.3948 -2.84716 4
    endloop
  endfacet
  facet normal 0 0 1
    outer loop
      vertex 24.6839 5.20201 4
      vertex 25.6631 -4.1145 4
      vertex 25.6631 4.1145 4
    endloop
  endfacet
  facet normal 0 0 1
    outer loop
      vertex 24.6839 5.20201 4
      vertex 24.6839 -5.20201 4
      vertex 25.6631 -4.1145 4
    endloop
  endfacet
  facet normal 0 0 1
    outer loop
      vertex 23.5 6.06218 4
      vertex 24.6839 -5.20201 4
      vertex 24.6839 5.20201 4
    endloop
  endfacet
  facet normal 0 0 1
    outer loop
      vertex 23.5 6.06218 4
      vertex 23.5 -6.06218 4
      vertex 24.6839 -5.20201 4
    endloop
  endfacet
  facet normal 0 0 1
    outer loop
      vertex 22.1631 6.6574 4
      vertex 23.5 -6.06218 4
      vertex 23.5 6.06218 4
    endloop
  endfacet
  facet normal 0 0 1
    outer loop
      vertex 22.1631 6.6574 4
      vertex 22.1631 -6.6574 4
      vertex 23.5 -6.06218 4
    endloop
  endfacet
  facet normal 0 0 1
    outer loop
      vertex 20.7317 6.96165 4
      vertex 22.1631 -6.6574 4
      vertex 22.1631 6.6574 4
    endloop
  endfacet
  facet normal 0 0 1
    outer loop
      vertex 20.7317 6.96165 4
      vertex 20.7317 -6.96165 4
      vertex 22.1631 -6.6574 4
    endloop
  endfacet
  facet normal -0 0 1
    outer loop
      vertex 19.2683 6.96165 4
      vertex 20.7317 -6.96165 4
      vertex 20.7317 6.96165 4
    endloop
  endfacet
  facet normal 0 0 1
    outer loop
      vertex 19.2683 6.96165 4
      vertex 19.2683 -6.96165 4
      vertex 20.7317 -6.96165 4
    endloop
  endfacet
  facet normal -0 0 1
    outer loop
      vertex 17.8369 6.6574 4
      vertex 19.2683 -6.96165 4
      vertex 19.2683 6.96165 4
    endloop
  endfacet
  facet normal 0 0 1
    outer loop
      vertex 17.8369 6.6574 4
      vertex 17.8369 -6.6574 4
      vertex 19.2683 -6.96165 4
    endloop
  endfacet
  facet normal -0 0 1
    outer loop
      vertex 16.5 6.06218 4
      vertex 17.8369 -6.6574 4
      vertex 17.8369 6.6574 4
    endloop
  endfacet
  facet normal 0 0 1
    outer loop
      vertex 16.5 6.06218 4
      vertex 16.5 -6.06218 4
      vertex 17.8369 -6.6574 4
    endloop
  endfacet
  facet normal -0 0 1
    outer loop
      vertex 15.3161 5.20201 4
      vertex 16.5 -6.06218 4
      vertex 16.5 6.06218 4
    endloop
  endfacet
  facet normal 0 0 1
    outer loop
      vertex 15.3161 5.20201 4
      vertex 15.3161 -5.20201 4
      vertex 16.5 -6.06218 4
    endloop
  endfacet
  facet normal -0 0 1
    outer loop
      vertex 14.3369 4.1145 4
      vertex 15.3161 -5.20201 4
      vertex 15.3161 5.20201 4
    endloop
  endfacet
  facet normal 0 0 1
    outer loop
      vertex 14.3369 4.1145 4
      vertex 14.3369 -4.1145 4
      vertex 15.3161 -5.20201 4
    endloop
  endfacet
  facet normal -0 0 1
    outer loop
      vertex 13.6052 2.84716 4
      vertex 14.3369 -4.1145 4
      vertex 14.3369 4.1145 4
    endloop
  endfacet
  facet normal 0 0 1
    outer loop
      vertex 13.6052 2.84716 4
      vertex 13.6052 -2.84716 4
      vertex 14.3369 -4.1145 4
    endloop
  endfacet
  facet normal -0 0 1
    outer loop
      vertex 13.153 1.45538 4
      vertex 13.6052 -2.84716 4
      vertex 13.6052 2.84716 4
    endloop
  endfacet
  facet normal 0 0 1
    outer loop
      vertex 13.153 1.45538 4
      vertex 13.153 -1.45538 4
      vertex 13.6052 -2.84716 4
    endloop
  endfacet
  facet normal 0 -0 1
    outer loop
      vertex 13.153 -1.45538 4
      vertex 13.153 1.45538 4
      vertex 13 0 4
    endloop
  endfacet
  facet normal -0.705159 0.0741313 -0.705164
    outer loop
      vertex 17.0656 0.623734 0
      vertex 13 0 4
      vertex 13.153 1.45538 4
    endloop
  endfacet
  facet normal 0.674344 -0.2191 -0.705163
    outer loop
      vertex 26.3948 -2.84716 4
      vertex 22.7406 -1.22021 0
      vertex 22.9344 -0.623734 0
    endloop
  endfacet
  facet normal 0.288393 -0.647749 -0.70516
    outer loop
      vertex 22.1631 -6.6574 4
      vertex 20.9271 -2.85317 0
      vertex 23.5 -6.06218 4
    endloop
  endfacet
  facet normal 0.147418 -0.693553 -0.705161
    outer loop
      vertex 22.1631 -6.6574 4
      vertex 20.7317 -6.96165 4
      vertex 20.9271 -2.85317 0
    endloop
  endfacet
  facet normal 0.526896 -0.474474 -0.705163
    outer loop
      vertex 24.6839 -5.20201 4
      vertex 22.0074 -2.22943 0
      vertex 22.4271 -1.76336 0
    endloop
  endfacet
  facet normal -0.288412 -0.647737 -0.705163
    outer loop
      vertex 19.0729 -2.85317 0
      vertex 16.5 -6.06218 4
      vertex 18.5 -2.59808 0
    endloop
  endfacet
  facet normal -0.147418 -0.693553 -0.705161
    outer loop
      vertex 19.2683 -6.96165 4
      vertex 17.8369 -6.6574 4
      vertex 19.0729 -2.85317 0
    endloop
  endfacet
  facet normal -0.416769 -0.57363 -0.705161
    outer loop
      vertex 18.5 -2.59808 0
      vertex 15.3161 -5.20201 4
      vertex 17.9926 -2.22943 0
    endloop
  endfacet
  facet normal -0.61409 -0.354446 -0.705168
    outer loop
      vertex 17.5729 -1.76336 0
      vertex 13.6052 -2.84716 4
      vertex 17.2594 -1.22021 0
    endloop
  endfacet
  facet normal -0.674344 -0.2191 -0.705163
    outer loop
      vertex 17.2594 -1.22021 0
      vertex 13.6052 -2.84716 4
      vertex 17.0656 -0.623734 0
    endloop
  endfacet
  facet normal 0.526927 0.474448 -0.705157
    outer loop
      vertex 25.6631 4.1145 4
      vertex 22.4271 1.76336 0
      vertex 24.6839 5.20201 4
    endloop
  endfacet
  facet normal -0.526896 0.474474 -0.705163
    outer loop
      vertex 17.5729 1.76336 0
      vertex 15.3161 5.20201 4
      vertex 17.9926 2.22943 0
    endloop
  endfacet
  facet normal -0.416769 0.57363 -0.705161
    outer loop
      vertex 17.9926 2.22943 0
      vertex 15.3161 5.20201 4
      vertex 18.5 2.59808 0
    endloop
  endfacet
  facet normal 0 0 -1
    outer loop
      vertex 22.9344 -0.623734 0
      vertex 22.9344 0.623734 0
      vertex 23 0 0
    endloop
  endfacet
  facet normal 0 0 -1
    outer loop
      vertex 22.7406 -1.22021 0
      vertex 22.9344 0.623734 0
      vertex 22.9344 -0.623734 0
    endloop
  endfacet
  facet normal 0 0 -1
    outer loop
      vertex 22.7406 -1.22021 0
      vertex 22.7406 1.22021 0
      vertex 22.9344 0.623734 0
    endloop
  endfacet
  facet normal 0 0 -1
    outer loop
      vertex 22.4271 -1.76336 0
      vertex 22.7406 1.22021 0
      vertex 22.7406 -1.22021 0
    endloop
  endfacet
  facet normal 0 0 -1
    outer loop
      vertex 22.4271 -1.76336 0
      vertex 22.4271 1.76336 0
      vertex 22.7406 1.22021 0
    endloop
  endfacet
  facet normal 0 0 -1
    outer loop
      vertex 22.0074 -2.22943 0
      vertex 22.4271 1.76336 0
      vertex 22.4271 -1.76336 0
    endloop
  endfacet
  facet normal 0 0 -1
    outer loop
      vertex 22.0074 -2.22943 0
      vertex 22.0074 2.22943 0
      vertex 22.4271 1.76336 0
    endloop
  endfacet
  facet normal 0 0 -1
    outer loop
      vertex 21.5 -2.59808 0
      vertex 22.0074 2.22943 0
      vertex 22.0074 -2.22943 0
    endloop
  endfacet
  facet normal 0 0 -1
    outer loop
      vertex 21.5 -2.59808 0
      vertex 21.5 2.59808 0
      vertex 22.0074 2.22943 0
    endloop
  endfacet
  facet normal 0 0 -1
    outer loop
      vertex 20.9271 -2.85317 0
      vertex 21.5 2.59808 0
      vertex 21.5 -2.59808 0
    endloop
  endfacet
  facet normal 0 0 -1
    outer loop
      vertex 20.9271 -2.85317 0
      vertex 20.9271 2.85317 0
      vertex 21.5 2.59808 0
    endloop
  endfacet
  facet normal 0 0 -1
    outer loop
      vertex 20.3136 -2.98357 0
      vertex 20.9271 2.85317 0
      vertex 20.9271 -2.85317 0
    endloop
  endfacet
  facet normal 0 0 -1
    outer loop
      vertex 20.3136 -2.98357 0
      vertex 20.3136 2.98357 0
      vertex 20.9271 2.85317 0
    endloop
  endfacet
  facet normal 0 0 -1
    outer loop
      vertex 19.6864 -2.98357 0
      vertex 20.3136 2.98357 0
      vertex 20.3136 -2.98357 0
    endloop
  endfacet
  facet normal 0 0 -1
    outer loop
      vertex 19.6864 -2.98357 0
      vertex 19.6864 2.98357 0
      vertex 20.3136 2.98357 0
    endloop
  endfacet
  facet normal 0 0 -1
    outer loop
      vertex 19.0729 -2.85317 0
      vertex 19.6864 2.98357 0
      vertex 19.6864 -2.98357 0
    endloop
  endfacet
  facet normal 0 0 -1
    outer loop
      vertex 19.0729 -2.85317 0
      vertex 19.0729 2.85317 0
      vertex 19.6864 2.98357 0
    endloop
  endfacet
  facet normal 0 0 -1
    outer loop
      vertex 18.5 -2.59808 0
      vertex 19.0729 2.85317 0
      vertex 19.0729 -2.85317 0
    endloop
  endfacet
  facet normal 0 0 -1
    outer loop
      vertex 18.5 -2.59808 0
      vertex 18.5 2.59808 0
      vertex 19.0729 2.85317 0
    endloop
  endfacet
  facet normal 0 0 -1
    outer loop
      vertex 17.9926 -2.22943 0
      vertex 18.5 2.59808 0
      vertex 18.5 -2.59808 0
    endloop
  endfacet
  facet normal 0 0 -1
    outer loop
      vertex 17.9926 -2.22943 0
      vertex 17.9926 2.22943 0
      vertex 18.5 2.59808 0
    endloop
  endfacet
  facet normal 0 0 -1
    outer loop
      vertex 17.5729 -1.76336 0
      vertex 17.9926 2.22943 0
      vertex 17.9926 -2.22943 0
    endloop
  endfacet
  facet normal 0 0 -1
    outer loop
      vertex 17.5729 -1.76336 0
      vertex 17.5729 1.76336 0
      vertex 17.9926 2.22943 0
    endloop
  endfacet
  facet normal 0 0 -1
    outer loop
      vertex 17.2594 -1.22021 0
      vertex 17.5729 1.76336 0
      vertex 17.5729 -1.76336 0
    endloop
  endfacet
  facet normal 0 0 -1
    outer loop
      vertex 17.2594 -1.22021 0
      vertex 17.2594 1.22021 0
      vertex 17.5729 1.76336 0
    endloop
  endfacet
  facet normal 0 0 -1
    outer loop
      vertex 17.0656 -0.623734 0
      vertex 17.2594 1.22021 0
      vertex 17.2594 -1.22021 0
    endloop
  endfacet
  facet normal 0 0 -1
    outer loop
      vertex 17.0656 -0.623734 0
      vertex 17.0656 0.623734 0
      vertex 17.2594 1.22021 0
    endloop
  endfacet
  facet normal 0 -0 -1
    outer loop
      vertex 17.0656 0.623734 0
      vertex 17.0656 -0.623734 0
      vertex 17 0 0
    endloop
  endfacet
  facet normal -0.705159 0.0741638 -0.705159
    outer loop
      vertex 17 0 0
      vertex 13 0 4
      vertex 17.0656 0.623734 0
    endloop
  endfacet
  facet normal 0 -0.709047 -0.705161
    outer loop
      vertex 19.6864 -2.98357 0
      vertex 20.7317 -6.96165 4
      vertex 19.2683 -6.96165 4
    endloop
  endfacet
  facet normal 0 -0.709047 -0.705161
    outer loop
      vertex 20.7317 -6.96165 4
      vertex 19.6864 -2.98357 0
      vertex 20.3136 -2.98357 0
    endloop
  endfacet
  facet normal 0.288412 0.647737 -0.705163
    outer loop
      vertex 21.5 2.59808 0
      vertex 20.9271 2.85317 0
      vertex 23.5 6.06218 4
    endloop
  endfacet
  facet normal 0 0.709047 -0.705161
    outer loop
      vertex 20.3136 2.98357 0
      vertex 19.2683 6.96165 4
      vertex 20.7317 6.96165 4
    endloop
  endfacet
  facet normal 0 0.709047 -0.705161
    outer loop
      vertex 19.2683 6.96165 4
      vertex 20.3136 2.98357 0
      vertex 19.6864 2.98357 0
    endloop
  endfacet
  facet normal -0.416772 0.573627 -0.705162
    outer loop
      vertex 18.5 2.59808 0
      vertex 15.3161 5.20201 4
      vertex 16.5 6.06218 4
    endloop
  endfacet
  facet normal -0.288412 0.647737 -0.705163
    outer loop
      vertex 18.5 2.59808 0
      vertex 16.5 6.06218 4
      vertex 19.0729 2.85317 0
    endloop
  endfacet
  facet normal -0.674344 0.2191 -0.705163
    outer loop
      vertex 17.0656 0.623734 0
      vertex 13.153 1.45538 4
      vertex 13.6052 2.84716 4
    endloop
  endfacet
  facet normal -0.674344 0.2191 -0.705163
    outer loop
      vertex 17.0656 0.623734 0
      vertex 13.6052 2.84716 4
      vertex 17.2594 1.22021 0
    endloop
  endfacet
  facet normal -0.705159 -0.0741638 -0.705159
    outer loop
      vertex 17.0656 -0.623734 0
      vertex 13 0 4
      vertex 17 0 0
    endloop
  endfacet
  facet normal -0.705159 -0.0741313 -0.705164
    outer loop
      vertex 13.153 -1.45538 4
      vertex 13 0 4
      vertex 17.0656 -0.623734 0
    endloop
  endfacet
  facet normal -0.147415 -0.693553 -0.705161
    outer loop
      vertex 19.2683 -6.96165 4
      vertex 19.0729 -2.85317 0
      vertex 19.6864 -2.98357 0
    endloop
  endfacet
  facet normal 0.614056 0.354526 -0.705157
    outer loop
      vertex 26.3948 2.84716 4
      vertex 22.4271 1.76336 0
      vertex 25.6631 4.1145 4
    endloop
  endfacet
  facet normal 0.416772 0.573627 -0.705162
    outer loop
      vertex 24.6839 5.20201 4
      vertex 21.5 2.59808 0
      vertex 23.5 6.06218 4
    endloop
  endfacet
  facet normal 0.674344 0.2191 -0.705163
    outer loop
      vertex 26.847 1.45538 4
      vertex 22.9344 0.623734 0
      vertex 26.3948 2.84716 4
    endloop
  endfacet
  facet normal 0.147418 0.693553 -0.705161
    outer loop
      vertex 20.9271 2.85317 0
      vertex 20.7317 6.96165 4
      vertex 22.1631 6.6574 4
    endloop
  endfacet
  facet normal -0.147415 0.693553 -0.705161
    outer loop
      vertex 19.6864 2.98357 0
      vertex 19.0729 2.85317 0
      vertex 19.2683 6.96165 4
    endloop
  endfacet
  facet normal -0.147418 0.693553 -0.705161
    outer loop
      vertex 19.0729 2.85317 0
      vertex 17.8369 6.6574 4
      vertex 19.2683 6.96165 4
    endloop
  endfacet
  facet normal -0.61409 0.354446 -0.705168
    outer loop
      vertex 17.2594 1.22021 0
      vertex 13.6052 2.84716 4
      vertex 17.5729 1.76336 0
    endloop
  endfacet
  facet normal 0.416769 0.57363 -0.705161
    outer loop
      vertex 22.0074 2.22943 0
      vertex 21.5 2.59808 0
      vertex 24.6839 5.20201 4
    endloop
  endfacet
  facet normal 0.526896 0.474474 -0.705163
    outer loop
      vertex 22.4271 1.76336 0
      vertex 22.0074 2.22943 0
      vertex 24.6839 5.20201 4
    endloop
  endfacet
  facet normal 0.61409 0.354446 -0.705168
    outer loop
      vertex 22.7406 1.22021 0
      vertex 22.4271 1.76336 0
      vertex 26.3948 2.84716 4
    endloop
  endfacet
  facet normal 0.674344 0.2191 -0.705163
    outer loop
      vertex 22.9344 0.623734 0
      vertex 22.7406 1.22021 0
      vertex 26.3948 2.84716 4
    endloop
  endfacet
  facet normal 0.147415 0.693553 -0.705161
    outer loop
      vertex 20.9271 2.85317 0
      vertex 20.3136 2.98357 0
      vertex 20.7317 6.96165 4
    endloop
  endfacet
  facet normal -0.57264 -0.186055 -0.798415
    outer loop
      vertex 33.6052 -2.84716 3
      vertex 33.153 -1.45538 3
      vertex 37.0656 -0.623734 0
    endloop
  endfacet
  facet normal 0.59881 0.0629512 -0.798413
    outer loop
      vertex 47 0 3
      vertex 43 0 0
      vertex 46.847 1.45538 3
    endloop
  endfacet
  facet normal 0.598803 0.0629779 -0.798417
    outer loop
      vertex 43 0 0
      vertex 42.9344 0.623734 0
      vertex 46.847 1.45538 3
    endloop
  endfacet
  facet normal 0.598803 -0.0629779 -0.798417
    outer loop
      vertex 46.847 -1.45538 3
      vertex 42.9344 -0.623734 0
      vertex 43 0 0
    endloop
  endfacet
  facet normal 0.125182 -0.588953 -0.798413
    outer loop
      vertex 40.7317 -6.96165 3
      vertex 40.3136 -2.98357 0
      vertex 40.9271 -2.85317 0
    endloop
  endfacet
  facet normal -0.244898 0.550057 -0.798412
    outer loop
      vertex 39.0729 2.85317 0
      vertex 36.5 6.06218 3
      vertex 37.8369 6.6574 3
    endloop
  endfacet
  facet normal 0.447457 -0.402893 -0.79841
    outer loop
      vertex 44.6839 -5.20201 3
      vertex 42.4271 -1.76336 0
      vertex 45.6631 -4.1145 3
    endloop
  endfacet
  facet normal 0.353915 -0.487114 -0.798414
    outer loop
      vertex 43.5 -6.06218 3
      vertex 41.5 -2.59808 0
      vertex 44.6839 -5.20201 3
    endloop
  endfacet
  facet normal 0.244914 -0.550046 -0.798415
    outer loop
      vertex 43.5 -6.06218 3
      vertex 40.9271 -2.85317 0
      vertex 41.5 -2.59808 0
    endloop
  endfacet
  facet normal -0.44743 -0.402915 -0.798415
    outer loop
      vertex 37.9926 -2.22943 0
      vertex 35.3161 -5.20201 3
      vertex 37.5729 -1.76336 0
    endloop
  endfacet
  facet normal -0.353915 -0.487114 -0.798414
    outer loop
      vertex 36.5 -6.06218 3
      vertex 35.3161 -5.20201 3
      vertex 38.5 -2.59808 0
    endloop
  endfacet
  facet normal -0.521446 0.301058 -0.79841
    outer loop
      vertex 37.5729 1.76336 0
      vertex 33.6052 2.84716 3
      vertex 34.3369 4.1145 3
    endloop
  endfacet
  facet normal 0.57264 -0.186055 -0.798415
    outer loop
      vertex 46.3948 -2.84716 3
      vertex 42.9344 -0.623734 0
      vertex 46.847 -1.45538 3
    endloop
  endfacet
  facet normal 0.59881 -0.0629512 -0.798413
    outer loop
      vertex 46.847 -1.45538 3
      vertex 43 0 0
      vertex 47 0 3
    endloop
  endfacet
  facet normal 0.521472 -0.300988 -0.798419
    outer loop
      vertex 46.3948 -2.84716 3
      vertex 42.4271 -1.76336 0
      vertex 42.7406 -1.22021 0
    endloop
  endfacet
  facet normal 0.521446 -0.301058 -0.79841
    outer loop
      vertex 45.6631 -4.1145 3
      vertex 42.4271 -1.76336 0
      vertex 46.3948 -2.84716 3
    endloop
  endfacet
  facet normal 0.353913 -0.487116 -0.798413
    outer loop
      vertex 44.6839 -5.20201 3
      vertex 41.5 -2.59808 0
      vertex 42.0074 -2.22943 0
    endloop
  endfacet
  facet normal -0.447457 -0.402893 -0.79841
    outer loop
      vertex 35.3161 -5.20201 3
      vertex 34.3369 -4.1145 3
      vertex 37.5729 -1.76336 0
    endloop
  endfacet
  facet normal -0.244898 -0.550057 -0.798412
    outer loop
      vertex 37.8369 -6.6574 3
      vertex 36.5 -6.06218 3
      vertex 39.0729 -2.85317 0
    endloop
  endfacet
  facet normal -0.521446 -0.301058 -0.79841
    outer loop
      vertex 34.3369 -4.1145 3
      vertex 33.6052 -2.84716 3
      vertex 37.5729 -1.76336 0
    endloop
  endfacet
  facet normal 0.244898 0.550057 -0.798412
    outer loop
      vertex 43.5 6.06218 3
      vertex 40.9271 2.85317 0
      vertex 42.1631 6.6574 3
    endloop
  endfacet
  facet normal -0.447457 0.402893 -0.79841
    outer loop
      vertex 37.5729 1.76336 0
      vertex 34.3369 4.1145 3
      vertex 35.3161 5.20201 3
    endloop
  endfacet
  facet normal 0 0 1
    outer loop
      vertex 46.847 1.45538 3
      vertex 46.847 -1.45538 3
      vertex 47 0 3
    endloop
  endfacet
  facet normal 0 0 1
    outer loop
      vertex 46.3948 2.84716 3
      vertex 46.847 -1.45538 3
      vertex 46.847 1.45538 3
    endloop
  endfacet
  facet normal 0 0 1
    outer loop
      vertex 46.3948 2.84716 3
      vertex 46.3948 -2.84716 3
      vertex 46.847 -1.45538 3
    endloop
  endfacet
  facet normal 0 0 1
    outer loop
      vertex 45.6631 4.1145 3
      vertex 46.3948 -2.84716 3
      vertex 46.3948 2.84716 3
    endloop
  endfacet
  facet normal 0 0 1
    outer loop
      vertex 45.6631 4.1145 3
      vertex 45.6631 -4.1145 3
      vertex 46.3948 -2.84716 3
    endloop
  endfacet
  facet normal 0 0 1
    outer loop
      vertex 44.6839 5.20201 3
      vertex 45.6631 -4.1145 3
      vertex 45.6631 4.1145 3
    endloop
  endfacet
  facet normal 0 0 1
    outer loop
      vertex 44.6839 5.20201 3
      vertex 44.6839 -5.20201 3
      vertex 45.6631 -4.1145 3
    endloop
  endfacet
  facet normal 0 0 1
    outer loop
      vertex 43.5 6.06218 3
      vertex 44.6839 -5.20201 3
      vertex 44.6839 5.20201 3
    endloop
  endfacet
  facet normal 0 0 1
    outer loop
      vertex 43.5 6.06218 3
      vertex 43.5 -6.06218 3
      vertex 44.6839 -5.20201 3
    endloop
  endfacet
  facet normal 0 0 1
    outer loop
      vertex 42.1631 6.6574 3
      vertex 43.5 -6.06218 3
      vertex 43.5 6.06218 3
    endloop
  endfacet
  facet normal 0 0 1
    outer loop
      vertex 42.1631 6.6574 3
      vertex 42.1631 -6.6574 3
      vertex 43.5 -6.06218 3
    endloop
  endfacet
  facet normal 0 0 1
    outer loop
      vertex 40.7317 6.96165 3
      vertex 42.1631 -6.6574 3
      vertex 42.1631 6.6574 3
    endloop
  endfacet
  facet normal 0 0 1
    outer loop
      vertex 40.7317 6.96165 3
      vertex 40.7317 -6.96165 3
      vertex 42.1631 -6.6574 3
    endloop
  endfacet
  facet normal -0 0 1
    outer loop
      vertex 39.2683 6.96165 3
      vertex 40.7317 -6.96165 3
      vertex 40.7317 6.96165 3
    endloop
  endfacet
  facet normal 0 0 1
    outer loop
      vertex 39.2683 6.96165 3
      vertex 39.2683 -6.96165 3
      vertex 40.7317 -6.96165 3
    endloop
  endfacet
  facet normal -0 0 1
    outer loop
      vertex 37.8369 6.6574 3
      vertex 39.2683 -6.96165 3
      vertex 39.2683 6.96165 3
    endloop
  endfacet
  facet normal 0 0 1
    outer loop
      vertex 37.8369 6.6574 3
      vertex 37.8369 -6.6574 3
      vertex 39.2683 -6.96165 3
    endloop
  endfacet
  facet normal -0 0 1
    outer loop
      vertex 36.5 6.06218 3
      vertex 37.8369 -6.6574 3
      vertex 37.8369 6.6574 3
    endloop
  endfacet
  facet normal 0 0 1
    outer loop
      vertex 36.5 6.06218 3
      vertex 36.5 -6.06218 3
      vertex 37.8369 -6.6574 3
    endloop
  endfacet
  facet normal -0 0 1
    outer loop
      vertex 35.3161 5.20201 3
      vertex 36.5 -6.06218 3
      vertex 36.5 6.06218 3
    endloop
  endfacet
  facet normal 0 0 1
    outer loop
      vertex 35.3161 5.20201 3
      vertex 35.3161 -5.20201 3
      vertex 36.5 -6.06218 3
    endloop
  endfacet
  facet normal -0 0 1
    outer loop
      vertex 34.3369 4.1145 3
      vertex 35.3161 -5.20201 3
      vertex 35.3161 5.20201 3
    endloop
  endfacet
  facet normal 0 0 1
    outer loop
      vertex 34.3369 4.1145 3
      vertex 34.3369 -4.1145 3
      vertex 35.3161 -5.20201 3
    endloop
  endfacet
  facet normal -0 0 1
    outer loop
      vertex 33.6052 2.84716 3
      vertex 34.3369 -4.1145 3
      vertex 34.3369 4.1145 3
    endloop
  endfacet
  facet normal 0 0 1
    outer loop
      vertex 33.6052 2.84716 3
      vertex 33.6052 -2.84716 3
      vertex 34.3369 -4.1145 3
    endloop
  endfacet
  facet normal -0 0 1
    outer loop
      vertex 33.153 1.45538 3
      vertex 33.6052 -2.84716 3
      vertex 33.6052 2.84716 3
    endloop
  endfacet
  facet normal 0 0 1
    outer loop
      vertex 33.153 1.45538 3
      vertex 33.153 -1.45538 3
      vertex 33.6052 -2.84716 3
    endloop
  endfacet
  facet normal 0 -0 1
    outer loop
      vertex 33.153 -1.45538 3
      vertex 33.153 1.45538 3
      vertex 33 0 3
    endloop
  endfacet
  facet normal -0.598807 0.0629509 -0.798415
    outer loop
      vertex 37.0656 0.623734 0
      vertex 33 0 3
      vertex 33.153 1.45538 3
    endloop
  endfacet
  facet normal 0.57264 -0.186056 -0.798415
    outer loop
      vertex 46.3948 -2.84716 3
      vertex 42.7406 -1.22021 0
      vertex 42.9344 -0.623734 0
    endloop
  endfacet
  facet normal 0.244898 -0.550057 -0.798412
    outer loop
      vertex 42.1631 -6.6574 3
      vertex 40.9271 -2.85317 0
      vertex 43.5 -6.06218 3
    endloop
  endfacet
  facet normal 0.125184 -0.588953 -0.798413
    outer loop
      vertex 42.1631 -6.6574 3
      vertex 40.7317 -6.96165 3
      vertex 40.9271 -2.85317 0
    endloop
  endfacet
  facet normal 0.44743 -0.402915 -0.798415
    outer loop
      vertex 44.6839 -5.20201 3
      vertex 42.0074 -2.22943 0
      vertex 42.4271 -1.76336 0
    endloop
  endfacet
  facet normal -0.244914 -0.550046 -0.798415
    outer loop
      vertex 39.0729 -2.85317 0
      vertex 36.5 -6.06218 3
      vertex 38.5 -2.59808 0
    endloop
  endfacet
  facet normal -0.125184 -0.588953 -0.798413
    outer loop
      vertex 39.2683 -6.96165 3
      vertex 37.8369 -6.6574 3
      vertex 39.0729 -2.85317 0
    endloop
  endfacet
  facet normal -0.353913 -0.487116 -0.798413
    outer loop
      vertex 38.5 -2.59808 0
      vertex 35.3161 -5.20201 3
      vertex 37.9926 -2.22943 0
    endloop
  endfacet
  facet normal -0.521472 -0.300988 -0.798419
    outer loop
      vertex 37.5729 -1.76336 0
      vertex 33.6052 -2.84716 3
      vertex 37.2594 -1.22021 0
    endloop
  endfacet
  facet normal -0.57264 -0.186056 -0.798415
    outer loop
      vertex 37.2594 -1.22021 0
      vertex 33.6052 -2.84716 3
      vertex 37.0656 -0.623734 0
    endloop
  endfacet
  facet normal 0.447457 0.402893 -0.79841
    outer loop
      vertex 45.6631 4.1145 3
      vertex 42.4271 1.76336 0
      vertex 44.6839 5.20201 3
    endloop
  endfacet
  facet normal -0.44743 0.402915 -0.798415
    outer loop
      vertex 37.5729 1.76336 0
      vertex 35.3161 5.20201 3
      vertex 37.9926 2.22943 0
    endloop
  endfacet
  facet normal -0.353913 0.487116 -0.798413
    outer loop
      vertex 37.9926 2.22943 0
      vertex 35.3161 5.20201 3
      vertex 38.5 2.59808 0
    endloop
  endfacet
  facet normal 0 0 -1
    outer loop
      vertex 42.9344 -0.623734 0
      vertex 42.9344 0.623734 0
      vertex 43 0 0
    endloop
  endfacet
  facet normal 0 0 -1
    outer loop
      vertex 42.7406 -1.22021 0
      vertex 42.9344 0.623734 0
      vertex 42.9344 -0.623734 0
    endloop
  endfacet
  facet normal 0 0 -1
    outer loop
      vertex 42.7406 -1.22021 0
      vertex 42.7406 1.22021 0
      vertex 42.9344 0.623734 0
    endloop
  endfacet
  facet normal 0 0 -1
    outer loop
      vertex 42.4271 -1.76336 0
      vertex 42.7406 1.22021 0
      vertex 42.7406 -1.22021 0
    endloop
  endfacet
  facet normal 0 0 -1
    outer loop
      vertex 42.4271 -1.76336 0
      vertex 42.4271 1.76336 0
      vertex 42.7406 1.22021 0
    endloop
  endfacet
  facet normal 0 0 -1
    outer loop
      vertex 42.0074 -2.22943 0
      vertex 42.4271 1.76336 0
      vertex 42.4271 -1.76336 0
    endloop
  endfacet
  facet normal 0 0 -1
    outer loop
      vertex 42.0074 -2.22943 0
      vertex 42.0074 2.22943 0
      vertex 42.4271 1.76336 0
    endloop
  endfacet
  facet normal 0 0 -1
    outer loop
      vertex 41.5 -2.59808 0
      vertex 42.0074 2.22943 0
      vertex 42.0074 -2.22943 0
    endloop
  endfacet
  facet normal 0 0 -1
    outer loop
      vertex 41.5 -2.59808 0
      vertex 41.5 2.59808 0
      vertex 42.0074 2.22943 0
    endloop
  endfacet
  facet normal 0 0 -1
    outer loop
      vertex 40.9271 -2.85317 0
      vertex 41.5 2.59808 0
      vertex 41.5 -2.59808 0
    endloop
  endfacet
  facet normal 0 0 -1
    outer loop
      vertex 40.9271 -2.85317 0
      vertex 40.9271 2.85317 0
      vertex 41.5 2.59808 0
    endloop
  endfacet
  facet normal 0 0 -1
    outer loop
      vertex 40.3136 -2.98357 0
      vertex 40.9271 2.85317 0
      vertex 40.9271 -2.85317 0
    endloop
  endfacet
  facet normal 0 0 -1
    outer loop
      vertex 40.3136 -2.98357 0
      vertex 40.3136 2.98357 0
      vertex 40.9271 2.85317 0
    endloop
  endfacet
  facet normal 0 0 -1
    outer loop
      vertex 39.6864 -2.98357 0
      vertex 40.3136 2.98357 0
      vertex 40.3136 -2.98357 0
    endloop
  endfacet
  facet normal 0 0 -1
    outer loop
      vertex 39.6864 -2.98357 0
      vertex 39.6864 2.98357 0
      vertex 40.3136 2.98357 0
    endloop
  endfacet
  facet normal 0 0 -1
    outer loop
      vertex 39.0729 -2.85317 0
      vertex 39.6864 2.98357 0
      vertex 39.6864 -2.98357 0
    endloop
  endfacet
  facet normal 0 0 -1
    outer loop
      vertex 39.0729 -2.85317 0
      vertex 39.0729 2.85317 0
      vertex 39.6864 2.98357 0
    endloop
  endfacet
  facet normal 0 0 -1
    outer loop
      vertex 38.5 -2.59808 0
      vertex 39.0729 2.85317 0
      vertex 39.0729 -2.85317 0
    endloop
  endfacet
  facet normal 0 0 -1
    outer loop
      vertex 38.5 -2.59808 0
      vertex 38.5 2.59808 0
      vertex 39.0729 2.85317 0
    endloop
  endfacet
  facet normal 0 0 -1
    outer loop
      vertex 37.9926 -2.22943 0
      vertex 38.5 2.59808 0
      vertex 38.5 -2.59808 0
    endloop
  endfacet
  facet normal 0 0 -1
    outer loop
      vertex 37.9926 -2.22943 0
      vertex 37.9926 2.22943 0
      vertex 38.5 2.59808 0
    endloop
  endfacet
  facet normal 0 0 -1
    outer loop
      vertex 37.5729 -1.76336 0
      vertex 37.9926 2.22943 0
      vertex 37.9926 -2.22943 0
    endloop
  endfacet
  facet normal 0 0 -1
    outer loop
      vertex 37.5729 -1.76336 0
      vertex 37.5729 1.76336 0
      vertex 37.9926 2.22943 0
    endloop
  endfacet
  facet normal 0 0 -1
    outer loop
      vertex 37.2594 -1.22021 0
      vertex 37.5729 1.76336 0
      vertex 37.5729 -1.76336 0
    endloop
  endfacet
  facet normal 0 0 -1
    outer loop
      vertex 37.2594 -1.22021 0
      vertex 37.2594 1.22021 0
      vertex 37.5729 1.76336 0
    endloop
  endfacet
  facet normal 0 0 -1
    outer loop
      vertex 37.0656 -0.623734 0
      vertex 37.2594 1.22021 0
      vertex 37.2594 -1.22021 0
    endloop
  endfacet
  facet normal 0 0 -1
    outer loop
      vertex 37.0656 -0.623734 0
      vertex 37.0656 0.623734 0
      vertex 37.2594 1.22021 0
    endloop
  endfacet
  facet normal 0 -0 -1
    outer loop
      vertex 37.0656 0.623734 0
      vertex 37.0656 -0.623734 0
      vertex 37 0 0
    endloop
  endfacet
  facet normal -0.598809 0.0629786 -0.798412
    outer loop
      vertex 37 0 0
      vertex 33 0 3
      vertex 37.0656 0.623734 0
    endloop
  endfacet
  facet normal 0 -0.60211 -0.798413
    outer loop
      vertex 40.7317 -6.96165 3
      vertex 39.6864 -2.98357 0
      vertex 40.3136 -2.98357 0
    endloop
  endfacet
  facet normal 0 -0.60211 -0.798413
    outer loop
      vertex 39.6864 -2.98357 0
      vertex 40.7317 -6.96165 3
      vertex 39.2683 -6.96165 3
    endloop
  endfacet
  facet normal 0.244914 0.550046 -0.798415
    outer loop
      vertex 41.5 2.59808 0
      vertex 40.9271 2.85317 0
      vertex 43.5 6.06218 3
    endloop
  endfacet
  facet normal 0 0.60211 -0.798413
    outer loop
      vertex 39.6864 2.98357 0
      vertex 40.7317 6.96165 3
      vertex 40.3136 2.98357 0
    endloop
  endfacet
  facet normal 0 0.60211 -0.798413
    outer loop
      vertex 40.7317 6.96165 3
      vertex 39.6864 2.98357 0
      vertex 39.2683 6.96165 3
    endloop
  endfacet
  facet normal -0.353915 0.487114 -0.798414
    outer loop
      vertex 38.5 2.59808 0
      vertex 35.3161 5.20201 3
      vertex 36.5 6.06218 3
    endloop
  endfacet
  facet normal -0.244914 0.550046 -0.798415
    outer loop
      vertex 38.5 2.59808 0
      vertex 36.5 6.06218 3
      vertex 39.0729 2.85317 0
    endloop
  endfacet
  facet normal -0.57264 0.186055 -0.798415
    outer loop
      vertex 37.0656 0.623734 0
      vertex 33.153 1.45538 3
      vertex 33.6052 2.84716 3
    endloop
  endfacet
  facet normal -0.57264 0.186056 -0.798415
    outer loop
      vertex 37.0656 0.623734 0
      vertex 33.6052 2.84716 3
      vertex 37.2594 1.22021 0
    endloop
  endfacet
  facet normal -0.598809 -0.0629786 -0.798412
    outer loop
      vertex 37.0656 -0.623734 0
      vertex 33 0 3
      vertex 37 0 0
    endloop
  endfacet
  facet normal -0.598807 -0.0629509 -0.798415
    outer loop
      vertex 33.153 -1.45538 3
      vertex 33 0 3
      vertex 37.0656 -0.623734 0
    endloop
  endfacet
  facet normal -0.125182 -0.588953 -0.798413
    outer loop
      vertex 39.2683 -6.96165 3
      vertex 39.0729 -2.85317 0
      vertex 39.6864 -2.98357 0
    endloop
  endfacet
  facet normal 0.521446 0.301058 -0.79841
    outer loop
      vertex 46.3948 2.84716 3
      vertex 42.4271 1.76336 0
      vertex 45.6631 4.1145 3
    endloop
  endfacet
  facet normal 0.353915 0.487114 -0.798414
    outer loop
      vertex 44.6839 5.20201 3
      vertex 41.5 2.59808 0
      vertex 43.5 6.06218 3
    endloop
  endfacet
  facet normal 0.57264 0.186055 -0.798415
    outer loop
      vertex 46.847 1.45538 3
      vertex 42.9344 0.623734 0
      vertex 46.3948 2.84716 3
    endloop
  endfacet
  facet normal 0.125184 0.588953 -0.798413
    outer loop
      vertex 40.9271 2.85317 0
      vertex 40.7317 6.96165 3
      vertex 42.1631 6.6574 3
    endloop
  endfacet
  facet normal -0.125182 0.588953 -0.798413
    outer loop
      vertex 39.6864 2.98357 0
      vertex 39.0729 2.85317 0
      vertex 39.2683 6.96165 3
    endloop
  endfacet
  facet normal -0.125184 0.588953 -0.798413
    outer loop
      vertex 39.0729 2.85317 0
      vertex 37.8369 6.6574 3
      vertex 39.2683 6.96165 3
    endloop
  endfacet
  facet normal -0.521472 0.300988 -0.798419
    outer loop
      vertex 37.2594 1.22021 0
      vertex 33.6052 2.84716 3
      vertex 37.5729 1.76336 0
    endloop
  endfacet
  facet normal 0.353913 0.487116 -0.798413
    outer loop
      vertex 42.0074 2.22943 0
      vertex 41.5 2.59808 0
      vertex 44.6839 5.20201 3
    endloop
  endfacet
  facet normal 0.44743 0.402915 -0.798415
    outer loop
      vertex 42.4271 1.76336 0
      vertex 42.0074 2.22943 0
      vertex 44.6839 5.20201 3
    endloop
  endfacet
  facet normal 0.521472 0.300988 -0.798419
    outer loop
      vertex 42.7406 1.22021 0
      vertex 42.4271 1.76336 0
      vertex 46.3948 2.84716 3
    endloop
  endfacet
  facet normal 0.57264 0.186056 -0.798415
    outer loop
      vertex 42.9344 0.623734 0
      vertex 42.7406 1.22021 0
      vertex 46.3948 2.84716 3
    endloop
  endfacet
  facet normal 0.125182 0.588953 -0.798413
    outer loop
      vertex 40.9271 2.85317 0
      vertex 40.3136 2.98357 0
      vertex 40.7317 6.96165 3
    endloop
  endfacet
  facet normal -0.427197 -0.1388 -0.893441
    outer loop
      vertex 53.6052 -2.84716 2
      vertex 53.153 -1.45538 2
      vertex 57.0656 -0.623734 0
    endloop
  endfacet
  facet normal 0.44672 0.0469624 -0.89344
    outer loop
      vertex 67 0 2
      vertex 63 0 0
      vertex 66.847 1.45538 2
    endloop
  endfacet
  facet normal 0.446714 0.0469822 -0.893442
    outer loop
      vertex 63 0 0
      vertex 62.9344 0.623734 0
      vertex 66.847 1.45538 2
    endloop
  endfacet
  facet normal 0.446714 -0.0469822 -0.893442
    outer loop
      vertex 66.847 -1.45538 2
      vertex 62.9344 -0.623734 0
      vertex 63 0 0
    endloop
  endfacet
  facet normal 0.0933878 -0.439367 -0.89344
    outer loop
      vertex 60.7317 -6.96165 2
      vertex 60.3136 -2.98357 0
      vertex 60.9271 -2.85317 0
    endloop
  endfacet
  facet normal -0.182698 0.41035 -0.89344
    outer loop
      vertex 59.0729 2.85317 0
      vertex 56.5 6.06218 2
      vertex 57.8369 6.6574 2
    endloop
  endfacet
  facet normal 0.33381 -0.300564 -0.893438
    outer loop
      vertex 64.6839 -5.20201 2
      vertex 62.4271 -1.76336 0
      vertex 65.6631 -4.1145 2
    endloop
  endfacet
  facet normal 0.264026 -0.363393 -0.893441
    outer loop
      vertex 63.5 -6.06218 2
      vertex 61.5 -2.59808 0
      vertex 64.6839 -5.20201 2
    endloop
  endfacet
  facet normal 0.182709 -0.410342 -0.893441
    outer loop
      vertex 63.5 -6.06218 2
      vertex 60.9271 -2.85317 0
      vertex 61.5 -2.59808 0
    endloop
  endfacet
  facet normal -0.333789 -0.30058 -0.893441
    outer loop
      vertex 57.9926 -2.22943 0
      vertex 55.3161 -5.20201 2
      vertex 57.5729 -1.76336 0
    endloop
  endfacet
  facet normal -0.264026 -0.363393 -0.893441
    outer loop
      vertex 56.5 -6.06218 2
      vertex 55.3161 -5.20201 2
      vertex 58.5 -2.59808 0
    endloop
  endfacet
  facet normal -0.389007 0.224593 -0.893438
    outer loop
      vertex 57.5729 1.76336 0
      vertex 53.6052 2.84716 2
      vertex 54.3369 4.1145 2
    endloop
  endfacet
  facet normal 0.427197 -0.1388 -0.893441
    outer loop
      vertex 66.3948 -2.84716 2
      vertex 62.9344 -0.623734 0
      vertex 66.847 -1.45538 2
    endloop
  endfacet
  facet normal 0.44672 -0.0469624 -0.89344
    outer loop
      vertex 66.847 -1.45538 2
      vertex 63 0 0
      vertex 67 0 2
    endloop
  endfacet
  facet normal 0.389024 -0.22454 -0.893444
    outer loop
      vertex 66.3948 -2.84716 2
      vertex 62.4271 -1.76336 0
      vertex 62.7406 -1.22021 0
    endloop
  endfacet
  facet normal 0.389007 -0.224593 -0.893438
    outer loop
      vertex 65.6631 -4.1145 2
      vertex 62.4271 -1.76336 0
      vertex 66.3948 -2.84716 2
    endloop
  endfacet
  facet normal 0.264024 -0.363395 -0.89344
    outer loop
      vertex 64.6839 -5.20201 2
      vertex 61.5 -2.59808 0
      vertex 62.0074 -2.22943 0
    endloop
  endfacet
  facet normal -0.33381 -0.300564 -0.893438
    outer loop
      vertex 55.3161 -5.20201 2
      vertex 54.3369 -4.1145 2
      vertex 57.5729 -1.76336 0
    endloop
  endfacet
  facet normal -0.182698 -0.41035 -0.89344
    outer loop
      vertex 57.8369 -6.6574 2
      vertex 56.5 -6.06218 2
      vertex 59.0729 -2.85317 0
    endloop
  endfacet
  facet normal -0.389007 -0.224593 -0.893438
    outer loop
      vertex 54.3369 -4.1145 2
      vertex 53.6052 -2.84716 2
      vertex 57.5729 -1.76336 0
    endloop
  endfacet
  facet normal 0.182709 0.410342 -0.893441
    outer loop
      vertex 61.5 2.59808 0
      vertex 60.9271 2.85317 0
      vertex 63.5 6.06218 2
    endloop
  endfacet
  facet normal -0.33381 0.300564 -0.893438
    outer loop
      vertex 57.5729 1.76336 0
      vertex 54.3369 4.1145 2
      vertex 55.3161 5.20201 2
    endloop
  endfacet
  facet normal 0 0 1
    outer loop
      vertex 66.847 1.45538 2
      vertex 66.847 -1.45538 2
      vertex 67 0 2
    endloop
  endfacet
  facet normal 0 0 1
    outer loop
      vertex 66.3948 2.84716 2
      vertex 66.847 -1.45538 2
      vertex 66.847 1.45538 2
    endloop
  endfacet
  facet normal 0 0 1
    outer loop
      vertex 66.3948 2.84716 2
      vertex 66.3948 -2.84716 2
      vertex 66.847 -1.45538 2
    endloop
  endfacet
  facet normal 0 0 1
    outer loop
      vertex 65.6631 4.1145 2
      vertex 66.3948 -2.84716 2
      vertex 66.3948 2.84716 2
    endloop
  endfacet
  facet normal 0 0 1
    outer loop
      vertex 65.6631 4.1145 2
      vertex 65.6631 -4.1145 2
      vertex 66.3948 -2.84716 2
    endloop
  endfacet
  facet normal 0 0 1
    outer loop
      vertex 64.6839 5.20201 2
      vertex 65.6631 -4.1145 2
      vertex 65.6631 4.1145 2
    endloop
  endfacet
  facet normal 0 0 1
    outer loop
      vertex 64.6839 5.20201 2
      vertex 64.6839 -5.20201 2
      vertex 65.6631 -4.1145 2
    endloop
  endfacet
  facet normal 0 0 1
    outer loop
      vertex 63.5 6.06218 2
      vertex 64.6839 -5.20201 2
      vertex 64.6839 5.20201 2
    endloop
  endfacet
  facet normal 0 0 1
    outer loop
      vertex 63.5 6.06218 2
      vertex 63.5 -6.06218 2
      vertex 64.6839 -5.20201 2
    endloop
  endfacet
  facet normal 0 0 1
    outer loop
      vertex 62.1631 6.6574 2
      vertex 63.5 -6.06218 2
      vertex 63.5 6.06218 2
    endloop
  endfacet
  facet normal 0 0 1
    outer loop
      vertex 62.1631 6.6574 2
      vertex 62.1631 -6.6574 2
      vertex 63.5 -6.06218 2
    endloop
  endfacet
  facet normal 0 0 1
    outer loop
      vertex 60.7317 6.96165 2
      vertex 62.1631 -6.6574 2
      vertex 62.1631 6.6574 2
    endloop
  endfacet
  facet normal 0 0 1
    outer loop
      vertex 60.7317 6.96165 2
      vertex 60.7317 -6.96165 2
      vertex 62.1631 -6.6574 2
    endloop
  endfacet
  facet normal -0 0 1
    outer loop
      vertex 59.2683 6.96165 2
      vertex 60.7317 -6.96165 2
      vertex 60.7317 6.96165 2
    endloop
  endfacet
  facet normal 0 0 1
    outer loop
      vertex 59.2683 6.96165 2
      vertex 59.2683 -6.96165 2
      vertex 60.7317 -6.96165 2
    endloop
  endfacet
  facet normal -0 0 1
    outer loop
      vertex 57.8369 6.6574 2
      vertex 59.2683 -6.96165 2
      vertex 59.2683 6.96165 2
    endloop
  endfacet
  facet normal 0 0 1
    outer loop
      vertex 57.8369 6.6574 2
      vertex 57.8369 -6.6574 2
      vertex 59.2683 -6.96165 2
    endloop
  endfacet
  facet normal -0 0 1
    outer loop
      vertex 56.5 6.06218 2
      vertex 57.8369 -6.6574 2
      vertex 57.8369 6.6574 2
    endloop
  endfacet
  facet normal 0 0 1
    outer loop
      vertex 56.5 6.06218 2
      vertex 56.5 -6.06218 2
      vertex 57.8369 -6.6574 2
    endloop
  endfacet
  facet normal -0 0 1
    outer loop
      vertex 55.3161 5.20201 2
      vertex 56.5 -6.06218 2
      vertex 56.5 6.06218 2
    endloop
  endfacet
  facet normal 0 0 1
    outer loop
      vertex 55.3161 5.20201 2
      vertex 55.3161 -5.20201 2
      vertex 56.5 -6.06218 2
    endloop
  endfacet
  facet normal -0 0 1
    outer loop
      vertex 54.3369 4.1145 2
      vertex 55.3161 -5.20201 2
      vertex 55.3161 5.20201 2
    endloop
  endfacet
  facet normal 0 0 1
    outer loop
      vertex 54.3369 4.1145 2
      vertex 54.3369 -4.1145 2
      vertex 55.3161 -5.20201 2
    endloop
  endfacet
  facet normal -0 0 1
    outer loop
      vertex 53.6052 2.84716 2
      vertex 54.3369 -4.1145 2
      vertex 54.3369 4.1145 2
    endloop
  endfacet
  facet normal 0 0 1
    outer loop
      vertex 53.6052 2.84716 2
      vertex 53.6052 -2.84716 2
      vertex 54.3369 -4.1145 2
    endloop
  endfacet
  facet normal -0 0 1
    outer loop
      vertex 53.153 1.45538 2
      vertex 53.6052 -2.84716 2
      vertex 53.6052 2.84716 2
    endloop
  endfacet
  facet normal 0 0 1
    outer loop
      vertex 53.153 1.45538 2
      vertex 53.153 -1.45538 2
      vertex 53.6052 -2.84716 2
    endloop
  endfacet
  facet normal 0 -0 1
    outer loop
      vertex 53.153 -1.45538 2
      vertex 53.153 1.45538 2
      vertex 53 0 2
    endloop
  endfacet
  facet normal -0.446718 0.0469622 -0.893442
    outer loop
      vertex 57.0656 0.623734 0
      vertex 53 0 2
      vertex 53.153 1.45538 2
    endloop
  endfacet
  facet normal 0.427197 -0.1388 -0.893441
    outer loop
      vertex 66.3948 -2.84716 2
      vertex 62.7406 -1.22021 0
      vertex 62.9344 -0.623734 0
    endloop
  endfacet
  facet normal 0.182698 -0.41035 -0.89344
    outer loop
      vertex 62.1631 -6.6574 2
      vertex 60.9271 -2.85317 0
      vertex 63.5 -6.06218 2
    endloop
  endfacet
  facet normal 0.0933892 -0.439367 -0.89344
    outer loop
      vertex 62.1631 -6.6574 2
      vertex 60.7317 -6.96165 2
      vertex 60.9271 -2.85317 0
    endloop
  endfacet
  facet normal 0.333789 -0.30058 -0.893441
    outer loop
      vertex 64.6839 -5.20201 2
      vertex 62.0074 -2.22943 0
      vertex 62.4271 -1.76336 0
    endloop
  endfacet
  facet normal -0.182709 -0.410342 -0.893441
    outer loop
      vertex 59.0729 -2.85317 0
      vertex 56.5 -6.06218 2
      vertex 58.5 -2.59808 0
    endloop
  endfacet
  facet normal -0.0933892 -0.439367 -0.89344
    outer loop
      vertex 59.2683 -6.96165 2
      vertex 57.8369 -6.6574 2
      vertex 59.0729 -2.85317 0
    endloop
  endfacet
  facet normal -0.264024 -0.363395 -0.89344
    outer loop
      vertex 58.5 -2.59808 0
      vertex 55.3161 -5.20201 2
      vertex 57.9926 -2.22943 0
    endloop
  endfacet
  facet normal -0.389024 -0.22454 -0.893444
    outer loop
      vertex 57.5729 -1.76336 0
      vertex 53.6052 -2.84716 2
      vertex 57.2594 -1.22021 0
    endloop
  endfacet
  facet normal -0.427197 -0.1388 -0.893441
    outer loop
      vertex 57.2594 -1.22021 0
      vertex 53.6052 -2.84716 2
      vertex 57.0656 -0.623734 0
    endloop
  endfacet
  facet normal 0.0933878 0.439367 -0.89344
    outer loop
      vertex 60.9271 2.85317 0
      vertex 60.3136 2.98357 0
      vertex 60.7317 6.96165 2
    endloop
  endfacet
  facet normal -0.333789 0.30058 -0.893441
    outer loop
      vertex 57.5729 1.76336 0
      vertex 55.3161 5.20201 2
      vertex 57.9926 2.22943 0
    endloop
  endfacet
  facet normal -0.264024 0.363395 -0.89344
    outer loop
      vertex 57.9926 2.22943 0
      vertex 55.3161 5.20201 2
      vertex 58.5 2.59808 0
    endloop
  endfacet
  facet normal 0 0 -1
    outer loop
      vertex 62.9344 -0.623734 0
      vertex 62.9344 0.623734 0
      vertex 63 0 0
    endloop
  endfacet
  facet normal 0 0 -1
    outer loop
      vertex 62.7406 -1.22021 0
      vertex 62.9344 0.623734 0
      vertex 62.9344 -0.623734 0
    endloop
  endfacet
  facet normal 0 0 -1
    outer loop
      vertex 62.7406 -1.22021 0
      vertex 62.7406 1.22021 0
      vertex 62.9344 0.623734 0
    endloop
  endfacet
  facet normal 0 0 -1
    outer loop
      vertex 62.4271 -1.76336 0
      vertex 62.7406 1.22021 0
      vertex 62.7406 -1.22021 0
    endloop
  endfacet
  facet normal 0 0 -1
    outer loop
      vertex 62.4271 -1.76336 0
      vertex 62.4271 1.76336 0
      vertex 62.7406 1.22021 0
    endloop
  endfacet
  facet normal 0 0 -1
    outer loop
      vertex 62.0074 -2.22943 0
      vertex 62.4271 1.76336 0
      vertex 62.4271 -1.76336 0
    endloop
  endfacet
  facet normal 0 0 -1
    outer loop
      vertex 62.0074 -2.22943 0
      vertex 62.0074 2.22943 0
      vertex 62.4271 1.76336 0
    endloop
  endfacet
  facet normal 0 0 -1
    outer loop
      vertex 61.5 -2.59808 0
      vertex 62.0074 2.22943 0
      vertex 62.0074 -2.22943 0
    endloop
  endfacet
  facet normal 0 0 -1
    outer loop
      vertex 61.5 -2.59808 0
      vertex 61.5 2.59808 0
      vertex 62.0074 2.22943 0
    endloop
  endfacet
  facet normal 0 0 -1
    outer loop
      vertex 60.9271 -2.85317 0
      vertex 61.5 2.59808 0
      vertex 61.5 -2.59808 0
    endloop
  endfacet
  facet normal 0 0 -1
    outer loop
      vertex 60.9271 -2.85317 0
      vertex 60.9271 2.85317 0
      vertex 61.5 2.59808 0
    endloop
  endfacet
  facet normal 0 0 -1
    outer loop
      vertex 60.3136 -2.98357 0
      vertex 60.9271 2.85317 0
      vertex 60.9271 -2.85317 0
    endloop
  endfacet
  facet normal 0 0 -1
    outer loop
      vertex 60.3136 -2.98357 0
      vertex 60.3136 2.98357 0
      vertex 60.9271 2.85317 0
    endloop
  endfacet
  facet normal 0 0 -1
    outer loop
      vertex 59.6864 -2.98357 0
      vertex 60.3136 2.98357 0
      vertex 60.3136 -2.98357 0
    endloop
  endfacet
  facet normal 0 0 -1
    outer loop
      vertex 59.6864 -2.98357 0
      vertex 59.6864 2.98357 0
      vertex 60.3136 2.98357 0
    endloop
  endfacet
  facet normal 0 0 -1
    outer loop
      vertex 59.0729 -2.85317 0
      vertex 59.6864 2.98357 0
      vertex 59.6864 -2.98357 0
    endloop
  endfacet
  facet normal 0 0 -1
    outer loop
      vertex 59.0729 -2.85317 0
      vertex 59.0729 2.85317 0
      vertex 59.6864 2.98357 0
    endloop
  endfacet
  facet normal 0 0 -1
    outer loop
      vertex 58.5 -2.59808 0
      vertex 59.0729 2.85317 0
      vertex 59.0729 -2.85317 0
    endloop
  endfacet
  facet normal 0 0 -1
    outer loop
      vertex 58.5 -2.59808 0
      vertex 58.5 2.59808 0
      vertex 59.0729 2.85317 0
    endloop
  endfacet
  facet normal 0 0 -1
    outer loop
      vertex 57.9926 -2.22943 0
      vertex 58.5 2.59808 0
      vertex 58.5 -2.59808 0
    endloop
  endfacet
  facet normal 0 0 -1
    outer loop
      vertex 57.9926 -2.22943 0
      vertex 57.9926 2.22943 0
      vertex 58.5 2.59808 0
    endloop
  endfacet
  facet normal 0 0 -1
    outer loop
      vertex 57.5729 -1.76336 0
      vertex 57.9926 2.22943 0
      vertex 57.9926 -2.22943 0
    endloop
  endfacet
  facet normal 0 0 -1
    outer loop
      vertex 57.5729 -1.76336 0
      vertex 57.5729 1.76336 0
      vertex 57.9926 2.22943 0
    endloop
  endfacet
  facet normal 0 0 -1
    outer loop
      vertex 57.2594 -1.22021 0
      vertex 57.5729 1.76336 0
      vertex 57.5729 -1.76336 0
    endloop
  endfacet
  facet normal 0 0 -1
    outer loop
      vertex 57.2594 -1.22021 0
      vertex 57.2594 1.22021 0
      vertex 57.5729 1.76336 0
    endloop
  endfacet
  facet normal 0 0 -1
    outer loop
      vertex 57.0656 -0.623734 0
      vertex 57.2594 1.22021 0
      vertex 57.2594 -1.22021 0
    endloop
  endfacet
  facet normal 0 0 -1
    outer loop
      vertex 57.0656 -0.623734 0
      vertex 57.0656 0.623734 0
      vertex 57.2594 1.22021 0
    endloop
  endfacet
  facet normal 0 -0 -1
    outer loop
      vertex 57.0656 0.623734 0
      vertex 57.0656 -0.623734 0
      vertex 57 0 0
    endloop
  endfacet
  facet normal -0.44672 0.0469829 -0.893439
    outer loop
      vertex 57 0 0
      vertex 53 0 2
      vertex 57.0656 0.623734 0
    endloop
  endfacet
  facet normal 0 -0.449182 -0.89344
    outer loop
      vertex 60.7317 -6.96165 2
      vertex 59.6864 -2.98357 0
      vertex 60.3136 -2.98357 0
    endloop
  endfacet
  facet normal 0 -0.449182 -0.89344
    outer loop
      vertex 59.6864 -2.98357 0
      vertex 60.7317 -6.96165 2
      vertex 59.2683 -6.96165 2
    endloop
  endfacet
  facet normal 0 0.449182 -0.89344
    outer loop
      vertex 59.6864 2.98357 0
      vertex 60.7317 6.96165 2
      vertex 60.3136 2.98357 0
    endloop
  endfacet
  facet normal 0 0.449182 -0.89344
    outer loop
      vertex 60.7317 6.96165 2
      vertex 59.6864 2.98357 0
      vertex 59.2683 6.96165 2
    endloop
  endfacet
  facet normal -0.264026 0.363393 -0.893441
    outer loop
      vertex 58.5 2.59808 0
      vertex 55.3161 5.20201 2
      vertex 56.5 6.06218 2
    endloop
  endfacet
  facet normal -0.182709 0.410342 -0.893441
    outer loop
      vertex 58.5 2.59808 0
      vertex 56.5 6.06218 2
      vertex 59.0729 2.85317 0
    endloop
  endfacet
  facet normal -0.427197 0.1388 -0.893441
    outer loop
      vertex 57.0656 0.623734 0
      vertex 53.153 1.45538 2
      vertex 53.6052 2.84716 2
    endloop
  endfacet
  facet normal -0.44672 -0.0469829 -0.893439
    outer loop
      vertex 57.0656 -0.623734 0
      vertex 53 0 2
      vertex 57 0 0
    endloop
  endfacet
  facet normal -0.446718 -0.0469622 -0.893442
    outer loop
      vertex 53.153 -1.45538 2
      vertex 53 0 2
      vertex 57.0656 -0.623734 0
    endloop
  endfacet
  facet normal -0.0933878 -0.439367 -0.89344
    outer loop
      vertex 59.2683 -6.96165 2
      vertex 59.0729 -2.85317 0
      vertex 59.6864 -2.98357 0
    endloop
  endfacet
  facet normal 0.33381 0.300564 -0.893438
    outer loop
      vertex 65.6631 4.1145 2
      vertex 62.4271 1.76336 0
      vertex 64.6839 5.20201 2
    endloop
  endfacet
  facet normal 0.389007 0.224593 -0.893438
    outer loop
      vertex 66.3948 2.84716 2
      vertex 62.4271 1.76336 0
      vertex 65.6631 4.1145 2
    endloop
  endfacet
  facet normal 0.264024 0.363395 -0.89344
    outer loop
      vertex 62.0074 2.22943 0
      vertex 61.5 2.59808 0
      vertex 64.6839 5.20201 2
    endloop
  endfacet
  facet normal 0.264026 0.363393 -0.893441
    outer loop
      vertex 64.6839 5.20201 2
      vertex 61.5 2.59808 0
      vertex 63.5 6.06218 2
    endloop
  endfacet
  facet normal 0.427197 0.1388 -0.893441
    outer loop
      vertex 66.847 1.45538 2
      vertex 62.9344 0.623734 0
      vertex 66.3948 2.84716 2
    endloop
  endfacet
  facet normal 0.0933892 0.439367 -0.89344
    outer loop
      vertex 60.9271 2.85317 0
      vertex 60.7317 6.96165 2
      vertex 62.1631 6.6574 2
    endloop
  endfacet
  facet normal 0.182698 0.41035 -0.89344
    outer loop
      vertex 63.5 6.06218 2
      vertex 60.9271 2.85317 0
      vertex 62.1631 6.6574 2
    endloop
  endfacet
  facet normal -0.0933878 0.439367 -0.89344
    outer loop
      vertex 59.6864 2.98357 0
      vertex 59.0729 2.85317 0
      vertex 59.2683 6.96165 2
    endloop
  endfacet
  facet normal -0.0933892 0.439367 -0.89344
    outer loop
      vertex 59.0729 2.85317 0
      vertex 57.8369 6.6574 2
      vertex 59.2683 6.96165 2
    endloop
  endfacet
  facet normal -0.427197 0.1388 -0.893441
    outer loop
      vertex 57.0656 0.623734 0
      vertex 53.6052 2.84716 2
      vertex 57.2594 1.22021 0
    endloop
  endfacet
  facet normal -0.389024 0.22454 -0.893444
    outer loop
      vertex 57.2594 1.22021 0
      vertex 53.6052 2.84716 2
      vertex 57.5729 1.76336 0
    endloop
  endfacet
  facet normal 0.333789 0.30058 -0.893441
    outer loop
      vertex 62.4271 1.76336 0
      vertex 62.0074 2.22943 0
      vertex 64.6839 5.20201 2
    endloop
  endfacet
  facet normal 0.389024 0.22454 -0.893444
    outer loop
      vertex 62.7406 1.22021 0
      vertex 62.4271 1.76336 0
      vertex 66.3948 2.84716 2
    endloop
  endfacet
  facet normal 0.427197 0.1388 -0.893441
    outer loop
      vertex 62.9344 0.623734 0
      vertex 62.7406 1.22021 0
      vertex 66.3948 2.84716 2
    endloop
  endfacet
  facet normal -0.171035 -0.055577 -0.983696
    outer loop
      vertex 77.2104 -5.69431 2
      vertex 76.3059 -2.91076 2
      vertex 87.0656 -0.623734 0
    endloop
  endfacet
  facet normal 0.178854 0.0188024 -0.983696
    outer loop
      vertex 104 0 2
      vertex 93 0 0
      vertex 103.694 2.91076 2
    endloop
  endfacet
  facet normal 0.178852 0.0188104 -0.983696
    outer loop
      vertex 93 0 0
      vertex 92.9344 0.623734 0
      vertex 103.694 2.91076 2
    endloop
  endfacet
  facet normal 0.178852 -0.0188104 -0.983696
    outer loop
      vertex 103.694 -2.91076 2
      vertex 92.9344 -0.623734 0
      vertex 93 0 0
    endloop
  endfacet
  facet normal 0.0373957 -0.175909 -0.983696
    outer loop
      vertex 91.4634 -13.9233 2
      vertex 90.3136 -2.98357 0
      vertex 90.927 -2.85317 0
    endloop
  endfacet
  facet normal 0.155729 -0.0899469 -0.983696
    outer loop
      vertex 101.326 -8.22899 2
      vertex 92.427 -1.76336 0
      vertex 102.79 -5.69431 2
    endloop
  endfacet
  facet normal 0.178854 -0.0188024 -0.983696
    outer loop
      vertex 103.694 -2.91076 2
      vertex 93 0 0
      vertex 104 0 2
    endloop
  endfacet
  facet normal 0.0731409 -0.164294 -0.983696
    outer loop
      vertex 97 -12.1244 2
      vertex 90.927 -2.85317 0
      vertex 91.5 -2.59808 0
    endloop
  endfacet
  facet normal -0.133655 -0.120329 -0.983696
    outer loop
      vertex 87.9926 -2.22943 0
      vertex 80.6322 -10.404 2
      vertex 87.573 -1.76336 0
    endloop
  endfacet
  facet normal -0.10571 -0.14549 -0.983696
    outer loop
      vertex 83 -12.1244 2
      vertex 80.6322 -10.404 2
      vertex 88.5 -2.59808 0
    endloop
  endfacet
  facet normal -0.0373902 0.175909 -0.983696
    outer loop
      vertex 89.073 2.85317 0
      vertex 85.6738 13.3148 2
      vertex 88.5366 13.9233 2
    endloop
  endfacet
  facet normal 0.0731409 0.164294 -0.983696
    outer loop
      vertex 91.5 2.59808 0
      vertex 90.927 2.85317 0
      vertex 97 12.1244 2
    endloop
  endfacet
  facet normal -0.133646 -0.120336 -0.983696
    outer loop
      vertex 80.6322 -10.404 2
      vertex 78.6738 -8.22899 2
      vertex 87.573 -1.76336 0
    endloop
  endfacet
  facet normal -0.0731442 -0.164292 -0.983696
    outer loop
      vertex 85.6738 -13.3148 2
      vertex 83 -12.1244 2
      vertex 89.073 -2.85317 0
    endloop
  endfacet
  facet normal -0.155745 -0.0899195 -0.983696
    outer loop
      vertex 78.6738 -8.22899 2
      vertex 77.2104 -5.69431 2
      vertex 87.573 -1.76336 0
    endloop
  endfacet
  facet normal -0.155745 0.0899195 -0.983696
    outer loop
      vertex 87.573 1.76336 0
      vertex 77.2104 5.69431 2
      vertex 78.6738 8.22899 2
    endloop
  endfacet
  facet normal 0.171043 -0.0555487 -0.983696
    outer loop
      vertex 102.79 -5.69431 2
      vertex 92.9344 -0.623734 0
      vertex 103.694 -2.91076 2
    endloop
  endfacet
  facet normal 0.0731442 -0.164292 -0.983696
    outer loop
      vertex 94.3262 -13.3148 2
      vertex 90.927 -2.85317 0
      vertex 97 -12.1244 2
    endloop
  endfacet
  facet normal 0.0373902 -0.175909 -0.983696
    outer loop
      vertex 91.4634 -13.9233 2
      vertex 90.927 -2.85317 0
      vertex 94.3262 -13.3148 2
    endloop
  endfacet
  facet normal 0.133655 -0.120329 -0.983696
    outer loop
      vertex 99.3678 -10.404 2
      vertex 92.0074 -2.22943 0
      vertex 92.427 -1.76336 0
    endloop
  endfacet
  facet normal 0.133653 -0.12033 -0.983696
    outer loop
      vertex 99.3678 -10.404 2
      vertex 92.427 -1.76336 0
      vertex 101.326 -8.22899 2
    endloop
  endfacet
  facet normal -0.0731409 -0.164294 -0.983696
    outer loop
      vertex 89.073 -2.85317 0
      vertex 83 -12.1244 2
      vertex 88.5 -2.59808 0
    endloop
  endfacet
  facet normal -0.0373902 -0.175909 -0.983696
    outer loop
      vertex 88.5366 -13.9233 2
      vertex 85.6738 -13.3148 2
      vertex 89.073 -2.85317 0
    endloop
  endfacet
  facet normal -0.105707 -0.145493 -0.983696
    outer loop
      vertex 88.5 -2.59808 0
      vertex 80.6322 -10.404 2
      vertex 87.9926 -2.22943 0
    endloop
  endfacet
  facet normal -0.155744 -0.0899223 -0.983696
    outer loop
      vertex 87.573 -1.76336 0
      vertex 77.2104 -5.69431 2
      vertex 87.2594 -1.22021 0
    endloop
  endfacet
  facet normal -0.171038 -0.0555716 -0.983696
    outer loop
      vertex 87.2594 -1.22021 0
      vertex 77.2104 -5.69431 2
      vertex 87.0656 -0.623734 0
    endloop
  endfacet
  facet normal -0.133646 0.120336 -0.983696
    outer loop
      vertex 87.573 1.76336 0
      vertex 78.6738 8.22899 2
      vertex 80.6322 10.404 2
    endloop
  endfacet
  facet normal 0 0 1
    outer loop
      vertex 103.694 2.91076 2
      vertex 103.694 -2.91076 2
      vertex 104 0 2
    endloop
  endfacet
  facet normal 0 0 1
    outer loop
      vertex 102.79 5.69431 2
      vertex 103.694 -2.91076 2
      vertex 103.694 2.91076 2
    endloop
  endfacet
  facet normal 0 0 1
    outer loop
      vertex 102.79 5.69431 2
      vertex 102.79 -5.69431 2
      vertex 103.694 -2.91076 2
    endloop
  endfacet
  facet normal 0 0 1
    outer loop
      vertex 101.326 8.22899 2
      vertex 102.79 -5.69431 2
      vertex 102.79 5.69431 2
    endloop
  endfacet
  facet normal 0 0 1
    outer loop
      vertex 101.326 8.22899 2
      vertex 101.326 -8.22899 2
      vertex 102.79 -5.69431 2
    endloop
  endfacet
  facet normal 0 0 1
    outer loop
      vertex 99.3678 10.404 2
      vertex 101.326 -8.22899 2
      vertex 101.326 8.22899 2
    endloop
  endfacet
  facet normal 0 0 1
    outer loop
      vertex 99.3678 10.404 2
      vertex 99.3678 -10.404 2
      vertex 101.326 -8.22899 2
    endloop
  endfacet
  facet normal 0 0 1
    outer loop
      vertex 97 12.1244 2
      vertex 99.3678 -10.404 2
      vertex 99.3678 10.404 2
    endloop
  endfacet
  facet normal 0 0 1
    outer loop
      vertex 97 12.1244 2
      vertex 97 -12.1244 2
      vertex 99.3678 -10.404 2
    endloop
  endfacet
  facet normal 0 0 1
    outer loop
      vertex 94.3262 13.3148 2
      vertex 97 -12.1244 2
      vertex 97 12.1244 2
    endloop
  endfacet
  facet normal 0 0 1
    outer loop
      vertex 94.3262 13.3148 2
      vertex 94.3262 -13.3148 2
      vertex 97 -12.1244 2
    endloop
  endfacet
  facet normal 0 0 1
    outer loop
      vertex 91.4634 13.9233 2
      vertex 94.3262 -13.3148 2
      vertex 94.3262 13.3148 2
    endloop
  endfacet
  facet normal 0 0 1
    outer loop
      vertex 91.4634 13.9233 2
      vertex 91.4634 -13.9233 2
      vertex 94.3262 -13.3148 2
    endloop
  endfacet
  facet normal -0 0 1
    outer loop
      vertex 88.5366 13.9233 2
      vertex 91.4634 -13.9233 2
      vertex 91.4634 13.9233 2
    endloop
  endfacet
  facet normal 0 0 1
    outer loop
      vertex 88.5366 13.9233 2
      vertex 88.5366 -13.9233 2
      vertex 91.4634 -13.9233 2
    endloop
  endfacet
  facet normal -0 0 1
    outer loop
      vertex 85.6738 13.3148 2
      vertex 88.5366 -13.9233 2
      vertex 88.5366 13.9233 2
    endloop
  endfacet
  facet normal 0 0 1
    outer loop
      vertex 85.6738 13.3148 2
      vertex 85.6738 -13.3148 2
      vertex 88.5366 -13.9233 2
    endloop
  endfacet
  facet normal -0 0 1
    outer loop
      vertex 83 12.1244 2
      vertex 85.6738 -13.3148 2
      vertex 85.6738 13.3148 2
    endloop
  endfacet
  facet normal 0 0 1
    outer loop
      vertex 83 12.1244 2
      vertex 83 -12.1244 2
      vertex 85.6738 -13.3148 2
    endloop
  endfacet
  facet normal -0 0 1
    outer loop
      vertex 80.6322 10.404 2
      vertex 83 -12.1244 2
      vertex 83 12.1244 2
    endloop
  endfacet
  facet normal 0 0 1
    outer loop
      vertex 80.6322 10.404 2
      vertex 80.6322 -10.404 2
      vertex 83 -12.1244 2
    endloop
  endfacet
  facet normal -0 0 1
    outer loop
      vertex 78.6738 8.22899 2
      vertex 80.6322 -10.404 2
      vertex 80.6322 10.404 2
    endloop
  endfacet
  facet normal 0 0 1
    outer loop
      vertex 78.6738 8.22899 2
      vertex 78.6738 -8.22899 2
      vertex 80.6322 -10.404 2
    endloop
  endfacet
  facet normal -0 0 1
    outer loop
      vertex 77.2104 5.69431 2
      vertex 78.6738 -8.22899 2
      vertex 78.6738 8.22899 2
    endloop
  endfacet
  facet normal 0 0 1
    outer loop
      vertex 77.2104 5.69431 2
      vertex 77.2104 -5.69431 2
      vertex 78.6738 -8.22899 2
    endloop
  endfacet
  facet normal -0 0 1
    outer loop
      vertex 76.3059 2.91076 2
      vertex 77.2104 -5.69431 2
      vertex 77.2104 5.69431 2
    endloop
  endfacet
  facet normal 0 0 1
    outer loop
      vertex 76.3059 2.91076 2
      vertex 76.3059 -2.91076 2
      vertex 77.2104 -5.69431 2
    endloop
  endfacet
  facet normal 0 -0 1
    outer loop
      vertex 76.3059 -2.91076 2
      vertex 76.3059 2.91076 2
      vertex 76 0 2
    endloop
  endfacet
  facet normal -0.178853 0.0187962 -0.983696
    outer loop
      vertex 87.0656 0.623734 0
      vertex 76 0 2
      vertex 76.3059 2.91076 2
    endloop
  endfacet
  facet normal 0.0373957 0.175909 -0.983696
    outer loop
      vertex 90.927 2.85317 0
      vertex 90.3136 2.98357 0
      vertex 91.4634 13.9233 2
    endloop
  endfacet
  facet normal 0.171032 -0.0555697 -0.983697
    outer loop
      vertex 102.79 -5.69431 2
      vertex 92.7406 -1.22021 0
      vertex 92.9344 -0.623734 0
    endloop
  endfacet
  facet normal 0.155739 -0.0899195 -0.983697
    outer loop
      vertex 102.79 -5.69431 2
      vertex 92.427 -1.76336 0
      vertex 92.7406 -1.22021 0
    endloop
  endfacet
  facet normal 0.105707 -0.145493 -0.983696
    outer loop
      vertex 99.3678 -10.404 2
      vertex 91.5 -2.59808 0
      vertex 92.0074 -2.22943 0
    endloop
  endfacet
  facet normal 0.10571 -0.14549 -0.983696
    outer loop
      vertex 97 -12.1244 2
      vertex 91.5 -2.59808 0
      vertex 99.3678 -10.404 2
    endloop
  endfacet
  facet normal 0 -0.179839 -0.983696
    outer loop
      vertex 91.4634 -13.9233 2
      vertex 89.6864 -2.98357 0
      vertex 90.3136 -2.98357 0
    endloop
  endfacet
  facet normal 0 -0.179839 -0.983696
    outer loop
      vertex 89.6864 -2.98357 0
      vertex 91.4634 -13.9233 2
      vertex 88.5366 -13.9233 2
    endloop
  endfacet
  facet normal -0.0731442 0.164292 -0.983696
    outer loop
      vertex 89.073 2.85317 0
      vertex 83 12.1244 2
      vertex 85.6738 13.3148 2
    endloop
  endfacet
  facet normal -0.133655 0.120329 -0.983696
    outer loop
      vertex 87.573 1.76336 0
      vertex 80.6322 10.404 2
      vertex 87.9926 2.22943 0
    endloop
  endfacet
  facet normal 0 0 -1
    outer loop
      vertex 92.9344 -0.623734 0
      vertex 92.9344 0.623734 0
      vertex 93 0 0
    endloop
  endfacet
  facet normal 0 0 -1
    outer loop
      vertex 92.7406 -1.22021 0
      vertex 92.9344 0.623734 0
      vertex 92.9344 -0.623734 0
    endloop
  endfacet
  facet normal 0 0 -1
    outer loop
      vertex 92.7406 -1.22021 0
      vertex 92.7406 1.22021 0
      vertex 92.9344 0.623734 0
    endloop
  endfacet
  facet normal 0 0 -1
    outer loop
      vertex 92.427 -1.76336 0
      vertex 92.7406 1.22021 0
      vertex 92.7406 -1.22021 0
    endloop
  endfacet
  facet normal 0 0 -1
    outer loop
      vertex 92.427 -1.76336 0
      vertex 92.427 1.76336 0
      vertex 92.7406 1.22021 0
    endloop
  endfacet
  facet normal 0 0 -1
    outer loop
      vertex 92.0074 -2.22943 0
      vertex 92.427 1.76336 0
      vertex 92.427 -1.76336 0
    endloop
  endfacet
  facet normal 0 0 -1
    outer loop
      vertex 92.0074 -2.22943 0
      vertex 92.0074 2.22943 0
      vertex 92.427 1.76336 0
    endloop
  endfacet
  facet normal 0 0 -1
    outer loop
      vertex 91.5 -2.59808 0
      vertex 92.0074 2.22943 0
      vertex 92.0074 -2.22943 0
    endloop
  endfacet
  facet normal 0 0 -1
    outer loop
      vertex 91.5 -2.59808 0
      vertex 91.5 2.59808 0
      vertex 92.0074 2.22943 0
    endloop
  endfacet
  facet normal 0 0 -1
    outer loop
      vertex 90.927 -2.85317 0
      vertex 91.5 2.59808 0
      vertex 91.5 -2.59808 0
    endloop
  endfacet
  facet normal 0 0 -1
    outer loop
      vertex 90.927 -2.85317 0
      vertex 90.927 2.85317 0
      vertex 91.5 2.59808 0
    endloop
  endfacet
  facet normal 0 0 -1
    outer loop
      vertex 90.3136 -2.98357 0
      vertex 90.927 2.85317 0
      vertex 90.927 -2.85317 0
    endloop
  endfacet
  facet normal 0 0 -1
    outer loop
      vertex 90.3136 -2.98357 0
      vertex 90.3136 2.98357 0
      vertex 90.927 2.85317 0
    endloop
  endfacet
  facet normal 0 0 -1
    outer loop
      vertex 89.6864 -2.98357 0
      vertex 90.3136 2.98357 0
      vertex 90.3136 -2.98357 0
    endloop
  endfacet
  facet normal 0 0 -1
    outer loop
      vertex 89.6864 -2.98357 0
      vertex 89.6864 2.98357 0
      vertex 90.3136 2.98357 0
    endloop
  endfacet
  facet normal 0 0 -1
    outer loop
      vertex 89.073 -2.85317 0
      vertex 89.6864 2.98357 0
      vertex 89.6864 -2.98357 0
    endloop
  endfacet
  facet normal 0 0 -1
    outer loop
      vertex 89.073 -2.85317 0
      vertex 89.073 2.85317 0
      vertex 89.6864 2.98357 0
    endloop
  endfacet
  facet normal 0 0 -1
    outer loop
      vertex 88.5 -2.59808 0
      vertex 89.073 2.85317 0
      vertex 89.073 -2.85317 0
    endloop
  endfacet
  facet normal 0 0 -1
    outer loop
      vertex 88.5 -2.59808 0
      vertex 88.5 2.59808 0
      vertex 89.073 2.85317 0
    endloop
  endfacet
  facet normal 0 0 -1
    outer loop
      vertex 87.9926 -2.22943 0
      vertex 88.5 2.59808 0
      vertex 88.5 -2.59808 0
    endloop
  endfacet
  facet normal 0 0 -1
    outer loop
      vertex 87.9926 -2.22943 0
      vertex 87.9926 2.22943 0
      vertex 88.5 2.59808 0
    endloop
  endfacet
  facet normal 0 0 -1
    outer loop
      vertex 87.573 -1.76336 0
      vertex 87.9926 2.22943 0
      vertex 87.9926 -2.22943 0
    endloop
  endfacet
  facet normal 0 0 -1
    outer loop
      vertex 87.573 -1.76336 0
      vertex 87.573 1.76336 0
      vertex 87.9926 2.22943 0
    endloop
  endfacet
  facet normal 0 0 -1
    outer loop
      vertex 87.2594 -1.22021 0
      vertex 87.573 1.76336 0
      vertex 87.573 -1.76336 0
    endloop
  endfacet
  facet normal 0 0 -1
    outer loop
      vertex 87.2594 -1.22021 0
      vertex 87.2594 1.22021 0
      vertex 87.573 1.76336 0
    endloop
  endfacet
  facet normal 0 0 -1
    outer loop
      vertex 87.0656 -0.623734 0
      vertex 87.2594 1.22021 0
      vertex 87.2594 -1.22021 0
    endloop
  endfacet
  facet normal 0 0 -1
    outer loop
      vertex 87.0656 -0.623734 0
      vertex 87.0656 0.623734 0
      vertex 87.2594 1.22021 0
    endloop
  endfacet
  facet normal 0 -0 -1
    outer loop
      vertex 87.0656 0.623734 0
      vertex 87.0656 -0.623734 0
      vertex 87 0 0
    endloop
  endfacet
  facet normal -0.178854 0.0188106 -0.983696
    outer loop
      vertex 87 0 0
      vertex 76 0 2
      vertex 87.0656 0.623734 0
    endloop
  endfacet
  facet normal 0 0.179839 -0.983696
    outer loop
      vertex 89.6864 2.98357 0
      vertex 91.4634 13.9233 2
      vertex 90.3136 2.98357 0
    endloop
  endfacet
  facet normal 0 0.179839 -0.983696
    outer loop
      vertex 91.4634 13.9233 2
      vertex 89.6864 2.98357 0
      vertex 88.5366 13.9233 2
    endloop
  endfacet
  facet normal 0.133653 0.12033 -0.983696
    outer loop
      vertex 101.326 8.22899 2
      vertex 92.427 1.76336 0
      vertex 99.3678 10.404 2
    endloop
  endfacet
  facet normal 0.155729 0.0899469 -0.983696
    outer loop
      vertex 102.79 5.69431 2
      vertex 92.427 1.76336 0
      vertex 101.326 8.22899 2
    endloop
  endfacet
  facet normal 0.105707 0.145493 -0.983696
    outer loop
      vertex 92.0074 2.22943 0
      vertex 91.5 2.59808 0
      vertex 99.3678 10.404 2
    endloop
  endfacet
  facet normal 0.10571 0.14549 -0.983696
    outer loop
      vertex 99.3678 10.404 2
      vertex 91.5 2.59808 0
      vertex 97 12.1244 2
    endloop
  endfacet
  facet normal 0.171043 0.0555487 -0.983696
    outer loop
      vertex 103.694 2.91076 2
      vertex 92.9344 0.623734 0
      vertex 102.79 5.69431 2
    endloop
  endfacet
  facet normal -0.0373957 -0.175909 -0.983696
    outer loop
      vertex 89.6864 -2.98357 0
      vertex 88.5366 -13.9233 2
      vertex 89.073 -2.85317 0
    endloop
  endfacet
  facet normal -0.105707 0.145493 -0.983696
    outer loop
      vertex 87.9926 2.22943 0
      vertex 80.6322 10.404 2
      vertex 88.5 2.59808 0
    endloop
  endfacet
  facet normal -0.171035 0.055577 -0.983696
    outer loop
      vertex 87.0656 0.623734 0
      vertex 76.3059 2.91076 2
      vertex 77.2104 5.69431 2
    endloop
  endfacet
  facet normal -0.178854 -0.0188106 -0.983696
    outer loop
      vertex 87.0656 -0.623734 0
      vertex 76 0 2
      vertex 87 0 0
    endloop
  endfacet
  facet normal -0.178853 -0.0187962 -0.983696
    outer loop
      vertex 76.3059 -2.91076 2
      vertex 76 0 2
      vertex 87.0656 -0.623734 0
    endloop
  endfacet
  facet normal 0.0373902 0.175909 -0.983696
    outer loop
      vertex 94.3262 13.3148 2
      vertex 90.927 2.85317 0
      vertex 91.4634 13.9233 2
    endloop
  endfacet
  facet normal 0.0731442 0.164292 -0.983696
    outer loop
      vertex 97 12.1244 2
      vertex 90.927 2.85317 0
      vertex 94.3262 13.3148 2
    endloop
  endfacet
  facet normal -0.0373957 0.175909 -0.983696
    outer loop
      vertex 89.073 2.85317 0
      vertex 88.5366 13.9233 2
      vertex 89.6864 2.98357 0
    endloop
  endfacet
  facet normal 0.133655 0.120329 -0.983696
    outer loop
      vertex 92.427 1.76336 0
      vertex 92.0074 2.22943 0
      vertex 99.3678 10.404 2
    endloop
  endfacet
  facet normal 0.155739 0.0899195 -0.983697
    outer loop
      vertex 92.7406 1.22021 0
      vertex 92.427 1.76336 0
      vertex 102.79 5.69431 2
    endloop
  endfacet
  facet normal 0.171032 0.0555697 -0.983697
    outer loop
      vertex 92.9344 0.623734 0
      vertex 92.7406 1.22021 0
      vertex 102.79 5.69431 2
    endloop
  endfacet
  facet normal -0.10571 0.14549 -0.983696
    outer loop
      vertex 88.5 2.59808 0
      vertex 80.6322 10.404 2
      vertex 83 12.1244 2
    endloop
  endfacet
  facet normal -0.0731409 0.164294 -0.983696
    outer loop
      vertex 88.5 2.59808 0
      vertex 83 12.1244 2
      vertex 89.073 2.85317 0
    endloop
  endfacet
  facet normal -0.171038 0.0555716 -0.983696
    outer loop
      vertex 87.0656 0.623734 0
      vertex 77.2104 5.69431 2
      vertex 87.2594 1.22021 0
    endloop
  endfacet
  facet normal -0.155744 0.0899223 -0.983696
    outer loop
      vertex 87.2594 1.22021 0
      vertex 77.2104 5.69431 2
      vertex 87.573 1.76336 0
    endloop
  endfacet
endsolid OpenSCAD_Model
