999
dxfrw 0.6.3
  0
SECTION
  2
HEADER
  9
$ACADVER
  1
AC1021
  9
$DWGCODEPAGE
  3
ANSI_1252
  9
$INSBASE
 10
0
 20
0
 30
0
  9
$EXTMIN
 10
-17.24951618989592
 20
-10
 30
0
  9
$EXTMAX
 10
8.983155519027896
 20
8.983155519027896
 30
0
  9
$LIMMIN
 10
0
 20
0
  9
$LIMMAX
 10
420
 20
297
  9
$ORTHOMODE
 70
    0
  9
$REGENMODE
 70
    1
  9
$FILLMODE
 70
    1
  9
$QTEXTMODE
 70
    0
  9
$MIRRTEXT
 70
    0
  9
$LTSCALE
 40
1
  9
$ATTMODE
 70
    0
  9
$TEXTSIZE
 40
2.5
  9
$TRACEWID
 40
15.68
  9
$TEXTSTYLE
  7
STANDARD
  9
$CLAYER
  8
0
  9
$CELTYPE
  6
BYLAYER
  9
$CECOLOR
 62
  256
  9
$CELTSCALE
 40
1
  9
$DISPSILH
 70
    0
  9
$DIMSCALE
 40
2.5
  9
$DIMASZ
 40
2.5
  9
$DIMEXO
 40
0.625
  9
$DIMDLI
 40
3.75
  9
$DIMRND
 40
0
  9
$DIMDLE
 40
0
  9
$DIMEXE
 40
1.25
  9
$DIMTP
 40
0
  9
$DIMTM
 40
0
  9
$DIMTXT
 40
2.5
  9
$DIMCEN
 40
2.5
  9
$DIMTSZ
 40
0
  9
$DIMTOL
 70
    0
  9
$DIMLIM
 70
    0
  9
$DIMTIH
 70
    0
  9
$DIMTOH
 70
    0
  9
$DIMSE1
 70
    0
  9
$DIMSE2
 70
    0
  9
$DIMTAD
 70
    1
  9
$DIMZIN
 70
    8
  9
$DIMBLK
  1

  9
$DIMASO
 70
    1
  9
$DIMSHO
 70
    1
  9
$DIMPOST
  1

  9
$DIMAPOST
  1

  9
$DIMALT
 70
    0
  9
$DIMALTD
 70
    3
  9
$DIMALTF
 40
0.03937
  9
$DIMLFAC
 40
1
  9
$DIMTOFL
 70
    1
  9
$DIMTVP
 40
0
  9
$DIMTIX
 70
    0
  9
$DIMSOXD
 70
    0
  9
$DIMSAH
 70
    0
  9
$DIMBLK1
  1

  9
$DIMBLK2
  1

  9
$DIMSTYLE
  2
STANDARD
  9
$DIMCLRD
 70
    0
  9
$DIMCLRE
 70
    0
  9
$DIMCLRT
 70
    0
  9
$DIMTFAC
 40
1
  9
$DIMGAP
 40
0.625
  9
$DIMJUST
 70
    0
  9
$DIMSD1
 70
    0
  9
$DIMSD2
 70
    0
  9
$DIMTOLJ
 70
    0
  9
$DIMTZIN
 70
    8
  9
$DIMALTZ
 70
    0
  9
$DIMALTTZ
 70
    0
  9
$DIMUPT
 70
    0
  9
$DIMDEC
 70
    2
  9
$DIMTDEC
 70
    2
  9
$DIMALTU
 70
    2
  9
$DIMALTTD
 70
    3
  9
$DIMTXSTY
  7
STANDARD
  9
$DIMAUNIT
 70
    0
  9
$DIMADEC
 70
    0
  9
$DIMALTRND
 40
0
  9
$DIMAZIN
 70
    0
  9
$DIMDSEP
 70
   44
  9
$DIMATFIT
 70
    3
  9
$DIMFRAC
 70
    0
  9
$DIMLDRBLK
  1
STANDARD
  9
$DIMLUNIT
 70
    2
  9
$DIMLWD
 70
   -2
  9
$DIMLWE
 70
   -2
  9
$DIMTMOVE
 70
    0
  9
$DIMFXL
 40
1
  9
$DIMFXLON
 70
    0
  9
$DIMJOGANG
 40
0.7854
  9
$DIMTFILL
 70
    0
  9
$DIMTFILLCLR
 70
    0
  9
$DIMARCSYM
 70
    0
  9
$DIMLTYPE
  6

  9
$DIMLTEX1
  6

  9
$DIMLTEX2
  6

  9
$LUNITS
 70
    2
  9
$LUPREC
 70
    4
  9
$SKETCHINC
 40
1
  9
$FILLETRAD
 40
0
  9
$AUNITS
 70
    0
  9
$AUPREC
 70
    2
  9
$MENU
  1
.
  9
$ELEVATION
 40
0
  9
$PELEVATION
 40
0
  9
$THICKNESS
 40
0
  9
$LIMCHECK
 70
    0
  9
$CHAMFERA
 40
0
  9
$CHAMFERB
 40
0
  9
$CHAMFERC
 40
0
  9
$CHAMFERD
 40
0
  9
$SKPOLY
 70
    0
  9
$USRTIMER
 70
    1
  9
$ANGBASE
 50
0
  9
$ANGDIR
 70
    0
  9
$PDMODE
 70
   34
  9
$PDSIZE
 40
0
  9
$PLINEWID
 40
0
  9
$SPLFRAME
 70
    0
  9
$SPLINETYPE
 70
    2
  9
$SPLINESEGS
 70
    8
  9
$HANDSEED
  5
20000
  9
$SURFTAB1
 70
    6
  9
$SURFTAB2
 70
    6
  9
$SURFTYPE
 70
    6
  9
$SURFU
 70
    6
  9
$SURFV
 70
    6
  9
$UCSBASE
  2

  9
$UCSNAME
  2

  9
$UCSORG
 10
0
 20
0
 30
0
  9
$UCSXDIR
 10
1
 20
0
 30
0
  9
$UCSYDIR
 10
0
 20
1
 30
0
  9
$UCSORTHOREF
  2

  9
$UCSORTHOVIEW
 70
    0
  9
$UCSORGTOP
 10
0
 20
0
 30
0
  9
$UCSORGBOTTOM
 10
0
 20
0
 30
0
  9
$UCSORGLEFT
 10
0
 20
0
 30
0
  9
$UCSORGRIGHT
 10
0
 20
0
 30
0
  9
$UCSORGFRONT
 10
0
 20
0
 30
0
  9
$UCSORGBACK
 10
0
 20
0
 30
0
  9
$PUCSBASE
  2

  9
$PUCSNAME
  2

  9
$PUCSORG
 10
0
 20
0
 30
0
  9
$PUCSXDIR
 10
1
 20
0
 30
0
  9
$PUCSYDIR
 10
0
 20
1
 30
0
  9
$PUCSORTHOREF
  2

  9
$PUCSORTHOVIEW
 70
    0
  9
$PUCSORGTOP
 10
0
 20
0
 30
0
  9
$PUCSORGBOTTOM
 10
0
 20
0
 30
0
  9
$PUCSORGLEFT
 10
0
 20
0
 30
0
  9
$PUCSORGRIGHT
 10
0
 20
0
 30
0
  9
$PUCSORGFRONT
 10
0
 20
0
 30
0
  9
$PUCSORGBACK
 10
0
 20
0
 30
0
  9
$USERI1
 70
    0
  9
$USERI2
 70
    0
  9
$USERI3
 70
    0
  9
$USERI4
 70
    0
  9
$USERI5
 70
    0
  9
$USERR1
 40
0
  9
$USERR2
 40
0
  9
$USERR3
 40
0
  9
$USERR4
 40
0
  9
$USERR5
 40
0
  9
$WORLDVIEW
 70
    1
  9
$SHADEDGE
 70
    3
  9
$SHADEDIF
 70
   70
  9
$TILEMODE
 70
    1
  9
$MAXACTVP
 70
   64
  9
$PINSBASE
 10
0
 20
0
 30
0
  9
$PLIMCHECK
 70
    0
  9
$PEXTMIN
 10
0
 20
0
 30
0
  9
$PEXTMAX
 10
0
 20
0
 30
0
  9
$SNAPSTYLE
 70
    0
  9
$PLIMMIN
 10
0
 20
0
  9
$PLIMMAX
 10
210
 20
297
  9
$UNITMODE
 70
    0
  9
$VISRETAIN
 70
    1
  9
$PLINEGEN
 70
    0
  9
$PSLTSCALE
 70
    1
  9
$TREEDEPTH
 70
 3020
  9
$CMLSTYLE
  2
Standard
  9
$CMLJUST
 70
    0
  9
$CMLSCALE
 40
20
  9
$PROXYGRAPHICS
 70
    1
  9
$MEASUREMENT
 70
    1
  9
$CELWEIGHT
370
   -1
  9
$ENDCAPS
280
    0
  9
$JOINSTYLE
280
    0
  9
$LWDISPLAY
290
    0
  9
$INSUNITS
 70
    4
  9
$HYPERLINKBASE
  1

  9
$STYLESHEET
  1

  9
$XEDIT
290
    1
  9
$CEPSNTYPE
380
    0
  9
$PSTYLEMODE
290
    1
  9
$EXTNAMES
290
    1
  9
$PSVPSCALE
 40
1
  9
$OLESTARTUP
290
    0
  9
$SORTENTS
280
  127
  9
$INDEXCTL
280
    0
  9
$HIDETEXT
280
    1
  9
$XCLIPFRAME
290
    0
  9
$HALOGAP
280
    0
  9
$OBSCOLOR
 70
  257
  9
$OBSLTYPE
280
    0
  9
$INTERSECTIONDISPLAY
280
    0
  9
$INTERSECTIONCOLOR
 70
  257
  9
$DIMASSOC
280
    1
  9
$PROJECTNAME
  1

  9
$CAMERADISPLAY
290
    0
  9
$LENSLENGTH
 40
50
  9
$CAMERAHEIGHT
 40
0
  9
$STEPSPERSEC
 40
2
  9
$STEPSIZE
 40
50
  9
$3DDWFPREC
 40
2
  9
$PSOLWIDTH
 40
5
  9
$PSOLHEIGHT
 40
80
  9
$LOFTANG1
 40
1.570796326794897
  9
$LOFTANG2
 40
1.570796326794897
  9
$LOFTMAG1
 40
0
  9
$LOFTMAG2
 40
0
  9
$LOFTPARAM
 70
    7
  9
$LOFTNORMALS
280
    1
  9
$LATITUDE
 40
1
  9
$LONGITUDE
 40
1
  9
$NORTHDIRECTION
 40
0
  9
$TIMEZONE
 70
-8000
  9
$LIGHTGLYPHDISPLAY
280
    1
  9
$TILEMODELIGHTSYNCH
280
    1
  9
$SOLIDHIST
280
    1
  9
$SHOWHIST
280
    1
  9
$DWFFRAME
280
    2
  9
$DGNFRAME
280
    0
  9
$REALWORLDSCALE
290
    1
  9
$INTERFERECOLOR
 62
    1
  9
$CSHADOW
280
    0
  9
$SHADOWPLANELOCATION
 40
0
  0
ENDSEC
  0
SECTION
  2
CLASSES
  0
ENDSEC
  0
SECTION
  2
TABLES
  0
TABLE
  2
VPORT
  5
8
330
0
100
AcDbSymbolTable
 70
    1
  0
VPORT
  5
31
330
2
100
AcDbSymbolTableRecord
100
AcDbViewportTableRecord
  2
*ACTIVE
 70
    0
 10
0
 20
0
 11
1
 21
1
 12
23.41025640225431
 22
8.034181380073271
 13
0
 23
0
 14
10
 24
10
 15
10
 25
10
 16
0
 26
0
 36
1
 17
0
 27
0
 37
0
 40
31.80879974967785
 41
2.505154639175258
 42
50
 43
0
 44
0
 50
0
 51
0
 71
    0
 72
  100
 73
    1
 74
    3
 75
    0
 76
    1
 77
    0
 78
    0
281
    0
 65
    1
110
0
120
0
130
0
111
1
121
0
131
0
112
0
122
1
132
0
 79
    0
146
0
348
10020
 60
    7
 61
    5
292
1
282
    1
141
0
142
0
 63
  250
421
3358443
  0
ENDTAB
  0
TABLE
  2
LTYPE
  5
5
330
0
100
AcDbSymbolTable
 70
    4
  0
LTYPE
  5
14
330
5
100
AcDbSymbolTableRecord
100
AcDbLinetypeTableRecord
  2
ByBlock
 70
    0
  3

 72
   65
 73
    0
 40
0
  0
LTYPE
  5
15
330
5
100
AcDbSymbolTableRecord
100
AcDbLinetypeTableRecord
  2
ByLayer
 70
    0
  3

 72
   65
 73
    0
 40
0
  0
LTYPE
  5
16
330
5
100
AcDbSymbolTableRecord
100
AcDbLinetypeTableRecord
  2
Continuous
 70
    0
  3
Solid line
 72
   65
 73
    0
 40
0
  0
LTYPE
  5
32
330
5
100
AcDbSymbolTableRecord
100
AcDbLinetypeTableRecord
  2
DOT
 70
    0
  3
Dot . . . . . . . . . . . . . . . . . . . . . .
 72
   65
 73
    2
 40
6.35
 49
0
 74
    0
 49
-6.35
 74
    0
  0
LTYPE
  5
33
330
5
100
AcDbSymbolTableRecord
100
AcDbLinetypeTableRecord
  2
DOTTINY
 70
    0
  3
Dot (.15x) .....................................
 72
   65
 73
    2
 40
0.9525
 49
0
 74
    0
 49
-0.9525
 74
    0
  0
LTYPE
  5
34
330
5
100
AcDbSymbolTableRecord
100
AcDbLinetypeTableRecord
  2
DOT2
 70
    0
  3
Dot (.5x) .....................................
 72
   65
 73
    2
 40
3.175
 49
0
 74
    0
 49
-3.175
 74
    0
  0
LTYPE
  5
35
330
5
100
AcDbSymbolTableRecord
100
AcDbLinetypeTableRecord
  2
DOTX2
 70
    0
  3
Dot (2x) .  .  .  .  .  .  .  .  .  .  .  .  .
 72
   65
 73
    2
 40
12.7
 49
0
 74
    0
 49
-12.7
 74
    0
  0
LTYPE
  5
36
330
5
100
AcDbSymbolTableRecord
100
AcDbLinetypeTableRecord
  2
DASHED
 70
    0
  3
Dashed _ _ _ _ _ _ _ _ _ _ _ _ _ _ _ _ _
 72
   65
 73
    2
 40
19.05
 49
12.7
 74
    0
 49
-6.35
 74
    0
  0
LTYPE
  5
37
330
5
100
AcDbSymbolTableRecord
100
AcDbLinetypeTableRecord
  2
DASHEDTINY
 70
    0
  3
Dashed (.15x) _ _ _ _ _ _ _ _ _ _ _ _ _ _ _ _ _
 72
   65
 73
    2
 40
2.8575
 49
1.905
 74
    0
 49
-0.9525
 74
    0
  0
LTYPE
  5
38
330
5
100
AcDbSymbolTableRecord
100
AcDbLinetypeTableRecord
  2
DASHED2
 70
    0
  3
Dashed (.5x) _ _ _ _ _ _ _ _ _ _ _ _ _ _ _ _ _
 72
   65
 73
    2
 40
9.524999999999999
 49
6.35
 74
    0
 49
-3.175
 74
    0
  0
LTYPE
  5
39
330
5
100
AcDbSymbolTableRecord
100
AcDbLinetypeTableRecord
  2
DASHEDX2
 70
    0
  3
Dashed (2x) ____  ____  ____  ____  ____  ___
 72
   65
 73
    2
 40
38.09999999999999
 49
25.4
 74
    0
 49
-12.7
 74
    0
  0
LTYPE
  5
3A
330
5
100
AcDbSymbolTableRecord
100
AcDbLinetypeTableRecord
  2
DASHDOT
 70
    0
  3
Dash dot __ . __ . __ . __ . __ . __ . __ . __
 72
   65
 73
    4
 40
25.4
 49
12.7
 74
    0
 49
-6.35
 74
    0
 49
0
 74
    0
 49
-6.35
 74
    0
  0
LTYPE
  5
3B
330
5
100
AcDbSymbolTableRecord
100
AcDbLinetypeTableRecord
  2
DASHDOTTINY
 70
    0
  3
Dash dot (.15x) _._._._._._._._._._._._._._._.
 72
   65
 73
    4
 40
3.81
 49
1.905
 74
    0
 49
-0.9525
 74
    0
 49
0
 74
    0
 49
-0.9525
 74
    0
  0
LTYPE
  5
3C
330
5
100
AcDbSymbolTableRecord
100
AcDbLinetypeTableRecord
  2
DASHDOT2
 70
    0
  3
Dash dot (.5x) _._._._._._._._._._._._._._._.
 72
   65
 73
    4
 40
12.7
 49
6.35
 74
    0
 49
-3.175
 74
    0
 49
0
 74
    0
 49
-3.175
 74
    0
  0
LTYPE
  5
3D
330
5
100
AcDbSymbolTableRecord
100
AcDbLinetypeTableRecord
  2
DASHDOTX2
 70
    0
  3
Dash dot (2x) ____  .  ____  .  ____  .  ___
 72
   65
 73
    4
 40
50.8
 49
25.4
 74
    0
 49
-12.7
 74
    0
 49
0
 74
    0
 49
-12.7
 74
    0
  0
LTYPE
  5
3E
330
5
100
AcDbSymbolTableRecord
100
AcDbLinetypeTableRecord
  2
DIVIDE
 70
    0
  3
Divide ____ . . ____ . . ____ . . ____ . . ____
 72
   65
 73
    6
 40
31.75
 49
12.7
 74
    0
 49
-6.35
 74
    0
 49
0
 74
    0
 49
-6.35
 74
    0
 49
0
 74
    0
 49
-6.35
 74
    0
  0
LTYPE
  5
3F
330
5
100
AcDbSymbolTableRecord
100
AcDbLinetypeTableRecord
  2
DIVIDETINY
 70
    0
  3
Divide (.15x) __..__..__..__..__..__..__..__.._
 72
   65
 73
    6
 40
4.7625
 49
1.905
 74
    0
 49
-0.9525
 74
    0
 49
0
 74
    0
 49
-0.9525
 74
    0
 49
0
 74
    0
 49
-0.9525
 74
    0
  0
LTYPE
  5
40
330
5
100
AcDbSymbolTableRecord
100
AcDbLinetypeTableRecord
  2
DIVIDE2
 70
    0
  3
Divide (.5x) __..__..__..__..__..__..__..__.._
 72
   65
 73
    6
 40
15.875
 49
6.35
 74
    0
 49
-3.175
 74
    0
 49
0
 74
    0
 49
-3.175
 74
    0
 49
0
 74
    0
 49
-3.175
 74
    0
  0
LTYPE
  5
41
330
5
100
AcDbSymbolTableRecord
100
AcDbLinetypeTableRecord
  2
DIVIDEX2
 70
    0
  3
Divide (2x) ________  .  .  ________  .  .  _
 72
   65
 73
    6
 40
63.5
 49
25.4
 74
    0
 49
-12.7
 74
    0
 49
0
 74
    0
 49
-12.7
 74
    0
 49
0
 74
    0
 49
-12.7
 74
    0
  0
LTYPE
  5
42
330
5
100
AcDbSymbolTableRecord
100
AcDbLinetypeTableRecord
  2
BORDER
 70
    0
  3
Border __ __ . __ __ . __ __ . __ __ . __ __ .
 72
   65
 73
    6
 40
44.45
 49
12.7
 74
    0
 49
-6.35
 74
    0
 49
12.7
 74
    0
 49
-6.35
 74
    0
 49
0
 74
    0
 49
-6.35
 74
    0
  0
LTYPE
  5
43
330
5
100
AcDbSymbolTableRecord
100
AcDbLinetypeTableRecord
  2
BORDERTINY
 70
    0
  3
Border (.15x) __.__.__.__.__.__.__.__.__.__.__.
 72
   65
 73
    6
 40
6.6675
 49
1.905
 74
    0
 49
-0.9525
 74
    0
 49
1.905
 74
    0
 49
-0.9525
 74
    0
 49
0
 74
    0
 49
-0.9525
 74
    0
  0
LTYPE
  5
44
330
5
100
AcDbSymbolTableRecord
100
AcDbLinetypeTableRecord
  2
BORDER2
 70
    0
  3
Border (.5x) __.__.__.__.__.__.__.__.__.__.__.
 72
   65
 73
    6
 40
22.225
 49
6.35
 74
    0
 49
-3.175
 74
    0
 49
6.35
 74
    0
 49
-3.175
 74
    0
 49
0
 74
    0
 49
-3.175
 74
    0
  0
LTYPE
  5
45
330
5
100
AcDbSymbolTableRecord
100
AcDbLinetypeTableRecord
  2
BORDERX2
 70
    0
  3
Border (2x) ____  ____  .  ____  ____  .  ___
 72
   65
 73
    6
 40
88.89999999999999
 49
25.4
 74
    0
 49
-12.7
 74
    0
 49
25.4
 74
    0
 49
-12.7
 74
    0
 49
0
 74
    0
 49
-12.7
 74
    0
  0
LTYPE
  5
46
330
5
100
AcDbSymbolTableRecord
100
AcDbLinetypeTableRecord
  2
CENTER
 70
    0
  3
Center ____ _ ____ _ ____ _ ____ _ ____ _ ____
 72
   65
 73
    4
 40
50.8
 49
31.75
 74
    0
 49
-6.35
 74
    0
 49
6.35
 74
    0
 49
-6.35
 74
    0
  0
LTYPE
  5
47
330
5
100
AcDbSymbolTableRecord
100
AcDbLinetypeTableRecord
  2
CENTERTINY
 70
    0
  3
Center (.15x) ___ _ ___ _ ___ _ ___ _ ___ _ ___
 72
   65
 73
    4
 40
7.619999999999999
 49
4.7625
 74
    0
 49
-0.9525
 74
    0
 49
0.9525
 74
    0
 49
-0.9525
 74
    0
  0
LTYPE
  5
48
330
5
100
AcDbSymbolTableRecord
100
AcDbLinetypeTableRecord
  2
CENTER2
 70
    0
  3
Center (.5x) ___ _ ___ _ ___ _ ___ _ ___ _ ___
 72
   65
 73
    4
 40
28.575
 49
19.05
 74
    0
 49
-3.175
 74
    0
 49
3.175
 74
    0
 49
-3.175
 74
    0
  0
LTYPE
  5
49
330
5
100
AcDbSymbolTableRecord
100
AcDbLinetypeTableRecord
  2
CENTERX2
 70
    0
  3
Center (2x) ________  __  ________  __  _____
 72
   65
 73
    4
 40
101.6
 49
63.5
 74
    0
 49
-12.7
 74
    0
 49
12.7
 74
    0
 49
-12.7
 74
    0
  0
ENDTAB
  0
TABLE
  2
LAYER
  5
2
330
0
100
AcDbSymbolTable
 70
    1
  0
LAYER
  5
10
330
2
100
AcDbSymbolTableRecord
100
AcDbLayerTableRecord
  2
0
 70
    0
 62
    7
  6
CONTINUOUS
370
    0
390
F
  0
LAYER
  5
4A
330
2
100
AcDbSymbolTableRecord
100
AcDbLayerTableRecord
  2
gear_M1.0000_action_lines
 70
    0
 62
    7
  6
CONTINUOUS
370
    0
390
F
  0
LAYER
  5
4B
330
2
100
AcDbSymbolTableRecord
100
AcDbLayerTableRecord
  2
gear_M1.0000_addendums
 70
    0
 62
    7
  6
CONTINUOUS
370
    0
390
F
  0
LAYER
  5
4C
330
2
100
AcDbSymbolTableRecord
100
AcDbLayerTableRecord
  2
gear_M1.0000_base_lines
 70
    0
 62
    7
  6
CONTINUOUS
370
    0
390
F
  0
LAYER
  5
4D
330
2
100
AcDbSymbolTableRecord
100
AcDbLayerTableRecord
  2
gear_M1.0000_dedendums
 70
    0
 62
    7
  6
CONTINUOUS
370
    0
390
F
  0
LAYER
  5
4E
330
2
100
AcDbSymbolTableRecord
100
AcDbLayerTableRecord
  2
gear_M1.0000_pitch_circles
 70
    0
 62
    7
  6
CONTINUOUS
370
    0
390
F
  0
LAYER
  5
4F
330
2
100
AcDbSymbolTableRecord
100
AcDbLayerTableRecord
  2
gear_M1.0000_shapes
 70
    0
 62
    7
  6
CONTINUOUS
370
    0
390
F
  0
ENDTAB
  0
TABLE
  2
STYLE
  5
3
330
0
100
AcDbSymbolTable
 70
    3
  0
STYLE
  5
50
330
2
100
AcDbSymbolTableRecord
100
AcDbTextStyleTableRecord
  2
Standard
 70
    0
 40
0
 41
1
 50
0
 71
    0
 42
1
  3
txt
  4

  0
ENDTAB
  0
TABLE
  2
VIEW
  5
6
330
0
100
AcDbSymbolTable
 70
    0
  0
ENDTAB
  0
TABLE
  2
UCS
  5
7
330
0
100
AcDbSymbolTable
 70
    0
  0
ENDTAB
  0
TABLE
  2
APPID
  5
9
330
0
100
AcDbSymbolTable
 70
    1
  0
APPID
  5
12
330
9
100
AcDbSymbolTableRecord
100
AcDbRegAppTableRecord
  2
ACAD
 70
    0
  0
APPID
  5
51
330
9
100
AcDbSymbolTableRecord
100
AcDbRegAppTableRecord
  2
LibreCad
 70
    0
  0
ENDTAB
  0
TABLE
  2
DIMSTYLE
  5
A
330
0
100
AcDbSymbolTable
 70
    1
100
AcDbDimStyleTable
 71
    1
  0
DIMSTYLE
105
52
330
A
100
AcDbSymbolTableRecord
100
AcDbDimStyleTableRecord
  2
Standard
 70
    0
 40
1
 41
2.5
 42
0.625
 43
0.38
 44
1.25
 45
0
 46
0
 47
0
 48
0
 49
1
140
2.5
141
0.09
142
2.5
143
25.4
144
1
145
0
146
1
147
0.625
148
0
 71
    0
 72
    0
 73
    0
 74
    1
 75
    0
 76
    0
 77
    0
 78
    1
 79
    0
170
    0
171
    2
172
    0
173
    0
174
    0
175
    0
176
    0
177
    0
178
    0
179
    0
271
    2
272
    4
273
    2
274
    2
275
    0
276
    0
277
    2
278
    0
279
    0
280
    0
281
    0
282
    0
283
    1
284
    0
285
    0
286
    0
288
    0
289
    3
340
standard
341

371
   -2
372
   -2
  0
ENDTAB
  0
TABLE
  2
BLOCK_RECORD
  5
1
330
0
100
AcDbSymbolTable
 70
    2
  0
BLOCK_RECORD
  5
1F
330
1
100
AcDbSymbolTableRecord
100
AcDbBlockTableRecord
  2
*Model_Space
 70
    0
280
    1
281
    0
  0
BLOCK_RECORD
  5
1E
330
1
100
AcDbSymbolTableRecord
100
AcDbBlockTableRecord
  2
*Paper_Space
 70
    0
280
    1
281
    0
  0
ENDTAB
  0
ENDSEC
  0
SECTION
  2
BLOCKS
  0
BLOCK
  5
20
330
1F
100
AcDbEntity
  8
0
100
AcDbBlockBegin
  2
*Model_Space
 70
    0
 10
0
 20
0
 30
0
  3
*Model_Space
  1

  0
ENDBLK
  5
21
330
1F
100
AcDbEntity
  8
0
100
AcDbBlockEnd
  0
BLOCK
  5
1C
330
1B
100
AcDbEntity
  8
0
100
AcDbBlockBegin
  2
*Paper_Space
 70
    0
 10
0
 20
0
 30
0
  3
*Paper_Space
  1

  0
ENDBLK
  5
1D
330
1F
100
AcDbEntity
  8
0
100
AcDbBlockEnd
  0
ENDSEC
  0
SECTION
  2
ENTITIES
  0
LWPOLYLINE
  5
53
100
AcDbEntity
  8
gear_M1.0000_shapes
  6
ByLayer
 62
  256
370
   -1
100
AcDbPolyline
 90
 1200
 70
    1
 43
0
 10
4.736350876130986
 20
-0.3598338202187797
 10
4.743193455394771
 20
-0.3198630037234323
 10
4.757559607345496
 20
-0.2809138094819036
 10
4.779383862792957
 20
-0.2434304010002963
 10
4.808579919164337
 20
-0.2078535643710585
 10
4.845040797302099
 20
-0.1746198263296283
 10
4.88863903347849
 20
-0.1441605791403195
 10
4.939226906341829
 20
-0.1169012136654468
 10
4.996636698459088
 20
-0.09326026196017055
 10
5.060680992069008
 20
-0.07364855072218096
 10
5.131152998610299
 20
-0.05846836691012519
 10
5.207826921540324
 20
-0.04811263682764862
 10
5.290458351911214
 20
-0.04296411995108425
 10
5.378784696122561
 20
-0.04339461875821021
 10
5.472525635222908
 20
-0.04976420579313913
 10
5.571383615086103
 20
-0.06242046917831774
 10
5.675044366743341
 20
-0.08169777775883906
 10
5.685773100786411
 20
-0.08052896342752981
 10
5.697831764805526
 20
-0.07902565709116208
 10
5.711212231987277
 20
-0.07714631151628562
 10
5.725905406530369
 20
-0.07484955625536099
 10
5.741901227254717
 20
-0.07209421771110346
 10
5.759188671599805
 20
-0.06883933913015064
 10
5.777755760011033
 20
-0.06504420051881223
 10
5.797589560712503
 20
-0.0606683384736733
 10
5.818676194864715
 20
-0.05567156591985574
 10
5.841000842105371
 20
-0.05001399174977096
 10
5.864547746471467
 20
-0.04365604035522851
 10
5.889300222700665
 20
-0.03655847104579944
 10
5.915240662909802
 20
-0.02868239734636739
 10
5.942350543648319
 20
-0.01998930616684921
 10
5.970610433324213
 20
-0.01044107683709019
 10
6.000000000000002
 20
1.249000902703301e-16
 10
6.046044660258191
 20
0.01737371531910529
 10
6.094496628896119
 20
0.0369533404749614
 10
6.145276726377997
 20
0.05885952574065186
 10
6.198301480661451
 20
0.08321039752277377
 10
6.25348320254953
 20
0.1101214243745877
 10
6.310730064943254
 20
0.1397052851670161
 10
6.369946185934605
 20
0.1720717395261951
 10
6.431031715677058
 20
0.2073275006446756
 10
6.493882926967725
 20
0.2455761105716259
 10
6.558392309472441
 20
0.2869178180856315
 10
6.624448667522234
 20
0.3314494592518024
 10
6.691937221406926
 20
0.3792643407629653
 10
6.760739712088869
 20
0.4304521261627016
 10
6.8307345092572
 20
0.485098725045925
 10
6.901796722640386
 20
0.5432861853305094
 10
6.973798316492301
 20
0.6050925886912949
 10
6.940114029616673
 20
0.913683345540361
 10
6.892781387234832
 20
1.220477262299074
 10
6.807236513900231
 20
1.261542279768684
 10
6.723535663812351
 20
1.299354796213025
 10
6.641782300980538
 20
1.334023370827938
 10
6.562075824579765
 20
1.365659579797111
 10
6.48451148542923
 20
1.394377885657908
 10
6.409180306354861
 20
1.420295504433952
 10
6.336169006493912
 20
1.443532270644596
 10
6.265559929596915
 20
1.464210500302906
 10
6.197430976379082
 20
1.482454852015201
 10
6.131855540970281
 20
1.498392186296482
 10
6.068902451509424
 20
1.51215142321737
 10
6.008635914926113
 20
1.52386339849931
 10
5.95111546594903
 20
1.533660718175876
 10
5.896395920377503
 20
1.541677611939007
 10
5.844527332649276
 20
1.548049785289902
 10
5.795554957734412
 20
1.552914270615125
 10
5.764464466722005
 20
1.555392996803334
 10
5.734696245838432
 20
1.557301680447662
 10
5.706260174327409
 20
1.558682008282658
 10
5.679165155310052
 20
1.559575831314228
 10
5.653419113144448
 20
1.560025144552518
 10
5.629028991179333
 20
1.560072066703644
 10
5.606000749902493
 20
1.559758819827597
 10
5.584339365484388
 20
1.55912770896972
 10
5.564048828717345
 20
1.55822110177309
 10
5.545132144350529
 20
1.557081408079201
 10
5.527591330820827
 20
1.555751059524319
 10
5.511427420379531
 20
1.554272489138881
 10
5.496640459614718
 20
1.552688110957305
 10
5.483229510368944
 20
1.551040299645594
 10
5.471192651051862
 20
1.549371370154076
 10
5.460526978347144
 20
1.547723557402638
 10
5.365387715747837
 20
1.502273730424833
 10
5.273173921867131
 20
1.464462390807816
 10
5.184275698243591
 20
1.434047901843017
 10
5.099070422518332
 20
1.41077153186085
 10
5.017922055638196
 20
1.394358029374959
 10
4.941180473105901
 20
1.384516224994689
 10
4.869180821278539
 20
1.380939659147093
 10
4.802242899678835
 20
1.383307234613206
 10
4.740670570245213
 20
1.391283892848061
 10
4.684751194407179
 20
1.404521313020237
 10
4.634755098831674
 20
1.422658632674385
 10
4.590935070644162
 20
1.445323188889513
 10
4.553525882885106
 20
1.472131278776561
 10
4.522743850918476
 20
1.502688938131302
 10
4.498786420463773
 20
1.53659273703266
 10
4.481831787877159
 20
1.573430591152286
 10
4.388427779428612
 20
1.817746303734177
 10
4.281717090075507
 20
2.056550208615227
 10
4.26765752929768
 20
2.094587240742096
 10
4.260624384720871
 20
2.135501308387557
 10
4.260783040116249
 20
2.178875020076789
 10
4.268279148309568
 20
2.224283492569687
 10
4.283238326000443
 20
2.271295193045164
 10
4.305765882494737
 20
2.319472792979451
 10
4.33594658278037
 20
2.368374032403405
 10
4.373844445327261
 20
2.417552593208445
 10
4.419502574941887
 20
2.466558980157188
 10
4.47294303095628
 20
2.514941408243191
 10
4.534166730980253
 20
2.562246695034363
 10
4.603153390394207
 20
2.608021156626726
 10
4.679861497708205
 20
2.651811505829129
 10
4.76422832586118
 20
2.693165751195438
 10
4.856169979482106
 20
2.731634095518484
 10
4.955581478082926
 20
2.76676983239978
 10
4.964288427149016
 20
2.773146422324536
 10
4.973979883357088
 20
2.780477655811059
 10
4.98462803506355
 20
2.788795450412267
 10
4.996204319849644
 20
2.798131086086049
 10
5.008679437679183
 20
2.808515189623576
 10
5.022023364358062
 20
2.81997771933346
 10
5.036205365290828
 20
2.832547949987375
 10
5.051194009529328
 20
2.846254458032657
 10
5.066957184108543
 20
2.861125107077302
 10
5.083462108664435
 20
2.877187033652718
 10
5.100675350328687
 20
2.894466633259467
 10
5.118562838895027
 20
2.912989546701152
 10
5.137089882251775
 20
2.932780646711507
 10
5.156221182075139
 20
2.953864024879643
 10
5.175920849777729
 20
2.97626297887832
 10
5.196152422706634
 20
3
 10
5.227341410539297
 20
3.038068408953559
 10
5.259512233665181
 20
3.079250846054071
 10
5.292535995458293
 20
3.123612207735107
 10
5.326281343806131
 20
3.171213058444449
 10
5.360614603359868
 20
3.222109552284084
 10
5.395399910083571
 20
3.276353358469212
 10
5.430499347996064
 20
3.333991590670366
 10
5.465773087997418
 20
3.395066740299952
 10
5.501079528670283
 20
3.459616613801466
 10
5.536275438944812
 20
3.527674273996779
 10
5.571216102514328
 20
3.599267985543793
 10
5.605755463887565
 20
3.674421164553749
 10
5.639746275961901
 20
3.753152332414358
 10
5.673040249000804
 20
3.835475073861813
 10
5.7054882008975
 20
3.921397999341554
 10
5.736940208605837
 20
4.0109247116945
 10
5.553473382038646
 20
4.261330003061044
 10
5.359085152928373
 20
4.503355007509697
 10
5.264468610722281
 20
4.49614591917793
 10
5.173075290005652
 20
4.487042093955807
 10
5.08494051364104
 20
4.476189278869412
 10
5.000094575747239
 20
4.463733801315762
 10
4.918562734684725
 20
4.449822414169597
 10
4.840365210521265
 20
4.434602140898066
 10
4.765517186973038
 20
4.418220120807809
 10
4.694028817813314
 20
4.400823454548696
 10
4.625905237737283
 20
4.382559049998205
 10
4.561146577668395
 20
4.363573468649999
 10
4.499747984488134
 20
4.344012772629748
 10
4.441699645167913
 20
4.324022372460748
 10
4.386986815278389
 20
4.30374687570111
 10
4.335589851848341
 20
4.283329936573659
 10
4.287484250541827
 20
4.262914106708738
 10
4.242640687119287
 20
4.242640687119286
 10
4.214476168992307
 20
4.229242081461098
 10
4.187741791659502
 20
4.216010939543087
 10
4.162425267429628
 20
4.202988302758232
 10
4.138513381128789
 20
4.190214866701381
 10
4.115991997947326
 20
4.177730962297195
 10
4.094846071648572
 20
4.165576537089513
 10
4.075059653136375
 20
4.15379113669878
 10
4.056615899378093
 20
4.142413886454202
 10
4.039497082679728
 20
4.131483473207146
 10
4.023684600309637
 20
4.121038127332296
 10
4.009158984467311
 20
4.11111560492303
 10
3.99589991259337
 20
4.101753170187308
 10
3.983886218017067
 20
4.092987578050456
 10
3.973095900937218
 20
4.084855056970984
 10
3.963506139732605
 20
4.077391291975664
 10
3.955093302597587
 20
4.070631407919879
 10
3.895425197778172
 20
3.983701071859839
 10
3.834471379506646
 20
3.904848594260028
 10
3.772690503979751
 20
3.834059762361621
 10
3.710538755656302
 20
3.771299196786549
 10
3.64846895970543
 20
3.716510503228621
 10
3.586929701895978
 20
3.669616459350082
 10
3.526364457273644
 20
3.630519236554075
 10
3.467210728958714
 20
3.599100656253254
 10
3.409899198381585
 20
3.575222480205134
 10
3.354852888255991
 20
3.55872673443579
 10
3.302486339570494
 20
3.549436066225088
 10
3.253204803857995
 20
3.547154133579133
 10
3.207403451980186
 20
3.551666026568725
 10
3.165466600639609
 20
3.562738719866808
 10
3.127766957805759
 20
3.580121555772831
 10
3.094664888214106
 20
3.603546756968026
 10
2.891616787791424
 20
3.768428366383367
 10
2.679800667515759
 20
3.921883269856727
 10
2.648606214652675
 20
3.947794525574247
 10
2.622058298957939
 20
3.979710575238967
 10
2.600508842716168
 20
4.017352639115953
 10
2.58429642659465
 20
4.060425583938509
 10
2.573745604256935
 20
4.108618499670814
 10
2.569166240499039
 20
4.161605303354417
 10
2.570852873938424
 20
4.219045369114922
 10
2.579084105250644
 20
4.280584183367091
 10
2.59412201191182
 20
4.345854024219705
 10
2.616211590367107
 20
4.414474664046154
 10
2.645580226505961
 20
4.486054094152605
 10
2.682437195284488
 20
4.560189270443122
 10
2.726973190293432
 20
4.636466878949995
 10
2.77935988402747
 20
4.714464120068041
 10
2.839749519567619
 20
4.793749510303789
 10
2.908274534343561
 20
4.873883700324086
 10
2.912626678461875
 20
4.883759463721487
 10
2.917354108994468
 20
4.894954226265925
 10
2.92241678157501
 20
4.907481723547264
 10
2.92777432044432
 20
4.921354763594283
 10
2.93338603763114
 20
4.936585219968078
 10
2.939210952266345
 20
4.953184025227911
 10
2.945207810023657
 20
4.971161164772014
 10
2.951335102679846
 20
4.990525671055654
 10
2.957551087787413
 20
5.011285618188688
 10
2.963813808452653
 20
5.033448116914665
 10
2.970081113212
 20
5.057019309973457
 10
2.976310675999513
 20
5.082004367849228
 10
2.982460016198295
 20
5.108407484905407
 10
2.988486518768676
 20
5.136231875908289
 10
2.994347454445892
 20
5.165479772940638
 10
3.000000000000002
 20
5.196152422706633
 10
3.007976251304632
 20
5.2447151258584
 10
3.015245782842048
 20
5.296465574140141
 10
3.021664518642891
 20
5.351395521198943
 10
3.027088422217003
 20
5.409491741328903
 10
3.031373650265446
 20
5.470736027734455
 10
3.034376706474043
 20
5.535105195250586
 10
3.035954595264239
 20
5.602571087522259
 10
3.035964975377106
 20
5.673100588642093
 10
3.034266313166259
 20
5.746655639241909
 10
3.030718035475662
 20
5.823193257030444
 10
3.025180681978442
 20
5.90266556176613
 10
3.017516056853178
 20
5.98501980465053
 10
3.007587379674511
 20
6.070198402124602
 10
2.995259435395387
 20
6.158138974046728
 10
2.980398723298832
 20
6.248774386228011
 10
2.962873604797802
 20
6.342032797297131
 10
2.67878402655563
 20
6.467156727579007
 10
2.389426379725135
 20
6.579562415227445
 10
2.311090594722301
 20
6.526010890490964
 10
2.236493569856544
 20
6.472430086218678
 10
2.165593022111127
 20
6.418963884468978
 10
2.098342023264004
 20
6.365754155544349
 10
2.034689071259634
 20
6.312940620342633
 10
1.974578165456795
 20
6.260660714955216
 10
1.917948885686103
 20
6.209049457617633
 10
1.864736475048219
 20
6.15823931811622
 10
1.814871926380877
 20
6.108360089752482
 10
1.768282072320283
 20
6.059538763964875
 10
1.724889678879677
 20
6.011899407705503
 10
1.684613542465366
 20
5.965563043667222
 10
1.64736859024792
 20
5.920647533454265
 10
1.613065983803845
 20
5.877267463787348
 10
1.581613225940538
 20
5.835534035831728
 10
1.552914270615126
 20
5.795554957734411
 10
1.535222385260907
 20
5.76986916579564
 10
1.518685306295345
 20
5.745043472107163
 10
1.503271871569176
 20
5.721107275712285
 10
1.488950288608671
 20
5.698089212443016
 10
1.475688150847253
 20
5.676017142499843
 10
1.46345245408982
 20
5.654918138352214
 10
1.452209613203713
 20
5.634818472963971
 10
1.441925479030185
 20
5.615743608347812
 10
1.4325653555102
 20
5.597718184452817
 10
1.424094017018233
 20
5.580766008388838
 10
1.416475725897797
 20
5.564910043991629
 10
1.409674250192222
 20
5.550172401732251
 10
1.403652881564262
 20
5.536574328974371
 10
1.39837445339796
 20
5.524136200582811
 10
1.393801359076199
 20
5.512877509886681
 10
1.389895570427265
 20
5.502816860000225
 10
1.381686643887998
 20
5.397698928203004
 10
1.368325327607103
 20
5.298933770314462
 10
1.350215935881971
 20
5.206738405822767
 10
1.327771225731783
 20
5.121310287517151
 10
1.301411552409575
 20
5.042826989080389
 10
1.271564013755819
 20
4.971445926890666
 10
1.238661584724464
 20
4.907304116420738
 10
1.203142243425581
 20
4.850517963571919
 10
1.165448090040079
 20
4.801183091229646
 10
1.12602445997139
 20
4.759374201276226
 10
1.085319032606586
 20
4.725144972244879
 10
1.043780937065028
 20
4.698527992747507
 10
1.001859856316381
 20
4.679534730756746
 10
0.9600051310516682
 20
4.668155538770912
 10
0.9186648646909417
 20
4.664359694838419
 10
0.878285030909133
 20
4.668095479366392
 10
0.6199994130452455
 20
4.709363091525599
 10
0.35983382021878
 20
4.736350876130986
 10
0.3198630037234326
 20
4.743193455394771
 10
0.2809138094819039
 20
4.757559607345496
 10
0.2434304010002966
 20
4.779383862792957
 10
0.2078535643710588
 20
4.808579919164337
 10
0.1746198263296286
 20
4.845040797302099
 10
0.1441605791403198
 20
4.88863903347849
 10
0.1169012136654471
 20
4.939226906341829
 10
0.09326026196017086
 20
4.996636698459088
 10
0.07364855072218127
 20
5.060680992069008
 10
0.0584683669101255
 20
5.131152998610299
 10
0.04811263682764894
 20
5.207826921540324
 10
0.04296411995108457
 20
5.290458351911214
 10
0.04339461875821054
 20
5.378784696122561
 10
0.04976420579313946
 20
5.472525635222908
 10
0.06242046917831808
 20
5.571383615086103
 10
0.08169777775883941
 20
5.675044366743341
 10
0.08052896342753016
 20
5.685773100786411
 10
0.07902565709116242
 20
5.697831764805526
 10
0.07714631151628597
 20
5.711212231987277
 10
0.07484955625536134
 20
5.725905406530369
 10
0.0720942177111038
 20
5.741901227254717
 10
0.06883933913015099
 20
5.759188671599805
 10
0.06504420051881257
 20
5.777755760011033
 10
0.06066833847367365
 20
5.797589560712503
 10
0.05567156591985609
 20
5.818676194864715
 10
0.05001399174977132
 20
5.841000842105371
 10
0.04365604035522887
 20
5.864547746471467
 10
0.0365584710457998
 20
5.889300222700665
 10
0.02868239734636775
 20
5.915240662909802
 10
0.01998930616684958
 20
5.942350543648319
 10
0.01044107683709055
 20
5.970610433324213
 10
2.42493949473876e-16
 20
6.000000000000002
 10
-0.01737371531910491
 20
6.046044660258191
 10
-0.03695334047496103
 20
6.094496628896119
 10
-0.05885952574065148
 20
6.145276726377997
 10
-0.0832103975227734
 20
6.198301480661451
 10
-0.1101214243745873
 20
6.25348320254953
 10
-0.1397052851670157
 20
6.310730064943254
 10
-0.1720717395261948
 20
6.369946185934605
 10
-0.2073275006446753
 20
6.431031715677058
 10
-0.2455761105716255
 20
6.493882926967725
 10
-0.2869178180856312
 20
6.558392309472441
 10
-0.331449459251802
 20
6.624448667522234
 10
-0.3792643407629649
 20
6.691937221406926
 10
-0.4304521261627012
 20
6.760739712088869
 10
-0.4850987250459246
 20
6.8307345092572
 10
-0.543286185330509
 20
6.901796722640386
 10
-0.6050925886912945
 20
6.973798316492301
 10
-0.9136833455403606
 20
6.940114029616673
 10
-1.220477262299073
 20
6.892781387234832
 10
-1.261542279768683
 20
6.807236513900231
 10
-1.299354796213025
 20
6.723535663812351
 10
-1.334023370827938
 20
6.641782300980538
 10
-1.36565957979711
 20
6.562075824579765
 10
-1.394377885657908
 20
6.48451148542923
 10
-1.420295504433952
 20
6.409180306354861
 10
-1.443532270644595
 20
6.336169006493912
 10
-1.464210500302906
 20
6.265559929596915
 10
-1.482454852015201
 20
6.197430976379082
 10
-1.498392186296481
 20
6.131855540970281
 10
-1.51215142321737
 20
6.068902451509424
 10
-1.52386339849931
 20
6.008635914926113
 10
-1.533660718175875
 20
5.95111546594903
 10
-1.541677611939006
 20
5.896395920377503
 10
-1.548049785289901
 20
5.844527332649276
 10
-1.552914270615124
 20
5.795554957734412
 10
-1.555392996803334
 20
5.764464466722005
 10
-1.557301680447661
 20
5.734696245838432
 10
-1.558682008282657
 20
5.706260174327409
 10
-1.559575831314227
 20
5.679165155310052
 10
-1.560025144552518
 20
5.653419113144448
 10
-1.560072066703643
 20
5.629028991179333
 10
-1.559758819827597
 20
5.606000749902493
 10
-1.55912770896972
 20
5.584339365484388
 10
-1.55822110177309
 20
5.564048828717345
 10
-1.5570814080792
 20
5.545132144350529
 10
-1.555751059524319
 20
5.527591330820827
 10
-1.55427248913888
 20
5.511427420379531
 10
-1.552688110957305
 20
5.496640459614718
 10
-1.551040299645594
 20
5.483229510368944
 10
-1.549371370154076
 20
5.471192651051862
 10
-1.547723557402638
 20
5.460526978347144
 10
-1.502273730424833
 20
5.365387715747837
 10
-1.464462390807816
 20
5.273173921867131
 10
-1.434047901843017
 20
5.184275698243591
 10
-1.410771531860849
 20
5.099070422518332
 10
-1.394358029374959
 20
5.017922055638196
 10
-1.384516224994688
 20
4.941180473105901
 10
-1.380939659147093
 20
4.869180821278539
 10
-1.383307234613206
 20
4.802242899678835
 10
-1.391283892848061
 20
4.740670570245213
 10
-1.404521313020236
 20
4.684751194407179
 10
-1.422658632674385
 20
4.634755098831674
 10
-1.445323188889513
 20
4.590935070644162
 10
-1.47213127877656
 20
4.553525882885106
 10
-1.502688938131302
 20
4.522743850918476
 10
-1.53659273703266
 20
4.498786420463773
 10
-1.573430591152286
 20
4.481831787877159
 10
-1.817746303734176
 20
4.388427779428612
 10
-2.056550208615227
 20
4.281717090075507
 10
-2.094587240742096
 20
4.26765752929768
 10
-2.135501308387557
 20
4.260624384720871
 10
-2.178875020076788
 20
4.260783040116249
 10
-2.224283492569687
 20
4.268279148309568
 10
-2.271295193045164
 20
4.283238326000443
 10
-2.31947279297945
 20
4.305765882494737
 10
-2.368374032403404
 20
4.33594658278037
 10
-2.417552593208444
 20
4.373844445327261
 10
-2.466558980157187
 20
4.419502574941887
 10
-2.51494140824319
 20
4.47294303095628
 10
-2.562246695034362
 20
4.534166730980253
 10
-2.608021156626725
 20
4.603153390394207
 10
-2.651811505829128
 20
4.679861497708205
 10
-2.693165751195437
 20
4.76422832586118
 10
-2.731634095518483
 20
4.856169979482106
 10
-2.766769832399779
 20
4.955581478082926
 10
-2.773146422324535
 20
4.964288427149016
 10
-2.780477655811058
 20
4.973979883357088
 10
-2.788795450412266
 20
4.98462803506355
 10
-2.798131086086048
 20
4.996204319849644
 10
-2.808515189623575
 20
5.008679437679183
 10
-2.819977719333459
 20
5.022023364358062
 10
-2.832547949987374
 20
5.036205365290828
 10
-2.846254458032656
 20
5.051194009529328
 10
-2.861125107077301
 20
5.066957184108543
 10
-2.877187033652717
 20
5.083462108664435
 10
-2.894466633259466
 20
5.100675350328687
 10
-2.912989546701151
 20
5.118562838895027
 10
-2.932780646711506
 20
5.137089882251775
 10
-2.953864024879642
 20
5.156221182075139
 10
-2.976262978878319
 20
5.175920849777729
 10
-3
 20
5.196152422706634
 10
-3.038068408953558
 20
5.227341410539297
 10
-3.07925084605407
 20
5.259512233665181
 10
-3.123612207735106
 20
5.292535995458293
 10
-3.171213058444448
 20
5.326281343806131
 10
-3.222109552284083
 20
5.360614603359868
 10
-3.276353358469211
 20
5.395399910083571
 10
-3.333991590670365
 20
5.430499347996064
 10
-3.395066740299951
 20
5.465773087997418
 10
-3.459616613801465
 20
5.501079528670283
 10
-3.527674273996778
 20
5.536275438944812
 10
-3.599267985543792
 20
5.571216102514328
 10
-3.674421164553748
 20
5.605755463887565
 10
-3.753152332414357
 20
5.639746275961901
 10
-3.835475073861812
 20
5.673040249000804
 10
-3.921397999341553
 20
5.705488200897501
 10
-4.010924711694499
 20
5.736940208605837
 10
-4.261330003061043
 20
5.553473382038646
 10
-4.503355007509697
 20
5.359085152928373
 10
-4.49614591917793
 20
5.264468610722281
 10
-4.487042093955806
 20
5.173075290005652
 10
-4.476189278869411
 20
5.08494051364104
 10
-4.46373380131576
 20
5.000094575747239
 10
-4.449822414169596
 20
4.918562734684725
 10
-4.434602140898066
 20
4.840365210521265
 10
-4.418220120807808
 20
4.765517186973039
 10
-4.400823454548696
 20
4.694028817813314
 10
-4.382559049998204
 20
4.625905237737283
 10
-4.363573468649998
 20
4.561146577668395
 10
-4.344012772629747
 20
4.499747984488134
 10
-4.324022372460748
 20
4.441699645167914
 10
-4.303746875701109
 20
4.386986815278389
 10
-4.283329936573658
 20
4.335589851848341
 10
-4.262914106708737
 20
4.287484250541827
 10
-4.242640687119285
 20
4.242640687119287
 10
-4.229242081461097
 20
4.214476168992307
 10
-4.216010939543086
 20
4.187741791659502
 10
-4.202988302758231
 20
4.162425267429628
 10
-4.19021486670138
 20
4.138513381128789
 10
-4.177730962297194
 20
4.115991997947326
 10
-4.165576537089512
 20
4.094846071648572
 10
-4.153791136698779
 20
4.075059653136375
 10
-4.142413886454202
 20
4.056615899378093
 10
-4.131483473207144
 20
4.039497082679728
 10
-4.121038127332295
 20
4.023684600309638
 10
-4.111115604923029
 20
4.009158984467311
 10
-4.101753170187307
 20
3.99589991259337
 10
-4.092987578050455
 20
3.983886218017067
 10
-4.084855056970984
 20
3.973095900937218
 10
-4.077391291975663
 20
3.963506139732606
 10
-4.070631407919878
 20
3.955093302597588
 10
-3.983701071859838
 20
3.895425197778172
 10
-3.904848594260027
 20
3.834471379506646
 10
-3.83405976236162
 20
3.772690503979751
 10
-3.771299196786548
 20
3.710538755656302
 10
-3.71651050322862
 20
3.64846895970543
 10
-3.669616459350082
 20
3.586929701895978
 10
-3.630519236554075
 20
3.526364457273645
 10
-3.599100656253253
 20
3.467210728958714
 10
-3.575222480205134
 20
3.409899198381585
 10
-3.558726734435789
 20
3.354852888255991
 10
-3.549436066225088
 20
3.302486339570494
 10
-3.547154133579133
 20
3.253204803857995
 10
-3.551666026568725
 20
3.207403451980186
 10
-3.562738719866808
 20
3.16546660063961
 10
-3.580121555772831
 20
3.127766957805759
 10
-3.603546756968025
 20
3.094664888214107
 10
-3.768428366383366
 20
2.891616787791424
 10
-3.921883269856727
 20
2.679800667515761
 10
-3.947794525574247
 20
2.648606214652676
 10
-3.979710575238967
 20
2.62205829895794
 10
-4.017352639115952
 20
2.60050884271617
 10
-4.060425583938509
 20
2.584296426594651
 10
-4.108618499670814
 20
2.573745604256936
 10
-4.161605303354417
 20
2.56916624049904
 10
-4.219045369114922
 20
2.570852873938426
 10
-4.280584183367091
 20
2.579084105250645
 10
-4.345854024219705
 20
2.594122011911821
 10
-4.414474664046153
 20
2.616211590367109
 10
-4.486054094152604
 20
2.645580226505962
 10
-4.560189270443122
 20
2.68243719528449
 10
-4.636466878949994
 20
2.726973190293433
 10
-4.71446412006804
 20
2.779359884027471
 10
-4.793749510303789
 20
2.83974951956762
 10
-4.873883700324086
 20
2.908274534343562
 10
-4.883759463721486
 20
2.912626678461876
 10
-4.894954226265924
 20
2.917354108994469
 10
-4.907481723547263
 20
2.922416781575012
 10
-4.921354763594282
 20
2.927774320444322
 10
-4.936585219968077
 20
2.933386037631142
 10
-4.95318402522791
 20
2.939210952266347
 10
-4.971161164772013
 20
2.945207810023658
 10
-4.990525671055654
 20
2.951335102679847
 10
-5.011285618188687
 20
2.957551087787414
 10
-5.033448116914664
 20
2.963813808452654
 10
-5.057019309973456
 20
2.970081113212002
 10
-5.082004367849227
 20
2.976310675999514
 10
-5.108407484905407
 20
2.982460016198296
 10
-5.136231875908289
 20
2.988486518768678
 10
-5.165479772940638
 20
2.994347454445894
 10
-5.196152422706632
 20
3.000000000000003
 10
-5.244715125858399
 20
3.007976251304633
 10
-5.29646557414014
 20
3.015245782842049
 10
-5.351395521198944
 20
3.021664518642892
 10
-5.409491741328902
 20
3.027088422217004
 10
-5.470736027734454
 20
3.031373650265448
 10
-5.535105195250585
 20
3.034376706474044
 10
-5.602571087522258
 20
3.035954595264241
 10
-5.673100588642092
 20
3.035964975377107
 10
-5.746655639241909
 20
3.034266313166261
 10
-5.823193257030443
 20
3.030718035475664
 10
-5.902665561766129
 20
3.025180681978443
 10
-5.985019804650529
 20
3.017516056853179
 10
-6.070198402124602
 20
3.007587379674513
 10
-6.158138974046728
 20
2.995259435395389
 10
-6.24877438622801
 20
2.980398723298833
 10
-6.34203279729713
 20
2.962873604797803
 10
-6.467156727579006
 20
2.678784026555631
 10
-6.579562415227445
 20
2.389426379725137
 10
-6.526010890490964
 20
2.311090594722303
 10
-6.472430086218678
 20
2.236493569856545
 10
-6.418963884468977
 20
2.165593022111128
 10
-6.365754155544348
 20
2.098342023264006
 10
-6.312940620342632
 20
2.034689071259635
 10
-6.260660714955216
 20
1.974578165456796
 10
-6.209049457617633
 20
1.917948885686105
 10
-6.15823931811622
 20
1.86473647504822
 10
-6.108360089752483
 20
1.814871926380879
 10
-6.059538763964875
 20
1.768282072320285
 10
-6.011899407705504
 20
1.724889678879678
 10
-5.965563043667221
 20
1.684613542465367
 10
-5.920647533454265
 20
1.647368590247922
 10
-5.877267463787347
 20
1.613065983803846
 10
-5.835534035831729
 20
1.58161322594054
 10
-5.795554957734412
 20
1.552914270615128
 10
-5.76986916579564
 20
1.535222385260909
 10
-5.745043472107163
 20
1.518685306295347
 10
-5.721107275712284
 20
1.503271871569178
 10
-5.698089212443016
 20
1.488950288608673
 10
-5.676017142499842
 20
1.475688150847254
 10
-5.654918138352215
 20
1.463452454089822
 10
-5.63481847296397
 20
1.452209613203714
 10
-5.615743608347813
 20
1.441925479030187
 10
-5.597718184452816
 20
1.432565355510201
 10
-5.580766008388837
 20
1.424094017018235
 10
-5.564910043991628
 20
1.416475725897798
 10
-5.55017240173225
 20
1.409674250192224
 10
-5.536574328974371
 20
1.403652881564263
 10
-5.524136200582812
 20
1.398374453397962
 10
-5.51287750988668
 20
1.393801359076201
 10
-5.502816860000224
 20
1.389895570427266
 10
-5.397698928203003
 20
1.381686643888
 10
-5.298933770314462
 20
1.368325327607104
 10
-5.206738405822767
 20
1.350215935881972
 10
-5.121310287517151
 20
1.327771225731784
 10
-5.042826989080388
 20
1.301411552409577
 10
-4.971445926890666
 20
1.271564013755821
 10
-4.907304116420737
 20
1.238661584724465
 10
-4.85051796357192
 20
1.203142243425583
 10
-4.801183091229645
 20
1.16544809004008
 10
-4.759374201276226
 20
1.126024459971391
 10
-4.725144972244879
 20
1.085319032606587
 10
-4.698527992747507
 20
1.04378093706503
 10
-4.679534730756746
 20
1.001859856316382
 10
-4.668155538770912
 20
0.9600051310516693
 10
-4.664359694838419
 20
0.9186648646909428
 10
-4.668095479366392
 20
0.8782850309091341
 10
-4.709363091525599
 20
0.6199994130452466
 10
-4.736350876130986
 20
0.3598338202187803
 10
-4.743193455394771
 20
0.3198630037234328
 10
-4.757559607345496
 20
0.2809138094819041
 10
-4.779383862792957
 20
0.2434304010002968
 10
-4.808579919164337
 20
0.207853564371059
 10
-4.845040797302099
 20
0.1746198263296289
 10
-4.88863903347849
 20
0.1441605791403202
 10
-4.939226906341829
 20
0.1169012136654475
 10
-4.996636698459088
 20
0.09326026196017116
 10
-5.060680992069008
 20
0.07364855072218159
 10
-5.131152998610299
 20
0.05846836691012582
 10
-5.207826921540324
 20
0.04811263682764925
 10
-5.290458351911214
 20
0.04296411995108489
 10
-5.378784696122561
 20
0.04339461875821087
 10
-5.472525635222908
 20
0.0497642057931398
 10
-5.571383615086103
 20
0.06242046917831842
 10
-5.675044366743341
 20
0.08169777775883975
 10
-5.685773100786411
 20
0.08052896342753051
 10
-5.697831764805526
 20
0.07902565709116277
 10
-5.711212231987277
 20
0.07714631151628631
 10
-5.725905406530369
 20
0.0748495562553617
 10
-5.741901227254717
 20
0.07209421771110416
 10
-5.759188671599805
 20
0.06883933913015135
 10
-5.777755760011033
 20
0.06504420051881293
 10
-5.797589560712503
 20
0.06066833847367401
 10
-5.818676194864715
 20
0.05567156591985645
 10
-5.841000842105371
 20
0.05001399174977168
 10
-5.864547746471467
 20
0.04365604035522923
 10
-5.889300222700665
 20
0.03655847104580016
 10
-5.915240662909802
 20
0.02868239734636811
 10
-5.942350543648319
 20
0.01998930616684994
 10
-5.970610433324213
 20
0.01044107683709092
 10
-6.000000000000002
 20
6.098879892180821e-16
 10
-6.046044660258191
 20
-0.01737371531910455
 10
-6.094496628896119
 20
-0.03695334047496066
 10
-6.145276726377997
 20
-0.05885952574065111
 10
-6.198301480661451
 20
-0.08321039752277301
 10
-6.25348320254953
 20
-0.110121424374587
 10
-6.310730064943254
 20
-0.1397052851670153
 10
-6.369946185934605
 20
-0.1720717395261944
 10
-6.431031715677058
 20
-0.2073275006446749
 10
-6.493882926967725
 20
-0.2455761105716251
 10
-6.558392309472441
 20
-0.2869178180856308
 10
-6.624448667522234
 20
-0.3314494592518016
 10
-6.691937221406926
 20
-0.3792643407629645
 10
-6.760739712088869
 20
-0.4304521261627008
 10
-6.8307345092572
 20
-0.4850987250459242
 10
-6.901796722640386
 20
-0.5432861853305085
 10
-6.973798316492301
 20
-0.605092588691294
 10
-6.940114029616673
 20
-0.9136833455403601
 10
-6.892781387234832
 20
-1.220477262299073
 10
-6.807236513900231
 20
-1.261542279768683
 10
-6.723535663812351
 20
-1.299354796213025
 10
-6.641782300980538
 20
-1.334023370827937
 10
-6.562075824579765
 20
-1.36565957979711
 10
-6.48451148542923
 20
-1.394377885657907
 10
-6.409180306354861
 20
-1.420295504433952
 10
-6.336169006493912
 20
-1.443532270644595
 10
-6.265559929596915
 20
-1.464210500302906
 10
-6.197430976379082
 20
-1.4824548520152
 10
-6.131855540970281
 20
-1.498392186296481
 10
-6.068902451509424
 20
-1.512151423217369
 10
-6.008635914926113
 20
-1.523863398499309
 10
-5.95111546594903
 20
-1.533660718175875
 10
-5.896395920377503
 20
-1.541677611939006
 10
-5.844527332649276
 20
-1.548049785289901
 10
-5.795554957734412
 20
-1.552914270615124
 10
-5.764464466722005
 20
-1.555392996803334
 10
-5.734696245838432
 20
-1.557301680447661
 10
-5.706260174327409
 20
-1.558682008282657
 10
-5.679165155310052
 20
-1.559575831314227
 10
-5.653419113144448
 20
-1.560025144552517
 10
-5.629028991179333
 20
-1.560072066703643
 10
-5.606000749902493
 20
-1.559758819827597
 10
-5.584339365484388
 20
-1.55912770896972
 10
-5.564048828717345
 20
-1.558221101773089
 10
-5.545132144350529
 20
-1.5570814080792
 10
-5.527591330820827
 20
-1.555751059524319
 10
-5.511427420379531
 20
-1.55427248913888
 10
-5.496640459614718
 20
-1.552688110957305
 10
-5.483229510368944
 20
-1.551040299645593
 10
-5.471192651051862
 20
-1.549371370154075
 10
-5.460526978347144
 20
-1.547723557402638
 10
-5.365387715747837
 20
-1.502273730424832
 10
-5.273173921867131
 20
-1.464462390807815
 10
-5.184275698243591
 20
-1.434047901843016
 10
-5.099070422518332
 20
-1.410771531860849
 10
-5.017922055638196
 20
-1.394358029374958
 10
-4.941180473105901
 20
-1.384516224994688
 10
-4.869180821278539
 20
-1.380939659147092
 10
-4.802242899678835
 20
-1.383307234613205
 10
-4.740670570245213
 20
-1.391283892848061
 10
-4.684751194407179
 20
-1.404521313020236
 10
-4.634755098831674
 20
-1.422658632674384
 10
-4.590935070644162
 20
-1.445323188889512
 10
-4.553525882885106
 20
-1.47213127877656
 10
-4.522743850918476
 20
-1.502688938131302
 10
-4.498786420463773
 20
-1.53659273703266
 10
-4.481831787877159
 20
-1.573430591152286
 10
-4.388427779428612
 20
-1.817746303734176
 10
-4.281717090075508
 20
-2.056550208615226
 10
-4.26765752929768
 20
-2.094587240742095
 10
-4.260624384720871
 20
-2.135501308387556
 10
-4.26078304011625
 20
-2.178875020076788
 10
-4.268279148309569
 20
-2.224283492569687
 10
-4.283238326000444
 20
-2.271295193045163
 10
-4.305765882494737
 20
-2.31947279297945
 10
-4.33594658278037
 20
-2.368374032403404
 10
-4.373844445327262
 20
-2.417552593208444
 10
-4.419502574941887
 20
-2.466558980157187
 10
-4.47294303095628
 20
-2.51494140824319
 10
-4.534166730980254
 20
-2.562246695034362
 10
-4.603153390394208
 20
-2.608021156626725
 10
-4.679861497708206
 20
-2.651811505829128
 10
-4.764228325861181
 20
-2.693165751195437
 10
-4.856169979482107
 20
-2.731634095518483
 10
-4.955581478082927
 20
-2.766769832399779
 10
-4.964288427149016
 20
-2.773146422324535
 10
-4.973979883357089
 20
-2.780477655811057
 10
-4.98462803506355
 20
-2.788795450412266
 10
-4.996204319849645
 20
-2.798131086086048
 10
-5.008679437679183
 20
-2.808515189623575
 10
-5.022023364358062
 20
-2.819977719333458
 10
-5.036205365290829
 20
-2.832547949987374
 10
-5.051194009529329
 20
-2.846254458032655
 10
-5.066957184108544
 20
-2.8611251070773
 10
-5.083462108664436
 20
-2.877187033652716
 10
-5.100675350328687
 20
-2.894466633259465
 10
-5.118562838895028
 20
-2.91298954670115
 10
-5.137089882251776
 20
-2.932780646711505
 10
-5.15622118207514
 20
-2.953864024879642
 10
-5.17592084977773
 20
-2.976262978878319
 10
-5.196152422706635
 20
-2.999999999999999
 10
-5.227341410539298
 20
-3.038068408953558
 10
-5.259512233665182
 20
-3.07925084605407
 10
-5.292535995458294
 20
-3.123612207735105
 10
-5.326281343806132
 20
-3.171213058444447
 10
-5.360614603359869
 20
-3.222109552284083
 10
-5.395399910083571
 20
-3.276353358469211
 10
-5.430499347996064
 20
-3.333991590670365
 10
-5.465773087997419
 20
-3.395066740299951
 10
-5.501079528670284
 20
-3.459616613801465
 10
-5.536275438944813
 20
-3.527674273996778
 10
-5.571216102514329
 20
-3.599267985543791
 10
-5.605755463887566
 20
-3.674421164553747
 10
-5.639746275961903
 20
-3.753152332414357
 10
-5.673040249000804
 20
-3.835475073861812
 10
-5.705488200897502
 20
-3.921397999341553
 10
-5.736940208605838
 20
-4.010924711694499
 10
-5.553473382038648
 20
-4.261330003061043
 10
-5.359085152928373
 20
-4.503355007509696
 10
-5.264468610722282
 20
-4.49614591917793
 10
-5.173075290005653
 20
-4.487042093955806
 10
-5.084940513641041
 20
-4.476189278869411
 10
-5.000094575747241
 20
-4.46373380131576
 10
-4.918562734684725
 20
-4.449822414169596
 10
-4.840365210521266
 20
-4.434602140898066
 10
-4.76551718697304
 20
-4.418220120807808
 10
-4.694028817813315
 20
-4.400823454548695
 10
-4.625905237737284
 20
-4.382559049998204
 10
-4.561146577668396
 20
-4.363573468649998
 10
-4.499747984488135
 20
-4.344012772629747
 10
-4.441699645167914
 20
-4.324022372460747
 10
-4.38698681527839
 20
-4.303746875701108
 10
-4.335589851848342
 20
-4.283329936573658
 10
-4.287484250541828
 20
-4.262914106708737
 10
-4.242640687119288
 20
-4.242640687119285
 10
-4.214476168992308
 20
-4.229242081461097
 10
-4.187741791659502
 20
-4.216010939543086
 10
-4.162425267429628
 20
-4.202988302758231
 10
-4.13851338112879
 20
-4.19021486670138
 10
-4.115991997947326
 20
-4.177730962297194
 10
-4.094846071648573
 20
-4.165576537089512
 10
-4.075059653136375
 20
-4.153791136698779
 10
-4.056615899378095
 20
-4.142413886454202
 10
-4.039497082679728
 20
-4.131483473207145
 10
-4.023684600309639
 20
-4.121038127332295
 10
-4.009158984467311
 20
-4.111115604923029
 10
-3.995899912593371
 20
-4.101753170187308
 10
-3.983886218017067
 20
-4.092987578050455
 10
-3.973095900937219
 20
-4.084855056970984
 10
-3.963506139732606
 20
-4.077391291975663
 10
-3.955093302597588
 20
-4.070631407919878
 10
-3.895425197778172
 20
-3.983701071859838
 10
-3.834471379506648
 20
-3.904848594260027
 10
-3.772690503979752
 20
-3.83405976236162
 10
-3.710538755656303
 20
-3.771299196786548
 10
-3.648468959705431
 20
-3.71651050322862
 10
-3.586929701895979
 20
-3.669616459350081
 10
-3.526364457273646
 20
-3.630519236554075
 10
-3.467210728958714
 20
-3.599100656253253
 10
-3.409899198381586
 20
-3.575222480205133
 10
-3.354852888255991
 20
-3.558726734435789
 10
-3.302486339570494
 20
-3.549436066225087
 10
-3.253204803857995
 20
-3.547154133579133
 10
-3.207403451980188
 20
-3.551666026568725
 10
-3.16546660063961
 20
-3.562738719866807
 10
-3.127766957805759
 20
-3.580121555772831
 10
-3.094664888214107
 20
-3.603546756968025
 10
-2.891616787791425
 20
-3.768428366383366
 10
-2.679800667515761
 20
-3.921883269856726
 10
-2.648606214652677
 20
-3.947794525574246
 10
-2.622058298957941
 20
-3.979710575238966
 10
-2.60050884271617
 20
-4.017352639115952
 10
-2.584296426594652
 20
-4.060425583938509
 10
-2.573745604256937
 20
-4.108618499670813
 10
-2.569166240499041
 20
-4.161605303354416
 10
-2.570852873938426
 20
-4.219045369114921
 10
-2.579084105250645
 20
-4.280584183367091
 10
-2.594122011911822
 20
-4.345854024219705
 10
-2.616211590367109
 20
-4.414474664046153
 10
-2.645580226505963
 20
-4.486054094152603
 10
-2.68243719528449
 20
-4.560189270443121
 10
-2.726973190293434
 20
-4.636466878949993
 10
-2.779359884027472
 20
-4.714464120068039
 10
-2.839749519567621
 20
-4.793749510303788
 10
-2.908274534343563
 20
-4.873883700324085
 10
-2.912626678461877
 20
-4.883759463721485
 10
-2.91735410899447
 20
-4.894954226265924
 10
-2.922416781575012
 20
-4.907481723547263
 10
-2.927774320444323
 20
-4.921354763594282
 10
-2.933386037631143
 20
-4.936585219968077
 10
-2.939210952266348
 20
-4.953184025227909
 10
-2.945207810023659
 20
-4.971161164772013
 10
-2.951335102679848
 20
-4.990525671055653
 10
-2.957551087787415
 20
-5.011285618188686
 10
-2.963813808452655
 20
-5.033448116914663
 10
-2.970081113212002
 20
-5.057019309973456
 10
-2.976310675999515
 20
-5.082004367849226
 10
-2.982460016198297
 20
-5.108407484905406
 10
-2.988486518768679
 20
-5.136231875908289
 10
-2.994347454445895
 20
-5.165479772940637
 10
-3.000000000000004
 20
-5.196152422706632
 10
-3.007976251304634
 20
-5.244715125858399
 10
-3.01524578284205
 20
-5.29646557414014
 10
-3.021664518642893
 20
-5.351395521198943
 10
-3.027088422217004
 20
-5.409491741328901
 10
-3.031373650265448
 20
-5.470736027734453
 10
-3.034376706474045
 20
-5.535105195250584
 10
-3.035954595264241
 20
-5.602571087522257
 10
-3.035964975377108
 20
-5.673100588642091
 10
-3.034266313166261
 20
-5.746655639241908
 10
-3.030718035475664
 20
-5.823193257030442
 10
-3.025180681978444
 20
-5.902665561766129
 10
-3.01751605685318
 20
-5.985019804650529
 10
-3.007587379674514
 20
-6.070198402124602
 10
-2.995259435395389
 20
-6.158138974046727
 10
-2.980398723298834
 20
-6.248774386228009
 10
-2.962873604797804
 20
-6.342032797297129
 10
-2.678784026555632
 20
-6.467156727579006
 10
-2.389426379725138
 20
-6.579562415227445
 10
-2.311090594722303
 20
-6.526010890490963
 10
-2.236493569856547
 20
-6.472430086218677
 10
-2.16559302211113
 20
-6.418963884468977
 10
-2.098342023264006
 20
-6.365754155544348
 10
-2.034689071259636
 20
-6.312940620342632
 10
-1.974578165456797
 20
-6.260660714955216
 10
-1.917948885686106
 20
-6.209049457617633
 10
-1.864736475048221
 20
-6.15823931811622
 10
-1.814871926380879
 20
-6.108360089752482
 10
-1.768282072320285
 20
-6.059538763964875
 10
-1.724889678879679
 20
-6.011899407705503
 10
-1.684613542465368
 20
-5.965563043667222
 10
-1.647368590247923
 20
-5.920647533454264
 10
-1.613065983803847
 20
-5.877267463787346
 10
-1.581613225940541
 20
-5.835534035831728
 10
-1.552914270615129
 20
-5.795554957734411
 10
-1.53522238526091
 20
-5.76986916579564
 10
-1.518685306295348
 20
-5.745043472107162
 10
-1.503271871569179
 20
-5.721107275712283
 10
-1.488950288608674
 20
-5.698089212443015
 10
-1.475688150847255
 20
-5.676017142499841
 10
-1.463452454089823
 20
-5.654918138352214
 10
-1.452209613203715
 20
-5.634818472963969
 10
-1.441925479030188
 20
-5.615743608347812
 10
-1.432565355510202
 20
-5.597718184452815
 10
-1.424094017018236
 20
-5.580766008388837
 10
-1.4164757258978
 20
-5.564910043991627
 10
-1.409674250192225
 20
-5.550172401732249
 10
-1.403652881564264
 20
-5.53657432897437
 10
-1.398374453397962
 20
-5.524136200582811
 10
-1.393801359076201
 20
-5.512877509886679
 10
-1.389895570427267
 20
-5.502816860000224
 10
-1.381686643888
 20
-5.397698928203003
 10
-1.368325327607105
 20
-5.298933770314461
 10
-1.350215935881973
 20
-5.206738405822766
 10
-1.327771225731785
 20
-5.121310287517151
 10
-1.301411552409577
 20
-5.042826989080387
 10
-1.271564013755821
 20
-4.971445926890665
 10
-1.238661584724466
 20
-4.907304116420737
 10
-1.203142243425583
 20
-4.850517963571919
 10
-1.165448090040081
 20
-4.801183091229646
 10
-1.126024459971392
 20
-4.759374201276226
 10
-1.085319032606588
 20
-4.725144972244878
 10
-1.043780937065031
 20
-4.698527992747507
 10
-1.001859856316383
 20
-4.679534730756746
 10
-0.9600051310516702
 20
-4.668155538770911
 10
-0.9186648646909434
 20
-4.664359694838418
 10
-0.8782850309091348
 20
-4.668095479366392
 10
-0.6199994130452473
 20
-4.709363091525599
 10
-0.3598338202187806
 20
-4.736350876130986
 10
-0.3198630037234332
 20
-4.743193455394771
 10
-0.2809138094819045
 20
-4.757559607345496
 10
-0.2434304010002971
 20
-4.779383862792957
 10
-0.2078535643710593
 20
-4.808579919164337
 10
-0.1746198263296292
 20
-4.845040797302099
 10
-0.1441605791403204
 20
-4.88863903347849
 10
-0.1169012136654477
 20
-4.939226906341829
 10
-0.09326026196017147
 20
-4.996636698459088
 10
-0.07364855072218189
 20
-5.060680992069008
 10
-0.05846836691012613
 20
-5.131152998610299
 10
-0.04811263682764957
 20
-5.207826921540324
 10
-0.04296411995108522
 20
-5.290458351911214
 10
-0.0433946187582112
 20
-5.378784696122561
 10
-0.04976420579314014
 20
-5.472525635222908
 10
-0.06242046917831876
 20
-5.571383615086103
 10
-0.0816977777588401
 20
-5.675044366743341
 10
-0.08052896342753085
 20
-5.685773100786411
 10
-0.07902565709116312
 20
-5.697831764805526
 10
-0.07714631151628668
 20
-5.711212231987277
 10
-0.07484955625536205
 20
-5.725905406530369
 10
-0.07209421771110451
 20
-5.741901227254717
 10
-0.06883933913015169
 20
-5.759188671599805
 10
-0.06504420051881328
 20
-5.777755760011033
 10
-0.06066833847367436
 20
-5.797589560712503
 10
-0.05567156591985681
 20
-5.818676194864715
 10
-0.05001399174977204
 20
-5.841000842105371
 10
-0.04365604035522958
 20
-5.864547746471467
 10
-0.03655847104580053
 20
-5.889300222700665
 10
-0.02868239734636847
 20
-5.915240662909802
 10
-0.01998930616685031
 20
-5.942350543648319
 10
-0.01044107683709128
 20
-5.970610433324213
 10
-9.77282028962288e-16
 20
-6.000000000000002
 10
0.01737371531910418
 20
-6.046044660258191
 10
0.03695334047496029
 20
-6.094496628896119
 10
0.05885952574065072
 20
-6.145276726377997
 10
0.08321039752277264
 20
-6.198301480661451
 10
0.1101214243745866
 20
-6.25348320254953
 10
0.1397052851670149
 20
-6.310730064943254
 10
0.172071739526194
 20
-6.369946185934605
 10
0.2073275006446745
 20
-6.431031715677058
 10
0.2455761105716247
 20
-6.493882926967725
 10
0.2869178180856303
 20
-6.558392309472441
 10
0.3314494592518012
 20
-6.624448667522234
 10
0.3792643407629641
 20
-6.691937221406926
 10
0.4304521261627004
 20
-6.760739712088869
 10
0.4850987250459238
 20
-6.8307345092572
 10
0.5432861853305082
 20
-6.901796722640386
 10
0.6050925886912936
 20
-6.973798316492301
 10
0.9136833455403598
 20
-6.940114029616673
 10
1.220477262299072
 20
-6.892781387234832
 10
1.261542279768682
 20
-6.807236513900231
 10
1.299354796213024
 20
-6.723535663812351
 10
1.334023370827937
 20
-6.641782300980538
 10
1.365659579797109
 20
-6.562075824579765
 10
1.394377885657907
 20
-6.48451148542923
 10
1.420295504433951
 20
-6.409180306354861
 10
1.443532270644595
 20
-6.336169006493912
 10
1.464210500302905
 20
-6.265559929596915
 10
1.4824548520152
 20
-6.197430976379082
 10
1.498392186296481
 20
-6.131855540970281
 10
1.512151423217369
 20
-6.068902451509424
 10
1.523863398499309
 20
-6.008635914926113
 10
1.533660718175875
 20
-5.95111546594903
 10
1.541677611939006
 20
-5.896395920377503
 10
1.5480497852899
 20
-5.844527332649276
 10
1.552914270615124
 20
-5.795554957734412
 10
1.555392996803333
 20
-5.764464466722005
 10
1.557301680447661
 20
-5.734696245838432
 10
1.558682008282657
 20
-5.706260174327409
 10
1.559575831314227
 20
-5.679165155310052
 10
1.560025144552517
 20
-5.653419113144448
 10
1.560072066703643
 20
-5.629028991179333
 10
1.559758819827596
 20
-5.606000749902493
 10
1.559127708969719
 20
-5.584339365484388
 10
1.558221101773089
 20
-5.564048828717345
 10
1.557081408079199
 20
-5.545132144350529
 10
1.555751059524318
 20
-5.527591330820827
 10
1.554272489138879
 20
-5.511427420379531
 10
1.552688110957304
 20
-5.496640459614718
 10
1.551040299645593
 20
-5.483229510368944
 10
1.549371370154075
 20
-5.471192651051862
 10
1.547723557402637
 20
-5.460526978347144
 10
1.502273730424832
 20
-5.365387715747837
 10
1.464462390807815
 20
-5.273173921867131
 10
1.434047901843016
 20
-5.184275698243591
 10
1.410771531860849
 20
-5.099070422518332
 10
1.394358029374958
 20
-5.017922055638196
 10
1.384516224994688
 20
-4.941180473105901
 10
1.380939659147092
 20
-4.869180821278539
 10
1.383307234613205
 20
-4.802242899678835
 10
1.39128389284806
 20
-4.740670570245213
 10
1.404521313020236
 20
-4.684751194407179
 10
1.422658632674384
 20
-4.634755098831674
 10
1.445323188889512
 20
-4.590935070644162
 10
1.47213127877656
 20
-4.553525882885106
 10
1.502688938131302
 20
-4.522743850918476
 10
1.536592737032659
 20
-4.498786420463773
 10
1.573430591152285
 20
-4.481831787877159
 10
1.817746303734176
 20
-4.388427779428612
 10
2.056550208615224
 20
-4.281717090075509
 10
2.094587240742094
 20
-4.267657529297682
 10
2.135501308387554
 20
-4.260624384720873
 10
2.178875020076786
 20
-4.260783040116251
 10
2.224283492569685
 20
-4.26827914830957
 10
2.271295193045161
 20
-4.283238326000445
 10
2.319472792979448
 20
-4.305765882494739
 10
2.368374032403402
 20
-4.335946582780371
 10
2.417552593208442
 20
-4.373844445327263
 10
2.466558980157185
 20
-4.419502574941888
 10
2.514941408243188
 20
-4.472943030956282
 10
2.56224669503436
 20
-4.534166730980255
 10
2.608021156626723
 20
-4.603153390394209
 10
2.651811505829126
 20
-4.679861497708207
 10
2.693165751195435
 20
-4.764228325861182
 10
2.731634095518481
 20
-4.856169979482108
 10
2.766769832399777
 20
-4.955581478082927
 10
2.773146422324532
 20
-4.964288427149017
 10
2.780477655811055
 20
-4.97397988335709
 10
2.788795450412263
 20
-4.984628035063552
 10
2.798131086086046
 20
-4.996204319849646
 10
2.808515189623573
 20
-5.008679437679184
 10
2.819977719333456
 20
-5.022023364358064
 10
2.832547949987372
 20
-5.036205365290829
 10
2.846254458032653
 20
-5.051194009529331
 10
2.861125107077298
 20
-5.066957184108546
 10
2.877187033652714
 20
-5.083462108664437
 10
2.894466633259463
 20
-5.100675350328689
 10
2.912989546701148
 20
-5.11856283889503
 10
2.932780646711503
 20
-5.137089882251777
 10
2.95386402487964
 20
-5.156221182075141
 10
2.976262978878317
 20
-5.17592084977773
 10
2.999999999999997
 20
-5.196152422706636
 10
3.038068408953555
 20
-5.227341410539299
 10
3.079250846054068
 20
-5.259512233665183
 10
3.123612207735103
 20
-5.292535995458295
 10
3.171213058444445
 20
-5.326281343806133
 10
3.222109552284081
 20
-5.36061460335987
 10
3.276353358469208
 20
-5.395399910083572
 10
3.333991590670362
 20
-5.430499347996066
 10
3.395066740299948
 20
-5.46577308799742
 10
3.459616613801463
 20
-5.501079528670286
 10
3.527674273996775
 20
-5.536275438944815
 10
3.599267985543789
 20
-5.571216102514331
 10
3.674421164553745
 20
-5.605755463887568
 10
3.753152332414354
 20
-5.639746275961905
 10
3.835475073861809
 20
-5.673040249000806
 10
3.921397999341551
 20
-5.705488200897504
 10
4.010924711694496
 20
-5.736940208605839
 10
4.26133000306104
 20
-5.55347338203865
 10
4.503355007509693
 20
-5.359085152928375
 10
4.496145919177927
 20
-5.264468610722284
 10
4.487042093955804
 20
-5.173075290005656
 10
4.476189278869408
 20
-5.084940513641044
 10
4.463733801315758
 20
-5.000094575747242
 10
4.449822414169593
 20
-4.918562734684728
 10
4.434602140898063
 20
-4.840365210521268
 10
4.418220120807805
 20
-4.765517186973041
 10
4.400823454548693
 20
-4.694028817813317
 10
4.382559049998203
 20
-4.625905237737285
 10
4.363573468649996
 20
-4.561146577668397
 10
4.344012772629745
 20
-4.499747984488137
 10
4.324022372460745
 20
-4.441699645167915
 10
4.303746875701107
 20
-4.386986815278392
 10
4.283329936573656
 20
-4.335589851848344
 10
4.262914106708735
 20
-4.28748425054183
 10
4.242640687119283
 20
-4.24264068711929
 10
4.229242081461095
 20
-4.214476168992309
 10
4.216010939543084
 20
-4.187741791659505
 10
4.20298830275823
 20
-4.16242526742963
 10
4.190214866701378
 20
-4.138513381128792
 10
4.177730962297193
 20
-4.115991997947329
 10
4.16557653708951
 20
-4.094846071648575
 10
4.153791136698778
 20
-4.075059653136377
 10
4.1424138864542
 20
-4.056615899378095
 10
4.131483473207143
 20
-4.039497082679731
 10
4.121038127332294
 20
-4.02368460030964
 10
4.111115604923027
 20
-4.009158984467313
 10
4.101753170187306
 20
-3.995899912593373
 10
4.092987578050454
 20
-3.983886218017069
 10
4.084855056970982
 20
-3.973095900937221
 10
4.077391291975661
 20
-3.963506139732608
 10
4.070631407919876
 20
-3.95509330259759
 10
3.983701071859836
 20
-3.895425197778175
 10
3.904848594260026
 20
-3.834471379506649
 10
3.834059762361618
 20
-3.772690503979753
 10
3.771299196786546
 20
-3.710538755656304
 10
3.716510503228618
 20
-3.648468959705432
 10
3.66961645935008
 20
-3.58692970189598
 10
3.630519236554073
 20
-3.526364457273647
 10
3.599100656253252
 20
-3.467210728958717
 10
3.575222480205132
 20
-3.409899198381587
 10
3.558726734435787
 20
-3.354852888255992
 10
3.549436066225086
 20
-3.302486339570497
 10
3.547154133579131
 20
-3.253204803857997
 10
3.551666026568723
 20
-3.207403451980189
 10
3.562738719866806
 20
-3.165466600639612
 10
3.58012155577283
 20
-3.127766957805761
 10
3.603546756968024
 20
-3.094664888214108
 10
3.768428366383365
 20
-2.891616787791426
 10
3.921883269856726
 20
-2.679800667515761
 10
3.947794525574246
 20
-2.648606214652677
 10
3.979710575238966
 20
-2.622058298957941
 10
4.017352639115952
 20
-2.60050884271617
 10
4.060425583938509
 20
-2.584296426594652
 10
4.108618499670813
 20
-2.573745604256937
 10
4.161605303354416
 20
-2.569166240499041
 10
4.219045369114921
 20
-2.570852873938426
 10
4.280584183367091
 20
-2.579084105250645
 10
4.345854024219705
 20
-2.594122011911822
 10
4.414474664046153
 20
-2.616211590367109
 10
4.486054094152603
 20
-2.645580226505963
 10
4.560189270443121
 20
-2.68243719528449
 10
4.636466878949993
 20
-2.726973190293434
 10
4.714464120068039
 20
-2.779359884027472
 10
4.793749510303788
 20
-2.839749519567621
 10
4.873883700324085
 20
-2.908274534343563
 10
4.883759463721485
 20
-2.912626678461877
 10
4.894954226265924
 20
-2.91735410899447
 10
4.907481723547263
 20
-2.922416781575012
 10
4.921354763594282
 20
-2.927774320444323
 10
4.936585219968077
 20
-2.933386037631143
 10
4.953184025227909
 20
-2.939210952266348
 10
4.971161164772013
 20
-2.945207810023659
 10
4.990525671055653
 20
-2.951335102679848
 10
5.011285618188686
 20
-2.957551087787415
 10
5.033448116914663
 20
-2.963813808452655
 10
5.057019309973456
 20
-2.970081113212002
 10
5.082004367849226
 20
-2.976310675999515
 10
5.108407484905406
 20
-2.982460016198297
 10
5.136231875908289
 20
-2.988486518768679
 10
5.165479772940637
 20
-2.994347454445895
 10
5.196152422706632
 20
-3.000000000000004
 10
5.244715125858399
 20
-3.007976251304634
 10
5.29646557414014
 20
-3.01524578284205
 10
5.351395521198943
 20
-3.021664518642893
 10
5.409491741328901
 20
-3.027088422217004
 10
5.470736027734453
 20
-3.031373650265448
 10
5.535105195250584
 20
-3.034376706474045
 10
5.602571087522257
 20
-3.035954595264241
 10
5.673100588642091
 20
-3.035964975377108
 10
5.746655639241908
 20
-3.034266313166261
 10
5.823193257030442
 20
-3.030718035475664
 10
5.902665561766129
 20
-3.025180681978444
 10
5.985019804650529
 20
-3.01751605685318
 10
6.070198402124602
 20
-3.007587379674514
 10
6.158138974046727
 20
-2.995259435395389
 10
6.248774386228009
 20
-2.980398723298834
 10
6.342032797297129
 20
-2.962873604797804
 10
6.467156727579006
 20
-2.678784026555632
 10
6.579562415227445
 20
-2.389426379725138
 10
6.526010890490963
 20
-2.311090594722303
 10
6.472430086218677
 20
-2.236493569856547
 10
6.418963884468977
 20
-2.16559302211113
 10
6.365754155544348
 20
-2.098342023264006
 10
6.312940620342632
 20
-2.034689071259636
 10
6.260660714955216
 20
-1.974578165456797
 10
6.209049457617633
 20
-1.917948885686106
 10
6.15823931811622
 20
-1.864736475048221
 10
6.108360089752482
 20
-1.814871926380879
 10
6.059538763964875
 20
-1.768282072320285
 10
6.011899407705503
 20
-1.724889678879679
 10
5.965563043667222
 20
-1.684613542465368
 10
5.920647533454264
 20
-1.647368590247923
 10
5.877267463787346
 20
-1.613065983803847
 10
5.835534035831728
 20
-1.581613225940541
 10
5.795554957734411
 20
-1.552914270615129
 10
5.76986916579564
 20
-1.53522238526091
 10
5.745043472107162
 20
-1.518685306295348
 10
5.721107275712283
 20
-1.503271871569179
 10
5.698089212443015
 20
-1.488950288608674
 10
5.676017142499841
 20
-1.475688150847255
 10
5.654918138352214
 20
-1.463452454089823
 10
5.634818472963969
 20
-1.452209613203715
 10
5.615743608347812
 20
-1.441925479030188
 10
5.597718184452815
 20
-1.432565355510202
 10
5.580766008388837
 20
-1.424094017018236
 10
5.564910043991627
 20
-1.4164757258978
 10
5.550172401732249
 20
-1.409674250192225
 10
5.53657432897437
 20
-1.403652881564264
 10
5.524136200582811
 20
-1.398374453397962
 10
5.512877509886679
 20
-1.393801359076201
 10
5.502816860000224
 20
-1.389895570427267
 10
5.397698928203003
 20
-1.381686643888
 10
5.298933770314461
 20
-1.368325327607105
 10
5.206738405822766
 20
-1.350215935881973
 10
5.121310287517151
 20
-1.327771225731785
 10
5.042826989080387
 20
-1.301411552409577
 10
4.971445926890665
 20
-1.271564013755821
 10
4.907304116420737
 20
-1.238661584724466
 10
4.850517963571919
 20
-1.203142243425583
 10
4.801183091229646
 20
-1.165448090040081
 10
4.759374201276226
 20
-1.126024459971392
 10
4.725144972244878
 20
-1.085319032606588
 10
4.698527992747507
 20
-1.043780937065031
 10
4.679534730756746
 20
-1.001859856316383
 10
4.668155538770911
 20
-0.9600051310516702
 10
4.664359694838418
 20
-0.9186648646909434
 10
4.668095479366392
 20
-0.8782850309091348
 10
4.709363091525599
 20
-0.6199994130452473
  0
ENDSEC
  0
SECTION
  2
OBJECTS
  0
DICTIONARY
  5
C
330
0
100
AcDbDictionary
281
    1
  3
ACAD_GROUP
350
D
  0
DICTIONARY
  5
D
330
C
100
AcDbDictionary
281
    1
  0
PLOTSETTINGS
  5
54
  6
1x1
 40
0
 41
0
 42
0
 43
0
  0
ENDSEC
  0
EOF
