999
dxfrw 0.6.3
  0
SECTION
  2
HEADER
  9
$ACADVER
  1
AC1021
  9
$DWGCODEPAGE
  3
ANSI_1252
  9
$INSBASE
 10
0
 20
0
 30
0
  9
$EXTMIN
 10
-17.24951618989592
 20
-10
 30
0
  9
$EXTMAX
 10
8.983155519027896
 20
8.983155519027896
 30
0
  9
$LIMMIN
 10
0
 20
0
  9
$LIMMAX
 10
420
 20
297
  9
$ORTHOMODE
 70
    0
  9
$REGENMODE
 70
    1
  9
$FILLMODE
 70
    1
  9
$QTEXTMODE
 70
    0
  9
$MIRRTEXT
 70
    0
  9
$LTSCALE
 40
1
  9
$ATTMODE
 70
    0
  9
$TEXTSIZE
 40
2.5
  9
$TRACEWID
 40
15.68
  9
$TEXTSTYLE
  7
STANDARD
  9
$CLAYER
  8
0
  9
$CELTYPE
  6
BYLAYER
  9
$CECOLOR
 62
  256
  9
$CELTSCALE
 40
1
  9
$DISPSILH
 70
    0
  9
$DIMSCALE
 40
2.5
  9
$DIMASZ
 40
2.5
  9
$DIMEXO
 40
0.625
  9
$DIMDLI
 40
3.75
  9
$DIMRND
 40
0
  9
$DIMDLE
 40
0
  9
$DIMEXE
 40
1.25
  9
$DIMTP
 40
0
  9
$DIMTM
 40
0
  9
$DIMTXT
 40
2.5
  9
$DIMCEN
 40
2.5
  9
$DIMTSZ
 40
0
  9
$DIMTOL
 70
    0
  9
$DIMLIM
 70
    0
  9
$DIMTIH
 70
    0
  9
$DIMTOH
 70
    0
  9
$DIMSE1
 70
    0
  9
$DIMSE2
 70
    0
  9
$DIMTAD
 70
    1
  9
$DIMZIN
 70
    8
  9
$DIMBLK
  1

  9
$DIMASO
 70
    1
  9
$DIMSHO
 70
    1
  9
$DIMPOST
  1

  9
$DIMAPOST
  1

  9
$DIMALT
 70
    0
  9
$DIMALTD
 70
    3
  9
$DIMALTF
 40
0.03937
  9
$DIMLFAC
 40
1
  9
$DIMTOFL
 70
    1
  9
$DIMTVP
 40
0
  9
$DIMTIX
 70
    0
  9
$DIMSOXD
 70
    0
  9
$DIMSAH
 70
    0
  9
$DIMBLK1
  1

  9
$DIMBLK2
  1

  9
$DIMSTYLE
  2
STANDARD
  9
$DIMCLRD
 70
    0
  9
$DIMCLRE
 70
    0
  9
$DIMCLRT
 70
    0
  9
$DIMTFAC
 40
1
  9
$DIMGAP
 40
0.625
  9
$DIMJUST
 70
    0
  9
$DIMSD1
 70
    0
  9
$DIMSD2
 70
    0
  9
$DIMTOLJ
 70
    0
  9
$DIMTZIN
 70
    8
  9
$DIMALTZ
 70
    0
  9
$DIMALTTZ
 70
    0
  9
$DIMUPT
 70
    0
  9
$DIMDEC
 70
    2
  9
$DIMTDEC
 70
    2
  9
$DIMALTU
 70
    2
  9
$DIMALTTD
 70
    3
  9
$DIMTXSTY
  7
STANDARD
  9
$DIMAUNIT
 70
    0
  9
$DIMADEC
 70
    0
  9
$DIMALTRND
 40
0
  9
$DIMAZIN
 70
    0
  9
$DIMDSEP
 70
   44
  9
$DIMATFIT
 70
    3
  9
$DIMFRAC
 70
    0
  9
$DIMLDRBLK
  1
STANDARD
  9
$DIMLUNIT
 70
    2
  9
$DIMLWD
 70
   -2
  9
$DIMLWE
 70
   -2
  9
$DIMTMOVE
 70
    0
  9
$DIMFXL
 40
1
  9
$DIMFXLON
 70
    0
  9
$DIMJOGANG
 40
0.7854
  9
$DIMTFILL
 70
    0
  9
$DIMTFILLCLR
 70
    0
  9
$DIMARCSYM
 70
    0
  9
$DIMLTYPE
  6

  9
$DIMLTEX1
  6

  9
$DIMLTEX2
  6

  9
$LUNITS
 70
    2
  9
$LUPREC
 70
    4
  9
$SKETCHINC
 40
1
  9
$FILLETRAD
 40
0
  9
$AUNITS
 70
    0
  9
$AUPREC
 70
    2
  9
$MENU
  1
.
  9
$ELEVATION
 40
0
  9
$PELEVATION
 40
0
  9
$THICKNESS
 40
0
  9
$LIMCHECK
 70
    0
  9
$CHAMFERA
 40
0
  9
$CHAMFERB
 40
0
  9
$CHAMFERC
 40
0
  9
$CHAMFERD
 40
0
  9
$SKPOLY
 70
    0
  9
$USRTIMER
 70
    1
  9
$ANGBASE
 50
0
  9
$ANGDIR
 70
    0
  9
$PDMODE
 70
   34
  9
$PDSIZE
 40
0
  9
$PLINEWID
 40
0
  9
$SPLFRAME
 70
    0
  9
$SPLINETYPE
 70
    2
  9
$SPLINESEGS
 70
    8
  9
$HANDSEED
  5
20000
  9
$SURFTAB1
 70
    6
  9
$SURFTAB2
 70
    6
  9
$SURFTYPE
 70
    6
  9
$SURFU
 70
    6
  9
$SURFV
 70
    6
  9
$UCSBASE
  2

  9
$UCSNAME
  2

  9
$UCSORG
 10
0
 20
0
 30
0
  9
$UCSXDIR
 10
1
 20
0
 30
0
  9
$UCSYDIR
 10
0
 20
1
 30
0
  9
$UCSORTHOREF
  2

  9
$UCSORTHOVIEW
 70
    0
  9
$UCSORGTOP
 10
0
 20
0
 30
0
  9
$UCSORGBOTTOM
 10
0
 20
0
 30
0
  9
$UCSORGLEFT
 10
0
 20
0
 30
0
  9
$UCSORGRIGHT
 10
0
 20
0
 30
0
  9
$UCSORGFRONT
 10
0
 20
0
 30
0
  9
$UCSORGBACK
 10
0
 20
0
 30
0
  9
$PUCSBASE
  2

  9
$PUCSNAME
  2

  9
$PUCSORG
 10
0
 20
0
 30
0
  9
$PUCSXDIR
 10
1
 20
0
 30
0
  9
$PUCSYDIR
 10
0
 20
1
 30
0
  9
$PUCSORTHOREF
  2

  9
$PUCSORTHOVIEW
 70
    0
  9
$PUCSORGTOP
 10
0
 20
0
 30
0
  9
$PUCSORGBOTTOM
 10
0
 20
0
 30
0
  9
$PUCSORGLEFT
 10
0
 20
0
 30
0
  9
$PUCSORGRIGHT
 10
0
 20
0
 30
0
  9
$PUCSORGFRONT
 10
0
 20
0
 30
0
  9
$PUCSORGBACK
 10
0
 20
0
 30
0
  9
$USERI1
 70
    0
  9
$USERI2
 70
    0
  9
$USERI3
 70
    0
  9
$USERI4
 70
    0
  9
$USERI5
 70
    0
  9
$USERR1
 40
0
  9
$USERR2
 40
0
  9
$USERR3
 40
0
  9
$USERR4
 40
0
  9
$USERR5
 40
0
  9
$WORLDVIEW
 70
    1
  9
$SHADEDGE
 70
    3
  9
$SHADEDIF
 70
   70
  9
$TILEMODE
 70
    1
  9
$MAXACTVP
 70
   64
  9
$PINSBASE
 10
0
 20
0
 30
0
  9
$PLIMCHECK
 70
    0
  9
$PEXTMIN
 10
0
 20
0
 30
0
  9
$PEXTMAX
 10
0
 20
0
 30
0
  9
$SNAPSTYLE
 70
    0
  9
$PLIMMIN
 10
0
 20
0
  9
$PLIMMAX
 10
210
 20
297
  9
$UNITMODE
 70
    0
  9
$VISRETAIN
 70
    1
  9
$PLINEGEN
 70
    0
  9
$PSLTSCALE
 70
    1
  9
$TREEDEPTH
 70
 3020
  9
$CMLSTYLE
  2
Standard
  9
$CMLJUST
 70
    0
  9
$CMLSCALE
 40
20
  9
$PROXYGRAPHICS
 70
    1
  9
$MEASUREMENT
 70
    1
  9
$CELWEIGHT
370
   -1
  9
$ENDCAPS
280
    0
  9
$JOINSTYLE
280
    0
  9
$LWDISPLAY
290
    0
  9
$INSUNITS
 70
    4
  9
$HYPERLINKBASE
  1

  9
$STYLESHEET
  1

  9
$XEDIT
290
    1
  9
$CEPSNTYPE
380
    0
  9
$PSTYLEMODE
290
    1
  9
$EXTNAMES
290
    1
  9
$PSVPSCALE
 40
1
  9
$OLESTARTUP
290
    0
  9
$SORTENTS
280
  127
  9
$INDEXCTL
280
    0
  9
$HIDETEXT
280
    1
  9
$XCLIPFRAME
290
    0
  9
$HALOGAP
280
    0
  9
$OBSCOLOR
 70
  257
  9
$OBSLTYPE
280
    0
  9
$INTERSECTIONDISPLAY
280
    0
  9
$INTERSECTIONCOLOR
 70
  257
  9
$DIMASSOC
280
    1
  9
$PROJECTNAME
  1

  9
$CAMERADISPLAY
290
    0
  9
$LENSLENGTH
 40
50
  9
$CAMERAHEIGHT
 40
0
  9
$STEPSPERSEC
 40
2
  9
$STEPSIZE
 40
50
  9
$3DDWFPREC
 40
2
  9
$PSOLWIDTH
 40
5
  9
$PSOLHEIGHT
 40
80
  9
$LOFTANG1
 40
1.570796326794897
  9
$LOFTANG2
 40
1.570796326794897
  9
$LOFTMAG1
 40
0
  9
$LOFTMAG2
 40
0
  9
$LOFTPARAM
 70
    7
  9
$LOFTNORMALS
280
    1
  9
$LATITUDE
 40
1
  9
$LONGITUDE
 40
1
  9
$NORTHDIRECTION
 40
0
  9
$TIMEZONE
 70
-8000
  9
$LIGHTGLYPHDISPLAY
280
    1
  9
$TILEMODELIGHTSYNCH
280
    1
  9
$SOLIDHIST
280
    1
  9
$SHOWHIST
280
    1
  9
$DWFFRAME
280
    2
  9
$DGNFRAME
280
    0
  9
$REALWORLDSCALE
290
    1
  9
$INTERFERECOLOR
 62
    1
  9
$CSHADOW
280
    0
  9
$SHADOWPLANELOCATION
 40
0
  0
ENDSEC
  0
SECTION
  2
CLASSES
  0
ENDSEC
  0
SECTION
  2
TABLES
  0
TABLE
  2
VPORT
  5
8
330
0
100
AcDbSymbolTable
 70
    1
  0
VPORT
  5
31
330
2
100
AcDbSymbolTableRecord
100
AcDbViewportTableRecord
  2
*ACTIVE
 70
    0
 10
0
 20
0
 11
1
 21
1
 12
23.41025640225431
 22
8.034181380073271
 13
0
 23
0
 14
10
 24
10
 15
10
 25
10
 16
0
 26
0
 36
1
 17
0
 27
0
 37
0
 40
31.80879974967785
 41
2.505154639175258
 42
50
 43
0
 44
0
 50
0
 51
0
 71
    0
 72
  100
 73
    1
 74
    3
 75
    0
 76
    1
 77
    0
 78
    0
281
    0
 65
    1
110
0
120
0
130
0
111
1
121
0
131
0
112
0
122
1
132
0
 79
    0
146
0
348
10020
 60
    7
 61
    5
292
1
282
    1
141
0
142
0
 63
  250
421
3358443
  0
ENDTAB
  0
TABLE
  2
LTYPE
  5
5
330
0
100
AcDbSymbolTable
 70
    4
  0
LTYPE
  5
14
330
5
100
AcDbSymbolTableRecord
100
AcDbLinetypeTableRecord
  2
ByBlock
 70
    0
  3

 72
   65
 73
    0
 40
0
  0
LTYPE
  5
15
330
5
100
AcDbSymbolTableRecord
100
AcDbLinetypeTableRecord
  2
ByLayer
 70
    0
  3

 72
   65
 73
    0
 40
0
  0
LTYPE
  5
16
330
5
100
AcDbSymbolTableRecord
100
AcDbLinetypeTableRecord
  2
Continuous
 70
    0
  3
Solid line
 72
   65
 73
    0
 40
0
  0
LTYPE
  5
32
330
5
100
AcDbSymbolTableRecord
100
AcDbLinetypeTableRecord
  2
DOT
 70
    0
  3
Dot . . . . . . . . . . . . . . . . . . . . . .
 72
   65
 73
    2
 40
6.35
 49
0
 74
    0
 49
-6.35
 74
    0
  0
LTYPE
  5
33
330
5
100
AcDbSymbolTableRecord
100
AcDbLinetypeTableRecord
  2
DOTTINY
 70
    0
  3
Dot (.15x) .....................................
 72
   65
 73
    2
 40
0.9525
 49
0
 74
    0
 49
-0.9525
 74
    0
  0
LTYPE
  5
34
330
5
100
AcDbSymbolTableRecord
100
AcDbLinetypeTableRecord
  2
DOT2
 70
    0
  3
Dot (.5x) .....................................
 72
   65
 73
    2
 40
3.175
 49
0
 74
    0
 49
-3.175
 74
    0
  0
LTYPE
  5
35
330
5
100
AcDbSymbolTableRecord
100
AcDbLinetypeTableRecord
  2
DOTX2
 70
    0
  3
Dot (2x) .  .  .  .  .  .  .  .  .  .  .  .  .
 72
   65
 73
    2
 40
12.7
 49
0
 74
    0
 49
-12.7
 74
    0
  0
LTYPE
  5
36
330
5
100
AcDbSymbolTableRecord
100
AcDbLinetypeTableRecord
  2
DASHED
 70
    0
  3
Dashed _ _ _ _ _ _ _ _ _ _ _ _ _ _ _ _ _
 72
   65
 73
    2
 40
19.05
 49
12.7
 74
    0
 49
-6.35
 74
    0
  0
LTYPE
  5
37
330
5
100
AcDbSymbolTableRecord
100
AcDbLinetypeTableRecord
  2
DASHEDTINY
 70
    0
  3
Dashed (.15x) _ _ _ _ _ _ _ _ _ _ _ _ _ _ _ _ _
 72
   65
 73
    2
 40
2.8575
 49
1.905
 74
    0
 49
-0.9525
 74
    0
  0
LTYPE
  5
38
330
5
100
AcDbSymbolTableRecord
100
AcDbLinetypeTableRecord
  2
DASHED2
 70
    0
  3
Dashed (.5x) _ _ _ _ _ _ _ _ _ _ _ _ _ _ _ _ _
 72
   65
 73
    2
 40
9.524999999999999
 49
6.35
 74
    0
 49
-3.175
 74
    0
  0
LTYPE
  5
39
330
5
100
AcDbSymbolTableRecord
100
AcDbLinetypeTableRecord
  2
DASHEDX2
 70
    0
  3
Dashed (2x) ____  ____  ____  ____  ____  ___
 72
   65
 73
    2
 40
38.09999999999999
 49
25.4
 74
    0
 49
-12.7
 74
    0
  0
LTYPE
  5
3A
330
5
100
AcDbSymbolTableRecord
100
AcDbLinetypeTableRecord
  2
DASHDOT
 70
    0
  3
Dash dot __ . __ . __ . __ . __ . __ . __ . __
 72
   65
 73
    4
 40
25.4
 49
12.7
 74
    0
 49
-6.35
 74
    0
 49
0
 74
    0
 49
-6.35
 74
    0
  0
LTYPE
  5
3B
330
5
100
AcDbSymbolTableRecord
100
AcDbLinetypeTableRecord
  2
DASHDOTTINY
 70
    0
  3
Dash dot (.15x) _._._._._._._._._._._._._._._.
 72
   65
 73
    4
 40
3.81
 49
1.905
 74
    0
 49
-0.9525
 74
    0
 49
0
 74
    0
 49
-0.9525
 74
    0
  0
LTYPE
  5
3C
330
5
100
AcDbSymbolTableRecord
100
AcDbLinetypeTableRecord
  2
DASHDOT2
 70
    0
  3
Dash dot (.5x) _._._._._._._._._._._._._._._.
 72
   65
 73
    4
 40
12.7
 49
6.35
 74
    0
 49
-3.175
 74
    0
 49
0
 74
    0
 49
-3.175
 74
    0
  0
LTYPE
  5
3D
330
5
100
AcDbSymbolTableRecord
100
AcDbLinetypeTableRecord
  2
DASHDOTX2
 70
    0
  3
Dash dot (2x) ____  .  ____  .  ____  .  ___
 72
   65
 73
    4
 40
50.8
 49
25.4
 74
    0
 49
-12.7
 74
    0
 49
0
 74
    0
 49
-12.7
 74
    0
  0
LTYPE
  5
3E
330
5
100
AcDbSymbolTableRecord
100
AcDbLinetypeTableRecord
  2
DIVIDE
 70
    0
  3
Divide ____ . . ____ . . ____ . . ____ . . ____
 72
   65
 73
    6
 40
31.75
 49
12.7
 74
    0
 49
-6.35
 74
    0
 49
0
 74
    0
 49
-6.35
 74
    0
 49
0
 74
    0
 49
-6.35
 74
    0
  0
LTYPE
  5
3F
330
5
100
AcDbSymbolTableRecord
100
AcDbLinetypeTableRecord
  2
DIVIDETINY
 70
    0
  3
Divide (.15x) __..__..__..__..__..__..__..__.._
 72
   65
 73
    6
 40
4.7625
 49
1.905
 74
    0
 49
-0.9525
 74
    0
 49
0
 74
    0
 49
-0.9525
 74
    0
 49
0
 74
    0
 49
-0.9525
 74
    0
  0
LTYPE
  5
40
330
5
100
AcDbSymbolTableRecord
100
AcDbLinetypeTableRecord
  2
DIVIDE2
 70
    0
  3
Divide (.5x) __..__..__..__..__..__..__..__.._
 72
   65
 73
    6
 40
15.875
 49
6.35
 74
    0
 49
-3.175
 74
    0
 49
0
 74
    0
 49
-3.175
 74
    0
 49
0
 74
    0
 49
-3.175
 74
    0
  0
LTYPE
  5
41
330
5
100
AcDbSymbolTableRecord
100
AcDbLinetypeTableRecord
  2
DIVIDEX2
 70
    0
  3
Divide (2x) ________  .  .  ________  .  .  _
 72
   65
 73
    6
 40
63.5
 49
25.4
 74
    0
 49
-12.7
 74
    0
 49
0
 74
    0
 49
-12.7
 74
    0
 49
0
 74
    0
 49
-12.7
 74
    0
  0
LTYPE
  5
42
330
5
100
AcDbSymbolTableRecord
100
AcDbLinetypeTableRecord
  2
BORDER
 70
    0
  3
Border __ __ . __ __ . __ __ . __ __ . __ __ .
 72
   65
 73
    6
 40
44.45
 49
12.7
 74
    0
 49
-6.35
 74
    0
 49
12.7
 74
    0
 49
-6.35
 74
    0
 49
0
 74
    0
 49
-6.35
 74
    0
  0
LTYPE
  5
43
330
5
100
AcDbSymbolTableRecord
100
AcDbLinetypeTableRecord
  2
BORDERTINY
 70
    0
  3
Border (.15x) __.__.__.__.__.__.__.__.__.__.__.
 72
   65
 73
    6
 40
6.6675
 49
1.905
 74
    0
 49
-0.9525
 74
    0
 49
1.905
 74
    0
 49
-0.9525
 74
    0
 49
0
 74
    0
 49
-0.9525
 74
    0
  0
LTYPE
  5
44
330
5
100
AcDbSymbolTableRecord
100
AcDbLinetypeTableRecord
  2
BORDER2
 70
    0
  3
Border (.5x) __.__.__.__.__.__.__.__.__.__.__.
 72
   65
 73
    6
 40
22.225
 49
6.35
 74
    0
 49
-3.175
 74
    0
 49
6.35
 74
    0
 49
-3.175
 74
    0
 49
0
 74
    0
 49
-3.175
 74
    0
  0
LTYPE
  5
45
330
5
100
AcDbSymbolTableRecord
100
AcDbLinetypeTableRecord
  2
BORDERX2
 70
    0
  3
Border (2x) ____  ____  .  ____  ____  .  ___
 72
   65
 73
    6
 40
88.89999999999999
 49
25.4
 74
    0
 49
-12.7
 74
    0
 49
25.4
 74
    0
 49
-12.7
 74
    0
 49
0
 74
    0
 49
-12.7
 74
    0
  0
LTYPE
  5
46
330
5
100
AcDbSymbolTableRecord
100
AcDbLinetypeTableRecord
  2
CENTER
 70
    0
  3
Center ____ _ ____ _ ____ _ ____ _ ____ _ ____
 72
   65
 73
    4
 40
50.8
 49
31.75
 74
    0
 49
-6.35
 74
    0
 49
6.35
 74
    0
 49
-6.35
 74
    0
  0
LTYPE
  5
47
330
5
100
AcDbSymbolTableRecord
100
AcDbLinetypeTableRecord
  2
CENTERTINY
 70
    0
  3
Center (.15x) ___ _ ___ _ ___ _ ___ _ ___ _ ___
 72
   65
 73
    4
 40
7.619999999999999
 49
4.7625
 74
    0
 49
-0.9525
 74
    0
 49
0.9525
 74
    0
 49
-0.9525
 74
    0
  0
LTYPE
  5
48
330
5
100
AcDbSymbolTableRecord
100
AcDbLinetypeTableRecord
  2
CENTER2
 70
    0
  3
Center (.5x) ___ _ ___ _ ___ _ ___ _ ___ _ ___
 72
   65
 73
    4
 40
28.575
 49
19.05
 74
    0
 49
-3.175
 74
    0
 49
3.175
 74
    0
 49
-3.175
 74
    0
  0
LTYPE
  5
49
330
5
100
AcDbSymbolTableRecord
100
AcDbLinetypeTableRecord
  2
CENTERX2
 70
    0
  3
Center (2x) ________  __  ________  __  _____
 72
   65
 73
    4
 40
101.6
 49
63.5
 74
    0
 49
-12.7
 74
    0
 49
12.7
 74
    0
 49
-12.7
 74
    0
  0
ENDTAB
  0
TABLE
  2
LAYER
  5
2
330
0
100
AcDbSymbolTable
 70
    1
  0
LAYER
  5
10
330
2
100
AcDbSymbolTableRecord
100
AcDbLayerTableRecord
  2
0
 70
    0
 62
    7
  6
CONTINUOUS
370
    0
390
F
  0
LAYER
  5
4A
330
2
100
AcDbSymbolTableRecord
100
AcDbLayerTableRecord
  2
gear_M1.0000_action_lines
 70
    0
 62
    7
  6
CONTINUOUS
370
    0
390
F
  0
LAYER
  5
4B
330
2
100
AcDbSymbolTableRecord
100
AcDbLayerTableRecord
  2
gear_M1.0000_addendums
 70
    0
 62
    7
  6
CONTINUOUS
370
    0
390
F
  0
LAYER
  5
4C
330
2
100
AcDbSymbolTableRecord
100
AcDbLayerTableRecord
  2
gear_M1.0000_base_lines
 70
    0
 62
    7
  6
CONTINUOUS
370
    0
390
F
  0
LAYER
  5
4D
330
2
100
AcDbSymbolTableRecord
100
AcDbLayerTableRecord
  2
gear_M1.0000_dedendums
 70
    0
 62
    7
  6
CONTINUOUS
370
    0
390
F
  0
LAYER
  5
4E
330
2
100
AcDbSymbolTableRecord
100
AcDbLayerTableRecord
  2
gear_M1.0000_pitch_circles
 70
    0
 62
    7
  6
CONTINUOUS
370
    0
390
F
  0
LAYER
  5
4F
330
2
100
AcDbSymbolTableRecord
100
AcDbLayerTableRecord
  2
gear_M1.0000_shapes
 70
    0
 62
    7
  6
CONTINUOUS
370
    0
390
F
  0
ENDTAB
  0
TABLE
  2
STYLE
  5
3
330
0
100
AcDbSymbolTable
 70
    3
  0
STYLE
  5
50
330
2
100
AcDbSymbolTableRecord
100
AcDbTextStyleTableRecord
  2
Standard
 70
    0
 40
0
 41
1
 50
0
 71
    0
 42
1
  3
txt
  4

  0
ENDTAB
  0
TABLE
  2
VIEW
  5
6
330
0
100
AcDbSymbolTable
 70
    0
  0
ENDTAB
  0
TABLE
  2
UCS
  5
7
330
0
100
AcDbSymbolTable
 70
    0
  0
ENDTAB
  0
TABLE
  2
APPID
  5
9
330
0
100
AcDbSymbolTable
 70
    1
  0
APPID
  5
12
330
9
100
AcDbSymbolTableRecord
100
AcDbRegAppTableRecord
  2
ACAD
 70
    0
  0
APPID
  5
51
330
9
100
AcDbSymbolTableRecord
100
AcDbRegAppTableRecord
  2
LibreCad
 70
    0
  0
ENDTAB
  0
TABLE
  2
DIMSTYLE
  5
A
330
0
100
AcDbSymbolTable
 70
    1
100
AcDbDimStyleTable
 71
    1
  0
DIMSTYLE
105
52
330
A
100
AcDbSymbolTableRecord
100
AcDbDimStyleTableRecord
  2
Standard
 70
    0
 40
1
 41
2.5
 42
0.625
 43
0.38
 44
1.25
 45
0
 46
0
 47
0
 48
0
 49
1
140
2.5
141
0.09
142
2.5
143
25.4
144
1
145
0
146
1
147
0.625
148
0
 71
    0
 72
    0
 73
    0
 74
    1
 75
    0
 76
    0
 77
    0
 78
    1
 79
    0
170
    0
171
    2
172
    0
173
    0
174
    0
175
    0
176
    0
177
    0
178
    0
179
    0
271
    2
272
    4
273
    2
274
    2
275
    0
276
    0
277
    2
278
    0
279
    0
280
    0
281
    0
282
    0
283
    1
284
    0
285
    0
286
    0
288
    0
289
    3
340
standard
341

371
   -2
372
   -2
  0
ENDTAB
  0
TABLE
  2
BLOCK_RECORD
  5
1
330
0
100
AcDbSymbolTable
 70
    2
  0
BLOCK_RECORD
  5
1F
330
1
100
AcDbSymbolTableRecord
100
AcDbBlockTableRecord
  2
*Model_Space
 70
    0
280
    1
281
    0
  0
BLOCK_RECORD
  5
1E
330
1
100
AcDbSymbolTableRecord
100
AcDbBlockTableRecord
  2
*Paper_Space
 70
    0
280
    1
281
    0
  0
ENDTAB
  0
ENDSEC
  0
SECTION
  2
BLOCKS
  0
BLOCK
  5
20
330
1F
100
AcDbEntity
  8
0
100
AcDbBlockBegin
  2
*Model_Space
 70
    0
 10
0
 20
0
 30
0
  3
*Model_Space
  1

  0
ENDBLK
  5
21
330
1F
100
AcDbEntity
  8
0
100
AcDbBlockEnd
  0
BLOCK
  5
1C
330
1B
100
AcDbEntity
  8
0
100
AcDbBlockBegin
  2
*Paper_Space
 70
    0
 10
0
 20
0
 30
0
  3
*Paper_Space
  1

  0
ENDBLK
  5
1D
330
1F
100
AcDbEntity
  8
0
100
AcDbBlockEnd
  0
ENDSEC
  0
SECTION
  2
ENTITIES
  0
LWPOLYLINE
  5
53
100
AcDbEntity
  8
gear_M1.0000_shapes
  6
ByLayer
 62
  256
370
   -1
100
AcDbPolyline
 90
 1600
 70
    1
 43
0
 10
6.739087393089038
 20
-0.3836679662265114
 10
6.744069558473802
 20
-0.351382348637342
 10
6.755296444630273
 20
-0.3197577255255272
 10
6.772733325170501
 20
-0.2890971918354651
 10
6.796333931022612
 20
-0.259702386399038
 10
6.826040505209273
 20
-0.2318730965747834
 10
6.861783870381664
 20
-0.2059068648173569
 10
6.903483509043867
 20
-0.1820985975732672
 10
6.951047656390631
 20
-0.1607401768967322
 10
7.00437340566961
 20
-0.142120075177035
 10
7.063346825967279
 20
-0.1265229733659227
 10
7.127843092306069
 20
-0.1142293830904131
 10
7.197726627928598
 20
-0.1055152730328449
 10
7.272851258633326
 20
-0.1006516999561379
 10
7.353060379014626
 20
-0.09990444474801019
 10
7.438187130448881
 20
-0.1035336538533584
 10
7.52805459065722
 20
-0.1117934864591173
 10
7.537423731047007
 20
-0.1113228570806065
 10
7.549579405210103
 20
-0.1104779898557945
 10
7.564509609691918
 20
-0.109151153344083
 10
7.58219922093195
 20
-0.1072349602786066
 10
7.602630004468629
 20
-0.1046224478605954
 10
7.62578062608097
 20
-0.1012071578190806
 10
7.651626664861238
 20
-0.09688321619110572
 10
7.680140628211858
 20
-0.09154541277773409
 10
7.711291968758769
 20
-0.08508928023131446
 10
7.745047103172441
 20
-0.07741117272963846
 10
7.781369432886739
 20
-0.06840834419283821
 10
7.820219366704892
 20
-0.05797902599909012
 10
7.861554345280759
 20
-0.0460225041554537
 10
7.90532886746265
 20
-0.03243919588041867
 10
7.951494518485972
 20
-0.0171307255550628
 10
7.999999999999999
 20
-2.359223927328458e-16
 10
8.048317645670757
 20
0.01809524857322414
 10
8.098659021518081
 20
0.03801138388303012
 10
8.15097269522547
 20
0.05982864817937245
 10
8.205204973484721
 20
0.08362599319265339
 10
8.261299932335161
 20
0.109481024224133
 10
8.319199448792434
 20
0.1374699449206778
 10
8.378843233751871
 20
0.1676675027623156
 10
8.440168866150815
 20
0.2001469352907725
 10
8.50311182837369
 20
0.2349799171067986
 10
8.567605542883021
 20
0.2722365076637855
 10
8.63358141005898
 20
0.3119850998847586
 10
8.700968847229495
 20
0.3542923696295278
 10
8.769695328872363
 20
0.3992232260383317
 10
8.839686427970223
 20
0.4468407627779479
 10
8.91086585849877
 20
0.4972062102158277
 10
8.983155519027896
 20
0.5503788885473885
 10
8.956662540049772
 20
0.8821542629660455
 10
8.91792029923319
 20
1.212723190396143
 10
8.836646189322714
 20
1.25077115747229
 10
8.757008640233687
 20
1.286282428937546
 10
8.679072679903115
 20
1.319330421999558
 10
8.602901183088635
 20
1.349990073166481
 10
8.528554837749565
 20
1.378337783768762
 10
8.456092112705468
 20
1.404451364763192
 10
8.385569226587203
 20
1.428409980847853
 10
8.317040118094761
 20
1.450294093916855
 10
8.250556417575579
 20
1.470185405884063
 10
8.186167419936401
 20
1.488166800905269
 10
8.123920058901072
 20
1.504322287028586
 10
8.063858882626066
 20
1.518736937303016
 10
8.00602603068489
 20
1.531496830375453
 10
7.950461212431781
 20
1.542688990606552
 10
7.897201686754572
 20
1.552401327736139
 10
7.846282243225843
 20
1.560722576129026
 10
7.795366742173107
 20
1.56806118958794
 10
7.747101616783852
 20
1.574069040224315
 10
7.701518237785749
 20
1.578851363411081
 10
7.658644897536087
 20
1.582514089759244
 10
7.618506795257775
 20
1.585163765429425
 10
7.581126024205738
 20
1.586907472139974
 10
7.546521560769801
 20
1.587852746916511
 10
7.514709255519103
 20
1.58810750162784
 10
7.485701826192083
 20
1.587779942353333
 10
7.459508852635085
 20
1.586978488626889
 10
7.436136773691539
 20
1.58581169260269
 10
7.415588886042758
 20
1.584388158187933
 10
7.39786534500029
 20
1.582816460187805
 10
7.382963167248783
 20
1.58120506350787
 10
7.370876235537292
 20
1.579662242459059
 10
7.361595305315952
 20
1.57829600021037
 10
7.275066036559248
 20
1.55266260622123
 10
7.192282995357012
 20
1.532495726001704
 10
7.113469288473761
 20
1.517580599786722
 10
7.038839320445151
 20
1.507694632274994
 10
6.968598538826825
 20
1.502607701683045
 10
6.902943189675189
 20
1.502082476699701
 10
6.842060083497355
 20
1.505874741016726
 10
6.786126371897589
 20
1.513733725104428
 10
6.735309335137412
 20
1.525402444894331
 10
6.689766180816095
 20
1.540618047024675
 10
6.649643853867834
 20
1.559112160298476
 10
6.615078858061056
 20
1.580611252998109
 10
6.586197089174513
 20
1.604836995695009
 10
6.563113680013728
 20
1.631506629187979
 10
6.545932857420175
 20
1.660333337198843
 10
6.534747811414305
 20
1.691026623449777
 10
6.45934726619241
 20
1.959421571467621
 10
6.372928284483901
 20
2.224474113318713
 10
6.365176034155421
 20
2.256208726753884
 10
6.363446105169537
 20
2.289722412099404
 10
6.367822403940839
 20
2.324721856926399
 10
6.378377615604355
 20
2.360910676884648
 10
6.39517310332621
 20
2.397989801931161
 10
6.418258820137541
 20
2.435657865656741
 10
6.447673233383033
 20
2.473611597319751
 10
6.483443261863664
 20
2.511546216193745
 10
6.525584225741262
 20
2.549155827833372
 10
6.574099809260439
 20
2.586133821860974
 10
6.628982036331521
 20
2.622173270874859
 10
6.690211259005863
 20
2.656967330078934
 10
6.757756158862876
 20
2.690209637232622
 10
6.831573761315994
 20
2.721594712519474
 10
6.911609462832484
 20
2.750818357932789
 10
6.997797071050074
 20
2.77757805577682
 10
7.006272926027482
 20
2.781598275429699
 10
7.01717998790116
 20
2.787030606077837
 10
7.030465939887628
 20
2.79396998507101
 10
7.046075714311004
 20
2.802509837771083
 10
7.06395153183449
 20
2.81274200689224
 10
7.084032942391436
 20
2.824756682799181
 10
7.106256867793478
 20
2.838642334802515
 10
7.130557645992374
 20
2.854485643490045
 10
7.156867076971286
 20
2.872371434132128
 10
7.185114470240435
 20
2.892382611198717
 10
7.215226693911144
 20
2.914600094025139
 10
7.247128225321543
 20
2.939102753663078
 10
7.280741203186309
 20
2.965967350952588
 10
7.315985481242055
 20
2.995268475850392
 10
7.352778683359194
 20
3.027078488049018
 10
7.391036260090293
 20
3.061467458920718
 10
7.428751192151138
 20
3.096675651202309
 10
7.467638983915135
 20
3.134340571481
 10
7.507621410738124
 20
3.17451667163375
 10
7.548618652952443
 20
3.217256346008859
 10
7.590549345292397
 20
3.262609891382552
 10
7.633330627249223
 20
3.310625468041319
 10
7.676878194330871
 20
3.361349062010557
 10
7.721106350201305
 20
3.414824448449568
 10
7.765928059673784
 20
3.471093156232408
 10
7.811255002532011
 20
3.530194433733566
 10
7.856997628152762
 20
3.59216521583682
 10
7.903065210903066
 20
3.657040092185146
 10
7.9493659062848
 20
3.724851276688912
 10
7.995806807798996
 20
3.795628578309022
 10
8.042294004501999
 20
3.869399373131109
 10
8.08873263922508
 20
3.946188577746238
 10
7.937291379135195
 20
4.242570631433979
 10
7.774994964018936
 20
4.533150483877651
 10
7.68534715071436
 20
4.537199966570007
 10
7.598182073839673
 20
4.539532132819678
 10
7.513531715825897
 20
4.540239696396272
 10
7.431425488414576
 20
4.539415950733977
 10
7.351890222445821
 20
4.537154705734823
 10
7.274950159101294
 20
4.533550224397748
 10
7.200626942605008
 20
4.528697159305632
 10
7.128939614384085
 20
4.522690489002439
 10
7.059904608690947
 20
4.515625454292726
 10
6.993535749687766
 20
4.507597494495711
 10
6.929844249993187
 20
4.498702183686144
 10
6.868838710690795
 20
4.489035166954194
 10
6.810525122798015
 20
4.47869209671654
 10
6.754906870193441
 20
4.467768569110797
 10
6.701984733999971
 20
4.456360060505382
 10
6.651756898420361
 20
4.444561864156817
 10
6.601908743322923
 20
4.43185734022507
 10
6.555018476939035
 20
4.418937606614911
 10
6.511074810208192
 20
4.405911893191226
 10
6.470063343970408
 20
4.392888894093786
 10
6.431966585821512
 20
4.379976688464773
 10
6.396763968868013
 20
4.367282661634706
 10
6.364431872370003
 20
4.35491342681053
 10
6.334943644259539
 20
4.342974747309356
 10
6.308269625521009
 20
4.331571459381002
 10
6.284377176419007
 20
4.320807395662246
 10
6.263230704558237
 20
4.310785309305249
 10
6.244791694759115
 20
4.301606798822341
 10
6.229018740731686
 20
4.29337223368894
 10
6.215867578529603
 20
4.286180680745929
 10
6.205291121764979
 20
4.280129831442489
 10
6.197239498563989
 20
4.275315929959829
 10
6.127106353391431
 20
4.218520444336609
 10
6.058342326928151
 20
4.168208978118289
 10
5.991235727951479
 20
4.124268498415947
 10
5.926069823957512
 20
4.086575403050304
 10
5.863122487531877
 20
4.05499570859139
 10
5.802665849150188
 20
4.029385249612838
 10
5.7449659567515
 20
4.009589888952028
 10
5.690282442421504
 20
3.995445738757071
 10
5.638868196515396
 20
3.986779392091564
 10
5.590969049543187
 20
3.98340816485821
 10
5.546823462132794
 20
3.985140347792784
 10
5.506662223378544
 20
3.991775468270515
 10
5.470708157874702
 20
4.003104561657789
 10
5.43917584172546
 20
4.018910451933184
 10
5.412271327814186
 20
4.038968041293144
 10
5.390191880606094
 20
4.063044608449204
 10
5.217820560198474
 20
4.282154668104607
 10
5.036548615304849
 20
4.493960174019213
 10
5.017242159101311
 20
4.52031247607987
 10
5.002818780979328
 20
4.550613068867554
 10
4.993468246165022
 20
4.584623076627329
 10
4.989371128347403
 20
4.622096491321225
 10
4.990698568850276
 20
4.662780490924771
 10
4.997612046188564
 20
4.706415765378133
 10
5.010263156243039
 20
4.752736849865803
 10
5.028793403277479
 20
4.801472465091869
 10
5.053334002012117
 20
4.852345864211269
 10
5.084005690956868
 20
4.90507518607101
 10
5.120918557197299
 20
4.959373814409324
 10
5.164171872815569
 20
5.014950742655019
 10
5.213853943117681
 20
5.071510943963803
 10
5.270041966827362
 20
5.128755746123372
 10
5.332801908395642
 20
5.18638321095418
 10
5.402188382563968
 20
5.24408851782851
 10
5.408480580042505
 20
5.251046285756988
 10
5.416478528329257
 20
5.260239056731474
 10
5.426097562067893
 20
5.271734520660025
 10
5.437251053021613
 20
5.285597917835066
 10
5.449850473358643
 20
5.301891988665517
 10
5.463805460141339
 20
5.320676924944361
 10
5.479023880983082
 20
5.342010322679294
 10
5.495411900836574
 20
5.365947136513259
 10
5.512874049876533
 20
5.392539635760843
 10
5.53131329243919
 20
5.421837362085728
 10
5.550631096980432
 20
5.453887088843433
 10
5.570727507013945
 20
5.488732782112849
 10
5.591501212990102
 20
5.526415563439086
 10
5.612849625075892
 20
5.566973674309327
 10
5.634668946795723
 20
5.61044244238246
 10
5.65685424949238
 20
5.656854249492379
 10
5.678224711423758
 20
5.703815257370524
 10
5.699738605327069
 20
5.75349481993902
 10
5.721302823223462
 20
5.805913308897178
 10
5.742823570906647
 20
5.861088584646616
 10
5.764206428930025
 20
5.919035978210291
 10
5.785356414021765
 20
5.97976827454727
 10
5.806178040897121
 20
6.043295697272815
 10
5.826575384437006
 20
6.109625894792625
 10
5.846452142201709
 20
6.178763927859449
 10
5.86571169724843
 20
6.250712258559641
 10
5.884257181221145
 20
6.325470740736495
 10
5.901991537681184
 20
6.403036611856563
 10
5.918817585646765
 20
6.483404486324511
 10
5.934638083309578
 20
6.566566350251291
 10
5.949355791896491
 20
6.652511557679842
 10
5.962873539644212
 20
6.741226828271759
 10
5.70953955747281
 20
6.957094080264632
 10
5.448397126037657
 20
7.163446709300251
 10
5.364023676255152
 20
7.132881210577558
 10
5.282601164395586
 20
7.10167922044127
 10
5.204123658348799
 20
7.06993863439199
 10
5.128582629169204
 20
7.037756899710288
 10
5.055966965825524
 20
7.005230953162582
 10
4.986262991361362
 20
6.97245715910287
 10
4.919454480456981
 20
6.939531248001106
 10
4.855522678381963
 20
6.906548255428778
 10
4.794446321327763
 20
6.873602461531997
 10
4.736201658108607
 20
6.840787331022219
 10
4.680762473218397
 20
6.808195453714333
 10
4.628100111230817
 20
6.775918485641718
 10
4.578183502529118
 20
6.744047090777491
 10
4.530979190351411
 20
6.712670883390855
 10
4.486451359136775
 20
6.681878371067223
 10
4.444561864156817
 20
6.65175689842036
 10
4.403369984753612
 20
6.620943385699765
 10
4.364993195370715
 20
6.591062980167541
 10
4.329379265816572
 20
6.562212276923773
 10
4.296473297555501
 20
6.534486185939536
 10
4.266217769616217
 20
6.507977865268913
 10
4.238552586079911
 20
6.482778655411465
 10
4.213415125120463
 20
6.458978014861166
 10
4.190740289568598
 20
6.436663456877142
 10
4.170460558970918
 20
6.415920487510971
 10
4.1525060431141
 20
6.396832544924602
 10
4.136804536983664
 20
6.379480940032221
 10
4.123281577126079
 20
6.363944798498782
 10
4.111860499382179
 20
6.350301004127147
 10
4.102462497959205
 20
6.338624143665045
 10
4.095006685808043
 20
6.328986453062339
 10
4.089410156271606
 20
6.321457765208319
 10
4.046350270277174
 20
6.242146785784794
 10
4.002073958234432
 20
6.169350198224842
 10
3.956890838535703
 20
6.10307390474838
 10
3.91110991672907
 20
6.043312113609481
 10
3.865039186847901
 20
5.990047377494328
 10
3.818985234388981
 20
5.943250644740665
 10
3.773252841336313
 20
5.902881323317237
 10
3.728144593625535
 20
5.868887357489762
 10
3.683960491441401
 20
5.841205317088041
 10
3.64099756273797
 20
5.819760499277015
 10
3.599549480367933
 20
5.804467042722853
 10
3.559906183204008
 20
5.795228054033464
 10
3.522353501631412
 20
5.791935746341386
 10
3.487172787786278
 20
5.794471589885529
 10
3.454640550910248
 20
5.802706474437032
 10
3.425028098186679
 20
5.816500883403332
 10
3.181927973575484
 20
5.952968534351395
 10
2.933400075872524
 20
6.079281536075712
 10
2.905478646737456
 20
6.096239627657332
 10
2.880557648050197
 20
6.11871413731081
 10
2.858903813812951
 20
6.14655699262343
 10
2.840778115561466
 20
6.179610014363178
 10
2.826435418062072
 20
6.21770511838549
 10
2.816124141673391
 20
6.260664528585859
 10
2.810085931713653
 20
6.308301000686618
 10
2.808555335168014
 20
6.360418056636037
 10
2.811759485063428
 20
6.416810229387797
 10
2.819917792831468
 20
6.477263317819022
 10
2.833241648972106
 20
6.541554651535549
 10
2.851934132323705
 20
6.609453365303565
 10
2.876189728236508
 20
6.680720682837685
 10
2.906194055938657
 20
6.755110209666601
 10
2.942123605375242
 20
6.83236823478868
 10
2.984145483792133
 20
6.912234040821603
 10
2.987296093744602
 20
6.921070099930893
 10
2.991167313319354
 20
6.932623795183537
 10
2.995655018120209
 20
6.946925263870983
 10
3.000654207713215
 20
6.964001628973102
 10
3.006059083331507
 20
6.983876976935028
 10
3.011763126104558
 20
7.006572337323193
 10
3.017659175768172
 20
7.032105664372315
 10
3.023639509811337
 20
7.060491820434249
 10
3.029595923015786
 20
7.091742561338497
 10
3.035419807343935
 20
7.125866523673265
 10
3.04100223213064
 20
7.162869213994889
 10
3.046234024534076
 20
7.20275299997251
 10
3.051005850200867
 20
7.245517103473817
 10
3.055208294100479
 20
7.291157595596691
 10
3.058731941483799
 20
7.339667393650563
 10
3.061467458920718
 20
7.391036260090293
 10
3.063239991617298
 20
7.44260069581814
 10
3.064104692337079
 20
7.496731637621744
 10
3.063967744612269
 20
7.553412275616215
 10
3.062735659015618
 20
7.612623217172253
 10
3.060315336424455
 20
7.67434249355027
 10
3.056614131145984
 20
7.738545567987793
 10
3.051539913871792
 20
7.805205345237202
 10
3.045001134429557
 20
7.874292182550159
 10
3.036906884300068
 20
7.945773902104372
 10
3.02716695886772
 20
8.019615804867737
 10
3.015691919372785
 20
8.095780685894091
 10
3.002393154533858
 20
8.174228851044244
 10
2.98718294180903
 20
8.254918135125227
 10
2.969974508264468
 20
8.337803921439995
 10
2.950682091019295
 20
8.42283916273926
 10
2.929220997235753
 20
8.509974403566277
 10
2.612562095290162
 20
8.61246302158988
 10
2.292330215460081
 20
8.703173110038014
 10
2.226076222081807
 20
8.642645950003864
 10
2.162792114571073
 20
8.582660023633123
 10
2.102434949386533
 20
8.523303504454843
 10
2.044959555350125
 20
8.464663158130872
 10
1.990318571112969
 20
8.406824290548062
 10
1.938462483773236
 20
8.349870696816119
 10
1.889339668625292
 20
8.293884611195825
 10
1.842896430018871
 20
8.238946657981925
 10
1.799077043306558
 20
8.185135803364499
 10
1.757823797857357
 20
8.132529308292172
 10
1.719077041113585
 20
8.08120268235999
 10
1.682775223667927
 20
8.031229638744319
 10
1.648854945336958
 20
7.982682050206683
 10
1.617251002207018
 20
7.935629906187744
 10
1.587896434627852
 20
7.890141271012348
 10
1.560722576129026
 20
7.846282243225843
 10
1.534458062653874
 20
7.80205081970292
 10
1.510437268569052
 20
7.759758763124363
 10
1.488574974125151
 20
7.7194753280971
 10
1.468784139215197
 20
7.681267191240775
 10
1.450975971347238
 20
7.645198407052116
 10
1.435059994636012
 20
7.611330365436681
 10
1.420944119774554
 20
7.579721750930696
 10
1.408534714946162
 20
7.550428503634917
 10
1.397736677636613
 20
7.523503781881446
 10
1.388453507306088
 20
7.498997926653608
 10
1.380587378879838
 20
7.476958427778016
 10
1.374039217016169
 20
7.457429891907038
 10
1.368708771109981
 20
7.440454012308948
 10
1.364494690989669
 20
7.426069540482106
 10
1.361294603264877
 20
7.414312259608513
 10
1.35900518828225
 20
7.405214959861182
 10
1.349574038769757
 20
7.315462864298764
 10
1.336526108290292
 20
7.231263775950475
 10
1.320145188257638
 20
7.152741633585587
 10
1.30071897897831
 20
7.080009337632346
 10
1.278538706633809
 20
7.01316863308845
 10
1.253898736879407
 20
6.95231000490798
 10
1.227096185449853
 20
6.897512585959843
 10
1.198430526164976
 20
6.848844077641015
 10
1.168203196730468
 20
6.80636068321592
 10
1.136717202730993
 20
6.770107053941194
 10
1.104276720214348
 20
6.740116248023137
 10
1.071186697266572
 20
6.716409702442946
 10
1.037752454978743
 20
6.698997217672792
 10
1.004279288206674
 20
6.687876955293567
 10
0.9710720665248012
 20
6.683035448513061
 10
0.9384348357753654
 20
6.684447625571111
 10
0.6616156972245348
 20
6.717496905037329
 10
0.3836679662265118
 20
6.739087393089038
 10
0.3513823486373424
 20
6.744069558473802
 10
0.3197577255255276
 20
6.755296444630273
 10
0.2890971918354655
 20
6.772733325170501
 10
0.2597023863990384
 20
6.796333931022612
 10
0.2318730965747838
 20
6.826040505209273
 10
0.2059068648173573
 20
6.861783870381664
 10
0.1820985975732677
 20
6.903483509043867
 10
0.1607401768967326
 20
6.951047656390631
 10
0.1421200751770354
 20
7.00437340566961
 10
0.1265229733659232
 20
7.063346825967279
 10
0.1142293830904135
 20
7.127843092306069
 10
0.1055152730328454
 20
7.197726627928598
 10
0.1006516999561384
 20
7.272851258633326
 10
0.09990444474801063
 20
7.353060379014626
 10
0.1035336538533589
 20
7.438187130448881
 10
0.1117934864591178
 20
7.52805459065722
 10
0.1113228570806069
 20
7.537423731047007
 10
0.1104779898557949
 20
7.549579405210103
 10
0.1091511533440835
 20
7.564509609691918
 10
0.107234960278607
 20
7.58219922093195
 10
0.1046224478605959
 20
7.602630004468629
 10
0.1012071578190811
 20
7.62578062608097
 10
0.09688321619110619
 20
7.651626664861238
 10
0.09154541277773456
 20
7.680140628211858
 10
0.08508928023131493
 20
7.711291968758769
 10
0.07741117272963893
 20
7.745047103172441
 10
0.06840834419283869
 20
7.781369432886739
 10
0.0579790259990906
 20
7.820219366704892
 10
0.04602250415545418
 20
7.861554345280759
 10
0.03243919588041916
 20
7.90532886746265
 10
0.01713072555506329
 20
7.951494518485972
 10
7.257811123917869e-16
 20
7.999999999999999
 10
-0.01809524857322365
 20
8.048317645670757
 10
-0.03801138388302962
 20
8.098659021518081
 10
-0.05982864817937195
 20
8.15097269522547
 10
-0.08362599319265289
 20
8.205204973484721
 10
-0.1094810242241325
 20
8.261299932335161
 10
-0.1374699449206773
 20
8.319199448792434
 10
-0.1676675027623151
 20
8.378843233751871
 10
-0.200146935290772
 20
8.440168866150815
 10
-0.2349799171067981
 20
8.50311182837369
 10
-0.272236507663785
 20
8.567605542883021
 10
-0.3119850998847581
 20
8.63358141005898
 10
-0.3542923696295272
 20
8.700968847229495
 10
-0.3992232260383312
 20
8.769695328872363
 10
-0.4468407627779474
 20
8.839686427970223
 10
-0.4972062102158271
 20
8.91086585849877
 10
-0.5503788885473879
 20
8.983155519027896
 10
-0.8821542629660449
 20
8.956662540049772
 10
-1.212723190396143
 20
8.91792029923319
 10
-1.25077115747229
 20
8.836646189322714
 10
-1.286282428937546
 20
8.757008640233687
 10
-1.319330421999557
 20
8.679072679903115
 10
-1.349990073166481
 20
8.602901183088635
 10
-1.378337783768762
 20
8.528554837749565
 10
-1.404451364763191
 20
8.456092112705468
 10
-1.428409980847853
 20
8.385569226587203
 10
-1.450294093916855
 20
8.317040118094761
 10
-1.470185405884062
 20
8.250556417575579
 10
-1.488166800905268
 20
8.186167419936401
 10
-1.504322287028586
 20
8.123920058901072
 10
-1.518736937303016
 20
8.063858882626066
 10
-1.531496830375453
 20
8.00602603068489
 10
-1.542688990606552
 20
7.950461212431781
 10
-1.552401327736139
 20
7.897201686754572
 10
-1.560722576129026
 20
7.846282243225843
 10
-1.568061189587939
 20
7.795366742173107
 10
-1.574069040224314
 20
7.747101616783852
 10
-1.578851363411081
 20
7.701518237785749
 10
-1.582514089759243
 20
7.658644897536087
 10
-1.585163765429424
 20
7.618506795257775
 10
-1.586907472139974
 20
7.581126024205738
 10
-1.58785274691651
 20
7.546521560769801
 10
-1.58810750162784
 20
7.514709255519103
 10
-1.587779942353332
 20
7.485701826192083
 10
-1.586978488626889
 20
7.459508852635085
 10
-1.58581169260269
 20
7.436136773691539
 10
-1.584388158187933
 20
7.415588886042758
 10
-1.582816460187805
 20
7.39786534500029
 10
-1.581205063507869
 20
7.382963167248783
 10
-1.579662242459058
 20
7.370876235537292
 10
-1.578296000210369
 20
7.361595305315952
 10
-1.55266260622123
 20
7.275066036559248
 10
-1.532495726001703
 20
7.192282995357012
 10
-1.517580599786721
 20
7.113469288473761
 10
-1.507694632274993
 20
7.038839320445151
 10
-1.502607701683045
 20
6.968598538826825
 10
-1.5020824766997
 20
6.902943189675189
 10
-1.505874741016725
 20
6.842060083497355
 10
-1.513733725104428
 20
6.786126371897589
 10
-1.52540244489433
 20
6.735309335137412
 10
-1.540618047024675
 20
6.689766180816095
 10
-1.559112160298475
 20
6.649643853867834
 10
-1.580611252998108
 20
6.615078858061056
 10
-1.604836995695009
 20
6.586197089174513
 10
-1.631506629187979
 20
6.563113680013728
 10
-1.660333337198843
 20
6.545932857420175
 10
-1.691026623449776
 20
6.534747811414305
 10
-1.95942157146762
 20
6.45934726619241
 10
-2.224474113318712
 20
6.372928284483901
 10
-2.256208726753884
 20
6.365176034155421
 10
-2.289722412099404
 20
6.363446105169537
 10
-2.324721856926399
 20
6.367822403940839
 10
-2.360910676884647
 20
6.378377615604355
 10
-2.39798980193116
 20
6.39517310332621
 10
-2.435657865656741
 20
6.418258820137541
 10
-2.47361159731975
 20
6.447673233383033
 10
-2.511546216193745
 20
6.483443261863664
 10
-2.549155827833371
 20
6.525584225741262
 10
-2.586133821860974
 20
6.574099809260439
 10
-2.622173270874858
 20
6.628982036331521
 10
-2.656967330078933
 20
6.690211259005863
 10
-2.690209637232621
 20
6.757756158862876
 10
-2.721594712519473
 20
6.831573761315994
 10
-2.750818357932789
 20
6.911609462832484
 10
-2.777578055776819
 20
6.997797071050074
 10
-2.781598275429698
 20
7.006272926027482
 10
-2.787030606077837
 20
7.01717998790116
 10
-2.793969985071009
 20
7.030465939887628
 10
-2.802509837771082
 20
7.046075714311004
 10
-2.812742006892239
 20
7.06395153183449
 10
-2.82475668279918
 20
7.084032942391436
 10
-2.838642334802514
 20
7.106256867793478
 10
-2.854485643490045
 20
7.130557645992374
 10
-2.872371434132127
 20
7.156867076971286
 10
-2.892382611198716
 20
7.185114470240435
 10
-2.914600094025138
 20
7.215226693911144
 10
-2.939102753663077
 20
7.247128225321543
 10
-2.965967350952587
 20
7.280741203186309
 10
-2.995268475850391
 20
7.315985481242055
 10
-3.027078488049018
 20
7.352778683359194
 10
-3.061467458920717
 20
7.391036260090293
 10
-3.096675651202309
 20
7.428751192151138
 10
-3.134340571480999
 20
7.467638983915135
 10
-3.17451667163375
 20
7.507621410738124
 10
-3.217256346008859
 20
7.548618652952443
 10
-3.262609891382552
 20
7.590549345292397
 10
-3.310625468041319
 20
7.633330627249223
 10
-3.361349062010557
 20
7.676878194330871
 10
-3.414824448449567
 20
7.721106350201305
 10
-3.471093156232408
 20
7.765928059673784
 10
-3.530194433733565
 20
7.811255002532011
 10
-3.59216521583682
 20
7.856997628152762
 10
-3.657040092185145
 20
7.903065210903066
 10
-3.724851276688911
 20
7.9493659062848
 10
-3.795628578309022
 20
7.995806807798996
 10
-3.869399373131109
 20
8.042294004501999
 10
-3.946188577746237
 20
8.08873263922508
 10
-4.242570631433979
 20
7.937291379135195
 10
-4.53315048387765
 20
7.774994964018936
 10
-4.537199966570007
 20
7.68534715071436
 10
-4.539532132819677
 20
7.598182073839673
 10
-4.540239696396272
 20
7.513531715825897
 10
-4.539415950733977
 20
7.431425488414576
 10
-4.537154705734822
 20
7.351890222445821
 10
-4.533550224397748
 20
7.274950159101294
 10
-4.528697159305632
 20
7.200626942605009
 10
-4.522690489002438
 20
7.128939614384085
 10
-4.515625454292725
 20
7.059904608690947
 10
-4.50759749449571
 20
6.993535749687766
 10
-4.498702183686143
 20
6.929844249993187
 10
-4.489035166954194
 20
6.868838710690795
 10
-4.47869209671654
 20
6.810525122798015
 10
-4.467768569110797
 20
6.754906870193442
 10
-4.456360060505381
 20
6.701984733999971
 10
-4.444561864156817
 20
6.651756898420361
 10
-4.43185734022507
 20
6.601908743322923
 10
-4.41893760661491
 20
6.555018476939035
 10
-4.405911893191225
 20
6.511074810208192
 10
-4.392888894093785
 20
6.470063343970409
 10
-4.379976688464772
 20
6.431966585821512
 10
-4.367282661634706
 20
6.396763968868013
 10
-4.35491342681053
 20
6.364431872370003
 10
-4.342974747309356
 20
6.334943644259539
 10
-4.331571459381002
 20
6.30826962552101
 10
-4.320807395662245
 20
6.284377176419007
 10
-4.310785309305248
 20
6.263230704558237
 10
-4.301606798822341
 20
6.244791694759115
 10
-4.293372233688939
 20
6.229018740731686
 10
-4.286180680745929
 20
6.215867578529603
 10
-4.280129831442489
 20
6.205291121764979
 10
-4.275315929959829
 20
6.197239498563989
 10
-4.218520444336609
 20
6.127106353391431
 10
-4.168208978118288
 20
6.058342326928151
 10
-4.124268498415946
 20
5.991235727951479
 10
-4.086575403050303
 20
5.926069823957512
 10
-4.054995708591389
 20
5.863122487531877
 10
-4.029385249612837
 20
5.802665849150188
 10
-4.009589888952028
 20
5.7449659567515
 10
-3.99544573875707
 20
5.690282442421504
 10
-3.986779392091564
 20
5.638868196515396
 10
-3.98340816485821
 20
5.590969049543187
 10
-3.985140347792784
 20
5.546823462132795
 10
-3.991775468270515
 20
5.506662223378544
 10
-4.003104561657789
 20
5.470708157874702
 10
-4.018910451933184
 20
5.43917584172546
 10
-4.038968041293144
 20
5.412271327814186
 10
-4.063044608449204
 20
5.390191880606094
 10
-4.282154668104607
 20
5.217820560198475
 10
-4.493960174019213
 20
5.036548615304849
 10
-4.52031247607987
 20
5.017242159101311
 10
-4.550613068867554
 20
5.002818780979328
 10
-4.584623076627329
 20
4.993468246165022
 10
-4.622096491321225
 20
4.989371128347403
 10
-4.662780490924771
 20
4.990698568850276
 10
-4.706415765378133
 20
4.997612046188564
 10
-4.752736849865803
 20
5.010263156243039
 10
-4.801472465091869
 20
5.028793403277479
 10
-4.852345864211269
 20
5.053334002012117
 10
-4.90507518607101
 20
5.084005690956868
 10
-4.959373814409324
 20
5.120918557197299
 10
-5.014950742655019
 20
5.164171872815569
 10
-5.071510943963803
 20
5.213853943117681
 10
-5.128755746123372
 20
5.270041966827362
 10
-5.18638321095418
 20
5.332801908395642
 10
-5.24408851782851
 20
5.402188382563968
 10
-5.251046285756988
 20
5.408480580042505
 10
-5.260239056731474
 20
5.416478528329257
 10
-5.271734520660025
 20
5.426097562067893
 10
-5.285597917835066
 20
5.437251053021613
 10
-5.301891988665517
 20
5.449850473358643
 10
-5.320676924944361
 20
5.463805460141339
 10
-5.342010322679294
 20
5.479023880983082
 10
-5.365947136513259
 20
5.495411900836574
 10
-5.392539635760843
 20
5.512874049876533
 10
-5.421837362085728
 20
5.53131329243919
 10
-5.453887088843433
 20
5.550631096980432
 10
-5.488732782112849
 20
5.570727507013945
 10
-5.526415563439086
 20
5.591501212990102
 10
-5.566973674309327
 20
5.612849625075892
 10
-5.61044244238246
 20
5.634668946795723
 10
-5.656854249492379
 20
5.65685424949238
 10
-5.703815257370524
 20
5.678224711423758
 10
-5.75349481993902
 20
5.699738605327069
 10
-5.805913308897178
 20
5.721302823223462
 10
-5.861088584646616
 20
5.742823570906647
 10
-5.919035978210291
 20
5.764206428930025
 10
-5.97976827454727
 20
5.785356414021765
 10
-6.043295697272815
 20
5.806178040897121
 10
-6.109625894792625
 20
5.826575384437006
 10
-6.178763927859449
 20
5.846452142201709
 10
-6.250712258559641
 20
5.86571169724843
 10
-6.325470740736495
 20
5.884257181221145
 10
-6.403036611856563
 20
5.901991537681184
 10
-6.483404486324511
 20
5.918817585646765
 10
-6.566566350251291
 20
5.934638083309578
 10
-6.652511557679842
 20
5.949355791896491
 10
-6.741226828271759
 20
5.962873539644212
 10
-6.957094080264632
 20
5.70953955747281
 10
-7.163446709300251
 20
5.448397126037657
 10
-7.132881210577558
 20
5.364023676255152
 10
-7.10167922044127
 20
5.282601164395586
 10
-7.06993863439199
 20
5.204123658348799
 10
-7.037756899710288
 20
5.128582629169204
 10
-7.005230953162582
 20
5.055966965825524
 10
-6.97245715910287
 20
4.986262991361362
 10
-6.939531248001106
 20
4.919454480456981
 10
-6.906548255428778
 20
4.855522678381963
 10
-6.873602461531997
 20
4.794446321327763
 10
-6.840787331022219
 20
4.736201658108607
 10
-6.808195453714333
 20
4.680762473218397
 10
-6.775918485641718
 20
4.628100111230817
 10
-6.744047090777491
 20
4.578183502529118
 10
-6.712670883390855
 20
4.530979190351411
 10
-6.681878371067223
 20
4.486451359136775
 10
-6.65175689842036
 20
4.444561864156817
 10
-6.620943385699765
 20
4.403369984753612
 10
-6.591062980167541
 20
4.364993195370715
 10
-6.562212276923773
 20
4.329379265816572
 10
-6.534486185939536
 20
4.296473297555501
 10
-6.507977865268913
 20
4.266217769616217
 10
-6.482778655411465
 20
4.238552586079911
 10
-6.458978014861166
 20
4.213415125120463
 10
-6.436663456877142
 20
4.190740289568598
 10
-6.415920487510971
 20
4.170460558970918
 10
-6.396832544924602
 20
4.1525060431141
 10
-6.379480940032221
 20
4.136804536983664
 10
-6.363944798498782
 20
4.123281577126079
 10
-6.350301004127147
 20
4.111860499382179
 10
-6.338624143665045
 20
4.102462497959205
 10
-6.328986453062339
 20
4.095006685808043
 10
-6.321457765208319
 20
4.089410156271606
 10
-6.242146785784794
 20
4.046350270277174
 10
-6.169350198224842
 20
4.002073958234432
 10
-6.10307390474838
 20
3.956890838535703
 10
-6.043312113609481
 20
3.91110991672907
 10
-5.990047377494328
 20
3.865039186847901
 10
-5.943250644740665
 20
3.818985234388981
 10
-5.902881323317237
 20
3.773252841336313
 10
-5.868887357489762
 20
3.728144593625535
 10
-5.841205317088041
 20
3.683960491441401
 10
-5.819760499277015
 20
3.64099756273797
 10
-5.804467042722853
 20
3.599549480367933
 10
-5.795228054033464
 20
3.559906183204008
 10
-5.791935746341386
 20
3.522353501631412
 10
-5.794471589885529
 20
3.487172787786278
 10
-5.802706474437032
 20
3.454640550910248
 10
-5.816500883403332
 20
3.425028098186679
 10
-5.952968534351395
 20
3.181927973575484
 10
-6.079281536075712
 20
2.933400075872524
 10
-6.096239627657332
 20
2.905478646737456
 10
-6.11871413731081
 20
2.880557648050198
 10
-6.14655699262343
 20
2.858903813812951
 10
-6.179610014363178
 20
2.840778115561466
 10
-6.21770511838549
 20
2.826435418062072
 10
-6.260664528585859
 20
2.816124141673391
 10
-6.308301000686618
 20
2.810085931713653
 10
-6.360418056636037
 20
2.808555335168015
 10
-6.416810229387797
 20
2.811759485063428
 10
-6.477263317819022
 20
2.819917792831468
 10
-6.541554651535549
 20
2.833241648972106
 10
-6.609453365303565
 20
2.851934132323706
 10
-6.680720682837685
 20
2.876189728236509
 10
-6.755110209666601
 20
2.906194055938657
 10
-6.83236823478868
 20
2.942123605375242
 10
-6.912234040821603
 20
2.984145483792133
 10
-6.921070099930893
 20
2.987296093744602
 10
-6.932623795183537
 20
2.991167313319354
 10
-6.946925263870983
 20
2.995655018120209
 10
-6.964001628973102
 20
3.000654207713215
 10
-6.983876976935028
 20
3.006059083331507
 10
-7.006572337323193
 20
3.011763126104558
 10
-7.032105664372315
 20
3.017659175768173
 10
-7.060491820434249
 20
3.023639509811337
 10
-7.091742561338497
 20
3.029595923015786
 10
-7.125866523673265
 20
3.035419807343935
 10
-7.162869213994889
 20
3.041002232130641
 10
-7.20275299997251
 20
3.046234024534077
 10
-7.245517103473817
 20
3.051005850200867
 10
-7.291157595596691
 20
3.055208294100479
 10
-7.339667393650563
 20
3.0587319414838
 10
-7.391036260090293
 20
3.061467458920719
 10
-7.44260069581814
 20
3.063239991617299
 10
-7.496731637621744
 20
3.064104692337079
 10
-7.553412275616215
 20
3.06396774461227
 10
-7.612623217172253
 20
3.062735659015619
 10
-7.67434249355027
 20
3.060315336424456
 10
-7.738545567987793
 20
3.056614131145984
 10
-7.805205345237202
 20
3.051539913871792
 10
-7.874292182550159
 20
3.045001134429557
 10
-7.945773902104372
 20
3.036906884300069
 10
-8.019615804867737
 20
3.027166958867721
 10
-8.095780685894091
 20
3.015691919372785
 10
-8.174228851044244
 20
3.002393154533858
 10
-8.254918135125227
 20
2.98718294180903
 10
-8.337803921439995
 20
2.969974508264469
 10
-8.42283916273926
 20
2.950682091019295
 10
-8.509974403566277
 20
2.929220997235753
 10
-8.61246302158988
 20
2.612562095290162
 10
-8.703173110038014
 20
2.292330215460082
 10
-8.642645950003864
 20
2.226076222081808
 10
-8.582660023633123
 20
2.162792114571074
 10
-8.523303504454843
 20
2.102434949386534
 10
-8.464663158130872
 20
2.044959555350125
 10
-8.406824290548062
 20
1.990318571112969
 10
-8.349870696816119
 20
1.938462483773237
 10
-8.293884611195825
 20
1.889339668625292
 10
-8.238946657981925
 20
1.842896430018872
 10
-8.185135803364499
 20
1.799077043306558
 10
-8.132529308292172
 20
1.757823797857357
 10
-8.08120268235999
 20
1.719077041113586
 10
-8.031229638744319
 20
1.682775223667928
 10
-7.982682050206683
 20
1.648854945336959
 10
-7.935629906187744
 20
1.617251002207018
 10
-7.890141271012348
 20
1.587896434627852
 10
-7.846282243225843
 20
1.560722576129027
 10
-7.80205081970292
 20
1.534458062653875
 10
-7.759758763124363
 20
1.510437268569052
 10
-7.719475328097101
 20
1.488574974125151
 10
-7.681267191240775
 20
1.468784139215197
 10
-7.645198407052117
 20
1.450975971347239
 10
-7.611330365436681
 20
1.435059994636013
 10
-7.579721750930696
 20
1.420944119774554
 10
-7.550428503634918
 20
1.408534714946163
 10
-7.523503781881446
 20
1.397736677636613
 10
-7.498997926653608
 20
1.388453507306089
 10
-7.476958427778017
 20
1.380587378879838
 10
-7.457429891907038
 20
1.37403921701617
 10
-7.440454012308948
 20
1.368708771109981
 10
-7.426069540482106
 20
1.36449469098967
 10
-7.414312259608514
 20
1.361294603264878
 10
-7.405214959861182
 20
1.35900518828225
 10
-7.315462864298764
 20
1.349574038769757
 10
-7.231263775950475
 20
1.336526108290292
 10
-7.152741633585588
 20
1.320145188257638
 10
-7.080009337632346
 20
1.30071897897831
 10
-7.01316863308845
 20
1.278538706633809
 10
-6.95231000490798
 20
1.253898736879408
 10
-6.897512585959843
 20
1.227096185449854
 10
-6.848844077641015
 20
1.198430526164977
 10
-6.80636068321592
 20
1.168203196730468
 10
-6.770107053941195
 20
1.136717202730993
 10
-6.740116248023137
 20
1.104276720214348
 10
-6.716409702442947
 20
1.071186697266572
 10
-6.698997217672792
 20
1.037752454978744
 10
-6.687876955293567
 20
1.004279288206674
 10
-6.683035448513061
 20
0.9710720665248016
 10
-6.684447625571111
 20
0.9384348357753658
 10
-6.717496905037329
 20
0.6616156972245353
 10
-6.739087393089038
 20
0.3836679662265122
 10
-6.744069558473802
 20
0.3513823486373429
 10
-6.755296444630273
 20
0.319757725525528
 10
-6.772733325170501
 20
0.2890971918354659
 10
-6.796333931022612
 20
0.2597023863990389
 10
-6.826040505209273
 20
0.2318730965747842
 10
-6.861783870381664
 20
0.2059068648173578
 10
-6.903483509043867
 20
0.1820985975732681
 10
-6.951047656390631
 20
0.1607401768967331
 10
-7.00437340566961
 20
0.1421200751770358
 10
-7.063346825967279
 20
0.1265229733659236
 10
-7.127843092306069
 20
0.114229383090414
 10
-7.197726627928598
 20
0.1055152730328458
 10
-7.272851258633326
 20
0.1006516999561388
 10
-7.353060379014626
 20
0.09990444474801109
 10
-7.438187130448881
 20
0.1035336538533594
 10
-7.52805459065722
 20
0.1117934864591182
 10
-7.537423731047007
 20
0.1113228570806074
 10
-7.549579405210103
 20
0.1104779898557954
 10
-7.564509609691918
 20
0.1091511533440839
 10
-7.58219922093195
 20
0.1072349602786075
 10
-7.602630004468629
 20
0.1046224478605964
 10
-7.62578062608097
 20
0.1012071578190815
 10
-7.651626664861238
 20
0.09688321619110667
 10
-7.680140628211858
 20
0.09154541277773504
 10
-7.711291968758769
 20
0.0850892802313154
 10
-7.745047103172441
 20
0.0774111727296394
 10
-7.781369432886739
 20
0.06840834419283917
 10
-7.820219366704892
 20
0.05797902599909108
 10
-7.861554345280759
 20
0.04602250415545466
 10
-7.90532886746265
 20
0.03243919588041964
 10
-7.951494518485972
 20
0.01713072555506378
 10
-7.999999999999999
 20
1.215639832050728e-15
 10
-8.048317645670757
 20
-0.01809524857322316
 10
-8.098659021518081
 20
-0.03801138388302912
 10
-8.15097269522547
 20
-0.05982864817937145
 10
-8.205204973484721
 20
-0.08362599319265239
 10
-8.261299932335161
 20
-0.109481024224132
 10
-8.319199448792434
 20
-0.1374699449206768
 10
-8.378843233751871
 20
-0.1676675027623146
 10
-8.440168866150815
 20
-0.2001469352907715
 10
-8.50311182837369
 20
-0.2349799171067976
 10
-8.567605542883021
 20
-0.2722365076637845
 10
-8.63358141005898
 20
-0.3119850998847576
 10
-8.700968847229495
 20
-0.3542923696295267
 10
-8.769695328872363
 20
-0.3992232260383307
 10
-8.839686427970223
 20
-0.4468407627779468
 10
-8.91086585849877
 20
-0.4972062102158266
 10
-8.983155519027896
 20
-0.5503788885473874
 10
-8.956662540049772
 20
-0.8821542629660444
 10
-8.91792029923319
 20
-1.212723190396142
 10
-8.836646189322714
 20
-1.250771157472289
 10
-8.757008640233687
 20
-1.286282428937545
 10
-8.679072679903115
 20
-1.319330421999557
 10
-8.602901183088635
 20
-1.34999007316648
 10
-8.528554837749565
 20
-1.378337783768761
 10
-8.456092112705468
 20
-1.404451364763191
 10
-8.385569226587203
 20
-1.428409980847852
 10
-8.317040118094761
 20
-1.450294093916854
 10
-8.250556417575579
 20
-1.470185405884062
 10
-8.186167419936401
 20
-1.488166800905268
 10
-8.123920058901072
 20
-1.504322287028585
 10
-8.063858882626066
 20
-1.518736937303015
 10
-8.00602603068489
 20
-1.531496830375453
 10
-7.950461212431781
 20
-1.542688990606551
 10
-7.897201686754572
 20
-1.552401327736138
 10
-7.846282243225843
 20
-1.560722576129025
 10
-7.795366742173107
 20
-1.568061189587939
 10
-7.747101616783852
 20
-1.574069040224314
 10
-7.701518237785749
 20
-1.57885136341108
 10
-7.658644897536087
 20
-1.582514089759243
 10
-7.618506795257775
 20
-1.585163765429424
 10
-7.581126024205738
 20
-1.586907472139973
 10
-7.546521560769801
 20
-1.58785274691651
 10
-7.514709255519103
 20
-1.588107501627839
 10
-7.485701826192083
 20
-1.587779942353332
 10
-7.459508852635085
 20
-1.586978488626889
 10
-7.436136773691539
 20
-1.585811692602689
 10
-7.415588886042758
 20
-1.584388158187932
 10
-7.39786534500029
 20
-1.582816460187805
 10
-7.382963167248783
 20
-1.581205063507869
 10
-7.370876235537292
 20
-1.579662242459058
 10
-7.361595305315952
 20
-1.578296000210369
 10
-7.275066036559248
 20
-1.552662606221229
 10
-7.192282995357012
 20
-1.532495726001703
 10
-7.113469288473761
 20
-1.517580599786721
 10
-7.038839320445151
 20
-1.507694632274993
 10
-6.968598538826825
 20
-1.502607701683044
 10
-6.902943189675189
 20
-1.5020824766997
 10
-6.842060083497355
 20
-1.505874741016725
 10
-6.786126371897589
 20
-1.513733725104427
 10
-6.735309335137412
 20
-1.52540244489433
 10
-6.689766180816095
 20
-1.540618047024674
 10
-6.649643853867834
 20
-1.559112160298475
 10
-6.615078858061056
 20
-1.580611252998108
 10
-6.586197089174513
 20
-1.604836995695008
 10
-6.563113680013728
 20
-1.631506629187979
 10
-6.545932857420175
 20
-1.660333337198842
 10
-6.534747811414305
 20
-1.691026623449776
 10
-6.45934726619241
 20
-1.95942157146762
 10
-6.372928284483902
 20
-2.224474113318712
 10
-6.365176034155422
 20
-2.256208726753884
 10
-6.363446105169538
 20
-2.289722412099403
 10
-6.36782240394084
 20
-2.324721856926399
 10
-6.378377615604355
 20
-2.360910676884647
 10
-6.39517310332621
 20
-2.39798980193116
 10
-6.418258820137542
 20
-2.43565786565674
 10
-6.447673233383034
 20
-2.47361159731975
 10
-6.483443261863665
 20
-2.511546216193745
 10
-6.525584225741262
 20
-2.549155827833371
 10
-6.574099809260439
 20
-2.586133821860973
 10
-6.628982036331522
 20
-2.622173270874858
 10
-6.690211259005864
 20
-2.656967330078933
 10
-6.757756158862877
 20
-2.690209637232621
 10
-6.831573761315995
 20
-2.721594712519473
 10
-6.911609462832485
 20
-2.750818357932789
 10
-6.997797071050075
 20
-2.777578055776819
 10
-7.006272926027483
 20
-2.781598275429698
 10
-7.01717998790116
 20
-2.787030606077836
 10
-7.030465939887629
 20
-2.793969985071009
 10
-7.046075714311005
 20
-2.802509837771082
 10
-7.063951531834491
 20
-2.812742006892239
 10
-7.084032942391437
 20
-2.82475668279918
 10
-7.106256867793479
 20
-2.838642334802514
 10
-7.130557645992375
 20
-2.854485643490044
 10
-7.156867076971287
 20
-2.872371434132127
 10
-7.185114470240436
 20
-2.892382611198716
 10
-7.215226693911145
 20
-2.914600094025138
 10
-7.247128225321544
 20
-2.939102753663077
 10
-7.280741203186309
 20
-2.965967350952587
 10
-7.315985481242055
 20
-2.995268475850391
 10
-7.352778683359195
 20
-3.027078488049017
 10
-7.391036260090294
 20
-3.061467458920717
 10
-7.428751192151139
 20
-3.096675651202308
 10
-7.467638983915136
 20
-3.134340571480998
 10
-7.507621410738125
 20
-3.174516671633749
 10
-7.548618652952444
 20
-3.217256346008858
 10
-7.590549345292398
 20
-3.262609891382551
 10
-7.633330627249224
 20
-3.310625468041319
 10
-7.676878194330872
 20
-3.361349062010556
 10
-7.721106350201307
 20
-3.414824448449567
 10
-7.765928059673785
 20
-3.471093156232407
 10
-7.811255002532012
 20
-3.530194433733565
 10
-7.856997628152762
 20
-3.592165215836819
 10
-7.903065210903068
 20
-3.657040092185145
 10
-7.949365906284802
 20
-3.724851276688911
 10
-7.995806807798997
 20
-3.795628578309022
 10
-8.042294004502001
 20
-3.869399373131108
 10
-8.08873263922508
 20
-3.946188577746237
 10
-7.937291379135195
 20
-4.242570631433978
 10
-7.774994964018936
 20
-4.53315048387765
 10
-7.685347150714362
 20
-4.537199966570007
 10
-7.598182073839674
 20
-4.539532132819677
 10
-7.513531715825899
 20
-4.540239696396272
 10
-7.431425488414577
 20
-4.539415950733977
 10
-7.351890222445822
 20
-4.537154705734821
 10
-7.274950159101294
 20
-4.533550224397747
 10
-7.200626942605009
 20
-4.528697159305631
 10
-7.128939614384086
 20
-4.522690489002438
 10
-7.059904608690948
 20
-4.515625454292725
 10
-6.993535749687767
 20
-4.50759749449571
 10
-6.929844249993188
 20
-4.498702183686143
 10
-6.868838710690796
 20
-4.489035166954194
 10
-6.810525122798015
 20
-4.478692096716539
 10
-6.754906870193443
 20
-4.467768569110796
 10
-6.701984733999971
 20
-4.456360060505381
 10
-6.651756898420362
 20
-4.444561864156817
 10
-6.601908743322924
 20
-4.431857340225069
 10
-6.555018476939036
 20
-4.41893760661491
 10
-6.511074810208193
 20
-4.405911893191225
 10
-6.470063343970409
 20
-4.392888894093785
 10
-6.431966585821513
 20
-4.379976688464772
 10
-6.396763968868015
 20
-4.367282661634705
 10
-6.364431872370004
 20
-4.354913426810529
 10
-6.33494364425954
 20
-4.342974747309355
 10
-6.308269625521011
 20
-4.331571459381001
 10
-6.284377176419008
 20
-4.320807395662245
 10
-6.263230704558238
 20
-4.310785309305248
 10
-6.244791694759117
 20
-4.301606798822341
 10
-6.229018740731687
 20
-4.293372233688938
 10
-6.215867578529604
 20
-4.286180680745928
 10
-6.20529112176498
 20
-4.280129831442489
 10
-6.197239498563989
 20
-4.275315929959829
 10
-6.127106353391433
 20
-4.218520444336608
 10
-6.058342326928152
 20
-4.168208978118288
 10
-5.99123572795148
 20
-4.124268498415946
 10
-5.926069823957514
 20
-4.086575403050303
 10
-5.863122487531878
 20
-4.054995708591389
 10
-5.802665849150189
 20
-4.029385249612837
 10
-5.744965956751502
 20
-4.009589888952028
 10
-5.690282442421505
 20
-3.99544573875707
 10
-5.638868196515396
 20
-3.986779392091563
 10
-5.590969049543187
 20
-3.983408164858209
 10
-5.546823462132796
 20
-3.985140347792784
 10
-5.506662223378544
 20
-3.991775468270514
 10
-5.470708157874703
 20
-4.003104561657788
 10
-5.439175841725461
 20
-4.018910451933184
 10
-5.412271327814186
 20
-4.038968041293144
 10
-5.390191880606094
 20
-4.063044608449204
 10
-5.217820560198476
 20
-4.282154668104607
 10
-5.03654861530485
 20
-4.493960174019213
 10
-5.017242159101312
 20
-4.52031247607987
 10
-5.002818780979329
 20
-4.550613068867553
 10
-4.993468246165023
 20
-4.584623076627329
 10
-4.989371128347404
 20
-4.622096491321225
 10
-4.990698568850277
 20
-4.662780490924771
 10
-4.997612046188565
 20
-4.706415765378133
 10
-5.01026315624304
 20
-4.752736849865803
 10
-5.02879340327748
 20
-4.801472465091869
 10
-5.053334002012118
 20
-4.852345864211269
 10
-5.084005690956869
 20
-4.905075186071009
 10
-5.1209185571973
 20
-4.959373814409324
 10
-5.16417187281557
 20
-5.014950742655019
 10
-5.213853943117682
 20
-5.071510943963803
 10
-5.270041966827363
 20
-5.128755746123372
 10
-5.332801908395643
 20
-5.18638321095418
 10
-5.402188382563969
 20
-5.24408851782851
 10
-5.408480580042506
 20
-5.251046285756988
 10
-5.416478528329258
 20
-5.260239056731474
 10
-5.426097562067894
 20
-5.271734520660025
 10
-5.437251053021614
 20
-5.285597917835066
 10
-5.449850473358644
 20
-5.301891988665517
 10
-5.46380546014134
 20
-5.320676924944361
 10
-5.479023880983083
 20
-5.342010322679294
 10
-5.495411900836575
 20
-5.365947136513259
 10
-5.512874049876534
 20
-5.392539635760843
 10
-5.531313292439191
 20
-5.421837362085728
 10
-5.550631096980433
 20
-5.453887088843433
 10
-5.570727507013946
 20
-5.488732782112849
 10
-5.591501212990103
 20
-5.526415563439086
 10
-5.612849625075893
 20
-5.566973674309327
 10
-5.634668946795724
 20
-5.61044244238246
 10
-5.656854249492381
 20
-5.656854249492379
 10
-5.678224711423759
 20
-5.703815257370524
 10
-5.69973860532707
 20
-5.75349481993902
 10
-5.721302823223462
 20
-5.805913308897178
 10
-5.742823570906648
 20
-5.861088584646616
 10
-5.764206428930026
 20
-5.919035978210291
 10
-5.785356414021766
 20
-5.97976827454727
 10
-5.806178040897122
 20
-6.043295697272815
 10
-5.826575384437007
 20
-6.109625894792625
 10
-5.84645214220171
 20
-6.178763927859449
 10
-5.865711697248431
 20
-6.250712258559641
 10
-5.884257181221145
 20
-6.325470740736495
 10
-5.901991537681185
 20
-6.403036611856563
 10
-5.918817585646766
 20
-6.483404486324511
 10
-5.934638083309579
 20
-6.566566350251291
 10
-5.949355791896492
 20
-6.652511557679842
 10
-5.962873539644214
 20
-6.741226828271759
 10
-5.709539557472811
 20
-6.957094080264632
 10
-5.448397126037658
 20
-7.163446709300251
 10
-5.364023676255153
 20
-7.132881210577558
 10
-5.282601164395587
 20
-7.10167922044127
 10
-5.2041236583488
 20
-7.06993863439199
 10
-5.128582629169205
 20
-7.037756899710288
 10
-5.055966965825526
 20
-7.005230953162582
 10
-4.986262991361363
 20
-6.97245715910287
 10
-4.919454480456981
 20
-6.939531248001106
 10
-4.855522678381963
 20
-6.906548255428778
 10
-4.794446321327764
 20
-6.873602461531997
 10
-4.736201658108608
 20
-6.840787331022219
 10
-4.680762473218397
 20
-6.808195453714333
 10
-4.628100111230818
 20
-6.775918485641719
 10
-4.578183502529118
 20
-6.744047090777491
 10
-4.530979190351411
 20
-6.712670883390856
 10
-4.486451359136776
 20
-6.681878371067223
 10
-4.444561864156818
 20
-6.651756898420361
 10
-4.403369984753613
 20
-6.620943385699765
 10
-4.364993195370715
 20
-6.591062980167541
 10
-4.329379265816572
 20
-6.562212276923773
 10
-4.296473297555502
 20
-6.534486185939536
 10
-4.266217769616218
 20
-6.507977865268913
 10
-4.238552586079911
 20
-6.482778655411466
 10
-4.213415125120465
 20
-6.458978014861166
 10
-4.190740289568599
 20
-6.436663456877142
 10
-4.170460558970919
 20
-6.415920487510971
 10
-4.152506043114101
 20
-6.396832544924602
 10
-4.136804536983664
 20
-6.379480940032222
 10
-4.123281577126079
 20
-6.363944798498782
 10
-4.11186049938218
 20
-6.350301004127147
 10
-4.102462497959206
 20
-6.338624143665045
 10
-4.095006685808044
 20
-6.328986453062339
 10
-4.089410156271607
 20
-6.321457765208319
 10
-4.046350270277174
 20
-6.242146785784794
 10
-4.002073958234432
 20
-6.169350198224842
 10
-3.956890838535704
 20
-6.10307390474838
 10
-3.911109916729071
 20
-6.043312113609481
 10
-3.865039186847902
 20
-5.990047377494328
 10
-3.818985234388981
 20
-5.943250644740665
 10
-3.773252841336314
 20
-5.902881323317238
 10
-3.728144593625536
 20
-5.868887357489763
 10
-3.683960491441402
 20
-5.841205317088041
 10
-3.64099756273797
 20
-5.819760499277015
 10
-3.599549480367934
 20
-5.804467042722853
 10
-3.559906183204009
 20
-5.795228054033464
 10
-3.522353501631413
 20
-5.791935746341386
 10
-3.487172787786278
 20
-5.79447158988553
 10
-3.454640550910248
 20
-5.802706474437032
 10
-3.425028098186679
 20
-5.816500883403333
 10
-3.181927973575485
 20
-5.952968534351395
 10
-2.933400075872527
 20
-6.079281536075711
 10
-2.905478646737459
 20
-6.096239627657329
 10
-2.8805576480502
 20
-6.118714137310809
 10
-2.858903813812954
 20
-6.146556992623429
 10
-2.840778115561469
 20
-6.179610014363176
 10
-2.826435418062075
 20
-6.217705118385489
 10
-2.816124141673394
 20
-6.260664528585857
 10
-2.810085931713656
 20
-6.308301000686616
 10
-2.808555335168018
 20
-6.360418056636036
 10
-2.811759485063432
 20
-6.416810229387795
 10
-2.819917792831471
 20
-6.477263317819021
 10
-2.83324164897211
 20
-6.541554651535548
 10
-2.851934132323709
 20
-6.609453365303563
 10
-2.876189728236512
 20
-6.680720682837683
 10
-2.906194055938661
 20
-6.755110209666598
 10
-2.942123605375246
 20
-6.832368234788678
 10
-2.984145483792136
 20
-6.912234040821601
 10
-2.987296093744606
 20
-6.921070099930891
 10
-2.991167313319357
 20
-6.932623795183535
 10
-2.995655018120212
 20
-6.946925263870981
 10
-3.000654207713218
 20
-6.9640016289731
 10
-3.006059083331511
 20
-6.983876976935027
 10
-3.011763126104562
 20
-7.006572337323191
 10
-3.017659175768176
 20
-7.032105664372314
 10
-3.023639509811341
 20
-7.060491820434248
 10
-3.02959592301579
 20
-7.091742561338496
 10
-3.035419807343938
 20
-7.125866523673263
 10
-3.041002232130644
 20
-7.162869213994887
 10
-3.04623402453408
 20
-7.202752999972509
 10
-3.051005850200871
 20
-7.245517103473815
 10
-3.055208294100483
 20
-7.291157595596689
 10
-3.058731941483803
 20
-7.339667393650561
 10
-3.061467458920722
 20
-7.391036260090291
 10
-3.063239991617302
 20
-7.442600695818138
 10
-3.064104692337083
 20
-7.496731637621743
 10
-3.063967744612274
 20
-7.553412275616213
 10
-3.062735659015622
 20
-7.612623217172251
 10
-3.06031533642446
 20
-7.674342493550268
 10
-3.056614131145988
 20
-7.738545567987791
 10
-3.051539913871796
 20
-7.805205345237201
 10
-3.045001134429561
 20
-7.874292182550157
 10
-3.036906884300073
 20
-7.94577390210437
 10
-3.027166958867724
 20
-8.019615804867735
 10
-3.015691919372789
 20
-8.09578068589409
 10
-3.002393154533863
 20
-8.174228851044242
 10
-2.987182941809034
 20
-8.254918135125225
 10
-2.969974508264473
 20
-8.337803921439994
 10
-2.950682091019299
 20
-8.42283916273926
 10
-2.929220997235757
 20
-8.509974403566275
 10
-2.612562095290166
 20
-8.612463021589878
 10
-2.292330215460086
 20
-8.70317311003801
 10
-2.226076222081812
 20
-8.642645950003864
 10
-2.162792114571078
 20
-8.582660023633121
 10
-2.102434949386538
 20
-8.523303504454841
 10
-2.044959555350129
 20
-8.46466315813087
 10
-1.990318571112973
 20
-8.406824290548062
 10
-1.938462483773241
 20
-8.349870696816119
 10
-1.889339668625297
 20
-8.293884611195825
 10
-1.842896430018875
 20
-8.238946657981923
 10
-1.799077043306562
 20
-8.185135803364497
 10
-1.757823797857361
 20
-8.132529308292172
 10
-1.71907704111359
 20
-8.081202682359988
 10
-1.682775223667932
 20
-8.031229638744319
 10
-1.648854945336963
 20
-7.982682050206682
 10
-1.617251002207022
 20
-7.935629906187742
 10
-1.587896434627856
 20
-7.890141271012347
 10
-1.560722576129031
 20
-7.846282243225842
 10
-1.534458062653879
 20
-7.802050819702919
 10
-1.510437268569056
 20
-7.759758763124362
 10
-1.488574974125155
 20
-7.719475328097099
 10
-1.468784139215201
 20
-7.681267191240774
 10
-1.450975971347243
 20
-7.645198407052116
 10
-1.435059994636016
 20
-7.61133036543668
 10
-1.420944119774558
 20
-7.579721750930695
 10
-1.408534714946167
 20
-7.550428503634916
 10
-1.397736677636617
 20
-7.523503781881445
 10
-1.388453507306093
 20
-7.498997926653607
 10
-1.380587378879842
 20
-7.476958427778015
 10
-1.374039217016173
 20
-7.457429891907037
 10
-1.368708771109985
 20
-7.440454012308947
 10
-1.364494690989673
 20
-7.426069540482105
 10
-1.361294603264881
 20
-7.414312259608512
 10
-1.359005188282254
 20
-7.405214959861182
 10
-1.349574038769761
 20
-7.315462864298763
 10
-1.336526108290296
 20
-7.231263775950474
 10
-1.320145188257642
 20
-7.152741633585587
 10
-1.300718978978313
 20
-7.080009337632346
 10
-1.278538706633813
 20
-7.013168633088449
 10
-1.253898736879411
 20
-6.95231000490798
 10
-1.227096185449857
 20
-6.897512585959841
 10
-1.19843052616498
 20
-6.848844077641014
 10
-1.168203196730471
 20
-6.806360683215919
 10
-1.136717202730997
 20
-6.770107053941193
 10
-1.104276720214352
 20
-6.740116248023135
 10
-1.071186697266576
 20
-6.716409702442945
 10
-1.037752454978747
 20
-6.698997217672791
 10
-1.004279288206677
 20
-6.687876955293566
 10
-0.9710720665248049
 20
-6.68303544851306
 10
-0.9384348357753693
 20
-6.68444762557111
 10
-0.6616156972245384
 20
-6.717496905037328
 10
-0.3836679662265126
 20
-6.739087393089038
 10
-0.3513823486373432
 20
-6.744069558473802
 10
-0.3197577255255284
 20
-6.755296444630273
 10
-0.2890971918354663
 20
-6.772733325170501
 10
-0.2597023863990393
 20
-6.796333931022612
 10
-0.2318730965747846
 20
-6.826040505209273
 10
-0.2059068648173582
 20
-6.861783870381664
 10
-0.1820985975732685
 20
-6.903483509043867
 10
-0.1607401768967335
 20
-6.951047656390631
 10
-0.1421200751770362
 20
-7.00437340566961
 10
-0.126522973365924
 20
-7.063346825967279
 10
-0.1142293830904144
 20
-7.127843092306069
 10
-0.1055152730328462
 20
-7.197726627928598
 10
-0.1006516999561393
 20
-7.272851258633326
 10
-0.09990444474801154
 20
-7.353060379014626
 10
-0.1035336538533598
 20
-7.438187130448881
 10
-0.1117934864591187
 20
-7.52805459065722
 10
-0.1113228570806079
 20
-7.537423731047007
 10
-0.1104779898557958
 20
-7.549579405210103
 10
-0.1091511533440844
 20
-7.564509609691918
 10
-0.107234960278608
 20
-7.58219922093195
 10
-0.1046224478605969
 20
-7.602630004468629
 10
-0.101207157819082
 20
-7.62578062608097
 10
-0.09688321619110712
 20
-7.651626664861238
 10
-0.09154541277773551
 20
-7.680140628211858
 10
-0.08508928023131587
 20
-7.711291968758769
 10
-0.07741117272963989
 20
-7.745047103172441
 10
-0.06840834419283964
 20
-7.781369432886739
 10
-0.05797902599909156
 20
-7.820219366704892
 10
-0.04602250415545514
 20
-7.861554345280759
 10
-0.03243919588042012
 20
-7.90532886746265
 10
-0.01713072555506426
 20
-7.951494518485972
 10
-1.705498551709669e-15
 20
-7.999999999999999
 10
0.01809524857322267
 20
-8.048317645670757
 10
0.03801138388302863
 20
-8.098659021518081
 10
0.05982864817937095
 20
-8.15097269522547
 10
0.08362599319265188
 20
-8.205204973484721
 10
0.1094810242241315
 20
-8.261299932335161
 10
0.1374699449206763
 20
-8.319199448792434
 10
0.1676675027623141
 20
-8.378843233751871
 10
0.2001469352907709
 20
-8.440168866150815
 10
0.2349799171067971
 20
-8.50311182837369
 10
0.272236507663784
 20
-8.567605542883021
 10
0.311985099884757
 20
-8.63358141005898
 10
0.3542923696295261
 20
-8.700968847229495
 10
0.3992232260383301
 20
-8.769695328872363
 10
0.4468407627779463
 20
-8.839686427970223
 10
0.4972062102158261
 20
-8.91086585849877
 10
0.5503788885473868
 20
-8.983155519027896
 10
0.8821542629660438
 20
-8.956662540049772
 10
1.212723190396142
 20
-8.91792029923319
 10
1.250771157472289
 20
-8.836646189322714
 10
1.286282428937545
 20
-8.757008640233687
 10
1.319330421999556
 20
-8.679072679903115
 10
1.34999007316648
 20
-8.602901183088635
 10
1.37833778376876
 20
-8.528554837749565
 10
1.40445136476319
 20
-8.456092112705468
 10
1.428409980847851
 20
-8.385569226587203
 10
1.450294093916854
 20
-8.317040118094761
 10
1.470185405884061
 20
-8.250556417575579
 10
1.488166800905267
 20
-8.186167419936401
 10
1.504322287028584
 20
-8.123920058901072
 10
1.518736937303014
 20
-8.063858882626066
 10
1.531496830375452
 20
-8.00602603068489
 10
1.54268899060655
 20
-7.950461212431781
 10
1.552401327736138
 20
-7.897201686754572
 10
1.560722576129025
 20
-7.846282243225843
 10
1.568061189587939
 20
-7.795366742173107
 10
1.574069040224313
 20
-7.747101616783852
 10
1.57885136341108
 20
-7.701518237785749
 10
1.582514089759242
 20
-7.658644897536087
 10
1.585163765429423
 20
-7.618506795257775
 10
1.586907472139973
 20
-7.581126024205738
 10
1.587852746916509
 20
-7.546521560769801
 10
1.588107501627839
 20
-7.514709255519103
 10
1.587779942353331
 20
-7.485701826192083
 10
1.586978488626888
 20
-7.459508852635085
 10
1.585811692602689
 20
-7.436136773691539
 10
1.584388158187932
 20
-7.415588886042758
 10
1.582816460187804
 20
-7.39786534500029
 10
1.581205063507868
 20
-7.382963167248783
 10
1.579662242459057
 20
-7.370876235537292
 10
1.578296000210368
 20
-7.361595305315952
 10
1.552662606221229
 20
-7.275066036559248
 10
1.532495726001702
 20
-7.192282995357012
 10
1.51758059978672
 20
-7.113469288473761
 10
1.507694632274992
 20
-7.038839320445151
 10
1.502607701683044
 20
-6.968598538826825
 10
1.502082476699699
 20
-6.902943189675189
 10
1.505874741016724
 20
-6.842060083497355
 10
1.513733725104427
 20
-6.786126371897589
 10
1.52540244489433
 20
-6.735309335137412
 10
1.540618047024674
 20
-6.689766180816095
 10
1.559112160298475
 20
-6.649643853867834
 10
1.580611252998108
 20
-6.615078858061056
 10
1.604836995695008
 20
-6.586197089174513
 10
1.631506629187978
 20
-6.563113680013728
 10
1.660333337198842
 20
-6.545932857420175
 10
1.691026623449776
 20
-6.534747811414305
 10
1.95942157146762
 20
-6.45934726619241
 10
2.224474113318714
 20
-6.3729282844839
 10
2.256208726753886
 20
-6.365176034155421
 10
2.289722412099406
 20
-6.363446105169536
 10
2.324721856926401
 20
-6.367822403940838
 10
2.360910676884649
 20
-6.378377615604355
 10
2.397989801931162
 20
-6.39517310332621
 10
2.435657865656743
 20
-6.41825882013754
 10
2.473611597319752
 20
-6.447673233383032
 10
2.511546216193747
 20
-6.483443261863664
 10
2.549155827833374
 20
-6.525584225741261
 10
2.586133821860976
 20
-6.574099809260439
 10
2.62217327087486
 20
-6.628982036331521
 10
2.656967330078936
 20
-6.690211259005862
 10
2.690209637232623
 20
-6.757756158862876
 10
2.721594712519475
 20
-6.831573761315993
 10
2.750818357932791
 20
-6.911609462832483
 10
2.777578055776821
 20
-6.997797071050073
 10
2.781598275429701
 20
-7.006272926027481
 10
2.787030606077839
 20
-7.017179987901159
 10
2.793969985071012
 20
-7.030465939887627
 10
2.802509837771085
 20
-7.046075714311003
 10
2.812742006892241
 20
-7.063951531834489
 10
2.824756682799182
 20
-7.084032942391435
 10
2.838642334802516
 20
-7.106256867793478
 10
2.854485643490047
 20
-7.130557645992373
 10
2.87237143413213
 20
-7.156867076971285
 10
2.892382611198718
 20
-7.185114470240435
 10
2.914600094025141
 20
-7.215226693911143
 10
2.939102753663079
 20
-7.247128225321542
 10
2.96596735095259
 20
-7.280741203186308
 10
2.995268475850394
 20
-7.315985481242054
 10
3.02707848804902
 20
-7.352778683359193
 10
3.06146745892072
 20
-7.391036260090292
 10
3.096675651202311
 20
-7.428751192151137
 10
3.134340571481002
 20
-7.467638983915134
 10
3.174516671633752
 20
-7.507621410738123
 10
3.217256346008861
 20
-7.548618652952443
 10
3.262609891382554
 20
-7.590549345292396
 10
3.310625468041321
 20
-7.633330627249222
 10
3.361349062010559
 20
-7.67687819433087
 10
3.414824448449569
 20
-7.721106350201304
 10
3.47109315623241
 20
-7.765928059673783
 10
3.530194433733568
 20
-7.81125500253201
 10
3.592165215836822
 20
-7.856997628152761
 10
3.657040092185147
 20
-7.903065210903066
 10
3.724851276688914
 20
-7.949365906284799
 10
3.795628578309024
 20
-7.995806807798996
 10
3.869399373131111
 20
-8.042294004501997
 10
3.94618857774624
 20
-8.088732639225078
 10
4.242570631433981
 20
-7.937291379135193
 10
4.533150483877653
 20
-7.774994964018934
 10
4.537199966570009
 20
-7.685347150714359
 10
4.53953213281968
 20
-7.598182073839672
 10
4.540239696396274
 20
-7.513531715825897
 10
4.539415950733979
 20
-7.431425488414575
 10
4.537154705734824
 20
-7.35189022244582
 10
4.53355022439775
 20
-7.274950159101293
 10
4.528697159305635
 20
-7.200626942605007
 10
4.522690489002441
 20
-7.128939614384083
 10
4.515625454292728
 20
-7.059904608690946
 10
4.507597494495712
 20
-6.993535749687764
 10
4.498702183686146
 20
-6.929844249993186
 10
4.489035166954196
 20
-6.868838710690794
 10
4.478692096716542
 20
-6.810525122798014
 10
4.467768569110799
 20
-6.75490687019344
 10
4.456360060505383
 20
-6.70198473399997
 10
4.444561864156819
 20
-6.651756898420359
 10
4.431857340225072
 20
-6.601908743322921
 10
4.418937606614913
 20
-6.555018476939034
 10
4.405911893191226
 20
-6.51107481020819
 10
4.392888894093787
 20
-6.470063343970407
 10
4.379976688464775
 20
-6.431966585821511
 10
4.367282661634707
 20
-6.396763968868012
 10
4.354913426810532
 20
-6.364431872370002
 10
4.342974747309357
 20
-6.334943644259537
 10
4.331571459381003
 20
-6.308269625521008
 10
4.320807395662247
 20
-6.284377176419006
 10
4.31078530930525
 20
-6.263230704558235
 10
4.301606798822343
 20
-6.244791694759114
 10
4.293372233688941
 20
-6.229018740731685
 10
4.286180680745931
 20
-6.215867578529602
 10
4.28012983144249
 20
-6.205291121764978
 10
4.275315929959831
 20
-6.197239498563988
 10
4.21852044433661
 20
-6.12710635339143
 10
4.16820897811829
 20
-6.058342326928149
 10
4.124268498415947
 20
-5.991235727951477
 10
4.086575403050305
 20
-5.926069823957511
 10
4.054995708591391
 20
-5.863122487531875
 10
4.029385249612839
 20
-5.802665849150186
 10
4.009589888952029
 20
-5.744965956751499
 10
3.995445738757073
 20
-5.690282442421502
 10
3.986779392091565
 20
-5.638868196515395
 10
3.983408164858211
 20
-5.590969049543185
 10
3.985140347792786
 20
-5.546823462132793
 10
3.991775468270516
 20
-5.506662223378542
 10
4.00310456165779
 20
-5.470708157874701
 10
4.018910451933186
 20
-5.439175841725459
 10
4.038968041293145
 20
-5.412271327814185
 10
4.063044608449205
 20
-5.390191880606092
 10
4.282154668104607
 20
-5.217820560198473
 10
4.493960174019213
 20
-5.03654861530485
 10
4.520312476079869
 20
-5.017242159101312
 10
4.550613068867552
 20
-5.002818780979329
 10
4.584623076627329
 20
-4.993468246165023
 10
4.622096491321225
 20
-4.989371128347404
 10
4.66278049092477
 20
-4.990698568850277
 10
4.706415765378132
 20
-4.997612046188565
 10
4.752736849865802
 20
-5.01026315624304
 10
4.801472465091868
 20
-5.02879340327748
 10
4.852345864211269
 20
-5.053334002012118
 10
4.905075186071009
 20
-5.084005690956869
 10
4.959373814409323
 20
-5.1209185571973
 10
5.014950742655018
 20
-5.16417187281557
 10
5.071510943963802
 20
-5.213853943117682
 10
5.128755746123371
 20
-5.270041966827363
 10
5.186383210954179
 20
-5.332801908395643
 10
5.244088517828509
 20
-5.402188382563969
 10
5.251046285756988
 20
-5.408480580042506
 10
5.260239056731473
 20
-5.416478528329258
 10
5.271734520660025
 20
-5.426097562067894
 10
5.285597917835065
 20
-5.437251053021614
 10
5.301891988665516
 20
-5.449850473358644
 10
5.32067692494436
 20
-5.46380546014134
 10
5.342010322679293
 20
-5.479023880983083
 10
5.365947136513258
 20
-5.495411900836575
 10
5.392539635760842
 20
-5.512874049876534
 10
5.421837362085727
 20
-5.531313292439191
 10
5.453887088843432
 20
-5.550631096980433
 10
5.488732782112848
 20
-5.570727507013946
 10
5.526415563439085
 20
-5.591501212990103
 10
5.566973674309326
 20
-5.612849625075893
 10
5.610442442382459
 20
-5.634668946795724
 10
5.656854249492378
 20
-5.656854249492381
 10
5.703815257370523
 20
-5.678224711423759
 10
5.753494819939019
 20
-5.69973860532707
 10
5.805913308897177
 20
-5.721302823223462
 10
5.861088584646615
 20
-5.742823570906648
 10
5.919035978210291
 20
-5.764206428930026
 10
5.979768274547269
 20
-5.785356414021766
 10
6.043295697272814
 20
-5.806178040897122
 10
6.109625894792624
 20
-5.826575384437007
 10
6.178763927859448
 20
-5.84645214220171
 10
6.25071225855964
 20
-5.865711697248431
 10
6.325470740736494
 20
-5.884257181221145
 10
6.403036611856562
 20
-5.901991537681185
 10
6.48340448632451
 20
-5.918817585646766
 10
6.56656635025129
 20
-5.934638083309579
 10
6.652511557679841
 20
-5.949355791896492
 10
6.741226828271758
 20
-5.962873539644214
 10
6.957094080264631
 20
-5.709539557472811
 10
7.16344670930025
 20
-5.448397126037658
 10
7.132881210577557
 20
-5.364023676255153
 10
7.101679220441269
 20
-5.282601164395587
 10
7.069938634391989
 20
-5.2041236583488
 10
7.037756899710288
 20
-5.128582629169205
 10
7.005230953162581
 20
-5.055966965825526
 10
6.972457159102869
 20
-4.986262991361363
 10
6.939531248001106
 20
-4.919454480456982
 10
6.906548255428777
 20
-4.855522678381964
 10
6.873602461531997
 20
-4.794446321327765
 10
6.840787331022218
 20
-4.736201658108609
 10
6.808195453714333
 20
-4.680762473218397
 10
6.775918485641718
 20
-4.628100111230818
 10
6.74404709077749
 20
-4.578183502529119
 10
6.712670883390855
 20
-4.530979190351411
 10
6.681878371067222
 20
-4.486451359136776
 10
6.651756898420359
 20
-4.444561864156818
 10
6.620943385699764
 20
-4.403369984753613
 10
6.59106298016754
 20
-4.364993195370716
 10
6.562212276923773
 20
-4.329379265816572
 10
6.534486185939535
 20
-4.296473297555502
 10
6.507977865268912
 20
-4.266217769616218
 10
6.482778655411465
 20
-4.238552586079911
 10
6.458978014861165
 20
-4.213415125120465
 10
6.43666345687714
 20
-4.190740289568599
 10
6.41592048751097
 20
-4.170460558970919
 10
6.396832544924601
 20
-4.152506043114101
 10
6.37948094003222
 20
-4.136804536983664
 10
6.363944798498781
 20
-4.12328157712608
 10
6.350301004127147
 20
-4.11186049938218
 10
6.338624143665044
 20
-4.102462497959206
 10
6.328986453062338
 20
-4.095006685808044
 10
6.321457765208319
 20
-4.089410156271607
 10
6.242146785784793
 20
-4.046350270277174
 10
6.169350198224842
 20
-4.002073958234432
 10
6.10307390474838
 20
-3.956890838535704
 10
6.043312113609481
 20
-3.911109916729071
 10
5.990047377494328
 20
-3.865039186847902
 10
5.943250644740664
 20
-3.818985234388981
 10
5.902881323317238
 20
-3.773252841336314
 10
5.868887357489761
 20
-3.728144593625536
 10
5.841205317088041
 20
-3.683960491441402
 10
5.819760499277015
 20
-3.64099756273797
 10
5.804467042722852
 20
-3.599549480367934
 10
5.795228054033463
 20
-3.559906183204009
 10
5.791935746341385
 20
-3.522353501631413
 10
5.794471589885529
 20
-3.487172787786278
 10
5.802706474437032
 20
-3.454640550910248
 10
5.816500883403332
 20
-3.425028098186679
 10
5.952968534351395
 20
-3.181927973575486
 10
6.079281536075711
 20
-2.933400075872528
 10
6.096239627657329
 20
-2.90547864673746
 10
6.118714137310809
 20
-2.880557648050201
 10
6.146556992623429
 20
-2.858903813812955
 10
6.179610014363176
 20
-2.840778115561469
 10
6.217705118385489
 20
-2.826435418062076
 10
6.260664528585857
 20
-2.816124141673394
 10
6.308301000686616
 20
-2.810085931713656
 10
6.360418056636036
 20
-2.808555335168018
 10
6.416810229387795
 20
-2.811759485063432
 10
6.477263317819021
 20
-2.819917792831472
 10
6.541554651535548
 20
-2.83324164897211
 10
6.609453365303563
 20
-2.851934132323709
 10
6.680720682837683
 20
-2.876189728236512
 10
6.755110209666598
 20
-2.906194055938661
 10
6.832368234788678
 20
-2.942123605375246
 10
6.912234040821601
 20
-2.984145483792137
 10
6.921070099930891
 20
-2.987296093744606
 10
6.932623795183535
 20
-2.991167313319358
 10
6.946925263870981
 20
-2.995655018120213
 10
6.9640016289731
 20
-3.000654207713219
 10
6.983876976935027
 20
-3.006059083331511
 10
7.006572337323191
 20
-3.011763126104562
 10
7.032105664372314
 20
-3.017659175768177
 10
7.060491820434248
 20
-3.023639509811341
 10
7.091742561338496
 20
-3.02959592301579
 10
7.125866523673263
 20
-3.035419807343939
 10
7.162869213994887
 20
-3.041002232130645
 10
7.202752999972509
 20
-3.046234024534081
 10
7.245517103473815
 20
-3.051005850200871
 10
7.291157595596689
 20
-3.055208294100483
 10
7.339667393650561
 20
-3.058731941483804
 10
7.391036260090291
 20
-3.061467458920723
 10
7.442600695818138
 20
-3.063239991617303
 10
7.496731637621743
 20
-3.064104692337083
 10
7.553412275616213
 20
-3.063967744612274
 10
7.612623217172251
 20
-3.062735659015623
 10
7.674342493550268
 20
-3.06031533642446
 10
7.738545567987791
 20
-3.056614131145988
 10
7.805205345237201
 20
-3.051539913871796
 10
7.874292182550157
 20
-3.045001134429561
 10
7.94577390210437
 20
-3.036906884300073
 10
8.019615804867735
 20
-3.027166958867725
 10
8.09578068589409
 20
-3.01569191937279
 10
8.174228851044242
 20
-3.002393154533863
 10
8.254918135125225
 20
-2.987182941809035
 10
8.337803921439994
 20
-2.969974508264473
 10
8.42283916273926
 20
-2.9506820910193
 10
8.509974403566275
 20
-2.929220997235758
 10
8.612463021589878
 20
-2.612562095290167
 10
8.70317311003801
 20
-2.292330215460086
 10
8.642645950003864
 20
-2.226076222081812
 10
8.582660023633121
 20
-2.162792114571078
 10
8.523303504454841
 20
-2.102434949386538
 10
8.46466315813087
 20
-2.044959555350129
 10
8.406824290548062
 20
-1.990318571112974
 10
8.349870696816119
 20
-1.938462483773241
 10
8.293884611195825
 20
-1.889339668625297
 10
8.238946657981923
 20
-1.842896430018876
 10
8.185135803364497
 20
-1.799077043306563
 10
8.132529308292172
 20
-1.757823797857362
 10
8.081202682359988
 20
-1.71907704111359
 10
8.031229638744319
 20
-1.682775223667932
 10
7.982682050206682
 20
-1.648854945336963
 10
7.935629906187742
 20
-1.617251002207022
 10
7.890141271012347
 20
-1.587896434627856
 10
7.846282243225842
 20
-1.560722576129031
 10
7.802050819702919
 20
-1.534458062653879
 10
7.759758763124362
 20
-1.510437268569057
 10
7.719475328097099
 20
-1.488574974125156
 10
7.681267191240774
 20
-1.468784139215202
 10
7.645198407052116
 20
-1.450975971347243
 10
7.61133036543668
 20
-1.435059994636016
 10
7.579721750930695
 20
-1.420944119774558
 10
7.550428503634917
 20
-1.408534714946167
 10
7.523503781881445
 20
-1.397736677636617
 10
7.498997926653607
 20
-1.388453507306093
 10
7.476958427778015
 20
-1.380587378879842
 10
7.457429891907037
 20
-1.374039217016173
 10
7.440454012308947
 20
-1.368708771109985
 10
7.426069540482105
 20
-1.364494690989674
 10
7.414312259608513
 20
-1.361294603264882
 10
7.405214959861182
 20
-1.359005188282254
 10
7.315462864298763
 20
-1.349574038769761
 10
7.231263775950474
 20
-1.336526108290296
 10
7.152741633585587
 20
-1.320145188257642
 10
7.080009337632346
 20
-1.300718978978313
 10
7.013168633088449
 20
-1.278538706633813
 10
6.95231000490798
 20
-1.253898736879412
 10
6.897512585959842
 20
-1.227096185449858
 10
6.848844077641014
 20
-1.19843052616498
 10
6.806360683215919
 20
-1.168203196730472
 10
6.770107053941194
 20
-1.136717202730997
 10
6.740116248023135
 20
-1.104276720214352
 10
6.716409702442945
 20
-1.071186697266576
 10
6.698997217672791
 20
-1.037752454978747
 10
6.687876955293567
 20
-1.004279288206677
 10
6.68303544851306
 20
-0.9710720665248049
 10
6.68444762557111
 20
-0.9384348357753693
 10
6.717496905037328
 20
-0.6616156972245388
  0
ENDSEC
  0
SECTION
  2
OBJECTS
  0
DICTIONARY
  5
C
330
0
100
AcDbDictionary
281
    1
  3
ACAD_GROUP
350
D
  0
DICTIONARY
  5
D
330
C
100
AcDbDictionary
281
    1
  0
PLOTSETTINGS
  5
54
  6
1x1
 40
0
 41
0
 42
0
 43
0
  0
ENDSEC
  0
EOF
