999
dxfrw 0.6.3
  0
SECTION
  2
HEADER
  9
$ACADVER
  1
AC1021
  9
$DWGCODEPAGE
  3
ANSI_1252
  9
$INSBASE
 10
0
 20
0
 30
0
  9
$EXTMIN
 10
-17.24951618989592
 20
-10
 30
0
  9
$EXTMAX
 10
8.983155519027896
 20
8.983155519027896
 30
0
  9
$LIMMIN
 10
0
 20
0
  9
$LIMMAX
 10
420
 20
297
  9
$ORTHOMODE
 70
    0
  9
$REGENMODE
 70
    1
  9
$FILLMODE
 70
    1
  9
$QTEXTMODE
 70
    0
  9
$MIRRTEXT
 70
    0
  9
$LTSCALE
 40
1
  9
$ATTMODE
 70
    0
  9
$TEXTSIZE
 40
2.5
  9
$TRACEWID
 40
15.68
  9
$TEXTSTYLE
  7
STANDARD
  9
$CLAYER
  8
0
  9
$CELTYPE
  6
BYLAYER
  9
$CECOLOR
 62
  256
  9
$CELTSCALE
 40
1
  9
$DISPSILH
 70
    0
  9
$DIMSCALE
 40
2.5
  9
$DIMASZ
 40
2.5
  9
$DIMEXO
 40
0.625
  9
$DIMDLI
 40
3.75
  9
$DIMRND
 40
0
  9
$DIMDLE
 40
0
  9
$DIMEXE
 40
1.25
  9
$DIMTP
 40
0
  9
$DIMTM
 40
0
  9
$DIMTXT
 40
2.5
  9
$DIMCEN
 40
2.5
  9
$DIMTSZ
 40
0
  9
$DIMTOL
 70
    0
  9
$DIMLIM
 70
    0
  9
$DIMTIH
 70
    0
  9
$DIMTOH
 70
    0
  9
$DIMSE1
 70
    0
  9
$DIMSE2
 70
    0
  9
$DIMTAD
 70
    1
  9
$DIMZIN
 70
    8
  9
$DIMBLK
  1

  9
$DIMASO
 70
    1
  9
$DIMSHO
 70
    1
  9
$DIMPOST
  1

  9
$DIMAPOST
  1

  9
$DIMALT
 70
    0
  9
$DIMALTD
 70
    3
  9
$DIMALTF
 40
0.03937
  9
$DIMLFAC
 40
1
  9
$DIMTOFL
 70
    1
  9
$DIMTVP
 40
0
  9
$DIMTIX
 70
    0
  9
$DIMSOXD
 70
    0
  9
$DIMSAH
 70
    0
  9
$DIMBLK1
  1

  9
$DIMBLK2
  1

  9
$DIMSTYLE
  2
STANDARD
  9
$DIMCLRD
 70
    0
  9
$DIMCLRE
 70
    0
  9
$DIMCLRT
 70
    0
  9
$DIMTFAC
 40
1
  9
$DIMGAP
 40
0.625
  9
$DIMJUST
 70
    0
  9
$DIMSD1
 70
    0
  9
$DIMSD2
 70
    0
  9
$DIMTOLJ
 70
    0
  9
$DIMTZIN
 70
    8
  9
$DIMALTZ
 70
    0
  9
$DIMALTTZ
 70
    0
  9
$DIMUPT
 70
    0
  9
$DIMDEC
 70
    2
  9
$DIMTDEC
 70
    2
  9
$DIMALTU
 70
    2
  9
$DIMALTTD
 70
    3
  9
$DIMTXSTY
  7
STANDARD
  9
$DIMAUNIT
 70
    0
  9
$DIMADEC
 70
    0
  9
$DIMALTRND
 40
0
  9
$DIMAZIN
 70
    0
  9
$DIMDSEP
 70
   44
  9
$DIMATFIT
 70
    3
  9
$DIMFRAC
 70
    0
  9
$DIMLDRBLK
  1
STANDARD
  9
$DIMLUNIT
 70
    2
  9
$DIMLWD
 70
   -2
  9
$DIMLWE
 70
   -2
  9
$DIMTMOVE
 70
    0
  9
$DIMFXL
 40
1
  9
$DIMFXLON
 70
    0
  9
$DIMJOGANG
 40
0.7854
  9
$DIMTFILL
 70
    0
  9
$DIMTFILLCLR
 70
    0
  9
$DIMARCSYM
 70
    0
  9
$DIMLTYPE
  6

  9
$DIMLTEX1
  6

  9
$DIMLTEX2
  6

  9
$LUNITS
 70
    2
  9
$LUPREC
 70
    4
  9
$SKETCHINC
 40
1
  9
$FILLETRAD
 40
0
  9
$AUNITS
 70
    0
  9
$AUPREC
 70
    2
  9
$MENU
  1
.
  9
$ELEVATION
 40
0
  9
$PELEVATION
 40
0
  9
$THICKNESS
 40
0
  9
$LIMCHECK
 70
    0
  9
$CHAMFERA
 40
0
  9
$CHAMFERB
 40
0
  9
$CHAMFERC
 40
0
  9
$CHAMFERD
 40
0
  9
$SKPOLY
 70
    0
  9
$USRTIMER
 70
    1
  9
$ANGBASE
 50
0
  9
$ANGDIR
 70
    0
  9
$PDMODE
 70
   34
  9
$PDSIZE
 40
0
  9
$PLINEWID
 40
0
  9
$SPLFRAME
 70
    0
  9
$SPLINETYPE
 70
    2
  9
$SPLINESEGS
 70
    8
  9
$HANDSEED
  5
20000
  9
$SURFTAB1
 70
    6
  9
$SURFTAB2
 70
    6
  9
$SURFTYPE
 70
    6
  9
$SURFU
 70
    6
  9
$SURFV
 70
    6
  9
$UCSBASE
  2

  9
$UCSNAME
  2

  9
$UCSORG
 10
0
 20
0
 30
0
  9
$UCSXDIR
 10
1
 20
0
 30
0
  9
$UCSYDIR
 10
0
 20
1
 30
0
  9
$UCSORTHOREF
  2

  9
$UCSORTHOVIEW
 70
    0
  9
$UCSORGTOP
 10
0
 20
0
 30
0
  9
$UCSORGBOTTOM
 10
0
 20
0
 30
0
  9
$UCSORGLEFT
 10
0
 20
0
 30
0
  9
$UCSORGRIGHT
 10
0
 20
0
 30
0
  9
$UCSORGFRONT
 10
0
 20
0
 30
0
  9
$UCSORGBACK
 10
0
 20
0
 30
0
  9
$PUCSBASE
  2

  9
$PUCSNAME
  2

  9
$PUCSORG
 10
0
 20
0
 30
0
  9
$PUCSXDIR
 10
1
 20
0
 30
0
  9
$PUCSYDIR
 10
0
 20
1
 30
0
  9
$PUCSORTHOREF
  2

  9
$PUCSORTHOVIEW
 70
    0
  9
$PUCSORGTOP
 10
0
 20
0
 30
0
  9
$PUCSORGBOTTOM
 10
0
 20
0
 30
0
  9
$PUCSORGLEFT
 10
0
 20
0
 30
0
  9
$PUCSORGRIGHT
 10
0
 20
0
 30
0
  9
$PUCSORGFRONT
 10
0
 20
0
 30
0
  9
$PUCSORGBACK
 10
0
 20
0
 30
0
  9
$USERI1
 70
    0
  9
$USERI2
 70
    0
  9
$USERI3
 70
    0
  9
$USERI4
 70
    0
  9
$USERI5
 70
    0
  9
$USERR1
 40
0
  9
$USERR2
 40
0
  9
$USERR3
 40
0
  9
$USERR4
 40
0
  9
$USERR5
 40
0
  9
$WORLDVIEW
 70
    1
  9
$SHADEDGE
 70
    3
  9
$SHADEDIF
 70
   70
  9
$TILEMODE
 70
    1
  9
$MAXACTVP
 70
   64
  9
$PINSBASE
 10
0
 20
0
 30
0
  9
$PLIMCHECK
 70
    0
  9
$PEXTMIN
 10
0
 20
0
 30
0
  9
$PEXTMAX
 10
0
 20
0
 30
0
  9
$SNAPSTYLE
 70
    0
  9
$PLIMMIN
 10
0
 20
0
  9
$PLIMMAX
 10
210
 20
297
  9
$UNITMODE
 70
    0
  9
$VISRETAIN
 70
    1
  9
$PLINEGEN
 70
    0
  9
$PSLTSCALE
 70
    1
  9
$TREEDEPTH
 70
 3020
  9
$CMLSTYLE
  2
Standard
  9
$CMLJUST
 70
    0
  9
$CMLSCALE
 40
20
  9
$PROXYGRAPHICS
 70
    1
  9
$MEASUREMENT
 70
    1
  9
$CELWEIGHT
370
   -1
  9
$ENDCAPS
280
    0
  9
$JOINSTYLE
280
    0
  9
$LWDISPLAY
290
    0
  9
$INSUNITS
 70
    4
  9
$HYPERLINKBASE
  1

  9
$STYLESHEET
  1

  9
$XEDIT
290
    1
  9
$CEPSNTYPE
380
    0
  9
$PSTYLEMODE
290
    1
  9
$EXTNAMES
290
    1
  9
$PSVPSCALE
 40
1
  9
$OLESTARTUP
290
    0
  9
$SORTENTS
280
  127
  9
$INDEXCTL
280
    0
  9
$HIDETEXT
280
    1
  9
$XCLIPFRAME
290
    0
  9
$HALOGAP
280
    0
  9
$OBSCOLOR
 70
  257
  9
$OBSLTYPE
280
    0
  9
$INTERSECTIONDISPLAY
280
    0
  9
$INTERSECTIONCOLOR
 70
  257
  9
$DIMASSOC
280
    1
  9
$PROJECTNAME
  1

  9
$CAMERADISPLAY
290
    0
  9
$LENSLENGTH
 40
50
  9
$CAMERAHEIGHT
 40
0
  9
$STEPSPERSEC
 40
2
  9
$STEPSIZE
 40
50
  9
$3DDWFPREC
 40
2
  9
$PSOLWIDTH
 40
5
  9
$PSOLHEIGHT
 40
80
  9
$LOFTANG1
 40
1.570796326794897
  9
$LOFTANG2
 40
1.570796326794897
  9
$LOFTMAG1
 40
0
  9
$LOFTMAG2
 40
0
  9
$LOFTPARAM
 70
    7
  9
$LOFTNORMALS
280
    1
  9
$LATITUDE
 40
1
  9
$LONGITUDE
 40
1
  9
$NORTHDIRECTION
 40
0
  9
$TIMEZONE
 70
-8000
  9
$LIGHTGLYPHDISPLAY
280
    1
  9
$TILEMODELIGHTSYNCH
280
    1
  9
$SOLIDHIST
280
    1
  9
$SHOWHIST
280
    1
  9
$DWFFRAME
280
    2
  9
$DGNFRAME
280
    0
  9
$REALWORLDSCALE
290
    1
  9
$INTERFERECOLOR
 62
    1
  9
$CSHADOW
280
    0
  9
$SHADOWPLANELOCATION
 40
0
  0
ENDSEC
  0
SECTION
  2
CLASSES
  0
ENDSEC
  0
SECTION
  2
TABLES
  0
TABLE
  2
VPORT
  5
8
330
0
100
AcDbSymbolTable
 70
    1
  0
VPORT
  5
31
330
2
100
AcDbSymbolTableRecord
100
AcDbViewportTableRecord
  2
*ACTIVE
 70
    0
 10
0
 20
0
 11
1
 21
1
 12
13.88219095604497
 22
7.341893642107773
 13
0
 23
0
 14
10
 24
10
 15
10
 25
10
 16
0
 26
0
 36
1
 17
0
 27
0
 37
0
 40
31.80879974967785
 41
2.505154639175258
 42
50
 43
0
 44
0
 50
0
 51
0
 71
    0
 72
  100
 73
    1
 74
    3
 75
    0
 76
    1
 77
    0
 78
    0
281
    0
 65
    1
110
0
120
0
130
0
111
1
121
0
131
0
112
0
122
1
132
0
 79
    0
146
0
348
10020
 60
    7
 61
    5
292
1
282
    1
141
0
142
0
 63
  250
421
3358443
  0
ENDTAB
  0
TABLE
  2
LTYPE
  5
5
330
0
100
AcDbSymbolTable
 70
    4
  0
LTYPE
  5
14
330
5
100
AcDbSymbolTableRecord
100
AcDbLinetypeTableRecord
  2
ByBlock
 70
    0
  3

 72
   65
 73
    0
 40
0
  0
LTYPE
  5
15
330
5
100
AcDbSymbolTableRecord
100
AcDbLinetypeTableRecord
  2
ByLayer
 70
    0
  3

 72
   65
 73
    0
 40
0
  0
LTYPE
  5
16
330
5
100
AcDbSymbolTableRecord
100
AcDbLinetypeTableRecord
  2
Continuous
 70
    0
  3
Solid line
 72
   65
 73
    0
 40
0
  0
LTYPE
  5
32
330
5
100
AcDbSymbolTableRecord
100
AcDbLinetypeTableRecord
  2
DOT
 70
    0
  3
Dot . . . . . . . . . . . . . . . . . . . . . .
 72
   65
 73
    2
 40
6.35
 49
0
 74
    0
 49
-6.35
 74
    0
  0
LTYPE
  5
33
330
5
100
AcDbSymbolTableRecord
100
AcDbLinetypeTableRecord
  2
DOTTINY
 70
    0
  3
Dot (.15x) .....................................
 72
   65
 73
    2
 40
0.9525
 49
0
 74
    0
 49
-0.9525
 74
    0
  0
LTYPE
  5
34
330
5
100
AcDbSymbolTableRecord
100
AcDbLinetypeTableRecord
  2
DOT2
 70
    0
  3
Dot (.5x) .....................................
 72
   65
 73
    2
 40
3.175
 49
0
 74
    0
 49
-3.175
 74
    0
  0
LTYPE
  5
35
330
5
100
AcDbSymbolTableRecord
100
AcDbLinetypeTableRecord
  2
DOTX2
 70
    0
  3
Dot (2x) .  .  .  .  .  .  .  .  .  .  .  .  .
 72
   65
 73
    2
 40
12.7
 49
0
 74
    0
 49
-12.7
 74
    0
  0
LTYPE
  5
36
330
5
100
AcDbSymbolTableRecord
100
AcDbLinetypeTableRecord
  2
DASHED
 70
    0
  3
Dashed _ _ _ _ _ _ _ _ _ _ _ _ _ _ _ _ _
 72
   65
 73
    2
 40
19.05
 49
12.7
 74
    0
 49
-6.35
 74
    0
  0
LTYPE
  5
37
330
5
100
AcDbSymbolTableRecord
100
AcDbLinetypeTableRecord
  2
DASHEDTINY
 70
    0
  3
Dashed (.15x) _ _ _ _ _ _ _ _ _ _ _ _ _ _ _ _ _
 72
   65
 73
    2
 40
2.8575
 49
1.905
 74
    0
 49
-0.9525
 74
    0
  0
LTYPE
  5
38
330
5
100
AcDbSymbolTableRecord
100
AcDbLinetypeTableRecord
  2
DASHED2
 70
    0
  3
Dashed (.5x) _ _ _ _ _ _ _ _ _ _ _ _ _ _ _ _ _
 72
   65
 73
    2
 40
9.524999999999999
 49
6.35
 74
    0
 49
-3.175
 74
    0
  0
LTYPE
  5
39
330
5
100
AcDbSymbolTableRecord
100
AcDbLinetypeTableRecord
  2
DASHEDX2
 70
    0
  3
Dashed (2x) ____  ____  ____  ____  ____  ___
 72
   65
 73
    2
 40
38.09999999999999
 49
25.4
 74
    0
 49
-12.7
 74
    0
  0
LTYPE
  5
3A
330
5
100
AcDbSymbolTableRecord
100
AcDbLinetypeTableRecord
  2
DASHDOT
 70
    0
  3
Dash dot __ . __ . __ . __ . __ . __ . __ . __
 72
   65
 73
    4
 40
25.4
 49
12.7
 74
    0
 49
-6.35
 74
    0
 49
0
 74
    0
 49
-6.35
 74
    0
  0
LTYPE
  5
3B
330
5
100
AcDbSymbolTableRecord
100
AcDbLinetypeTableRecord
  2
DASHDOTTINY
 70
    0
  3
Dash dot (.15x) _._._._._._._._._._._._._._._.
 72
   65
 73
    4
 40
3.81
 49
1.905
 74
    0
 49
-0.9525
 74
    0
 49
0
 74
    0
 49
-0.9525
 74
    0
  0
LTYPE
  5
3C
330
5
100
AcDbSymbolTableRecord
100
AcDbLinetypeTableRecord
  2
DASHDOT2
 70
    0
  3
Dash dot (.5x) _._._._._._._._._._._._._._._.
 72
   65
 73
    4
 40
12.7
 49
6.35
 74
    0
 49
-3.175
 74
    0
 49
0
 74
    0
 49
-3.175
 74
    0
  0
LTYPE
  5
3D
330
5
100
AcDbSymbolTableRecord
100
AcDbLinetypeTableRecord
  2
DASHDOTX2
 70
    0
  3
Dash dot (2x) ____  .  ____  .  ____  .  ___
 72
   65
 73
    4
 40
50.8
 49
25.4
 74
    0
 49
-12.7
 74
    0
 49
0
 74
    0
 49
-12.7
 74
    0
  0
LTYPE
  5
3E
330
5
100
AcDbSymbolTableRecord
100
AcDbLinetypeTableRecord
  2
DIVIDE
 70
    0
  3
Divide ____ . . ____ . . ____ . . ____ . . ____
 72
   65
 73
    6
 40
31.75
 49
12.7
 74
    0
 49
-6.35
 74
    0
 49
0
 74
    0
 49
-6.35
 74
    0
 49
0
 74
    0
 49
-6.35
 74
    0
  0
LTYPE
  5
3F
330
5
100
AcDbSymbolTableRecord
100
AcDbLinetypeTableRecord
  2
DIVIDETINY
 70
    0
  3
Divide (.15x) __..__..__..__..__..__..__..__.._
 72
   65
 73
    6
 40
4.7625
 49
1.905
 74
    0
 49
-0.9525
 74
    0
 49
0
 74
    0
 49
-0.9525
 74
    0
 49
0
 74
    0
 49
-0.9525
 74
    0
  0
LTYPE
  5
40
330
5
100
AcDbSymbolTableRecord
100
AcDbLinetypeTableRecord
  2
DIVIDE2
 70
    0
  3
Divide (.5x) __..__..__..__..__..__..__..__.._
 72
   65
 73
    6
 40
15.875
 49
6.35
 74
    0
 49
-3.175
 74
    0
 49
0
 74
    0
 49
-3.175
 74
    0
 49
0
 74
    0
 49
-3.175
 74
    0
  0
LTYPE
  5
41
330
5
100
AcDbSymbolTableRecord
100
AcDbLinetypeTableRecord
  2
DIVIDEX2
 70
    0
  3
Divide (2x) ________  .  .  ________  .  .  _
 72
   65
 73
    6
 40
63.5
 49
25.4
 74
    0
 49
-12.7
 74
    0
 49
0
 74
    0
 49
-12.7
 74
    0
 49
0
 74
    0
 49
-12.7
 74
    0
  0
LTYPE
  5
42
330
5
100
AcDbSymbolTableRecord
100
AcDbLinetypeTableRecord
  2
BORDER
 70
    0
  3
Border __ __ . __ __ . __ __ . __ __ . __ __ .
 72
   65
 73
    6
 40
44.45
 49
12.7
 74
    0
 49
-6.35
 74
    0
 49
12.7
 74
    0
 49
-6.35
 74
    0
 49
0
 74
    0
 49
-6.35
 74
    0
  0
LTYPE
  5
43
330
5
100
AcDbSymbolTableRecord
100
AcDbLinetypeTableRecord
  2
BORDERTINY
 70
    0
  3
Border (.15x) __.__.__.__.__.__.__.__.__.__.__.
 72
   65
 73
    6
 40
6.6675
 49
1.905
 74
    0
 49
-0.9525
 74
    0
 49
1.905
 74
    0
 49
-0.9525
 74
    0
 49
0
 74
    0
 49
-0.9525
 74
    0
  0
LTYPE
  5
44
330
5
100
AcDbSymbolTableRecord
100
AcDbLinetypeTableRecord
  2
BORDER2
 70
    0
  3
Border (.5x) __.__.__.__.__.__.__.__.__.__.__.
 72
   65
 73
    6
 40
22.225
 49
6.35
 74
    0
 49
-3.175
 74
    0
 49
6.35
 74
    0
 49
-3.175
 74
    0
 49
0
 74
    0
 49
-3.175
 74
    0
  0
LTYPE
  5
45
330
5
100
AcDbSymbolTableRecord
100
AcDbLinetypeTableRecord
  2
BORDERX2
 70
    0
  3
Border (2x) ____  ____  .  ____  ____  .  ___
 72
   65
 73
    6
 40
88.89999999999999
 49
25.4
 74
    0
 49
-12.7
 74
    0
 49
25.4
 74
    0
 49
-12.7
 74
    0
 49
0
 74
    0
 49
-12.7
 74
    0
  0
LTYPE
  5
46
330
5
100
AcDbSymbolTableRecord
100
AcDbLinetypeTableRecord
  2
CENTER
 70
    0
  3
Center ____ _ ____ _ ____ _ ____ _ ____ _ ____
 72
   65
 73
    4
 40
50.8
 49
31.75
 74
    0
 49
-6.35
 74
    0
 49
6.35
 74
    0
 49
-6.35
 74
    0
  0
LTYPE
  5
47
330
5
100
AcDbSymbolTableRecord
100
AcDbLinetypeTableRecord
  2
CENTERTINY
 70
    0
  3
Center (.15x) ___ _ ___ _ ___ _ ___ _ ___ _ ___
 72
   65
 73
    4
 40
7.619999999999999
 49
4.7625
 74
    0
 49
-0.9525
 74
    0
 49
0.9525
 74
    0
 49
-0.9525
 74
    0
  0
LTYPE
  5
48
330
5
100
AcDbSymbolTableRecord
100
AcDbLinetypeTableRecord
  2
CENTER2
 70
    0
  3
Center (.5x) ___ _ ___ _ ___ _ ___ _ ___ _ ___
 72
   65
 73
    4
 40
28.575
 49
19.05
 74
    0
 49
-3.175
 74
    0
 49
3.175
 74
    0
 49
-3.175
 74
    0
  0
LTYPE
  5
49
330
5
100
AcDbSymbolTableRecord
100
AcDbLinetypeTableRecord
  2
CENTERX2
 70
    0
  3
Center (2x) ________  __  ________  __  _____
 72
   65
 73
    4
 40
101.6
 49
63.5
 74
    0
 49
-12.7
 74
    0
 49
12.7
 74
    0
 49
-12.7
 74
    0
  0
ENDTAB
  0
TABLE
  2
LAYER
  5
2
330
0
100
AcDbSymbolTable
 70
    1
  0
LAYER
  5
10
330
2
100
AcDbSymbolTableRecord
100
AcDbLayerTableRecord
  2
0
 70
    0
 62
    7
  6
CONTINUOUS
370
    0
390
F
  0
LAYER
  5
4A
330
2
100
AcDbSymbolTableRecord
100
AcDbLayerTableRecord
  2
gear_M1.0000_action_lines
 70
    0
 62
    7
  6
CONTINUOUS
370
    0
390
F
  0
LAYER
  5
4B
330
2
100
AcDbSymbolTableRecord
100
AcDbLayerTableRecord
  2
gear_M1.0000_addendums
 70
    0
 62
    7
  6
CONTINUOUS
370
    0
390
F
  0
LAYER
  5
4C
330
2
100
AcDbSymbolTableRecord
100
AcDbLayerTableRecord
  2
gear_M1.0000_base_lines
 70
    0
 62
    7
  6
CONTINUOUS
370
    0
390
F
  0
LAYER
  5
4D
330
2
100
AcDbSymbolTableRecord
100
AcDbLayerTableRecord
  2
gear_M1.0000_dedendums
 70
    0
 62
    7
  6
CONTINUOUS
370
    0
390
F
  0
LAYER
  5
4E
330
2
100
AcDbSymbolTableRecord
100
AcDbLayerTableRecord
  2
gear_M1.0000_pitch_circles
 70
    0
 62
    7
  6
CONTINUOUS
370
    0
390
F
  0
LAYER
  5
4F
330
2
100
AcDbSymbolTableRecord
100
AcDbLayerTableRecord
  2
gear_M1.0000_shapes
 70
    0
 62
    7
  6
CONTINUOUS
370
    0
390
F
  0
ENDTAB
  0
TABLE
  2
STYLE
  5
3
330
0
100
AcDbSymbolTable
 70
    3
  0
STYLE
  5
50
330
2
100
AcDbSymbolTableRecord
100
AcDbTextStyleTableRecord
  2
Standard
 70
    0
 40
0
 41
1
 50
0
 71
    0
 42
1
  3
txt
  4

  0
ENDTAB
  0
TABLE
  2
VIEW
  5
6
330
0
100
AcDbSymbolTable
 70
    0
  0
ENDTAB
  0
TABLE
  2
UCS
  5
7
330
0
100
AcDbSymbolTable
 70
    0
  0
ENDTAB
  0
TABLE
  2
APPID
  5
9
330
0
100
AcDbSymbolTable
 70
    1
  0
APPID
  5
12
330
9
100
AcDbSymbolTableRecord
100
AcDbRegAppTableRecord
  2
ACAD
 70
    0
  0
APPID
  5
51
330
9
100
AcDbSymbolTableRecord
100
AcDbRegAppTableRecord
  2
LibreCad
 70
    0
  0
ENDTAB
  0
TABLE
  2
DIMSTYLE
  5
A
330
0
100
AcDbSymbolTable
 70
    1
100
AcDbDimStyleTable
 71
    1
  0
DIMSTYLE
105
52
330
A
100
AcDbSymbolTableRecord
100
AcDbDimStyleTableRecord
  2
Standard
 70
    0
 40
1
 41
2.5
 42
0.625
 43
0.38
 44
1.25
 45
0
 46
0
 47
0
 48
0
 49
1
140
2.5
141
0.09
142
2.5
143
25.4
144
1
145
0
146
1
147
0.625
148
0
 71
    0
 72
    0
 73
    0
 74
    1
 75
    0
 76
    0
 77
    0
 78
    1
 79
    0
170
    0
171
    2
172
    0
173
    0
174
    0
175
    0
176
    0
177
    0
178
    0
179
    0
271
    2
272
    4
273
    2
274
    2
275
    0
276
    0
277
    2
278
    0
279
    0
280
    0
281
    0
282
    0
283
    1
284
    0
285
    0
286
    0
288
    0
289
    3
340
standard
341

371
   -2
372
   -2
  0
ENDTAB
  0
TABLE
  2
BLOCK_RECORD
  5
1
330
0
100
AcDbSymbolTable
 70
    2
  0
BLOCK_RECORD
  5
1F
330
1
100
AcDbSymbolTableRecord
100
AcDbBlockTableRecord
  2
*Model_Space
 70
    0
280
    1
281
    0
  0
BLOCK_RECORD
  5
1E
330
1
100
AcDbSymbolTableRecord
100
AcDbBlockTableRecord
  2
*Paper_Space
 70
    0
280
    1
281
    0
  0
ENDTAB
  0
ENDSEC
  0
SECTION
  2
BLOCKS
  0
BLOCK
  5
20
330
1F
100
AcDbEntity
  8
0
100
AcDbBlockBegin
  2
*Model_Space
 70
    0
 10
0
 20
0
 30
0
  3
*Model_Space
  1

  0
ENDBLK
  5
21
330
1F
100
AcDbEntity
  8
0
100
AcDbBlockEnd
  0
BLOCK
  5
1C
330
1B
100
AcDbEntity
  8
0
100
AcDbBlockBegin
  2
*Paper_Space
 70
    0
 10
0
 20
0
 30
0
  3
*Paper_Space
  1

  0
ENDBLK
  5
1D
330
1F
100
AcDbEntity
  8
0
100
AcDbBlockEnd
  0
ENDSEC
  0
SECTION
  2
ENTITIES
  0
LWPOLYLINE
  5
53
100
AcDbEntity
  8
gear_M1.0000_shapes
  6
ByLayer
 62
  256
370
   -1
100
AcDbPolyline
 90
  800
 70
    1
 43
0
 10
2.732230867584173
 20
-0.3121129382454994
 10
2.74276933700629
 20
-0.2606110071860467
 10
2.762400235279951
 20
-0.2108361270727986
 10
2.790984931504898
 20
-0.1634585877481594
 10
2.828344655668072
 20
-0.1191395743194012
 10
2.874261039973571
 20
-0.07852898382900375
 10
2.928476772488724
 20
-0.04226327221262371
 10
2.990696361480584
 20
-0.01096333711501823
 10
3.060587008547998
 20
0.01476755795039503
 10
3.137779588389454
 20
0.0343458127100601
 10
3.221869732786956
 20
0.04720946722854635
 10
3.312419016131691
 20
0.05282012184047669
 10
3.408956239568745
 20
0.05066479489430953
 10
3.510978810596377
 20
0.0402577134321882
 10
3.617954214720636
 20
0.02114203208751619
 10
3.729321575539194
 20
-0.00710852434959891
 10
3.844493299409472
 20
-0.04488809906966753
 10
3.852017639726955
 20
-0.04332444742584196
 10
3.85984500670773
 20
-0.04162171874204301
 10
3.867973436348323
 20
-0.03977414539593432
 10
3.876400883614488
 20
-0.03777598452669621
 10
3.885125222734326
 20
-0.0356215190429818
 10
3.894144247503133
 20
-0.03330505862754445
 10
3.903455671599947
 20
-0.03082094073839597
 10
3.913057128915758
 20
-0.02816353160637759
 10
3.922946173893338
 20
-0.02532722722899927
 10
3.933120281878649
 20
-0.02230645436042829
 10
3.943576849483794
 20
-0.0190956714974935
 10
3.954313194961456
 20
-0.01568936986157488
 10
3.965326558590791
 20
-0.01208207437625455
 10
3.976614103074716
 20
-0.008268344640595893
 10
3.988172913948557
 20
-0.0042427758979268
 10
4.000000000000001
 20
-1.249000902703301e-16
 10
4.042792517772051
 20
0.01636815679769554
 10
4.0886044298487
 20
0.03559632567311553
 10
4.13729264329674
 20
0.05789348262383381
 10
4.188703818519514
 20
0.08346225083267894
 10
4.242674633248363
 20
0.112498460122076
 10
4.299032064193241
 20
0.1451907169240642
 10
4.357593685945838
 20
0.1817199854435825
 10
4.418167986703319
 20
0.2222591806772129
 10
4.480554700356085
 20
0.2669727739332886
 10
4.544545154458972
 20
0.3160164114820456
 10
4.609922633581814
 20
0.3695365469464373
 10
4.676462757512612
 20
0.4276700880252853
 10
4.743933873764486
 20
0.4905440581206863
 10
4.812097463816223
 20
0.5582752734210242
 10
4.880708562495731
 20
0.6309700359696043
 10
4.949516189895918
 20
0.7087238432268315
 10
4.903926402016152
 20
0.9754516100806412
 10
4.843973576603108
 20
1.239322391135944
 10
4.750648524126762
 20
1.284826003209322
 10
4.659441053106598
 20
1.325730875707709
 10
4.570546493445915
 20
1.362221282632481
 10
4.48415048342259
 20
1.394489178378577
 10
4.400428681796572
 20
1.422733764117893
 10
4.319546497807637
 20
1.44716104374057
 10
4.241658839433049
 20
1.467983370057075
 10
4.166909880248003
 20
1.485418981976779
 10
4.09543284520466
 20
1.499691533390621
 10
4.027349815617932
 20
1.511029614496264
 10
3.962771553618296
 20
1.519666266313959
 10
3.901797346303616
 20
1.525838489150171
 10
3.844514869793435
 20
1.529786745773674
 10
3.791000073360366
 20
1.531754460075614
 10
3.741317083784203
 20
1.531987511990585
 10
3.695518130045148
 20
1.53073372946036
 10
3.682967687269595
 20
1.530127513388442
 10
3.670748220019418
 20
1.529423288537251
 10
3.658860437513054
 20
1.528627159116474
 10
3.64730496405393
 20
1.527745233787523
 10
3.636082339011443
 20
1.526783624612059
 10
3.625193016814162
 20
1.525748446000567
 10
3.614637366955234
 20
1.524645813661134
 10
3.604415674009997
 20
1.523481843548533
 10
3.5945281376658
 20
1.522262650813792
 10
3.584974872764001
 20
1.520994348754345
 10
3.575755909354171
 20
1.519683047764927
 10
3.566871192760445
 20
1.518334854289337
 10
3.55832058366006
 20
1.516955869773199
 10
3.550103858174023
 20
1.515552189617882
 10
3.542220707969927
 20
1.51412990213568
 10
3.534670740376873
 20
1.51269508750641
 10
3.442723559296251
 20
1.433717001073476
 10
3.350644553949765
 20
1.364998446307683
 10
3.259127422146214
 20
1.306400144734419
 10
3.168853474574434
 20
1.257742907518822
 10
3.080489517629099
 20
1.218808449051501
 10
2.994685783498624
 20
1.189340307462891
 10
2.912073912739961
 20
1.169044869499704
 10
2.83326499443155
 20
1.157592496947606
 10
2.758847668850537
 20
1.154618751541762
 10
2.689386297463737
 20
1.159725715071621
 10
2.625419204854362
 20
1.172483401158865
 10
2.56745699702835
 20
1.192431254968318
 10
2.515980960355775
 20
1.219079736901264
 10
2.471441545204729
 20
1.251911986119571
 10
2.434256938117583
 20
1.290385559557629
 10
2.404811726163232
 20
1.333934241897935
 10
2.286541433831999
 20
1.527818140803906
 10
2.152676149365424
 20
1.711281799106522
 10
2.123710607860788
 20
1.755150986994569
 10
2.102395593890052
 20
1.804228283545483
 10
2.089107047096485
 20
1.857941695416685
 10
2.084186086464552
 20
1.915697284646697
 10
2.087937849250788
 20
1.976881095280433
 10
2.100630430750751
 20
2.040861137997392
 10
2.122493927691319
 20
2.106989427654391
 10
2.15371958778745
 20
2.174604068524029
 10
2.194459067746271
 20
2.243031381891563
 10
2.244823801739837
 20
2.311588070566855
 10
2.30488448210149
 20
2.379583414774491
 10
2.374670653730061
 20
2.446321493804444
 10
2.454170423412013
 20
2.511103427737942
 10
2.543330284994266
 20
2.573229633508558
 10
2.642055061060895
 20
2.632002089517232
 10
2.750207961485418
 20
2.686726602991946
 10
2.754422804867102
 20
2.693152783735156
 10
2.758753578139209
 20
2.699891579004933
 10
2.763194814216697
 20
2.706945678365967
 10
2.767741006226155
 20
2.714317696576504
 10
2.772386608425796
 20
2.722010173082879
 10
2.777126037131403
 20
2.730025571524698
 10
2.78195367164808
 20
2.738366279250743
 10
2.786863855207726
 20
2.747034606845663
 10
2.791850895912079
 20
2.756032787667522
 10
2.796909067681225
 20
2.765362977396251
 10
2.80203261120746
 20
2.775027253593083
 10
2.807215734914352
 20
2.785027615271024
 10
2.812452615920914
 20
2.795365982476414
 10
2.817737401010746
 20
2.806044195881639
 10
2.823064207606017
 20
2.817064016389059
 10
2.828427124746191
 20
2.82842712474619
 10
2.847111969579678
 20
2.870260038914028
 10
2.865909514666589
 20
2.916250321204158
 10
2.884570809678522
 20
2.966444557978159
 10
2.902844150920254
 20
3.020877597994013
 10
2.920475579512702
 20
3.07957242756343
 10
2.9372093846271
 20
3.142540065631784
 10
2.952788611003707
 20
3.209779478972262
 10
2.96695556998141
 20
3.281277517657056
 10
2.979452353258636
 20
3.357008870939458
 10
2.990021348601212
 20
3.436936043651598
 10
2.998405756708962
 20
3.521009353193135
 10
3.004350108450182
 20
3.609166947156836
 10
3.00760078167153
 20
3.70133484160734
 10
3.007906516790259
 20
3.797426979999818
 10
3.005018930376351
 20
3.897345312695605
 10
2.998693025933723
 20
4.000979897002291
 10
2.777851165098012
 20
4.157348061512725
 10
2.548873297055959
 20
4.301539830753064
 10
2.450706606929777
 20
4.267724965958018
 10
2.357289072949363
 20
4.232155657431965
 10
2.268628512817939
 20
4.195100325670066
 10
2.1847204603663
 20
4.156825969011798
 10
2.105548268595313
 20
4.11759765345696
 10
2.031083232752424
 20
4.077678007748341
 10
1.961284733206532
 20
4.037326724479408
 10
1.896100397857589
 20
3.996800067975586
 10
1.835466283789772
 20
3.956350389686891
 10
1.779307077849829
 20
3.916225651817834
 10
1.727536315805606
 20
3.876668959907689
 10
1.680056619713441
 20
3.837918105060484
 10
1.63675995309759
 20
3.80020511650932
 10
1.597527893519609
 20
3.76375582518402
 10
1.562231922091238
 20
3.728789438934538
 10
1.530733729460359
 20
3.695518130045148
 10
1.522287885762189
 20
3.686214967356344
 10
1.514145379774859
 20
3.677076537033499
 10
1.506302396663473
 20
3.668107656897845
 10
1.498755058401307
 20
3.659313087874476
 10
1.491499424499872
 20
3.650697533235397
 10
1.484531492747574
 20
3.64226563785125
 10
1.477847199956864
 20
3.634021987451802
 10
1.471442422719799
 20
3.6259711078953
 10
1.465312978171897
 20
3.61811746444678
 10
1.459454624764192
 20
3.61046546106542
 10
1.453863063043384
 20
3.603019439701024
 10
1.448533936439981
 20
3.595783679599738
 10
1.443462832064336
 20
3.588762396619068
 10
1.438645281510452
 20
3.581959742552302
 10
1.434076761667486
 20
3.57537980446241
 10
1.429752695538801
 20
3.569026604025522
 10
1.420582160767571
 20
3.448164188290561
 10
1.404063827750389
 20
3.334463143136918
 10
1.380786699665825
 20
3.228315502235414
 10
1.351359241562291
 20
3.130076319353979
 10
1.316407307997838
 20
3.040062746581388
 10
1.276572028489323
 20
2.958553221580329
 10
1.232507656280286
 20
2.885786765749452
 10
1.184879386018695
 20
2.821962394903335
 10
1.134361146004589
 20
2.767238643805239
 10
1.081633370723229
 20
2.721733205610351
 10
1.027380759421812
 20
2.685522686998013
 10
0.9722900265167136
 20
2.658642479490478
 10
0.9170476496338147
 20
2.641086747173806
 10
0.862337621086556
 20
2.632808530754291
 10
0.8088392085849482
 20
2.633719967601742
 10
0.7572247309439826
 20
2.643692627149914
 10
0.536498385544353
 20
2.697159521108883
 10
0.3121129382454996
 20
2.732230867584173
 10
0.2606110071860469
 20
2.74276933700629
 10
0.2108361270727988
 20
2.762400235279951
 10
0.1634585877481596
 20
2.790984931504898
 10
0.1191395743194014
 20
2.828344655668072
 10
0.07852898382900393
 20
2.874261039973571
 10
0.0422632722126239
 20
2.928476772488724
 10
0.01096333711501842
 20
2.990696361480584
 10
-0.01476755795039484
 20
3.060587008547998
 10
-0.0343458127100599
 20
3.137779588389454
 10
-0.04720946722854616
 20
3.221869732786956
 10
-0.05282012184047648
 20
3.312419016131691
 10
-0.05066479489430932
 20
3.408956239568745
 10
-0.04025771343218799
 20
3.510978810596377
 10
-0.02114203208751597
 20
3.617954214720636
 10
0.007108524349599138
 20
3.729321575539194
 10
0.04488809906966777
 20
3.844493299409472
 10
0.0433244474258422
 20
3.852017639726955
 10
0.04162171874204325
 20
3.85984500670773
 10
0.03977414539593455
 20
3.867973436348323
 10
0.03777598452669645
 20
3.876400883614488
 10
0.03562151904298204
 20
3.885125222734326
 10
0.03330505862754468
 20
3.894144247503133
 10
0.03082094073839621
 20
3.903455671599947
 10
0.02816353160637783
 20
3.913057128915758
 10
0.02532722722899951
 20
3.922946173893338
 10
0.02230645436042853
 20
3.933120281878649
 10
0.01909567149749374
 20
3.943576849483794
 10
0.01568936986157512
 20
3.954313194961456
 10
0.0120820743762548
 20
3.965326558590791
 10
0.008268344640596136
 20
3.976614103074716
 10
0.004242775897927044
 20
3.988172913948557
 10
3.698294500998008e-16
 20
4.000000000000001
 10
-0.01636815679769529
 20
4.042792517772051
 10
-0.03559632567311528
 20
4.0886044298487
 10
-0.05789348262383355
 20
4.13729264329674
 10
-0.08346225083267869
 20
4.188703818519514
 10
-0.1124984601220757
 20
4.242674633248363
 10
-0.145190716924064
 20
4.299032064193241
 10
-0.1817199854435822
 20
4.357593685945838
 10
-0.2222591806772126
 20
4.418167986703319
 10
-0.2669727739332883
 20
4.480554700356085
 10
-0.3160164114820453
 20
4.544545154458972
 10
-0.369536546946437
 20
4.609922633581814
 10
-0.427670088025285
 20
4.676462757512612
 10
-0.490544058120686
 20
4.743933873764486
 10
-0.5582752734210239
 20
4.812097463816223
 10
-0.630970035969604
 20
4.880708562495731
 10
-0.7087238432268311
 20
4.949516189895918
 10
-0.9754516100806409
 20
4.903926402016152
 10
-1.239322391135943
 20
4.843973576603108
 10
-1.284826003209322
 20
4.750648524126762
 10
-1.325730875707709
 20
4.659441053106598
 10
-1.362221282632481
 20
4.570546493445915
 10
-1.394489178378577
 20
4.48415048342259
 10
-1.422733764117893
 20
4.400428681796572
 10
-1.44716104374057
 20
4.319546497807637
 10
-1.467983370057075
 20
4.241658839433049
 10
-1.485418981976779
 20
4.166909880248003
 10
-1.499691533390621
 20
4.09543284520466
 10
-1.511029614496263
 20
4.027349815617932
 10
-1.519666266313959
 20
3.962771553618296
 10
-1.52583848915017
 20
3.901797346303616
 10
-1.529786745773673
 20
3.844514869793435
 10
-1.531754460075614
 20
3.791000073360366
 10
-1.531987511990585
 20
3.741317083784203
 10
-1.53073372946036
 20
3.695518130045148
 10
-1.530127513388442
 20
3.682967687269595
 10
-1.529423288537251
 20
3.670748220019418
 10
-1.528627159116474
 20
3.658860437513054
 10
-1.527745233787523
 20
3.64730496405393
 10
-1.526783624612059
 20
3.636082339011443
 10
-1.525748446000567
 20
3.625193016814162
 10
-1.524645813661134
 20
3.614637366955234
 10
-1.523481843548532
 20
3.604415674009997
 10
-1.522262650813792
 20
3.5945281376658
 10
-1.520994348754345
 20
3.584974872764001
 10
-1.519683047764927
 20
3.575755909354171
 10
-1.518334854289337
 20
3.566871192760445
 10
-1.516955869773199
 20
3.55832058366006
 10
-1.515552189617882
 20
3.550103858174023
 10
-1.514129902135679
 20
3.542220707969927
 10
-1.51269508750641
 20
3.534670740376873
 10
-1.433717001073476
 20
3.442723559296251
 10
-1.364998446307683
 20
3.350644553949765
 10
-1.306400144734418
 20
3.259127422146214
 10
-1.257742907518822
 20
3.168853474574434
 10
-1.2188084490515
 20
3.080489517629099
 10
-1.18934030746289
 20
2.994685783498624
 10
-1.169044869499704
 20
2.912073912739961
 10
-1.157592496947606
 20
2.83326499443155
 10
-1.154618751541762
 20
2.758847668850537
 10
-1.159725715071621
 20
2.689386297463737
 10
-1.172483401158865
 20
2.625419204854362
 10
-1.192431254968318
 20
2.56745699702835
 10
-1.219079736901264
 20
2.515980960355775
 10
-1.25191198611957
 20
2.471441545204729
 10
-1.290385559557629
 20
2.434256938117583
 10
-1.333934241897934
 20
2.404811726163232
 10
-1.527818140803906
 20
2.286541433831999
 10
-1.711281799106522
 20
2.152676149365424
 10
-1.755150986994569
 20
2.123710607860788
 10
-1.804228283545483
 20
2.102395593890052
 10
-1.857941695416685
 20
2.089107047096485
 10
-1.915697284646697
 20
2.084186086464552
 10
-1.976881095280433
 20
2.087937849250788
 10
-2.040861137997392
 20
2.100630430750751
 10
-2.106989427654391
 20
2.122493927691319
 10
-2.174604068524029
 20
2.15371958778745
 10
-2.243031381891563
 20
2.194459067746271
 10
-2.311588070566855
 20
2.244823801739837
 10
-2.379583414774491
 20
2.30488448210149
 10
-2.446321493804444
 20
2.374670653730061
 10
-2.511103427737942
 20
2.454170423412013
 10
-2.573229633508558
 20
2.543330284994266
 10
-2.632002089517232
 20
2.642055061060895
 10
-2.686726602991946
 20
2.750207961485418
 10
-2.693152783735156
 20
2.754422804867102
 10
-2.699891579004933
 20
2.758753578139209
 10
-2.706945678365967
 20
2.763194814216697
 10
-2.714317696576504
 20
2.767741006226155
 10
-2.722010173082879
 20
2.772386608425796
 10
-2.730025571524698
 20
2.777126037131403
 10
-2.738366279250743
 20
2.78195367164808
 10
-2.747034606845663
 20
2.786863855207726
 10
-2.756032787667522
 20
2.791850895912079
 10
-2.765362977396251
 20
2.796909067681225
 10
-2.775027253593083
 20
2.80203261120746
 10
-2.785027615271024
 20
2.807215734914352
 10
-2.795365982476414
 20
2.812452615920914
 10
-2.806044195881639
 20
2.817737401010746
 10
-2.817064016389059
 20
2.823064207606017
 10
-2.82842712474619
 20
2.828427124746191
 10
-2.870260038914028
 20
2.847111969579678
 10
-2.916250321204158
 20
2.865909514666589
 10
-2.966444557978159
 20
2.884570809678522
 10
-3.020877597994013
 20
2.902844150920254
 10
-3.07957242756343
 20
2.920475579512702
 10
-3.142540065631784
 20
2.9372093846271
 10
-3.209779478972262
 20
2.952788611003707
 10
-3.281277517657056
 20
2.96695556998141
 10
-3.357008870939458
 20
2.979452353258636
 10
-3.436936043651598
 20
2.990021348601212
 10
-3.521009353193135
 20
2.998405756708962
 10
-3.609166947156836
 20
3.004350108450182
 10
-3.70133484160734
 20
3.00760078167153
 10
-3.797426979999818
 20
3.007906516790259
 10
-3.897345312695605
 20
3.005018930376351
 10
-4.000979897002291
 20
2.998693025933723
 10
-4.157348061512725
 20
2.777851165098012
 10
-4.301539830753064
 20
2.548873297055959
 10
-4.267724965958018
 20
2.450706606929777
 10
-4.232155657431965
 20
2.357289072949363
 10
-4.195100325670066
 20
2.268628512817939
 10
-4.156825969011798
 20
2.1847204603663
 10
-4.11759765345696
 20
2.105548268595313
 10
-4.077678007748341
 20
2.031083232752424
 10
-4.037326724479408
 20
1.961284733206532
 10
-3.996800067975586
 20
1.896100397857589
 10
-3.956350389686891
 20
1.835466283789772
 10
-3.916225651817834
 20
1.779307077849829
 10
-3.876668959907689
 20
1.727536315805606
 10
-3.837918105060484
 20
1.680056619713441
 10
-3.80020511650932
 20
1.63675995309759
 10
-3.76375582518402
 20
1.597527893519609
 10
-3.728789438934538
 20
1.562231922091238
 10
-3.695518130045148
 20
1.530733729460359
 10
-3.686214967356344
 20
1.522287885762189
 10
-3.677076537033499
 20
1.514145379774859
 10
-3.668107656897845
 20
1.506302396663473
 10
-3.659313087874476
 20
1.498755058401307
 10
-3.650697533235397
 20
1.491499424499872
 10
-3.64226563785125
 20
1.484531492747574
 10
-3.634021987451802
 20
1.477847199956864
 10
-3.6259711078953
 20
1.471442422719799
 10
-3.61811746444678
 20
1.465312978171897
 10
-3.61046546106542
 20
1.459454624764192
 10
-3.603019439701024
 20
1.453863063043384
 10
-3.595783679599738
 20
1.448533936439981
 10
-3.588762396619068
 20
1.443462832064336
 10
-3.581959742552302
 20
1.438645281510452
 10
-3.57537980446241
 20
1.434076761667486
 10
-3.569026604025522
 20
1.429752695538801
 10
-3.448164188290561
 20
1.420582160767571
 10
-3.334463143136918
 20
1.404063827750389
 10
-3.228315502235414
 20
1.380786699665825
 10
-3.130076319353979
 20
1.351359241562291
 10
-3.040062746581388
 20
1.316407307997838
 10
-2.958553221580329
 20
1.276572028489323
 10
-2.885786765749452
 20
1.232507656280286
 10
-2.821962394903335
 20
1.184879386018695
 10
-2.767238643805239
 20
1.134361146004589
 10
-2.721733205610351
 20
1.081633370723229
 10
-2.685522686998013
 20
1.027380759421812
 10
-2.658642479490478
 20
0.9722900265167136
 10
-2.641086747173806
 20
0.9170476496338147
 10
-2.632808530754291
 20
0.862337621086556
 10
-2.633719967601742
 20
0.8088392085849482
 10
-2.643692627149914
 20
0.7572247309439826
 10
-2.697159521108883
 20
0.536498385544353
 10
-2.732230867584173
 20
0.3121129382454997
 10
-2.74276933700629
 20
0.260611007186047
 10
-2.762400235279951
 20
0.2108361270727989
 10
-2.790984931504898
 20
0.1634585877481597
 10
-2.828344655668072
 20
0.1191395743194016
 10
-2.874261039973571
 20
0.0785289838290041
 10
-2.928476772488724
 20
0.04226327221262408
 10
-2.990696361480584
 20
0.0109633371150186
 10
-3.060587008547998
 20
-0.01476755795039465
 10
-3.137779588389454
 20
-0.03434581271005972
 10
-3.221869732786956
 20
-0.04720946722854596
 10
-3.312419016131691
 20
-0.05282012184047628
 10
-3.408956239568745
 20
-0.05066479489430911
 10
-3.510978810596377
 20
-0.04025771343218777
 10
-3.617954214720636
 20
-0.02114203208751575
 10
-3.729321575539194
 20
0.007108524349599367
 10
-3.844493299409472
 20
0.044888099069668
 10
-3.852017639726955
 20
0.04332444742584243
 10
-3.85984500670773
 20
0.04162171874204348
 10
-3.867973436348323
 20
0.03977414539593479
 10
-3.876400883614488
 20
0.03777598452669668
 10
-3.885125222734326
 20
0.03562151904298228
 10
-3.894144247503133
 20
0.03330505862754492
 10
-3.903455671599947
 20
0.03082094073839645
 10
-3.913057128915758
 20
0.02816353160637806
 10
-3.922946173893338
 20
0.02532722722899975
 10
-3.933120281878649
 20
0.02230645436042878
 10
-3.943576849483794
 20
0.01909567149749398
 10
-3.954313194961456
 20
0.01568936986157536
 10
-3.965326558590791
 20
0.01208207437625504
 10
-3.976614103074716
 20
0.00826834464059638
 10
-3.988172913948557
 20
0.004242775897927288
 10
-4.000000000000001
 20
6.147588099292715e-16
 10
-4.042792517772051
 20
-0.01636815679769504
 10
-4.0886044298487
 20
-0.03559632567311503
 10
-4.13729264329674
 20
-0.0578934826238333
 10
-4.188703818519514
 20
-0.08346225083267843
 10
-4.242674633248363
 20
-0.1124984601220755
 10
-4.299032064193241
 20
-0.1451907169240637
 10
-4.357593685945838
 20
-0.1817199854435819
 10
-4.418167986703319
 20
-0.2222591806772124
 10
-4.480554700356085
 20
-0.266972773933288
 10
-4.544545154458972
 20
-0.3160164114820451
 10
-4.609922633581814
 20
-0.3695365469464367
 10
-4.676462757512612
 20
-0.4276700880252847
 10
-4.743933873764486
 20
-0.4905440581206857
 10
-4.812097463816223
 20
-0.5582752734210237
 10
-4.880708562495731
 20
-0.6309700359696038
 10
-4.949516189895918
 20
-0.7087238432268309
 10
-4.903926402016152
 20
-0.9754516100806406
 10
-4.843973576603108
 20
-1.239322391135943
 10
-4.750648524126762
 20
-1.284826003209321
 10
-4.659441053106598
 20
-1.325730875707708
 10
-4.570546493445915
 20
-1.36222128263248
 10
-4.48415048342259
 20
-1.394489178378577
 10
-4.400428681796572
 20
-1.422733764117893
 10
-4.319546497807637
 20
-1.447161043740569
 10
-4.241658839433049
 20
-1.467983370057074
 10
-4.166909880248003
 20
-1.485418981976779
 10
-4.09543284520466
 20
-1.499691533390621
 10
-4.027349815617932
 20
-1.511029614496263
 10
-3.962771553618296
 20
-1.519666266313958
 10
-3.901797346303616
 20
-1.52583848915017
 10
-3.844514869793435
 20
-1.529786745773673
 10
-3.791000073360366
 20
-1.531754460075613
 10
-3.741317083784203
 20
-1.531987511990585
 10
-3.695518130045148
 20
-1.530733729460359
 10
-3.682967687269595
 20
-1.530127513388442
 10
-3.670748220019418
 20
-1.529423288537251
 10
-3.658860437513054
 20
-1.528627159116473
 10
-3.64730496405393
 20
-1.527745233787523
 10
-3.636082339011443
 20
-1.526783624612058
 10
-3.625193016814162
 20
-1.525748446000567
 10
-3.614637366955234
 20
-1.524645813661133
 10
-3.604415674009997
 20
-1.523481843548532
 10
-3.5945281376658
 20
-1.522262650813791
 10
-3.584974872764001
 20
-1.520994348754345
 10
-3.575755909354171
 20
-1.519683047764927
 10
-3.566871192760445
 20
-1.518334854289336
 10
-3.55832058366006
 20
-1.516955869773199
 10
-3.550103858174023
 20
-1.515552189617882
 10
-3.542220707969927
 20
-1.514129902135679
 10
-3.534670740376873
 20
-1.51269508750641
 10
-3.442723559296251
 20
-1.433717001073475
 10
-3.350644553949765
 20
-1.364998446307683
 10
-3.259127422146214
 20
-1.306400144734418
 10
-3.168853474574434
 20
-1.257742907518821
 10
-3.080489517629099
 20
-1.2188084490515
 10
-2.994685783498624
 20
-1.18934030746289
 10
-2.912073912739961
 20
-1.169044869499704
 10
-2.83326499443155
 20
-1.157592496947606
 10
-2.758847668850537
 20
-1.154618751541761
 10
-2.689386297463737
 20
-1.159725715071621
 10
-2.625419204854362
 20
-1.172483401158865
 10
-2.56745699702835
 20
-1.192431254968318
 10
-2.515980960355775
 20
-1.219079736901264
 10
-2.471441545204729
 20
-1.25191198611957
 10
-2.434256938117583
 20
-1.290385559557629
 10
-2.404811726163232
 20
-1.333934241897934
 10
-2.286541433831999
 20
-1.527818140803906
 10
-2.152676149365424
 20
-1.711281799106522
 10
-2.123710607860788
 20
-1.755150986994569
 10
-2.102395593890053
 20
-1.804228283545483
 10
-2.089107047096486
 20
-1.857941695416685
 10
-2.084186086464552
 20
-1.915697284646697
 10
-2.087937849250788
 20
-1.976881095280433
 10
-2.100630430750751
 20
-2.040861137997392
 10
-2.122493927691319
 20
-2.106989427654391
 10
-2.15371958778745
 20
-2.174604068524029
 10
-2.194459067746271
 20
-2.243031381891563
 10
-2.244823801739837
 20
-2.311588070566855
 10
-2.304884482101491
 20
-2.379583414774491
 10
-2.374670653730061
 20
-2.446321493804444
 10
-2.454170423412013
 20
-2.511103427737942
 10
-2.543330284994267
 20
-2.573229633508558
 10
-2.642055061060895
 20
-2.632002089517232
 10
-2.750207961485418
 20
-2.686726602991946
 10
-2.754422804867102
 20
-2.693152783735156
 10
-2.75875357813921
 20
-2.699891579004933
 10
-2.763194814216698
 20
-2.706945678365967
 10
-2.767741006226155
 20
-2.714317696576504
 10
-2.772386608425796
 20
-2.722010173082879
 10
-2.777126037131404
 20
-2.730025571524698
 10
-2.781953671648081
 20
-2.738366279250743
 10
-2.786863855207727
 20
-2.747034606845663
 10
-2.791850895912079
 20
-2.756032787667522
 10
-2.796909067681225
 20
-2.765362977396251
 10
-2.80203261120746
 20
-2.775027253593083
 10
-2.807215734914352
 20
-2.785027615271024
 10
-2.812452615920914
 20
-2.795365982476414
 10
-2.817737401010746
 20
-2.806044195881639
 10
-2.823064207606018
 20
-2.817064016389059
 10
-2.828427124746191
 20
-2.82842712474619
 10
-2.847111969579679
 20
-2.870260038914028
 10
-2.86590951466659
 20
-2.916250321204158
 10
-2.884570809678523
 20
-2.966444557978159
 10
-2.902844150920254
 20
-3.020877597994013
 10
-2.920475579512703
 20
-3.07957242756343
 10
-2.937209384627101
 20
-3.142540065631784
 10
-2.952788611003707
 20
-3.209779478972262
 10
-2.96695556998141
 20
-3.281277517657056
 10
-2.979452353258636
 20
-3.357008870939458
 10
-2.990021348601213
 20
-3.436936043651598
 10
-2.998405756708963
 20
-3.521009353193135
 10
-3.004350108450183
 20
-3.609166947156836
 10
-3.007600781671531
 20
-3.70133484160734
 10
-3.007906516790259
 20
-3.797426979999819
 10
-3.005018930376352
 20
-3.897345312695605
 10
-2.998693025933724
 20
-4.000979897002291
 10
-2.777851165098012
 20
-4.157348061512725
 10
-2.54887329705596
 20
-4.301539830753064
 10
-2.450706606929778
 20
-4.267724965958018
 10
-2.357289072949363
 20
-4.232155657431965
 10
-2.268628512817939
 20
-4.195100325670066
 10
-2.184720460366301
 20
-4.156825969011798
 10
-2.105548268595313
 20
-4.11759765345696
 10
-2.031083232752424
 20
-4.077678007748341
 10
-1.961284733206532
 20
-4.037326724479408
 10
-1.89610039785759
 20
-3.996800067975586
 10
-1.835466283789772
 20
-3.956350389686891
 10
-1.77930707784983
 20
-3.916225651817835
 10
-1.727536315805606
 20
-3.87666895990769
 10
-1.680056619713441
 20
-3.837918105060485
 10
-1.63675995309759
 20
-3.80020511650932
 10
-1.597527893519609
 20
-3.76375582518402
 10
-1.562231922091239
 20
-3.728789438934538
 10
-1.53073372946036
 20
-3.695518130045148
 10
-1.522287885762189
 20
-3.686214967356344
 10
-1.51414537977486
 20
-3.6770765370335
 10
-1.506302396663473
 20
-3.668107656897845
 10
-1.498755058401307
 20
-3.659313087874476
 10
-1.491499424499872
 20
-3.650697533235398
 10
-1.484531492747574
 20
-3.64226563785125
 10
-1.477847199956865
 20
-3.634021987451802
 10
-1.4714424227198
 20
-3.6259711078953
 10
-1.465312978171898
 20
-3.61811746444678
 10
-1.459454624764192
 20
-3.61046546106542
 10
-1.453863063043385
 20
-3.603019439701024
 10
-1.448533936439982
 20
-3.595783679599738
 10
-1.443462832064336
 20
-3.588762396619068
 10
-1.438645281510452
 20
-3.581959742552302
 10
-1.434076761667486
 20
-3.575379804462411
 10
-1.429752695538802
 20
-3.569026604025522
 10
-1.420582160767571
 20
-3.448164188290561
 10
-1.40406382775039
 20
-3.334463143136918
 10
-1.380786699665826
 20
-3.228315502235415
 10
-1.351359241562292
 20
-3.130076319353979
 10
-1.316407307997838
 20
-3.040062746581388
 10
-1.276572028489324
 20
-2.958553221580329
 10
-1.232507656280286
 20
-2.885786765749452
 10
-1.184879386018695
 20
-2.821962394903335
 10
-1.134361146004589
 20
-2.767238643805239
 10
-1.08163337072323
 20
-2.721733205610351
 10
-1.027380759421813
 20
-2.685522686998014
 10
-0.9722900265167138
 20
-2.658642479490479
 10
-0.9170476496338149
 20
-2.641086747173807
 10
-0.8623376210865562
 20
-2.632808530754291
 10
-0.8088392085849484
 20
-2.633719967601742
 10
-0.7572247309439828
 20
-2.643692627149914
 10
-0.5364983855443533
 20
-2.697159521108884
 10
-0.3121129382454999
 20
-2.732230867584173
 10
-0.2606110071860472
 20
-2.74276933700629
 10
-0.2108361270727991
 20
-2.762400235279951
 10
-0.1634585877481599
 20
-2.790984931504898
 10
-0.1191395743194017
 20
-2.828344655668072
 10
-0.07852898382900428
 20
-2.874261039973571
 10
-0.04226327221262426
 20
-2.928476772488724
 10
-0.01096333711501878
 20
-2.990696361480584
 10
0.01476755795039447
 20
-3.060587008547998
 10
0.03434581271005952
 20
-3.137779588389454
 10
0.04720946722854576
 20
-3.221869732786956
 10
0.05282012184047608
 20
-3.312419016131691
 10
0.0506647948943089
 20
-3.408956239568745
 10
0.04025771343218756
 20
-3.510978810596377
 10
0.02114203208751553
 20
-3.617954214720636
 10
-0.007108524349599596
 20
-3.729321575539194
 10
-0.04488809906966824
 20
-3.844493299409472
 10
-0.04332444742584267
 20
-3.852017639726955
 10
-0.04162171874204372
 20
-3.85984500670773
 10
-0.03977414539593502
 20
-3.867973436348323
 10
-0.03777598452669693
 20
-3.876400883614488
 10
-0.03562151904298252
 20
-3.885125222734326
 10
-0.03330505862754516
 20
-3.894144247503133
 10
-0.03082094073839669
 20
-3.903455671599947
 10
-0.0281635316063783
 20
-3.913057128915758
 10
-0.02532722722899999
 20
-3.922946173893338
 10
-0.02230645436042902
 20
-3.933120281878649
 10
-0.01909567149749422
 20
-3.943576849483794
 10
-0.0156893698615756
 20
-3.954313194961456
 10
-0.01208207437625528
 20
-3.965326558590791
 10
-0.008268344640596623
 20
-3.976614103074716
 10
-0.004242775897927533
 20
-3.988172913948557
 10
-8.596881697587422e-16
 20
-4.000000000000001
 10
0.01636815679769479
 20
-4.042792517772051
 10
0.03559632567311478
 20
-4.0886044298487
 10
0.05789348262383304
 20
-4.13729264329674
 10
0.08346225083267818
 20
-4.188703818519514
 10
0.1124984601220752
 20
-4.242674633248363
 10
0.1451907169240634
 20
-4.299032064193241
 10
0.1817199854435817
 20
-4.357593685945838
 10
0.2222591806772121
 20
-4.418167986703319
 10
0.2669727739332877
 20
-4.480554700356085
 10
0.3160164114820448
 20
-4.544545154458972
 10
0.3695365469464365
 20
-4.609922633581814
 10
0.4276700880252844
 20
-4.676462757512612
 10
0.4905440581206854
 20
-4.743933873764486
 10
0.5582752734210233
 20
-4.812097463816223
 10
0.6309700359696034
 20
-4.880708562495731
 10
0.7087238432268306
 20
-4.949516189895918
 10
0.9754516100806403
 20
-4.903926402016152
 10
1.239322391135943
 20
-4.843973576603108
 10
1.284826003209321
 20
-4.750648524126762
 10
1.325730875707708
 20
-4.659441053106598
 10
1.36222128263248
 20
-4.570546493445915
 10
1.394489178378576
 20
-4.48415048342259
 10
1.422733764117892
 20
-4.400428681796572
 10
1.447161043740569
 20
-4.319546497807637
 10
1.467983370057074
 20
-4.241658839433049
 10
1.485418981976779
 20
-4.166909880248003
 10
1.499691533390621
 20
-4.09543284520466
 10
1.511029614496263
 20
-4.027349815617932
 10
1.519666266313958
 20
-3.962771553618296
 10
1.52583848915017
 20
-3.901797346303616
 10
1.529786745773673
 20
-3.844514869793436
 10
1.531754460075613
 20
-3.791000073360367
 10
1.531987511990585
 20
-3.741317083784203
 10
1.530733729460359
 20
-3.695518130045148
 10
1.530127513388442
 20
-3.682967687269595
 10
1.529423288537251
 20
-3.670748220019418
 10
1.528627159116473
 20
-3.658860437513054
 10
1.527745233787522
 20
-3.647304964053931
 10
1.526783624612058
 20
-3.636082339011444
 10
1.525748446000567
 20
-3.625193016814162
 10
1.524645813661133
 20
-3.614637366955234
 10
1.523481843548532
 20
-3.604415674009998
 10
1.522262650813791
 20
-3.5945281376658
 10
1.520994348754345
 20
-3.584974872764002
 10
1.519683047764927
 20
-3.575755909354172
 10
1.518334854289336
 20
-3.566871192760446
 10
1.516955869773198
 20
-3.55832058366006
 10
1.515552189617881
 20
-3.550103858174023
 10
1.514129902135679
 20
-3.542220707969927
 10
1.51269508750641
 20
-3.534670740376873
 10
1.433717001073475
 20
-3.442723559296251
 10
1.364998446307683
 20
-3.350644553949765
 10
1.306400144734418
 20
-3.259127422146215
 10
1.257742907518821
 20
-3.168853474574434
 10
1.2188084490515
 20
-3.0804895176291
 10
1.18934030746289
 20
-2.994685783498624
 10
1.169044869499704
 20
-2.912073912739961
 10
1.157592496947606
 20
-2.83326499443155
 10
1.154618751541761
 20
-2.758847668850537
 10
1.159725715071621
 20
-2.689386297463737
 10
1.172483401158865
 20
-2.625419204854362
 10
1.192431254968317
 20
-2.56745699702835
 10
1.219079736901264
 20
-2.515980960355775
 10
1.25191198611957
 20
-2.471441545204729
 10
1.290385559557629
 20
-2.434256938117584
 10
1.333934241897934
 20
-2.404811726163233
 10
1.527818140803906
 20
-2.286541433832
 10
1.711281799106521
 20
-2.152676149365424
 10
1.755150986994568
 20
-2.123710607860788
 10
1.804228283545483
 20
-2.102395593890053
 10
1.857941695416685
 20
-2.089107047096486
 10
1.915697284646696
 20
-2.084186086464552
 10
1.976881095280433
 20
-2.087937849250788
 10
2.040861137997391
 20
-2.100630430750751
 10
2.106989427654391
 20
-2.122493927691319
 10
2.174604068524029
 20
-2.15371958778745
 10
2.243031381891563
 20
-2.194459067746271
 10
2.311588070566855
 20
-2.244823801739837
 10
2.379583414774491
 20
-2.304884482101491
 10
2.446321493804444
 20
-2.374670653730061
 10
2.511103427737941
 20
-2.454170423412013
 10
2.573229633508558
 20
-2.543330284994267
 10
2.632002089517232
 20
-2.642055061060895
 10
2.686726602991946
 20
-2.750207961485418
 10
2.693152783735155
 20
-2.754422804867102
 10
2.699891579004932
 20
-2.75875357813921
 10
2.706945678365966
 20
-2.763194814216698
 10
2.714317696576503
 20
-2.767741006226155
 10
2.722010173082879
 20
-2.772386608425796
 10
2.730025571524698
 20
-2.777126037131404
 10
2.738366279250742
 20
-2.781953671648081
 10
2.747034606845663
 20
-2.786863855207727
 10
2.756032787667522
 20
-2.791850895912079
 10
2.76536297739625
 20
-2.796909067681225
 10
2.775027253593083
 20
-2.80203261120746
 10
2.785027615271024
 20
-2.807215734914352
 10
2.795365982476413
 20
-2.812452615920914
 10
2.806044195881639
 20
-2.817737401010746
 10
2.817064016389058
 20
-2.823064207606018
 10
2.82842712474619
 20
-2.828427124746191
 10
2.870260038914028
 20
-2.847111969579679
 10
2.916250321204158
 20
-2.86590951466659
 10
2.966444557978158
 20
-2.884570809678523
 10
3.020877597994013
 20
-2.902844150920254
 10
3.07957242756343
 20
-2.920475579512703
 10
3.142540065631783
 20
-2.937209384627101
 10
3.209779478972262
 20
-2.952788611003707
 10
3.281277517657055
 20
-2.96695556998141
 10
3.357008870939458
 20
-2.979452353258636
 10
3.436936043651597
 20
-2.990021348601213
 10
3.521009353193134
 20
-2.998405756708963
 10
3.609166947156835
 20
-3.004350108450183
 10
3.701334841607339
 20
-3.007600781671531
 10
3.797426979999818
 20
-3.007906516790259
 10
3.897345312695604
 20
-3.005018930376352
 10
4.00097989700229
 20
-2.998693025933724
 10
4.157348061512725
 20
-2.777851165098012
 10
4.301539830753064
 20
-2.54887329705596
 10
4.267724965958017
 20
-2.450706606929778
 10
4.232155657431964
 20
-2.357289072949363
 10
4.195100325670065
 20
-2.268628512817939
 10
4.156825969011797
 20
-2.184720460366301
 10
4.11759765345696
 20
-2.105548268595313
 10
4.07767800774834
 20
-2.031083232752425
 10
4.037326724479408
 20
-1.961284733206532
 10
3.996800067975586
 20
-1.89610039785759
 10
3.956350389686891
 20
-1.835466283789772
 10
3.916225651817834
 20
-1.77930707784983
 10
3.876668959907689
 20
-1.727536315805606
 10
3.837918105060484
 20
-1.680056619713442
 10
3.80020511650932
 20
-1.63675995309759
 10
3.763755825184019
 20
-1.59752789351961
 10
3.728789438934538
 20
-1.562231922091239
 10
3.695518130045148
 20
-1.53073372946036
 10
3.686214967356343
 20
-1.52228788576219
 10
3.677076537033499
 20
-1.51414537977486
 10
3.668107656897845
 20
-1.506302396663473
 10
3.659313087874476
 20
-1.498755058401307
 10
3.650697533235397
 20
-1.491499424499872
 10
3.642265637851249
 20
-1.484531492747575
 10
3.634021987451801
 20
-1.477847199956865
 10
3.625971107895299
 20
-1.4714424227198
 10
3.61811746444678
 20
-1.465312978171898
 10
3.61046546106542
 20
-1.459454624764192
 10
3.603019439701024
 20
-1.453863063043385
 10
3.595783679599738
 20
-1.448533936439982
 10
3.588762396619068
 20
-1.443462832064336
 10
3.581959742552301
 20
-1.438645281510453
 10
3.57537980446241
 20
-1.434076761667487
 10
3.569026604025522
 20
-1.429752695538802
 10
3.448164188290561
 20
-1.420582160767571
 10
3.334463143136917
 20
-1.40406382775039
 10
3.228315502235414
 20
-1.380786699665826
 10
3.130076319353979
 20
-1.351359241562292
 10
3.040062746581387
 20
-1.316407307997839
 10
2.958553221580329
 20
-1.276572028489324
 10
2.885786765749452
 20
-1.232507656280286
 10
2.821962394903334
 20
-1.184879386018695
 10
2.767238643805239
 20
-1.134361146004589
 10
2.721733205610351
 20
-1.08163337072323
 10
2.685522686998013
 20
-1.027380759421813
 10
2.658642479490478
 20
-0.9722900265167139
 10
2.641086747173806
 20
-0.917047649633815
 10
2.63280853075429
 20
-0.8623376210865564
 10
2.633719967601742
 20
-0.8088392085849485
 10
2.643692627149914
 20
-0.757224730943983
 10
2.697159521108883
 20
-0.5364983855443533
  0
ENDSEC
  0
SECTION
  2
OBJECTS
  0
DICTIONARY
  5
C
330
0
100
AcDbDictionary
281
    1
  3
ACAD_GROUP
350
D
  0
DICTIONARY
  5
D
330
C
100
AcDbDictionary
281
    1
  0
PLOTSETTINGS
  5
54
  6
1x1
 40
0
 41
0
 42
0
 43
0
  0
ENDSEC
  0
EOF
