<?xml version="1.0"?>
<svg xmlns="http://www.w3.org/2000/svg" xmlns:lc="http://www.librecad.org" xmlns:xlink="http://www.w3.org/1999/xlink" width="46.7mm" height="35.02mm" viewBox="0 0 46.7 35.02">
    <g lc:layername="0" lc:is_locked="false" lc:is_construction="false" fill="none" stroke="black" stroke-width="1">
        <path d="M23.35,33.90627806 L7.84021951,26.30210982 L7.76151225,26.26763264 A15.95909126,15.95909126 0 0,0 2.27357157,25.19075943 L1.29986114,17.98333565 L1.00013888,0 L0,0 L0.3,18 L1.4,26.2 A14.95909126,14.95909126 0 0,1 7.4,27.2 L23.35,35.02 L39.3,27.2 A14.95909126,14.95909126 0 0,1 45.3,26.2 L46.4,18 L46.7,0 L45.69986112,0 L45.40013886,17.98333565 L44.42642843,25.19075943 A15.95909126,15.95909126 0 0,0 38.93848775,26.26763264 L38.85978049,26.30210982 L23.35,33.90627806 Z "/>
    </g>
</svg>
