<?xml version="1.0"?>
<svg xmlns="http://www.w3.org/2000/svg" xmlns:lc="http://www.librecad.org" xmlns:xlink="http://www.w3.org/1999/xlink" width="5.40112121mm" height="3.5mm" viewBox="0 0 5.40112121 3.5">
    <g lc:layername="0" lc:is_locked="false" lc:is_construction="false" fill="none" stroke="black" stroke-width="1">
        <path d="M4.10410675,2.31418457 L2.70056061,2.66507111 L1.29701446,2.31418457 A1.80023861,1.80023861 0 0,0 0.8110053,2.28206651 L0.81056061,0 L0.00056061,0 L0.00056061,2.2 A1.59671445,1.59671445 0 0,0 0.40056061,3.3 A0.81394103,0.81394103 0 0,1 1.10056061,3.1 L2.70056061,3.5 L4.30056061,3.1 A0.81394103,0.81394103 0 0,1 5.00056061,3.3 A1.59671445,1.59671445 0 0,0 5.40056061,2.2 L5.40056061,0 L4.59056061,0 L4.59011591,2.28206651 A1.80023861,1.80023861 0 0,0 4.10410675,2.31418457 Z "/>
    </g>
</svg>
