<?xml version="1.0"?>
<svg xmlns="http://www.w3.org/2000/svg" xmlns:lc="http://www.librecad.org" xmlns:xlink="http://www.w3.org/1999/xlink" width="54.01121212mm" height="35mm" viewBox="0 0 54.01121212 35">
    <g lc:layername="0" lc:is_locked="false" lc:is_construction="false" fill="none" stroke="black" stroke-width="1">
        <path d="M27.00560606,34.1836964 L42.88656611,32.1985764 A21.37666667,21.37666667 0 0,1 49.68678712,32.12802989 A15.18574074,15.18574074 0 0,0 53.19560606,22 L53.19560606,0 L54.00560606,0 L54.00560606,22 A15.96714452,15.96714452 0 0,1 50.00560606,33 A20.56666667,20.56666667 0 0,0 43.00560606,33 L27.00560606,35 L11.00560606,33 A20.56666667,20.56666667 0 0,0 4.00560606,33 A15.96714452,15.96714452 0 0,1 0.00560606,22 L0.00560606,0 L0.81560606,0 L0.81560606,22 A15.18574074,15.18574074 0 0,0 4.324425,32.12802989 A21.37666667,21.37666667 0 0,1 11.12464601,32.1985764 L27.00560606,34.1836964 Z "/>
    </g>
</svg>
