<?xml version="1.0"?>
<svg xmlns="http://www.w3.org/2000/svg" xmlns:lc="http://www.librecad.org" xmlns:xlink="http://www.w3.org/1999/xlink" width="32.40672727mm" height="21mm" viewBox="0 0 32.40672727 21">
    <g lc:layername="0" lc:is_locked="false" lc:is_construction="false" fill="none" stroke="black" stroke-width="1">
        <path d="M16.20336364,20.16507111 L6.79981749,17.81418457 A6.25844578,6.25844578 0 0,0 2.53118671,18.67190309 A9.03928824,9.03928824 0 0,1 0.81336364,13.2 L0.81336364,0 L0.00336364,0 L0.00336364,13.2 A9.58028671,9.58028671 0 0,0 2.40336364,19.8 A4.88364618,4.88364618 0 0,1 6.60336364,18.6 L16.20336364,21 L25.80336364,18.6 A4.88364618,4.88364618 0 0,1 30.00336364,19.8 A9.58028671,9.58028671 0 0,0 32.40336364,13.2 L32.40336364,0 L31.59336364,0 L31.59336364,13.2 A9.03928824,9.03928824 0 0,1 29.87554056,18.67190309 A6.25844578,6.25844578 0 0,0 25.60690978,17.81418457 L16.20336364,20.16507111 Z "/>
    </g>
</svg>
