<?xml version="1.0"?>
<svg xmlns="http://www.w3.org/2000/svg" xmlns:lc="http://www.librecad.org" xmlns:xlink="http://www.w3.org/1999/xlink" width="54.01121212mm" height="35mm" viewBox="0 0 54.01121212 35">
    <g lc:layername="0" lc:is_locked="false" lc:is_construction="false" fill="none" stroke="black" stroke-width="1">
        <path d="M27.10607419,34.19625492 L11.10560606,32.2 L4.40560606,32.2 A13.69560756,13.69560756 0 0,1 0.81560606,22 L0.81560606,0 L0.00560606,0 L0.00560606,22 A15.96714452,15.96714452 0 0,0 4.00560606,33 L11.00560606,33 L27.00560606,35 L43.00560606,33 L50.00560606,33 A15.96714452,15.96714452 0 0,0 54.00560606,22 L54.00560606,0 L53.19560606,0 L53.19560606,22 A13.69560756,13.69560756 0 0,1 49.60560606,32.2 L42.90560606,32.2 L26.90513792,34.19625492 "/>
    </g>
</svg>
