<?xml version="1.0"?>
<svg xmlns="http://www.w3.org/2000/svg" xmlns:lc="http://www.librecad.org" xmlns:xlink="http://www.w3.org/1999/xlink" width="54.01121212mm" height="35mm" viewBox="0 0 54.01121212 35">
    <g lc:layername="0" lc:is_locked="false" lc:is_construction="false" fill="none" stroke="black" stroke-width="1">
        <path d="M0.81560606,0 L0.81560606,22 A15.18674681,15.18674681 0 0,0 4.10759527,31.86183328 A8.9494103,8.9494103 0 0,1 11.15487977,30.20387353 L27.00560606,34.16507111 L42.8091522,30.21418457 A9.00330042,9.00330042 0 0,1 49.90361685,31.86183328 A15.15714452,15.15714452 0 0,0 53.19589045,22.02146234 L53.19560606,0 L54.00560606,0 L54.00560606,22 A15.96714452,15.96714452 0 0,1 50.00560606,33 A8.1394103,8.1394103 0 0,0 43.00560606,31 L27.00560606,35 L11.00560606,31 A8.1394103,8.1394103 0 0,0 4.00560606,33 A15.96714452,15.96714452 0 0,1 0.00560606,22 L0.00560606,0 L0.81560606,0 Z "/>
    </g>
</svg>
