999
dxfrw 0.6.3
  0
SECTION
  2
HEADER
  9
$ACADVER
  1
AC1021
  9
$DWGCODEPAGE
  3
ANSI_1252
  9
$INSBASE
 10
0
 20
0
 30
0
  9
$EXTMIN
 10
-10.98787631081712
 20
-10.98787631081712
 30
0
  9
$EXTMAX
 10
10.98787631081712
 20
10.98787631081712
 30
0
  9
$LIMMIN
 10
0
 20
0
  9
$LIMMAX
 10
420
 20
297
  9
$ORTHOMODE
 70
    0
  9
$REGENMODE
 70
    1
  9
$FILLMODE
 70
    1
  9
$QTEXTMODE
 70
    0
  9
$MIRRTEXT
 70
    0
  9
$LTSCALE
 40
1
  9
$ATTMODE
 70
    0
  9
$TEXTSIZE
 40
2.5
  9
$TRACEWID
 40
15.68
  9
$TEXTSTYLE
  7
STANDARD
  9
$CLAYER
  8
0
  9
$CELTYPE
  6
BYLAYER
  9
$CECOLOR
 62
  256
  9
$CELTSCALE
 40
1
  9
$DISPSILH
 70
    0
  9
$DIMSCALE
 40
2.5
  9
$DIMASZ
 40
2.5
  9
$DIMEXO
 40
0.625
  9
$DIMDLI
 40
3.75
  9
$DIMRND
 40
0
  9
$DIMDLE
 40
0
  9
$DIMEXE
 40
1.25
  9
$DIMTP
 40
0
  9
$DIMTM
 40
0
  9
$DIMTXT
 40
2.5
  9
$DIMCEN
 40
2.5
  9
$DIMTSZ
 40
0
  9
$DIMTOL
 70
    0
  9
$DIMLIM
 70
    0
  9
$DIMTIH
 70
    0
  9
$DIMTOH
 70
    0
  9
$DIMSE1
 70
    0
  9
$DIMSE2
 70
    0
  9
$DIMTAD
 70
    1
  9
$DIMZIN
 70
    8
  9
$DIMBLK
  1

  9
$DIMASO
 70
    1
  9
$DIMSHO
 70
    1
  9
$DIMPOST
  1

  9
$DIMAPOST
  1

  9
$DIMALT
 70
    0
  9
$DIMALTD
 70
    3
  9
$DIMALTF
 40
0.03937
  9
$DIMLFAC
 40
1
  9
$DIMTOFL
 70
    1
  9
$DIMTVP
 40
0
  9
$DIMTIX
 70
    0
  9
$DIMSOXD
 70
    0
  9
$DIMSAH
 70
    0
  9
$DIMBLK1
  1

  9
$DIMBLK2
  1

  9
$DIMSTYLE
  2
STANDARD
  9
$DIMCLRD
 70
    0
  9
$DIMCLRE
 70
    0
  9
$DIMCLRT
 70
    0
  9
$DIMTFAC
 40
1
  9
$DIMGAP
 40
0.625
  9
$DIMJUST
 70
    0
  9
$DIMSD1
 70
    0
  9
$DIMSD2
 70
    0
  9
$DIMTOLJ
 70
    0
  9
$DIMTZIN
 70
    8
  9
$DIMALTZ
 70
    0
  9
$DIMALTTZ
 70
    0
  9
$DIMUPT
 70
    0
  9
$DIMDEC
 70
    2
  9
$DIMTDEC
 70
    2
  9
$DIMALTU
 70
    2
  9
$DIMALTTD
 70
    3
  9
$DIMTXSTY
  7
STANDARD
  9
$DIMAUNIT
 70
    0
  9
$DIMADEC
 70
    0
  9
$DIMALTRND
 40
0
  9
$DIMAZIN
 70
    0
  9
$DIMDSEP
 70
   44
  9
$DIMATFIT
 70
    3
  9
$DIMFRAC
 70
    0
  9
$DIMLDRBLK
  1
STANDARD
  9
$DIMLUNIT
 70
    2
  9
$DIMLWD
 70
   -2
  9
$DIMLWE
 70
   -2
  9
$DIMTMOVE
 70
    0
  9
$DIMFXL
 40
1
  9
$DIMFXLON
 70
    0
  9
$DIMJOGANG
 40
0.7854
  9
$DIMTFILL
 70
    0
  9
$DIMTFILLCLR
 70
    0
  9
$DIMARCSYM
 70
    0
  9
$DIMLTYPE
  6

  9
$DIMLTEX1
  6

  9
$DIMLTEX2
  6

  9
$LUNITS
 70
    2
  9
$LUPREC
 70
    4
  9
$SKETCHINC
 40
1
  9
$FILLETRAD
 40
0
  9
$AUNITS
 70
    0
  9
$AUPREC
 70
    2
  9
$MENU
  1
.
  9
$ELEVATION
 40
0
  9
$PELEVATION
 40
0
  9
$THICKNESS
 40
0
  9
$LIMCHECK
 70
    0
  9
$CHAMFERA
 40
0
  9
$CHAMFERB
 40
0
  9
$CHAMFERC
 40
0
  9
$CHAMFERD
 40
0
  9
$SKPOLY
 70
    0
  9
$USRTIMER
 70
    1
  9
$ANGBASE
 50
0
  9
$ANGDIR
 70
    0
  9
$PDMODE
 70
   34
  9
$PDSIZE
 40
0
  9
$PLINEWID
 40
0
  9
$SPLFRAME
 70
    0
  9
$SPLINETYPE
 70
    2
  9
$SPLINESEGS
 70
    8
  9
$HANDSEED
  5
20000
  9
$SURFTAB1
 70
    6
  9
$SURFTAB2
 70
    6
  9
$SURFTYPE
 70
    6
  9
$SURFU
 70
    6
  9
$SURFV
 70
    6
  9
$UCSBASE
  2

  9
$UCSNAME
  2

  9
$UCSORG
 10
0
 20
0
 30
0
  9
$UCSXDIR
 10
1
 20
0
 30
0
  9
$UCSYDIR
 10
0
 20
1
 30
0
  9
$UCSORTHOREF
  2

  9
$UCSORTHOVIEW
 70
    0
  9
$UCSORGTOP
 10
0
 20
0
 30
0
  9
$UCSORGBOTTOM
 10
0
 20
0
 30
0
  9
$UCSORGLEFT
 10
0
 20
0
 30
0
  9
$UCSORGRIGHT
 10
0
 20
0
 30
0
  9
$UCSORGFRONT
 10
0
 20
0
 30
0
  9
$UCSORGBACK
 10
0
 20
0
 30
0
  9
$PUCSBASE
  2

  9
$PUCSNAME
  2

  9
$PUCSORG
 10
0
 20
0
 30
0
  9
$PUCSXDIR
 10
1
 20
0
 30
0
  9
$PUCSYDIR
 10
0
 20
1
 30
0
  9
$PUCSORTHOREF
  2

  9
$PUCSORTHOVIEW
 70
    0
  9
$PUCSORGTOP
 10
0
 20
0
 30
0
  9
$PUCSORGBOTTOM
 10
0
 20
0
 30
0
  9
$PUCSORGLEFT
 10
0
 20
0
 30
0
  9
$PUCSORGRIGHT
 10
0
 20
0
 30
0
  9
$PUCSORGFRONT
 10
0
 20
0
 30
0
  9
$PUCSORGBACK
 10
0
 20
0
 30
0
  9
$USERI1
 70
    0
  9
$USERI2
 70
    0
  9
$USERI3
 70
    0
  9
$USERI4
 70
    0
  9
$USERI5
 70
    0
  9
$USERR1
 40
0
  9
$USERR2
 40
0
  9
$USERR3
 40
0
  9
$USERR4
 40
0
  9
$USERR5
 40
0
  9
$WORLDVIEW
 70
    1
  9
$SHADEDGE
 70
    3
  9
$SHADEDIF
 70
   70
  9
$TILEMODE
 70
    1
  9
$MAXACTVP
 70
   64
  9
$PINSBASE
 10
0
 20
0
 30
0
  9
$PLIMCHECK
 70
    0
  9
$PEXTMIN
 10
0
 20
0
 30
0
  9
$PEXTMAX
 10
0
 20
0
 30
0
  9
$SNAPSTYLE
 70
    0
  9
$PLIMMIN
 10
0
 20
0
  9
$PLIMMAX
 10
210
 20
297
  9
$UNITMODE
 70
    0
  9
$VISRETAIN
 70
    1
  9
$PLINEGEN
 70
    0
  9
$PSLTSCALE
 70
    1
  9
$TREEDEPTH
 70
 3020
  9
$CMLSTYLE
  2
Standard
  9
$CMLJUST
 70
    0
  9
$CMLSCALE
 40
20
  9
$PROXYGRAPHICS
 70
    1
  9
$MEASUREMENT
 70
    1
  9
$CELWEIGHT
370
   -1
  9
$ENDCAPS
280
    0
  9
$JOINSTYLE
280
    0
  9
$LWDISPLAY
290
    0
  9
$INSUNITS
 70
    4
  9
$HYPERLINKBASE
  1

  9
$STYLESHEET
  1

  9
$XEDIT
290
    1
  9
$CEPSNTYPE
380
    0
  9
$PSTYLEMODE
290
    1
  9
$EXTNAMES
290
    1
  9
$PSVPSCALE
 40
1
  9
$OLESTARTUP
290
    0
  9
$SORTENTS
280
  127
  9
$INDEXCTL
280
    0
  9
$HIDETEXT
280
    1
  9
$XCLIPFRAME
290
    0
  9
$HALOGAP
280
    0
  9
$OBSCOLOR
 70
  257
  9
$OBSLTYPE
280
    0
  9
$INTERSECTIONDISPLAY
280
    0
  9
$INTERSECTIONCOLOR
 70
  257
  9
$DIMASSOC
280
    1
  9
$PROJECTNAME
  1

  9
$CAMERADISPLAY
290
    0
  9
$LENSLENGTH
 40
50
  9
$CAMERAHEIGHT
 40
0
  9
$STEPSPERSEC
 40
2
  9
$STEPSIZE
 40
50
  9
$3DDWFPREC
 40
2
  9
$PSOLWIDTH
 40
5
  9
$PSOLHEIGHT
 40
80
  9
$LOFTANG1
 40
1.570796326794897
  9
$LOFTANG2
 40
1.570796326794897
  9
$LOFTMAG1
 40
0
  9
$LOFTMAG2
 40
0
  9
$LOFTPARAM
 70
    7
  9
$LOFTNORMALS
280
    1
  9
$LATITUDE
 40
1
  9
$LONGITUDE
 40
1
  9
$NORTHDIRECTION
 40
0
  9
$TIMEZONE
 70
-8000
  9
$LIGHTGLYPHDISPLAY
280
    1
  9
$TILEMODELIGHTSYNCH
280
    1
  9
$SOLIDHIST
280
    1
  9
$SHOWHIST
280
    1
  9
$DWFFRAME
280
    2
  9
$DGNFRAME
280
    0
  9
$REALWORLDSCALE
290
    1
  9
$INTERFERECOLOR
 62
    1
  9
$CSHADOW
280
    0
  9
$SHADOWPLANELOCATION
 40
0
  0
ENDSEC
  0
SECTION
  2
CLASSES
  0
ENDSEC
  0
SECTION
  2
TABLES
  0
TABLE
  2
VPORT
  5
8
330
0
100
AcDbSymbolTable
 70
    1
  0
VPORT
  5
31
330
2
100
AcDbSymbolTableRecord
100
AcDbViewportTableRecord
  2
*ACTIVE
 70
    0
 10
0
 20
0
 11
1
 21
1
 12
20.19612839776578
 22
8.948438428548529
 13
0
 23
0
 14
10
 24
10
 15
10
 25
10
 16
0
 26
0
 36
1
 17
0
 27
0
 37
0
 40
34.59234299925011
 41
2.609580838323353
 42
50
 43
0
 44
0
 50
0
 51
0
 71
    0
 72
  100
 73
    1
 74
    3
 75
    0
 76
    1
 77
    0
 78
    0
281
    0
 65
    1
110
0
120
0
130
0
111
1
121
0
131
0
112
0
122
1
132
0
 79
    0
146
0
348
10020
 60
    7
 61
    5
292
1
282
    1
141
0
142
0
 63
  250
421
3358443
  0
ENDTAB
  0
TABLE
  2
LTYPE
  5
5
330
0
100
AcDbSymbolTable
 70
    4
  0
LTYPE
  5
14
330
5
100
AcDbSymbolTableRecord
100
AcDbLinetypeTableRecord
  2
ByBlock
 70
    0
  3

 72
   65
 73
    0
 40
0
  0
LTYPE
  5
15
330
5
100
AcDbSymbolTableRecord
100
AcDbLinetypeTableRecord
  2
ByLayer
 70
    0
  3

 72
   65
 73
    0
 40
0
  0
LTYPE
  5
16
330
5
100
AcDbSymbolTableRecord
100
AcDbLinetypeTableRecord
  2
Continuous
 70
    0
  3
Solid line
 72
   65
 73
    0
 40
0
  0
LTYPE
  5
32
330
5
100
AcDbSymbolTableRecord
100
AcDbLinetypeTableRecord
  2
DOT
 70
    0
  3
Dot . . . . . . . . . . . . . . . . . . . . . .
 72
   65
 73
    2
 40
6.35
 49
0
 74
    0
 49
-6.35
 74
    0
  0
LTYPE
  5
33
330
5
100
AcDbSymbolTableRecord
100
AcDbLinetypeTableRecord
  2
DOTTINY
 70
    0
  3
Dot (.15x) .....................................
 72
   65
 73
    2
 40
0.9525
 49
0
 74
    0
 49
-0.9525
 74
    0
  0
LTYPE
  5
34
330
5
100
AcDbSymbolTableRecord
100
AcDbLinetypeTableRecord
  2
DOT2
 70
    0
  3
Dot (.5x) .....................................
 72
   65
 73
    2
 40
3.175
 49
0
 74
    0
 49
-3.175
 74
    0
  0
LTYPE
  5
35
330
5
100
AcDbSymbolTableRecord
100
AcDbLinetypeTableRecord
  2
DOTX2
 70
    0
  3
Dot (2x) .  .  .  .  .  .  .  .  .  .  .  .  .
 72
   65
 73
    2
 40
12.7
 49
0
 74
    0
 49
-12.7
 74
    0
  0
LTYPE
  5
36
330
5
100
AcDbSymbolTableRecord
100
AcDbLinetypeTableRecord
  2
DASHED
 70
    0
  3
Dashed _ _ _ _ _ _ _ _ _ _ _ _ _ _ _ _ _
 72
   65
 73
    2
 40
19.05
 49
12.7
 74
    0
 49
-6.35
 74
    0
  0
LTYPE
  5
37
330
5
100
AcDbSymbolTableRecord
100
AcDbLinetypeTableRecord
  2
DASHEDTINY
 70
    0
  3
Dashed (.15x) _ _ _ _ _ _ _ _ _ _ _ _ _ _ _ _ _
 72
   65
 73
    2
 40
2.8575
 49
1.905
 74
    0
 49
-0.9525
 74
    0
  0
LTYPE
  5
38
330
5
100
AcDbSymbolTableRecord
100
AcDbLinetypeTableRecord
  2
DASHED2
 70
    0
  3
Dashed (.5x) _ _ _ _ _ _ _ _ _ _ _ _ _ _ _ _ _
 72
   65
 73
    2
 40
9.524999999999999
 49
6.35
 74
    0
 49
-3.175
 74
    0
  0
LTYPE
  5
39
330
5
100
AcDbSymbolTableRecord
100
AcDbLinetypeTableRecord
  2
DASHEDX2
 70
    0
  3
Dashed (2x) ____  ____  ____  ____  ____  ___
 72
   65
 73
    2
 40
38.09999999999999
 49
25.4
 74
    0
 49
-12.7
 74
    0
  0
LTYPE
  5
3A
330
5
100
AcDbSymbolTableRecord
100
AcDbLinetypeTableRecord
  2
DASHDOT
 70
    0
  3
Dash dot __ . __ . __ . __ . __ . __ . __ . __
 72
   65
 73
    4
 40
25.4
 49
12.7
 74
    0
 49
-6.35
 74
    0
 49
0
 74
    0
 49
-6.35
 74
    0
  0
LTYPE
  5
3B
330
5
100
AcDbSymbolTableRecord
100
AcDbLinetypeTableRecord
  2
DASHDOTTINY
 70
    0
  3
Dash dot (.15x) _._._._._._._._._._._._._._._.
 72
   65
 73
    4
 40
3.81
 49
1.905
 74
    0
 49
-0.9525
 74
    0
 49
0
 74
    0
 49
-0.9525
 74
    0
  0
LTYPE
  5
3C
330
5
100
AcDbSymbolTableRecord
100
AcDbLinetypeTableRecord
  2
DASHDOT2
 70
    0
  3
Dash dot (.5x) _._._._._._._._._._._._._._._.
 72
   65
 73
    4
 40
12.7
 49
6.35
 74
    0
 49
-3.175
 74
    0
 49
0
 74
    0
 49
-3.175
 74
    0
  0
LTYPE
  5
3D
330
5
100
AcDbSymbolTableRecord
100
AcDbLinetypeTableRecord
  2
DASHDOTX2
 70
    0
  3
Dash dot (2x) ____  .  ____  .  ____  .  ___
 72
   65
 73
    4
 40
50.8
 49
25.4
 74
    0
 49
-12.7
 74
    0
 49
0
 74
    0
 49
-12.7
 74
    0
  0
LTYPE
  5
3E
330
5
100
AcDbSymbolTableRecord
100
AcDbLinetypeTableRecord
  2
DIVIDE
 70
    0
  3
Divide ____ . . ____ . . ____ . . ____ . . ____
 72
   65
 73
    6
 40
31.75
 49
12.7
 74
    0
 49
-6.35
 74
    0
 49
0
 74
    0
 49
-6.35
 74
    0
 49
0
 74
    0
 49
-6.35
 74
    0
  0
LTYPE
  5
3F
330
5
100
AcDbSymbolTableRecord
100
AcDbLinetypeTableRecord
  2
DIVIDETINY
 70
    0
  3
Divide (.15x) __..__..__..__..__..__..__..__.._
 72
   65
 73
    6
 40
4.7625
 49
1.905
 74
    0
 49
-0.9525
 74
    0
 49
0
 74
    0
 49
-0.9525
 74
    0
 49
0
 74
    0
 49
-0.9525
 74
    0
  0
LTYPE
  5
40
330
5
100
AcDbSymbolTableRecord
100
AcDbLinetypeTableRecord
  2
DIVIDE2
 70
    0
  3
Divide (.5x) __..__..__..__..__..__..__..__.._
 72
   65
 73
    6
 40
15.875
 49
6.35
 74
    0
 49
-3.175
 74
    0
 49
0
 74
    0
 49
-3.175
 74
    0
 49
0
 74
    0
 49
-3.175
 74
    0
  0
LTYPE
  5
41
330
5
100
AcDbSymbolTableRecord
100
AcDbLinetypeTableRecord
  2
DIVIDEX2
 70
    0
  3
Divide (2x) ________  .  .  ________  .  .  _
 72
   65
 73
    6
 40
63.5
 49
25.4
 74
    0
 49
-12.7
 74
    0
 49
0
 74
    0
 49
-12.7
 74
    0
 49
0
 74
    0
 49
-12.7
 74
    0
  0
LTYPE
  5
42
330
5
100
AcDbSymbolTableRecord
100
AcDbLinetypeTableRecord
  2
BORDER
 70
    0
  3
Border __ __ . __ __ . __ __ . __ __ . __ __ .
 72
   65
 73
    6
 40
44.45
 49
12.7
 74
    0
 49
-6.35
 74
    0
 49
12.7
 74
    0
 49
-6.35
 74
    0
 49
0
 74
    0
 49
-6.35
 74
    0
  0
LTYPE
  5
43
330
5
100
AcDbSymbolTableRecord
100
AcDbLinetypeTableRecord
  2
BORDERTINY
 70
    0
  3
Border (.15x) __.__.__.__.__.__.__.__.__.__.__.
 72
   65
 73
    6
 40
6.6675
 49
1.905
 74
    0
 49
-0.9525
 74
    0
 49
1.905
 74
    0
 49
-0.9525
 74
    0
 49
0
 74
    0
 49
-0.9525
 74
    0
  0
LTYPE
  5
44
330
5
100
AcDbSymbolTableRecord
100
AcDbLinetypeTableRecord
  2
BORDER2
 70
    0
  3
Border (.5x) __.__.__.__.__.__.__.__.__.__.__.
 72
   65
 73
    6
 40
22.225
 49
6.35
 74
    0
 49
-3.175
 74
    0
 49
6.35
 74
    0
 49
-3.175
 74
    0
 49
0
 74
    0
 49
-3.175
 74
    0
  0
LTYPE
  5
45
330
5
100
AcDbSymbolTableRecord
100
AcDbLinetypeTableRecord
  2
BORDERX2
 70
    0
  3
Border (2x) ____  ____  .  ____  ____  .  ___
 72
   65
 73
    6
 40
88.89999999999999
 49
25.4
 74
    0
 49
-12.7
 74
    0
 49
25.4
 74
    0
 49
-12.7
 74
    0
 49
0
 74
    0
 49
-12.7
 74
    0
  0
LTYPE
  5
46
330
5
100
AcDbSymbolTableRecord
100
AcDbLinetypeTableRecord
  2
CENTER
 70
    0
  3
Center ____ _ ____ _ ____ _ ____ _ ____ _ ____
 72
   65
 73
    4
 40
50.8
 49
31.75
 74
    0
 49
-6.35
 74
    0
 49
6.35
 74
    0
 49
-6.35
 74
    0
  0
LTYPE
  5
47
330
5
100
AcDbSymbolTableRecord
100
AcDbLinetypeTableRecord
  2
CENTERTINY
 70
    0
  3
Center (.15x) ___ _ ___ _ ___ _ ___ _ ___ _ ___
 72
   65
 73
    4
 40
7.619999999999999
 49
4.7625
 74
    0
 49
-0.9525
 74
    0
 49
0.9525
 74
    0
 49
-0.9525
 74
    0
  0
LTYPE
  5
48
330
5
100
AcDbSymbolTableRecord
100
AcDbLinetypeTableRecord
  2
CENTER2
 70
    0
  3
Center (.5x) ___ _ ___ _ ___ _ ___ _ ___ _ ___
 72
   65
 73
    4
 40
28.575
 49
19.05
 74
    0
 49
-3.175
 74
    0
 49
3.175
 74
    0
 49
-3.175
 74
    0
  0
LTYPE
  5
49
330
5
100
AcDbSymbolTableRecord
100
AcDbLinetypeTableRecord
  2
CENTERX2
 70
    0
  3
Center (2x) ________  __  ________  __  _____
 72
   65
 73
    4
 40
101.6
 49
63.5
 74
    0
 49
-12.7
 74
    0
 49
12.7
 74
    0
 49
-12.7
 74
    0
  0
ENDTAB
  0
TABLE
  2
LAYER
  5
2
330
0
100
AcDbSymbolTable
 70
    1
  0
LAYER
  5
10
330
2
100
AcDbSymbolTableRecord
100
AcDbLayerTableRecord
  2
0
 70
    0
 62
    7
  6
CONTINUOUS
370
    0
390
F
  0
LAYER
  5
4A
330
2
100
AcDbSymbolTableRecord
100
AcDbLayerTableRecord
  2
gear_M1.0000_action_lines
 70
    0
 62
    7
  6
CONTINUOUS
370
    0
390
F
  0
LAYER
  5
4B
330
2
100
AcDbSymbolTableRecord
100
AcDbLayerTableRecord
  2
gear_M1.0000_base_lines
 70
    0
 62
    7
  6
CONTINUOUS
370
    0
390
F
  0
LAYER
  5
4C
330
2
100
AcDbSymbolTableRecord
100
AcDbLayerTableRecord
  2
gear_M1.0000_pitch_circles
 70
    0
 62
    7
  6
CONTINUOUS
370
    0
390
F
  0
LAYER
  5
4D
330
2
100
AcDbSymbolTableRecord
100
AcDbLayerTableRecord
  2
gear_M1.0000_shapes
 70
    0
 62
    7
  6
CONTINUOUS
370
    0
390
F
  0
ENDTAB
  0
TABLE
  2
STYLE
  5
3
330
0
100
AcDbSymbolTable
 70
    3
  0
STYLE
  5
4E
330
2
100
AcDbSymbolTableRecord
100
AcDbTextStyleTableRecord
  2
Standard
 70
    0
 40
0
 41
1
 50
0
 71
    0
 42
1
  3
txt
  4

  0
ENDTAB
  0
TABLE
  2
VIEW
  5
6
330
0
100
AcDbSymbolTable
 70
    0
  0
ENDTAB
  0
TABLE
  2
UCS
  5
7
330
0
100
AcDbSymbolTable
 70
    0
  0
ENDTAB
  0
TABLE
  2
APPID
  5
9
330
0
100
AcDbSymbolTable
 70
    1
  0
APPID
  5
12
330
9
100
AcDbSymbolTableRecord
100
AcDbRegAppTableRecord
  2
ACAD
 70
    0
  0
APPID
  5
4F
330
9
100
AcDbSymbolTableRecord
100
AcDbRegAppTableRecord
  2
LibreCad
 70
    0
  0
ENDTAB
  0
TABLE
  2
DIMSTYLE
  5
A
330
0
100
AcDbSymbolTable
 70
    1
100
AcDbDimStyleTable
 71
    1
  0
DIMSTYLE
105
50
330
A
100
AcDbSymbolTableRecord
100
AcDbDimStyleTableRecord
  2
Standard
 70
    0
 40
1
 41
2.5
 42
0.625
 43
0.38
 44
1.25
 45
0
 46
0
 47
0
 48
0
 49
1
140
2.5
141
0.09
142
2.5
143
25.4
144
1
145
0
146
1
147
0.625
148
0
 71
    0
 72
    0
 73
    0
 74
    1
 75
    0
 76
    0
 77
    0
 78
    1
 79
    0
170
    0
171
    2
172
    0
173
    0
174
    0
175
    0
176
    0
177
    0
178
    0
179
    0
271
    2
272
    4
273
    2
274
    2
275
    0
276
    0
277
    2
278
    0
279
    0
280
    0
281
    0
282
    0
283
    1
284
    0
285
    0
286
    0
288
    0
289
    3
340
standard
341

371
   -2
372
   -2
  0
ENDTAB
  0
TABLE
  2
BLOCK_RECORD
  5
1
330
0
100
AcDbSymbolTable
 70
    2
  0
BLOCK_RECORD
  5
1F
330
1
100
AcDbSymbolTableRecord
100
AcDbBlockTableRecord
  2
*Model_Space
 70
    0
280
    1
281
    0
  0
BLOCK_RECORD
  5
1E
330
1
100
AcDbSymbolTableRecord
100
AcDbBlockTableRecord
  2
*Paper_Space
 70
    0
280
    1
281
    0
  0
ENDTAB
  0
ENDSEC
  0
SECTION
  2
BLOCKS
  0
BLOCK
  5
20
330
1F
100
AcDbEntity
  8
0
100
AcDbBlockBegin
  2
*Model_Space
 70
    0
 10
0
 20
0
 30
0
  3
*Model_Space
  1

  0
ENDBLK
  5
21
330
1F
100
AcDbEntity
  8
0
100
AcDbBlockEnd
  0
BLOCK
  5
1C
330
1B
100
AcDbEntity
  8
0
100
AcDbBlockBegin
  2
*Paper_Space
 70
    0
 10
0
 20
0
 30
0
  3
*Paper_Space
  1

  0
ENDBLK
  5
1D
330
1F
100
AcDbEntity
  8
0
100
AcDbBlockEnd
  0
ENDSEC
  0
SECTION
  2
ENTITIES
  0
LWPOLYLINE
  5
51
100
AcDbEntity
  8
gear_M1.0000_shapes
  6
ByLayer
 62
  256
370
   -1
100
AcDbPolyline
 90
 1400
 70
    1
 43
0
 10
8.749028152609984
 20
-0.1304085305412548
 10
9.39588250749231
 20
-0.140050210099601
 10
9.398313823079437
 20
-0.1400495753874062
 10
9.405606193660354
 20
-0.1399001949255741
 10
9.417751594825436
 20
-0.1393809758962767
 10
9.434734461262567
 20
-0.1382711707720093
 10
9.456531699613786
 20
-0.1363506059086806
 10
9.483112707827523
 20
-0.1333999097029173
 10
9.514439400992579
 20
-0.1292007401364216
 10
9.55046624363527
 20
-0.1235360115306228
 10
9.591140288456565
 20
-0.1161901203354243
 10
9.636401221481259
 20
-0.1069491697764967
 10
9.686181413586706
 20
-0.09560119318635704
 10
9.740405978373847
 20
-0.08193637584538266
 10
9.798992836338835
 20
-0.06574727515992754
 10
9.861852785298833
 20
-0.0468290390058535
 10
9.928889577021105
 20
-0.02497962206706578
 10
9.999999999999998
 20
-2.949029909160572e-16
 10
10.05001152354799
 20
0.01863972999168498
 10
10.10177735560852
 20
0.03883952386387755
 10
10.15526101442023
 20
0.06065717392653081
 10
10.21042466438547
 20
0.08414971449810457
 10
10.26722913082862
 20
0.1093733940681999
 10
10.32563391528853
 20
0.1363836477359314
 10
10.38559721133969
 20
0.1652350699338611
 10
10.44707592093736
 20
0.1959813874471911
 10
10.51002567128097
 20
0.2286754327378601
 10
10.57440083219045
 20
0.2633691175830714
 10
10.64015453398973
 20
0.300113407037669
 10
10.70723868589157
 20
0.3389582937297249
 10
10.77560399487764
 20
0.3799527724985308
 10
10.84519998506771
 20
0.4231448153841443
 10
10.91597501757156
 20
0.4685813469774818
 10
10.98787631081712
 20
0.5163082201398667
 10
10.96609067106441
 20
0.8630500530062943
 10
10.93336572030904
 20
1.208930943425328
 10
10.85488352342549
 20
1.244822379236309
 10
10.7778720095031
 20
1.278627857380185
 10
10.70237613731739
 20
1.310400923050462
 10
10.62843956937487
 20
1.340196001220642
 10
10.55610465563349
 20
1.368068369482682
 10
10.48541241775125
 20
1.394074130595055
 10
10.41640253386799
 20
1.4182701847502
 10
10.34911332392519
 20
1.440714201571265
 10
10.28358173552858
 20
1.461464591848142
 10
10.21984333035801
 20
1.480580479022812
 10
10.15793227112888
 20
1.498121670434172
 10
10.09788130910935
 20
1.514148628332532
 10
10.03972177219726
 20
1.528722440674056
 10
9.98348355356058
 20
1.541904791705518
 10
9.929195100844874
 20
1.553757932349757
 10
9.876883405951377
 20
1.564344650402309
 10
9.802740796465367
 20
1.577892610892935
 10
9.733111337040114
 20
1.58898616060109
 10
9.668065834209651
 20
1.597838019387081
 10
9.607667744380317
 20
1.604662801594685
 10
9.551973125575604
 20
1.609676791574212
 10
9.501030595593299
 20
1.613097718020024
 10
9.454881296603205
 20
1.615144527298153
 10
9.413558866209002
 20
1.61603715594029
 10
9.377089414993314
 20
1.615996302480975
 10
9.345491510560038
 20
1.615243198815229
 10
9.318776168083621
 20
1.613999381254154
 10
9.296946847369979
 20
1.612486461456193
 10
9.279999456429227
 20
1.610925897411823
 10
9.26792236155554
 20
1.609538764659316
 10
9.260696403904834
 20
1.608545527909079
 10
9.25829492255626
 20
1.608165813253698
 10
8.620912709159596
 20
1.497452523805205
 10
8.50823680347967
 20
2.042646933739172
 10
8.361118687938186
 20
2.5795725006696
 10
8.979293180080766
 20
2.770291707041687
 10
8.981605302476218
 20
2.771043628523967
 10
8.988494597935107
 20
2.773439164224383
 10
8.99988511335232
 20
2.777686106229092
 10
9.015693830498879
 20
2.783989587966618
 10
9.035830748888477
 20
2.792551870775822
 10
9.060198974687028
 20
2.803572132895585
 10
9.088694815597325
 20
2.817246261040401
 10
9.121207881646484
 20
2.833766644724253
 10
9.157621191799711
 20
2.85332197349319
 10
9.197811286319558
 20
2.876097037224917
 10
9.241648344785744
 20
2.902272529651566
 10
9.288996309686434
 20
2.932024855259495
 10
9.339713015487842
 20
2.965525939717568
 10
9.393650323085021
 20
3.002943043982892
 10
9.45065425953274
 20
3.044438582230331
 10
9.510565162951533
 20
3.090169943749473
 10
9.55236895497371
 20
3.123351791110961
 10
9.595359107286937
 20
3.15855945853559
 10
9.639483064868438
 20
3.195836636292095
 10
9.684687219352842
 20
3.235225875398028
 10
9.730916931670446
 20
3.276768565705444
 10
9.77811655510815
 20
3.320504914413843
 10
9.826229458785097
 20
3.366473925018112
 10
9.875198051535309
 20
3.414713376699166
 10
9.924963806189069
 20
3.465259804164741
 10
9.975467284244917
 20
3.51814847794772
 10
10.02664816092395
 20
3.573413385169191
 10
10.07844525059792
 20
3.631087210773317
 10
10.13079653258254
 20
3.691201319240901
 10
10.18363917728739
 20
3.753785736788447
 10
10.23690957271339
 20
3.818869134059272
 10
10.29054335128907
 20
3.886478809313164
 10
10.16267485762415
 20
4.209517756015987
 10
10.0246685067938
 20
4.528357464787486
 10
9.938936438416432
 20
4.538239916101811
 10
9.855247669021361
 20
4.546592969812458
 10
9.77362841057025
 20
4.553481443450305
 10
9.6941033703327
 20
4.558970590697581
 10
9.616695743796862
 20
4.56312607052504
 10
9.541427208172099
 20
4.566013916216171
 10
9.468317916485393
 20
4.567700504289282
 10
9.397386492273192
 20
4.568252523328403
 10
9.32865002486996
 20
4.56773694273396
 10
9.262124065294701
 20
4.566220981404131
 10
9.197822622736403
 20
4.563772076357928
 10
9.135758161639213
 20
4.560457851310954
 10
9.075941599387905
 20
4.556346085214811
 10
9.018382304594118
 20
4.551504680771264
 10
8.963088095983476
 20
4.546001632932057
 10
8.910065241883677
 20
4.539904997395467
 10
8.835364879966157
 20
4.529878547164104
 10
8.765715233465897
 20
4.518912453631346
 10
8.701117909346612
 20
4.50723090582881
 10
8.641566938757588
 20
4.495057623234598
 10
8.587048800507491
 20
4.482615627371374
 10
8.537542451002997
 20
4.470127014258443
 10
8.493019360624828
 20
4.457812727893591
 10
8.453443556509182
 20
4.445892334939643
 10
8.418771671698
 20
4.434583800789773
 10
8.388953000616704
 20
4.424103267184502
 10
8.363929560833725
 20
4.4146648315522
 10
8.343636161051414
 20
4.40648032824354
 10
8.328000475273534
 20
4.399759111829037
 10
8.316943123089976
 20
4.394707842627152
 10
8.310377756015061
 20
4.391530274628913
 10
8.308211149811264
 20
4.390427045983196
 10
7.736236930332476
 20
4.088170514760847
 10
7.460601438098307
 20
4.571862441264552
 10
7.15476467075161
 20
5.03704700257647
 10
7.683748073788581
 20
5.409458170140443
 10
7.685714676342788
 20
5.410887775079178
 10
7.691526524439584
 20
5.415294974293142
 10
7.701047171097507
 20
5.422853918999658
 10
7.714134271573382
 20
5.433734048639033
 10
7.730639728127223
 20
5.448099913495815
 10
7.750409839786014
 20
5.466111001490615
 10
7.773285456991053
 20
5.487921569277684
 10
7.799102141009934
 20
5.513680477780333
 10
7.827690327990847
 20
5.543531032293116
 10
7.858875497533389
 20
5.577610827276381
 10
7.8924783456469
 20
5.616051595965441
 10
7.928314961963988
 20
5.658979064913177
 10
7.966197011073906
 20
5.706512813581332
 10
8.005931917837335
 20
5.758766139092121
 10
8.047323056541218
 20
5.815845926248137
 10
8.090169943749473
 20
5.87785252292473
 10
8.119673957818556
 20
5.922328417244752
 10
8.149680254746059
 20
5.969097586428053
 10
8.180125350699583
 20
6.018185341994234
 10
8.210945112106355
 20
6.06961558646987
 10
8.242074783955418
 20
6.123410799542374
 10
8.273449018369718
 20
6.179592024750802
 10
8.305001903438237
 20
6.238178856718535
 10
8.336666992298355
 20
6.299189428932747
 10
8.368377332458358
 20
6.362640402075229
 10
8.400065495350049
 20
6.42854695290904
 10
8.431663606101353
 20
6.496922763725296
 10
8.46310337351861
 20
6.567780012354189
 10
8.49431612026831
 20
6.641129362744124
 10
8.525232813247879
 20
6.716979956112771
 10
8.555784094135053
 20
6.795339402673521
 10
8.585900310105362
 20
6.876213773940764
 10
8.36446562160034
 20
7.14392853163202
 10
8.134686893861067
 20
7.404516806574554
 10
8.050097006173099
 20
7.38742291020249
 10
7.967923021147676
 20
7.369505884383561
 10
7.88816983812317
 20
7.350835474194489
 10
7.81084079061258
 20
7.331481374541159
 10
7.735937649098264
 20
7.311513198615595
 10
7.663460624424646
 20
7.291000446428431
 10
7.593408371787181
 20
7.270012473427761
 10
7.525777995315762
 20
7.248618459215248
 10
7.460565053250463
 20
7.22688737637033
 10
7.397763563707357
 20
7.204887959393289
 10
7.337366011031996
 20
7.182688673777971
 10
7.279363352737866
 20
7.160357685224822
 10
7.223745027026987
 20
7.137962829004863
 10
7.170498960889699
 20
7.115571579485289
 10
7.119611578780339
 20
7.093251019827125
 10
7.071067811865476
 20
7.071067811865476
 10
7.003121889408956
 20
7.038448409719154
 10
6.940269848510759
 20
7.006496110585736
 10
6.882443939263469
 20
6.975424627483715
 10
6.829569351832016
 20
6.945444885804255
 10
6.781564309358661
 20
6.916764813341858
 10
6.738340166752495
 20
6.88958913313496
 10
6.699801515283079
 20
6.864119159275197
 10
6.665846292893671
 20
6.840552595841757
 10
6.636365900145542
 20
6.819083339115112
 10
6.611245321700558
 20
6.799901283221771
 10
6.590363253245533
 20
6.783192129359378
 10
6.573592233757678
 20
6.76913719874866
 10
6.560798783006832
 20
6.757913249456144
 10
6.551843544186236
 20
6.749692297228623
 10
6.546581431560005
 20
6.744641440477468
 10
6.544861783011847
 20
6.742922689547904
 10
6.094284379232239
 20
6.278709891772827
 10
5.682670422889108
 20
6.653552199000271
 10
5.248052437415149
 20
7.001460248701046
 10
5.636064170213162
 20
7.519109177634566
 10
5.637492748165992
 20
7.521076526337708
 10
5.641658244715456
 20
7.527063981699395
 10
5.648377075384963
 20
7.537195006933578
 10
5.657461502612384
 20
7.551586761579379
 10
5.668719828242702
 20
7.570349977538693
 10
5.681956589486102
 20
7.593588840624969
 10
5.696972758190056
 20
7.62140087771613
 10
5.713565943271479
 20
7.653876849600469
 10
5.731530596152774
 20
7.691100649600346
 10
5.750658219043336
 20
7.733149208054292
 10
5.770737575906011
 20
7.780092402733892
 10
5.791554905945993
 20
7.831992975267569
 10
5.812894139457786
 20
7.888906453639065
 10
5.834537115864086
 20
7.950881080823995
 10
5.856263803778777
 20
8.017957749623497
 10
5.87785252292473
 20
8.090169943749473
 10
5.892168700577085
 20
8.141586274610209
 10
5.906253916709438
 20
8.195338853412558
 10
5.920039972919594
 20
8.25143213525909
 10
5.933458488268337
 20
8.309869034439572
 10
5.946440930475091
 20
8.370650920008339
 10
5.958918647204372
 20
8.433777611955783
 10
5.970822897432082
 20
8.499247377975516
 10
5.98208488288083
 20
8.567056930828908
 10
5.992635779513281
 20
8.637201426308184
 10
6.002406769072563
 20
8.709674461799271
 10
6.011329070658816
 20
8.784468075445332
 10
6.019333972330824
 20
8.861572745911715
 10
6.026352862721744
 20
8.940977392752858
 10
6.032317262657926
 20
9.022669377381522
 10
6.037158856769747
 20
9.106634504640464
 10
6.040809525083496
 20
9.19285702497654
 10
5.747484211875437
 20
9.379041807895016
 10
5.448425450060897
 20
9.555870453031934
 10
5.373257990641632
 20
9.513473478650559
 10
5.300642552179968
 20
9.47104021662447
 10
5.230562241809605
 20
9.428638512442182
 10
5.162998692979466
 20
9.386335680010257
 10
5.097932077858966
 20
9.344198472517725
 10
5.035341120288671
 20
9.302293053557095
 10
4.975203109271345
 20
9.260684968511757
 10
4.917493912998276
 20
9.219439116219592
 10
4.862187993405543
 20
9.178619720922416
 10
4.809258421254778
 20
9.138290304510825
 10
4.758676891732712
 20
9.098513659073937
 10
4.710413740563753
 20
9.059351819763345
 10
4.664437960629547
 20
9.020866037980516
 10
4.620717219089434
 20
8.983116754896901
 10
4.579217874995459
 20
8.946163575315605
 10
4.539904997395467
 20
8.910065241883679
 10
4.485364534697074
 20
8.858045902177222
 10
4.435462495079972
 20
8.808235111107079
 10
4.390068403598605
 20
8.760815185959352
 10
4.349045932341426
 20
8.715963611191373
 10
4.312253053672902
 20
8.673852867448234
 10
4.279542198203668
 20
8.634650265070119
 10
4.250760417363403
 20
8.598517782216582
 10
4.225749550447654
 20
8.565611907730419
 10
4.204346396006738
 20
8.536083488860509
 10
4.186382887441625
 20
8.51007758395918
 10
4.171686272668857
 20
8.487733320266271
 10
4.160079297713492
 20
8.46918375688813
 10
4.151380394086389
 20
8.454555753076205
 10
4.14540386979933
 20
8.443969841905819
 10
4.141960103868935
 20
8.437540109451941
 10
4.140855744157805
 20
8.435374079554757
 10
3.855780811716695
 20
7.854645398233924
 10
3.348480033194536
 20
8.083945909473758
 10
2.827624266173072
 20
8.280521783640763
 10
3.036683036889149
 20
8.892737390107648
 10
3.037433751077091
 20
8.895049904776812
 10
3.039545148254242
 20
8.902031522438365
 10
3.042804476976556
 20
8.91374293286329
 10
3.046996983923577
 20
8.930237547297537
 10
3.051906135276309
 20
8.951561440050272
 10
3.057313839687875
 20
8.977753296394459
 10
3.063000672674202
 20
9.008844366821375
 10
3.068746102250878
 20
9.044858427685959
 10
3.074328715641438
 20
9.085811748275477
 10
3.079526446881505
 20
9.1317130643291
 10
3.084116805142521
 20
9.182563558031532
 10
3.087877103598216
 20
9.238356844499
 10
3.090584688656568
 20
9.299078964771315
 10
3.092017169379606
 20
9.364708385318908
 10
3.091952646913279
 20
9.435216004069165
 10
3.090169943749475
 20
9.510565162951533
 10
3.087896917769813
 20
9.563888941649692
 10
3.084682294014507
 20
9.619363253141676
 10
3.080459835246345
 20
9.676971260016549
 10
3.07516360676243
 20
9.736694603056272
 10
3.068728007429686
 20
9.798513406669532
 10
3.061087800623123
 20
9.862406284918647
 10
3.052178145055944
 20
9.928350348137688
 10
3.041934625490733
 20
9.996321210140033
 10
3.030293283320829
 20
10.06629299601316
 10
3.017190647011151
 20
10.13823835049832
 10
3.002563762387762
 20
10.21212844695276
 10
2.986350222765434
 20
10.28793299689156
 10
2.968488198902627
 20
10.36562026010639
 10
2.948916468773247
 20
10.4451570553581
 10
2.927574447144684
 20
10.52650877163968
 10
2.904402214951619
 20
10.60963938000647
 10
2.567899002414959
 20
10.69606912437444
 10
2.228834161796476
 20
10.77182891988213
 10
2.170447045296356
 20
10.70827897874098
 10
2.114498258456588
 20
10.64548314384477
 10
2.060950769797654
 20
10.58350071990467
 10
2.009766310550384
 20
10.52239005067375
 10
1.96090539545746
 20
10.46220849507081
 10
1.914327344014315
 20
10.4030124037168
 10
1.869990302141665
 20
10.34485709589161
 10
1.827851264281763
 20
10.2877968369189
 10
1.787866095910336
 20
10.23188481598661
 10
1.749989556456041
 20
10.1771731244104
 10
1.71417532261913
 20
10.12371273434749
 10
1.680376012080907
 20
10.07155347796775
 10
1.648543207595428
 20
10.02074402708917
 10
1.618627481454756
 20
9.971331873284454
 10
1.590578420319015
 20
9.923363308465387
 10
1.564344650402309
 20
9.876883405951377
 10
1.528548447956708
 20
9.810556144095305
 10
1.496481168946378
 20
9.747762688370571
 10
1.46796238518436
 20
9.688636113844643
 10
1.442807595408474
 20
9.633303090625731
 10
1.420828423859916
 20
9.581883768602234
 10
1.401832821970873
 20
9.534491667914265
 10
1.385625273002865
 20
9.491233575238468
 10
1.372006999475444
 20
9.452209445962996
 10
1.360776173222963
 20
9.4175123123254
 10
1.351728127915198
 20
9.387228197581619
 10
1.344655573875982
 20
9.361436036270092
 10
1.339348815032287
 20
9.340207600630389
 10
1.335595967824774
 20
9.323607433231466
 10
1.333183181909364
 20
9.311692785859952
 10
1.331894862478198
 20
9.304513564714515
 10
1.331513894027148
 20
9.302112281947664
 10
1.23984655354572
 20
8.661713486583404
 10
0.6865170876186439
 20
8.723026670164868
 10
0.1304085305412553
 20
8.749028152609984
 10
0.1400502100996016
 20
9.39588250749231
 10
0.1400495753874068
 20
9.398313823079437
 10
0.1399001949255747
 20
9.405606193660354
 10
0.1393809758962772
 20
9.417751594825436
 10
0.1382711707720099
 20
9.434734461262567
 10
0.1363506059086812
 20
9.456531699613786
 10
0.1333999097029179
 20
9.483112707827523
 10
0.1292007401364222
 20
9.514439400992579
 10
0.1235360115306234
 20
9.55046624363527
 10
0.1161901203354249
 20
9.591140288456565
 10
0.1069491697764973
 20
9.636401221481259
 10
0.09560119318635764
 20
9.686181413586706
 10
0.08193637584538326
 20
9.740405978373847
 10
0.06574727515992813
 20
9.798992836338835
 10
0.0468290390058541
 20
9.861852785298833
 10
0.02497962206706639
 20
9.928889577021105
 10
9.072263904897337e-16
 20
9.999999999999998
 10
-0.01863972999168437
 20
10.05001152354799
 10
-0.03883952386387693
 20
10.10177735560852
 10
-0.06065717392653018
 20
10.15526101442023
 10
-0.08414971449810395
 20
10.21042466438547
 10
-0.1093733940681993
 20
10.26722913082862
 10
-0.1363836477359308
 20
10.32563391528853
 10
-0.1652350699338605
 20
10.38559721133969
 10
-0.1959813874471905
 20
10.44707592093736
 10
-0.2286754327378595
 20
10.51002567128097
 10
-0.2633691175830707
 20
10.57440083219045
 10
-0.3001134070376684
 20
10.64015453398973
 10
-0.3389582937297242
 20
10.70723868589157
 10
-0.3799527724985301
 20
10.77560399487764
 10
-0.4231448153841436
 20
10.84519998506771
 10
-0.4685813469774811
 20
10.91597501757156
 10
-0.516308220139866
 20
10.98787631081712
 10
-0.8630500530062937
 20
10.96609067106441
 10
-1.208930943425327
 20
10.93336572030904
 10
-1.244822379236308
 20
10.85488352342549
 10
-1.278627857380185
 20
10.7778720095031
 10
-1.310400923050462
 20
10.70237613731739
 10
-1.340196001220641
 20
10.62843956937487
 10
-1.368068369482682
 20
10.55610465563349
 10
-1.394074130595055
 20
10.48541241775125
 10
-1.418270184750199
 20
10.41640253386799
 10
-1.440714201571264
 20
10.34911332392519
 10
-1.461464591848141
 20
10.28358173552858
 10
-1.480580479022812
 20
10.21984333035801
 10
-1.498121670434171
 20
10.15793227112888
 10
-1.514148628332532
 20
10.09788130910935
 10
-1.528722440674055
 20
10.03972177219726
 10
-1.541904791705518
 20
9.98348355356058
 10
-1.553757932349756
 20
9.929195100844874
 10
-1.564344650402308
 20
9.876883405951377
 10
-1.577892610892934
 20
9.802740796465367
 10
-1.58898616060109
 20
9.733111337040114
 10
-1.59783801938708
 20
9.668065834209651
 10
-1.604662801594684
 20
9.607667744380317
 10
-1.609676791574211
 20
9.551973125575604
 10
-1.613097718020023
 20
9.501030595593299
 10
-1.615144527298152
 20
9.454881296603205
 10
-1.616037155940289
 20
9.413558866209002
 10
-1.615996302480974
 20
9.377089414993314
 10
-1.615243198815229
 20
9.345491510560038
 10
-1.613999381254154
 20
9.318776168083621
 10
-1.612486461456193
 20
9.296946847369979
 10
-1.610925897411822
 20
9.279999456429227
 10
-1.609538764659316
 20
9.26792236155554
 10
-1.608545527909079
 20
9.260696403904834
 10
-1.608165813253697
 20
9.25829492255626
 10
-1.497452523805204
 20
8.620912709159596
 10
-2.042646933739172
 20
8.50823680347967
 10
-2.5795725006696
 20
8.361118687938188
 10
-2.770291707041686
 20
8.979293180080768
 10
-2.771043628523966
 20
8.98160530247622
 10
-2.773439164224382
 20
8.988494597935107
 10
-2.777686106229091
 20
8.999885113352322
 10
-2.783989587966617
 20
9.015693830498881
 10
-2.792551870775821
 20
9.035830748888477
 10
-2.803572132895585
 20
9.06019897468703
 10
-2.817246261040401
 20
9.088694815597325
 10
-2.833766644724253
 20
9.121207881646484
 10
-2.853321973493189
 20
9.157621191799713
 10
-2.876097037224916
 20
9.197811286319558
 10
-2.902272529651566
 20
9.241648344785744
 10
-2.932024855259495
 20
9.288996309686436
 10
-2.965525939717568
 20
9.339713015487842
 10
-3.002943043982891
 20
9.393650323085023
 10
-3.044438582230331
 20
9.45065425953274
 10
-3.090169943749472
 20
9.510565162951535
 10
-3.12335179111096
 20
9.552368954973712
 10
-3.15855945853559
 20
9.595359107286937
 10
-3.195836636292095
 20
9.63948306486844
 10
-3.235225875398027
 20
9.684687219352842
 10
-3.276768565705444
 20
9.730916931670448
 10
-3.320504914413843
 20
9.778116555108152
 10
-3.366473925018111
 20
9.826229458785097
 10
-3.414713376699165
 20
9.875198051535309
 10
-3.46525980416474
 20
9.924963806189069
 10
-3.518148477947719
 20
9.975467284244919
 10
-3.57341338516919
 20
10.02664816092395
 10
-3.631087210773316
 20
10.07844525059792
 10
-3.691201319240901
 20
10.13079653258254
 10
-3.753785736788446
 20
10.18363917728739
 10
-3.818869134059271
 20
10.23690957271339
 10
-3.886478809313164
 20
10.29054335128907
 10
-4.209517756015986
 20
10.16267485762415
 10
-4.528357464787486
 20
10.02466850679381
 10
-4.538239916101811
 20
9.938936438416432
 10
-4.546592969812458
 20
9.855247669021361
 10
-4.553481443450305
 20
9.773628410570252
 10
-4.55897059069758
 20
9.6941033703327
 10
-4.56312607052504
 20
9.616695743796864
 10
-4.566013916216171
 20
9.541427208172101
 10
-4.567700504289281
 20
9.468317916485395
 10
-4.568252523328403
 20
9.397386492273194
 10
-4.567736942733959
 20
9.32865002486996
 10
-4.566220981404131
 20
9.262124065294703
 10
-4.563772076357928
 20
9.197822622736405
 10
-4.560457851310953
 20
9.135758161639215
 10
-4.556346085214811
 20
9.075941599387905
 10
-4.551504680771264
 20
9.018382304594118
 10
-4.546001632932056
 20
8.963088095983478
 10
-4.539904997395467
 20
8.910065241883679
 10
-4.529878547164103
 20
8.835364879966157
 10
-4.518912453631345
 20
8.765715233465899
 10
-4.507230905828809
 20
8.701117909346614
 10
-4.495057623234597
 20
8.64156693875759
 10
-4.482615627371374
 20
8.587048800507493
 10
-4.470127014258443
 20
8.537542451002997
 10
-4.457812727893591
 20
8.49301936062483
 10
-4.445892334939643
 20
8.453443556509182
 10
-4.434583800789772
 20
8.418771671698002
 10
-4.424103267184502
 20
8.388953000616706
 10
-4.4146648315522
 20
8.363929560833727
 10
-4.40648032824354
 20
8.343636161051416
 10
-4.399759111829037
 20
8.328000475273534
 10
-4.394707842627152
 20
8.316943123089978
 10
-4.391530274628913
 20
8.310377756015061
 10
-4.390427045983196
 20
8.308211149811266
 10
-4.088170514760846
 20
7.736236930332476
 10
-4.571862441264551
 20
7.460601438098308
 10
-5.037047002576469
 20
7.15476467075161
 10
-5.409458170140442
 20
7.683748073788581
 10
-5.410887775079177
 20
7.685714676342788
 10
-5.415294974293141
 20
7.691526524439584
 10
-5.422853918999657
 20
7.701047171097507
 10
-5.433734048639032
 20
7.714134271573382
 10
-5.448099913495814
 20
7.730639728127223
 10
-5.466111001490614
 20
7.750409839786014
 10
-5.487921569277683
 20
7.773285456991053
 10
-5.513680477780332
 20
7.799102141009934
 10
-5.543531032293116
 20
7.827690327990847
 10
-5.57761082727638
 20
7.858875497533389
 10
-5.616051595965439
 20
7.8924783456469
 10
-5.658979064913176
 20
7.928314961963988
 10
-5.706512813581331
 20
7.966197011073906
 10
-5.75876613909212
 20
8.005931917837335
 10
-5.815845926248135
 20
8.047323056541218
 10
-5.877852522924729
 20
8.090169943749473
 10
-5.922328417244751
 20
8.119673957818556
 10
-5.969097586428052
 20
8.149680254746059
 10
-6.018185341994232
 20
8.180125350699583
 10
-6.069615586469869
 20
8.210945112106355
 10
-6.123410799542373
 20
8.242074783955418
 10
-6.179592024750801
 20
8.273449018369718
 10
-6.238178856718533
 20
8.305001903438237
 10
-6.299189428932745
 20
8.336666992298355
 10
-6.362640402075228
 20
8.368377332458358
 10
-6.428546952909038
 20
8.400065495350049
 10
-6.496922763725295
 20
8.431663606101353
 10
-6.567780012354188
 20
8.46310337351861
 10
-6.641129362744123
 20
8.49431612026831
 10
-6.716979956112769
 20
8.525232813247879
 10
-6.79533940267352
 20
8.555784094135053
 10
-6.876213773940762
 20
8.585900310105362
 10
-7.143928531632019
 20
8.364465621600342
 10
-7.404516806574553
 20
8.134686893861067
 10
-7.387422910202488
 20
8.050097006173099
 10
-7.369505884383559
 20
7.967923021147676
 10
-7.350835474194488
 20
7.88816983812317
 10
-7.331481374541157
 20
7.81084079061258
 10
-7.311513198615594
 20
7.735937649098264
 10
-7.291000446428431
 20
7.663460624424646
 10
-7.27001247342776
 20
7.593408371787181
 10
-7.248618459215248
 20
7.525777995315762
 10
-7.226887376370328
 20
7.460565053250463
 10
-7.204887959393288
 20
7.397763563707357
 10
-7.182688673777969
 20
7.337366011031996
 10
-7.160357685224821
 20
7.279363352737866
 10
-7.137962829004861
 20
7.223745027026987
 10
-7.115571579485288
 20
7.170498960889699
 10
-7.093251019827124
 20
7.119611578780339
 10
-7.071067811865474
 20
7.071067811865476
 10
-7.038448409719154
 20
7.003121889408956
 10
-7.006496110585735
 20
6.940269848510759
 10
-6.975424627483713
 20
6.88244393926347
 10
-6.945444885804254
 20
6.829569351832016
 10
-6.916764813341856
 20
6.781564309358661
 10
-6.889589133134959
 20
6.738340166752495
 10
-6.864119159275196
 20
6.699801515283079
 10
-6.840552595841756
 20
6.665846292893671
 10
-6.81908333911511
 20
6.636365900145542
 10
-6.79990128322177
 20
6.611245321700558
 10
-6.783192129359378
 20
6.590363253245534
 10
-6.769137198748659
 20
6.573592233757678
 10
-6.757913249456143
 20
6.560798783006832
 10
-6.749692297228622
 20
6.551843544186236
 10
-6.744641440477467
 20
6.546581431560005
 10
-6.742922689547903
 20
6.544861783011848
 10
-6.278709891772826
 20
6.094284379232239
 10
-6.65355219900027
 20
5.682670422889108
 10
-7.001460248701045
 20
5.24805243741515
 10
-7.519109177634564
 20
5.636064170213162
 10
-7.521076526337707
 20
5.637492748165993
 10
-7.527063981699394
 20
5.641658244715457
 10
-7.537195006933577
 20
5.648377075384964
 10
-7.551586761579379
 20
5.657461502612385
 10
-7.570349977538692
 20
5.668719828242703
 10
-7.593588840624968
 20
5.681956589486103
 10
-7.62140087771613
 20
5.696972758190057
 10
-7.653876849600468
 20
5.71356594327148
 10
-7.691100649600346
 20
5.731530596152775
 10
-7.733149208054291
 20
5.750658219043337
 10
-7.780092402733891
 20
5.770737575906012
 10
-7.831992975267569
 20
5.791554905945993
 10
-7.888906453639064
 20
5.812894139457787
 10
-7.950881080823994
 20
5.834537115864087
 10
-8.017957749623495
 20
5.856263803778778
 10
-8.090169943749473
 20
5.877852522924732
 10
-8.141586274610209
 20
5.892168700577087
 10
-8.195338853412556
 20
5.906253916709439
 10
-8.251432135259089
 20
5.920039972919595
 10
-8.30986903443957
 20
5.933458488268338
 10
-8.370650920008337
 20
5.946440930475092
 10
-8.433777611955781
 20
5.958918647204374
 10
-8.499247377975514
 20
5.970822897432082
 10
-8.567056930828906
 20
5.982084882880831
 10
-8.637201426308183
 20
5.992635779513281
 10
-8.709674461799271
 20
6.002406769072564
 10
-8.78446807544533
 20
6.011329070658817
 10
-8.861572745911714
 20
6.019333972330826
 10
-8.940977392752856
 20
6.026352862721746
 10
-9.022669377381522
 20
6.032317262657926
 10
-9.106634504640464
 20
6.037158856769749
 10
-9.19285702497654
 20
6.040809525083497
 10
-9.379041807895014
 20
5.747484211875438
 10
-9.555870453031934
 20
5.448425450060899
 10
-9.513473478650557
 20
5.373257990641632
 10
-9.47104021662447
 20
5.300642552179969
 10
-9.428638512442181
 20
5.230562241809607
 10
-9.386335680010255
 20
5.162998692979467
 10
-9.344198472517723
 20
5.097932077858967
 10
-9.302293053557094
 20
5.035341120288674
 10
-9.260684968511756
 20
4.975203109271347
 10
-9.219439116219592
 20
4.917493912998276
 10
-9.178619720922415
 20
4.862187993405545
 10
-9.138290304510825
 20
4.809258421254778
 10
-9.098513659073937
 20
4.758676891732713
 10
-9.059351819763343
 20
4.710413740563754
 10
-9.020866037980516
 20
4.664437960629548
 10
-8.983116754896901
 20
4.620717219089435
 10
-8.946163575315605
 20
4.57921787499546
 10
-8.910065241883677
 20
4.539904997395469
 10
-8.858045902177221
 20
4.485364534697076
 10
-8.808235111107079
 20
4.435462495079975
 10
-8.76081518595935
 20
4.390068403598606
 10
-8.715963611191372
 20
4.349045932341427
 10
-8.673852867448232
 20
4.312253053672903
 10
-8.634650265070119
 20
4.279542198203669
 10
-8.598517782216582
 20
4.250760417363404
 10
-8.565611907730418
 20
4.225749550447656
 10
-8.536083488860509
 20
4.20434639600674
 10
-8.510077583959179
 20
4.186382887441626
 10
-8.487733320266269
 20
4.171686272668858
 10
-8.469183756888128
 20
4.160079297713493
 10
-8.454555753076205
 20
4.15138039408639
 10
-8.443969841905819
 20
4.145403869799331
 10
-8.437540109451939
 20
4.141960103868936
 10
-8.435374079554757
 20
4.140855744157806
 10
-7.854645398233923
 20
3.855780811716696
 10
-8.083945909473758
 20
3.348480033194537
 10
-8.280521783640763
 20
2.827624266173073
 10
-8.892737390107648
 20
3.03668303688915
 10
-8.895049904776812
 20
3.037433751077092
 10
-8.902031522438365
 20
3.039545148254243
 10
-8.91374293286329
 20
3.042804476976556
 10
-8.930237547297537
 20
3.046996983923577
 10
-8.951561440050272
 20
3.051906135276309
 10
-8.977753296394459
 20
3.057313839687875
 10
-9.008844366821375
 20
3.063000672674203
 10
-9.044858427685959
 20
3.068746102250878
 10
-9.085811748275477
 20
3.074328715641438
 10
-9.1317130643291
 20
3.079526446881506
 10
-9.182563558031532
 20
3.084116805142521
 10
-9.238356844499
 20
3.087877103598216
 10
-9.299078964771315
 20
3.090584688656568
 10
-9.364708385318908
 20
3.092017169379607
 10
-9.435216004069165
 20
3.091952646913279
 10
-9.510565162951533
 20
3.090169943749475
 10
-9.563888941649692
 20
3.087896917769813
 10
-9.619363253141676
 20
3.084682294014508
 10
-9.676971260016549
 20
3.080459835246345
 10
-9.736694603056272
 20
3.075163606762431
 10
-9.798513406669532
 20
3.068728007429687
 10
-9.862406284918647
 20
3.061087800623123
 10
-9.928350348137688
 20
3.052178145055945
 10
-9.996321210140033
 20
3.041934625490734
 10
-10.06629299601316
 20
3.03029328332083
 10
-10.13823835049832
 20
3.017190647011152
 10
-10.21212844695276
 20
3.002563762387762
 10
-10.28793299689156
 20
2.986350222765435
 10
-10.36562026010639
 20
2.968488198902627
 10
-10.4451570553581
 20
2.948916468773248
 10
-10.52650877163968
 20
2.927574447144684
 10
-10.60963938000647
 20
2.90440221495162
 10
-10.69606912437444
 20
2.56789900241496
 10
-10.77182891988213
 20
2.228834161796477
 10
-10.70827897874098
 20
2.170447045296356
 10
-10.64548314384477
 20
2.114498258456589
 10
-10.58350071990467
 20
2.060950769797655
 10
-10.52239005067375
 20
2.009766310550385
 10
-10.46220849507081
 20
1.96090539545746
 10
-10.4030124037168
 20
1.914327344014316
 10
-10.34485709589161
 20
1.869990302141665
 10
-10.2877968369189
 20
1.827851264281764
 10
-10.23188481598661
 20
1.787866095910336
 10
-10.1771731244104
 20
1.749989556456041
 10
-10.12371273434749
 20
1.71417532261913
 10
-10.07155347796775
 20
1.680376012080908
 10
-10.02074402708917
 20
1.648543207595428
 10
-9.971331873284454
 20
1.618627481454756
 10
-9.923363308465387
 20
1.590578420319016
 10
-9.876883405951377
 20
1.56434465040231
 10
-9.810556144095305
 20
1.528548447956708
 10
-9.747762688370571
 20
1.496481168946379
 10
-9.688636113844643
 20
1.467962385184361
 10
-9.633303090625732
 20
1.442807595408475
 10
-9.581883768602234
 20
1.420828423859916
 10
-9.534491667914265
 20
1.401832821970873
 10
-9.491233575238468
 20
1.385625273002865
 10
-9.452209445962996
 20
1.372006999475445
 10
-9.4175123123254
 20
1.360776173222964
 10
-9.387228197581619
 20
1.351728127915199
 10
-9.361436036270092
 20
1.344655573875982
 10
-9.340207600630389
 20
1.339348815032288
 10
-9.323607433231466
 20
1.335595967824774
 10
-9.311692785859952
 20
1.333183181909364
 10
-9.304513564714515
 20
1.331894862478199
 10
-9.302112281947664
 20
1.331513894027149
 10
-8.661713486583404
 20
1.239846553545721
 10
-8.723026670164868
 20
0.6865170876186444
 10
-8.749028152609984
 20
0.1304085305412558
 10
-9.39588250749231
 20
0.1400502100996021
 10
-9.398313823079437
 20
0.1400495753874073
 10
-9.405606193660354
 20
0.1399001949255752
 10
-9.417751594825436
 20
0.1393809758962778
 10
-9.434734461262567
 20
0.1382711707720105
 10
-9.456531699613786
 20
0.1363506059086818
 10
-9.483112707827523
 20
0.1333999097029185
 10
-9.514439400992579
 20
0.1292007401364227
 10
-9.55046624363527
 20
0.123536011530624
 10
-9.591140288456565
 20
0.1161901203354255
 10
-9.636401221481259
 20
0.1069491697764979
 10
-9.686181413586706
 20
0.09560119318635822
 10
-9.740405978373847
 20
0.08193637584538385
 10
-9.798992836338835
 20
0.06574727515992873
 10
-9.861852785298833
 20
0.04682903900585471
 10
-9.928889577021105
 20
0.024979622067067
 10
-9.999999999999998
 20
1.51954979006341e-15
 10
-10.05001152354799
 20
-0.01863972999168375
 10
-10.10177735560852
 20
-0.03883952386387631
 10
-10.15526101442023
 20
-0.06065717392652956
 10
-10.21042466438547
 20
-0.08414971449810332
 10
-10.26722913082862
 20
-0.1093733940681986
 10
-10.32563391528853
 20
-0.1363836477359301
 10
-10.38559721133969
 20
-0.1652350699338599
 10
-10.44707592093736
 20
-0.1959813874471898
 10
-10.51002567128097
 20
-0.2286754327378588
 10
-10.57440083219045
 20
-0.2633691175830701
 10
-10.64015453398973
 20
-0.3001134070376678
 10
-10.70723868589157
 20
-0.3389582937297235
 10
-10.77560399487764
 20
-0.3799527724985294
 10
-10.84519998506771
 20
-0.4231448153841429
 10
-10.91597501757156
 20
-0.4685813469774804
 10
-10.98787631081712
 20
-0.5163082201398653
 10
-10.96609067106441
 20
-0.863050053006293
 10
-10.93336572030904
 20
-1.208930943425326
 10
-10.85488352342549
 20
-1.244822379236307
 10
-10.7778720095031
 20
-1.278627857380184
 10
-10.70237613731739
 20
-1.310400923050461
 10
-10.62843956937487
 20
-1.34019600122064
 10
-10.55610465563349
 20
-1.368068369482681
 10
-10.48541241775125
 20
-1.394074130595054
 10
-10.41640253386799
 20
-1.418270184750198
 10
-10.34911332392519
 20
-1.440714201571263
 10
-10.28358173552858
 20
-1.461464591848141
 10
-10.21984333035801
 20
-1.480580479022811
 10
-10.15793227112888
 20
-1.498121670434171
 10
-10.09788130910935
 20
-1.514148628332531
 10
-10.03972177219726
 20
-1.528722440674054
 10
-9.98348355356058
 20
-1.541904791705517
 10
-9.929195100844874
 20
-1.553757932349756
 10
-9.876883405951377
 20
-1.564344650402308
 10
-9.802740796465367
 20
-1.577892610892933
 10
-9.733111337040114
 20
-1.588986160601089
 10
-9.668065834209651
 20
-1.59783801938708
 10
-9.607667744380317
 20
-1.604662801594684
 10
-9.551973125575604
 20
-1.609676791574211
 10
-9.501030595593299
 20
-1.613097718020023
 10
-9.454881296603205
 20
-1.615144527298152
 10
-9.413558866209002
 20
-1.616037155940288
 10
-9.377089414993314
 20
-1.615996302480974
 10
-9.345491510560038
 20
-1.615243198815228
 10
-9.318776168083621
 20
-1.613999381254153
 10
-9.296946847369979
 20
-1.612486461456192
 10
-9.279999456429227
 20
-1.610925897411821
 10
-9.26792236155554
 20
-1.609538764659315
 10
-9.260696403904834
 20
-1.608545527909078
 10
-9.25829492255626
 20
-1.608165813253697
 10
-8.620912709159596
 20
-1.497452523805203
 10
-8.50823680347967
 20
-2.042646933739171
 10
-8.361118687938188
 20
-2.579572500669599
 10
-8.979293180080768
 20
-2.770291707041686
 10
-8.98160530247622
 20
-2.771043628523966
 10
-8.988494597935107
 20
-2.773439164224381
 10
-8.99988511335232
 20
-2.777686106229091
 10
-9.015693830498881
 20
-2.783989587966616
 10
-9.035830748888477
 20
-2.792551870775821
 10
-9.06019897468703
 20
-2.803572132895584
 10
-9.088694815597325
 20
-2.8172462610404
 10
-9.121207881646484
 20
-2.833766644724252
 10
-9.157621191799713
 20
-2.853321973493189
 10
-9.197811286319558
 20
-2.876097037224916
 10
-9.241648344785744
 20
-2.902272529651565
 10
-9.288996309686436
 20
-2.932024855259494
 10
-9.339713015487842
 20
-2.965525939717567
 10
-9.393650323085023
 20
-3.002943043982891
 10
-9.45065425953274
 20
-3.04443858223033
 10
-9.510565162951535
 20
-3.090169943749472
 10
-9.552368954973712
 20
-3.123351791110959
 10
-9.595359107286937
 20
-3.158559458535589
 10
-9.63948306486844
 20
-3.195836636292094
 10
-9.684687219352842
 20
-3.235225875398027
 10
-9.730916931670448
 20
-3.276768565705444
 10
-9.778116555108152
 20
-3.320504914413842
 10
-9.826229458785097
 20
-3.366473925018111
 10
-9.875198051535309
 20
-3.414713376699164
 10
-9.924963806189069
 20
-3.465259804164739
 10
-9.975467284244919
 20
-3.518148477947718
 10
-10.02664816092395
 20
-3.57341338516919
 10
-10.07844525059792
 20
-3.631087210773316
 10
-10.13079653258254
 20
-3.691201319240901
 10
-10.18363917728739
 20
-3.753785736788446
 10
-10.23690957271339
 20
-3.818869134059271
 10
-10.29054335128907
 20
-3.886478809313163
 10
-10.16267485762415
 20
-4.209517756015986
 10
-10.02466850679381
 20
-4.528357464787486
 10
-9.938936438416432
 20
-4.53823991610181
 10
-9.855247669021361
 20
-4.546592969812457
 10
-9.773628410570252
 20
-4.553481443450305
 10
-9.6941033703327
 20
-4.55897059069758
 10
-9.616695743796864
 20
-4.56312607052504
 10
-9.541427208172101
 20
-4.56601391621617
 10
-9.468317916485395
 20
-4.567700504289281
 10
-9.397386492273194
 20
-4.568252523328402
 10
-9.32865002486996
 20
-4.567736942733958
 10
-9.262124065294703
 20
-4.56622098140413
 10
-9.197822622736405
 20
-4.563772076357927
 10
-9.135758161639215
 20
-4.560457851310952
 10
-9.075941599387905
 20
-4.55634608521481
 10
-9.018382304594118
 20
-4.551504680771263
 10
-8.963088095983478
 20
-4.546001632932056
 10
-8.910065241883679
 20
-4.539904997395467
 10
-8.835364879966159
 20
-4.529878547164103
 10
-8.765715233465899
 20
-4.518912453631345
 10
-8.701117909346614
 20
-4.507230905828809
 10
-8.64156693875759
 20
-4.495057623234597
 10
-8.587048800507493
 20
-4.482615627371374
 10
-8.537542451002997
 20
-4.470127014258442
 10
-8.49301936062483
 20
-4.45781272789359
 10
-8.453443556509182
 20
-4.445892334939642
 10
-8.418771671698003
 20
-4.434583800789772
 10
-8.388953000616706
 20
-4.424103267184501
 10
-8.363929560833727
 20
-4.414664831552199
 10
-8.343636161051416
 20
-4.406480328243539
 10
-8.328000475273534
 20
-4.399759111829036
 10
-8.316943123089978
 20
-4.394707842627151
 10
-8.310377756015061
 20
-4.391530274628913
 10
-8.308211149811266
 20
-4.390427045983195
 10
-7.736236930332476
 20
-4.088170514760845
 10
-7.460601438098308
 20
-4.571862441264551
 10
-7.154764670751612
 20
-5.037047002576469
 10
-7.683748073788582
 20
-5.409458170140442
 10
-7.68571467634279
 20
-5.410887775079177
 10
-7.691526524439586
 20
-5.415294974293141
 10
-7.701047171097508
 20
-5.422853918999657
 10
-7.714134271573383
 20
-5.433734048639032
 10
-7.730639728127224
 20
-5.448099913495814
 10
-7.750409839786015
 20
-5.466111001490614
 10
-7.773285456991053
 20
-5.487921569277683
 10
-7.799102141009935
 20
-5.513680477780332
 10
-7.827690327990847
 20
-5.543531032293116
 10
-7.85887549753339
 20
-5.57761082727638
 10
-7.892478345646902
 20
-5.616051595965439
 10
-7.92831496196399
 20
-5.658979064913176
 10
-7.966197011073907
 20
-5.706512813581331
 10
-8.005931917837337
 20
-5.75876613909212
 10
-8.04732305654122
 20
-5.815845926248135
 10
-8.090169943749475
 20
-5.877852522924729
 10
-8.119673957818557
 20
-5.922328417244751
 10
-8.149680254746061
 20
-5.969097586428052
 10
-8.180125350699585
 20
-6.018185341994233
 10
-8.210945112106357
 20
-6.069615586469869
 10
-8.242074783955418
 20
-6.123410799542373
 10
-8.273449018369718
 20
-6.179592024750801
 10
-8.305001903438237
 20
-6.238178856718533
 10
-8.336666992298355
 20
-6.299189428932745
 10
-8.368377332458358
 20
-6.362640402075228
 10
-8.40006549535005
 20
-6.428546952909038
 10
-8.431663606101354
 20
-6.496922763725295
 10
-8.463103373518612
 20
-6.567780012354188
 10
-8.49431612026831
 20
-6.641129362744123
 10
-8.525232813247881
 20
-6.716979956112769
 10
-8.555784094135054
 20
-6.79533940267352
 10
-8.585900310105364
 20
-6.876213773940762
 10
-8.364465621600342
 20
-7.143928531632019
 10
-8.134686893861069
 20
-7.404516806574553
 10
-8.0500970061731
 20
-7.387422910202488
 10
-7.967923021147678
 20
-7.369505884383559
 10
-7.888169838123172
 20
-7.350835474194488
 10
-7.81084079061258
 20
-7.331481374541157
 10
-7.735937649098264
 20
-7.311513198615594
 10
-7.663460624424648
 20
-7.291000446428431
 10
-7.593408371787183
 20
-7.27001247342776
 10
-7.525777995315764
 20
-7.248618459215248
 10
-7.460565053250463
 20
-7.226887376370328
 10
-7.397763563707358
 20
-7.204887959393288
 10
-7.337366011031998
 20
-7.182688673777969
 10
-7.279363352737867
 20
-7.160357685224822
 10
-7.223745027026987
 20
-7.137962829004862
 10
-7.170498960889701
 20
-7.115571579485288
 10
-7.119611578780341
 20
-7.093251019827125
 10
-7.071067811865476
 20
-7.071067811865475
 10
-7.003121889408958
 20
-7.038448409719154
 10
-6.94026984851076
 20
-7.006496110585735
 10
-6.882443939263472
 20
-6.975424627483713
 10
-6.829569351832018
 20
-6.945444885804254
 10
-6.781564309358662
 20
-6.916764813341856
 10
-6.738340166752497
 20
-6.889589133134959
 10
-6.69980151528308
 20
-6.864119159275196
 10
-6.665846292893672
 20
-6.840552595841756
 10
-6.636365900145544
 20
-6.81908333911511
 10
-6.61124532170056
 20
-6.79990128322177
 10
-6.590363253245535
 20
-6.783192129359378
 10
-6.57359223375768
 20
-6.769137198748659
 10
-6.560798783006834
 20
-6.757913249456143
 10
-6.551843544186237
 20
-6.749692297228622
 10
-6.546581431560007
 20
-6.744641440477467
 10
-6.544861783011848
 20
-6.742922689547903
 10
-6.09428437923224
 20
-6.278709891772826
 10
-5.682670422889109
 20
-6.65355219900027
 10
-5.24805243741515
 20
-7.001460248701045
 10
-5.636064170213162
 20
-7.519109177634564
 10
-5.637492748165993
 20
-7.521076526337707
 10
-5.641658244715457
 20
-7.527063981699394
 10
-5.648377075384964
 20
-7.537195006933577
 10
-5.657461502612385
 20
-7.551586761579379
 10
-5.668719828242703
 20
-7.570349977538692
 10
-5.681956589486103
 20
-7.593588840624968
 10
-5.696972758190057
 20
-7.62140087771613
 10
-5.71356594327148
 20
-7.653876849600468
 10
-5.731530596152775
 20
-7.691100649600346
 10
-5.750658219043337
 20
-7.733149208054291
 10
-5.770737575906012
 20
-7.780092402733891
 10
-5.791554905945993
 20
-7.831992975267569
 10
-5.812894139457787
 20
-7.888906453639064
 10
-5.834537115864087
 20
-7.950881080823994
 10
-5.856263803778778
 20
-8.017957749623495
 10
-5.877852522924732
 20
-8.090169943749473
 10
-5.892168700577087
 20
-8.141586274610209
 10
-5.906253916709439
 20
-8.195338853412556
 10
-5.920039972919595
 20
-8.251432135259089
 10
-5.933458488268338
 20
-8.30986903443957
 10
-5.946440930475092
 20
-8.370650920008337
 10
-5.958918647204374
 20
-8.433777611955781
 10
-5.970822897432082
 20
-8.499247377975514
 10
-5.982084882880831
 20
-8.567056930828906
 10
-5.992635779513281
 20
-8.637201426308183
 10
-6.002406769072564
 20
-8.709674461799271
 10
-6.011329070658817
 20
-8.78446807544533
 10
-6.019333972330826
 20
-8.861572745911714
 10
-6.026352862721746
 20
-8.940977392752856
 10
-6.032317262657926
 20
-9.022669377381522
 10
-6.037158856769749
 20
-9.106634504640464
 10
-6.040809525083497
 20
-9.19285702497654
 10
-5.747484211875438
 20
-9.379041807895014
 10
-5.448425450060899
 20
-9.555870453031934
 10
-5.373257990641632
 20
-9.513473478650557
 10
-5.300642552179969
 20
-9.47104021662447
 10
-5.230562241809607
 20
-9.428638512442181
 10
-5.162998692979467
 20
-9.386335680010255
 10
-5.097932077858967
 20
-9.344198472517723
 10
-5.035341120288674
 20
-9.302293053557094
 10
-4.975203109271347
 20
-9.260684968511756
 10
-4.917493912998276
 20
-9.219439116219592
 10
-4.862187993405545
 20
-9.178619720922415
 10
-4.809258421254778
 20
-9.138290304510825
 10
-4.758676891732713
 20
-9.098513659073937
 10
-4.710413740563754
 20
-9.059351819763343
 10
-4.664437960629548
 20
-9.020866037980516
 10
-4.620717219089435
 20
-8.983116754896901
 10
-4.57921787499546
 20
-8.946163575315605
 10
-4.539904997395469
 20
-8.910065241883677
 10
-4.485364534697076
 20
-8.858045902177221
 10
-4.435462495079975
 20
-8.808235111107079
 10
-4.390068403598606
 20
-8.76081518595935
 10
-4.349045932341427
 20
-8.715963611191372
 10
-4.312253053672903
 20
-8.673852867448232
 10
-4.279542198203669
 20
-8.634650265070119
 10
-4.250760417363404
 20
-8.598517782216582
 10
-4.225749550447656
 20
-8.565611907730418
 10
-4.20434639600674
 20
-8.536083488860509
 10
-4.186382887441626
 20
-8.510077583959179
 10
-4.171686272668858
 20
-8.487733320266269
 10
-4.160079297713493
 20
-8.469183756888128
 10
-4.15138039408639
 20
-8.454555753076205
 10
-4.145403869799331
 20
-8.443969841905819
 10
-4.141960103868936
 20
-8.437540109451939
 10
-4.140855744157806
 20
-8.435374079554757
 10
-3.855780811716696
 20
-7.854645398233923
 10
-3.348480033194537
 20
-8.083945909473758
 10
-2.827624266173073
 20
-8.280521783640763
 10
-3.03668303688915
 20
-8.892737390107648
 10
-3.037433751077092
 20
-8.895049904776812
 10
-3.039545148254243
 20
-8.902031522438365
 10
-3.042804476976557
 20
-8.91374293286329
 10
-3.046996983923578
 20
-8.930237547297537
 10
-3.05190613527631
 20
-8.951561440050272
 10
-3.057313839687876
 20
-8.977753296394459
 10
-3.063000672674204
 20
-9.008844366821375
 10
-3.068746102250879
 20
-9.044858427685959
 10
-3.074328715641439
 20
-9.085811748275477
 10
-3.079526446881506
 20
-9.1317130643291
 10
-3.084116805142521
 20
-9.182563558031532
 10
-3.087877103598216
 20
-9.238356844499
 10
-3.090584688656568
 20
-9.299078964771315
 10
-3.092017169379607
 20
-9.364708385318908
 10
-3.091952646913279
 20
-9.435216004069165
 10
-3.090169943749475
 20
-9.510565162951533
 10
-3.087896917769814
 20
-9.563888941649692
 10
-3.084682294014509
 20
-9.619363253141676
 10
-3.080459835246346
 20
-9.676971260016549
 10
-3.075163606762431
 20
-9.736694603056272
 10
-3.068728007429688
 20
-9.798513406669532
 10
-3.061087800623124
 20
-9.862406284918647
 10
-3.052178145055946
 20
-9.928350348137688
 10
-3.041934625490735
 20
-9.996321210140033
 10
-3.03029328332083
 20
-10.06629299601316
 10
-3.017190647011152
 20
-10.13823835049832
 10
-3.002563762387763
 20
-10.21212844695276
 10
-2.986350222765435
 20
-10.28793299689156
 10
-2.968488198902628
 20
-10.36562026010639
 10
-2.948916468773249
 20
-10.4451570553581
 10
-2.927574447144685
 20
-10.52650877163968
 10
-2.904402214951621
 20
-10.60963938000647
 10
-2.567899002414961
 20
-10.69606912437444
 10
-2.228834161796478
 20
-10.77182891988213
 10
-2.170447045296357
 20
-10.70827897874098
 10
-2.114498258456589
 20
-10.64548314384477
 10
-2.060950769797655
 20
-10.58350071990467
 10
-2.009766310550385
 20
-10.52239005067375
 10
-1.960905395457461
 20
-10.46220849507081
 10
-1.914327344014316
 20
-10.4030124037168
 10
-1.869990302141666
 20
-10.34485709589161
 10
-1.827851264281764
 20
-10.2877968369189
 10
-1.787866095910337
 20
-10.23188481598661
 10
-1.749989556456041
 20
-10.1771731244104
 10
-1.714175322619131
 20
-10.12371273434749
 10
-1.680376012080908
 20
-10.07155347796775
 10
-1.648543207595429
 20
-10.02074402708917
 10
-1.618627481454757
 20
-9.971331873284454
 10
-1.590578420319016
 20
-9.923363308465387
 10
-1.56434465040231
 20
-9.876883405951377
 10
-1.528548447956708
 20
-9.810556144095305
 10
-1.496481168946379
 20
-9.747762688370571
 10
-1.467962385184361
 20
-9.688636113844643
 10
-1.442807595408475
 20
-9.633303090625732
 10
-1.420828423859917
 20
-9.581883768602234
 10
-1.401832821970874
 20
-9.534491667914265
 10
-1.385625273002866
 20
-9.491233575238468
 10
-1.372006999475445
 20
-9.452209445962996
 10
-1.360776173222964
 20
-9.4175123123254
 10
-1.351728127915199
 20
-9.387228197581619
 10
-1.344655573875982
 20
-9.361436036270092
 10
-1.339348815032289
 20
-9.340207600630389
 10
-1.335595967824775
 20
-9.323607433231466
 10
-1.333183181909365
 20
-9.311692785859952
 10
-1.3318948624782
 20
-9.304513564714515
 10
-1.331513894027149
 20
-9.302112281947664
 10
-1.239846553545721
 20
-8.661713486583404
 10
-0.6865170876186448
 20
-8.723026670164868
 10
-0.1304085305412564
 20
-8.749028152609984
 10
-0.1400502100996027
 20
-9.39588250749231
 10
-0.1400495753874079
 20
-9.398313823079437
 10
-0.1399001949255758
 20
-9.405606193660354
 10
-0.1393809758962784
 20
-9.417751594825436
 10
-0.138271170772011
 20
-9.434734461262567
 10
-0.1363506059086824
 20
-9.456531699613786
 10
-0.133399909702919
 20
-9.483112707827523
 10
-0.1292007401364233
 20
-9.514439400992579
 10
-0.1235360115306246
 20
-9.55046624363527
 10
-0.1161901203354261
 20
-9.591140288456565
 10
-0.1069491697764985
 20
-9.636401221481259
 10
-0.09560119318635882
 20
-9.686181413586706
 10
-0.08193637584538445
 20
-9.740405978373847
 10
-0.06574727515992934
 20
-9.798992836338835
 10
-0.04682903900585531
 20
-9.861852785298833
 10
-0.02497962206706761
 20
-9.928889577021105
 10
-2.131873189637086e-15
 20
-9.999999999999998
 10
0.01863972999168314
 20
-10.05001152354799
 10
0.03883952386387569
 20
-10.10177735560852
 10
0.06065717392652894
 20
-10.15526101442023
 10
0.0841497144981027
 20
-10.21042466438547
 10
0.109373394068198
 20
-10.26722913082862
 10
0.1363836477359295
 20
-10.32563391528853
 10
0.1652350699338592
 20
-10.38559721133969
 10
0.1959813874471892
 20
-10.44707592093736
 10
0.2286754327378582
 20
-10.51002567128097
 10
0.2633691175830695
 20
-10.57440083219045
 10
0.3001134070376671
 20
-10.64015453398973
 10
0.3389582937297229
 20
-10.70723868589157
 10
0.3799527724985288
 20
-10.77560399487764
 10
0.4231448153841423
 20
-10.84519998506771
 10
0.4685813469774798
 20
-10.91597501757156
 10
0.5163082201398647
 20
-10.98787631081712
 10
0.8630500530062923
 20
-10.96609067106441
 10
1.208930943425326
 20
-10.93336572030904
 10
1.244822379236307
 20
-10.85488352342549
 10
1.278627857380183
 20
-10.7778720095031
 10
1.31040092305046
 20
-10.70237613731739
 10
1.34019600122064
 20
-10.62843956937487
 10
1.36806836948268
 20
-10.55610465563349
 10
1.394074130595053
 20
-10.48541241775125
 10
1.418270184750198
 20
-10.41640253386799
 10
1.440714201571263
 20
-10.34911332392519
 10
1.46146459184814
 20
-10.28358173552858
 10
1.480580479022811
 20
-10.21984333035801
 10
1.49812167043417
 20
-10.15793227112888
 10
1.51414862833253
 20
-10.09788130910935
 10
1.528722440674054
 20
-10.03972177219726
 10
1.541904791705516
 20
-9.98348355356058
 10
1.553757932349755
 20
-9.929195100844874
 10
1.564344650402307
 20
-9.876883405951377
 10
1.577892610892933
 20
-9.802740796465367
 10
1.588986160601088
 20
-9.733111337040114
 10
1.597838019387079
 20
-9.668065834209651
 10
1.604662801594683
 20
-9.607667744380317
 10
1.60967679157421
 20
-9.551973125575604
 10
1.613097718020022
 20
-9.501030595593299
 10
1.615144527298151
 20
-9.454881296603205
 10
1.616037155940288
 20
-9.413558866209002
 10
1.615996302480973
 20
-9.377089414993314
 10
1.615243198815228
 20
-9.345491510560038
 10
1.613999381254152
 20
-9.318776168083621
 10
1.612486461456192
 20
-9.296946847369979
 10
1.610925897411821
 20
-9.279999456429227
 10
1.609538764659314
 20
-9.26792236155554
 10
1.608545527909078
 20
-9.260696403904834
 10
1.608165813253696
 20
-9.25829492255626
 10
1.497452523805203
 20
-8.620912709159596
 10
2.04264693373917
 20
-8.50823680347967
 10
2.579572500669599
 20
-8.361118687938188
 10
2.770291707041685
 20
-8.979293180080768
 10
2.771043628523965
 20
-8.98160530247622
 10
2.773439164224381
 20
-8.988494597935107
 10
2.777686106229091
 20
-8.99988511335232
 10
2.783989587966616
 20
-9.015693830498881
 10
2.79255187077582
 20
-9.035830748888477
 10
2.803572132895583
 20
-9.06019897468703
 10
2.8172462610404
 20
-9.088694815597325
 10
2.833766644724252
 20
-9.121207881646484
 10
2.853321973493189
 20
-9.157621191799713
 10
2.876097037224915
 20
-9.197811286319558
 10
2.902272529651565
 20
-9.241648344785744
 10
2.932024855259494
 20
-9.288996309686436
 10
2.965525939717566
 20
-9.339713015487842
 10
3.00294304398289
 20
-9.393650323085023
 10
3.04443858223033
 20
-9.45065425953274
 10
3.090169943749471
 20
-9.510565162951535
 10
3.123351791110959
 20
-9.552368954973712
 10
3.158559458535589
 20
-9.595359107286937
 10
3.195836636292094
 20
-9.63948306486844
 10
3.235225875398026
 20
-9.684687219352842
 10
3.276768565705443
 20
-9.73091693167045
 10
3.320504914413841
 20
-9.778116555108152
 10
3.36647392501811
 20
-9.826229458785097
 10
3.414713376699164
 20
-9.875198051535309
 10
3.465259804164739
 20
-9.924963806189069
 10
3.518148477947718
 20
-9.975467284244919
 10
3.573413385169189
 20
-10.02664816092395
 10
3.631087210773315
 20
-10.07844525059792
 10
3.6912013192409
 20
-10.13079653258254
 10
3.753785736788446
 20
-10.18363917728739
 10
3.81886913405927
 20
-10.23690957271339
 10
3.886478809313163
 20
-10.29054335128907
 10
4.209517756015986
 20
-10.16267485762415
 10
4.528357464787485
 20
-10.02466850679381
 10
4.53823991610181
 20
-9.938936438416432
 10
4.546592969812457
 20
-9.855247669021361
 10
4.553481443450305
 20
-9.773628410570252
 10
4.558970590697579
 20
-9.6941033703327
 10
4.563126070525039
 20
-9.616695743796864
 10
4.566013916216169
 20
-9.541427208172101
 10
4.56770050428928
 20
-9.468317916485395
 10
4.568252523328402
 20
-9.397386492273194
 10
4.567736942733958
 20
-9.328650024869962
 10
4.56622098140413
 20
-9.262124065294703
 10
4.563772076357927
 20
-9.197822622736405
 10
4.560457851310952
 20
-9.135758161639215
 10
4.556346085214809
 20
-9.075941599387905
 10
4.551504680771263
 20
-9.018382304594118
 10
4.546001632932055
 20
-8.963088095983478
 10
4.539904997395466
 20
-8.910065241883679
 10
4.529878547164103
 20
-8.835364879966159
 10
4.518912453631344
 20
-8.765715233465899
 10
4.507230905828808
 20
-8.701117909346614
 10
4.495057623234596
 20
-8.64156693875759
 10
4.482615627371374
 20
-8.587048800507493
 10
4.470127014258441
 20
-8.537542451002997
 10
4.45781272789359
 20
-8.49301936062483
 10
4.445892334939641
 20
-8.453443556509184
 10
4.434583800789771
 20
-8.418771671698003
 10
4.424103267184501
 20
-8.388953000616706
 10
4.414664831552198
 20
-8.363929560833727
 10
4.406480328243539
 20
-8.343636161051416
 10
4.399759111829036
 20
-8.328000475273534
 10
4.394707842627151
 20
-8.316943123089978
 10
4.391530274628912
 20
-8.310377756015061
 10
4.390427045983195
 20
-8.308211149811266
 10
4.088170514760845
 20
-7.736236930332476
 10
4.571862441264551
 20
-7.460601438098308
 10
5.037047002576468
 20
-7.154764670751612
 10
5.409458170140441
 20
-7.683748073788582
 10
5.410887775079176
 20
-7.68571467634279
 10
5.41529497429314
 20
-7.691526524439586
 10
5.422853918999655
 20
-7.701047171097507
 10
5.43373404863903
 20
-7.714134271573383
 10
5.448099913495813
 20
-7.730639728127224
 10
5.466111001490614
 20
-7.750409839786015
 10
5.487921569277682
 20
-7.773285456991053
 10
5.513680477780331
 20
-7.799102141009935
 10
5.543531032293115
 20
-7.827690327990847
 10
5.577610827276379
 20
-7.85887549753339
 10
5.616051595965438
 20
-7.892478345646902
 10
5.658979064913176
 20
-7.92831496196399
 10
5.70651281358133
 20
-7.966197011073907
 10
5.758766139092119
 20
-8.005931917837337
 10
5.815845926248135
 20
-8.04732305654122
 10
5.877852522924728
 20
-8.090169943749475
 10
5.92232841724475
 20
-8.119673957818557
 10
5.969097586428051
 20
-8.149680254746061
 10
6.018185341994231
 20
-8.180125350699585
 10
6.069615586469867
 20
-8.210945112106357
 10
6.123410799542373
 20
-8.242074783955418
 10
6.1795920247508
 20
-8.273449018369718
 10
6.238178856718532
 20
-8.305001903438237
 10
6.299189428932745
 20
-8.336666992298355
 10
6.362640402075227
 20
-8.368377332458358
 10
6.428546952909037
 20
-8.40006549535005
 10
6.496922763725294
 20
-8.431663606101354
 10
6.567780012354188
 20
-8.463103373518612
 10
6.641129362744121
 20
-8.49431612026831
 10
6.716979956112768
 20
-8.525232813247881
 10
6.795339402673519
 20
-8.555784094135054
 10
6.876213773940761
 20
-8.585900310105364
 10
7.143928531632017
 20
-8.364465621600342
 10
7.404516806574552
 20
-8.134686893861069
 10
7.387422910202488
 20
-8.0500970061731
 10
7.369505884383559
 20
-7.967923021147678
 10
7.350835474194487
 20
-7.888169838123173
 10
7.331481374541156
 20
-7.81084079061258
 10
7.311513198615592
 20
-7.735937649098265
 10
7.29100044642843
 20
-7.663460624424648
 10
7.27001247342776
 20
-7.593408371787183
 10
7.248618459215246
 20
-7.525777995315764
 10
7.226887376370327
 20
-7.460565053250463
 10
7.204887959393286
 20
-7.397763563707359
 10
7.182688673777968
 20
-7.337366011031998
 10
7.16035768522482
 20
-7.279363352737867
 10
7.137962829004861
 20
-7.223745027026988
 10
7.115571579485287
 20
-7.170498960889701
 10
7.093251019827123
 20
-7.119611578780342
 10
7.071067811865473
 20
-7.071067811865476
 10
7.038448409719153
 20
-7.003121889408958
 10
7.006496110585734
 20
-6.94026984851076
 10
6.975424627483712
 20
-6.882443939263472
 10
6.945444885804253
 20
-6.829569351832018
 10
6.916764813341855
 20
-6.781564309358662
 10
6.889589133134957
 20
-6.738340166752497
 10
6.864119159275195
 20
-6.69980151528308
 10
6.840552595841754
 20
-6.665846292893672
 10
6.819083339115108
 20
-6.636365900145544
 10
6.799901283221768
 20
-6.61124532170056
 10
6.783192129359376
 20
-6.590363253245535
 10
6.769137198748658
 20
-6.57359223375768
 10
6.757913249456142
 20
-6.560798783006835
 10
6.749692297228621
 20
-6.551843544186237
 10
6.744641440477467
 20
-6.546581431560007
 10
6.742922689547902
 20
-6.544861783011849
 10
6.278709891772825
 20
-6.09428437923224
 10
6.65355219900027
 20
-5.682670422889109
 10
7.001460248701045
 20
-5.248052437415152
 10
7.519109177634564
 20
-5.636064170213164
 10
7.521076526337707
 20
-5.637492748165994
 10
7.527063981699394
 20
-5.641658244715459
 10
7.537195006933577
 20
-5.648377075384965
 10
7.551586761579379
 20
-5.657461502612386
 10
7.570349977538692
 20
-5.668719828242704
 10
7.593588840624968
 20
-5.681956589486104
 10
7.62140087771613
 20
-5.696972758190058
 10
7.653876849600468
 20
-5.71356594327148
 10
7.691100649600346
 20
-5.731530596152776
 10
7.733149208054291
 20
-5.750658219043338
 10
7.780092402733891
 20
-5.770737575906013
 10
7.831992975267569
 20
-5.791554905945994
 10
7.888906453639064
 20
-5.812894139457788
 10
7.950881080823994
 20
-5.834537115864088
 10
8.017957749623495
 20
-5.856263803778779
 10
8.090169943749473
 20
-5.877852522924733
 10
8.141586274610209
 20
-5.892168700577088
 10
8.195338853412556
 20
-5.906253916709439
 10
8.251432135259089
 20
-5.920039972919596
 10
8.30986903443957
 20
-5.933458488268339
 10
8.370650920008337
 20
-5.946440930475093
 10
8.433777611955781
 20
-5.958918647204375
 10
8.499247377975514
 20
-5.970822897432083
 10
8.567056930828906
 20
-5.982084882880832
 10
8.637201426308183
 20
-5.992635779513283
 10
8.709674461799271
 20
-6.002406769072564
 10
8.78446807544533
 20
-6.011329070658818
 10
8.861572745911714
 20
-6.019333972330827
 10
8.940977392752856
 20
-6.026352862721748
 10
9.022669377381522
 20
-6.032317262657927
 10
9.106634504640464
 20
-6.03715885676975
 10
9.19285702497654
 20
-6.040809525083498
 10
9.379041807895014
 20
-5.74748421187544
 10
9.555870453031934
 20
-5.4484254500609
 10
9.513473478650557
 20
-5.373257990641633
 10
9.47104021662447
 20
-5.30064255217997
 10
9.428638512442181
 20
-5.230562241809608
 10
9.386335680010255
 20
-5.162998692979468
 10
9.344198472517725
 20
-5.097932077858968
 10
9.302293053557094
 20
-5.035341120288674
 10
9.260684968511756
 20
-4.975203109271348
 10
9.219439116219592
 20
-4.917493912998277
 10
9.178619720922415
 20
-4.862187993405545
 10
9.138290304510827
 20
-4.809258421254779
 10
9.098513659073937
 20
-4.758676891732714
 10
9.059351819763343
 20
-4.710413740563755
 10
9.020866037980516
 20
-4.664437960629549
 10
8.983116754896901
 20
-4.620717219089436
 10
8.946163575315607
 20
-4.579217874995462
 10
8.910065241883677
 20
-4.539904997395469
 10
8.858045902177221
 20
-4.485364534697077
 10
8.808235111107079
 20
-4.435462495079975
 10
8.76081518595935
 20
-4.390068403598606
 10
8.715963611191372
 20
-4.349045932341429
 10
8.673852867448232
 20
-4.312253053672904
 10
8.634650265070119
 20
-4.27954219820367
 10
8.598517782216582
 20
-4.250760417363406
 10
8.565611907730418
 20
-4.225749550447656
 10
8.536083488860509
 20
-4.20434639600674
 10
8.51007758395918
 20
-4.186382887441628
 10
8.487733320266269
 20
-4.171686272668859
 10
8.469183756888128
 20
-4.160079297713493
 10
8.454555753076205
 20
-4.151380394086392
 10
8.443969841905819
 20
-4.145403869799333
 10
8.437540109451941
 20
-4.141960103868937
 10
8.435374079554757
 20
-4.140855744157807
 10
7.854645398233924
 20
-3.855780811716697
 10
8.083945909473758
 20
-3.348480033194538
 10
8.280521783640763
 20
-2.827624266173074
 10
8.892737390107648
 20
-3.036683036889151
 10
8.895049904776812
 20
-3.037433751077094
 10
8.902031522438365
 20
-3.039545148254244
 10
8.91374293286329
 20
-3.042804476976558
 10
8.930237547297537
 20
-3.046996983923579
 10
8.951561440050272
 20
-3.051906135276311
 10
8.977753296394459
 20
-3.057313839687877
 10
9.008844366821375
 20
-3.063000672674205
 10
9.044858427685959
 20
-3.06874610225088
 10
9.085811748275477
 20
-3.07432871564144
 10
9.1317130643291
 20
-3.079526446881507
 10
9.182563558031532
 20
-3.084116805142522
 10
9.238356844499
 20
-3.087877103598218
 10
9.299078964771315
 20
-3.09058468865657
 10
9.364708385318908
 20
-3.092017169379608
 10
9.435216004069165
 20
-3.091952646913281
 10
9.510565162951533
 20
-3.090169943749477
 10
9.563888941649692
 20
-3.087896917769815
 10
9.619363253141676
 20
-3.08468229401451
 10
9.676971260016549
 20
-3.080459835246347
 10
9.736694603056272
 20
-3.075163606762433
 10
9.798513406669532
 20
-3.068728007429689
 10
9.862406284918649
 20
-3.061087800623125
 10
9.928350348137688
 20
-3.052178145055946
 10
9.996321210140033
 20
-3.041934625490736
 10
10.06629299601316
 20
-3.030293283320831
 10
10.13823835049832
 20
-3.017190647011153
 10
10.21212844695276
 20
-3.002563762387764
 10
10.28793299689156
 20
-2.986350222765437
 10
10.36562026010639
 20
-2.968488198902629
 10
10.4451570553581
 20
-2.94891646877325
 10
10.52650877163968
 20
-2.927574447144686
 10
10.60963938000647
 20
-2.904402214951622
 10
10.69606912437444
 20
-2.567899002414962
 10
10.77182891988213
 20
-2.228834161796478
 10
10.70827897874098
 20
-2.170447045296358
 10
10.64548314384477
 20
-2.114498258456591
 10
10.58350071990467
 20
-2.060950769797657
 10
10.52239005067375
 20
-2.009766310550387
 10
10.46220849507081
 20
-1.960905395457462
 10
10.4030124037168
 20
-1.914327344014317
 10
10.34485709589161
 20
-1.869990302141667
 10
10.2877968369189
 20
-1.827851264281765
 10
10.23188481598661
 20
-1.787866095910338
 10
10.1771731244104
 20
-1.749989556456043
 10
10.12371273434749
 20
-1.714175322619132
 10
10.07155347796775
 20
-1.680376012080909
 10
10.02074402708917
 20
-1.64854320759543
 10
9.971331873284456
 20
-1.618627481454758
 10
9.923363308465387
 20
-1.590578420319018
 10
9.876883405951377
 20
-1.564344650402311
 10
9.810556144095305
 20
-1.52854844795671
 10
9.747762688370571
 20
-1.49648116894638
 10
9.688636113844643
 20
-1.467962385184362
 10
9.633303090625732
 20
-1.442807595408477
 10
9.581883768602234
 20
-1.420828423859918
 10
9.534491667914265
 20
-1.401832821970875
 10
9.49123357523847
 20
-1.385625273002867
 10
9.452209445962996
 20
-1.372006999475446
 10
9.4175123123254
 20
-1.360776173222966
 10
9.387228197581619
 20
-1.3517281279152
 10
9.361436036270092
 20
-1.344655573875984
 10
9.340207600630389
 20
-1.33934881503229
 10
9.323607433231466
 20
-1.335595967824776
 10
9.311692785859952
 20
-1.333183181909366
 10
9.304513564714515
 20
-1.331894862478201
 10
9.302112281947664
 20
-1.33151389402715
 10
8.661713486583404
 20
-1.239846553545722
 10
8.72302667016487
 20
-0.6865170876186457
  0
LINE
  5
52
100
AcDbEntity
  8
gear_M1.0000_action_lines
  6
ByLayer
 62
  256
370
   -1
100
AcDbLine
 10
8.830222215594892
 20
3.213938048432697
 11
10
 21
0
  0
ENDSEC
  0
SECTION
  2
OBJECTS
  0
DICTIONARY
  5
C
330
0
100
AcDbDictionary
281
    1
  3
ACAD_GROUP
350
D
  0
DICTIONARY
  5
D
330
C
100
AcDbDictionary
281
    1
  0
PLOTSETTINGS
  5
53
100
AcDbPlotSettings
  6
1x1
 40
0
 41
0
 42
0
 43
0
  0
ENDSEC
  0
EOF
