solid OpenSCAD_Model
  facet normal 0.996073 -0 0.08854
    outer loop
      vertex 43 -0.78 45
      vertex 46.9289 0 0.799999
      vertex 43 0 45
    endloop
  endfacet
  facet normal 0.996073 0 0.08854
    outer loop
      vertex 46.9289 0 0.799999
      vertex 43 -0.78 45
      vertex 46.9289 -0.78 0.799999
    endloop
  endfacet
  facet normal 0 0 -1
    outer loop
      vertex -20 -0.78 0
      vertex -44 0 0
      vertex -20 0 0
    endloop
  endfacet
  facet normal 0 0 -1
    outer loop
      vertex -44.78 -0.78 0
      vertex -44 0 0
      vertex -20 -0.78 0
    endloop
  endfacet
  facet normal 0 0 -1
    outer loop
      vertex -47 3 0
      vertex -44.78 -0.78 0
      vertex -47 -3 0
    endloop
  endfacet
  facet normal 0 0 -1
    outer loop
      vertex -44.78 -0.78 0
      vertex -47 3 0
      vertex -44 0 0
    endloop
  endfacet
  facet normal 0 0 -1
    outer loop
      vertex -20 -27 0
      vertex -19.22 -0.78 0
      vertex -19.22 -27.78 0
    endloop
  endfacet
  facet normal 0 0 -1
    outer loop
      vertex -19.22 -0.78 0
      vertex -20 -0.78 0
      vertex -19.22 0 0
    endloop
  endfacet
  facet normal -0 0 -1
    outer loop
      vertex -19.22 -0.78 0
      vertex -20 -27 0
      vertex -20 -0.78 0
    endloop
  endfacet
  facet normal 0 0 -1
    outer loop
      vertex -23 -30 0
      vertex -19.22 -27.78 0
      vertex -17 -30 0
    endloop
  endfacet
  facet normal -0 0 -1
    outer loop
      vertex -19.22 -27.78 0
      vertex -23 -30 0
      vertex -20 -27 0
    endloop
  endfacet
  facet normal 0 0 -1
    outer loop
      vertex -19.22 -0.78 0
      vertex 20 0 0
      vertex 20 -0.78 0
    endloop
  endfacet
  facet normal -0 0 -1
    outer loop
      vertex 20 0 0
      vertex -19.22 -0.78 0
      vertex -19.22 0 0
    endloop
  endfacet
  facet normal 0 0 -1
    outer loop
      vertex 20 -27 0
      vertex 20.78 -0.78 0
      vertex 20.78 -27.78 0
    endloop
  endfacet
  facet normal 0 0 -1
    outer loop
      vertex 20.78 -0.78 0
      vertex 20 -0.78 0
      vertex 20.78 0 0
    endloop
  endfacet
  facet normal -0 0 -1
    outer loop
      vertex 20.78 -0.78 0
      vertex 20 -27 0
      vertex 20 -0.78 0
    endloop
  endfacet
  facet normal 0 0 -1
    outer loop
      vertex 17 -30 0
      vertex 20.78 -27.78 0
      vertex 23 -30 0
    endloop
  endfacet
  facet normal -0 0 -1
    outer loop
      vertex 20.78 -27.78 0
      vertex 17 -30 0
      vertex 20 -27 0
    endloop
  endfacet
  facet normal 0 0 -1
    outer loop
      vertex 44.78 -0.78 0
      vertex 47 3 0
      vertex 47 -3 0
    endloop
  endfacet
  facet normal 0 0 -1
    outer loop
      vertex 44.78 -0.78 0
      vertex 44 0 0
      vertex 47 3 0
    endloop
  endfacet
  facet normal 0 0 -1
    outer loop
      vertex 20.78 -0.78 0
      vertex 44 0 0
      vertex 44.78 -0.78 0
    endloop
  endfacet
  facet normal -0 0 -1
    outer loop
      vertex 44 0 0
      vertex 20.78 -0.78 0
      vertex 20.78 0 0
    endloop
  endfacet
  facet normal 0 0 -1
    outer loop
      vertex 20 0 0
      vertex 20.78 0 0
      vertex 20 -0.78 0
    endloop
  endfacet
  facet normal 0 0 -1
    outer loop
      vertex 20 27 0
      vertex 20.78 0 0
      vertex 20 0 0
    endloop
  endfacet
  facet normal 0 0 -1
    outer loop
      vertex 20.78 0 0
      vertex 20 27 0
      vertex 20.78 27.78 0
    endloop
  endfacet
  facet normal 0 0 -1
    outer loop
      vertex 17 30 0
      vertex 20.78 27.78 0
      vertex 20 27 0
    endloop
  endfacet
  facet normal 0 0 -1
    outer loop
      vertex 20.78 27.78 0
      vertex 17 30 0
      vertex 23 30 0
    endloop
  endfacet
  facet normal 0 0 -1
    outer loop
      vertex -20 0 0
      vertex -19.22 0 0
      vertex -20 -0.78 0
    endloop
  endfacet
  facet normal 0 0 -1
    outer loop
      vertex -20 27 0
      vertex -19.22 0 0
      vertex -20 0 0
    endloop
  endfacet
  facet normal 0 0 -1
    outer loop
      vertex -19.22 0 0
      vertex -20 27 0
      vertex -19.22 27.78 0
    endloop
  endfacet
  facet normal 0 0 -1
    outer loop
      vertex -23 30 0
      vertex -19.22 27.78 0
      vertex -20 27 0
    endloop
  endfacet
  facet normal 0 0 -1
    outer loop
      vertex -19.22 27.78 0
      vertex -23 30 0
      vertex -17 30 0
    endloop
  endfacet
  facet normal -0.996073 0 0.08854
    outer loop
      vertex -46.9289 -0.78 0.799999
      vertex -43 0 45
      vertex -46.9289 0 0.799999
    endloop
  endfacet
  facet normal -0.996073 0 0.08854
    outer loop
      vertex -43 0 45
      vertex -46.9289 -0.78 0.799999
      vertex -43 -0.78 45
    endloop
  endfacet
  facet normal 0 -1 0
    outer loop
      vertex -43 -0.78 45
      vertex -20 -0.78 47
      vertex -41 -0.78 47
    endloop
  endfacet
  facet normal 0 -1 0
    outer loop
      vertex -44.78 -0.78 0.799999
      vertex -43 -0.78 45
      vertex -46.9289 -0.78 0.799999
    endloop
  endfacet
  facet normal 0 -1 0
    outer loop
      vertex -20 -0.78 0
      vertex -43 -0.78 45
      vertex -44.78 -0.78 0.799999
    endloop
  endfacet
  facet normal 0 -1 0
    outer loop
      vertex -20 -0.78 0
      vertex -44.78 -0.78 0.799999
      vertex -44.78 -0.78 0
    endloop
  endfacet
  facet normal 0 -1 0
    outer loop
      vertex -43 -0.78 45
      vertex -20 -0.78 0
      vertex -20 -0.78 47
    endloop
  endfacet
  facet normal 0 -1 0
    outer loop
      vertex 20.78 -0.78 47
      vertex 43 -0.78 45
      vertex 41 -0.78 47
    endloop
  endfacet
  facet normal 0 -1 0
    outer loop
      vertex 20.78 -0.78 0
      vertex 43 -0.78 45
      vertex 20.78 -0.78 47
    endloop
  endfacet
  facet normal 0 -1 -0
    outer loop
      vertex 43 -0.78 45
      vertex 20.78 -0.78 0
      vertex 44.78 -0.78 0.799999
    endloop
  endfacet
  facet normal 0 -1 -0
    outer loop
      vertex 44.78 -0.78 0.799999
      vertex 20.78 -0.78 0
      vertex 44.78 -0.78 0
    endloop
  endfacet
  facet normal 0 -1 0
    outer loop
      vertex 43 -0.78 45
      vertex 44.78 -0.78 0.799999
      vertex 46.9289 -0.78 0.799999
    endloop
  endfacet
  facet normal 0 -1 0
    outer loop
      vertex -19.22 -0.78 0
      vertex 20 -0.78 47
      vertex -19.22 -0.78 47
    endloop
  endfacet
  facet normal 0 -1 -0
    outer loop
      vertex 20 -0.78 47
      vertex -19.22 -0.78 0
      vertex 20 -0.78 0
    endloop
  endfacet
  facet normal -0 0 1
    outer loop
      vertex -41 0 47
      vertex -20 -0.78 47
      vertex -20 0 47
    endloop
  endfacet
  facet normal 0 0 1
    outer loop
      vertex -20 -0.78 47
      vertex -41 0 47
      vertex -41 -0.78 47
    endloop
  endfacet
  facet normal 0 0 1
    outer loop
      vertex -20 0 47
      vertex -19.22 0 47
      vertex -19.22 24 47
    endloop
  endfacet
  facet normal 0 0 1
    outer loop
      vertex -19.22 0 47
      vertex -20 0 47
      vertex -19.22 -0.78 47
    endloop
  endfacet
  facet normal 0 0 1
    outer loop
      vertex -20 0 47
      vertex -19.22 24 47
      vertex -20 24 47
    endloop
  endfacet
  facet normal 0 0 1
    outer loop
      vertex -20 -0.78 47
      vertex -19.22 -0.78 47
      vertex -20 0 47
    endloop
  endfacet
  facet normal 0 0 1
    outer loop
      vertex -19.22 -0.78 47
      vertex -20 -0.78 47
      vertex -19.22 -24 47
    endloop
  endfacet
  facet normal 0 0 1
    outer loop
      vertex -19.22 -24 47
      vertex -20 -0.78 47
      vertex -20 -24 47
    endloop
  endfacet
  facet normal -0 0 1
    outer loop
      vertex -19.22 0 47
      vertex 20 -0.78 47
      vertex 20 0 47
    endloop
  endfacet
  facet normal 0 0 1
    outer loop
      vertex 20 -0.78 47
      vertex -19.22 0 47
      vertex -19.22 -0.78 47
    endloop
  endfacet
  facet normal 0 0 1
    outer loop
      vertex 20 0 47
      vertex 20.78 0 47
      vertex 20.78 24 47
    endloop
  endfacet
  facet normal 0 0 1
    outer loop
      vertex 20.78 0 47
      vertex 20 0 47
      vertex 20.78 -0.78 47
    endloop
  endfacet
  facet normal 0 0 1
    outer loop
      vertex 20 0 47
      vertex 20.78 24 47
      vertex 20 24 47
    endloop
  endfacet
  facet normal 0 0 1
    outer loop
      vertex 20 -0.78 47
      vertex 20.78 -0.78 47
      vertex 20 0 47
    endloop
  endfacet
  facet normal 0 0 1
    outer loop
      vertex 20.78 -0.78 47
      vertex 20 -0.78 47
      vertex 20.78 -24 47
    endloop
  endfacet
  facet normal 0 0 1
    outer loop
      vertex 20.78 -24 47
      vertex 20 -0.78 47
      vertex 20 -24 47
    endloop
  endfacet
  facet normal -0 0 1
    outer loop
      vertex 20.78 0 47
      vertex 41 -0.78 47
      vertex 41 0 47
    endloop
  endfacet
  facet normal 0 0 1
    outer loop
      vertex 41 -0.78 47
      vertex 20.78 0 47
      vertex 20.78 -0.78 47
    endloop
  endfacet
  facet normal 0.707107 -0 0.707107
    outer loop
      vertex 41 -0.78 47
      vertex 43 0 45
      vertex 41 0 47
    endloop
  endfacet
  facet normal 0.707107 0 0.707107
    outer loop
      vertex 43 0 45
      vertex 41 -0.78 47
      vertex 43 -0.78 45
    endloop
  endfacet
  facet normal -0.707107 0 0.707107
    outer loop
      vertex -43 -0.78 45
      vertex -41 0 47
      vertex -43 0 45
    endloop
  endfacet
  facet normal -0.707107 0 0.707107
    outer loop
      vertex -41 0 47
      vertex -43 -0.78 45
      vertex -41 -0.78 47
    endloop
  endfacet
  facet normal 0 1 0
    outer loop
      vertex -20 0 47
      vertex -43 0 45
      vertex -41 0 47
    endloop
  endfacet
  facet normal 0 1 -0
    outer loop
      vertex -20 0 0
      vertex -43 0 45
      vertex -20 0 47
    endloop
  endfacet
  facet normal 0 1 0
    outer loop
      vertex -43 0 45
      vertex -20 0 0
      vertex -44 0 0.799999
    endloop
  endfacet
  facet normal 0 1 0
    outer loop
      vertex -44 0 0.799999
      vertex -20 0 0
      vertex -44 0 0
    endloop
  endfacet
  facet normal 0 1 0
    outer loop
      vertex -43 0 45
      vertex -44 0 0.799999
      vertex -46.9289 0 0.799999
    endloop
  endfacet
  facet normal 0 1 0
    outer loop
      vertex 43 0 45
      vertex 20.78 0 47
      vertex 41 0 47
    endloop
  endfacet
  facet normal 0 1 -0
    outer loop
      vertex 44 0 0.799999
      vertex 43 0 45
      vertex 46.9289 0 0.799999
    endloop
  endfacet
  facet normal 0 1 0
    outer loop
      vertex 20.78 0 0
      vertex 43 0 45
      vertex 44 0 0.799999
    endloop
  endfacet
  facet normal 0 1 0
    outer loop
      vertex 20.78 0 0
      vertex 44 0 0.799999
      vertex 44 0 0
    endloop
  endfacet
  facet normal 0 1 0
    outer loop
      vertex 43 0 45
      vertex 20.78 0 0
      vertex 20.78 0 47
    endloop
  endfacet
  facet normal 0 1 -0
    outer loop
      vertex 20 0 0
      vertex -19.22 0 47
      vertex 20 0 47
    endloop
  endfacet
  facet normal 0 1 0
    outer loop
      vertex -19.22 0 47
      vertex 20 0 0
      vertex -19.22 0 0
    endloop
  endfacet
  facet normal 0 -0.707107 0.707107
    outer loop
      vertex 20 -26 45
      vertex 20.78 -24 47
      vertex 20 -24 47
    endloop
  endfacet
  facet normal 0 -0.707107 0.707107
    outer loop
      vertex 20.78 -24 47
      vertex 20 -26 45
      vertex 20.78 -26 45
    endloop
  endfacet
  facet normal -1 0 0
    outer loop
      vertex 20 -26 45
      vertex 20 -0.78 47
      vertex 20 -0.78 0
    endloop
  endfacet
  facet normal -1 -0 0
    outer loop
      vertex 20 -0.78 47
      vertex 20 -26 45
      vertex 20 -24 47
    endloop
  endfacet
  facet normal -1 0 0
    outer loop
      vertex 20 -27 0.799999
      vertex 20 -0.78 0
      vertex 20 -27 0
    endloop
  endfacet
  facet normal -1 0 0
    outer loop
      vertex 20 -0.78 0
      vertex 20 -27 0.799999
      vertex 20 -26 45
    endloop
  endfacet
  facet normal -1 0 0
    outer loop
      vertex 20 -26 45
      vertex 20 -27 0.799999
      vertex 20 -29.9289 0.799999
    endloop
  endfacet
  facet normal -1 0 0
    outer loop
      vertex 20 0 0
      vertex 20 27 0.799999
      vertex 20 27 0
    endloop
  endfacet
  facet normal -1 -0 0
    outer loop
      vertex 20 27 0.799999
      vertex 20 0 0
      vertex 20 26 45
    endloop
  endfacet
  facet normal -1 0 0
    outer loop
      vertex 20 0 47
      vertex 20 26 45
      vertex 20 0 0
    endloop
  endfacet
  facet normal -1 0 0
    outer loop
      vertex 20 26 45
      vertex 20 0 47
      vertex 20 24 47
    endloop
  endfacet
  facet normal -1 0 0
    outer loop
      vertex 20 29.9289 0.799999
      vertex 20 27 0.799999
      vertex 20 26 45
    endloop
  endfacet
  facet normal 0 0.707107 0.707107
    outer loop
      vertex 20.78 26 45
      vertex 20 24 47
      vertex 20.78 24 47
    endloop
  endfacet
  facet normal 0 0.707107 0.707107
    outer loop
      vertex 20 24 47
      vertex 20.78 26 45
      vertex 20 26 45
    endloop
  endfacet
  facet normal 1 0 0
    outer loop
      vertex 20.78 -26 45
      vertex 20.78 -29.9289 0.799999
      vertex 20.78 -27.78 0.799999
    endloop
  endfacet
  facet normal 1 0 0
    outer loop
      vertex 20.78 -26 45
      vertex 20.78 -0.78 47
      vertex 20.78 -24 47
    endloop
  endfacet
  facet normal 1 0 0
    outer loop
      vertex 20.78 -0.78 47
      vertex 20.78 -26 45
      vertex 20.78 -0.78 0
    endloop
  endfacet
  facet normal 1 -0 0
    outer loop
      vertex 20.78 -27.78 0.799999
      vertex 20.78 -0.78 0
      vertex 20.78 -26 45
    endloop
  endfacet
  facet normal 1 0 0
    outer loop
      vertex 20.78 -0.78 0
      vertex 20.78 -27.78 0.799999
      vertex 20.78 -27.78 0
    endloop
  endfacet
  facet normal 1 0 0
    outer loop
      vertex 20.78 26 45
      vertex 20.78 27.78 0.799999
      vertex 20.78 29.9289 0.799999
    endloop
  endfacet
  facet normal 1 0 0
    outer loop
      vertex 20.78 0 0
      vertex 20.78 27.78 0.799999
      vertex 20.78 26 45
    endloop
  endfacet
  facet normal 1 -0 0
    outer loop
      vertex 20.78 0 47
      vertex 20.78 26 45
      vertex 20.78 24 47
    endloop
  endfacet
  facet normal 1 0 0
    outer loop
      vertex 20.78 26 45
      vertex 20.78 0 47
      vertex 20.78 0 0
    endloop
  endfacet
  facet normal 1 0 0
    outer loop
      vertex 20.78 27.78 0.799999
      vertex 20.78 0 0
      vertex 20.78 27.78 0
    endloop
  endfacet
  facet normal 0 -0.996073 0.08854
    outer loop
      vertex 20 -29.9289 0.799999
      vertex 20.78 -26 45
      vertex 20 -26 45
    endloop
  endfacet
  facet normal 0 -0.996073 0.08854
    outer loop
      vertex 20.78 -26 45
      vertex 20 -29.9289 0.799999
      vertex 20.78 -29.9289 0.799999
    endloop
  endfacet
  facet normal 0 0.996073 0.08854
    outer loop
      vertex 20.78 29.9289 0.799999
      vertex 20 26 45
      vertex 20.78 26 45
    endloop
  endfacet
  facet normal 0 0.996073 0.08854
    outer loop
      vertex 20 26 45
      vertex 20.78 29.9289 0.799999
      vertex 20 29.9289 0.799999
    endloop
  endfacet
  facet normal 0 -0.707107 0.707107
    outer loop
      vertex -20 -26 45
      vertex -19.22 -24 47
      vertex -20 -24 47
    endloop
  endfacet
  facet normal 0 -0.707107 0.707107
    outer loop
      vertex -19.22 -24 47
      vertex -20 -26 45
      vertex -19.22 -26 45
    endloop
  endfacet
  facet normal -1 0 0
    outer loop
      vertex -20 -26 45
      vertex -20 -0.78 47
      vertex -20 -0.78 0
    endloop
  endfacet
  facet normal -1 -0 0
    outer loop
      vertex -20 -0.78 47
      vertex -20 -26 45
      vertex -20 -24 47
    endloop
  endfacet
  facet normal -1 0 0
    outer loop
      vertex -20 -27 0.799999
      vertex -20 -0.78 0
      vertex -20 -27 0
    endloop
  endfacet
  facet normal -1 0 0
    outer loop
      vertex -20 -0.78 0
      vertex -20 -27 0.799999
      vertex -20 -26 45
    endloop
  endfacet
  facet normal -1 0 0
    outer loop
      vertex -20 -26 45
      vertex -20 -27 0.799999
      vertex -20 -29.9289 0.799999
    endloop
  endfacet
  facet normal -1 0 0
    outer loop
      vertex -20 0 0
      vertex -20 27 0.799999
      vertex -20 27 0
    endloop
  endfacet
  facet normal -1 -0 0
    outer loop
      vertex -20 27 0.799999
      vertex -20 0 0
      vertex -20 26 45
    endloop
  endfacet
  facet normal -1 0 0
    outer loop
      vertex -20 0 47
      vertex -20 26 45
      vertex -20 0 0
    endloop
  endfacet
  facet normal -1 0 0
    outer loop
      vertex -20 26 45
      vertex -20 0 47
      vertex -20 24 47
    endloop
  endfacet
  facet normal -1 0 0
    outer loop
      vertex -20 29.9289 0.799999
      vertex -20 27 0.799999
      vertex -20 26 45
    endloop
  endfacet
  facet normal 0 0.707107 0.707107
    outer loop
      vertex -19.22 26 45
      vertex -20 24 47
      vertex -19.22 24 47
    endloop
  endfacet
  facet normal 0 0.707107 0.707107
    outer loop
      vertex -20 24 47
      vertex -19.22 26 45
      vertex -20 26 45
    endloop
  endfacet
  facet normal 1 0 0
    outer loop
      vertex -19.22 -26 45
      vertex -19.22 -29.9289 0.799999
      vertex -19.22 -27.78 0.799999
    endloop
  endfacet
  facet normal 1 0 0
    outer loop
      vertex -19.22 -26 45
      vertex -19.22 -0.78 47
      vertex -19.22 -24 47
    endloop
  endfacet
  facet normal 1 0 0
    outer loop
      vertex -19.22 -0.78 47
      vertex -19.22 -26 45
      vertex -19.22 -0.78 0
    endloop
  endfacet
  facet normal 1 -0 0
    outer loop
      vertex -19.22 -27.78 0.799999
      vertex -19.22 -0.78 0
      vertex -19.22 -26 45
    endloop
  endfacet
  facet normal 1 0 0
    outer loop
      vertex -19.22 -0.78 0
      vertex -19.22 -27.78 0.799999
      vertex -19.22 -27.78 0
    endloop
  endfacet
  facet normal 1 0 0
    outer loop
      vertex -19.22 26 45
      vertex -19.22 27.78 0.799999
      vertex -19.22 29.9289 0.799999
    endloop
  endfacet
  facet normal 1 0 0
    outer loop
      vertex -19.22 0 0
      vertex -19.22 27.78 0.799999
      vertex -19.22 26 45
    endloop
  endfacet
  facet normal 1 -0 0
    outer loop
      vertex -19.22 0 47
      vertex -19.22 26 45
      vertex -19.22 24 47
    endloop
  endfacet
  facet normal 1 0 0
    outer loop
      vertex -19.22 26 45
      vertex -19.22 0 47
      vertex -19.22 0 0
    endloop
  endfacet
  facet normal 1 0 0
    outer loop
      vertex -19.22 27.78 0.799999
      vertex -19.22 0 0
      vertex -19.22 27.78 0
    endloop
  endfacet
  facet normal 0 -0.996073 0.08854
    outer loop
      vertex -20 -29.9289 0.799999
      vertex -19.22 -26 45
      vertex -20 -26 45
    endloop
  endfacet
  facet normal 0 -0.996073 0.08854
    outer loop
      vertex -19.22 -26 45
      vertex -20 -29.9289 0.799999
      vertex -19.22 -29.9289 0.799999
    endloop
  endfacet
  facet normal 0 0.996073 0.08854
    outer loop
      vertex -19.22 29.9289 0.799999
      vertex -20 26 45
      vertex -19.22 26 45
    endloop
  endfacet
  facet normal 0 0.996073 0.08854
    outer loop
      vertex -20 26 45
      vertex -19.22 29.9289 0.799999
      vertex -20 29.9289 0.799999
    endloop
  endfacet
  facet normal 1 -0 0
    outer loop
      vertex 47 -3 0.799999
      vertex 47 3 0
      vertex 47 3 0.799999
    endloop
  endfacet
  facet normal 1 0 0
    outer loop
      vertex 47 3 0
      vertex 47 -3 0.799999
      vertex 47 -3 0
    endloop
  endfacet
  facet normal -0.707107 0.707107 0
    outer loop
      vertex 44 0 0
      vertex 47 3 0.799999
      vertex 47 3 0
    endloop
  endfacet
  facet normal -0.707107 0.707107 0
    outer loop
      vertex 47 3 0.799999
      vertex 44 0 0
      vertex 44 0 0.799999
    endloop
  endfacet
  facet normal -0.707107 -0.707107 0
    outer loop
      vertex 44.78 -0.78 0
      vertex 47 -3 0.799999
      vertex 44.78 -0.78 0.799999
    endloop
  endfacet
  facet normal -0.707107 -0.707107 -0
    outer loop
      vertex 47 -3 0.799999
      vertex 44.78 -0.78 0
      vertex 47 -3 0
    endloop
  endfacet
  facet normal 0 0 1
    outer loop
      vertex 47 3 0.799999
      vertex 46.9289 0 0.799999
      vertex 47 -3 0.799999
    endloop
  endfacet
  facet normal 0 -0 1
    outer loop
      vertex 46.9289 0 0.799999
      vertex 47 3 0.799999
      vertex 44 0 0.799999
    endloop
  endfacet
  facet normal -0 0 1
    outer loop
      vertex 46.9289 -0.78 0.799999
      vertex 47 -3 0.799999
      vertex 46.9289 0 0.799999
    endloop
  endfacet
  facet normal 0 0 1
    outer loop
      vertex 47 -3 0.799999
      vertex 46.9289 -0.78 0.799999
      vertex 44.78 -0.78 0.799999
    endloop
  endfacet
  facet normal 0.707107 -0.707107 0
    outer loop
      vertex -47 -3 0
      vertex -44.78 -0.78 0.799999
      vertex -47 -3 0.799999
    endloop
  endfacet
  facet normal 0.707107 -0.707107 0
    outer loop
      vertex -44.78 -0.78 0.799999
      vertex -47 -3 0
      vertex -44.78 -0.78 0
    endloop
  endfacet
  facet normal -1 0 0
    outer loop
      vertex -47 -3 0
      vertex -47 3 0.799999
      vertex -47 3 0
    endloop
  endfacet
  facet normal -1 -0 0
    outer loop
      vertex -47 3 0.799999
      vertex -47 -3 0
      vertex -47 -3 0.799999
    endloop
  endfacet
  facet normal 0 0 1
    outer loop
      vertex -46.9289 0 0.799999
      vertex -47 3 0.799999
      vertex -46.9289 -0.78 0.799999
    endloop
  endfacet
  facet normal 0 0 1
    outer loop
      vertex -47 3 0.799999
      vertex -46.9289 0 0.799999
      vertex -44 0 0.799999
    endloop
  endfacet
  facet normal -0 0 1
    outer loop
      vertex -46.9289 -0.78 0.799999
      vertex -47 -3 0.799999
      vertex -44.78 -0.78 0.799999
    endloop
  endfacet
  facet normal 0 0 1
    outer loop
      vertex -47 -3 0.799999
      vertex -46.9289 -0.78 0.799999
      vertex -47 3 0.799999
    endloop
  endfacet
  facet normal 0.707107 0.707107 0
    outer loop
      vertex -44 0 0.799999
      vertex -47 3 0
      vertex -47 3 0.799999
    endloop
  endfacet
  facet normal 0.707107 0.707107 0
    outer loop
      vertex -47 3 0
      vertex -44 0 0.799999
      vertex -44 0 0
    endloop
  endfacet
  facet normal -0.707107 -0.707107 0
    outer loop
      vertex 20 27 0
      vertex 17 30 0.799999
      vertex 17 30 0
    endloop
  endfacet
  facet normal -0.707107 -0.707107 0
    outer loop
      vertex 17 30 0.799999
      vertex 20 27 0
      vertex 20 27 0.799999
    endloop
  endfacet
  facet normal 0 1 -0
    outer loop
      vertex 23 30 0
      vertex 17 30 0.799999
      vertex 23 30 0.799999
    endloop
  endfacet
  facet normal 0 1 0
    outer loop
      vertex 17 30 0.799999
      vertex 23 30 0
      vertex 17 30 0
    endloop
  endfacet
  facet normal 0.707107 -0.707107 0
    outer loop
      vertex 20.78 27.78 0.799999
      vertex 23 30 0
      vertex 23 30 0.799999
    endloop
  endfacet
  facet normal 0.707107 -0.707107 0
    outer loop
      vertex 23 30 0
      vertex 20.78 27.78 0.799999
      vertex 20.78 27.78 0
    endloop
  endfacet
  facet normal 0 0 1
    outer loop
      vertex 23 30 0.799999
      vertex 20 29.9289 0.799999
      vertex 20.78 29.9289 0.799999
    endloop
  endfacet
  facet normal 0 0 1
    outer loop
      vertex 20 29.9289 0.799999
      vertex 17 30 0.799999
      vertex 20 27 0.799999
    endloop
  endfacet
  facet normal -0 0 1
    outer loop
      vertex 17 30 0.799999
      vertex 20 29.9289 0.799999
      vertex 23 30 0.799999
    endloop
  endfacet
  facet normal 0 0 1
    outer loop
      vertex 23 30 0.799999
      vertex 20.78 29.9289 0.799999
      vertex 20.78 27.78 0.799999
    endloop
  endfacet
  facet normal 0 -1 0
    outer loop
      vertex 17 -30 0
      vertex 23 -30 0.799999
      vertex 17 -30 0.799999
    endloop
  endfacet
  facet normal 0 -1 -0
    outer loop
      vertex 23 -30 0.799999
      vertex 17 -30 0
      vertex 23 -30 0
    endloop
  endfacet
  facet normal 0.707107 0.707107 0
    outer loop
      vertex 23 -30 0.799999
      vertex 20.78 -27.78 0
      vertex 20.78 -27.78 0.799999
    endloop
  endfacet
  facet normal 0.707107 0.707107 0
    outer loop
      vertex 20.78 -27.78 0
      vertex 23 -30 0.799999
      vertex 23 -30 0
    endloop
  endfacet
  facet normal -0.707107 0.707107 0
    outer loop
      vertex 17 -30 0
      vertex 20 -27 0.799999
      vertex 20 -27 0
    endloop
  endfacet
  facet normal -0.707107 0.707107 0
    outer loop
      vertex 20 -27 0.799999
      vertex 17 -30 0
      vertex 17 -30 0.799999
    endloop
  endfacet
  facet normal 0 0 1
    outer loop
      vertex 20 -27 0.799999
      vertex 17 -30 0.799999
      vertex 20 -29.9289 0.799999
    endloop
  endfacet
  facet normal -0 0 1
    outer loop
      vertex 20.78 -29.9289 0.799999
      vertex 23 -30 0.799999
      vertex 20.78 -27.78 0.799999
    endloop
  endfacet
  facet normal -0 0 1
    outer loop
      vertex 20 -29.9289 0.799999
      vertex 23 -30 0.799999
      vertex 20.78 -29.9289 0.799999
    endloop
  endfacet
  facet normal 0 0 1
    outer loop
      vertex 23 -30 0.799999
      vertex 20 -29.9289 0.799999
      vertex 17 -30 0.799999
    endloop
  endfacet
  facet normal -0.707107 -0.707107 0
    outer loop
      vertex -20 27 0
      vertex -23 30 0.799999
      vertex -23 30 0
    endloop
  endfacet
  facet normal -0.707107 -0.707107 0
    outer loop
      vertex -23 30 0.799999
      vertex -20 27 0
      vertex -20 27 0.799999
    endloop
  endfacet
  facet normal 0 1 -0
    outer loop
      vertex -17 30 0
      vertex -23 30 0.799999
      vertex -17 30 0.799999
    endloop
  endfacet
  facet normal 0 1 0
    outer loop
      vertex -23 30 0.799999
      vertex -17 30 0
      vertex -23 30 0
    endloop
  endfacet
  facet normal 0.707107 -0.707107 0
    outer loop
      vertex -19.22 27.78 0.799999
      vertex -17 30 0
      vertex -17 30 0.799999
    endloop
  endfacet
  facet normal 0.707107 -0.707107 0
    outer loop
      vertex -17 30 0
      vertex -19.22 27.78 0.799999
      vertex -19.22 27.78 0
    endloop
  endfacet
  facet normal 0 0 1
    outer loop
      vertex -17 30 0.799999
      vertex -20 29.9289 0.799999
      vertex -19.22 29.9289 0.799999
    endloop
  endfacet
  facet normal 0 0 1
    outer loop
      vertex -20 29.9289 0.799999
      vertex -23 30 0.799999
      vertex -20 27 0.799999
    endloop
  endfacet
  facet normal -0 0 1
    outer loop
      vertex -23 30 0.799999
      vertex -20 29.9289 0.799999
      vertex -17 30 0.799999
    endloop
  endfacet
  facet normal 0 0 1
    outer loop
      vertex -17 30 0.799999
      vertex -19.22 29.9289 0.799999
      vertex -19.22 27.78 0.799999
    endloop
  endfacet
  facet normal 0 -1 0
    outer loop
      vertex -23 -30 0
      vertex -17 -30 0.799999
      vertex -23 -30 0.799999
    endloop
  endfacet
  facet normal 0 -1 -0
    outer loop
      vertex -17 -30 0.799999
      vertex -23 -30 0
      vertex -17 -30 0
    endloop
  endfacet
  facet normal 0.707107 0.707107 0
    outer loop
      vertex -17 -30 0.799999
      vertex -19.22 -27.78 0
      vertex -19.22 -27.78 0.799999
    endloop
  endfacet
  facet normal 0.707107 0.707107 0
    outer loop
      vertex -19.22 -27.78 0
      vertex -17 -30 0.799999
      vertex -17 -30 0
    endloop
  endfacet
  facet normal -0.707107 0.707107 0
    outer loop
      vertex -23 -30 0
      vertex -20 -27 0.799999
      vertex -20 -27 0
    endloop
  endfacet
  facet normal -0.707107 0.707107 0
    outer loop
      vertex -20 -27 0.799999
      vertex -23 -30 0
      vertex -23 -30 0.799999
    endloop
  endfacet
  facet normal 0 0 1
    outer loop
      vertex -20 -27 0.799999
      vertex -23 -30 0.799999
      vertex -20 -29.9289 0.799999
    endloop
  endfacet
  facet normal -0 0 1
    outer loop
      vertex -19.22 -29.9289 0.799999
      vertex -17 -30 0.799999
      vertex -19.22 -27.78 0.799999
    endloop
  endfacet
  facet normal -0 0 1
    outer loop
      vertex -20 -29.9289 0.799999
      vertex -17 -30 0.799999
      vertex -19.22 -29.9289 0.799999
    endloop
  endfacet
  facet normal 0 0 1
    outer loop
      vertex -17 -30 0.799999
      vertex -20 -29.9289 0.799999
      vertex -23 -30 0.799999
    endloop
  endfacet
endsolid OpenSCAD_Model
