solid OpenSCAD_Model
  facet normal 0 -1 0
    outer loop
      vertex 15.78 -5 -47
      vertex 38.5 -5 -45
      vertex 15.78 -5 -45
    endloop
  endfacet
  facet normal 0 -1 -0
    outer loop
      vertex 38.5 -5 -45
      vertex 15.78 -5 -47
      vertex 41 -5 -47
    endloop
  endfacet
  facet normal 0 -1 0
    outer loop
      vertex 38.5 -5 -45
      vertex 41 -5 -47
      vertex 43 -5 -45
    endloop
  endfacet
  facet normal 0 -1 0
    outer loop
      vertex 43 -5 -45
      vertex 41.5 -5 -40
      vertex 38.5 -5 -45
    endloop
  endfacet
  facet normal 0 -1 0
    outer loop
      vertex 41.5 -5 -40
      vertex 43 -5 -45
      vertex 43.5 -5 -40
    endloop
  endfacet
  facet normal 0 -1 0
    outer loop
      vertex -42.5 -5 -45
      vertex -41 -5 -40
      vertex -43 -5 -40
    endloop
  endfacet
  facet normal 0 -1 0
    outer loop
      vertex -42.5 -5 -45
      vertex -38.5 -5 -45
      vertex -41 -5 -40
    endloop
  endfacet
  facet normal 0 -1 0
    outer loop
      vertex -40.5 -5 -47
      vertex -38.5 -5 -45
      vertex -42.5 -5 -45
    endloop
  endfacet
  facet normal 0 -1 0
    outer loop
      vertex -15 -5 -47
      vertex -38.5 -5 -45
      vertex -40.5 -5 -47
    endloop
  endfacet
  facet normal 0 -1 0
    outer loop
      vertex -38.5 -5 -45
      vertex -15 -5 -47
      vertex -15 -5 -45
    endloop
  endfacet
  facet normal 0 -1 0
    outer loop
      vertex -14.22 -5 -47
      vertex 15 -5 -45
      vertex -14.22 -5 -45
    endloop
  endfacet
  facet normal 0 -1 -0
    outer loop
      vertex 15 -5 -45
      vertex -14.22 -5 -47
      vertex 15 -5 -47
    endloop
  endfacet
  facet normal 0 1 -0
    outer loop
      vertex 43 5 -45
      vertex 41.5 5 -40
      vertex 43.5 5 -40
    endloop
  endfacet
  facet normal 0 1 0
    outer loop
      vertex 43 5 -45
      vertex 38.5 5 -45
      vertex 41.5 5 -40
    endloop
  endfacet
  facet normal 0 1 -0
    outer loop
      vertex 41 5 -47
      vertex 38.5 5 -45
      vertex 43 5 -45
    endloop
  endfacet
  facet normal 0 1 0
    outer loop
      vertex 15.78 5 -47
      vertex 38.5 5 -45
      vertex 41 5 -47
    endloop
  endfacet
  facet normal 0 1 0
    outer loop
      vertex 38.5 5 -45
      vertex 15.78 5 -47
      vertex 15.78 5 -45
    endloop
  endfacet
  facet normal 0 1 -0
    outer loop
      vertex -15 5 -47
      vertex -38.5 5 -45
      vertex -15 5 -45
    endloop
  endfacet
  facet normal 0 1 0
    outer loop
      vertex -38.5 5 -45
      vertex -15 5 -47
      vertex -40.5 5 -47
    endloop
  endfacet
  facet normal 0 1 0
    outer loop
      vertex -38.5 5 -45
      vertex -40.5 5 -47
      vertex -42.5 5 -45
    endloop
  endfacet
  facet normal 0 1 0
    outer loop
      vertex -42.5 5 -45
      vertex -41 5 -40
      vertex -38.5 5 -45
    endloop
  endfacet
  facet normal 0 1 0
    outer loop
      vertex -41 5 -40
      vertex -42.5 5 -45
      vertex -43 5 -40
    endloop
  endfacet
  facet normal 0 1 -0
    outer loop
      vertex 15 5 -47
      vertex -14.22 5 -45
      vertex 15 5 -45
    endloop
  endfacet
  facet normal 0 1 0
    outer loop
      vertex -14.22 5 -45
      vertex 15 5 -47
      vertex -14.22 5 -47
    endloop
  endfacet
  facet normal -0 0 1
    outer loop
      vertex 15.78 5 -45
      vertex 38.5 -5 -45
      vertex 38.5 5 -45
    endloop
  endfacet
  facet normal 0 0 1
    outer loop
      vertex 38.5 -5 -45
      vertex 15.78 5 -45
      vertex 15.78 -5 -45
    endloop
  endfacet
  facet normal -0 0 1
    outer loop
      vertex -38.5 5 -45
      vertex -15 -5 -45
      vertex -15 5 -45
    endloop
  endfacet
  facet normal 0 0 1
    outer loop
      vertex -15 -5 -45
      vertex -38.5 5 -45
      vertex -38.5 -5 -45
    endloop
  endfacet
  facet normal -0 0 1
    outer loop
      vertex -14.22 5 -45
      vertex 15 -5 -45
      vertex 15 5 -45
    endloop
  endfacet
  facet normal 0 0 1
    outer loop
      vertex 15 -5 -45
      vertex -14.22 5 -45
      vertex -14.22 -5 -45
    endloop
  endfacet
  facet normal -0.857493 0 0.514496
    outer loop
      vertex 38.5 -5 -45
      vertex 41.5 5 -40
      vertex 38.5 5 -45
    endloop
  endfacet
  facet normal -0.857493 0 0.514496
    outer loop
      vertex 41.5 5 -40
      vertex 38.5 -5 -45
      vertex 41.5 -5 -40
    endloop
  endfacet
  facet normal -0 0 1
    outer loop
      vertex 41.5 5 -40
      vertex 43.5 -5 -40
      vertex 43.5 5 -40
    endloop
  endfacet
  facet normal 0 0 1
    outer loop
      vertex 43.5 -5 -40
      vertex 41.5 5 -40
      vertex 41.5 -5 -40
    endloop
  endfacet
  facet normal 0.995037 0 -0.0995037
    outer loop
      vertex 43.5 -5 -40
      vertex 43 5 -45
      vertex 43.5 5 -40
    endloop
  endfacet
  facet normal 0.995037 0 -0.0995037
    outer loop
      vertex 43 5 -45
      vertex 43.5 -5 -40
      vertex 43 -5 -45
    endloop
  endfacet
  facet normal 0.707107 0 -0.707107
    outer loop
      vertex 43 -5 -45
      vertex 41 5 -47
      vertex 43 5 -45
    endloop
  endfacet
  facet normal 0.707107 0 -0.707107
    outer loop
      vertex 41 5 -47
      vertex 43 -5 -45
      vertex 41 -5 -47
    endloop
  endfacet
  facet normal 0 0 -1
    outer loop
      vertex -14.22 -5 -47
      vertex 15 5 -47
      vertex 15 -5 -47
    endloop
  endfacet
  facet normal -0 0 -1
    outer loop
      vertex 15 5 -47
      vertex -14.22 -5 -47
      vertex -14.22 5 -47
    endloop
  endfacet
  facet normal 0 0 -1
    outer loop
      vertex 15 -24 -47
      vertex 11 -24 -47
      vertex 15 -21 -47
    endloop
  endfacet
  facet normal 0 0 -1
    outer loop
      vertex 15.78 -24 -47
      vertex 15.78 -21.585 -47
      vertex 19 -24 -47
    endloop
  endfacet
  facet normal 0 0 -1
    outer loop
      vertex 15 -24 -47
      vertex 15.78 -21.585 -47
      vertex 15.78 -24 -47
    endloop
  endfacet
  facet normal 0 0 -1
    outer loop
      vertex 15.78 -21.585 -47
      vertex 15 -21 -47
      vertex 15.78 -5 -47
    endloop
  endfacet
  facet normal 0 0 -1
    outer loop
      vertex 15.78 -5 -47
      vertex 15 -5 -47
      vertex 15.78 5 -47
    endloop
  endfacet
  facet normal 0 0 -1
    outer loop
      vertex 15 5 -47
      vertex 15.78 5 -47
      vertex 15 -5 -47
    endloop
  endfacet
  facet normal -0 0 -1
    outer loop
      vertex 15.78 -21.585 -47
      vertex 15 -24 -47
      vertex 15 -21 -47
    endloop
  endfacet
  facet normal -0 0 -1
    outer loop
      vertex 15.78 -5 -47
      vertex 15 -21 -47
      vertex 15 -5 -47
    endloop
  endfacet
  facet normal 0 0 -1
    outer loop
      vertex 15 21 -47
      vertex 15.78 5 -47
      vertex 15 5 -47
    endloop
  endfacet
  facet normal 0 0 -1
    outer loop
      vertex 15.78 5 -47
      vertex 15 21 -47
      vertex 15.78 21.585 -47
    endloop
  endfacet
  facet normal 0 0 -1
    outer loop
      vertex 15 24 -47
      vertex 15.78 21.585 -47
      vertex 15 21 -47
    endloop
  endfacet
  facet normal 0 0 -1
    outer loop
      vertex 15.78 21.585 -47
      vertex 15 24 -47
      vertex 15.78 24 -47
    endloop
  endfacet
  facet normal -0 -0 -1
    outer loop
      vertex 15 24 -47
      vertex 15 21 -47
      vertex 11 24 -47
    endloop
  endfacet
  facet normal 0 0 -1
    outer loop
      vertex 15.78 -5 -47
      vertex 41 5 -47
      vertex 41 -5 -47
    endloop
  endfacet
  facet normal -0 0 -1
    outer loop
      vertex 41 5 -47
      vertex 15.78 -5 -47
      vertex 15.78 5 -47
    endloop
  endfacet
  facet normal -0 0 -1
    outer loop
      vertex 19 24 -47
      vertex 15.78 21.585 -47
      vertex 15.78 24 -47
    endloop
  endfacet
  facet normal 0 0 -1
    outer loop
      vertex -40.5 -5 -47
      vertex -15 5 -47
      vertex -15 -5 -47
    endloop
  endfacet
  facet normal -0 0 -1
    outer loop
      vertex -15 5 -47
      vertex -40.5 -5 -47
      vertex -40.5 5 -47
    endloop
  endfacet
  facet normal 0 0 -1
    outer loop
      vertex -15 -24 -47
      vertex -19 -24 -47
      vertex -15 -21 -47
    endloop
  endfacet
  facet normal 0 0 -1
    outer loop
      vertex -14.22 -24 -47
      vertex -14.22 -21.585 -47
      vertex -11 -24 -47
    endloop
  endfacet
  facet normal 0 0 -1
    outer loop
      vertex -15 -24 -47
      vertex -14.22 -21.585 -47
      vertex -14.22 -24 -47
    endloop
  endfacet
  facet normal 0 0 -1
    outer loop
      vertex -14.22 -21.585 -47
      vertex -15 -21 -47
      vertex -14.22 -5 -47
    endloop
  endfacet
  facet normal 0 0 -1
    outer loop
      vertex -14.22 -5 -47
      vertex -15 -5 -47
      vertex -14.22 5 -47
    endloop
  endfacet
  facet normal 0 0 -1
    outer loop
      vertex -15 5 -47
      vertex -14.22 5 -47
      vertex -15 -5 -47
    endloop
  endfacet
  facet normal -0 0 -1
    outer loop
      vertex -14.22 -21.585 -47
      vertex -15 -24 -47
      vertex -15 -21 -47
    endloop
  endfacet
  facet normal -0 0 -1
    outer loop
      vertex -14.22 -5 -47
      vertex -15 -21 -47
      vertex -15 -5 -47
    endloop
  endfacet
  facet normal 0 0 -1
    outer loop
      vertex -15 21 -47
      vertex -14.22 5 -47
      vertex -15 5 -47
    endloop
  endfacet
  facet normal 0 0 -1
    outer loop
      vertex -14.22 5 -47
      vertex -15 21 -47
      vertex -14.22 21.585 -47
    endloop
  endfacet
  facet normal 0 0 -1
    outer loop
      vertex -15 24 -47
      vertex -14.22 21.585 -47
      vertex -15 21 -47
    endloop
  endfacet
  facet normal 0 0 -1
    outer loop
      vertex -14.22 21.585 -47
      vertex -15 24 -47
      vertex -14.22 24 -47
    endloop
  endfacet
  facet normal -0 -0 -1
    outer loop
      vertex -15 24 -47
      vertex -15 21 -47
      vertex -19 24 -47
    endloop
  endfacet
  facet normal -0 0 -1
    outer loop
      vertex -11 24 -47
      vertex -14.22 21.585 -47
      vertex -14.22 24 -47
    endloop
  endfacet
  facet normal -0.707107 0 -0.707107
    outer loop
      vertex -40.5 -5 -47
      vertex -42.5 5 -45
      vertex -40.5 5 -47
    endloop
  endfacet
  facet normal -0.707107 -0 -0.707107
    outer loop
      vertex -42.5 5 -45
      vertex -40.5 -5 -47
      vertex -42.5 -5 -45
    endloop
  endfacet
  facet normal -0.995037 0 -0.0995037
    outer loop
      vertex -42.5 -5 -45
      vertex -43 5 -40
      vertex -42.5 5 -45
    endloop
  endfacet
  facet normal -0.995037 -0 -0.0995037
    outer loop
      vertex -43 5 -40
      vertex -42.5 -5 -45
      vertex -43 -5 -40
    endloop
  endfacet
  facet normal -0 0 1
    outer loop
      vertex -43 5 -40
      vertex -41 -5 -40
      vertex -41 5 -40
    endloop
  endfacet
  facet normal 0 0 1
    outer loop
      vertex -41 -5 -40
      vertex -43 5 -40
      vertex -43 -5 -40
    endloop
  endfacet
  facet normal 0.894427 -0 0.447214
    outer loop
      vertex -41 -5 -40
      vertex -38.5 5 -45
      vertex -41 5 -40
    endloop
  endfacet
  facet normal 0.894427 0 0.447214
    outer loop
      vertex -38.5 5 -45
      vertex -41 -5 -40
      vertex -38.5 -5 -45
    endloop
  endfacet
  facet normal 0 0.707107 -0.707107
    outer loop
      vertex 15.78 24 -47
      vertex 15 26 -45
      vertex 15.78 26 -45
    endloop
  endfacet
  facet normal 0 0.707107 -0.707107
    outer loop
      vertex 15 26 -45
      vertex 15.78 24 -47
      vertex 15 24 -47
    endloop
  endfacet
  facet normal -1 0 0
    outer loop
      vertex 15 -24 -47
      vertex 15 -26 -45
      vertex 15 -24 -46.2
    endloop
  endfacet
  facet normal -1 0 0
    outer loop
      vertex 15 -21 -46.2
      vertex 15 -5 -47
      vertex 15 -21 -47
    endloop
  endfacet
  facet normal -1 0 0
    outer loop
      vertex 15 21 -47
      vertex 15 5 -47
      vertex 15 21 -46.2
    endloop
  endfacet
  facet normal -1 0 0
    outer loop
      vertex 15 24 -46.2
      vertex 15 26 -45
      vertex 15 24 -47
    endloop
  endfacet
  facet normal -1 0 0
    outer loop
      vertex 15 21 -46.2
      vertex 15 26 -45
      vertex 15 24 -46.2
    endloop
  endfacet
  facet normal -1 -0 0
    outer loop
      vertex 15 26 -45
      vertex 15 21 -46.2
      vertex 15 30 0
    endloop
  endfacet
  facet normal -1 0 0
    outer loop
      vertex 15 5 -45
      vertex 15 21 -46.2
      vertex 15 5 -47
    endloop
  endfacet
  facet normal -1 0 0
    outer loop
      vertex 15 21 -46.2
      vertex 15 5 -45
      vertex 15 30 0
    endloop
  endfacet
  facet normal -1 0 0
    outer loop
      vertex 15 -5 -45
      vertex 15 30 0
      vertex 15 5 -45
    endloop
  endfacet
  facet normal -1 0 0
    outer loop
      vertex 15 -5 -47
      vertex 15 -21 -46.2
      vertex 15 -5 -45
    endloop
  endfacet
  facet normal -1 0 0
    outer loop
      vertex 15 -30 0
      vertex 15 -5 -45
      vertex 15 -21 -46.2
    endloop
  endfacet
  facet normal -1 0 0
    outer loop
      vertex 15 -26 -45
      vertex 15 -21 -46.2
      vertex 15 -24 -46.2
    endloop
  endfacet
  facet normal -1 0 0
    outer loop
      vertex 15 -21 -46.2
      vertex 15 -26 -45
      vertex 15 -30 0
    endloop
  endfacet
  facet normal -1 0 0
    outer loop
      vertex 15 -5 -45
      vertex 15 -30 0
      vertex 15 30 0
    endloop
  endfacet
  facet normal 0 -0.707107 -0.707107
    outer loop
      vertex 15 -24 -47
      vertex 15.78 -26 -45
      vertex 15 -26 -45
    endloop
  endfacet
  facet normal 0 -0.707107 -0.707107
    outer loop
      vertex 15.78 -26 -45
      vertex 15 -24 -47
      vertex 15.78 -24 -47
    endloop
  endfacet
  facet normal 1 0 0
    outer loop
      vertex 15.78 21.585 -46.2
      vertex 15.78 26 -45
      vertex 15.78 30 0
    endloop
  endfacet
  facet normal 1 0 0
    outer loop
      vertex 15.78 26 -45
      vertex 15.78 21.585 -46.2
      vertex 15.78 24 -46.2
    endloop
  endfacet
  facet normal 1 0 0
    outer loop
      vertex 15.78 5 -47
      vertex 15.78 21.585 -46.2
      vertex 15.78 5 -45
    endloop
  endfacet
  facet normal 1 0 0
    outer loop
      vertex 15.78 30 0
      vertex 15.78 5 -45
      vertex 15.78 21.585 -46.2
    endloop
  endfacet
  facet normal 1 0 0
    outer loop
      vertex 15.78 30 0
      vertex 15.78 -5 -45
      vertex 15.78 5 -45
    endloop
  endfacet
  facet normal 1 0 0
    outer loop
      vertex 15.78 -5 -45
      vertex 15.78 -21.585 -46.2
      vertex 15.78 -5 -47
    endloop
  endfacet
  facet normal 1 -0 0
    outer loop
      vertex 15.78 -30 0
      vertex 15.78 -5 -45
      vertex 15.78 30 0
    endloop
  endfacet
  facet normal 1 0 0
    outer loop
      vertex 15.78 -5 -45
      vertex 15.78 -30 0
      vertex 15.78 -21.585 -46.2
    endloop
  endfacet
  facet normal 1 0 0
    outer loop
      vertex 15.78 -24 -46.2
      vertex 15.78 -26 -45
      vertex 15.78 -24 -47
    endloop
  endfacet
  facet normal 1 -0 -0
    outer loop
      vertex 15.78 -26 -45
      vertex 15.78 -21.585 -46.2
      vertex 15.78 -30 0
    endloop
  endfacet
  facet normal 1 0 0
    outer loop
      vertex 15.78 -21.585 -46.2
      vertex 15.78 -26 -45
      vertex 15.78 -24 -46.2
    endloop
  endfacet
  facet normal 1 0 0
    outer loop
      vertex 15.78 26 -45
      vertex 15.78 24 -46.2
      vertex 15.78 24 -47
    endloop
  endfacet
  facet normal 1 0 0
    outer loop
      vertex 15.78 21.585 -46.2
      vertex 15.78 5 -47
      vertex 15.78 21.585 -47
    endloop
  endfacet
  facet normal 1 0 0
    outer loop
      vertex 15.78 -5 -47
      vertex 15.78 -21.585 -46.2
      vertex 15.78 -21.585 -47
    endloop
  endfacet
  facet normal -0 0 1
    outer loop
      vertex 15 30 0
      vertex 15.78 -30 0
      vertex 15.78 30 0
    endloop
  endfacet
  facet normal 0 0 1
    outer loop
      vertex 15.78 -30 0
      vertex 15 30 0
      vertex 15 -30 0
    endloop
  endfacet
  facet normal 0 0.996073 -0.0885398
    outer loop
      vertex 15.78 26 -45
      vertex 15 30 0
      vertex 15.78 30 0
    endloop
  endfacet
  facet normal 0 0.996073 -0.0885398
    outer loop
      vertex 15 30 0
      vertex 15.78 26 -45
      vertex 15 26 -45
    endloop
  endfacet
  facet normal 0 -0.996073 -0.0885398
    outer loop
      vertex 15 -26 -45
      vertex 15.78 -30 0
      vertex 15 -30 0
    endloop
  endfacet
  facet normal 0 -0.996073 -0.0885398
    outer loop
      vertex 15.78 -30 0
      vertex 15 -26 -45
      vertex 15.78 -26 -45
    endloop
  endfacet
  facet normal 0 0.707107 -0.707107
    outer loop
      vertex -14.22 24 -47
      vertex -15 26 -45
      vertex -14.22 26 -45
    endloop
  endfacet
  facet normal 0 0.707107 -0.707107
    outer loop
      vertex -15 26 -45
      vertex -14.22 24 -47
      vertex -15 24 -47
    endloop
  endfacet
  facet normal -1 0 0
    outer loop
      vertex -15 -24 -47
      vertex -15 -26 -45
      vertex -15 -24 -46.2
    endloop
  endfacet
  facet normal -1 0 0
    outer loop
      vertex -15 -21 -46.2
      vertex -15 -5 -47
      vertex -15 -21 -47
    endloop
  endfacet
  facet normal -1 0 0
    outer loop
      vertex -15 21 -47
      vertex -15 5 -47
      vertex -15 21 -46.2
    endloop
  endfacet
  facet normal -1 0 0
    outer loop
      vertex -15 24 -46.2
      vertex -15 26 -45
      vertex -15 24 -47
    endloop
  endfacet
  facet normal -1 0 0
    outer loop
      vertex -15 21 -46.2
      vertex -15 26 -45
      vertex -15 24 -46.2
    endloop
  endfacet
  facet normal -1 -0 0
    outer loop
      vertex -15 26 -45
      vertex -15 21 -46.2
      vertex -15 30 0
    endloop
  endfacet
  facet normal -1 0 0
    outer loop
      vertex -15 5 -45
      vertex -15 21 -46.2
      vertex -15 5 -47
    endloop
  endfacet
  facet normal -1 0 0
    outer loop
      vertex -15 21 -46.2
      vertex -15 5 -45
      vertex -15 30 0
    endloop
  endfacet
  facet normal -1 0 0
    outer loop
      vertex -15 -5 -45
      vertex -15 30 0
      vertex -15 5 -45
    endloop
  endfacet
  facet normal -1 0 0
    outer loop
      vertex -15 -5 -47
      vertex -15 -21 -46.2
      vertex -15 -5 -45
    endloop
  endfacet
  facet normal -1 0 0
    outer loop
      vertex -15 -30 0
      vertex -15 -5 -45
      vertex -15 -21 -46.2
    endloop
  endfacet
  facet normal -1 0 0
    outer loop
      vertex -15 -26 -45
      vertex -15 -21 -46.2
      vertex -15 -24 -46.2
    endloop
  endfacet
  facet normal -1 0 0
    outer loop
      vertex -15 -21 -46.2
      vertex -15 -26 -45
      vertex -15 -30 0
    endloop
  endfacet
  facet normal -1 0 0
    outer loop
      vertex -15 -5 -45
      vertex -15 -30 0
      vertex -15 30 0
    endloop
  endfacet
  facet normal 0 -0.707107 -0.707107
    outer loop
      vertex -15 -24 -47
      vertex -14.22 -26 -45
      vertex -15 -26 -45
    endloop
  endfacet
  facet normal 0 -0.707107 -0.707107
    outer loop
      vertex -14.22 -26 -45
      vertex -15 -24 -47
      vertex -14.22 -24 -47
    endloop
  endfacet
  facet normal 1 0 0
    outer loop
      vertex -14.22 21.585 -46.2
      vertex -14.22 26 -45
      vertex -14.22 30 0
    endloop
  endfacet
  facet normal 1 0 0
    outer loop
      vertex -14.22 26 -45
      vertex -14.22 21.585 -46.2
      vertex -14.22 24 -46.2
    endloop
  endfacet
  facet normal 1 0 0
    outer loop
      vertex -14.22 5 -47
      vertex -14.22 21.585 -46.2
      vertex -14.22 5 -45
    endloop
  endfacet
  facet normal 1 0 0
    outer loop
      vertex -14.22 30 0
      vertex -14.22 5 -45
      vertex -14.22 21.585 -46.2
    endloop
  endfacet
  facet normal 1 0 0
    outer loop
      vertex -14.22 30 0
      vertex -14.22 -5 -45
      vertex -14.22 5 -45
    endloop
  endfacet
  facet normal 1 0 0
    outer loop
      vertex -14.22 -5 -45
      vertex -14.22 -21.585 -46.2
      vertex -14.22 -5 -47
    endloop
  endfacet
  facet normal 1 -0 0
    outer loop
      vertex -14.22 -30 0
      vertex -14.22 -5 -45
      vertex -14.22 30 0
    endloop
  endfacet
  facet normal 1 0 0
    outer loop
      vertex -14.22 -5 -45
      vertex -14.22 -30 0
      vertex -14.22 -21.585 -46.2
    endloop
  endfacet
  facet normal 1 0 0
    outer loop
      vertex -14.22 -24 -46.2
      vertex -14.22 -26 -45
      vertex -14.22 -24 -47
    endloop
  endfacet
  facet normal 1 -0 -0
    outer loop
      vertex -14.22 -26 -45
      vertex -14.22 -21.585 -46.2
      vertex -14.22 -30 0
    endloop
  endfacet
  facet normal 1 0 0
    outer loop
      vertex -14.22 -21.585 -46.2
      vertex -14.22 -26 -45
      vertex -14.22 -24 -46.2
    endloop
  endfacet
  facet normal 1 0 0
    outer loop
      vertex -14.22 26 -45
      vertex -14.22 24 -46.2
      vertex -14.22 24 -47
    endloop
  endfacet
  facet normal 1 0 0
    outer loop
      vertex -14.22 21.585 -46.2
      vertex -14.22 5 -47
      vertex -14.22 21.585 -47
    endloop
  endfacet
  facet normal 1 0 0
    outer loop
      vertex -14.22 -5 -47
      vertex -14.22 -21.585 -46.2
      vertex -14.22 -21.585 -47
    endloop
  endfacet
  facet normal -0 0 1
    outer loop
      vertex -15 30 0
      vertex -14.22 -30 0
      vertex -14.22 30 0
    endloop
  endfacet
  facet normal 0 0 1
    outer loop
      vertex -14.22 -30 0
      vertex -15 30 0
      vertex -15 -30 0
    endloop
  endfacet
  facet normal 0 0.996073 -0.0885398
    outer loop
      vertex -14.22 26 -45
      vertex -15 30 0
      vertex -14.22 30 0
    endloop
  endfacet
  facet normal 0 0.996073 -0.0885398
    outer loop
      vertex -15 30 0
      vertex -14.22 26 -45
      vertex -15 26 -45
    endloop
  endfacet
  facet normal 0 -0.996073 -0.0885398
    outer loop
      vertex -15 -26 -45
      vertex -14.22 -30 0
      vertex -15 -30 0
    endloop
  endfacet
  facet normal 0 -0.996073 -0.0885398
    outer loop
      vertex -14.22 -30 0
      vertex -15 -26 -45
      vertex -14.22 -26 -45
    endloop
  endfacet
  facet normal 0 0 1
    outer loop
      vertex 15 -21 -46.2
      vertex 11 -24 -46.2
      vertex 15 -24 -46.2
    endloop
  endfacet
  facet normal 0 0 1
    outer loop
      vertex 19 -24 -46.2
      vertex 15.78 -21.585 -46.2
      vertex 15.78 -24 -46.2
    endloop
  endfacet
  facet normal -0.6 0.8 0
    outer loop
      vertex 15 -21 -47
      vertex 11 -24 -46.2
      vertex 15 -21 -46.2
    endloop
  endfacet
  facet normal -0.6 0.8 0
    outer loop
      vertex 11 -24 -46.2
      vertex 15 -21 -47
      vertex 11 -24 -47
    endloop
  endfacet
  facet normal 0 -1 0
    outer loop
      vertex 11 -24 -47
      vertex 15 -24 -46.2
      vertex 11 -24 -46.2
    endloop
  endfacet
  facet normal 0 -1 -0
    outer loop
      vertex 15 -24 -46.2
      vertex 11 -24 -47
      vertex 15 -24 -47
    endloop
  endfacet
  facet normal 0 -1 0
    outer loop
      vertex 15.78 -24 -47
      vertex 19 -24 -46.2
      vertex 15.78 -24 -46.2
    endloop
  endfacet
  facet normal 0 -1 -0
    outer loop
      vertex 19 -24 -46.2
      vertex 15.78 -24 -47
      vertex 19 -24 -47
    endloop
  endfacet
  facet normal 0.6 0.8 -0
    outer loop
      vertex 19 -24 -47
      vertex 15.78 -21.585 -46.2
      vertex 19 -24 -46.2
    endloop
  endfacet
  facet normal 0.6 0.8 0
    outer loop
      vertex 15.78 -21.585 -46.2
      vertex 19 -24 -47
      vertex 15.78 -21.585 -47
    endloop
  endfacet
  facet normal 0 0 1
    outer loop
      vertex 19 24 -46.2
      vertex 15.78 24 -46.2
      vertex 15.78 21.585 -46.2
    endloop
  endfacet
  facet normal 0 0 1
    outer loop
      vertex 15 24 -46.2
      vertex 11 24 -46.2
      vertex 15 21 -46.2
    endloop
  endfacet
  facet normal 0 1 -0
    outer loop
      vertex 19 24 -47
      vertex 15.78 24 -46.2
      vertex 19 24 -46.2
    endloop
  endfacet
  facet normal 0 1 0
    outer loop
      vertex 15.78 24 -46.2
      vertex 19 24 -47
      vertex 15.78 24 -47
    endloop
  endfacet
  facet normal 0 1 -0
    outer loop
      vertex 15 24 -47
      vertex 11 24 -46.2
      vertex 15 24 -46.2
    endloop
  endfacet
  facet normal 0 1 0
    outer loop
      vertex 11 24 -46.2
      vertex 15 24 -47
      vertex 11 24 -47
    endloop
  endfacet
  facet normal 0.6 -0.8 0
    outer loop
      vertex 15.78 21.585 -47
      vertex 19 24 -46.2
      vertex 15.78 21.585 -46.2
    endloop
  endfacet
  facet normal 0.6 -0.8 0
    outer loop
      vertex 19 24 -46.2
      vertex 15.78 21.585 -47
      vertex 19 24 -47
    endloop
  endfacet
  facet normal -0.6 -0.8 0
    outer loop
      vertex 11 24 -47
      vertex 15 21 -46.2
      vertex 11 24 -46.2
    endloop
  endfacet
  facet normal -0.6 -0.8 -0
    outer loop
      vertex 15 21 -46.2
      vertex 11 24 -47
      vertex 15 21 -47
    endloop
  endfacet
  facet normal 0 0 1
    outer loop
      vertex -15 -21 -46.2
      vertex -19 -24 -46.2
      vertex -15 -24 -46.2
    endloop
  endfacet
  facet normal 0 0 1
    outer loop
      vertex -11 -24 -46.2
      vertex -14.22 -21.585 -46.2
      vertex -14.22 -24 -46.2
    endloop
  endfacet
  facet normal -0.6 0.8 0
    outer loop
      vertex -15 -21 -47
      vertex -19 -24 -46.2
      vertex -15 -21 -46.2
    endloop
  endfacet
  facet normal -0.6 0.8 0
    outer loop
      vertex -19 -24 -46.2
      vertex -15 -21 -47
      vertex -19 -24 -47
    endloop
  endfacet
  facet normal 0 -1 0
    outer loop
      vertex -19 -24 -47
      vertex -15 -24 -46.2
      vertex -19 -24 -46.2
    endloop
  endfacet
  facet normal 0 -1 -0
    outer loop
      vertex -15 -24 -46.2
      vertex -19 -24 -47
      vertex -15 -24 -47
    endloop
  endfacet
  facet normal 0 -1 0
    outer loop
      vertex -14.22 -24 -47
      vertex -11 -24 -46.2
      vertex -14.22 -24 -46.2
    endloop
  endfacet
  facet normal 0 -1 -0
    outer loop
      vertex -11 -24 -46.2
      vertex -14.22 -24 -47
      vertex -11 -24 -47
    endloop
  endfacet
  facet normal 0.6 0.8 -0
    outer loop
      vertex -11 -24 -47
      vertex -14.22 -21.585 -46.2
      vertex -11 -24 -46.2
    endloop
  endfacet
  facet normal 0.6 0.8 0
    outer loop
      vertex -14.22 -21.585 -46.2
      vertex -11 -24 -47
      vertex -14.22 -21.585 -47
    endloop
  endfacet
  facet normal 0 0 1
    outer loop
      vertex -11 24 -46.2
      vertex -14.22 24 -46.2
      vertex -14.22 21.585 -46.2
    endloop
  endfacet
  facet normal 0 0 1
    outer loop
      vertex -15 24 -46.2
      vertex -19 24 -46.2
      vertex -15 21 -46.2
    endloop
  endfacet
  facet normal 0 1 -0
    outer loop
      vertex -11 24 -47
      vertex -14.22 24 -46.2
      vertex -11 24 -46.2
    endloop
  endfacet
  facet normal 0 1 0
    outer loop
      vertex -14.22 24 -46.2
      vertex -11 24 -47
      vertex -14.22 24 -47
    endloop
  endfacet
  facet normal 0 1 -0
    outer loop
      vertex -15 24 -47
      vertex -19 24 -46.2
      vertex -15 24 -46.2
    endloop
  endfacet
  facet normal 0 1 0
    outer loop
      vertex -19 24 -46.2
      vertex -15 24 -47
      vertex -19 24 -47
    endloop
  endfacet
  facet normal 0.6 -0.8 0
    outer loop
      vertex -14.22 21.585 -47
      vertex -11 24 -46.2
      vertex -14.22 21.585 -46.2
    endloop
  endfacet
  facet normal 0.6 -0.8 0
    outer loop
      vertex -11 24 -46.2
      vertex -14.22 21.585 -47
      vertex -11 24 -47
    endloop
  endfacet
  facet normal -0.6 -0.8 0
    outer loop
      vertex -19 24 -47
      vertex -15 21 -46.2
      vertex -19 24 -46.2
    endloop
  endfacet
  facet normal -0.6 -0.8 -0
    outer loop
      vertex -15 21 -46.2
      vertex -19 24 -47
      vertex -15 21 -47
    endloop
  endfacet
endsolid OpenSCAD_Model
