solid OpenSCAD_Model
  facet normal 0 -1 0
    outer loop
      vertex 20.78 0 0
      vertex 43 0 -45
      vertex 46.5 0 0
    endloop
  endfacet
  facet normal 0 -1 0
    outer loop
      vertex 20.78 0 -47
      vertex 43 0 -45
      vertex 20.78 0 0
    endloop
  endfacet
  facet normal 0 -1 0
    outer loop
      vertex 43 0 -45
      vertex 20.78 0 -47
      vertex 41 0 -47
    endloop
  endfacet
  facet normal 0 -1 0
    outer loop
      vertex -42.5 0 -45
      vertex -20 0 0
      vertex -46.5 0 0
    endloop
  endfacet
  facet normal 0 -1 0
    outer loop
      vertex -20 0 -47
      vertex -42.5 0 -45
      vertex -40.5 0 -47
    endloop
  endfacet
  facet normal 0 -1 0
    outer loop
      vertex -42.5 0 -45
      vertex -20 0 -47
      vertex -20 0 0
    endloop
  endfacet
  facet normal 0 -1 0
    outer loop
      vertex -19.22 0 -47
      vertex 20 0 0
      vertex -19.22 0 0
    endloop
  endfacet
  facet normal 0 -1 -0
    outer loop
      vertex 20 0 0
      vertex -19.22 0 -47
      vertex 20 0 -47
    endloop
  endfacet
  facet normal 0.996989 0 -0.0775436
    outer loop
      vertex 46.5 0 0
      vertex 43 0.78 -45
      vertex 46.5 0.78 0
    endloop
  endfacet
  facet normal 0.996989 0 -0.0775436
    outer loop
      vertex 43 0.78 -45
      vertex 46.5 0 0
      vertex 43 0 -45
    endloop
  endfacet
  facet normal -0 0 1
    outer loop
      vertex -46.5 0.78 0
      vertex -20 0 0
      vertex -20 0.78 0
    endloop
  endfacet
  facet normal 0 0 1
    outer loop
      vertex -20 0 0
      vertex -46.5 0.78 0
      vertex -46.5 0 0
    endloop
  endfacet
  facet normal 0 0 1
    outer loop
      vertex -20 0.78 0
      vertex -19.22 0.78 0
      vertex -19.22 30 0
    endloop
  endfacet
  facet normal 0 0 1
    outer loop
      vertex -19.22 0.78 0
      vertex -20 0.78 0
      vertex -19.22 0 0
    endloop
  endfacet
  facet normal 0 0 1
    outer loop
      vertex -20 0.78 0
      vertex -19.22 30 0
      vertex -20 30 0
    endloop
  endfacet
  facet normal 0 0 1
    outer loop
      vertex -20 0 0
      vertex -19.22 0 0
      vertex -20 0.78 0
    endloop
  endfacet
  facet normal 0 0 1
    outer loop
      vertex -19.22 0 0
      vertex -20 0 0
      vertex -19.22 -30 0
    endloop
  endfacet
  facet normal 0 0 1
    outer loop
      vertex -19.22 -30 0
      vertex -20 0 0
      vertex -20 -30 0
    endloop
  endfacet
  facet normal -0 0 1
    outer loop
      vertex -19.22 0.78 0
      vertex 20 0 0
      vertex 20 0.78 0
    endloop
  endfacet
  facet normal 0 0 1
    outer loop
      vertex 20 0 0
      vertex -19.22 0.78 0
      vertex -19.22 0 0
    endloop
  endfacet
  facet normal 0 0 1
    outer loop
      vertex 20 0.78 0
      vertex 20.78 0.78 0
      vertex 20.78 30 0
    endloop
  endfacet
  facet normal 0 0 1
    outer loop
      vertex 20.78 0.78 0
      vertex 20 0.78 0
      vertex 20.78 0 0
    endloop
  endfacet
  facet normal 0 0 1
    outer loop
      vertex 20 0.78 0
      vertex 20.78 30 0
      vertex 20 30 0
    endloop
  endfacet
  facet normal 0 0 1
    outer loop
      vertex 20 0 0
      vertex 20.78 0 0
      vertex 20 0.78 0
    endloop
  endfacet
  facet normal 0 0 1
    outer loop
      vertex 20.78 0 0
      vertex 20 0 0
      vertex 20.78 -30 0
    endloop
  endfacet
  facet normal 0 0 1
    outer loop
      vertex 20.78 -30 0
      vertex 20 0 0
      vertex 20 -30 0
    endloop
  endfacet
  facet normal -0 0 1
    outer loop
      vertex 20.78 0.78 0
      vertex 46.5 0 0
      vertex 46.5 0.78 0
    endloop
  endfacet
  facet normal 0 0 1
    outer loop
      vertex 46.5 0 0
      vertex 20.78 0.78 0
      vertex 20.78 0 0
    endloop
  endfacet
  facet normal -0.996073 0 -0.0885398
    outer loop
      vertex -42.5 0 -45
      vertex -46.5 0.78 0
      vertex -42.5 0.78 -45
    endloop
  endfacet
  facet normal -0.996073 -0 -0.0885398
    outer loop
      vertex -46.5 0.78 0
      vertex -42.5 0 -45
      vertex -46.5 0 0
    endloop
  endfacet
  facet normal 0 1 -0
    outer loop
      vertex 43 0.78 -45
      vertex 20.78 0.78 0
      vertex 46.5 0.78 0
    endloop
  endfacet
  facet normal 0 1 0
    outer loop
      vertex 20.78 0.78 -47
      vertex 43 0.78 -45
      vertex 41 0.78 -47
    endloop
  endfacet
  facet normal 0 1 0
    outer loop
      vertex 43 0.78 -45
      vertex 20.78 0.78 -47
      vertex 20.78 0.78 0
    endloop
  endfacet
  facet normal 0 1 0
    outer loop
      vertex -20 0.78 0
      vertex -42.5 0.78 -45
      vertex -46.5 0.78 0
    endloop
  endfacet
  facet normal 0 1 -0
    outer loop
      vertex -20 0.78 -47
      vertex -42.5 0.78 -45
      vertex -20 0.78 0
    endloop
  endfacet
  facet normal 0 1 0
    outer loop
      vertex -42.5 0.78 -45
      vertex -20 0.78 -47
      vertex -40.5 0.78 -47
    endloop
  endfacet
  facet normal 0 1 -0
    outer loop
      vertex 20 0.78 -47
      vertex -19.22 0.78 0
      vertex 20 0.78 0
    endloop
  endfacet
  facet normal 0 1 0
    outer loop
      vertex -19.22 0.78 0
      vertex 20 0.78 -47
      vertex -19.22 0.78 -47
    endloop
  endfacet
  facet normal 0 0 -1
    outer loop
      vertex -40.5 0 -47
      vertex -20 0.78 -47
      vertex -20 0 -47
    endloop
  endfacet
  facet normal -0 0 -1
    outer loop
      vertex -20 0.78 -47
      vertex -40.5 0 -47
      vertex -40.5 0.78 -47
    endloop
  endfacet
  facet normal 0 0 -1
    outer loop
      vertex -20 0 -47
      vertex -19.22 0 -47
      vertex -19.22 -21 -47
    endloop
  endfacet
  facet normal 0 0 -1
    outer loop
      vertex -19.22 0 -47
      vertex -20 0 -47
      vertex -19.22 0.78 -47
    endloop
  endfacet
  facet normal 0 0 -1
    outer loop
      vertex -20 0 -47
      vertex -19.22 -21 -47
      vertex -20 -21 -47
    endloop
  endfacet
  facet normal 0 0 -1
    outer loop
      vertex -20 0.78 -47
      vertex -19.22 0.78 -47
      vertex -20 0 -47
    endloop
  endfacet
  facet normal 0 0 -1
    outer loop
      vertex -19.22 0.78 -47
      vertex -20 0.78 -47
      vertex -19.22 21 -47
    endloop
  endfacet
  facet normal -0 0 -1
    outer loop
      vertex -19.22 21 -47
      vertex -20 0.78 -47
      vertex -20 21 -47
    endloop
  endfacet
  facet normal 0 0 -1
    outer loop
      vertex -19.22 0 -47
      vertex 20 0.78 -47
      vertex 20 0 -47
    endloop
  endfacet
  facet normal -0 0 -1
    outer loop
      vertex 20 0.78 -47
      vertex -19.22 0 -47
      vertex -19.22 0.78 -47
    endloop
  endfacet
  facet normal 0 0 -1
    outer loop
      vertex 20 -21 -47
      vertex 20.78 0 -47
      vertex 20.78 -24 -47
    endloop
  endfacet
  facet normal 0 0 -1
    outer loop
      vertex 20 0 -47
      vertex 20.78 0 -47
      vertex 20 -21 -47
    endloop
  endfacet
  facet normal 0 0 -1
    outer loop
      vertex 20 -21 -47
      vertex 20.78 -24 -47
      vertex 20 -24 -47
    endloop
  endfacet
  facet normal 0 0 -1
    outer loop
      vertex 20.78 0 -47
      vertex 20 0 -47
      vertex 20.78 0.78 -47
    endloop
  endfacet
  facet normal 0 0 -1
    outer loop
      vertex 20 0.78 -47
      vertex 20.78 0.78 -47
      vertex 20 0 -47
    endloop
  endfacet
  facet normal 0 0 -1
    outer loop
      vertex 20 21 -47
      vertex 20.78 0.78 -47
      vertex 20 0.78 -47
    endloop
  endfacet
  facet normal 0 0 -1
    outer loop
      vertex 20.78 0.78 -47
      vertex 20 21 -47
      vertex 20.78 24 -47
    endloop
  endfacet
  facet normal -0 0 -1
    outer loop
      vertex 20.78 24 -47
      vertex 20 21 -47
      vertex 20 24 -47
    endloop
  endfacet
  facet normal 0 0 -1
    outer loop
      vertex 20.78 0 -47
      vertex 41 0.78 -47
      vertex 41 0 -47
    endloop
  endfacet
  facet normal -0 0 -1
    outer loop
      vertex 41 0.78 -47
      vertex 20.78 0 -47
      vertex 20.78 0.78 -47
    endloop
  endfacet
  facet normal 0.707107 0 -0.707107
    outer loop
      vertex 43 0 -45
      vertex 41 0.78 -47
      vertex 43 0.78 -45
    endloop
  endfacet
  facet normal 0.707107 0 -0.707107
    outer loop
      vertex 41 0.78 -47
      vertex 43 0 -45
      vertex 41 0 -47
    endloop
  endfacet
  facet normal -0.707107 0 -0.707107
    outer loop
      vertex -40.5 0 -47
      vertex -42.5 0.78 -45
      vertex -40.5 0.78 -47
    endloop
  endfacet
  facet normal -0.707107 -0 -0.707107
    outer loop
      vertex -42.5 0.78 -45
      vertex -40.5 0 -47
      vertex -42.5 0 -45
    endloop
  endfacet
  facet normal 0 0.707107 -0.707107
    outer loop
      vertex 20.78 24 -47
      vertex 20 26 -45
      vertex 20.78 26 -45
    endloop
  endfacet
  facet normal 0 0.707107 -0.707107
    outer loop
      vertex 20 26 -45
      vertex 20.78 24 -47
      vertex 20 24 -47
    endloop
  endfacet
  facet normal -1 0 0
    outer loop
      vertex 20 21 -47
      vertex 20 0.78 -47
      vertex 20 21 -46.2
    endloop
  endfacet
  facet normal -1 0 0
    outer loop
      vertex 20 24 -46.2
      vertex 20 26 -45
      vertex 20 24 -47
    endloop
  endfacet
  facet normal -1 0 0
    outer loop
      vertex 20 21 -46.2
      vertex 20 26 -45
      vertex 20 24 -46.2
    endloop
  endfacet
  facet normal -1 -0 0
    outer loop
      vertex 20 26 -45
      vertex 20 21 -46.2
      vertex 20 30 0
    endloop
  endfacet
  facet normal -1 0 0
    outer loop
      vertex 20 0.78 0
      vertex 20 21 -46.2
      vertex 20 0.78 -47
    endloop
  endfacet
  facet normal -1 0 0
    outer loop
      vertex 20 21 -46.2
      vertex 20 0.78 0
      vertex 20 30 0
    endloop
  endfacet
  facet normal 1 -0 0
    outer loop
      vertex 20 21 -47
      vertex 20 24 -47.2
      vertex 20 24 -47
    endloop
  endfacet
  facet normal 1 0 0
    outer loop
      vertex 20 24 -47.2
      vertex 20 21 -47
      vertex 20 21 -47.2
    endloop
  endfacet
  facet normal 1 -0 0
    outer loop
      vertex 20 -24 -47
      vertex 20 -21 -47.2
      vertex 20 -21 -47
    endloop
  endfacet
  facet normal 1 0 0
    outer loop
      vertex 20 -21 -47.2
      vertex 20 -24 -47
      vertex 20 -24 -47.2
    endloop
  endfacet
  facet normal -1 0 0
    outer loop
      vertex 20 -24 -47
      vertex 20 -26 -45
      vertex 20 -24 -46.2
    endloop
  endfacet
  facet normal -1 0 0
    outer loop
      vertex 20 -21 -46.2
      vertex 20 0 -47
      vertex 20 -21 -47
    endloop
  endfacet
  facet normal -1 0 0
    outer loop
      vertex 20 0 -47
      vertex 20 -21 -46.2
      vertex 20 0 0
    endloop
  endfacet
  facet normal -1 0 0
    outer loop
      vertex 20 -26 -45
      vertex 20 -21 -46.2
      vertex 20 -24 -46.2
    endloop
  endfacet
  facet normal -1 0 0
    outer loop
      vertex 20 -30 0
      vertex 20 -21 -46.2
      vertex 20 -26 -45
    endloop
  endfacet
  facet normal -1 0 0
    outer loop
      vertex 20 -21 -46.2
      vertex 20 -30 0
      vertex 20 0 0
    endloop
  endfacet
  facet normal 0 -0.707107 -0.707107
    outer loop
      vertex 20 -24 -47
      vertex 20.78 -26 -45
      vertex 20 -26 -45
    endloop
  endfacet
  facet normal 0 -0.707107 -0.707107
    outer loop
      vertex 20.78 -26 -45
      vertex 20 -24 -47
      vertex 20.78 -24 -47
    endloop
  endfacet
  facet normal 1 -0 0
    outer loop
      vertex 20.78 -26 -45
      vertex 20.78 0 -47
      vertex 20.78 0 0
    endloop
  endfacet
  facet normal 1 0 0
    outer loop
      vertex 20.78 0 -47
      vertex 20.78 -26 -45
      vertex 20.78 -24 -47
    endloop
  endfacet
  facet normal 1 0 -0
    outer loop
      vertex 20.78 -26 -45
      vertex 20.78 0 0
      vertex 20.78 -30 0
    endloop
  endfacet
  facet normal 1 -0 0
    outer loop
      vertex 20.78 0.78 0
      vertex 20.78 26 -45
      vertex 20.78 30 0
    endloop
  endfacet
  facet normal 1 0 0
    outer loop
      vertex 20.78 0.78 -47
      vertex 20.78 26 -45
      vertex 20.78 0.78 0
    endloop
  endfacet
  facet normal 1 0 0
    outer loop
      vertex 20.78 26 -45
      vertex 20.78 0.78 -47
      vertex 20.78 24 -47
    endloop
  endfacet
  facet normal 0 0.996073 -0.0885398
    outer loop
      vertex 20.78 26 -45
      vertex 20 30 0
      vertex 20.78 30 0
    endloop
  endfacet
  facet normal 0 0.996073 -0.0885398
    outer loop
      vertex 20 30 0
      vertex 20.78 26 -45
      vertex 20 26 -45
    endloop
  endfacet
  facet normal 0 -0.996073 -0.0885398
    outer loop
      vertex 20 -26 -45
      vertex 20.78 -30 0
      vertex 20 -30 0
    endloop
  endfacet
  facet normal 0 -0.996073 -0.0885398
    outer loop
      vertex 20.78 -30 0
      vertex 20 -26 -45
      vertex 20.78 -26 -45
    endloop
  endfacet
  facet normal 0 0.707107 -0.707107
    outer loop
      vertex -19.22 24 -47
      vertex -20 26 -45
      vertex -19.22 26 -45
    endloop
  endfacet
  facet normal 0 0.707107 -0.707107
    outer loop
      vertex -20 26 -45
      vertex -19.22 24 -47
      vertex -20 24 -47
    endloop
  endfacet
  facet normal -1 0 0
    outer loop
      vertex -20 24 -47.2
      vertex -20 21 -47.2
      vertex -20 24 -47
    endloop
  endfacet
  facet normal -1 0 0
    outer loop
      vertex -20 21 -47
      vertex -20 26 -45
      vertex -20 24 -47
    endloop
  endfacet
  facet normal -1 0 0
    outer loop
      vertex -20 21 -47
      vertex -20 24 -47
      vertex -20 21 -47.2
    endloop
  endfacet
  facet normal -1 0 0
    outer loop
      vertex -20 0.78 0
      vertex -20 26 -45
      vertex -20 21 -47
    endloop
  endfacet
  facet normal -1 0 0
    outer loop
      vertex -20 0.78 0
      vertex -20 21 -47
      vertex -20 0.78 -47
    endloop
  endfacet
  facet normal -1 0 0
    outer loop
      vertex -20 26 -45
      vertex -20 0.78 0
      vertex -20 30 0
    endloop
  endfacet
  facet normal -1 0 0
    outer loop
      vertex -20 -21 -47.2
      vertex -20 -24 -47.2
      vertex -20 -21 -47
    endloop
  endfacet
  facet normal -1 0 0
    outer loop
      vertex -20 -21 -47
      vertex -20 0 0
      vertex -20 0 -47
    endloop
  endfacet
  facet normal -1 0 0
    outer loop
      vertex -20 -24 -47
      vertex -20 -21 -47
      vertex -20 -24 -47.2
    endloop
  endfacet
  facet normal -1 0 0
    outer loop
      vertex -20 -26 -45
      vertex -20 -21 -47
      vertex -20 -24 -47
    endloop
  endfacet
  facet normal -1 0 0
    outer loop
      vertex -20 -21 -47
      vertex -20 -26 -45
      vertex -20 0 0
    endloop
  endfacet
  facet normal -1 -0 0
    outer loop
      vertex -20 0 0
      vertex -20 -26 -45
      vertex -20 -30 0
    endloop
  endfacet
  facet normal 0 -0.707107 -0.707107
    outer loop
      vertex -20 -24 -47
      vertex -19.22 -26 -45
      vertex -20 -26 -45
    endloop
  endfacet
  facet normal 0 -0.707107 -0.707107
    outer loop
      vertex -19.22 -26 -45
      vertex -20 -24 -47
      vertex -19.22 -24 -47
    endloop
  endfacet
  facet normal 1 0 0
    outer loop
      vertex -19.22 21 -46.2
      vertex -19.22 26 -45
      vertex -19.22 30 0
    endloop
  endfacet
  facet normal 1 0 0
    outer loop
      vertex -19.22 26 -45
      vertex -19.22 21 -46.2
      vertex -19.22 24 -46.2
    endloop
  endfacet
  facet normal 1 -0 0
    outer loop
      vertex -19.22 0.78 0
      vertex -19.22 21 -46.2
      vertex -19.22 30 0
    endloop
  endfacet
  facet normal 1 0 0
    outer loop
      vertex -19.22 0.78 -47
      vertex -19.22 21 -46.2
      vertex -19.22 0.78 0
    endloop
  endfacet
  facet normal 1 0 0
    outer loop
      vertex -19.22 21 -46.2
      vertex -19.22 0.78 -47
      vertex -19.22 21 -47
    endloop
  endfacet
  facet normal 1 0 0
    outer loop
      vertex -19.22 26 -45
      vertex -19.22 24 -46.2
      vertex -19.22 24 -47
    endloop
  endfacet
  facet normal 1 0 0
    outer loop
      vertex -19.22 0 0
      vertex -19.22 -21 -46.2
      vertex -19.22 0 -47
    endloop
  endfacet
  facet normal 1 -0 0
    outer loop
      vertex -19.22 -30 0
      vertex -19.22 -21 -46.2
      vertex -19.22 0 0
    endloop
  endfacet
  facet normal 1 0 0
    outer loop
      vertex -19.22 -24 -46.2
      vertex -19.22 -26 -45
      vertex -19.22 -24 -47
    endloop
  endfacet
  facet normal 1 0 0
    outer loop
      vertex -19.22 -21 -46.2
      vertex -19.22 -26 -45
      vertex -19.22 -24 -46.2
    endloop
  endfacet
  facet normal 1 0 0
    outer loop
      vertex -19.22 -21 -46.2
      vertex -19.22 -30 0
      vertex -19.22 -26 -45
    endloop
  endfacet
  facet normal 1 0 0
    outer loop
      vertex -19.22 0 -47
      vertex -19.22 -21 -46.2
      vertex -19.22 -21 -47
    endloop
  endfacet
  facet normal 0 0.996073 -0.0885398
    outer loop
      vertex -19.22 26 -45
      vertex -20 30 0
      vertex -19.22 30 0
    endloop
  endfacet
  facet normal 0 0.996073 -0.0885398
    outer loop
      vertex -20 30 0
      vertex -19.22 26 -45
      vertex -20 26 -45
    endloop
  endfacet
  facet normal 0 -0.996073 -0.0885398
    outer loop
      vertex -20 -26 -45
      vertex -19.22 -30 0
      vertex -20 -30 0
    endloop
  endfacet
  facet normal 0 -0.996073 -0.0885398
    outer loop
      vertex -19.22 -30 0
      vertex -20 -26 -45
      vertex -19.22 -26 -45
    endloop
  endfacet
  facet normal -0 0 1
    outer loop
      vertex -19.22 -21 -46.2
      vertex 20 -24 -46.2
      vertex 20 -21 -46.2
    endloop
  endfacet
  facet normal 0 0 1
    outer loop
      vertex 20 -24 -46.2
      vertex -19.22 -21 -46.2
      vertex -19.22 -24 -46.2
    endloop
  endfacet
  facet normal 0 1 -0
    outer loop
      vertex 20 -21 -47
      vertex -19.22 -21 -46.2
      vertex 20 -21 -46.2
    endloop
  endfacet
  facet normal 0 1 0
    outer loop
      vertex 20 -21 -47
      vertex -19.22 -21 -47
      vertex -19.22 -21 -46.2
    endloop
  endfacet
  facet normal 0 1 -0
    outer loop
      vertex 20 -21 -47.2
      vertex -19.22 -21 -47
      vertex 20 -21 -47
    endloop
  endfacet
  facet normal 0 1 0
    outer loop
      vertex -20 -21 -47.2
      vertex -19.22 -21 -47
      vertex 20 -21 -47.2
    endloop
  endfacet
  facet normal 0 1 0
    outer loop
      vertex -19.22 -21 -47
      vertex -20 -21 -47.2
      vertex -20 -21 -47
    endloop
  endfacet
  facet normal 0 -1 0
    outer loop
      vertex -20 -24 -47.2
      vertex -19.22 -24 -47
      vertex -20 -24 -47
    endloop
  endfacet
  facet normal 0 -1 0
    outer loop
      vertex 20 -24 -47.2
      vertex -19.22 -24 -47
      vertex -20 -24 -47.2
    endloop
  endfacet
  facet normal 0 -1 0
    outer loop
      vertex -19.22 -24 -47
      vertex 20 -24 -47.2
      vertex 20 -24 -47
    endloop
  endfacet
  facet normal 0 -1 0
    outer loop
      vertex -19.22 -24 -47
      vertex 20 -24 -46.2
      vertex -19.22 -24 -46.2
    endloop
  endfacet
  facet normal 0 -1 -0
    outer loop
      vertex 20 -24 -46.2
      vertex -19.22 -24 -47
      vertex 20 -24 -47
    endloop
  endfacet
  facet normal 0 0 -1
    outer loop
      vertex -20 -24 -47.2
      vertex 20 -21 -47.2
      vertex 20 -24 -47.2
    endloop
  endfacet
  facet normal -0 0 -1
    outer loop
      vertex 20 -21 -47.2
      vertex -20 -24 -47.2
      vertex -20 -21 -47.2
    endloop
  endfacet
  facet normal -0 0 1
    outer loop
      vertex -19.22 24 -46.2
      vertex 20 21 -46.2
      vertex 20 24 -46.2
    endloop
  endfacet
  facet normal 0 0 1
    outer loop
      vertex 20 21 -46.2
      vertex -19.22 24 -46.2
      vertex -19.22 21 -46.2
    endloop
  endfacet
  facet normal 0 -1 0
    outer loop
      vertex -20 21 -47.2
      vertex -19.22 21 -47
      vertex -20 21 -47
    endloop
  endfacet
  facet normal 0 -1 0
    outer loop
      vertex 20 21 -47.2
      vertex -19.22 21 -47
      vertex -20 21 -47.2
    endloop
  endfacet
  facet normal 0 -1 0
    outer loop
      vertex -19.22 21 -47
      vertex 20 21 -47.2
      vertex 20 21 -47
    endloop
  endfacet
  facet normal 0 -1 0
    outer loop
      vertex -19.22 21 -47
      vertex 20 21 -46.2
      vertex -19.22 21 -46.2
    endloop
  endfacet
  facet normal 0 -1 -0
    outer loop
      vertex 20 21 -46.2
      vertex -19.22 21 -47
      vertex 20 21 -47
    endloop
  endfacet
  facet normal 0 0 -1
    outer loop
      vertex -20 21 -47.2
      vertex 20 24 -47.2
      vertex 20 21 -47.2
    endloop
  endfacet
  facet normal -0 0 -1
    outer loop
      vertex 20 24 -47.2
      vertex -20 21 -47.2
      vertex -20 24 -47.2
    endloop
  endfacet
  facet normal 0 1 -0
    outer loop
      vertex 20 24 -47
      vertex -19.22 24 -46.2
      vertex 20 24 -46.2
    endloop
  endfacet
  facet normal 0 1 0
    outer loop
      vertex 20 24 -47
      vertex -19.22 24 -47
      vertex -19.22 24 -46.2
    endloop
  endfacet
  facet normal 0 1 -0
    outer loop
      vertex 20 24 -47.2
      vertex -19.22 24 -47
      vertex 20 24 -47
    endloop
  endfacet
  facet normal 0 1 0
    outer loop
      vertex -20 24 -47.2
      vertex -19.22 24 -47
      vertex 20 24 -47.2
    endloop
  endfacet
  facet normal 0 1 0
    outer loop
      vertex -19.22 24 -47
      vertex -20 24 -47.2
      vertex -20 24 -47
    endloop
  endfacet
endsolid OpenSCAD_Model
