solid OpenSCAD_Model
  facet normal 0 1 -0
    outer loop
      vertex -50 0 100
      vertex -98.7 0 200
      vertex -50 0 200
    endloop
  endfacet
  facet normal 0 1 0
    outer loop
      vertex -98.7 0 200
      vertex -50 0 100
      vertex -98.7 0 2.6
    endloop
  endfacet
  facet normal 0 -1 0
    outer loop
      vertex -49.2 0 100
      vertex -49.2 0 101.6
      vertex -50 0 100
    endloop
  endfacet
  facet normal 0 1 0
    outer loop
      vertex -49.2 0 101.6
      vertex -0.8 0 200
      vertex 0 0 200
    endloop
  endfacet
  facet normal 0 1 0
    outer loop
      vertex -0.8 0 200
      vertex -49.2 0 101.6
      vertex -49.2 0 200
    endloop
  endfacet
  facet normal -1 0 0
    outer loop
      vertex -100 -100 0
      vertex -100 100 200
      vertex -100 100 0
    endloop
  endfacet
  facet normal -1 -0 0
    outer loop
      vertex -100 100 200
      vertex -100 -100 0
      vertex -100 -100 200
    endloop
  endfacet
  facet normal 0.894427 0 -0.447214
    outer loop
      vertex 0 -0.8 200
      vertex -49.2 0 101.6
      vertex 0 0 200
    endloop
  endfacet
  facet normal 0.894427 0 -0.447214
    outer loop
      vertex -49.2 0 101.6
      vertex 0 -0.8 200
      vertex -50 0 100
    endloop
  endfacet
  facet normal 0.894427 0 -0.447214
    outer loop
      vertex -98.7 -0.8 2.6
      vertex -50 0 100
      vertex 0 -0.8 200
    endloop
  endfacet
  facet normal 0.894427 0 -0.447214
    outer loop
      vertex -50 0 100
      vertex -98.7 -0.8 2.6
      vertex -98.7 0 2.6
    endloop
  endfacet
  facet normal 0 -1 0
    outer loop
      vertex -98.7 -0.8 200
      vertex -50.8 -0.8 101.6
      vertex -50.8 -0.8 200
    endloop
  endfacet
  facet normal 0 -1 -0
    outer loop
      vertex -50.8 -0.8 101.6
      vertex -98.7 -0.8 2.6
      vertex -50 -0.8 101.6
    endloop
  endfacet
  facet normal 0 -1 0
    outer loop
      vertex -98.7 -0.8 2.6
      vertex -50.8 -0.8 101.6
      vertex -98.7 -0.8 200
    endloop
  endfacet
  facet normal 0 -1 0
    outer loop
      vertex -50 -0.8 101.6
      vertex 0 -0.8 200
      vertex -50 -0.8 200
    endloop
  endfacet
  facet normal 0 -1 0
    outer loop
      vertex 0 -0.8 200
      vertex -50 -0.8 101.6
      vertex -98.7 -0.8 2.6
    endloop
  endfacet
  facet normal -0 0 1
    outer loop
      vertex -50.8 50 200
      vertex -50 49.2 200
      vertex -50 50 200
    endloop
  endfacet
  facet normal 0 0 1
    outer loop
      vertex -98.7 49.2 200
      vertex -50.8 50 200
      vertex -98.7 50 200
    endloop
  endfacet
  facet normal 0 0 1
    outer loop
      vertex -50.8 50 200
      vertex -98.7 49.2 200
      vertex -50 49.2 200
    endloop
  endfacet
  facet normal 0 0 1
    outer loop
      vertex -50 -50.8 200
      vertex -49.2 -50 200
      vertex -50 -50 200
    endloop
  endfacet
  facet normal 0 0 1
    outer loop
      vertex -0.8 50.8 200
      vertex -49.2 50 200
      vertex -0.8 50 200
    endloop
  endfacet
  facet normal -0 0 1
    outer loop
      vertex -50 50.8 200
      vertex -49.2 50 200
      vertex -0.8 50.8 200
    endloop
  endfacet
  facet normal 0 0 1
    outer loop
      vertex -49.2 50 200
      vertex -50 50.8 200
      vertex -50 50 200
    endloop
  endfacet
  facet normal 0 0 1
    outer loop
      vertex 0 -49.2 200
      vertex -49.2 -50 200
      vertex 0 -50 200
    endloop
  endfacet
  facet normal -0 0 1
    outer loop
      vertex -50 -49.2 200
      vertex -49.2 -50 200
      vertex 0 -49.2 200
    endloop
  endfacet
  facet normal 0 0 1
    outer loop
      vertex -49.2 -50 200
      vertex -50 -49.2 200
      vertex -50 -50 200
    endloop
  endfacet
  facet normal -0 0 1
    outer loop
      vertex -0.8 0 200
      vertex 0 -0.8 200
      vertex 0 0 200
    endloop
  endfacet
  facet normal -0 0 1
    outer loop
      vertex -49.2 0 200
      vertex 0 -0.8 200
      vertex -0.8 0 200
    endloop
  endfacet
  facet normal 0 0 1
    outer loop
      vertex -49.2 50 200
      vertex -50 49.2 200
      vertex -49.2 0 200
    endloop
  endfacet
  facet normal 0 0 1
    outer loop
      vertex -50 0 200
      vertex -49.2 0 200
      vertex -50 49.2 200
    endloop
  endfacet
  facet normal 0 0 1
    outer loop
      vertex -50 -0.8 200
      vertex -49.2 0 200
      vertex -50 0 200
    endloop
  endfacet
  facet normal 0 0 1
    outer loop
      vertex -49.2 0 200
      vertex -50 -0.8 200
      vertex 0 -0.8 200
    endloop
  endfacet
  facet normal 0 0 1
    outer loop
      vertex -50.8 -0.8 200
      vertex -50 -0.8 200
      vertex -50 0 200
    endloop
  endfacet
  facet normal 0 0 1
    outer loop
      vertex -50 -0.8 200
      vertex -50.8 -0.8 200
      vertex -50 -49.2 200
    endloop
  endfacet
  facet normal 0 0 1
    outer loop
      vertex -50.8 -50 200
      vertex -50 -49.2 200
      vertex -50.8 -0.8 200
    endloop
  endfacet
  facet normal -0 0 1
    outer loop
      vertex -98.7 0 200
      vertex -50.8 -0.8 200
      vertex -50 0 200
    endloop
  endfacet
  facet normal 0 0 1
    outer loop
      vertex -50.8 -0.8 200
      vertex -98.7 0 200
      vertex -98.7 -0.8 200
    endloop
  endfacet
  facet normal -0 0 1
    outer loop
      vertex 0 -49.2 200
      vertex 0.8 -50 200
      vertex 0.8 0 200
    endloop
  endfacet
  facet normal 0 0 1
    outer loop
      vertex 0 -50 200
      vertex 0.8 -50 200
      vertex 0 -49.2 200
    endloop
  endfacet
  facet normal 0 0 1
    outer loop
      vertex 0 -0.8 200
      vertex 0.8 0 200
      vertex 0 0 200
    endloop
  endfacet
  facet normal 0 0 1
    outer loop
      vertex 50 -49.2 200
      vertex 49.2 -50 200
      vertex 50 -50 200
    endloop
  endfacet
  facet normal -0 0 1
    outer loop
      vertex 49.2 50 200
      vertex 50 49.2 200
      vertex 50 50 200
    endloop
  endfacet
  facet normal 0 0 1
    outer loop
      vertex 0 49.2 200
      vertex 49.2 50 200
      vertex 0 50 200
    endloop
  endfacet
  facet normal 0 0 1
    outer loop
      vertex 49.2 50 200
      vertex 0 49.2 200
      vertex 50 49.2 200
    endloop
  endfacet
  facet normal 0 0 1
    outer loop
      vertex 50 -50.8 200
      vertex 50.8 -50 200
      vertex 50 -50 200
    endloop
  endfacet
  facet normal 0 0 1
    outer loop
      vertex 50 49.2 200
      vertex 50.8 50 200
      vertex 50 50 200
    endloop
  endfacet
  facet normal 0 0 1
    outer loop
      vertex 98.7 -49.2 200
      vertex 50.8 -50 200
      vertex 98.7 -50 200
    endloop
  endfacet
  facet normal -0 0 1
    outer loop
      vertex 50 -49.2 200
      vertex 50.8 -50 200
      vertex 98.7 -49.2 200
    endloop
  endfacet
  facet normal 0 0 1
    outer loop
      vertex 50.8 -50 200
      vertex 50 -49.2 200
      vertex 50 -50 200
    endloop
  endfacet
  facet normal -0 0 1
    outer loop
      vertex 50.8 0.8 200
      vertex 98.7 0 200
      vertex 98.7 0.8 200
    endloop
  endfacet
  facet normal 0 0 1
    outer loop
      vertex 50.8 50 200
      vertex 50 49.2 200
      vertex 50.8 0.8 200
    endloop
  endfacet
  facet normal 0 0 1
    outer loop
      vertex 50 0.8 200
      vertex 50.8 0.8 200
      vertex 50 49.2 200
    endloop
  endfacet
  facet normal 0 0 1
    outer loop
      vertex 50 0 200
      vertex 50.8 0.8 200
      vertex 50 0.8 200
    endloop
  endfacet
  facet normal 0 0 1
    outer loop
      vertex 50.8 0.8 200
      vertex 50 0 200
      vertex 98.7 0 200
    endloop
  endfacet
  facet normal 0 0 1
    outer loop
      vertex 49.2 0 200
      vertex 50 0 200
      vertex 50 0.8 200
    endloop
  endfacet
  facet normal 0 0 1
    outer loop
      vertex 50 0 200
      vertex 49.2 0 200
      vertex 50 -49.2 200
    endloop
  endfacet
  facet normal 0 0 1
    outer loop
      vertex 49.2 -50 200
      vertex 50 -49.2 200
      vertex 49.2 0 200
    endloop
  endfacet
  facet normal 0 0 1
    outer loop
      vertex 50 0.8 200
      vertex 0.8 0 200
      vertex 49.2 0 200
    endloop
  endfacet
  facet normal -0 0 1
    outer loop
      vertex 0 0.8 200
      vertex 0.8 0 200
      vertex 50 0.8 200
    endloop
  endfacet
  facet normal 0 0 1
    outer loop
      vertex 0.8 0 200
      vertex 0 0.8 200
      vertex 0 0 200
    endloop
  endfacet
  facet normal 0 0 1
    outer loop
      vertex 98.7 50.8 200
      vertex 50.8 50 200
      vertex 98.7 50 200
    endloop
  endfacet
  facet normal -0 0 1
    outer loop
      vertex 50 50.8 200
      vertex 50.8 50 200
      vertex 98.7 50.8 200
    endloop
  endfacet
  facet normal 0 0 1
    outer loop
      vertex 50.8 50 200
      vertex 50 50.8 200
      vertex 50 50 200
    endloop
  endfacet
  facet normal 0 0 1
    outer loop
      vertex 98.7 50.8 200
      vertex 100 100 200
      vertex 98.7 98.7 200
    endloop
  endfacet
  facet normal 0 0 1
    outer loop
      vertex 100 100 200
      vertex 50 98.7 200
      vertex 98.7 98.7 200
    endloop
  endfacet
  facet normal -0 0 1
    outer loop
      vertex 49.2 98.7 200
      vertex 50 50.8 200
      vertex 50 98.7 200
    endloop
  endfacet
  facet normal 0 0 1
    outer loop
      vertex 49.2 50 200
      vertex 50 50.8 200
      vertex 49.2 98.7 200
    endloop
  endfacet
  facet normal 0 0 1
    outer loop
      vertex 100 100 200
      vertex 49.2 98.7 200
      vertex 50 98.7 200
    endloop
  endfacet
  facet normal 0 0 1
    outer loop
      vertex 100 100 200
      vertex 0 98.7 200
      vertex 49.2 98.7 200
    endloop
  endfacet
  facet normal -0 0 1
    outer loop
      vertex -0.8 50.8 200
      vertex 0 50 200
      vertex 0 98.7 200
    endloop
  endfacet
  facet normal 0 0 1
    outer loop
      vertex -0.8 50 200
      vertex 0 50 200
      vertex -0.8 50.8 200
    endloop
  endfacet
  facet normal 0 0 1
    outer loop
      vertex 0 50 200
      vertex -0.8 50 200
      vertex 0 49.2 200
    endloop
  endfacet
  facet normal 0 0 1
    outer loop
      vertex -0.8 50.8 200
      vertex 0 98.7 200
      vertex -0.8 98.7 200
    endloop
  endfacet
  facet normal 0 0 1
    outer loop
      vertex 100 100 200
      vertex -0.8 98.7 200
      vertex 0 98.7 200
    endloop
  endfacet
  facet normal -0 0 1
    outer loop
      vertex -100 100 200
      vertex -0.8 98.7 200
      vertex 100 100 200
    endloop
  endfacet
  facet normal -0 0 1
    outer loop
      vertex -50.8 98.7 200
      vertex -50 50.8 200
      vertex -50 98.7 200
    endloop
  endfacet
  facet normal 0 0 1
    outer loop
      vertex -50.8 50 200
      vertex -50 50.8 200
      vertex -50.8 98.7 200
    endloop
  endfacet
  facet normal 0 0 1
    outer loop
      vertex -0.8 98.7 200
      vertex -100 100 200
      vertex -50 98.7 200
    endloop
  endfacet
  facet normal 0 0 1
    outer loop
      vertex -50 98.7 200
      vertex -100 100 200
      vertex -50.8 98.7 200
    endloop
  endfacet
  facet normal 0 0 1
    outer loop
      vertex -100 100 200
      vertex -98.7 50 200
      vertex -98.7 98.7 200
    endloop
  endfacet
  facet normal 0 0 1
    outer loop
      vertex -98.7 50 200
      vertex -100 100 200
      vertex -98.7 49.2 200
    endloop
  endfacet
  facet normal 0 0 1
    outer loop
      vertex -98.7 49.2 200
      vertex -100 100 200
      vertex -98.7 0 200
    endloop
  endfacet
  facet normal 0 0 1
    outer loop
      vertex -98.7 0 200
      vertex -100 100 200
      vertex -98.7 -0.8 200
    endloop
  endfacet
  facet normal 0 0 1
    outer loop
      vertex -100 -100 200
      vertex -98.7 -0.8 200
      vertex -100 100 200
    endloop
  endfacet
  facet normal 0 0 1
    outer loop
      vertex -98.7 -0.8 200
      vertex -100 -100 200
      vertex -98.7 -50 200
    endloop
  endfacet
  facet normal 0 0 1
    outer loop
      vertex -98.7 -50 200
      vertex -100 -100 200
      vertex -98.7 -50.8 200
    endloop
  endfacet
  facet normal 0 0 1
    outer loop
      vertex -50.8 98.7 200
      vertex -100 100 200
      vertex -98.7 98.7 200
    endloop
  endfacet
  facet normal 0 0 1
    outer loop
      vertex 98.7 50 200
      vertex 100 100 200
      vertex 98.7 50.8 200
    endloop
  endfacet
  facet normal 0 0 1
    outer loop
      vertex 98.7 0.8 200
      vertex 100 100 200
      vertex 98.7 50 200
    endloop
  endfacet
  facet normal 0 0 1
    outer loop
      vertex 100 100 200
      vertex 98.7 0.8 200
      vertex 100 -100 200
    endloop
  endfacet
  facet normal -0 0 1
    outer loop
      vertex 98.7 0 200
      vertex 100 -100 200
      vertex 98.7 0.8 200
    endloop
  endfacet
  facet normal -0 0 1
    outer loop
      vertex 98.7 -49.2 200
      vertex 100 -100 200
      vertex 98.7 0 200
    endloop
  endfacet
  facet normal -0 0 1
    outer loop
      vertex 98.7 -50 200
      vertex 100 -100 200
      vertex 98.7 -49.2 200
    endloop
  endfacet
  facet normal -0 0 1
    outer loop
      vertex 98.7 -98.7 200
      vertex 100 -100 200
      vertex 98.7 -50 200
    endloop
  endfacet
  facet normal -0 0 1
    outer loop
      vertex 50.8 -98.7 200
      vertex 100 -100 200
      vertex 98.7 -98.7 200
    endloop
  endfacet
  facet normal 0 0 1
    outer loop
      vertex 50.8 -50 200
      vertex 50 -50.8 200
      vertex 50.8 -98.7 200
    endloop
  endfacet
  facet normal 0 0 1
    outer loop
      vertex 50 -98.7 200
      vertex 50.8 -98.7 200
      vertex 50 -50.8 200
    endloop
  endfacet
  facet normal -0 0 1
    outer loop
      vertex 50 -98.7 200
      vertex 100 -100 200
      vertex 50.8 -98.7 200
    endloop
  endfacet
  facet normal -0 0 1
    outer loop
      vertex 0.8 -98.7 200
      vertex 100 -100 200
      vertex 50 -98.7 200
    endloop
  endfacet
  facet normal 0 0 1
    outer loop
      vertex 0 -49.2 200
      vertex 0.8 0 200
      vertex 0 -0.8 200
    endloop
  endfacet
  facet normal 0 0 1
    outer loop
      vertex 0.8 -50 200
      vertex 0 -50 200
      vertex 0.8 -50.8 200
    endloop
  endfacet
  facet normal 0 0 1
    outer loop
      vertex 0 -98.7 200
      vertex 0.8 -50.8 200
      vertex 0 -50 200
    endloop
  endfacet
  facet normal 0 0 1
    outer loop
      vertex 0.8 -50.8 200
      vertex 0 -98.7 200
      vertex 0.8 -98.7 200
    endloop
  endfacet
  facet normal -0 0 1
    outer loop
      vertex 0 -98.7 200
      vertex 100 -100 200
      vertex 0.8 -98.7 200
    endloop
  endfacet
  facet normal 0 0 1
    outer loop
      vertex -100 -100 200
      vertex 0 -98.7 200
      vertex -49.2 -98.7 200
    endloop
  endfacet
  facet normal 0 0 1
    outer loop
      vertex -49.2 -50 200
      vertex -50 -50.8 200
      vertex -49.2 -98.7 200
    endloop
  endfacet
  facet normal 0 0 1
    outer loop
      vertex -50 -98.7 200
      vertex -49.2 -98.7 200
      vertex -50 -50.8 200
    endloop
  endfacet
  facet normal 0 0 1
    outer loop
      vertex -100 -100 200
      vertex -49.2 -98.7 200
      vertex -50 -98.7 200
    endloop
  endfacet
  facet normal 0 0 1
    outer loop
      vertex -100 -100 200
      vertex -50 -98.7 200
      vertex -98.7 -98.7 200
    endloop
  endfacet
  facet normal 0 0 1
    outer loop
      vertex 0 -98.7 200
      vertex -100 -100 200
      vertex 100 -100 200
    endloop
  endfacet
  facet normal 0 0 1
    outer loop
      vertex -98.7 -50.8 200
      vertex -100 -100 200
      vertex -98.7 -98.7 200
    endloop
  endfacet
  facet normal -0 0 1
    outer loop
      vertex 49.2 -50 200
      vertex 50 -50.8 200
      vertex 50 -50 200
    endloop
  endfacet
  facet normal 0 0 1
    outer loop
      vertex 0.8 -50.8 200
      vertex 49.2 -50 200
      vertex 0.8 -50 200
    endloop
  endfacet
  facet normal 0 0 1
    outer loop
      vertex 49.2 -50 200
      vertex 0.8 -50.8 200
      vertex 50 -50.8 200
    endloop
  endfacet
  facet normal 0 0 1
    outer loop
      vertex 50 50.8 200
      vertex 49.2 50 200
      vertex 50 50 200
    endloop
  endfacet
  facet normal 0 0 1
    outer loop
      vertex 0 49.2 200
      vertex -0.8 50 200
      vertex 0 0.8 200
    endloop
  endfacet
  facet normal 0 0 1
    outer loop
      vertex -0.8 0 200
      vertex 0 0.8 200
      vertex -0.8 50 200
    endloop
  endfacet
  facet normal 0 0 1
    outer loop
      vertex 0 0.8 200
      vertex -0.8 0 200
      vertex 0 0 200
    endloop
  endfacet
  facet normal 0 0 1
    outer loop
      vertex -50 49.2 200
      vertex -49.2 50 200
      vertex -50 50 200
    endloop
  endfacet
  facet normal -0 0 1
    outer loop
      vertex -50.8 -50 200
      vertex -50 -50.8 200
      vertex -50 -50 200
    endloop
  endfacet
  facet normal 0 0 1
    outer loop
      vertex -98.7 -50.8 200
      vertex -50.8 -50 200
      vertex -98.7 -50 200
    endloop
  endfacet
  facet normal 0 0 1
    outer loop
      vertex -50.8 -50 200
      vertex -98.7 -50.8 200
      vertex -50 -50.8 200
    endloop
  endfacet
  facet normal 0 0 1
    outer loop
      vertex -50 50.8 200
      vertex -50.8 50 200
      vertex -50 50 200
    endloop
  endfacet
  facet normal 0 0 1
    outer loop
      vertex -50 -49.2 200
      vertex -50.8 -50 200
      vertex -50 -50 200
    endloop
  endfacet
  facet normal -1 0 0
    outer loop
      vertex -50 0 100
      vertex -50 49.2 200
      vertex -50 50 200
    endloop
  endfacet
  facet normal -1 -0 0
    outer loop
      vertex -50 49.2 200
      vertex -50 0 100
      vertex -50 0 200
    endloop
  endfacet
  facet normal 0 0.894427 -0.447214
    outer loop
      vertex -49.2 0 100
      vertex -50 50 200
      vertex -49.2 50 200
    endloop
  endfacet
  facet normal 0 0.894427 -0.447214
    outer loop
      vertex -50 50 200
      vertex -49.2 0 100
      vertex -50 0 100
    endloop
  endfacet
  facet normal 1 0 0
    outer loop
      vertex -49.2 0 101.6
      vertex -49.2 50 200
      vertex -49.2 0 200
    endloop
  endfacet
  facet normal 1 0 0
    outer loop
      vertex -49.2 50 200
      vertex -49.2 0 101.6
      vertex -49.2 0 100
    endloop
  endfacet
  facet normal 0 -1 0
    outer loop
      vertex -0.8 50 101.6
      vertex -49.2 50 200
      vertex -50 50 200
    endloop
  endfacet
  facet normal 0 -1 0
    outer loop
      vertex -49.2 50 200
      vertex -0.8 50 101.6
      vertex -0.8 50 200
    endloop
  endfacet
  facet normal -0.894427 0 -0.447214
    outer loop
      vertex -0.8 50 101.6
      vertex -50 50.8 200
      vertex -0.8 50.8 101.6
    endloop
  endfacet
  facet normal -0.894427 -0 -0.447214
    outer loop
      vertex -50 50.8 200
      vertex -0.8 50 101.6
      vertex -50 50 200
    endloop
  endfacet
  facet normal 1 0 0
    outer loop
      vertex 0 50 100
      vertex 0 98.7 200
      vertex 0 50 200
    endloop
  endfacet
  facet normal 1 0 0
    outer loop
      vertex 0 98.7 200
      vertex 0 50 100
      vertex 0 98.7 2.6
    endloop
  endfacet
  facet normal 0 1 -0
    outer loop
      vertex -0.8 50.8 101.6
      vertex -50 50.8 200
      vertex -0.8 50.8 200
    endloop
  endfacet
  facet normal 1 -0 0
    outer loop
      vertex -50 50.8 200
      vertex -50 98.7 102.6
      vertex -50 98.7 200
    endloop
  endfacet
  facet normal 1 0 0
    outer loop
      vertex -50 98.7 102.6
      vertex -50 50.8 200
      vertex -50 50 200
    endloop
  endfacet
  facet normal 0 1 -0
    outer loop
      vertex 100 100 0
      vertex -100 100 200
      vertex 100 100 200
    endloop
  endfacet
  facet normal 0 1 0
    outer loop
      vertex -100 100 200
      vertex 100 100 0
      vertex -100 100 0
    endloop
  endfacet
  facet normal 0 -0.894427 -0.447214
    outer loop
      vertex -50.8 98.7 102.6
      vertex -50 50 200
      vertex -50.8 50 200
    endloop
  endfacet
  facet normal 0 -0.894427 -0.447214
    outer loop
      vertex -50 50 200
      vertex -50.8 98.7 102.6
      vertex -50 98.7 102.6
    endloop
  endfacet
  facet normal -1 0 0
    outer loop
      vertex -50.8 98.7 102.6
      vertex -50.8 50 200
      vertex -50.8 98.7 200
    endloop
  endfacet
  facet normal 0 1 0
    outer loop
      vertex -98.7 50 102.6
      vertex -50.8 50 200
      vertex -50 50 200
    endloop
  endfacet
  facet normal 0 1 0
    outer loop
      vertex -50.8 50 200
      vertex -98.7 50 102.6
      vertex -98.7 50 200
    endloop
  endfacet
  facet normal 0.894427 0 -0.447214
    outer loop
      vertex -50 49.2 200
      vertex -98.7 50 102.6
      vertex -50 50 200
    endloop
  endfacet
  facet normal 0.894427 0 -0.447214
    outer loop
      vertex -98.7 50 102.6
      vertex -50 49.2 200
      vertex -98.7 49.2 102.6
    endloop
  endfacet
  facet normal 0 -1 0
    outer loop
      vertex -98.7 49.2 200
      vertex -98.7 49.2 102.6
      vertex -50 49.2 200
    endloop
  endfacet
  facet normal -1 0 0
    outer loop
      vertex 0 -98.7 200
      vertex 0 -50 100
      vertex 0 -98.7 2.6
    endloop
  endfacet
  facet normal -1 0 0
    outer loop
      vertex 0 -50 100
      vertex 0 -98.7 200
      vertex 0 -50 200
    endloop
  endfacet
  facet normal 1 0 -0
    outer loop
      vertex 0 -49.2 100
      vertex 0 -49.2 101.6
      vertex 0 -50 100
    endloop
  endfacet
  facet normal -1 0 0
    outer loop
      vertex 0 -49.2 101.6
      vertex 0 -0.8 200
      vertex 0 0 200
    endloop
  endfacet
  facet normal -1 -0 0
    outer loop
      vertex 0 -0.8 200
      vertex 0 -49.2 101.6
      vertex 0 -49.2 200
    endloop
  endfacet
  facet normal 0 -1 0
    outer loop
      vertex -100 -100 0
      vertex 100 -100 200
      vertex -100 -100 200
    endloop
  endfacet
  facet normal 0 -1 -0
    outer loop
      vertex 100 -100 200
      vertex -100 -100 0
      vertex 100 -100 0
    endloop
  endfacet
  facet normal 0 0.894427 -0.447214
    outer loop
      vertex 0.8 0 200
      vertex 0 -49.2 101.6
      vertex 0 0 200
    endloop
  endfacet
  facet normal 0 0.894427 -0.447214
    outer loop
      vertex 0.8 0 200
      vertex 0 -50 100
      vertex 0 -49.2 101.6
    endloop
  endfacet
  facet normal 0 0.894427 -0.447214
    outer loop
      vertex 0.8 -98.7 2.6
      vertex 0 -50 100
      vertex 0.8 0 200
    endloop
  endfacet
  facet normal 0 0.894427 -0.447214
    outer loop
      vertex 0 -50 100
      vertex 0.8 -98.7 2.6
      vertex 0 -98.7 2.6
    endloop
  endfacet
  facet normal 1 0 0
    outer loop
      vertex 0.8 -50.8 200
      vertex 0.8 -98.7 200
      vertex 0.8 -50.8 101.6
    endloop
  endfacet
  facet normal 1 0 0
    outer loop
      vertex 0.8 -50 101.6
      vertex 0.8 0 200
      vertex 0.8 -50 200
    endloop
  endfacet
  facet normal 1 -0 0
    outer loop
      vertex 0.8 -50 101.6
      vertex 0.8 -98.7 2.6
      vertex 0.8 0 200
    endloop
  endfacet
  facet normal 1 -0 0
    outer loop
      vertex 0.8 -50.8 101.6
      vertex 0.8 -98.7 2.6
      vertex 0.8 -50 101.6
    endloop
  endfacet
  facet normal 1 0 0
    outer loop
      vertex 0.8 -98.7 2.6
      vertex 0.8 -50.8 101.6
      vertex 0.8 -98.7 200
    endloop
  endfacet
  facet normal 0 -1 0
    outer loop
      vertex 0 -50 100
      vertex -49.2 -50 200
      vertex -50 -50 200
    endloop
  endfacet
  facet normal 0 -1 0
    outer loop
      vertex -49.2 -50 200
      vertex 0 -50 100
      vertex 0 -50 200
    endloop
  endfacet
  facet normal -0.894427 0 -0.447214
    outer loop
      vertex 0 -50 100
      vertex -50 -49.2 200
      vertex 0 -49.2 100
    endloop
  endfacet
  facet normal -0.894427 -0 -0.447214
    outer loop
      vertex -50 -49.2 200
      vertex 0 -50 100
      vertex -50 -50 200
    endloop
  endfacet
  facet normal 0 1 -0
    outer loop
      vertex 0 -49.2 101.6
      vertex -50 -49.2 200
      vertex 0 -49.2 200
    endloop
  endfacet
  facet normal 0 1 0
    outer loop
      vertex -50 -49.2 200
      vertex 0 -49.2 101.6
      vertex 0 -49.2 100
    endloop
  endfacet
  facet normal 1 -0 0
    outer loop
      vertex -50 -49.2 200
      vertex -50 -0.8 101.6
      vertex -50 -0.8 200
    endloop
  endfacet
  facet normal 1 0 0
    outer loop
      vertex -50 -0.8 101.6
      vertex -50 -49.2 200
      vertex -50 -50 200
    endloop
  endfacet
  facet normal 0 -0.894427 -0.447214
    outer loop
      vertex -50.8 -0.8 101.6
      vertex -50 -50 200
      vertex -50.8 -50 200
    endloop
  endfacet
  facet normal 0 -0.894427 -0.447214
    outer loop
      vertex -50 -50 200
      vertex -50.8 -0.8 101.6
      vertex -50 -0.8 101.6
    endloop
  endfacet
  facet normal -1 0 0
    outer loop
      vertex -50.8 -0.8 101.6
      vertex -50.8 -50 200
      vertex -50.8 -0.8 200
    endloop
  endfacet
  facet normal 0 1 0
    outer loop
      vertex -98.7 -50 102.6
      vertex -50.8 -50 200
      vertex -50 -50 200
    endloop
  endfacet
  facet normal 0 1 0
    outer loop
      vertex -50.8 -50 200
      vertex -98.7 -50 102.6
      vertex -98.7 -50 200
    endloop
  endfacet
  facet normal 0.894427 0 -0.447214
    outer loop
      vertex -50 -50.8 200
      vertex -98.7 -50 102.6
      vertex -50 -50 200
    endloop
  endfacet
  facet normal 0.894427 0 -0.447214
    outer loop
      vertex -98.7 -50 102.6
      vertex -50 -50.8 200
      vertex -98.7 -50.8 102.6
    endloop
  endfacet
  facet normal 0 -1 0
    outer loop
      vertex -98.7 -50.8 200
      vertex -98.7 -50.8 102.6
      vertex -50 -50.8 200
    endloop
  endfacet
  facet normal -1 0 0
    outer loop
      vertex -50 -98.7 102.6
      vertex -50 -50.8 200
      vertex -50 -50 200
    endloop
  endfacet
  facet normal -1 -0 0
    outer loop
      vertex -50 -50.8 200
      vertex -50 -98.7 102.6
      vertex -50 -98.7 200
    endloop
  endfacet
  facet normal 0 0.894427 -0.447214
    outer loop
      vertex -49.2 -98.7 102.6
      vertex -50 -50 200
      vertex -49.2 -50 200
    endloop
  endfacet
  facet normal 0 0.894427 -0.447214
    outer loop
      vertex -50 -50 200
      vertex -49.2 -98.7 102.6
      vertex -50 -98.7 102.6
    endloop
  endfacet
  facet normal 1 -0 0
    outer loop
      vertex -49.2 -98.7 200
      vertex -49.2 -98.7 102.6
      vertex -49.2 -50 200
    endloop
  endfacet
  facet normal 0 -1 0
    outer loop
      vertex 50 0 100
      vertex 98.7 0 200
      vertex 50 0 200
    endloop
  endfacet
  facet normal 0 -1 -0
    outer loop
      vertex 98.7 0 200
      vertex 50 0 100
      vertex 98.7 0 2.6
    endloop
  endfacet
  facet normal 0 1 0
    outer loop
      vertex 49.2 0 101.6
      vertex 50 0 100
      vertex 49.2 0 100
    endloop
  endfacet
  facet normal 0 -1 0
    outer loop
      vertex 49.2 0 101.6
      vertex 0.8 0 200
      vertex 0 0 200
    endloop
  endfacet
  facet normal 0 -1 0
    outer loop
      vertex 0.8 0 200
      vertex 49.2 0 101.6
      vertex 49.2 0 200
    endloop
  endfacet
  facet normal 1 -0 0
    outer loop
      vertex 100 -100 200
      vertex 100 100 0
      vertex 100 100 200
    endloop
  endfacet
  facet normal 1 0 0
    outer loop
      vertex 100 100 0
      vertex 100 -100 200
      vertex 100 -100 0
    endloop
  endfacet
  facet normal -0.894427 0 -0.447214
    outer loop
      vertex 50 0 100
      vertex 98.7 0.8 2.6
      vertex 98.7 0 2.6
    endloop
  endfacet
  facet normal -0.894427 0 -0.447214
    outer loop
      vertex 98.7 0.8 2.6
      vertex 50 0 100
      vertex 0 0.8 200
    endloop
  endfacet
  facet normal -0.894427 0 -0.447214
    outer loop
      vertex 49.2 0 101.6
      vertex 0 0.8 200
      vertex 50 0 100
    endloop
  endfacet
  facet normal -0.894427 -0 -0.447214
    outer loop
      vertex 0 0.8 200
      vertex 49.2 0 101.6
      vertex 0 0 200
    endloop
  endfacet
  facet normal 0 1 0
    outer loop
      vertex 98.7 0.8 200
      vertex 50.8 0.8 101.6
      vertex 50.8 0.8 200
    endloop
  endfacet
  facet normal 0 1 0
    outer loop
      vertex 50.8 0.8 101.6
      vertex 98.7 0.8 2.6
      vertex 50 0.8 101.6
    endloop
  endfacet
  facet normal 0 1 -0
    outer loop
      vertex 98.7 0.8 2.6
      vertex 50.8 0.8 101.6
      vertex 98.7 0.8 200
    endloop
  endfacet
  facet normal 0 1 -0
    outer loop
      vertex 50 0.8 101.6
      vertex 0 0.8 200
      vertex 50 0.8 200
    endloop
  endfacet
  facet normal 0 1 0
    outer loop
      vertex 0 0.8 200
      vertex 50 0.8 101.6
      vertex 98.7 0.8 2.6
    endloop
  endfacet
  facet normal 1 -0 0
    outer loop
      vertex 50 -49.2 200
      vertex 50 0 100
      vertex 50 0 200
    endloop
  endfacet
  facet normal 1 0 0
    outer loop
      vertex 50 0 100
      vertex 50 -49.2 200
      vertex 50 -50 200
    endloop
  endfacet
  facet normal 0 -0.894427 -0.447214
    outer loop
      vertex 49.2 0 100
      vertex 50 -50 200
      vertex 49.2 -50 200
    endloop
  endfacet
  facet normal 0 -0.894427 -0.447214
    outer loop
      vertex 50 -50 200
      vertex 49.2 0 100
      vertex 50 0 100
    endloop
  endfacet
  facet normal -1 0 0
    outer loop
      vertex 49.2 -50 200
      vertex 49.2 0 101.6
      vertex 49.2 0 100
    endloop
  endfacet
  facet normal -1 0 0
    outer loop
      vertex 49.2 0 101.6
      vertex 49.2 -50 200
      vertex 49.2 0 200
    endloop
  endfacet
  facet normal 0 1 0
    outer loop
      vertex 0.8 -50 101.6
      vertex 49.2 -50 200
      vertex 50 -50 200
    endloop
  endfacet
  facet normal 0 1 0
    outer loop
      vertex 49.2 -50 200
      vertex 0.8 -50 101.6
      vertex 0.8 -50 200
    endloop
  endfacet
  facet normal 0.894427 0 -0.447214
    outer loop
      vertex 50 -50.8 200
      vertex 0.8 -50 101.6
      vertex 50 -50 200
    endloop
  endfacet
  facet normal 0.894427 0 -0.447214
    outer loop
      vertex 0.8 -50 101.6
      vertex 50 -50.8 200
      vertex 0.8 -50.8 101.6
    endloop
  endfacet
  facet normal 0 -1 0
    outer loop
      vertex 0.8 -50.8 200
      vertex 0.8 -50.8 101.6
      vertex 50 -50.8 200
    endloop
  endfacet
  facet normal -1 0 0
    outer loop
      vertex 50 -98.7 102.6
      vertex 50 -50.8 200
      vertex 50 -50 200
    endloop
  endfacet
  facet normal -1 -0 0
    outer loop
      vertex 50 -50.8 200
      vertex 50 -98.7 102.6
      vertex 50 -98.7 200
    endloop
  endfacet
  facet normal 0 0.894427 -0.447214
    outer loop
      vertex 50.8 -98.7 102.6
      vertex 50 -50 200
      vertex 50.8 -50 200
    endloop
  endfacet
  facet normal 0 0.894427 -0.447214
    outer loop
      vertex 50 -50 200
      vertex 50.8 -98.7 102.6
      vertex 50 -98.7 102.6
    endloop
  endfacet
  facet normal 1 -0 0
    outer loop
      vertex 50.8 -98.7 200
      vertex 50.8 -98.7 102.6
      vertex 50.8 -50 200
    endloop
  endfacet
  facet normal 0 -1 0
    outer loop
      vertex 98.7 -50 102.6
      vertex 50.8 -50 200
      vertex 50 -50 200
    endloop
  endfacet
  facet normal 0 -1 0
    outer loop
      vertex 50.8 -50 200
      vertex 98.7 -50 102.6
      vertex 98.7 -50 200
    endloop
  endfacet
  facet normal -0.894427 0 -0.447214
    outer loop
      vertex 98.7 -50 102.6
      vertex 50 -49.2 200
      vertex 98.7 -49.2 102.6
    endloop
  endfacet
  facet normal -0.894427 -0 -0.447214
    outer loop
      vertex 50 -49.2 200
      vertex 98.7 -50 102.6
      vertex 50 -50 200
    endloop
  endfacet
  facet normal 0 1 -0
    outer loop
      vertex 98.7 -49.2 102.6
      vertex 50 -49.2 200
      vertex 98.7 -49.2 200
    endloop
  endfacet
  facet normal -1 0 0
    outer loop
      vertex 0 49.2 101.6
      vertex 0 50 100
      vertex 0 49.2 100
    endloop
  endfacet
  facet normal 1 -0 0
    outer loop
      vertex 0 0.8 200
      vertex 0 49.2 101.6
      vertex 0 49.2 200
    endloop
  endfacet
  facet normal 1 0 0
    outer loop
      vertex 0 49.2 101.6
      vertex 0 0.8 200
      vertex 0 0 200
    endloop
  endfacet
  facet normal 0 -0.894427 -0.447214
    outer loop
      vertex -0.8 0 200
      vertex 0 49.2 101.6
      vertex 0 0 200
    endloop
  endfacet
  facet normal 0 -0.894427 -0.447214
    outer loop
      vertex -0.8 0 200
      vertex 0 50 100
      vertex 0 49.2 101.6
    endloop
  endfacet
  facet normal 0 -0.894427 -0.447214
    outer loop
      vertex -0.8 98.7 2.6
      vertex 0 50 100
      vertex -0.8 0 200
    endloop
  endfacet
  facet normal 0 -0.894427 -0.447214
    outer loop
      vertex 0 50 100
      vertex -0.8 98.7 2.6
      vertex 0 98.7 2.6
    endloop
  endfacet
  facet normal -1 0 0
    outer loop
      vertex -0.8 98.7 2.6
      vertex -0.8 50.8 101.6
      vertex -0.8 98.7 200
    endloop
  endfacet
  facet normal -1 0 0
    outer loop
      vertex -0.8 98.7 2.6
      vertex -0.8 50 101.6
      vertex -0.8 50.8 101.6
    endloop
  endfacet
  facet normal -1 0 0
    outer loop
      vertex -0.8 50 101.6
      vertex -0.8 0 200
      vertex -0.8 50 200
    endloop
  endfacet
  facet normal -1 0 0
    outer loop
      vertex -0.8 0 200
      vertex -0.8 50 101.6
      vertex -0.8 98.7 2.6
    endloop
  endfacet
  facet normal -1 -0 0
    outer loop
      vertex -0.8 98.7 200
      vertex -0.8 50.8 101.6
      vertex -0.8 50.8 200
    endloop
  endfacet
  facet normal 0 1 0
    outer loop
      vertex 0 50 100
      vertex 49.2 50 200
      vertex 50 50 200
    endloop
  endfacet
  facet normal 0 1 0
    outer loop
      vertex 49.2 50 200
      vertex 0 50 100
      vertex 0 50 200
    endloop
  endfacet
  facet normal 0.894427 0 -0.447214
    outer loop
      vertex 50 49.2 200
      vertex 0 50 100
      vertex 50 50 200
    endloop
  endfacet
  facet normal 0.894427 0 -0.447214
    outer loop
      vertex 0 50 100
      vertex 50 49.2 200
      vertex 0 49.2 100
    endloop
  endfacet
  facet normal 0 -1 0
    outer loop
      vertex 0 49.2 101.6
      vertex 50 49.2 200
      vertex 0 49.2 200
    endloop
  endfacet
  facet normal 0 -1 0
    outer loop
      vertex 50 49.2 200
      vertex 0 49.2 101.6
      vertex 0 49.2 100
    endloop
  endfacet
  facet normal -1 0 0
    outer loop
      vertex 50 0.8 101.6
      vertex 50 49.2 200
      vertex 50 50 200
    endloop
  endfacet
  facet normal -1 -0 0
    outer loop
      vertex 50 49.2 200
      vertex 50 0.8 101.6
      vertex 50 0.8 200
    endloop
  endfacet
  facet normal 0 0.894427 -0.447214
    outer loop
      vertex 50.8 0.8 101.6
      vertex 50 50 200
      vertex 50.8 50 200
    endloop
  endfacet
  facet normal 0 0.894427 -0.447214
    outer loop
      vertex 50 50 200
      vertex 50.8 0.8 101.6
      vertex 50 0.8 101.6
    endloop
  endfacet
  facet normal 1 -0 0
    outer loop
      vertex 50.8 0.8 200
      vertex 50.8 0.8 101.6
      vertex 50.8 50 200
    endloop
  endfacet
  facet normal 0 -1 0
    outer loop
      vertex 98.7 50 102.6
      vertex 50.8 50 200
      vertex 50 50 200
    endloop
  endfacet
  facet normal 0 -1 0
    outer loop
      vertex 50.8 50 200
      vertex 98.7 50 102.6
      vertex 98.7 50 200
    endloop
  endfacet
  facet normal -0.894427 0 -0.447214
    outer loop
      vertex 98.7 50 102.6
      vertex 50 50.8 200
      vertex 98.7 50.8 102.6
    endloop
  endfacet
  facet normal -0.894427 -0 -0.447214
    outer loop
      vertex 50 50.8 200
      vertex 98.7 50 102.6
      vertex 50 50 200
    endloop
  endfacet
  facet normal 0 1 -0
    outer loop
      vertex 98.7 50.8 102.6
      vertex 50 50.8 200
      vertex 98.7 50.8 200
    endloop
  endfacet
  facet normal 1 -0 0
    outer loop
      vertex 50 50.8 200
      vertex 50 98.7 102.6
      vertex 50 98.7 200
    endloop
  endfacet
  facet normal 1 0 0
    outer loop
      vertex 50 98.7 102.6
      vertex 50 50.8 200
      vertex 50 50 200
    endloop
  endfacet
  facet normal 0 -0.894427 -0.447214
    outer loop
      vertex 49.2 98.7 102.6
      vertex 50 50 200
      vertex 49.2 50 200
    endloop
  endfacet
  facet normal 0 -0.894427 -0.447214
    outer loop
      vertex 50 50 200
      vertex 49.2 98.7 102.6
      vertex 50 98.7 102.6
    endloop
  endfacet
  facet normal -1 0 0
    outer loop
      vertex 49.2 98.7 102.6
      vertex 49.2 50 200
      vertex 49.2 98.7 200
    endloop
  endfacet
  facet normal 0 0 -1
    outer loop
      vertex -100 -100 0
      vertex 100 100 0
      vertex 100 -100 0
    endloop
  endfacet
  facet normal -0 0 -1
    outer loop
      vertex 100 100 0
      vertex -100 -100 0
      vertex -100 100 0
    endloop
  endfacet
  facet normal 1 0 0
    outer loop
      vertex -98.7 -50.8 200
      vertex -98.7 -98.7 200
      vertex -98.7 -50.8 102.6
    endloop
  endfacet
  facet normal 1 0 0
    outer loop
      vertex -98.7 -50 102.6
      vertex -98.7 -0.8 200
      vertex -98.7 -50 200
    endloop
  endfacet
  facet normal 1 0 0
    outer loop
      vertex -98.7 49.2 200
      vertex -98.7 0 200
      vertex -98.7 49.2 102.6
    endloop
  endfacet
  facet normal 1 0 0
    outer loop
      vertex -98.7 50 102.6
      vertex -98.7 98.7 200
      vertex -98.7 50 200
    endloop
  endfacet
  facet normal 1 0 0
    outer loop
      vertex -98.7 98.7 200
      vertex -98.7 50 102.6
      vertex -98.7 98.7 1
    endloop
  endfacet
  facet normal 1 -0 0
    outer loop
      vertex -98.7 49.2 102.6
      vertex -98.7 98.7 1
      vertex -98.7 50 102.6
    endloop
  endfacet
  facet normal 1 0 0
    outer loop
      vertex -98.7 0 2.6
      vertex -98.7 49.2 102.6
      vertex -98.7 0 200
    endloop
  endfacet
  facet normal 1 0 0
    outer loop
      vertex -98.7 49.2 102.6
      vertex -98.7 0 2.6
      vertex -98.7 98.7 1
    endloop
  endfacet
  facet normal 1 -0 0
    outer loop
      vertex -98.7 -0.8 2.6
      vertex -98.7 98.7 1
      vertex -98.7 0 2.6
    endloop
  endfacet
  facet normal 1 0 0
    outer loop
      vertex -98.7 -0.8 200
      vertex -98.7 -50 102.6
      vertex -98.7 -0.8 2.6
    endloop
  endfacet
  facet normal 1 -0 0
    outer loop
      vertex -98.7 -50.8 102.6
      vertex -98.7 -0.8 2.6
      vertex -98.7 -50 102.6
    endloop
  endfacet
  facet normal 1 0 0
    outer loop
      vertex -98.7 -0.8 2.6
      vertex -98.7 -98.7 1
      vertex -98.7 98.7 1
    endloop
  endfacet
  facet normal 1 0 0
    outer loop
      vertex -98.7 -50.8 102.6
      vertex -98.7 -98.7 1
      vertex -98.7 -0.8 2.6
    endloop
  endfacet
  facet normal 1 0 0
    outer loop
      vertex -98.7 -98.7 1
      vertex -98.7 -50.8 102.6
      vertex -98.7 -98.7 200
    endloop
  endfacet
  facet normal -1 0 0
    outer loop
      vertex 98.7 98.7 1
      vertex 98.7 50.8 102.6
      vertex 98.7 98.7 200
    endloop
  endfacet
  facet normal -1 0 0
    outer loop
      vertex 98.7 98.7 1
      vertex 98.7 50 102.6
      vertex 98.7 50.8 102.6
    endloop
  endfacet
  facet normal -1 0 0
    outer loop
      vertex 98.7 0.8 200
      vertex 98.7 50 102.6
      vertex 98.7 0.8 2.6
    endloop
  endfacet
  facet normal -1 0 0
    outer loop
      vertex 98.7 98.7 1
      vertex 98.7 0.8 2.6
      vertex 98.7 50 102.6
    endloop
  endfacet
  facet normal -1 0 0
    outer loop
      vertex 98.7 98.7 1
      vertex 98.7 0 2.6
      vertex 98.7 0.8 2.6
    endloop
  endfacet
  facet normal -1 0 0
    outer loop
      vertex 98.7 0 2.6
      vertex 98.7 -49.2 102.6
      vertex 98.7 0 200
    endloop
  endfacet
  facet normal -1 0 0
    outer loop
      vertex 98.7 0 2.6
      vertex 98.7 -50 102.6
      vertex 98.7 -49.2 102.6
    endloop
  endfacet
  facet normal -1 0 0
    outer loop
      vertex 98.7 -98.7 1
      vertex 98.7 0 2.6
      vertex 98.7 98.7 1
    endloop
  endfacet
  facet normal -1 0 0
    outer loop
      vertex 98.7 -98.7 1
      vertex 98.7 -50 102.6
      vertex 98.7 0 2.6
    endloop
  endfacet
  facet normal -1 0 0
    outer loop
      vertex 98.7 -98.7 200
      vertex 98.7 -50 102.6
      vertex 98.7 -98.7 1
    endloop
  endfacet
  facet normal -1 0 0
    outer loop
      vertex 98.7 -50 102.6
      vertex 98.7 -98.7 200
      vertex 98.7 -50 200
    endloop
  endfacet
  facet normal -1 -0 0
    outer loop
      vertex 98.7 98.7 200
      vertex 98.7 50.8 102.6
      vertex 98.7 50.8 200
    endloop
  endfacet
  facet normal -1 0 0
    outer loop
      vertex 98.7 50 102.6
      vertex 98.7 0.8 200
      vertex 98.7 50 200
    endloop
  endfacet
  facet normal -1 -0 0
    outer loop
      vertex 98.7 0 200
      vertex 98.7 -49.2 102.6
      vertex 98.7 -49.2 200
    endloop
  endfacet
  facet normal 0 -1 0
    outer loop
      vertex -98.7 98.7 200
      vertex -50.8 98.7 102.6
      vertex -50.8 98.7 200
    endloop
  endfacet
  facet normal 0 -1 0
    outer loop
      vertex -50.8 98.7 102.6
      vertex -0.8 98.7 2.6
      vertex -50 98.7 102.6
    endloop
  endfacet
  facet normal 0 -1 -0
    outer loop
      vertex -0.8 98.7 2.6
      vertex -98.7 98.7 1
      vertex 0 98.7 2.6
    endloop
  endfacet
  facet normal 0 -1 -0
    outer loop
      vertex -50.8 98.7 102.6
      vertex -98.7 98.7 1
      vertex -0.8 98.7 2.6
    endloop
  endfacet
  facet normal 0 -1 0
    outer loop
      vertex -98.7 98.7 1
      vertex -50.8 98.7 102.6
      vertex -98.7 98.7 200
    endloop
  endfacet
  facet normal 0 -1 0
    outer loop
      vertex -50 98.7 102.6
      vertex -0.8 98.7 200
      vertex -50 98.7 200
    endloop
  endfacet
  facet normal 0 -1 -0
    outer loop
      vertex -0.8 98.7 200
      vertex -50 98.7 102.6
      vertex -0.8 98.7 2.6
    endloop
  endfacet
  facet normal 0 -1 0
    outer loop
      vertex 0 98.7 200
      vertex 49.2 98.7 102.6
      vertex 49.2 98.7 200
    endloop
  endfacet
  facet normal 0 -1 -0
    outer loop
      vertex 49.2 98.7 102.6
      vertex 0 98.7 2.6
      vertex 50 98.7 102.6
    endloop
  endfacet
  facet normal 0 -1 0
    outer loop
      vertex 0 98.7 2.6
      vertex 49.2 98.7 102.6
      vertex 0 98.7 200
    endloop
  endfacet
  facet normal 0 -1 0
    outer loop
      vertex 50 98.7 102.6
      vertex 98.7 98.7 200
      vertex 50 98.7 200
    endloop
  endfacet
  facet normal 0 -1 0
    outer loop
      vertex 50 98.7 102.6
      vertex 98.7 98.7 1
      vertex 98.7 98.7 200
    endloop
  endfacet
  facet normal 0 -1 0
    outer loop
      vertex 0 98.7 2.6
      vertex 98.7 98.7 1
      vertex 50 98.7 102.6
    endloop
  endfacet
  facet normal 0 -1 0
    outer loop
      vertex 98.7 98.7 1
      vertex 0 98.7 2.6
      vertex -98.7 98.7 1
    endloop
  endfacet
  facet normal -0 0 1
    outer loop
      vertex -98.7 98.7 1
      vertex 98.7 -98.7 1
      vertex 98.7 98.7 1
    endloop
  endfacet
  facet normal 0 0 1
    outer loop
      vertex 98.7 -98.7 1
      vertex -98.7 98.7 1
      vertex -98.7 -98.7 1
    endloop
  endfacet
  facet normal 0 1 0
    outer loop
      vertex 98.7 -98.7 200
      vertex 50.8 -98.7 102.6
      vertex 50.8 -98.7 200
    endloop
  endfacet
  facet normal 0 1 0
    outer loop
      vertex 50.8 -98.7 102.6
      vertex 0.8 -98.7 2.6
      vertex 50 -98.7 102.6
    endloop
  endfacet
  facet normal 0 1 0
    outer loop
      vertex 0.8 -98.7 2.6
      vertex 98.7 -98.7 1
      vertex 0 -98.7 2.6
    endloop
  endfacet
  facet normal 0 1 0
    outer loop
      vertex 50.8 -98.7 102.6
      vertex 98.7 -98.7 1
      vertex 0.8 -98.7 2.6
    endloop
  endfacet
  facet normal 0 1 -0
    outer loop
      vertex 98.7 -98.7 1
      vertex 50.8 -98.7 102.6
      vertex 98.7 -98.7 200
    endloop
  endfacet
  facet normal 0 1 -0
    outer loop
      vertex 50 -98.7 102.6
      vertex 0.8 -98.7 200
      vertex 50 -98.7 200
    endloop
  endfacet
  facet normal 0 1 0
    outer loop
      vertex 0.8 -98.7 200
      vertex 50 -98.7 102.6
      vertex 0.8 -98.7 2.6
    endloop
  endfacet
  facet normal 0 1 0
    outer loop
      vertex 0 -98.7 200
      vertex -49.2 -98.7 102.6
      vertex -49.2 -98.7 200
    endloop
  endfacet
  facet normal 0 1 0
    outer loop
      vertex -49.2 -98.7 102.6
      vertex 0 -98.7 2.6
      vertex -50 -98.7 102.6
    endloop
  endfacet
  facet normal 0 1 -0
    outer loop
      vertex 0 -98.7 2.6
      vertex -49.2 -98.7 102.6
      vertex 0 -98.7 200
    endloop
  endfacet
  facet normal 0 1 -0
    outer loop
      vertex -50 -98.7 102.6
      vertex -98.7 -98.7 200
      vertex -50 -98.7 200
    endloop
  endfacet
  facet normal 0 1 0
    outer loop
      vertex -50 -98.7 102.6
      vertex -98.7 -98.7 1
      vertex -98.7 -98.7 200
    endloop
  endfacet
  facet normal 0 1 0
    outer loop
      vertex 0 -98.7 2.6
      vertex -98.7 -98.7 1
      vertex -50 -98.7 102.6
    endloop
  endfacet
  facet normal 0 1 0
    outer loop
      vertex -98.7 -98.7 1
      vertex 0 -98.7 2.6
      vertex 98.7 -98.7 1
    endloop
  endfacet
endsolid OpenSCAD_Model
