solid OpenSCAD_Model
  facet normal -1 0 0
    outer loop
      vertex -25 7.5 6
      vertex -25 10.5 14
      vertex -25 10.5 6
    endloop
  endfacet
  facet normal -1 -0 0
    outer loop
      vertex -25 10.5 14
      vertex -25 7.5 6
      vertex -25 7.5 14
    endloop
  endfacet
  facet normal 0 0 1
    outer loop
      vertex 55 58.5 14
      vertex 54.5 55.5 14
      vertex 55 55.5 14
    endloop
  endfacet
  facet normal 0 0 1
    outer loop
      vertex 54.5 55.5 14
      vertex 51.5 55.5 14
      vertex 54.5 10.5 14
    endloop
  endfacet
  facet normal 0 0 1
    outer loop
      vertex 55 58.5 14
      vertex 51.5 55.5 14
      vertex 54.5 55.5 14
    endloop
  endfacet
  facet normal 0 0 1
    outer loop
      vertex 55 58.5 14
      vertex -21.5 55.5 14
      vertex 51.5 55.5 14
    endloop
  endfacet
  facet normal 0 0 1
    outer loop
      vertex -21.5 55.5 14
      vertex -24.5 55.5 14
      vertex -21.5 10.5 14
    endloop
  endfacet
  facet normal -0 0 1
    outer loop
      vertex -25 58.5 14
      vertex -21.5 55.5 14
      vertex 55 58.5 14
    endloop
  endfacet
  facet normal 0 0 1
    outer loop
      vertex -21.5 55.5 14
      vertex -25 58.5 14
      vertex -24.5 55.5 14
    endloop
  endfacet
  facet normal 0 0 1
    outer loop
      vertex -24.5 55.5 14
      vertex -25 58.5 14
      vertex -25 55.5 14
    endloop
  endfacet
  facet normal -0 0 1
    outer loop
      vertex 54.5 10.5 14
      vertex 55 7.5 14
      vertex 55 10.5 14
    endloop
  endfacet
  facet normal 0 0 1
    outer loop
      vertex 51.5 10.5 14
      vertex 54.5 10.5 14
      vertex 51.5 55.5 14
    endloop
  endfacet
  facet normal -0 0 1
    outer loop
      vertex 51.5 10.5 14
      vertex 55 7.5 14
      vertex 54.5 10.5 14
    endloop
  endfacet
  facet normal -0 0 1
    outer loop
      vertex -21.5 10.5 14
      vertex 55 7.5 14
      vertex 51.5 10.5 14
    endloop
  endfacet
  facet normal 0 0 1
    outer loop
      vertex -24.5 10.5 14
      vertex -21.5 10.5 14
      vertex -24.5 55.5 14
    endloop
  endfacet
  facet normal 0 0 1
    outer loop
      vertex -25 7.5 14
      vertex -21.5 10.5 14
      vertex -24.5 10.5 14
    endloop
  endfacet
  facet normal 0 0 1
    outer loop
      vertex -25 7.5 14
      vertex -24.5 10.5 14
      vertex -25 10.5 14
    endloop
  endfacet
  facet normal 0 0 1
    outer loop
      vertex -21.5 10.5 14
      vertex -25 7.5 14
      vertex 55 7.5 14
    endloop
  endfacet
  facet normal 1 -0 0
    outer loop
      vertex 55 7.5 14
      vertex 55 10.5 6
      vertex 55 10.5 14
    endloop
  endfacet
  facet normal 1 0 0
    outer loop
      vertex 55 10.5 6
      vertex 55 7.5 14
      vertex 55 7.5 6
    endloop
  endfacet
  facet normal 0 1 -0
    outer loop
      vertex 55 10.5 6
      vertex 54.5 10.5 14
      vertex 55 10.5 14
    endloop
  endfacet
  facet normal 0 1 0
    outer loop
      vertex 54.5 10.5 14
      vertex 55 10.5 6
      vertex 54.5 10.5 6
    endloop
  endfacet
  facet normal 0 1 -0
    outer loop
      vertex -24.5 10.5 6
      vertex -25 10.5 14
      vertex -24.5 10.5 14
    endloop
  endfacet
  facet normal 0 1 0
    outer loop
      vertex -25 10.5 14
      vertex -24.5 10.5 6
      vertex -25 10.5 6
    endloop
  endfacet
  facet normal 0 1 0
    outer loop
      vertex 12.7845 10.5 13.4731
      vertex 17.9892 10.5 12.3266
      vertex 17.2018 10.5 12.3918
    endloop
  endfacet
  facet normal 0 1 0
    outer loop
      vertex 51.5 10.5 14
      vertex 46.4359 10.5 12.1979
      vertex 17.9892 10.5 12.3266
    endloop
  endfacet
  facet normal 0 1 0
    outer loop
      vertex 46.4359 10.5 12.1979
      vertex 18.7127 10.5 12.0092
      vertex 17.9892 10.5 12.3266
    endloop
  endfacet
  facet normal 0 1 -0
    outer loop
      vertex 45.7745 10.5 11.7657
      vertex 18.7127 10.5 12.0092
      vertex 46.4359 10.5 12.1979
    endloop
  endfacet
  facet normal 0 1 0
    outer loop
      vertex 45.7745 10.5 11.7657
      vertex 19.2939 10.5 11.4741
      vertex 18.7127 10.5 12.0092
    endloop
  endfacet
  facet normal 0 1 -0
    outer loop
      vertex 45.2893 10.5 11.1423
      vertex 19.2939 10.5 11.4741
      vertex 45.7745 10.5 11.7657
    endloop
  endfacet
  facet normal 0 1 0
    outer loop
      vertex 45.2893 10.5 11.1423
      vertex 19.67 10.5 10.7793
      vertex 19.2939 10.5 11.4741
    endloop
  endfacet
  facet normal 0 1 -0
    outer loop
      vertex 45.0327 10.5 10.395
      vertex 19.67 10.5 10.7793
      vertex 45.2893 10.5 11.1423
    endloop
  endfacet
  facet normal 0 1 0
    outer loop
      vertex 45.0327 10.5 10.395
      vertex 19.8 10.5 10
      vertex 19.67 10.5 10.7793
    endloop
  endfacet
  facet normal 0 1 -0
    outer loop
      vertex 45.0327 10.5 9.60497
      vertex 19.8 10.5 10
      vertex 45.0327 10.5 10.395
    endloop
  endfacet
  facet normal 0 1 0
    outer loop
      vertex 45.0327 10.5 9.60497
      vertex 19.67 10.5 9.22072
      vertex 19.8 10.5 10
    endloop
  endfacet
  facet normal 0 1 0
    outer loop
      vertex 45.2893 10.5 8.85773
      vertex 19.67 10.5 9.22072
      vertex 45.0327 10.5 9.60497
    endloop
  endfacet
  facet normal 0 1 0
    outer loop
      vertex 45.2893 10.5 8.85773
      vertex 19.2939 10.5 8.52589
      vertex 19.67 10.5 9.22072
    endloop
  endfacet
  facet normal 0 1 0
    outer loop
      vertex 45.7745 10.5 8.23426
      vertex 19.2939 10.5 8.52589
      vertex 45.2893 10.5 8.85773
    endloop
  endfacet
  facet normal 0 1 0
    outer loop
      vertex 45.7745 10.5 8.23426
      vertex 18.7127 10.5 7.9908
      vertex 19.2939 10.5 8.52589
    endloop
  endfacet
  facet normal 0 1 0
    outer loop
      vertex 46.4359 10.5 7.80214
      vertex 18.7127 10.5 7.9908
      vertex 45.7745 10.5 8.23426
    endloop
  endfacet
  facet normal 0 1 0
    outer loop
      vertex 46.4359 10.5 7.80214
      vertex 17.9892 10.5 7.67344
      vertex 18.7127 10.5 7.9908
    endloop
  endfacet
  facet normal 0 1 0
    outer loop
      vertex 51.5 10.5 6
      vertex 46.4359 10.5 7.80214
      vertex 47.2018 10.5 7.6082
    endloop
  endfacet
  facet normal 0 1 0
    outer loop
      vertex 46.4359 10.5 7.80214
      vertex 51.5 10.5 6
      vertex 17.9892 10.5 7.67344
    endloop
  endfacet
  facet normal 0 1 0
    outer loop
      vertex 12.7845 10.5 13.4731
      vertex -14.1845 10.5 11.7231
      vertex -17.2155 10.5 13.4731
    endloop
  endfacet
  facet normal 0 1 -0
    outer loop
      vertex 9.78446 10.5 8.27692
      vertex -14.1845 10.5 11.7231
      vertex 12.7845 10.5 13.4731
    endloop
  endfacet
  facet normal 0 1 0
    outer loop
      vertex -17.1845 10.5 6.52692
      vertex 9.78446 10.5 8.27692
      vertex 12.8155 10.5 6.52692
    endloop
  endfacet
  facet normal 0 1 0
    outer loop
      vertex 9.78446 10.5 8.27692
      vertex -17.1845 10.5 6.52692
      vertex -14.1845 10.5 11.7231
    endloop
  endfacet
  facet normal 0 1 0
    outer loop
      vertex 51.5 10.5 14
      vertex 12.7845 10.5 13.4731
      vertex -21.5 10.5 14
    endloop
  endfacet
  facet normal 0 1 0
    outer loop
      vertex 46.4359 10.5 12.1979
      vertex 51.5 10.5 14
      vertex 47.2018 10.5 12.3918
    endloop
  endfacet
  facet normal 0 1 0
    outer loop
      vertex 51.5 10.5 14
      vertex 47.9892 10.5 12.3266
      vertex 47.2018 10.5 12.3918
    endloop
  endfacet
  facet normal 0 1 0
    outer loop
      vertex 51.5 10.5 14
      vertex 48.7127 10.5 12.0092
      vertex 47.9892 10.5 12.3266
    endloop
  endfacet
  facet normal 0 1 0
    outer loop
      vertex 51.5 10.5 14
      vertex 49.2939 10.5 11.4741
      vertex 48.7127 10.5 12.0092
    endloop
  endfacet
  facet normal 0 1 0
    outer loop
      vertex 51.5 10.5 14
      vertex 49.67 10.5 10.7793
      vertex 49.2939 10.5 11.4741
    endloop
  endfacet
  facet normal 0 1 0
    outer loop
      vertex 51.5 10.5 14
      vertex 49.8 10.5 10
      vertex 49.67 10.5 10.7793
    endloop
  endfacet
  facet normal 0 1 -0
    outer loop
      vertex 51.5 10.5 6
      vertex 49.8 10.5 10
      vertex 51.5 10.5 14
    endloop
  endfacet
  facet normal -0 1 0
    outer loop
      vertex 12.8155 10.5 6.52692
      vertex 17.9892 10.5 7.67344
      vertex 51.5 10.5 6
    endloop
  endfacet
  facet normal 0 1 0
    outer loop
      vertex -21.5 10.5 6
      vertex 12.8155 10.5 6.52692
      vertex 51.5 10.5 6
    endloop
  endfacet
  facet normal 0 1 0
    outer loop
      vertex 17.9892 10.5 7.67344
      vertex 12.8155 10.5 6.52692
      vertex 17.2018 10.5 7.6082
    endloop
  endfacet
  facet normal 0 1 0
    outer loop
      vertex 47.9892 10.5 7.67344
      vertex 51.5 10.5 6
      vertex 47.2018 10.5 7.6082
    endloop
  endfacet
  facet normal 0 1 0
    outer loop
      vertex 48.7127 10.5 7.9908
      vertex 51.5 10.5 6
      vertex 47.9892 10.5 7.67344
    endloop
  endfacet
  facet normal 0 1 0
    outer loop
      vertex 49.2939 10.5 8.52589
      vertex 51.5 10.5 6
      vertex 48.7127 10.5 7.9908
    endloop
  endfacet
  facet normal 0 1 0
    outer loop
      vertex 49.67 10.5 9.22072
      vertex 51.5 10.5 6
      vertex 49.2939 10.5 8.52589
    endloop
  endfacet
  facet normal 0 1 0
    outer loop
      vertex 49.8 10.5 10
      vertex 51.5 10.5 6
      vertex 49.67 10.5 9.22072
    endloop
  endfacet
  facet normal 0 1 -0
    outer loop
      vertex -17.2155 10.5 13.4731
      vertex -21.5 10.5 14
      vertex 12.7845 10.5 13.4731
    endloop
  endfacet
  facet normal 0 1 -0
    outer loop
      vertex -20.2155 10.5 8.27692
      vertex -21.5 10.5 14
      vertex -17.2155 10.5 13.4731
    endloop
  endfacet
  facet normal 0 1 0
    outer loop
      vertex -20.2155 10.5 8.27692
      vertex -21.5 10.5 6
      vertex -21.5 10.5 14
    endloop
  endfacet
  facet normal 0 1 0
    outer loop
      vertex -17.1845 10.5 6.52692
      vertex -21.5 10.5 6
      vertex -20.2155 10.5 8.27692
    endloop
  endfacet
  facet normal 0 1 0
    outer loop
      vertex 12.8155 10.5 6.52692
      vertex -21.5 10.5 6
      vertex -17.1845 10.5 6.52692
    endloop
  endfacet
  facet normal 0 1 -0
    outer loop
      vertex 17.9892 10.5 12.3266
      vertex 12.7845 10.5 13.4731
      vertex 51.5 10.5 14
    endloop
  endfacet
  facet normal 0 1 -0
    outer loop
      vertex 16.4359 10.5 12.1979
      vertex 12.7845 10.5 13.4731
      vertex 17.2018 10.5 12.3918
    endloop
  endfacet
  facet normal 0 1 -0
    outer loop
      vertex 15.7745 10.5 11.7657
      vertex 12.7845 10.5 13.4731
      vertex 16.4359 10.5 12.1979
    endloop
  endfacet
  facet normal 0 1 0
    outer loop
      vertex 12.7845 10.5 13.4731
      vertex 15.7745 10.5 11.7657
      vertex 15.7643 10.5 11.7526
    endloop
  endfacet
  facet normal 0 1 -0
    outer loop
      vertex 15.0327 10.5 9.60497
      vertex 12.8155 10.5 6.52692
      vertex 15.0327 10.5 10.3672
    endloop
  endfacet
  facet normal 0 1 0
    outer loop
      vertex 15.2893 10.5 8.85773
      vertex 12.8155 10.5 6.52692
      vertex 15.0327 10.5 9.60497
    endloop
  endfacet
  facet normal 0 1 0
    outer loop
      vertex 15.7745 10.5 8.23426
      vertex 12.8155 10.5 6.52692
      vertex 15.2893 10.5 8.85773
    endloop
  endfacet
  facet normal 0 1 0
    outer loop
      vertex 16.4359 10.5 7.80214
      vertex 12.8155 10.5 6.52692
      vertex 15.7745 10.5 8.23426
    endloop
  endfacet
  facet normal 0 1 0
    outer loop
      vertex 12.8155 10.5 6.52692
      vertex 16.4359 10.5 7.80214
      vertex 17.2018 10.5 7.6082
    endloop
  endfacet
  facet normal 0 1 0
    outer loop
      vertex -15.6505 10.5 11.1838
      vertex -18.7495 10.5 8.81615
      vertex -16.9495 10.5 11.9338
    endloop
  endfacet
  facet normal -0 1 0
    outer loop
      vertex -18.7495 10.5 8.81615
      vertex -15.6505 10.5 11.1838
      vertex -17.4505 10.5 8.06615
    endloop
  endfacet
  facet normal 0 1 0
    outer loop
      vertex 14.3495 10.5 11.1838
      vertex 11.2505 10.5 8.81615
      vertex 13.0505 10.5 11.9338
    endloop
  endfacet
  facet normal -0 1 0
    outer loop
      vertex 11.2505 10.5 8.81615
      vertex 14.3495 10.5 11.1838
      vertex 12.5495 10.5 8.06615
    endloop
  endfacet
  facet normal 0 0 -1
    outer loop
      vertex 55 7.5 6
      vertex 54.5 10.5 6
      vertex 55 10.5 6
    endloop
  endfacet
  facet normal 0 0 -1
    outer loop
      vertex 54.5 10.5 6
      vertex 51.5 10.5 6
      vertex 54.5 55.5 6
    endloop
  endfacet
  facet normal 0 0 -1
    outer loop
      vertex 55 7.5 6
      vertex 51.5 10.5 6
      vertex 54.5 10.5 6
    endloop
  endfacet
  facet normal 0 0 -1
    outer loop
      vertex 55 7.5 6
      vertex -21.5 10.5 6
      vertex 51.5 10.5 6
    endloop
  endfacet
  facet normal 0 0 -1
    outer loop
      vertex -21.5 10.5 6
      vertex -24.5 10.5 6
      vertex -21.5 55.5 6
    endloop
  endfacet
  facet normal 0 0 -1
    outer loop
      vertex -25 7.5 6
      vertex -21.5 10.5 6
      vertex 55 7.5 6
    endloop
  endfacet
  facet normal -0 0 -1
    outer loop
      vertex -21.5 10.5 6
      vertex -25 7.5 6
      vertex -24.5 10.5 6
    endloop
  endfacet
  facet normal -0 0 -1
    outer loop
      vertex -24.5 10.5 6
      vertex -25 7.5 6
      vertex -25 10.5 6
    endloop
  endfacet
  facet normal 0 0 -1
    outer loop
      vertex 54.5 55.5 6
      vertex 55 58.5 6
      vertex 55 55.5 6
    endloop
  endfacet
  facet normal 0 0 -1
    outer loop
      vertex 51.5 55.5 6
      vertex 54.5 55.5 6
      vertex 51.5 10.5 6
    endloop
  endfacet
  facet normal 0 0 -1
    outer loop
      vertex 51.5 55.5 6
      vertex 55 58.5 6
      vertex 54.5 55.5 6
    endloop
  endfacet
  facet normal 0 0 -1
    outer loop
      vertex -21.5 55.5 6
      vertex 55 58.5 6
      vertex 51.5 55.5 6
    endloop
  endfacet
  facet normal 0 0 -1
    outer loop
      vertex -24.5 55.5 6
      vertex -21.5 55.5 6
      vertex -24.5 10.5 6
    endloop
  endfacet
  facet normal 0 0 -1
    outer loop
      vertex -25 58.5 6
      vertex -21.5 55.5 6
      vertex -24.5 55.5 6
    endloop
  endfacet
  facet normal 0 0 -1
    outer loop
      vertex -25 58.5 6
      vertex -24.5 55.5 6
      vertex -25 55.5 6
    endloop
  endfacet
  facet normal 0 0 -1
    outer loop
      vertex -21.5 55.5 6
      vertex -25 58.5 6
      vertex 55 58.5 6
    endloop
  endfacet
  facet normal 0 -1 0
    outer loop
      vertex 55 7.5 14
      vertex 17.9892 7.5 12.3266
      vertex 47.2018 7.5 12.3918
    endloop
  endfacet
  facet normal 0 -1 0
    outer loop
      vertex 17.9892 7.5 12.3266
      vertex 46.4359 7.5 12.1979
      vertex 47.2018 7.5 12.3918
    endloop
  endfacet
  facet normal 0 -1 0
    outer loop
      vertex 18.7127 7.5 12.0092
      vertex 46.4359 7.5 12.1979
      vertex 17.9892 7.5 12.3266
    endloop
  endfacet
  facet normal 0 -1 0
    outer loop
      vertex 18.7127 7.5 12.0092
      vertex 45.7745 7.5 11.7657
      vertex 46.4359 7.5 12.1979
    endloop
  endfacet
  facet normal 0 -1 0
    outer loop
      vertex 19.2939 7.5 11.4741
      vertex 45.7745 7.5 11.7657
      vertex 18.7127 7.5 12.0092
    endloop
  endfacet
  facet normal 0 -1 0
    outer loop
      vertex 19.2939 7.5 11.4741
      vertex 45.2893 7.5 11.1423
      vertex 45.7745 7.5 11.7657
    endloop
  endfacet
  facet normal 0 -1 0
    outer loop
      vertex 19.67 7.5 10.7793
      vertex 45.2893 7.5 11.1423
      vertex 19.2939 7.5 11.4741
    endloop
  endfacet
  facet normal 0 -1 0
    outer loop
      vertex 19.67 7.5 10.7793
      vertex 45.0327 7.5 10.395
      vertex 45.2893 7.5 11.1423
    endloop
  endfacet
  facet normal 0 -1 0
    outer loop
      vertex 19.8 7.5 10
      vertex 45.0327 7.5 10.395
      vertex 19.67 7.5 10.7793
    endloop
  endfacet
  facet normal 0 -1 0
    outer loop
      vertex 19.8 7.5 10
      vertex 45.0327 7.5 9.60497
      vertex 45.0327 7.5 10.395
    endloop
  endfacet
  facet normal 0 -1 0
    outer loop
      vertex 19.67 7.5 9.22072
      vertex 45.0327 7.5 9.60497
      vertex 19.8 7.5 10
    endloop
  endfacet
  facet normal 0 -1 0
    outer loop
      vertex 19.67 7.5 9.22072
      vertex 45.2893 7.5 8.85773
      vertex 45.0327 7.5 9.60497
    endloop
  endfacet
  facet normal 0 -1 0
    outer loop
      vertex 19.2939 7.5 8.52589
      vertex 45.2893 7.5 8.85773
      vertex 19.67 7.5 9.22072
    endloop
  endfacet
  facet normal 0 -1 0
    outer loop
      vertex 19.2939 7.5 8.52589
      vertex 45.7745 7.5 8.23426
      vertex 45.2893 7.5 8.85773
    endloop
  endfacet
  facet normal 0 -1 0
    outer loop
      vertex 18.7127 7.5 7.9908
      vertex 45.7745 7.5 8.23426
      vertex 19.2939 7.5 8.52589
    endloop
  endfacet
  facet normal 0 -1 0
    outer loop
      vertex 18.7127 7.5 7.9908
      vertex 46.4359 7.5 7.80214
      vertex 45.7745 7.5 8.23426
    endloop
  endfacet
  facet normal 0 -1 0
    outer loop
      vertex 17.9892 7.5 7.67344
      vertex 46.4359 7.5 7.80214
      vertex 18.7127 7.5 7.9908
    endloop
  endfacet
  facet normal 0 -1 0
    outer loop
      vertex 55 7.5 6
      vertex 17.9892 7.5 7.67344
      vertex 17.2018 7.5 7.6082
    endloop
  endfacet
  facet normal 0 -1 0
    outer loop
      vertex 17.9892 7.5 7.67344
      vertex 47.2018 7.5 7.6082
      vertex 46.4359 7.5 7.80214
    endloop
  endfacet
  facet normal 0 -1 0
    outer loop
      vertex -25 7.5 14
      vertex 17.2018 7.5 12.3918
      vertex 55 7.5 14
    endloop
  endfacet
  facet normal 0 -1 0
    outer loop
      vertex -25 7.5 14
      vertex 16.4359 7.5 12.1979
      vertex 17.2018 7.5 12.3918
    endloop
  endfacet
  facet normal 0 -1 0
    outer loop
      vertex -25 7.5 14
      vertex 15.7745 7.5 11.7657
      vertex 16.4359 7.5 12.1979
    endloop
  endfacet
  facet normal 0 -1 0
    outer loop
      vertex -25 7.5 14
      vertex 15.2893 7.5 11.1423
      vertex 15.7745 7.5 11.7657
    endloop
  endfacet
  facet normal 0 -1 0
    outer loop
      vertex -25 7.5 14
      vertex 15.0327 7.5 10.395
      vertex 15.2893 7.5 11.1423
    endloop
  endfacet
  facet normal 0 -1 0
    outer loop
      vertex -25 7.5 14
      vertex 15.0327 7.5 9.60497
      vertex 15.0327 7.5 10.395
    endloop
  endfacet
  facet normal 0 -1 0
    outer loop
      vertex -25 7.5 6
      vertex 15.0327 7.5 9.60497
      vertex -25 7.5 14
    endloop
  endfacet
  facet normal 0 -1 -0
    outer loop
      vertex 15.0327 7.5 9.60497
      vertex -25 7.5 6
      vertex 15.2893 7.5 8.85773
    endloop
  endfacet
  facet normal 0 -1 -0
    outer loop
      vertex 15.2893 7.5 8.85773
      vertex -25 7.5 6
      vertex 15.7745 7.5 8.23426
    endloop
  endfacet
  facet normal 0 -1 -0
    outer loop
      vertex 15.7745 7.5 8.23426
      vertex -25 7.5 6
      vertex 16.4359 7.5 7.80214
    endloop
  endfacet
  facet normal 0 -1 0
    outer loop
      vertex 55 7.5 6
      vertex 17.2018 7.5 7.6082
      vertex -25 7.5 6
    endloop
  endfacet
  facet normal 0 -1 -0
    outer loop
      vertex 16.4359 7.5 7.80214
      vertex -25 7.5 6
      vertex 17.2018 7.5 7.6082
    endloop
  endfacet
  facet normal 0 -1 0
    outer loop
      vertex 17.9892 7.5 12.3266
      vertex 55 7.5 14
      vertex 17.2018 7.5 12.3918
    endloop
  endfacet
  facet normal 0 -1 0
    outer loop
      vertex 47.9892 7.5 12.3266
      vertex 55 7.5 14
      vertex 47.2018 7.5 12.3918
    endloop
  endfacet
  facet normal 0 -1 0
    outer loop
      vertex 48.7127 7.5 12.0092
      vertex 55 7.5 14
      vertex 47.9892 7.5 12.3266
    endloop
  endfacet
  facet normal 0 -1 0
    outer loop
      vertex 49.2939 7.5 11.4741
      vertex 55 7.5 14
      vertex 48.7127 7.5 12.0092
    endloop
  endfacet
  facet normal 0 -1 0
    outer loop
      vertex 49.67 7.5 10.7793
      vertex 55 7.5 14
      vertex 49.2939 7.5 11.4741
    endloop
  endfacet
  facet normal 0 -1 0
    outer loop
      vertex 49.8 7.5 10
      vertex 55 7.5 14
      vertex 49.67 7.5 10.7793
    endloop
  endfacet
  facet normal 0 -1 0
    outer loop
      vertex 55 7.5 6
      vertex 49.8 7.5 10
      vertex 49.67 7.5 9.22072
    endloop
  endfacet
  facet normal 0 -1 0
    outer loop
      vertex 55 7.5 6
      vertex 49.67 7.5 9.22072
      vertex 49.2939 7.5 8.52589
    endloop
  endfacet
  facet normal 0 -1 0
    outer loop
      vertex 49.8 7.5 10
      vertex 55 7.5 6
      vertex 55 7.5 14
    endloop
  endfacet
  facet normal 0 -1 0
    outer loop
      vertex 48.7127 7.5 7.9908
      vertex 55 7.5 6
      vertex 49.2939 7.5 8.52589
    endloop
  endfacet
  facet normal 0 -1 0
    outer loop
      vertex 47.9892 7.5 7.67344
      vertex 55 7.5 6
      vertex 48.7127 7.5 7.9908
    endloop
  endfacet
  facet normal 0 -1 0
    outer loop
      vertex 47.2018 7.5 7.6082
      vertex 55 7.5 6
      vertex 47.9892 7.5 7.67344
    endloop
  endfacet
  facet normal 0 -1 0
    outer loop
      vertex 17.9892 7.5 7.67344
      vertex 55 7.5 6
      vertex 47.2018 7.5 7.6082
    endloop
  endfacet
  facet normal -0.98637 0 -0.164543
    outer loop
      vertex 49.8 7.5 10
      vertex 49.67 10.5 10.7793
      vertex 49.8 10.5 10
    endloop
  endfacet
  facet normal -0.98637 -0 -0.164543
    outer loop
      vertex 49.67 10.5 10.7793
      vertex 49.8 7.5 10
      vertex 49.67 7.5 10.7793
    endloop
  endfacet
  facet normal -0.879424 0 -0.476038
    outer loop
      vertex 49.67 7.5 10.7793
      vertex 49.2939 10.5 11.4741
      vertex 49.67 10.5 10.7793
    endloop
  endfacet
  facet normal -0.879424 -0 -0.476038
    outer loop
      vertex 49.2939 10.5 11.4741
      vertex 49.67 7.5 10.7793
      vertex 49.2939 7.5 11.4741
    endloop
  endfacet
  facet normal 1 -0 0
    outer loop
      vertex 45.0327 7.5 10.395
      vertex 45.0327 10.5 9.60497
      vertex 45.0327 10.5 10.395
    endloop
  endfacet
  facet normal 1 0 0
    outer loop
      vertex 45.0327 10.5 9.60497
      vertex 45.0327 7.5 10.395
      vertex 45.0327 7.5 9.60497
    endloop
  endfacet
  facet normal -0.677328 0 -0.735681
    outer loop
      vertex 48.7127 7.5 12.0092
      vertex 49.2939 10.5 11.4741
      vertex 49.2939 7.5 11.4741
    endloop
  endfacet
  facet normal -0.677328 0 -0.735681
    outer loop
      vertex 49.2939 10.5 11.4741
      vertex 48.7127 7.5 12.0092
      vertex 48.7127 10.5 12.0092
    endloop
  endfacet
  facet normal 0.789148 0 -0.614203
    outer loop
      vertex 45.7745 7.5 11.7657
      vertex 45.2893 10.5 11.1423
      vertex 45.7745 10.5 11.7657
    endloop
  endfacet
  facet normal 0.789148 0 -0.614203
    outer loop
      vertex 45.2893 10.5 11.1423
      vertex 45.7745 7.5 11.7657
      vertex 45.2893 7.5 11.1423
    endloop
  endfacet
  facet normal 0.547024 0 -0.837117
    outer loop
      vertex 45.7745 7.5 11.7657
      vertex 46.4359 10.5 12.1979
      vertex 46.4359 7.5 12.1979
    endloop
  endfacet
  facet normal 0.547024 0 -0.837117
    outer loop
      vertex 46.4359 10.5 12.1979
      vertex 45.7745 7.5 11.7657
      vertex 45.7745 10.5 11.7657
    endloop
  endfacet
  facet normal -0.401699 0 0.915772
    outer loop
      vertex 47.9892 10.5 7.67344
      vertex 48.7127 7.5 7.9908
      vertex 48.7127 10.5 7.9908
    endloop
  endfacet
  facet normal -0.401699 0 0.915772
    outer loop
      vertex 48.7127 7.5 7.9908
      vertex 47.9892 10.5 7.67344
      vertex 47.9892 7.5 7.67344
    endloop
  endfacet
  facet normal -0.401742 0 -0.915753
    outer loop
      vertex 47.9892 7.5 12.3266
      vertex 48.7127 10.5 12.0092
      vertex 48.7127 7.5 12.0092
    endloop
  endfacet
  facet normal -0.401742 0 -0.915753
    outer loop
      vertex 48.7127 10.5 12.0092
      vertex 47.9892 7.5 12.3266
      vertex 47.9892 10.5 12.3266
    endloop
  endfacet
  facet normal 0.945797 0 -0.324758
    outer loop
      vertex 45.2893 7.5 11.1423
      vertex 45.0327 10.5 10.395
      vertex 45.2893 10.5 11.1423
    endloop
  endfacet
  facet normal 0.945797 0 -0.324758
    outer loop
      vertex 45.0327 10.5 10.395
      vertex 45.2893 7.5 11.1423
      vertex 45.0327 7.5 10.395
    endloop
  endfacet
  facet normal -0.677321 0 0.735688
    outer loop
      vertex 48.7127 10.5 7.9908
      vertex 49.2939 7.5 8.52589
      vertex 49.2939 10.5 8.52589
    endloop
  endfacet
  facet normal -0.677321 0 0.735688
    outer loop
      vertex 49.2939 7.5 8.52589
      vertex 48.7127 10.5 7.9908
      vertex 48.7127 7.5 7.9908
    endloop
  endfacet
  facet normal -0.879433 0 0.476023
    outer loop
      vertex 49.2939 7.5 8.52589
      vertex 49.67 10.5 9.22072
      vertex 49.2939 10.5 8.52589
    endloop
  endfacet
  facet normal -0.879433 0 0.476023
    outer loop
      vertex 49.67 10.5 9.22072
      vertex 49.2939 7.5 8.52589
      vertex 49.67 7.5 9.22072
    endloop
  endfacet
  facet normal -0.986369 0 0.164547
    outer loop
      vertex 49.67 7.5 9.22072
      vertex 49.8 10.5 10
      vertex 49.67 10.5 9.22072
    endloop
  endfacet
  facet normal -0.986369 0 0.164547
    outer loop
      vertex 49.8 10.5 10
      vertex 49.67 7.5 9.22072
      vertex 49.8 7.5 10
    endloop
  endfacet
  facet normal 0.245471 0 0.969404
    outer loop
      vertex 46.4359 10.5 7.80214
      vertex 47.2018 7.5 7.6082
      vertex 47.2018 10.5 7.6082
    endloop
  endfacet
  facet normal 0.245471 0 0.969404
    outer loop
      vertex 47.2018 7.5 7.6082
      vertex 46.4359 10.5 7.80214
      vertex 46.4359 7.5 7.80214
    endloop
  endfacet
  facet normal -0.082572 0 0.996585
    outer loop
      vertex 47.2018 10.5 7.6082
      vertex 47.9892 7.5 7.67344
      vertex 47.9892 10.5 7.67344
    endloop
  endfacet
  facet normal -0.082572 0 0.996585
    outer loop
      vertex 47.9892 7.5 7.67344
      vertex 47.2018 10.5 7.6082
      vertex 47.2018 7.5 7.6082
    endloop
  endfacet
  facet normal 0.546953 0 0.837163
    outer loop
      vertex 45.7745 10.5 8.23426
      vertex 46.4359 7.5 7.80214
      vertex 46.4359 10.5 7.80214
    endloop
  endfacet
  facet normal 0.546953 0 0.837163
    outer loop
      vertex 46.4359 7.5 7.80214
      vertex 45.7745 10.5 8.23426
      vertex 45.7745 7.5 8.23426
    endloop
  endfacet
  facet normal 0.945789 -0 0.324781
    outer loop
      vertex 45.0327 7.5 9.60497
      vertex 45.2893 10.5 8.85773
      vertex 45.0327 10.5 9.60497
    endloop
  endfacet
  facet normal 0.945789 0 0.324781
    outer loop
      vertex 45.2893 10.5 8.85773
      vertex 45.0327 7.5 9.60497
      vertex 45.2893 7.5 8.85773
    endloop
  endfacet
  facet normal -0.0825217 0 -0.996589
    outer loop
      vertex 47.2018 7.5 12.3918
      vertex 47.9892 10.5 12.3266
      vertex 47.9892 7.5 12.3266
    endloop
  endfacet
  facet normal -0.0825217 0 -0.996589
    outer loop
      vertex 47.9892 10.5 12.3266
      vertex 47.2018 7.5 12.3918
      vertex 47.2018 10.5 12.3918
    endloop
  endfacet
  facet normal 0.245423 0 -0.969416
    outer loop
      vertex 46.4359 7.5 12.1979
      vertex 47.2018 10.5 12.3918
      vertex 47.2018 7.5 12.3918
    endloop
  endfacet
  facet normal 0.245423 0 -0.969416
    outer loop
      vertex 47.2018 10.5 12.3918
      vertex 46.4359 7.5 12.1979
      vertex 46.4359 10.5 12.1979
    endloop
  endfacet
  facet normal 0.789181 -0 0.614161
    outer loop
      vertex 45.2893 7.5 8.85773
      vertex 45.7745 10.5 8.23426
      vertex 45.2893 10.5 8.85773
    endloop
  endfacet
  facet normal 0.789181 0 0.614161
    outer loop
      vertex 45.7745 10.5 8.23426
      vertex 45.2893 7.5 8.85773
      vertex 45.7745 7.5 8.23426
    endloop
  endfacet
  facet normal -0.98637 0 -0.164543
    outer loop
      vertex 19.8 7.5 10
      vertex 19.67 10.5 10.7793
      vertex 19.8 10.5 10
    endloop
  endfacet
  facet normal -0.98637 -0 -0.164543
    outer loop
      vertex 19.67 10.5 10.7793
      vertex 19.8 7.5 10
      vertex 19.67 7.5 10.7793
    endloop
  endfacet
  facet normal 1 0 0
    outer loop
      vertex 15.0327 9 10.395
      vertex 15.0327 7.5 10.395
      vertex 15.0327 9 10.3672
    endloop
  endfacet
  facet normal 1 -0 0
    outer loop
      vertex 15.0327 9 10.3672
      vertex 15.0327 10.5 9.60497
      vertex 15.0327 10.5 10.3672
    endloop
  endfacet
  facet normal 1 0 0
    outer loop
      vertex 15.0327 7.5 9.60497
      vertex 15.0327 9 10.3672
      vertex 15.0327 7.5 10.395
    endloop
  endfacet
  facet normal 1 0 0
    outer loop
      vertex 15.0327 9 10.3672
      vertex 15.0327 7.5 9.60497
      vertex 15.0327 10.5 9.60497
    endloop
  endfacet
  facet normal -0.986369 0 0.164547
    outer loop
      vertex 19.67 7.5 9.22072
      vertex 19.8 10.5 10
      vertex 19.67 10.5 9.22072
    endloop
  endfacet
  facet normal -0.986369 0 0.164547
    outer loop
      vertex 19.8 10.5 10
      vertex 19.67 7.5 9.22072
      vertex 19.8 7.5 10
    endloop
  endfacet
  facet normal -0.082572 0 0.996585
    outer loop
      vertex 17.2018 10.5 7.6082
      vertex 17.9892 7.5 7.67344
      vertex 17.9892 10.5 7.67344
    endloop
  endfacet
  facet normal -0.082572 0 0.996585
    outer loop
      vertex 17.9892 7.5 7.67344
      vertex 17.2018 10.5 7.6082
      vertex 17.2018 7.5 7.6082
    endloop
  endfacet
  facet normal -0.677328 0 -0.735681
    outer loop
      vertex 18.7127 7.5 12.0092
      vertex 19.2939 10.5 11.4741
      vertex 19.2939 7.5 11.4741
    endloop
  endfacet
  facet normal -0.677328 0 -0.735681
    outer loop
      vertex 19.2939 10.5 11.4741
      vertex 18.7127 7.5 12.0092
      vertex 18.7127 10.5 12.0092
    endloop
  endfacet
  facet normal -0.401742 0 -0.915753
    outer loop
      vertex 17.9892 7.5 12.3266
      vertex 18.7127 10.5 12.0092
      vertex 18.7127 7.5 12.0092
    endloop
  endfacet
  facet normal -0.401742 0 -0.915753
    outer loop
      vertex 18.7127 10.5 12.0092
      vertex 17.9892 7.5 12.3266
      vertex 17.9892 10.5 12.3266
    endloop
  endfacet
  facet normal -0.677321 0 0.735688
    outer loop
      vertex 18.7127 10.5 7.9908
      vertex 19.2939 7.5 8.52589
      vertex 19.2939 10.5 8.52589
    endloop
  endfacet
  facet normal -0.677321 0 0.735688
    outer loop
      vertex 19.2939 7.5 8.52589
      vertex 18.7127 10.5 7.9908
      vertex 18.7127 7.5 7.9908
    endloop
  endfacet
  facet normal -0.401699 0 0.915772
    outer loop
      vertex 17.9892 10.5 7.67344
      vertex 18.7127 7.5 7.9908
      vertex 18.7127 10.5 7.9908
    endloop
  endfacet
  facet normal -0.401699 0 0.915772
    outer loop
      vertex 18.7127 7.5 7.9908
      vertex 17.9892 10.5 7.67344
      vertex 17.9892 7.5 7.67344
    endloop
  endfacet
  facet normal -0.879433 0 0.476023
    outer loop
      vertex 19.2939 7.5 8.52589
      vertex 19.67 10.5 9.22072
      vertex 19.2939 10.5 8.52589
    endloop
  endfacet
  facet normal -0.879433 0 0.476023
    outer loop
      vertex 19.67 10.5 9.22072
      vertex 19.2939 7.5 8.52589
      vertex 19.67 7.5 9.22072
    endloop
  endfacet
  facet normal -0.879424 0 -0.476038
    outer loop
      vertex 19.67 7.5 10.7793
      vertex 19.2939 10.5 11.4741
      vertex 19.67 10.5 10.7793
    endloop
  endfacet
  facet normal -0.879424 -0 -0.476038
    outer loop
      vertex 19.2939 10.5 11.4741
      vertex 19.67 7.5 10.7793
      vertex 19.2939 7.5 11.4741
    endloop
  endfacet
  facet normal 0.245423 0 -0.969416
    outer loop
      vertex 16.4359 7.5 12.1979
      vertex 17.2018 10.5 12.3918
      vertex 17.2018 7.5 12.3918
    endloop
  endfacet
  facet normal 0.245423 0 -0.969416
    outer loop
      vertex 17.2018 10.5 12.3918
      vertex 16.4359 7.5 12.1979
      vertex 16.4359 10.5 12.1979
    endloop
  endfacet
  facet normal 0.945797 0 -0.324758
    outer loop
      vertex 15.2893 7.5 11.1423
      vertex 15.0327 9 10.395
      vertex 15.2893 9 11.1423
    endloop
  endfacet
  facet normal 0.945797 0 -0.324758
    outer loop
      vertex 15.0327 9 10.395
      vertex 15.2893 7.5 11.1423
      vertex 15.0327 7.5 10.395
    endloop
  endfacet
  facet normal 0.547024 0 -0.837117
    outer loop
      vertex 15.7745 7.5 11.7657
      vertex 16.4359 10.5 12.1979
      vertex 16.4359 7.5 12.1979
    endloop
  endfacet
  facet normal 0.547024 0 -0.837117
    outer loop
      vertex 16.4359 10.5 12.1979
      vertex 15.7745 7.5 11.7657
      vertex 15.7745 10.5 11.7657
    endloop
  endfacet
  facet normal 0.789028 0 -0.614358
    outer loop
      vertex 15.7745 10.5 11.7657
      vertex 15.7643 9 11.7526
      vertex 15.7643 10.5 11.7526
    endloop
  endfacet
  facet normal 0.789028 0 -0.614358
    outer loop
      vertex 15.7745 7.5 11.7657
      vertex 15.7643 9 11.7526
      vertex 15.7745 10.5 11.7657
    endloop
  endfacet
  facet normal 0.78915 2.20681e-06 -0.6142
    outer loop
      vertex 15.7745 7.5 11.7657
      vertex 15.2893 9 11.1423
      vertex 15.7643 9 11.7526
    endloop
  endfacet
  facet normal 0.789148 0 -0.614203
    outer loop
      vertex 15.2893 9 11.1423
      vertex 15.7745 7.5 11.7657
      vertex 15.2893 7.5 11.1423
    endloop
  endfacet
  facet normal 0.245471 0 0.969404
    outer loop
      vertex 16.4359 10.5 7.80214
      vertex 17.2018 7.5 7.6082
      vertex 17.2018 10.5 7.6082
    endloop
  endfacet
  facet normal 0.245471 0 0.969404
    outer loop
      vertex 17.2018 7.5 7.6082
      vertex 16.4359 10.5 7.80214
      vertex 16.4359 7.5 7.80214
    endloop
  endfacet
  facet normal 0.546953 0 0.837163
    outer loop
      vertex 15.7745 10.5 8.23426
      vertex 16.4359 7.5 7.80214
      vertex 16.4359 10.5 7.80214
    endloop
  endfacet
  facet normal 0.546953 0 0.837163
    outer loop
      vertex 16.4359 7.5 7.80214
      vertex 15.7745 10.5 8.23426
      vertex 15.7745 7.5 8.23426
    endloop
  endfacet
  facet normal -0.0825217 0 -0.996589
    outer loop
      vertex 17.2018 7.5 12.3918
      vertex 17.9892 10.5 12.3266
      vertex 17.9892 7.5 12.3266
    endloop
  endfacet
  facet normal -0.0825217 0 -0.996589
    outer loop
      vertex 17.9892 10.5 12.3266
      vertex 17.2018 7.5 12.3918
      vertex 17.2018 10.5 12.3918
    endloop
  endfacet
  facet normal 0.945789 -0 0.324781
    outer loop
      vertex 15.0327 7.5 9.60497
      vertex 15.2893 10.5 8.85773
      vertex 15.0327 10.5 9.60497
    endloop
  endfacet
  facet normal 0.945789 0 0.324781
    outer loop
      vertex 15.2893 10.5 8.85773
      vertex 15.0327 7.5 9.60497
      vertex 15.2893 7.5 8.85773
    endloop
  endfacet
  facet normal 0.789181 -0 0.614161
    outer loop
      vertex 15.2893 7.5 8.85773
      vertex 15.7745 10.5 8.23426
      vertex 15.2893 10.5 8.85773
    endloop
  endfacet
  facet normal 0.789181 0 0.614161
    outer loop
      vertex 15.7745 10.5 8.23426
      vertex 15.2893 7.5 8.85773
      vertex 15.7745 7.5 8.23426
    endloop
  endfacet
  facet normal -1 0 0
    outer loop
      vertex -25 55.5 6
      vertex -25 58.5 14
      vertex -25 58.5 6
    endloop
  endfacet
  facet normal -1 -0 0
    outer loop
      vertex -25 58.5 14
      vertex -25 55.5 6
      vertex -25 55.5 14
    endloop
  endfacet
  facet normal 1 -0 0
    outer loop
      vertex 55 55.5 14
      vertex 55 58.5 6
      vertex 55 58.5 14
    endloop
  endfacet
  facet normal 1 0 0
    outer loop
      vertex 55 58.5 6
      vertex 55 55.5 14
      vertex 55 55.5 6
    endloop
  endfacet
  facet normal 0 1 0
    outer loop
      vertex -25 58.5 14
      vertex -16.6108 58.5 12.3266
      vertex -17.3982 58.5 12.3918
    endloop
  endfacet
  facet normal 0 1 -0
    outer loop
      vertex 11.8359 58.5 12.1979
      vertex -16.6108 58.5 12.3266
      vertex 12.6018 58.5 12.3918
    endloop
  endfacet
  facet normal 0 1 0
    outer loop
      vertex 11.8359 58.5 12.1979
      vertex -15.8873 58.5 12.0092
      vertex -16.6108 58.5 12.3266
    endloop
  endfacet
  facet normal 0 1 -0
    outer loop
      vertex 11.1745 58.5 11.7657
      vertex -15.8873 58.5 12.0092
      vertex 11.8359 58.5 12.1979
    endloop
  endfacet
  facet normal 0 1 0
    outer loop
      vertex 11.1745 58.5 11.7657
      vertex -15.3061 58.5 11.4741
      vertex -15.8873 58.5 12.0092
    endloop
  endfacet
  facet normal 0 1 -0
    outer loop
      vertex 10.6893 58.5 11.1423
      vertex -15.3061 58.5 11.4741
      vertex 11.1745 58.5 11.7657
    endloop
  endfacet
  facet normal 0 1 0
    outer loop
      vertex 10.6893 58.5 11.1423
      vertex -14.93 58.5 10.7793
      vertex -15.3061 58.5 11.4741
    endloop
  endfacet
  facet normal 0 1 -0
    outer loop
      vertex 10.4327 58.5 10.395
      vertex -14.93 58.5 10.7793
      vertex 10.6893 58.5 11.1423
    endloop
  endfacet
  facet normal 0 1 0
    outer loop
      vertex 10.4327 58.5 10.395
      vertex -14.8 58.5 10
      vertex -14.93 58.5 10.7793
    endloop
  endfacet
  facet normal 0 1 -0
    outer loop
      vertex 10.4327 58.5 9.60497
      vertex -14.8 58.5 10
      vertex 10.4327 58.5 10.395
    endloop
  endfacet
  facet normal 0 1 0
    outer loop
      vertex 10.4327 58.5 9.60497
      vertex -14.93 58.5 9.22072
      vertex -14.8 58.5 10
    endloop
  endfacet
  facet normal 0 1 0
    outer loop
      vertex 10.6893 58.5 8.85773
      vertex -14.93 58.5 9.22072
      vertex 10.4327 58.5 9.60497
    endloop
  endfacet
  facet normal 0 1 0
    outer loop
      vertex 10.6893 58.5 8.85773
      vertex -15.3061 58.5 8.52589
      vertex -14.93 58.5 9.22072
    endloop
  endfacet
  facet normal 0 1 0
    outer loop
      vertex 11.1745 58.5 8.23426
      vertex -15.3061 58.5 8.52589
      vertex 10.6893 58.5 8.85773
    endloop
  endfacet
  facet normal 0 1 0
    outer loop
      vertex 11.1745 58.5 8.23426
      vertex -15.8873 58.5 7.9908
      vertex -15.3061 58.5 8.52589
    endloop
  endfacet
  facet normal 0 1 0
    outer loop
      vertex 11.8359 58.5 7.80214
      vertex -15.8873 58.5 7.9908
      vertex 11.1745 58.5 8.23426
    endloop
  endfacet
  facet normal 0 1 0
    outer loop
      vertex 11.8359 58.5 7.80214
      vertex -16.6108 58.5 7.67344
      vertex -15.8873 58.5 7.9908
    endloop
  endfacet
  facet normal 0 1 0
    outer loop
      vertex 12.6018 58.5 7.6082
      vertex -16.6108 58.5 7.67344
      vertex 11.8359 58.5 7.80214
    endloop
  endfacet
  facet normal 0 1 0
    outer loop
      vertex -25 58.5 6
      vertex -16.6108 58.5 7.67344
      vertex 12.6018 58.5 7.6082
    endloop
  endfacet
  facet normal 0 1 0
    outer loop
      vertex 55 58.5 14
      vertex 12.6018 58.5 12.3918
      vertex -25 58.5 14
    endloop
  endfacet
  facet normal 0 1 0
    outer loop
      vertex 55 58.5 14
      vertex 13.3892 58.5 12.3266
      vertex 12.6018 58.5 12.3918
    endloop
  endfacet
  facet normal 0 1 0
    outer loop
      vertex 55 58.5 14
      vertex 14.1127 58.5 12.0092
      vertex 13.3892 58.5 12.3266
    endloop
  endfacet
  facet normal 0 1 0
    outer loop
      vertex 55 58.5 14
      vertex 14.6939 58.5 11.4741
      vertex 14.1127 58.5 12.0092
    endloop
  endfacet
  facet normal 0 1 0
    outer loop
      vertex 55 58.5 14
      vertex 15.07 58.5 10.7793
      vertex 14.6939 58.5 11.4741
    endloop
  endfacet
  facet normal 0 1 0
    outer loop
      vertex 55 58.5 14
      vertex 15.2 58.5 10
      vertex 15.07 58.5 10.7793
    endloop
  endfacet
  facet normal 0 1 -0
    outer loop
      vertex 55 58.5 6
      vertex 15.2 58.5 10
      vertex 55 58.5 14
    endloop
  endfacet
  facet normal 0 1 0
    outer loop
      vertex 15.2 58.5 10
      vertex 55 58.5 6
      vertex 15.07 58.5 9.22072
    endloop
  endfacet
  facet normal 0 1 0
    outer loop
      vertex 15.07 58.5 9.22072
      vertex 55 58.5 6
      vertex 14.6939 58.5 8.52589
    endloop
  endfacet
  facet normal 0 1 0
    outer loop
      vertex 14.6939 58.5 8.52589
      vertex 55 58.5 6
      vertex 14.1127 58.5 7.9908
    endloop
  endfacet
  facet normal 0 1 0
    outer loop
      vertex -25 58.5 6
      vertex 12.6018 58.5 7.6082
      vertex 55 58.5 6
    endloop
  endfacet
  facet normal 0 1 0
    outer loop
      vertex 13.3892 58.5 7.67344
      vertex 55 58.5 6
      vertex 12.6018 58.5 7.6082
    endloop
  endfacet
  facet normal 0 1 0
    outer loop
      vertex 14.1127 58.5 7.9908
      vertex 55 58.5 6
      vertex 13.3892 58.5 7.67344
    endloop
  endfacet
  facet normal 0 1 -0
    outer loop
      vertex -16.6108 58.5 12.3266
      vertex -25 58.5 14
      vertex 12.6018 58.5 12.3918
    endloop
  endfacet
  facet normal 0 1 -0
    outer loop
      vertex -18.1641 58.5 12.1979
      vertex -25 58.5 14
      vertex -17.3982 58.5 12.3918
    endloop
  endfacet
  facet normal 0 1 -0
    outer loop
      vertex -18.8255 58.5 11.7657
      vertex -25 58.5 14
      vertex -18.1641 58.5 12.1979
    endloop
  endfacet
  facet normal 0 1 -0
    outer loop
      vertex -19.3107 58.5 11.1423
      vertex -25 58.5 14
      vertex -18.8255 58.5 11.7657
    endloop
  endfacet
  facet normal 0 1 -0
    outer loop
      vertex -19.5673 58.5 10.395
      vertex -25 58.5 14
      vertex -19.3107 58.5 11.1423
    endloop
  endfacet
  facet normal 0 1 -0
    outer loop
      vertex -19.5673 58.5 9.60497
      vertex -25 58.5 14
      vertex -19.5673 58.5 10.395
    endloop
  endfacet
  facet normal 0 1 0
    outer loop
      vertex -25 58.5 6
      vertex -19.5673 58.5 9.60497
      vertex -19.3107 58.5 8.85773
    endloop
  endfacet
  facet normal 0 1 0
    outer loop
      vertex -25 58.5 6
      vertex -19.3107 58.5 8.85773
      vertex -18.8255 58.5 8.23426
    endloop
  endfacet
  facet normal 0 1 0
    outer loop
      vertex -19.5673 58.5 9.60497
      vertex -25 58.5 6
      vertex -25 58.5 14
    endloop
  endfacet
  facet normal 0 1 0
    outer loop
      vertex -18.1641 58.5 7.80214
      vertex -25 58.5 6
      vertex -18.8255 58.5 8.23426
    endloop
  endfacet
  facet normal 0 1 0
    outer loop
      vertex -17.3982 58.5 7.6082
      vertex -25 58.5 6
      vertex -18.1641 58.5 7.80214
    endloop
  endfacet
  facet normal 0 1 0
    outer loop
      vertex -16.6108 58.5 7.67344
      vertex -25 58.5 6
      vertex -17.3982 58.5 7.6082
    endloop
  endfacet
  facet normal 0 -1 0
    outer loop
      vertex -25 55.5 6
      vertex -24.5 55.5 14
      vertex -25 55.5 14
    endloop
  endfacet
  facet normal 0 -1 -0
    outer loop
      vertex -24.5 55.5 14
      vertex -25 55.5 6
      vertex -24.5 55.5 6
    endloop
  endfacet
  facet normal 0 -1 0
    outer loop
      vertex 54.5 55.5 6
      vertex 55 55.5 14
      vertex 54.5 55.5 14
    endloop
  endfacet
  facet normal 0 -1 -0
    outer loop
      vertex 55 55.5 14
      vertex 54.5 55.5 6
      vertex 55 55.5 6
    endloop
  endfacet
  facet normal 0 -1 0
    outer loop
      vertex 11.8359 55.5 12.1979
      vertex -21.5 55.5 14
      vertex -16.6108 55.5 12.3266
    endloop
  endfacet
  facet normal 0 -1 0
    outer loop
      vertex -21.5 55.5 14
      vertex 11.8359 55.5 12.1979
      vertex 12.6018 55.5 12.3918
    endloop
  endfacet
  facet normal 0 -1 0
    outer loop
      vertex -15.8873 55.5 12.0092
      vertex 11.8359 55.5 12.1979
      vertex -16.6108 55.5 12.3266
    endloop
  endfacet
  facet normal 0 -1 0
    outer loop
      vertex -15.8873 55.5 12.0092
      vertex 11.1745 55.5 11.7657
      vertex 11.8359 55.5 12.1979
    endloop
  endfacet
  facet normal 0 -1 0
    outer loop
      vertex -15.3061 55.5 11.4741
      vertex 11.1745 55.5 11.7657
      vertex -15.8873 55.5 12.0092
    endloop
  endfacet
  facet normal 0 -1 0
    outer loop
      vertex -15.3061 55.5 11.4741
      vertex 10.6893 55.5 11.1423
      vertex 11.1745 55.5 11.7657
    endloop
  endfacet
  facet normal 0 -1 0
    outer loop
      vertex -14.93 55.5 10.7793
      vertex 10.6893 55.5 11.1423
      vertex -15.3061 55.5 11.4741
    endloop
  endfacet
  facet normal 0 -1 0
    outer loop
      vertex -14.93 55.5 10.7793
      vertex 10.4327 55.5 10.395
      vertex 10.6893 55.5 11.1423
    endloop
  endfacet
  facet normal 0 -1 0
    outer loop
      vertex -14.8 55.5 10
      vertex 10.4327 55.5 10.395
      vertex -14.93 55.5 10.7793
    endloop
  endfacet
  facet normal 0 -1 0
    outer loop
      vertex -14.8 55.5 10
      vertex 10.4327 55.5 9.60497
      vertex 10.4327 55.5 10.395
    endloop
  endfacet
  facet normal 0 -1 0
    outer loop
      vertex -14.93 55.5 9.22072
      vertex 10.4327 55.5 9.60497
      vertex -14.8 55.5 10
    endloop
  endfacet
  facet normal 0 -1 0
    outer loop
      vertex -14.93 55.5 9.22072
      vertex 10.6893 55.5 8.85773
      vertex 10.4327 55.5 9.60497
    endloop
  endfacet
  facet normal 0 -1 0
    outer loop
      vertex -15.3061 55.5 8.52589
      vertex 10.6893 55.5 8.85773
      vertex -14.93 55.5 9.22072
    endloop
  endfacet
  facet normal 0 -1 0
    outer loop
      vertex -15.3061 55.5 8.52589
      vertex 11.1745 55.5 8.23426
      vertex 10.6893 55.5 8.85773
    endloop
  endfacet
  facet normal 0 -1 0
    outer loop
      vertex -15.8873 55.5 7.9908
      vertex 11.1745 55.5 8.23426
      vertex -15.3061 55.5 8.52589
    endloop
  endfacet
  facet normal 0 -1 0
    outer loop
      vertex -15.8873 55.5 7.9908
      vertex 11.8359 55.5 7.80214
      vertex 11.1745 55.5 8.23426
    endloop
  endfacet
  facet normal 0 -1 0
    outer loop
      vertex -16.6108 55.5 7.67344
      vertex 11.8359 55.5 7.80214
      vertex -15.8873 55.5 7.9908
    endloop
  endfacet
  facet normal 0 -1 0
    outer loop
      vertex -21.5 55.5 6
      vertex -16.6108 55.5 7.67344
      vertex -17.3982 55.5 7.6082
    endloop
  endfacet
  facet normal 0 -1 -0
    outer loop
      vertex -16.6108 55.5 7.67344
      vertex -21.5 55.5 6
      vertex 11.8359 55.5 7.80214
    endloop
  endfacet
  facet normal 0 -1 0
    outer loop
      vertex 17.2155 55.5 13.4731
      vertex 44.1845 55.5 11.7231
      vertex 47.2155 55.5 13.4731
    endloop
  endfacet
  facet normal 0 -1 0
    outer loop
      vertex 20.2155 55.5 8.27692
      vertex 44.1845 55.5 11.7231
      vertex 17.2155 55.5 13.4731
    endloop
  endfacet
  facet normal 0 -1 0
    outer loop
      vertex 47.1845 55.5 6.52692
      vertex 20.2155 55.5 8.27692
      vertex 17.1845 55.5 6.52692
    endloop
  endfacet
  facet normal 0 -1 0
    outer loop
      vertex 20.2155 55.5 8.27692
      vertex 47.1845 55.5 6.52692
      vertex 44.1845 55.5 11.7231
    endloop
  endfacet
  facet normal 0 -1 0
    outer loop
      vertex -21.5 55.5 14
      vertex 17.2155 55.5 13.4731
      vertex 51.5 55.5 14
    endloop
  endfacet
  facet normal 0 -1 0
    outer loop
      vertex -16.6108 55.5 12.3266
      vertex -21.5 55.5 14
      vertex -17.3982 55.5 12.3918
    endloop
  endfacet
  facet normal 0 -1 0
    outer loop
      vertex -21.5 55.5 14
      vertex -18.1641 55.5 12.1979
      vertex -17.3982 55.5 12.3918
    endloop
  endfacet
  facet normal 0 -1 0
    outer loop
      vertex -21.5 55.5 14
      vertex -18.8255 55.5 11.7657
      vertex -18.1641 55.5 12.1979
    endloop
  endfacet
  facet normal 0 -1 0
    outer loop
      vertex -21.5 55.5 14
      vertex -19.3107 55.5 11.1423
      vertex -18.8255 55.5 11.7657
    endloop
  endfacet
  facet normal 0 -1 0
    outer loop
      vertex -21.5 55.5 14
      vertex -19.5673 55.5 10.395
      vertex -19.3107 55.5 11.1423
    endloop
  endfacet
  facet normal 0 -1 0
    outer loop
      vertex -21.5 55.5 14
      vertex -19.5673 55.5 9.60497
      vertex -19.5673 55.5 10.395
    endloop
  endfacet
  facet normal 0 -1 0
    outer loop
      vertex -21.5 55.5 6
      vertex -19.5673 55.5 9.60497
      vertex -21.5 55.5 14
    endloop
  endfacet
  facet normal 0 -1 -0
    outer loop
      vertex 11.8359 55.5 7.80214
      vertex -21.5 55.5 6
      vertex 12.6018 55.5 7.6082
    endloop
  endfacet
  facet normal 0 -1 0
    outer loop
      vertex 51.5 55.5 6
      vertex 17.1845 55.5 6.52692
      vertex -21.5 55.5 6
    endloop
  endfacet
  facet normal 0 -1 -0
    outer loop
      vertex 12.6018 55.5 7.6082
      vertex -21.5 55.5 6
      vertex 17.1845 55.5 6.52692
    endloop
  endfacet
  facet normal 0 -1 -0
    outer loop
      vertex -18.1641 55.5 7.80214
      vertex -21.5 55.5 6
      vertex -17.3982 55.5 7.6082
    endloop
  endfacet
  facet normal 0 -1 -0
    outer loop
      vertex -18.8255 55.5 8.23426
      vertex -21.5 55.5 6
      vertex -18.1641 55.5 7.80214
    endloop
  endfacet
  facet normal 0 -1 -0
    outer loop
      vertex -19.3107 55.5 8.85773
      vertex -21.5 55.5 6
      vertex -18.8255 55.5 8.23426
    endloop
  endfacet
  facet normal 0 -1 -0
    outer loop
      vertex -19.5673 55.5 9.60497
      vertex -21.5 55.5 6
      vertex -19.3107 55.5 8.85773
    endloop
  endfacet
  facet normal 0 -1 0
    outer loop
      vertex 47.2155 55.5 13.4731
      vertex 51.5 55.5 14
      vertex 17.2155 55.5 13.4731
    endloop
  endfacet
  facet normal 0 -1 0
    outer loop
      vertex 50.2155 55.5 8.27692
      vertex 51.5 55.5 14
      vertex 47.2155 55.5 13.4731
    endloop
  endfacet
  facet normal 0 -1 0
    outer loop
      vertex 50.2155 55.5 8.27692
      vertex 51.5 55.5 6
      vertex 51.5 55.5 14
    endloop
  endfacet
  facet normal 0 -1 0
    outer loop
      vertex 47.1845 55.5 6.52692
      vertex 51.5 55.5 6
      vertex 50.2155 55.5 8.27692
    endloop
  endfacet
  facet normal 0 -1 0
    outer loop
      vertex 17.1845 55.5 6.52692
      vertex 51.5 55.5 6
      vertex 47.1845 55.5 6.52692
    endloop
  endfacet
  facet normal 0 -1 0
    outer loop
      vertex -21.5 55.5 14
      vertex 12.6018 55.5 12.3918
      vertex 17.2155 55.5 13.4731
    endloop
  endfacet
  facet normal 0 -1 0
    outer loop
      vertex 13.3892 55.5 12.3266
      vertex 17.2155 55.5 13.4731
      vertex 12.6018 55.5 12.3918
    endloop
  endfacet
  facet normal 0 -1 0
    outer loop
      vertex 14.1127 55.5 12.0092
      vertex 17.2155 55.5 13.4731
      vertex 13.3892 55.5 12.3266
    endloop
  endfacet
  facet normal 0 -1 0
    outer loop
      vertex 17.2155 55.5 13.4731
      vertex 14.1127 55.5 12.0092
      vertex 14.3314 55.5 11.8079
    endloop
  endfacet
  facet normal 0 -1 0
    outer loop
      vertex 15.07 55.5 9.22072
      vertex 17.1845 55.5 6.52692
      vertex 15.1954 55.5 9.97215
    endloop
  endfacet
  facet normal 0 -1 0
    outer loop
      vertex 14.6939 55.5 8.52589
      vertex 17.1845 55.5 6.52692
      vertex 15.07 55.5 9.22072
    endloop
  endfacet
  facet normal 0 -1 0
    outer loop
      vertex 14.1127 55.5 7.9908
      vertex 17.1845 55.5 6.52692
      vertex 14.6939 55.5 8.52589
    endloop
  endfacet
  facet normal 0 -1 0
    outer loop
      vertex 13.3892 55.5 7.67344
      vertex 17.1845 55.5 6.52692
      vertex 14.1127 55.5 7.9908
    endloop
  endfacet
  facet normal 0 -1 0
    outer loop
      vertex 17.1845 55.5 6.52692
      vertex 13.3892 55.5 7.67344
      vertex 12.6018 55.5 7.6082
    endloop
  endfacet
  facet normal 0 -1 0
    outer loop
      vertex 15.6505 55.5 11.1838
      vertex 18.7495 55.5 8.81615
      vertex 16.9495 55.5 11.9338
    endloop
  endfacet
  facet normal -0 -1 0
    outer loop
      vertex 18.7495 55.5 8.81615
      vertex 15.6505 55.5 11.1838
      vertex 17.4505 55.5 8.06615
    endloop
  endfacet
  facet normal 0 -1 0
    outer loop
      vertex 45.6505 55.5 11.1838
      vertex 48.7495 55.5 8.81615
      vertex 46.9495 55.5 11.9338
    endloop
  endfacet
  facet normal -0 -1 0
    outer loop
      vertex 48.7495 55.5 8.81615
      vertex 45.6505 55.5 11.1838
      vertex 47.4505 55.5 8.06615
    endloop
  endfacet
  facet normal -0.98637 0 -0.164543
    outer loop
      vertex -14.8 55.5 10
      vertex -14.93 58.5 10.7793
      vertex -14.8 58.5 10
    endloop
  endfacet
  facet normal -0.98637 -0 -0.164543
    outer loop
      vertex -14.93 58.5 10.7793
      vertex -14.8 55.5 10
      vertex -14.93 55.5 10.7793
    endloop
  endfacet
  facet normal -0.879424 0 -0.476038
    outer loop
      vertex -14.93 55.5 10.7793
      vertex -15.3061 58.5 11.4741
      vertex -14.93 58.5 10.7793
    endloop
  endfacet
  facet normal -0.879424 -0 -0.476038
    outer loop
      vertex -15.3061 58.5 11.4741
      vertex -14.93 55.5 10.7793
      vertex -15.3061 55.5 11.4741
    endloop
  endfacet
  facet normal 1 -0 0
    outer loop
      vertex -19.5673 55.5 10.395
      vertex -19.5673 58.5 9.60497
      vertex -19.5673 58.5 10.395
    endloop
  endfacet
  facet normal 1 0 0
    outer loop
      vertex -19.5673 58.5 9.60497
      vertex -19.5673 55.5 10.395
      vertex -19.5673 55.5 9.60497
    endloop
  endfacet
  facet normal 0.245423 0 -0.969416
    outer loop
      vertex -18.1641 55.5 12.1979
      vertex -17.3982 58.5 12.3918
      vertex -17.3982 55.5 12.3918
    endloop
  endfacet
  facet normal 0.245423 0 -0.969416
    outer loop
      vertex -17.3982 58.5 12.3918
      vertex -18.1641 55.5 12.1979
      vertex -18.1641 58.5 12.1979
    endloop
  endfacet
  facet normal -0.401699 0 0.915772
    outer loop
      vertex -16.6108 58.5 7.67344
      vertex -15.8873 55.5 7.9908
      vertex -15.8873 58.5 7.9908
    endloop
  endfacet
  facet normal -0.401699 0 0.915772
    outer loop
      vertex -15.8873 55.5 7.9908
      vertex -16.6108 58.5 7.67344
      vertex -16.6108 55.5 7.67344
    endloop
  endfacet
  facet normal -0.677328 0 -0.735681
    outer loop
      vertex -15.8873 55.5 12.0092
      vertex -15.3061 58.5 11.4741
      vertex -15.3061 55.5 11.4741
    endloop
  endfacet
  facet normal -0.677328 0 -0.735681
    outer loop
      vertex -15.3061 58.5 11.4741
      vertex -15.8873 55.5 12.0092
      vertex -15.8873 58.5 12.0092
    endloop
  endfacet
  facet normal 0.789148 0 -0.614203
    outer loop
      vertex -18.8255 55.5 11.7657
      vertex -19.3107 58.5 11.1423
      vertex -18.8255 58.5 11.7657
    endloop
  endfacet
  facet normal 0.789148 0 -0.614203
    outer loop
      vertex -19.3107 58.5 11.1423
      vertex -18.8255 55.5 11.7657
      vertex -19.3107 55.5 11.1423
    endloop
  endfacet
  facet normal 0.547024 0 -0.837117
    outer loop
      vertex -18.8255 55.5 11.7657
      vertex -18.1641 58.5 12.1979
      vertex -18.1641 55.5 12.1979
    endloop
  endfacet
  facet normal 0.547024 0 -0.837117
    outer loop
      vertex -18.1641 58.5 12.1979
      vertex -18.8255 55.5 11.7657
      vertex -18.8255 58.5 11.7657
    endloop
  endfacet
  facet normal -0.677321 0 0.735688
    outer loop
      vertex -15.8873 58.5 7.9908
      vertex -15.3061 55.5 8.52589
      vertex -15.3061 58.5 8.52589
    endloop
  endfacet
  facet normal -0.677321 0 0.735688
    outer loop
      vertex -15.3061 55.5 8.52589
      vertex -15.8873 58.5 7.9908
      vertex -15.8873 55.5 7.9908
    endloop
  endfacet
  facet normal -0.401742 0 -0.915753
    outer loop
      vertex -16.6108 55.5 12.3266
      vertex -15.8873 58.5 12.0092
      vertex -15.8873 55.5 12.0092
    endloop
  endfacet
  facet normal -0.401742 0 -0.915753
    outer loop
      vertex -15.8873 58.5 12.0092
      vertex -16.6108 55.5 12.3266
      vertex -16.6108 58.5 12.3266
    endloop
  endfacet
  facet normal 0.945797 0 -0.324758
    outer loop
      vertex -19.3107 55.5 11.1423
      vertex -19.5673 58.5 10.395
      vertex -19.3107 58.5 11.1423
    endloop
  endfacet
  facet normal 0.945797 0 -0.324758
    outer loop
      vertex -19.5673 58.5 10.395
      vertex -19.3107 55.5 11.1423
      vertex -19.5673 55.5 10.395
    endloop
  endfacet
  facet normal 0.245471 0 0.969404
    outer loop
      vertex -18.1641 58.5 7.80214
      vertex -17.3982 55.5 7.6082
      vertex -17.3982 58.5 7.6082
    endloop
  endfacet
  facet normal 0.245471 0 0.969404
    outer loop
      vertex -17.3982 55.5 7.6082
      vertex -18.1641 58.5 7.80214
      vertex -18.1641 55.5 7.80214
    endloop
  endfacet
  facet normal -0.082572 0 0.996585
    outer loop
      vertex -17.3982 58.5 7.6082
      vertex -16.6108 55.5 7.67344
      vertex -16.6108 58.5 7.67344
    endloop
  endfacet
  facet normal -0.082572 0 0.996585
    outer loop
      vertex -16.6108 55.5 7.67344
      vertex -17.3982 58.5 7.6082
      vertex -17.3982 55.5 7.6082
    endloop
  endfacet
  facet normal 0.546953 0 0.837163
    outer loop
      vertex -18.8255 58.5 8.23426
      vertex -18.1641 55.5 7.80214
      vertex -18.1641 58.5 7.80214
    endloop
  endfacet
  facet normal 0.546953 0 0.837163
    outer loop
      vertex -18.1641 55.5 7.80214
      vertex -18.8255 58.5 8.23426
      vertex -18.8255 55.5 8.23426
    endloop
  endfacet
  facet normal 0.945789 -0 0.324781
    outer loop
      vertex -19.5673 55.5 9.60497
      vertex -19.3107 58.5 8.85773
      vertex -19.5673 58.5 9.60497
    endloop
  endfacet
  facet normal 0.945789 0 0.324781
    outer loop
      vertex -19.3107 58.5 8.85773
      vertex -19.5673 55.5 9.60497
      vertex -19.3107 55.5 8.85773
    endloop
  endfacet
  facet normal -0.0825217 0 -0.996589
    outer loop
      vertex -17.3982 55.5 12.3918
      vertex -16.6108 58.5 12.3266
      vertex -16.6108 55.5 12.3266
    endloop
  endfacet
  facet normal -0.0825217 0 -0.996589
    outer loop
      vertex -16.6108 58.5 12.3266
      vertex -17.3982 55.5 12.3918
      vertex -17.3982 58.5 12.3918
    endloop
  endfacet
  facet normal -0.879433 0 0.476023
    outer loop
      vertex -15.3061 55.5 8.52589
      vertex -14.93 58.5 9.22072
      vertex -15.3061 58.5 8.52589
    endloop
  endfacet
  facet normal -0.879433 0 0.476023
    outer loop
      vertex -14.93 58.5 9.22072
      vertex -15.3061 55.5 8.52589
      vertex -14.93 55.5 9.22072
    endloop
  endfacet
  facet normal -0.986369 0 0.164547
    outer loop
      vertex -14.93 55.5 9.22072
      vertex -14.8 58.5 10
      vertex -14.93 58.5 9.22072
    endloop
  endfacet
  facet normal -0.986369 0 0.164547
    outer loop
      vertex -14.8 58.5 10
      vertex -14.93 55.5 9.22072
      vertex -14.8 55.5 10
    endloop
  endfacet
  facet normal 0.789181 -0 0.614161
    outer loop
      vertex -19.3107 55.5 8.85773
      vertex -18.8255 58.5 8.23426
      vertex -19.3107 58.5 8.85773
    endloop
  endfacet
  facet normal 0.789181 0 0.614161
    outer loop
      vertex -18.8255 58.5 8.23426
      vertex -19.3107 55.5 8.85773
      vertex -18.8255 55.5 8.23426
    endloop
  endfacet
  facet normal -0.98637 0 -0.164543
    outer loop
      vertex 15.2 57 10
      vertex 15.07 58.5 10.7793
      vertex 15.2 58.5 10
    endloop
  endfacet
  facet normal -0.98637 -0 -0.164543
    outer loop
      vertex 15.07 58.5 10.7793
      vertex 15.2 57 10
      vertex 15.07 57 10.7793
    endloop
  endfacet
  facet normal 1 -0 0
    outer loop
      vertex 10.4327 55.5 10.395
      vertex 10.4327 58.5 9.60497
      vertex 10.4327 58.5 10.395
    endloop
  endfacet
  facet normal 1 0 0
    outer loop
      vertex 10.4327 58.5 9.60497
      vertex 10.4327 55.5 10.395
      vertex 10.4327 55.5 9.60497
    endloop
  endfacet
  facet normal -0.401699 0 0.915772
    outer loop
      vertex 13.3892 58.5 7.67344
      vertex 14.1127 55.5 7.9908
      vertex 14.1127 58.5 7.9908
    endloop
  endfacet
  facet normal -0.401699 0 0.915772
    outer loop
      vertex 14.1127 55.5 7.9908
      vertex 13.3892 58.5 7.67344
      vertex 13.3892 55.5 7.67344
    endloop
  endfacet
  facet normal -0.082572 0 0.996585
    outer loop
      vertex 12.6018 58.5 7.6082
      vertex 13.3892 55.5 7.67344
      vertex 13.3892 58.5 7.67344
    endloop
  endfacet
  facet normal -0.082572 0 0.996585
    outer loop
      vertex 13.3892 55.5 7.67344
      vertex 12.6018 58.5 7.6082
      vertex 12.6018 55.5 7.6082
    endloop
  endfacet
  facet normal -0.677231 0 -0.73577
    outer loop
      vertex 14.3314 55.5 11.8079
      vertex 14.1127 55.5 12.0092
      vertex 14.3314 57 11.8079
    endloop
  endfacet
  facet normal -0.677386 0 -0.735628
    outer loop
      vertex 14.3314 57 11.8079
      vertex 14.6939 58.5 11.4741
      vertex 14.6939 57 11.4741
    endloop
  endfacet
  facet normal -0.677328 -2.59995e-05 -0.735681
    outer loop
      vertex 14.3314 57 11.8079
      vertex 14.1127 58.5 12.0092
      vertex 14.6939 58.5 11.4741
    endloop
  endfacet
  facet normal -0.677231 -0 -0.73577
    outer loop
      vertex 14.1127 58.5 12.0092
      vertex 14.3314 57 11.8079
      vertex 14.1127 55.5 12.0092
    endloop
  endfacet
  facet normal -0.401742 0 -0.915753
    outer loop
      vertex 13.3892 55.5 12.3266
      vertex 14.1127 58.5 12.0092
      vertex 14.1127 55.5 12.0092
    endloop
  endfacet
  facet normal -0.401742 0 -0.915753
    outer loop
      vertex 14.1127 58.5 12.0092
      vertex 13.3892 55.5 12.3266
      vertex 13.3892 58.5 12.3266
    endloop
  endfacet
  facet normal 0.789148 0 -0.614203
    outer loop
      vertex 11.1745 55.5 11.7657
      vertex 10.6893 58.5 11.1423
      vertex 11.1745 58.5 11.7657
    endloop
  endfacet
  facet normal 0.789148 0 -0.614203
    outer loop
      vertex 10.6893 58.5 11.1423
      vertex 11.1745 55.5 11.7657
      vertex 10.6893 55.5 11.1423
    endloop
  endfacet
  facet normal -0.677321 0 0.735688
    outer loop
      vertex 14.1127 58.5 7.9908
      vertex 14.6939 55.5 8.52589
      vertex 14.6939 58.5 8.52589
    endloop
  endfacet
  facet normal -0.677321 0 0.735688
    outer loop
      vertex 14.6939 55.5 8.52589
      vertex 14.1127 58.5 7.9908
      vertex 14.1127 55.5 7.9908
    endloop
  endfacet
  facet normal -0.879424 0 -0.476038
    outer loop
      vertex 15.07 57 10.7793
      vertex 14.6939 58.5 11.4741
      vertex 15.07 58.5 10.7793
    endloop
  endfacet
  facet normal -0.879424 -0 -0.476038
    outer loop
      vertex 14.6939 58.5 11.4741
      vertex 15.07 57 10.7793
      vertex 14.6939 57 11.4741
    endloop
  endfacet
  facet normal 0.245423 0 -0.969416
    outer loop
      vertex 11.8359 55.5 12.1979
      vertex 12.6018 58.5 12.3918
      vertex 12.6018 55.5 12.3918
    endloop
  endfacet
  facet normal 0.245423 0 -0.969416
    outer loop
      vertex 12.6018 58.5 12.3918
      vertex 11.8359 55.5 12.1979
      vertex 11.8359 58.5 12.1979
    endloop
  endfacet
  facet normal 0.945797 0 -0.324758
    outer loop
      vertex 10.6893 55.5 11.1423
      vertex 10.4327 58.5 10.395
      vertex 10.6893 58.5 11.1423
    endloop
  endfacet
  facet normal 0.945797 0 -0.324758
    outer loop
      vertex 10.4327 58.5 10.395
      vertex 10.6893 55.5 11.1423
      vertex 10.4327 55.5 10.395
    endloop
  endfacet
  facet normal 0.547024 0 -0.837117
    outer loop
      vertex 11.1745 55.5 11.7657
      vertex 11.8359 58.5 12.1979
      vertex 11.8359 55.5 12.1979
    endloop
  endfacet
  facet normal 0.547024 0 -0.837117
    outer loop
      vertex 11.8359 58.5 12.1979
      vertex 11.1745 55.5 11.7657
      vertex 11.1745 58.5 11.7657
    endloop
  endfacet
  facet normal -0.986369 -3.02192e-05 0.164547
    outer loop
      vertex 15.07 58.5 9.22072
      vertex 15.1954 57 9.97215
      vertex 15.2 58.5 10
    endloop
  endfacet
  facet normal -0.986359 0 0.164605
    outer loop
      vertex 15.07 55.5 9.22072
      vertex 15.1954 57 9.97215
      vertex 15.07 58.5 9.22072
    endloop
  endfacet
  facet normal -0.986359 0 0.164605
    outer loop
      vertex 15.1954 57 9.97215
      vertex 15.07 55.5 9.22072
      vertex 15.1954 55.5 9.97215
    endloop
  endfacet
  facet normal -0.986632 0 0.162963
    outer loop
      vertex 15.2 58.5 10
      vertex 15.1954 57 9.97215
      vertex 15.2 57 10
    endloop
  endfacet
  facet normal 0.245471 0 0.969404
    outer loop
      vertex 11.8359 58.5 7.80214
      vertex 12.6018 55.5 7.6082
      vertex 12.6018 58.5 7.6082
    endloop
  endfacet
  facet normal 0.245471 0 0.969404
    outer loop
      vertex 12.6018 55.5 7.6082
      vertex 11.8359 58.5 7.80214
      vertex 11.8359 55.5 7.80214
    endloop
  endfacet
  facet normal 0.546953 0 0.837163
    outer loop
      vertex 11.1745 58.5 8.23426
      vertex 11.8359 55.5 7.80214
      vertex 11.8359 58.5 7.80214
    endloop
  endfacet
  facet normal 0.546953 0 0.837163
    outer loop
      vertex 11.8359 55.5 7.80214
      vertex 11.1745 58.5 8.23426
      vertex 11.1745 55.5 8.23426
    endloop
  endfacet
  facet normal -0.0825217 0 -0.996589
    outer loop
      vertex 12.6018 55.5 12.3918
      vertex 13.3892 58.5 12.3266
      vertex 13.3892 55.5 12.3266
    endloop
  endfacet
  facet normal -0.0825217 0 -0.996589
    outer loop
      vertex 13.3892 58.5 12.3266
      vertex 12.6018 55.5 12.3918
      vertex 12.6018 58.5 12.3918
    endloop
  endfacet
  facet normal -0.879433 0 0.476023
    outer loop
      vertex 14.6939 55.5 8.52589
      vertex 15.07 58.5 9.22072
      vertex 14.6939 58.5 8.52589
    endloop
  endfacet
  facet normal -0.879433 0 0.476023
    outer loop
      vertex 15.07 58.5 9.22072
      vertex 14.6939 55.5 8.52589
      vertex 15.07 55.5 9.22072
    endloop
  endfacet
  facet normal 0.945789 -0 0.324781
    outer loop
      vertex 10.4327 55.5 9.60497
      vertex 10.6893 58.5 8.85773
      vertex 10.4327 58.5 9.60497
    endloop
  endfacet
  facet normal 0.945789 0 0.324781
    outer loop
      vertex 10.6893 58.5 8.85773
      vertex 10.4327 55.5 9.60497
      vertex 10.6893 55.5 8.85773
    endloop
  endfacet
  facet normal 0.789181 -0 0.614161
    outer loop
      vertex 10.6893 55.5 8.85773
      vertex 11.1745 58.5 8.23426
      vertex 10.6893 58.5 8.85773
    endloop
  endfacet
  facet normal 0.789181 0 0.614161
    outer loop
      vertex 11.1745 58.5 8.23426
      vertex 10.6893 55.5 8.85773
      vertex 11.1745 55.5 8.23426
    endloop
  endfacet
  facet normal -0.866024 0 0.500003
    outer loop
      vertex 9.78446 10.5 8.27692
      vertex 12.7845 15 13.4731
      vertex 9.78446 15 8.27692
    endloop
  endfacet
  facet normal -0.866024 0 0.500003
    outer loop
      vertex 12.7845 15 13.4731
      vertex 9.78446 10.5 8.27692
      vertex 12.7845 10.5 13.4731
    endloop
  endfacet
  facet normal 0.499234 0 0.866467
    outer loop
      vertex 15.8155 15 11.7231
      vertex 15.7643 10.5 11.7526
      vertex 15.8155 9 11.7231
    endloop
  endfacet
  facet normal 0.500011 -1.1778e-05 0.866019
    outer loop
      vertex 12.7845 15 13.4731
      vertex 15.7643 10.5 11.7526
      vertex 15.8155 15 11.7231
    endloop
  endfacet
  facet normal 0.500024 0 0.866011
    outer loop
      vertex 15.7643 10.5 11.7526
      vertex 12.7845 15 13.4731
      vertex 12.7845 10.5 13.4731
    endloop
  endfacet
  facet normal 0.499234 0 0.866467
    outer loop
      vertex 15.8155 9 11.7231
      vertex 15.7643 10.5 11.7526
      vertex 15.7643 9 11.7526
    endloop
  endfacet
  facet normal 0 -1 0
    outer loop
      vertex 15.2893 9 11.1423
      vertex 15.8155 9 11.7231
      vertex 15.7643 9 11.7526
    endloop
  endfacet
  facet normal 0 -1 0
    outer loop
      vertex 15.0327 9 10.3672
      vertex 15.2893 9 11.1423
      vertex 15.0327 9 10.395
    endloop
  endfacet
  facet normal 0 -1 -0
    outer loop
      vertex 15.2893 9 11.1423
      vertex 15.0327 9 10.3672
      vertex 15.8155 9 11.7231
    endloop
  endfacet
  facet normal 0 1 0
    outer loop
      vertex 15.8155 15 11.7231
      vertex 13.0505 15 11.9338
      vertex 12.7845 15 13.4731
    endloop
  endfacet
  facet normal 0 1 0
    outer loop
      vertex 15.8155 15 11.7231
      vertex 14.3495 15 11.1838
      vertex 13.0505 15 11.9338
    endloop
  endfacet
  facet normal 0 1 0
    outer loop
      vertex 15.8155 15 11.7231
      vertex 12.5495 15 8.06615
      vertex 14.3495 15 11.1838
    endloop
  endfacet
  facet normal -0 1 0
    outer loop
      vertex 12.5495 15 8.06615
      vertex 15.8155 15 11.7231
      vertex 12.8155 15 6.52692
    endloop
  endfacet
  facet normal 0 1 0
    outer loop
      vertex 11.2505 15 8.81615
      vertex 12.7845 15 13.4731
      vertex 13.0505 15 11.9338
    endloop
  endfacet
  facet normal 0 1 -0
    outer loop
      vertex 11.2505 15 8.81615
      vertex 9.78446 15 8.27692
      vertex 12.7845 15 13.4731
    endloop
  endfacet
  facet normal 0 1 0
    outer loop
      vertex 12.5495 15 8.06615
      vertex 9.78446 15 8.27692
      vertex 11.2505 15 8.81615
    endloop
  endfacet
  facet normal 0 1 0
    outer loop
      vertex 9.78446 15 8.27692
      vertex 12.5495 15 8.06615
      vertex 12.8155 15 6.52692
    endloop
  endfacet
  facet normal -0.500006 0 -0.866022
    outer loop
      vertex 9.78446 10.5 8.27692
      vertex 12.8155 15 6.52692
      vertex 12.8155 10.5 6.52692
    endloop
  endfacet
  facet normal -0.500006 0 -0.866022
    outer loop
      vertex 12.8155 15 6.52692
      vertex 9.78446 10.5 8.27692
      vertex 9.78446 15 8.27692
    endloop
  endfacet
  facet normal 0.866027 4.82576e-06 -0.499998
    outer loop
      vertex 15.8155 15 11.7231
      vertex 15.0327 10.5 10.3672
      vertex 12.8155 15 6.52692
    endloop
  endfacet
  facet normal 0.866033 0 -0.499986
    outer loop
      vertex 15.8155 9 11.7231
      vertex 15.0327 10.5 10.3672
      vertex 15.8155 15 11.7231
    endloop
  endfacet
  facet normal 0.866033 0 -0.499986
    outer loop
      vertex 15.0327 10.5 10.3672
      vertex 15.8155 9 11.7231
      vertex 15.0327 9 10.3672
    endloop
  endfacet
  facet normal 0.866024 0 -0.500002
    outer loop
      vertex 12.8155 15 6.52692
      vertex 15.0327 10.5 10.3672
      vertex 12.8155 10.5 6.52692
    endloop
  endfacet
  facet normal 0.866023 0 -0.500005
    outer loop
      vertex 13.0505 10.5 11.9338
      vertex 11.2505 15 8.81615
      vertex 13.0505 15 11.9338
    endloop
  endfacet
  facet normal 0.866023 0 -0.500005
    outer loop
      vertex 11.2505 15 8.81615
      vertex 13.0505 10.5 11.9338
      vertex 11.2505 10.5 8.81615
    endloop
  endfacet
  facet normal -0.500011 0 -0.866019
    outer loop
      vertex 13.0505 10.5 11.9338
      vertex 14.3495 15 11.1838
      vertex 14.3495 10.5 11.1838
    endloop
  endfacet
  facet normal -0.500011 0 -0.866019
    outer loop
      vertex 14.3495 15 11.1838
      vertex 13.0505 10.5 11.9338
      vertex 13.0505 15 11.9338
    endloop
  endfacet
  facet normal -0.866023 0 0.500005
    outer loop
      vertex 12.5495 10.5 8.06615
      vertex 14.3495 15 11.1838
      vertex 12.5495 15 8.06615
    endloop
  endfacet
  facet normal -0.866023 0 0.500005
    outer loop
      vertex 14.3495 15 11.1838
      vertex 12.5495 10.5 8.06615
      vertex 14.3495 10.5 11.1838
    endloop
  endfacet
  facet normal 0.500011 0 0.866019
    outer loop
      vertex 11.2505 15 8.81615
      vertex 12.5495 10.5 8.06615
      vertex 12.5495 15 8.06615
    endloop
  endfacet
  facet normal 0.500011 0 0.866019
    outer loop
      vertex 12.5495 10.5 8.06615
      vertex 11.2505 15 8.81615
      vertex 11.2505 10.5 8.81615
    endloop
  endfacet
  facet normal -0.866027 0 0.499998
    outer loop
      vertex -20.2155 10.5 8.27692
      vertex -17.2155 15 13.4731
      vertex -20.2155 15 8.27692
    endloop
  endfacet
  facet normal -0.866027 0 0.499998
    outer loop
      vertex -17.2155 15 13.4731
      vertex -20.2155 10.5 8.27692
      vertex -17.2155 10.5 13.4731
    endloop
  endfacet
  facet normal 0.500011 0 0.866019
    outer loop
      vertex -17.2155 15 13.4731
      vertex -14.1845 10.5 11.7231
      vertex -14.1845 15 11.7231
    endloop
  endfacet
  facet normal 0.500011 0 0.866019
    outer loop
      vertex -14.1845 10.5 11.7231
      vertex -17.2155 15 13.4731
      vertex -17.2155 10.5 13.4731
    endloop
  endfacet
  facet normal 0 1 0
    outer loop
      vertex -14.1845 15 11.7231
      vertex -16.9495 15 11.9338
      vertex -17.2155 15 13.4731
    endloop
  endfacet
  facet normal 0 1 0
    outer loop
      vertex -14.1845 15 11.7231
      vertex -15.6505 15 11.1838
      vertex -16.9495 15 11.9338
    endloop
  endfacet
  facet normal 0 1 0
    outer loop
      vertex -14.1845 15 11.7231
      vertex -17.4505 15 8.06615
      vertex -15.6505 15 11.1838
    endloop
  endfacet
  facet normal -0 1 0
    outer loop
      vertex -17.4505 15 8.06615
      vertex -14.1845 15 11.7231
      vertex -17.1845 15 6.52692
    endloop
  endfacet
  facet normal 0 1 0
    outer loop
      vertex -18.7495 15 8.81615
      vertex -17.2155 15 13.4731
      vertex -16.9495 15 11.9338
    endloop
  endfacet
  facet normal 0 1 -0
    outer loop
      vertex -18.7495 15 8.81615
      vertex -20.2155 15 8.27692
      vertex -17.2155 15 13.4731
    endloop
  endfacet
  facet normal 0 1 0
    outer loop
      vertex -17.4505 15 8.06615
      vertex -20.2155 15 8.27692
      vertex -18.7495 15 8.81615
    endloop
  endfacet
  facet normal 0 1 0
    outer loop
      vertex -20.2155 15 8.27692
      vertex -17.4505 15 8.06615
      vertex -17.1845 15 6.52692
    endloop
  endfacet
  facet normal -0.500011 0 -0.866019
    outer loop
      vertex -20.2155 10.5 8.27692
      vertex -17.1845 15 6.52692
      vertex -17.1845 10.5 6.52692
    endloop
  endfacet
  facet normal -0.500011 0 -0.866019
    outer loop
      vertex -17.1845 15 6.52692
      vertex -20.2155 10.5 8.27692
      vertex -20.2155 15 8.27692
    endloop
  endfacet
  facet normal 0.866027 0 -0.499998
    outer loop
      vertex -14.1845 10.5 11.7231
      vertex -17.1845 15 6.52692
      vertex -14.1845 15 11.7231
    endloop
  endfacet
  facet normal 0.866027 0 -0.499998
    outer loop
      vertex -17.1845 15 6.52692
      vertex -14.1845 10.5 11.7231
      vertex -17.1845 10.5 6.52692
    endloop
  endfacet
  facet normal 0.866023 0 -0.500005
    outer loop
      vertex -16.9495 10.5 11.9338
      vertex -18.7495 15 8.81615
      vertex -16.9495 15 11.9338
    endloop
  endfacet
  facet normal 0.866023 0 -0.500005
    outer loop
      vertex -18.7495 15 8.81615
      vertex -16.9495 10.5 11.9338
      vertex -18.7495 10.5 8.81615
    endloop
  endfacet
  facet normal -0.500011 0 -0.866019
    outer loop
      vertex -16.9495 10.5 11.9338
      vertex -15.6505 15 11.1838
      vertex -15.6505 10.5 11.1838
    endloop
  endfacet
  facet normal -0.500011 0 -0.866019
    outer loop
      vertex -15.6505 15 11.1838
      vertex -16.9495 10.5 11.9338
      vertex -16.9495 15 11.9338
    endloop
  endfacet
  facet normal -0.866023 0 0.500005
    outer loop
      vertex -17.4505 10.5 8.06615
      vertex -15.6505 15 11.1838
      vertex -17.4505 15 8.06615
    endloop
  endfacet
  facet normal -0.866023 0 0.500005
    outer loop
      vertex -15.6505 15 11.1838
      vertex -17.4505 10.5 8.06615
      vertex -15.6505 10.5 11.1838
    endloop
  endfacet
  facet normal 0.500011 0 0.866019
    outer loop
      vertex -18.7495 15 8.81615
      vertex -17.4505 10.5 8.06615
      vertex -17.4505 15 8.06615
    endloop
  endfacet
  facet normal 0.500011 0 0.866019
    outer loop
      vertex -17.4505 10.5 8.06615
      vertex -18.7495 15 8.81615
      vertex -18.7495 10.5 8.81615
    endloop
  endfacet
  facet normal 0.866027 -0 0.499998
    outer loop
      vertex 17.2155 51 13.4731
      vertex 20.2155 55.5 8.27692
      vertex 17.2155 55.5 13.4731
    endloop
  endfacet
  facet normal 0.866027 0 0.499998
    outer loop
      vertex 20.2155 55.5 8.27692
      vertex 17.2155 51 13.4731
      vertex 20.2155 51 8.27692
    endloop
  endfacet
  facet normal -0.499944 0 0.866058
    outer loop
      vertex 14.3314 57 11.8079
      vertex 14.1845 57 11.7231
      vertex 14.3314 55.5 11.8079
    endloop
  endfacet
  facet normal -0.500014 0 0.866017
    outer loop
      vertex 14.3314 55.5 11.8079
      vertex 17.2155 51 13.4731
      vertex 17.2155 55.5 13.4731
    endloop
  endfacet
  facet normal -0.500011 2.9334e-06 0.866019
    outer loop
      vertex 14.3314 55.5 11.8079
      vertex 14.1845 51 11.7231
      vertex 17.2155 51 13.4731
    endloop
  endfacet
  facet normal -0.499944 0 0.866058
    outer loop
      vertex 14.1845 51 11.7231
      vertex 14.3314 55.5 11.8079
      vertex 14.1845 57 11.7231
    endloop
  endfacet
  facet normal 0 1 0
    outer loop
      vertex 14.6939 57 11.4741
      vertex 14.1845 57 11.7231
      vertex 14.3314 57 11.8079
    endloop
  endfacet
  facet normal 0 1 0
    outer loop
      vertex 15.07 57 10.7793
      vertex 14.1845 57 11.7231
      vertex 14.6939 57 11.4741
    endloop
  endfacet
  facet normal 0 1 -0
    outer loop
      vertex 15.1954 57 9.97215
      vertex 15.07 57 10.7793
      vertex 15.2 57 10
    endloop
  endfacet
  facet normal 0 1 0
    outer loop
      vertex 15.07 57 10.7793
      vertex 15.1954 57 9.97215
      vertex 14.1845 57 11.7231
    endloop
  endfacet
  facet normal 0 -1 0
    outer loop
      vertex 14.1845 51 11.7231
      vertex 16.9495 51 11.9338
      vertex 17.2155 51 13.4731
    endloop
  endfacet
  facet normal 0 -1 0
    outer loop
      vertex 14.1845 51 11.7231
      vertex 15.6505 51 11.1838
      vertex 16.9495 51 11.9338
    endloop
  endfacet
  facet normal 0 -1 0
    outer loop
      vertex 14.1845 51 11.7231
      vertex 17.4505 51 8.06615
      vertex 15.6505 51 11.1838
    endloop
  endfacet
  facet normal -0 -1 0
    outer loop
      vertex 17.4505 51 8.06615
      vertex 14.1845 51 11.7231
      vertex 17.1845 51 6.52692
    endloop
  endfacet
  facet normal 0 -1 0
    outer loop
      vertex 18.7495 51 8.81615
      vertex 17.2155 51 13.4731
      vertex 16.9495 51 11.9338
    endloop
  endfacet
  facet normal 0 -1 0
    outer loop
      vertex 18.7495 51 8.81615
      vertex 20.2155 51 8.27692
      vertex 17.2155 51 13.4731
    endloop
  endfacet
  facet normal 0 -1 0
    outer loop
      vertex 17.4505 51 8.06615
      vertex 20.2155 51 8.27692
      vertex 18.7495 51 8.81615
    endloop
  endfacet
  facet normal 0 -1 0
    outer loop
      vertex 20.2155 51 8.27692
      vertex 17.4505 51 8.06615
      vertex 17.1845 51 6.52692
    endloop
  endfacet
  facet normal 0.500011 0 -0.866019
    outer loop
      vertex 17.1845 51 6.52692
      vertex 20.2155 55.5 8.27692
      vertex 20.2155 51 8.27692
    endloop
  endfacet
  facet normal 0.500011 0 -0.866019
    outer loop
      vertex 20.2155 55.5 8.27692
      vertex 17.1845 51 6.52692
      vertex 17.1845 55.5 6.52692
    endloop
  endfacet
  facet normal -0.866026 -0 -0.499999
    outer loop
      vertex 17.1845 55.5 6.52692
      vertex 17.1845 51 6.52692
      vertex 15.1954 55.5 9.97215
    endloop
  endfacet
  facet normal -0.866028 0 -0.499996
    outer loop
      vertex 15.1954 55.5 9.97215
      vertex 14.1845 57 11.7231
      vertex 15.1954 57 9.97215
    endloop
  endfacet
  facet normal -0.866027 -1.17177e-06 -0.499998
    outer loop
      vertex 14.1845 51 11.7231
      vertex 15.1954 55.5 9.97215
      vertex 17.1845 51 6.52692
    endloop
  endfacet
  facet normal -0.866028 0 -0.499996
    outer loop
      vertex 15.1954 55.5 9.97215
      vertex 14.1845 51 11.7231
      vertex 14.1845 57 11.7231
    endloop
  endfacet
  facet normal -0.866023 0 -0.500005
    outer loop
      vertex 18.7495 51 8.81615
      vertex 16.9495 55.5 11.9338
      vertex 18.7495 55.5 8.81615
    endloop
  endfacet
  facet normal -0.866023 -0 -0.500005
    outer loop
      vertex 16.9495 55.5 11.9338
      vertex 18.7495 51 8.81615
      vertex 16.9495 51 11.9338
    endloop
  endfacet
  facet normal 0.500011 0 -0.866019
    outer loop
      vertex 15.6505 51 11.1838
      vertex 16.9495 55.5 11.9338
      vertex 16.9495 51 11.9338
    endloop
  endfacet
  facet normal 0.500011 0 -0.866019
    outer loop
      vertex 16.9495 55.5 11.9338
      vertex 15.6505 51 11.1838
      vertex 15.6505 55.5 11.1838
    endloop
  endfacet
  facet normal 0.866023 -0 0.500005
    outer loop
      vertex 15.6505 51 11.1838
      vertex 17.4505 55.5 8.06615
      vertex 15.6505 55.5 11.1838
    endloop
  endfacet
  facet normal 0.866023 0 0.500005
    outer loop
      vertex 17.4505 55.5 8.06615
      vertex 15.6505 51 11.1838
      vertex 17.4505 51 8.06615
    endloop
  endfacet
  facet normal -0.500011 0 0.866019
    outer loop
      vertex 17.4505 55.5 8.06615
      vertex 18.7495 51 8.81615
      vertex 18.7495 55.5 8.81615
    endloop
  endfacet
  facet normal -0.500011 0 0.866019
    outer loop
      vertex 18.7495 51 8.81615
      vertex 17.4505 55.5 8.06615
      vertex 17.4505 51 8.06615
    endloop
  endfacet
  facet normal 0.866027 -0 0.499998
    outer loop
      vertex 47.2155 51 13.4731
      vertex 50.2155 55.5 8.27692
      vertex 47.2155 55.5 13.4731
    endloop
  endfacet
  facet normal 0.866027 0 0.499998
    outer loop
      vertex 50.2155 55.5 8.27692
      vertex 47.2155 51 13.4731
      vertex 50.2155 51 8.27692
    endloop
  endfacet
  facet normal -0.500011 0 0.866019
    outer loop
      vertex 44.1845 55.5 11.7231
      vertex 47.2155 51 13.4731
      vertex 47.2155 55.5 13.4731
    endloop
  endfacet
  facet normal -0.500011 0 0.866019
    outer loop
      vertex 47.2155 51 13.4731
      vertex 44.1845 55.5 11.7231
      vertex 44.1845 51 11.7231
    endloop
  endfacet
  facet normal 0 -1 0
    outer loop
      vertex 44.1845 51 11.7231
      vertex 46.9495 51 11.9338
      vertex 47.2155 51 13.4731
    endloop
  endfacet
  facet normal 0 -1 0
    outer loop
      vertex 44.1845 51 11.7231
      vertex 45.6505 51 11.1838
      vertex 46.9495 51 11.9338
    endloop
  endfacet
  facet normal 0 -1 0
    outer loop
      vertex 44.1845 51 11.7231
      vertex 47.4505 51 8.06615
      vertex 45.6505 51 11.1838
    endloop
  endfacet
  facet normal -0 -1 0
    outer loop
      vertex 47.4505 51 8.06615
      vertex 44.1845 51 11.7231
      vertex 47.1845 51 6.52692
    endloop
  endfacet
  facet normal 0 -1 0
    outer loop
      vertex 48.7495 51 8.81615
      vertex 47.2155 51 13.4731
      vertex 46.9495 51 11.9338
    endloop
  endfacet
  facet normal 0 -1 0
    outer loop
      vertex 48.7495 51 8.81615
      vertex 50.2155 51 8.27692
      vertex 47.2155 51 13.4731
    endloop
  endfacet
  facet normal 0 -1 0
    outer loop
      vertex 47.4505 51 8.06615
      vertex 50.2155 51 8.27692
      vertex 48.7495 51 8.81615
    endloop
  endfacet
  facet normal 0 -1 0
    outer loop
      vertex 50.2155 51 8.27692
      vertex 47.4505 51 8.06615
      vertex 47.1845 51 6.52692
    endloop
  endfacet
  facet normal 0.500011 0 -0.866019
    outer loop
      vertex 47.1845 51 6.52692
      vertex 50.2155 55.5 8.27692
      vertex 50.2155 51 8.27692
    endloop
  endfacet
  facet normal 0.500011 0 -0.866019
    outer loop
      vertex 50.2155 55.5 8.27692
      vertex 47.1845 51 6.52692
      vertex 47.1845 55.5 6.52692
    endloop
  endfacet
  facet normal -0.866027 0 -0.499998
    outer loop
      vertex 47.1845 51 6.52692
      vertex 44.1845 55.5 11.7231
      vertex 47.1845 55.5 6.52692
    endloop
  endfacet
  facet normal -0.866027 -0 -0.499998
    outer loop
      vertex 44.1845 55.5 11.7231
      vertex 47.1845 51 6.52692
      vertex 44.1845 51 11.7231
    endloop
  endfacet
  facet normal -0.866023 0 -0.500005
    outer loop
      vertex 48.7495 51 8.81615
      vertex 46.9495 55.5 11.9338
      vertex 48.7495 55.5 8.81615
    endloop
  endfacet
  facet normal -0.866023 -0 -0.500005
    outer loop
      vertex 46.9495 55.5 11.9338
      vertex 48.7495 51 8.81615
      vertex 46.9495 51 11.9338
    endloop
  endfacet
  facet normal 0.500011 0 -0.866019
    outer loop
      vertex 45.6505 51 11.1838
      vertex 46.9495 55.5 11.9338
      vertex 46.9495 51 11.9338
    endloop
  endfacet
  facet normal 0.500011 0 -0.866019
    outer loop
      vertex 46.9495 55.5 11.9338
      vertex 45.6505 51 11.1838
      vertex 45.6505 55.5 11.1838
    endloop
  endfacet
  facet normal 0.866023 -0 0.500005
    outer loop
      vertex 45.6505 51 11.1838
      vertex 47.4505 55.5 8.06615
      vertex 45.6505 55.5 11.1838
    endloop
  endfacet
  facet normal 0.866023 0 0.500005
    outer loop
      vertex 47.4505 55.5 8.06615
      vertex 45.6505 51 11.1838
      vertex 47.4505 51 8.06615
    endloop
  endfacet
  facet normal -0.500011 0 0.866019
    outer loop
      vertex 47.4505 55.5 8.06615
      vertex 48.7495 51 8.81615
      vertex 48.7495 55.5 8.81615
    endloop
  endfacet
  facet normal -0.500011 0 0.866019
    outer loop
      vertex 48.7495 51 8.81615
      vertex 47.4505 55.5 8.06615
      vertex 47.4505 51 8.06615
    endloop
  endfacet
  facet normal -1 0 0
    outer loop
      vertex 51.5 10.5 6
      vertex 51.5 55.5 14
      vertex 51.5 55.5 6
    endloop
  endfacet
  facet normal -1 -0 0
    outer loop
      vertex 51.5 55.5 14
      vertex 51.5 10.5 6
      vertex 51.5 10.5 14
    endloop
  endfacet
  facet normal 1 -0 0
    outer loop
      vertex 54.5 10.5 14
      vertex 54.5 55.5 6
      vertex 54.5 55.5 14
    endloop
  endfacet
  facet normal 1 0 0
    outer loop
      vertex 54.5 55.5 6
      vertex 54.5 10.5 14
      vertex 54.5 10.5 6
    endloop
  endfacet
  facet normal -1 0 0
    outer loop
      vertex -24.5 10.5 6
      vertex -24.5 55.5 14
      vertex -24.5 55.5 6
    endloop
  endfacet
  facet normal -1 -0 0
    outer loop
      vertex -24.5 55.5 14
      vertex -24.5 10.5 6
      vertex -24.5 10.5 14
    endloop
  endfacet
  facet normal 1 -0 0
    outer loop
      vertex -21.5 10.5 14
      vertex -21.5 55.5 6
      vertex -21.5 55.5 14
    endloop
  endfacet
  facet normal 1 0 0
    outer loop
      vertex -21.5 55.5 6
      vertex -21.5 10.5 14
      vertex -21.5 10.5 6
    endloop
  endfacet
endsolid OpenSCAD_Model
