solid OpenSCAD_Model
  facet normal -1 0 0
    outer loop
      vertex -25 3.5 6
      vertex -25 10.5 14
      vertex -25 10.5 6
    endloop
  endfacet
  facet normal -1 -0 0
    outer loop
      vertex -25 10.5 14
      vertex -25 3.5 6
      vertex -25 3.5 14
    endloop
  endfacet
  facet normal -0 0 1
    outer loop
      vertex 54.5 10.5 14
      vertex 55 3.5 14
      vertex 55 10.5 14
    endloop
  endfacet
  facet normal 0 0 1
    outer loop
      vertex 51.5 10.5 14
      vertex 54.5 10.5 14
      vertex 51.5 52.5 14
    endloop
  endfacet
  facet normal 0 0 1
    outer loop
      vertex 54.5 10.5 14
      vertex 51.5 10.5 14
      vertex 55 3.5 14
    endloop
  endfacet
  facet normal -0 0 1
    outer loop
      vertex -21.5 10.5 14
      vertex 55 3.5 14
      vertex 51.5 10.5 14
    endloop
  endfacet
  facet normal 0 0 1
    outer loop
      vertex -24.5 10.5 14
      vertex -21.5 10.5 14
      vertex -24.5 52.5 14
    endloop
  endfacet
  facet normal 0 0 1
    outer loop
      vertex -25 3.5 14
      vertex -21.5 10.5 14
      vertex -24.5 10.5 14
    endloop
  endfacet
  facet normal 0 0 1
    outer loop
      vertex -25 3.5 14
      vertex -24.5 10.5 14
      vertex -25 10.5 14
    endloop
  endfacet
  facet normal 0 0 1
    outer loop
      vertex -21.5 10.5 14
      vertex -25 3.5 14
      vertex 55 3.5 14
    endloop
  endfacet
  facet normal 0 0 1
    outer loop
      vertex 55 59.5 14
      vertex 54.5 52.5 14
      vertex 55 52.5 14
    endloop
  endfacet
  facet normal 0 0 1
    outer loop
      vertex 54.5 52.5 14
      vertex 51.5 52.5 14
      vertex 54.5 10.5 14
    endloop
  endfacet
  facet normal 0 0 1
    outer loop
      vertex 55 59.5 14
      vertex 51.5 52.5 14
      vertex 54.5 52.5 14
    endloop
  endfacet
  facet normal 0 0 1
    outer loop
      vertex 55 59.5 14
      vertex -21.5 52.5 14
      vertex 51.5 52.5 14
    endloop
  endfacet
  facet normal 0 0 1
    outer loop
      vertex -21.5 52.5 14
      vertex -24.5 52.5 14
      vertex -21.5 10.5 14
    endloop
  endfacet
  facet normal -0 0 1
    outer loop
      vertex -25 59.5 14
      vertex -21.5 52.5 14
      vertex 55 59.5 14
    endloop
  endfacet
  facet normal 0 0 1
    outer loop
      vertex -21.5 52.5 14
      vertex -25 59.5 14
      vertex -24.5 52.5 14
    endloop
  endfacet
  facet normal 0 0 1
    outer loop
      vertex -24.5 52.5 14
      vertex -25 59.5 14
      vertex -25 52.5 14
    endloop
  endfacet
  facet normal 1 -0 0
    outer loop
      vertex 55 3.5 14
      vertex 55 10.5 6
      vertex 55 10.5 14
    endloop
  endfacet
  facet normal 1 0 0
    outer loop
      vertex 55 10.5 6
      vertex 55 3.5 14
      vertex 55 3.5 6
    endloop
  endfacet
  facet normal 0 1 -0
    outer loop
      vertex 55 10.5 6
      vertex 54.5 10.5 14
      vertex 55 10.5 14
    endloop
  endfacet
  facet normal 0 1 0
    outer loop
      vertex 54.5 10.5 14
      vertex 55 10.5 6
      vertex 54.5 10.5 6
    endloop
  endfacet
  facet normal 0 1 -0
    outer loop
      vertex -24.5 10.5 6
      vertex -25 10.5 14
      vertex -24.5 10.5 14
    endloop
  endfacet
  facet normal 0 1 0
    outer loop
      vertex -25 10.5 14
      vertex -24.5 10.5 6
      vertex -25 10.5 6
    endloop
  endfacet
  facet normal 0 1 0
    outer loop
      vertex 13.0345 10.5 13.9061
      vertex 17.9892 10.5 12.3266
      vertex 17.2018 10.5 12.3918
    endloop
  endfacet
  facet normal 0 1 0
    outer loop
      vertex 51.5 10.5 14
      vertex 46.4359 10.5 12.1979
      vertex 17.9892 10.5 12.3266
    endloop
  endfacet
  facet normal 0 1 0
    outer loop
      vertex 46.4359 10.5 12.1979
      vertex 18.7127 10.5 12.0092
      vertex 17.9892 10.5 12.3266
    endloop
  endfacet
  facet normal 0 1 -0
    outer loop
      vertex 45.7745 10.5 11.7657
      vertex 18.7127 10.5 12.0092
      vertex 46.4359 10.5 12.1979
    endloop
  endfacet
  facet normal 0 1 0
    outer loop
      vertex 45.7745 10.5 11.7657
      vertex 19.2939 10.5 11.4741
      vertex 18.7127 10.5 12.0092
    endloop
  endfacet
  facet normal 0 1 -0
    outer loop
      vertex 45.2893 10.5 11.1423
      vertex 19.2939 10.5 11.4741
      vertex 45.7745 10.5 11.7657
    endloop
  endfacet
  facet normal 0 1 0
    outer loop
      vertex 45.2893 10.5 11.1423
      vertex 19.67 10.5 10.7793
      vertex 19.2939 10.5 11.4741
    endloop
  endfacet
  facet normal 0 1 -0
    outer loop
      vertex 45.0327 10.5 10.395
      vertex 19.67 10.5 10.7793
      vertex 45.2893 10.5 11.1423
    endloop
  endfacet
  facet normal 0 1 0
    outer loop
      vertex 45.0327 10.5 10.395
      vertex 19.8 10.5 10
      vertex 19.67 10.5 10.7793
    endloop
  endfacet
  facet normal 0 1 -0
    outer loop
      vertex 45.0327 10.5 9.60497
      vertex 19.8 10.5 10
      vertex 45.0327 10.5 10.395
    endloop
  endfacet
  facet normal 0 1 0
    outer loop
      vertex 45.0327 10.5 9.60497
      vertex 19.67 10.5 9.22072
      vertex 19.8 10.5 10
    endloop
  endfacet
  facet normal 0 1 0
    outer loop
      vertex 45.2893 10.5 8.85773
      vertex 19.67 10.5 9.22072
      vertex 45.0327 10.5 9.60497
    endloop
  endfacet
  facet normal 0 1 0
    outer loop
      vertex 45.2893 10.5 8.85773
      vertex 19.2939 10.5 8.52589
      vertex 19.67 10.5 9.22072
    endloop
  endfacet
  facet normal 0 1 0
    outer loop
      vertex 45.7745 10.5 8.23426
      vertex 19.2939 10.5 8.52589
      vertex 45.2893 10.5 8.85773
    endloop
  endfacet
  facet normal 0 1 0
    outer loop
      vertex 45.7745 10.5 8.23426
      vertex 18.7127 10.5 7.9908
      vertex 19.2939 10.5 8.52589
    endloop
  endfacet
  facet normal 0 1 0
    outer loop
      vertex 46.4359 10.5 7.80214
      vertex 18.7127 10.5 7.9908
      vertex 45.7745 10.5 8.23426
    endloop
  endfacet
  facet normal 0 1 0
    outer loop
      vertex 46.4359 10.5 7.80214
      vertex 17.9892 10.5 7.67344
      vertex 18.7127 10.5 7.9908
    endloop
  endfacet
  facet normal 0 1 0
    outer loop
      vertex 51.5 10.5 6
      vertex 46.4359 10.5 7.80214
      vertex 47.2018 10.5 7.6082
    endloop
  endfacet
  facet normal 0 1 0
    outer loop
      vertex 46.4359 10.5 7.80214
      vertex 51.5 10.5 6
      vertex 17.9892 10.5 7.67344
    endloop
  endfacet
  facet normal 0 1 0
    outer loop
      vertex 13.0345 10.5 13.9061
      vertex -13.9345 10.5 12.1561
      vertex -16.9655 10.5 13.9061
    endloop
  endfacet
  facet normal 0 1 -0
    outer loop
      vertex 9.53446 10.5 7.84391
      vertex -13.9345 10.5 12.1561
      vertex 13.0345 10.5 13.9061
    endloop
  endfacet
  facet normal 0 1 0
    outer loop
      vertex -17.4345 10.5 6.09391
      vertex 9.53446 10.5 7.84391
      vertex 12.5655 10.5 6.09391
    endloop
  endfacet
  facet normal 0 1 0
    outer loop
      vertex 9.53446 10.5 7.84391
      vertex -17.4345 10.5 6.09391
      vertex -13.9345 10.5 12.1561
    endloop
  endfacet
  facet normal 0 1 0
    outer loop
      vertex 51.5 10.5 14
      vertex 13.0345 10.5 13.9061
      vertex -21.5 10.5 14
    endloop
  endfacet
  facet normal 0 1 0
    outer loop
      vertex 46.4359 10.5 12.1979
      vertex 51.5 10.5 14
      vertex 47.2018 10.5 12.3918
    endloop
  endfacet
  facet normal 0 1 0
    outer loop
      vertex 51.5 10.5 14
      vertex 47.9892 10.5 12.3266
      vertex 47.2018 10.5 12.3918
    endloop
  endfacet
  facet normal 0 1 0
    outer loop
      vertex 51.5 10.5 14
      vertex 48.7127 10.5 12.0092
      vertex 47.9892 10.5 12.3266
    endloop
  endfacet
  facet normal 0 1 0
    outer loop
      vertex 51.5 10.5 14
      vertex 49.2939 10.5 11.4741
      vertex 48.7127 10.5 12.0092
    endloop
  endfacet
  facet normal 0 1 0
    outer loop
      vertex 51.5 10.5 14
      vertex 49.67 10.5 10.7793
      vertex 49.2939 10.5 11.4741
    endloop
  endfacet
  facet normal 0 1 0
    outer loop
      vertex 51.5 10.5 14
      vertex 49.8 10.5 10
      vertex 49.67 10.5 10.7793
    endloop
  endfacet
  facet normal 0 1 -0
    outer loop
      vertex 51.5 10.5 6
      vertex 49.8 10.5 10
      vertex 51.5 10.5 14
    endloop
  endfacet
  facet normal -0 1 0
    outer loop
      vertex 12.5655 10.5 6.09391
      vertex 17.9892 10.5 7.67344
      vertex 51.5 10.5 6
    endloop
  endfacet
  facet normal 0 1 0
    outer loop
      vertex -21.5 10.5 6
      vertex 12.5655 10.5 6.09391
      vertex 51.5 10.5 6
    endloop
  endfacet
  facet normal 0 1 0
    outer loop
      vertex 17.9892 10.5 7.67344
      vertex 12.5655 10.5 6.09391
      vertex 17.2018 10.5 7.6082
    endloop
  endfacet
  facet normal 0 1 0
    outer loop
      vertex 47.9892 10.5 7.67344
      vertex 51.5 10.5 6
      vertex 47.2018 10.5 7.6082
    endloop
  endfacet
  facet normal 0 1 0
    outer loop
      vertex 48.7127 10.5 7.9908
      vertex 51.5 10.5 6
      vertex 47.9892 10.5 7.67344
    endloop
  endfacet
  facet normal 0 1 0
    outer loop
      vertex 49.2939 10.5 8.52589
      vertex 51.5 10.5 6
      vertex 48.7127 10.5 7.9908
    endloop
  endfacet
  facet normal 0 1 0
    outer loop
      vertex 49.67 10.5 9.22072
      vertex 51.5 10.5 6
      vertex 49.2939 10.5 8.52589
    endloop
  endfacet
  facet normal 0 1 0
    outer loop
      vertex 49.8 10.5 10
      vertex 51.5 10.5 6
      vertex 49.67 10.5 9.22072
    endloop
  endfacet
  facet normal 0 1 -0
    outer loop
      vertex -16.9655 10.5 13.9061
      vertex -21.5 10.5 14
      vertex 13.0345 10.5 13.9061
    endloop
  endfacet
  facet normal 0 1 -0
    outer loop
      vertex -20.4655 10.5 7.84391
      vertex -21.5 10.5 14
      vertex -16.9655 10.5 13.9061
    endloop
  endfacet
  facet normal 0 1 0
    outer loop
      vertex -20.4655 10.5 7.84391
      vertex -21.5 10.5 6
      vertex -21.5 10.5 14
    endloop
  endfacet
  facet normal 0 1 0
    outer loop
      vertex -17.4345 10.5 6.09391
      vertex -21.5 10.5 6
      vertex -20.4655 10.5 7.84391
    endloop
  endfacet
  facet normal 0 1 0
    outer loop
      vertex 12.5655 10.5 6.09391
      vertex -21.5 10.5 6
      vertex -17.4345 10.5 6.09391
    endloop
  endfacet
  facet normal 0 1 0
    outer loop
      vertex 51.5 10.5 14
      vertex 17.9892 10.5 12.3266
      vertex 13.0345 10.5 13.9061
    endloop
  endfacet
  facet normal 0 1 -0
    outer loop
      vertex 16.4359 10.5 12.1979
      vertex 13.0345 10.5 13.9061
      vertex 17.2018 10.5 12.3918
    endloop
  endfacet
  facet normal 0 1 0
    outer loop
      vertex 16.4359 10.5 12.1979
      vertex 16.0655 10.5 12.1561
      vertex 13.0345 10.5 13.9061
    endloop
  endfacet
  facet normal -0 1 0
    outer loop
      vertex 16.0655 10.5 12.1561
      vertex 16.4359 10.5 12.1979
      vertex 15.8799 10.5 11.8346
    endloop
  endfacet
  facet normal 0 1 -0
    outer loop
      vertex 15.0327 10.5 9.60497
      vertex 12.5655 10.5 6.09391
      vertex 15.0327 10.5 10.3672
    endloop
  endfacet
  facet normal 0 1 0
    outer loop
      vertex 15.2893 10.5 8.85773
      vertex 12.5655 10.5 6.09391
      vertex 15.0327 10.5 9.60497
    endloop
  endfacet
  facet normal 0 1 0
    outer loop
      vertex 15.7745 10.5 8.23426
      vertex 12.5655 10.5 6.09391
      vertex 15.2893 10.5 8.85773
    endloop
  endfacet
  facet normal 0 1 0
    outer loop
      vertex 16.4359 10.5 7.80214
      vertex 12.5655 10.5 6.09391
      vertex 15.7745 10.5 8.23426
    endloop
  endfacet
  facet normal 0 1 0
    outer loop
      vertex 12.5655 10.5 6.09391
      vertex 16.4359 10.5 7.80214
      vertex 17.2018 10.5 7.6082
    endloop
  endfacet
  facet normal 0 1 0
    outer loop
      vertex -15.4505 10.5 11.5303
      vertex -18.9495 10.5 8.46974
      vertex -16.7495 10.5 12.2803
    endloop
  endfacet
  facet normal -0 1 0
    outer loop
      vertex -18.9495 10.5 8.46974
      vertex -15.4505 10.5 11.5303
      vertex -17.6505 10.5 7.71974
    endloop
  endfacet
  facet normal 0 1 0
    outer loop
      vertex 14.5495 10.5 11.5303
      vertex 11.0505 10.5 8.46974
      vertex 13.2505 10.5 12.2803
    endloop
  endfacet
  facet normal -0 1 0
    outer loop
      vertex 11.0505 10.5 8.46974
      vertex 14.5495 10.5 11.5303
      vertex 12.3495 10.5 7.71974
    endloop
  endfacet
  facet normal 0 0 -1
    outer loop
      vertex 54.5 52.5 6
      vertex 55 59.5 6
      vertex 55 52.5 6
    endloop
  endfacet
  facet normal 0 0 -1
    outer loop
      vertex 51.5 52.5 6
      vertex 54.5 52.5 6
      vertex 51.5 10.5 6
    endloop
  endfacet
  facet normal 0 0 -1
    outer loop
      vertex 54.5 52.5 6
      vertex 51.5 52.5 6
      vertex 55 59.5 6
    endloop
  endfacet
  facet normal 0 0 -1
    outer loop
      vertex -21.5 52.5 6
      vertex 55 59.5 6
      vertex 51.5 52.5 6
    endloop
  endfacet
  facet normal 0 0 -1
    outer loop
      vertex -24.5 52.5 6
      vertex -21.5 52.5 6
      vertex -24.5 10.5 6
    endloop
  endfacet
  facet normal 0 0 -1
    outer loop
      vertex -25 59.5 6
      vertex -21.5 52.5 6
      vertex -24.5 52.5 6
    endloop
  endfacet
  facet normal 0 0 -1
    outer loop
      vertex -25 59.5 6
      vertex -24.5 52.5 6
      vertex -25 52.5 6
    endloop
  endfacet
  facet normal 0 0 -1
    outer loop
      vertex -21.5 52.5 6
      vertex -25 59.5 6
      vertex 55 59.5 6
    endloop
  endfacet
  facet normal 0 0 -1
    outer loop
      vertex 55 3.5 6
      vertex 54.5 10.5 6
      vertex 55 10.5 6
    endloop
  endfacet
  facet normal 0 0 -1
    outer loop
      vertex 54.5 10.5 6
      vertex 51.5 10.5 6
      vertex 54.5 52.5 6
    endloop
  endfacet
  facet normal 0 0 -1
    outer loop
      vertex 55 3.5 6
      vertex 51.5 10.5 6
      vertex 54.5 10.5 6
    endloop
  endfacet
  facet normal 0 0 -1
    outer loop
      vertex 55 3.5 6
      vertex -21.5 10.5 6
      vertex 51.5 10.5 6
    endloop
  endfacet
  facet normal 0 0 -1
    outer loop
      vertex -21.5 10.5 6
      vertex -24.5 10.5 6
      vertex -21.5 52.5 6
    endloop
  endfacet
  facet normal 0 0 -1
    outer loop
      vertex -25 3.5 6
      vertex -21.5 10.5 6
      vertex 55 3.5 6
    endloop
  endfacet
  facet normal -0 0 -1
    outer loop
      vertex -21.5 10.5 6
      vertex -25 3.5 6
      vertex -24.5 10.5 6
    endloop
  endfacet
  facet normal -0 0 -1
    outer loop
      vertex -24.5 10.5 6
      vertex -25 3.5 6
      vertex -25 10.5 6
    endloop
  endfacet
  facet normal 0 -1 0
    outer loop
      vertex -25 3.5 6
      vertex 55 3.5 14
      vertex -25 3.5 14
    endloop
  endfacet
  facet normal 0 -1 -0
    outer loop
      vertex 55 3.5 14
      vertex -25 3.5 6
      vertex 55 3.5 6
    endloop
  endfacet
  facet normal -0.98637 0 -0.164543
    outer loop
      vertex 49.8 4 10
      vertex 49.67 10.5 10.7793
      vertex 49.8 10.5 10
    endloop
  endfacet
  facet normal -0.98637 -0 -0.164543
    outer loop
      vertex 49.67 10.5 10.7793
      vertex 49.8 4 10
      vertex 49.67 4 10.7793
    endloop
  endfacet
  facet normal -0.879424 0 -0.476038
    outer loop
      vertex 49.67 4 10.7793
      vertex 49.2939 10.5 11.4741
      vertex 49.67 10.5 10.7793
    endloop
  endfacet
  facet normal -0.879424 -0 -0.476038
    outer loop
      vertex 49.2939 10.5 11.4741
      vertex 49.67 4 10.7793
      vertex 49.2939 4 11.4741
    endloop
  endfacet
  facet normal 1 -0 0
    outer loop
      vertex 45.0327 4 10.395
      vertex 45.0327 10.5 9.60497
      vertex 45.0327 10.5 10.395
    endloop
  endfacet
  facet normal 1 0 0
    outer loop
      vertex 45.0327 10.5 9.60497
      vertex 45.0327 4 10.395
      vertex 45.0327 4 9.60497
    endloop
  endfacet
  facet normal -0.677328 0 -0.735681
    outer loop
      vertex 48.7127 4 12.0092
      vertex 49.2939 10.5 11.4741
      vertex 49.2939 4 11.4741
    endloop
  endfacet
  facet normal -0.677328 0 -0.735681
    outer loop
      vertex 49.2939 10.5 11.4741
      vertex 48.7127 4 12.0092
      vertex 48.7127 10.5 12.0092
    endloop
  endfacet
  facet normal 0.789148 0 -0.614203
    outer loop
      vertex 45.7745 4 11.7657
      vertex 45.2893 10.5 11.1423
      vertex 45.7745 10.5 11.7657
    endloop
  endfacet
  facet normal 0.789148 0 -0.614203
    outer loop
      vertex 45.2893 10.5 11.1423
      vertex 45.7745 4 11.7657
      vertex 45.2893 4 11.1423
    endloop
  endfacet
  facet normal 0 1 0
    outer loop
      vertex 47.9892 4 12.3266
      vertex 46.4359 4 12.1979
      vertex 47.2018 4 12.3918
    endloop
  endfacet
  facet normal 0 1 0
    outer loop
      vertex 48.7127 4 12.0092
      vertex 46.4359 4 12.1979
      vertex 47.9892 4 12.3266
    endloop
  endfacet
  facet normal 0 1 0
    outer loop
      vertex 48.7127 4 12.0092
      vertex 45.7745 4 11.7657
      vertex 46.4359 4 12.1979
    endloop
  endfacet
  facet normal 0 1 0
    outer loop
      vertex 49.2939 4 11.4741
      vertex 45.7745 4 11.7657
      vertex 48.7127 4 12.0092
    endloop
  endfacet
  facet normal 0 1 0
    outer loop
      vertex 49.2939 4 11.4741
      vertex 45.2893 4 11.1423
      vertex 45.7745 4 11.7657
    endloop
  endfacet
  facet normal 0 1 0
    outer loop
      vertex 49.67 4 10.7793
      vertex 45.2893 4 11.1423
      vertex 49.2939 4 11.4741
    endloop
  endfacet
  facet normal 0 1 0
    outer loop
      vertex 49.67 4 10.7793
      vertex 45.0327 4 10.395
      vertex 45.2893 4 11.1423
    endloop
  endfacet
  facet normal 0 1 0
    outer loop
      vertex 49.8 4 10
      vertex 45.0327 4 10.395
      vertex 49.67 4 10.7793
    endloop
  endfacet
  facet normal 0 1 0
    outer loop
      vertex 49.8 4 10
      vertex 45.0327 4 9.60497
      vertex 45.0327 4 10.395
    endloop
  endfacet
  facet normal 0 1 -0
    outer loop
      vertex 49.67 4 9.22072
      vertex 45.0327 4 9.60497
      vertex 49.8 4 10
    endloop
  endfacet
  facet normal 0 1 0
    outer loop
      vertex 49.67 4 9.22072
      vertex 45.2893 4 8.85773
      vertex 45.0327 4 9.60497
    endloop
  endfacet
  facet normal 0 1 -0
    outer loop
      vertex 49.2939 4 8.52589
      vertex 45.2893 4 8.85773
      vertex 49.67 4 9.22072
    endloop
  endfacet
  facet normal 0 1 0
    outer loop
      vertex 49.2939 4 8.52589
      vertex 45.7745 4 8.23426
      vertex 45.2893 4 8.85773
    endloop
  endfacet
  facet normal 0 1 -0
    outer loop
      vertex 48.7127 4 7.9908
      vertex 45.7745 4 8.23426
      vertex 49.2939 4 8.52589
    endloop
  endfacet
  facet normal 0 1 0
    outer loop
      vertex 48.7127 4 7.9908
      vertex 46.4359 4 7.80214
      vertex 45.7745 4 8.23426
    endloop
  endfacet
  facet normal 0 1 -0
    outer loop
      vertex 47.9892 4 7.67344
      vertex 46.4359 4 7.80214
      vertex 48.7127 4 7.9908
    endloop
  endfacet
  facet normal 0 1 0
    outer loop
      vertex 46.4359 4 7.80214
      vertex 47.9892 4 7.67344
      vertex 47.2018 4 7.6082
    endloop
  endfacet
  facet normal 0.547024 0 -0.837117
    outer loop
      vertex 45.7745 4 11.7657
      vertex 46.4359 10.5 12.1979
      vertex 46.4359 4 12.1979
    endloop
  endfacet
  facet normal 0.547024 0 -0.837117
    outer loop
      vertex 46.4359 10.5 12.1979
      vertex 45.7745 4 11.7657
      vertex 45.7745 10.5 11.7657
    endloop
  endfacet
  facet normal -0.401699 0 0.915772
    outer loop
      vertex 47.9892 10.5 7.67344
      vertex 48.7127 4 7.9908
      vertex 48.7127 10.5 7.9908
    endloop
  endfacet
  facet normal -0.401699 0 0.915772
    outer loop
      vertex 48.7127 4 7.9908
      vertex 47.9892 10.5 7.67344
      vertex 47.9892 4 7.67344
    endloop
  endfacet
  facet normal -0.401742 0 -0.915753
    outer loop
      vertex 47.9892 4 12.3266
      vertex 48.7127 10.5 12.0092
      vertex 48.7127 4 12.0092
    endloop
  endfacet
  facet normal -0.401742 0 -0.915753
    outer loop
      vertex 48.7127 10.5 12.0092
      vertex 47.9892 4 12.3266
      vertex 47.9892 10.5 12.3266
    endloop
  endfacet
  facet normal 0.945797 0 -0.324758
    outer loop
      vertex 45.2893 4 11.1423
      vertex 45.0327 10.5 10.395
      vertex 45.2893 10.5 11.1423
    endloop
  endfacet
  facet normal 0.945797 0 -0.324758
    outer loop
      vertex 45.0327 10.5 10.395
      vertex 45.2893 4 11.1423
      vertex 45.0327 4 10.395
    endloop
  endfacet
  facet normal -0.677321 0 0.735688
    outer loop
      vertex 48.7127 10.5 7.9908
      vertex 49.2939 4 8.52589
      vertex 49.2939 10.5 8.52589
    endloop
  endfacet
  facet normal -0.677321 0 0.735688
    outer loop
      vertex 49.2939 4 8.52589
      vertex 48.7127 10.5 7.9908
      vertex 48.7127 4 7.9908
    endloop
  endfacet
  facet normal -0.879433 0 0.476023
    outer loop
      vertex 49.2939 4 8.52589
      vertex 49.67 10.5 9.22072
      vertex 49.2939 10.5 8.52589
    endloop
  endfacet
  facet normal -0.879433 0 0.476023
    outer loop
      vertex 49.67 10.5 9.22072
      vertex 49.2939 4 8.52589
      vertex 49.67 4 9.22072
    endloop
  endfacet
  facet normal -0.986369 0 0.164547
    outer loop
      vertex 49.67 4 9.22072
      vertex 49.8 10.5 10
      vertex 49.67 10.5 9.22072
    endloop
  endfacet
  facet normal -0.986369 0 0.164547
    outer loop
      vertex 49.8 10.5 10
      vertex 49.67 4 9.22072
      vertex 49.8 4 10
    endloop
  endfacet
  facet normal 0.245471 0 0.969404
    outer loop
      vertex 46.4359 10.5 7.80214
      vertex 47.2018 4 7.6082
      vertex 47.2018 10.5 7.6082
    endloop
  endfacet
  facet normal 0.245471 0 0.969404
    outer loop
      vertex 47.2018 4 7.6082
      vertex 46.4359 10.5 7.80214
      vertex 46.4359 4 7.80214
    endloop
  endfacet
  facet normal -0.082572 0 0.996585
    outer loop
      vertex 47.2018 10.5 7.6082
      vertex 47.9892 4 7.67344
      vertex 47.9892 10.5 7.67344
    endloop
  endfacet
  facet normal -0.082572 0 0.996585
    outer loop
      vertex 47.9892 4 7.67344
      vertex 47.2018 10.5 7.6082
      vertex 47.2018 4 7.6082
    endloop
  endfacet
  facet normal 0.546953 0 0.837163
    outer loop
      vertex 45.7745 10.5 8.23426
      vertex 46.4359 4 7.80214
      vertex 46.4359 10.5 7.80214
    endloop
  endfacet
  facet normal 0.546953 0 0.837163
    outer loop
      vertex 46.4359 4 7.80214
      vertex 45.7745 10.5 8.23426
      vertex 45.7745 4 8.23426
    endloop
  endfacet
  facet normal 0.945789 -0 0.324781
    outer loop
      vertex 45.0327 4 9.60497
      vertex 45.2893 10.5 8.85773
      vertex 45.0327 10.5 9.60497
    endloop
  endfacet
  facet normal 0.945789 0 0.324781
    outer loop
      vertex 45.2893 10.5 8.85773
      vertex 45.0327 4 9.60497
      vertex 45.2893 4 8.85773
    endloop
  endfacet
  facet normal -0.0825217 0 -0.996589
    outer loop
      vertex 47.2018 4 12.3918
      vertex 47.9892 10.5 12.3266
      vertex 47.9892 4 12.3266
    endloop
  endfacet
  facet normal -0.0825217 0 -0.996589
    outer loop
      vertex 47.9892 10.5 12.3266
      vertex 47.2018 4 12.3918
      vertex 47.2018 10.5 12.3918
    endloop
  endfacet
  facet normal 0.245423 0 -0.969416
    outer loop
      vertex 46.4359 4 12.1979
      vertex 47.2018 10.5 12.3918
      vertex 47.2018 4 12.3918
    endloop
  endfacet
  facet normal 0.245423 0 -0.969416
    outer loop
      vertex 47.2018 10.5 12.3918
      vertex 46.4359 4 12.1979
      vertex 46.4359 10.5 12.1979
    endloop
  endfacet
  facet normal 0.789181 -0 0.614161
    outer loop
      vertex 45.2893 4 8.85773
      vertex 45.7745 10.5 8.23426
      vertex 45.2893 10.5 8.85773
    endloop
  endfacet
  facet normal 0.789181 0 0.614161
    outer loop
      vertex 45.7745 10.5 8.23426
      vertex 45.2893 4 8.85773
      vertex 45.7745 4 8.23426
    endloop
  endfacet
  facet normal -0.98637 0 -0.164543
    outer loop
      vertex 19.8 4 10
      vertex 19.67 10.5 10.7793
      vertex 19.8 10.5 10
    endloop
  endfacet
  facet normal -0.98637 -0 -0.164543
    outer loop
      vertex 19.67 10.5 10.7793
      vertex 19.8 4 10
      vertex 19.67 4 10.7793
    endloop
  endfacet
  facet normal -0.879424 0 -0.476038
    outer loop
      vertex 19.67 4 10.7793
      vertex 19.2939 10.5 11.4741
      vertex 19.67 10.5 10.7793
    endloop
  endfacet
  facet normal -0.879424 -0 -0.476038
    outer loop
      vertex 19.2939 10.5 11.4741
      vertex 19.67 4 10.7793
      vertex 19.2939 4 11.4741
    endloop
  endfacet
  facet normal 1 0 0
    outer loop
      vertex 15.0327 10 10.395
      vertex 15.0327 4 10.395
      vertex 15.0327 10 10.3672
    endloop
  endfacet
  facet normal 1 -0 0
    outer loop
      vertex 15.0327 10 10.3672
      vertex 15.0327 10.5 9.60497
      vertex 15.0327 10.5 10.3672
    endloop
  endfacet
  facet normal 1 0 0
    outer loop
      vertex 15.0327 4 9.60497
      vertex 15.0327 10 10.3672
      vertex 15.0327 4 10.395
    endloop
  endfacet
  facet normal 1 0 0
    outer loop
      vertex 15.0327 10 10.3672
      vertex 15.0327 4 9.60497
      vertex 15.0327 10.5 9.60497
    endloop
  endfacet
  facet normal -0.677328 0 -0.735681
    outer loop
      vertex 18.7127 4 12.0092
      vertex 19.2939 10.5 11.4741
      vertex 19.2939 4 11.4741
    endloop
  endfacet
  facet normal -0.677328 0 -0.735681
    outer loop
      vertex 19.2939 10.5 11.4741
      vertex 18.7127 4 12.0092
      vertex 18.7127 10.5 12.0092
    endloop
  endfacet
  facet normal 0.789148 0 -0.614203
    outer loop
      vertex 15.7745 4 11.7657
      vertex 15.2893 10 11.1423
      vertex 15.7745 10 11.7657
    endloop
  endfacet
  facet normal 0.789148 0 -0.614203
    outer loop
      vertex 15.2893 10 11.1423
      vertex 15.7745 4 11.7657
      vertex 15.2893 4 11.1423
    endloop
  endfacet
  facet normal 0 1 0
    outer loop
      vertex 17.9892 4 12.3266
      vertex 16.4359 4 12.1979
      vertex 17.2018 4 12.3918
    endloop
  endfacet
  facet normal 0 1 0
    outer loop
      vertex 18.7127 4 12.0092
      vertex 16.4359 4 12.1979
      vertex 17.9892 4 12.3266
    endloop
  endfacet
  facet normal 0 1 0
    outer loop
      vertex 18.7127 4 12.0092
      vertex 15.7745 4 11.7657
      vertex 16.4359 4 12.1979
    endloop
  endfacet
  facet normal 0 1 0
    outer loop
      vertex 19.2939 4 11.4741
      vertex 15.7745 4 11.7657
      vertex 18.7127 4 12.0092
    endloop
  endfacet
  facet normal 0 1 0
    outer loop
      vertex 19.2939 4 11.4741
      vertex 15.2893 4 11.1423
      vertex 15.7745 4 11.7657
    endloop
  endfacet
  facet normal 0 1 0
    outer loop
      vertex 19.67 4 10.7793
      vertex 15.2893 4 11.1423
      vertex 19.2939 4 11.4741
    endloop
  endfacet
  facet normal 0 1 0
    outer loop
      vertex 19.67 4 10.7793
      vertex 15.0327 4 10.395
      vertex 15.2893 4 11.1423
    endloop
  endfacet
  facet normal 0 1 0
    outer loop
      vertex 19.8 4 10
      vertex 15.0327 4 10.395
      vertex 19.67 4 10.7793
    endloop
  endfacet
  facet normal 0 1 0
    outer loop
      vertex 19.8 4 10
      vertex 15.0327 4 9.60497
      vertex 15.0327 4 10.395
    endloop
  endfacet
  facet normal 0 1 -0
    outer loop
      vertex 19.67 4 9.22072
      vertex 15.0327 4 9.60497
      vertex 19.8 4 10
    endloop
  endfacet
  facet normal 0 1 0
    outer loop
      vertex 19.67 4 9.22072
      vertex 15.2893 4 8.85773
      vertex 15.0327 4 9.60497
    endloop
  endfacet
  facet normal 0 1 -0
    outer loop
      vertex 19.2939 4 8.52589
      vertex 15.2893 4 8.85773
      vertex 19.67 4 9.22072
    endloop
  endfacet
  facet normal 0 1 0
    outer loop
      vertex 19.2939 4 8.52589
      vertex 15.7745 4 8.23426
      vertex 15.2893 4 8.85773
    endloop
  endfacet
  facet normal 0 1 -0
    outer loop
      vertex 18.7127 4 7.9908
      vertex 15.7745 4 8.23426
      vertex 19.2939 4 8.52589
    endloop
  endfacet
  facet normal 0 1 0
    outer loop
      vertex 18.7127 4 7.9908
      vertex 16.4359 4 7.80214
      vertex 15.7745 4 8.23426
    endloop
  endfacet
  facet normal 0 1 -0
    outer loop
      vertex 17.9892 4 7.67344
      vertex 16.4359 4 7.80214
      vertex 18.7127 4 7.9908
    endloop
  endfacet
  facet normal 0 1 0
    outer loop
      vertex 16.4359 4 7.80214
      vertex 17.9892 4 7.67344
      vertex 17.2018 4 7.6082
    endloop
  endfacet
  facet normal 0.546998 0 -0.837134
    outer loop
      vertex 16.4359 4 12.1979
      vertex 15.8799 10 11.8346
      vertex 16.4359 10.5 12.1979
    endloop
  endfacet
  facet normal 0.547024 3.49748e-06 -0.837117
    outer loop
      vertex 15.7745 4 11.7657
      vertex 15.8799 10 11.8346
      vertex 16.4359 4 12.1979
    endloop
  endfacet
  facet normal 0.547164 0 -0.837026
    outer loop
      vertex 15.8799 10 11.8346
      vertex 15.7745 4 11.7657
      vertex 15.7745 10 11.7657
    endloop
  endfacet
  facet normal 0.546998 0 -0.837134
    outer loop
      vertex 16.4359 10.5 12.1979
      vertex 15.8799 10 11.8346
      vertex 15.8799 10.5 11.8346
    endloop
  endfacet
  facet normal -0.401699 0 0.915772
    outer loop
      vertex 17.9892 10.5 7.67344
      vertex 18.7127 4 7.9908
      vertex 18.7127 10.5 7.9908
    endloop
  endfacet
  facet normal -0.401699 0 0.915772
    outer loop
      vertex 18.7127 4 7.9908
      vertex 17.9892 10.5 7.67344
      vertex 17.9892 4 7.67344
    endloop
  endfacet
  facet normal -0.401742 0 -0.915753
    outer loop
      vertex 17.9892 4 12.3266
      vertex 18.7127 10.5 12.0092
      vertex 18.7127 4 12.0092
    endloop
  endfacet
  facet normal -0.401742 0 -0.915753
    outer loop
      vertex 18.7127 10.5 12.0092
      vertex 17.9892 4 12.3266
      vertex 17.9892 10.5 12.3266
    endloop
  endfacet
  facet normal 0.945797 0 -0.324758
    outer loop
      vertex 15.2893 4 11.1423
      vertex 15.0327 10 10.395
      vertex 15.2893 10 11.1423
    endloop
  endfacet
  facet normal 0.945797 0 -0.324758
    outer loop
      vertex 15.0327 10 10.395
      vertex 15.2893 4 11.1423
      vertex 15.0327 4 10.395
    endloop
  endfacet
  facet normal -0.677321 0 0.735688
    outer loop
      vertex 18.7127 10.5 7.9908
      vertex 19.2939 4 8.52589
      vertex 19.2939 10.5 8.52589
    endloop
  endfacet
  facet normal -0.677321 0 0.735688
    outer loop
      vertex 19.2939 4 8.52589
      vertex 18.7127 10.5 7.9908
      vertex 18.7127 4 7.9908
    endloop
  endfacet
  facet normal -0.879433 0 0.476023
    outer loop
      vertex 19.2939 4 8.52589
      vertex 19.67 10.5 9.22072
      vertex 19.2939 10.5 8.52589
    endloop
  endfacet
  facet normal -0.879433 0 0.476023
    outer loop
      vertex 19.67 10.5 9.22072
      vertex 19.2939 4 8.52589
      vertex 19.67 4 9.22072
    endloop
  endfacet
  facet normal -0.986369 0 0.164547
    outer loop
      vertex 19.67 4 9.22072
      vertex 19.8 10.5 10
      vertex 19.67 10.5 9.22072
    endloop
  endfacet
  facet normal -0.986369 0 0.164547
    outer loop
      vertex 19.8 10.5 10
      vertex 19.67 4 9.22072
      vertex 19.8 4 10
    endloop
  endfacet
  facet normal 0.245471 0 0.969404
    outer loop
      vertex 16.4359 10.5 7.80214
      vertex 17.2018 4 7.6082
      vertex 17.2018 10.5 7.6082
    endloop
  endfacet
  facet normal 0.245471 0 0.969404
    outer loop
      vertex 17.2018 4 7.6082
      vertex 16.4359 10.5 7.80214
      vertex 16.4359 4 7.80214
    endloop
  endfacet
  facet normal -0.082572 0 0.996585
    outer loop
      vertex 17.2018 10.5 7.6082
      vertex 17.9892 4 7.67344
      vertex 17.9892 10.5 7.67344
    endloop
  endfacet
  facet normal -0.082572 0 0.996585
    outer loop
      vertex 17.9892 4 7.67344
      vertex 17.2018 10.5 7.6082
      vertex 17.2018 4 7.6082
    endloop
  endfacet
  facet normal 0.546953 0 0.837163
    outer loop
      vertex 15.7745 10.5 8.23426
      vertex 16.4359 4 7.80214
      vertex 16.4359 10.5 7.80214
    endloop
  endfacet
  facet normal 0.546953 0 0.837163
    outer loop
      vertex 16.4359 4 7.80214
      vertex 15.7745 10.5 8.23426
      vertex 15.7745 4 8.23426
    endloop
  endfacet
  facet normal 0.945789 -0 0.324781
    outer loop
      vertex 15.0327 4 9.60497
      vertex 15.2893 10.5 8.85773
      vertex 15.0327 10.5 9.60497
    endloop
  endfacet
  facet normal 0.945789 0 0.324781
    outer loop
      vertex 15.2893 10.5 8.85773
      vertex 15.0327 4 9.60497
      vertex 15.2893 4 8.85773
    endloop
  endfacet
  facet normal -0.0825217 0 -0.996589
    outer loop
      vertex 17.2018 4 12.3918
      vertex 17.9892 10.5 12.3266
      vertex 17.9892 4 12.3266
    endloop
  endfacet
  facet normal -0.0825217 0 -0.996589
    outer loop
      vertex 17.9892 10.5 12.3266
      vertex 17.2018 4 12.3918
      vertex 17.2018 10.5 12.3918
    endloop
  endfacet
  facet normal 0.245423 0 -0.969416
    outer loop
      vertex 16.4359 4 12.1979
      vertex 17.2018 10.5 12.3918
      vertex 17.2018 4 12.3918
    endloop
  endfacet
  facet normal 0.245423 0 -0.969416
    outer loop
      vertex 17.2018 10.5 12.3918
      vertex 16.4359 4 12.1979
      vertex 16.4359 10.5 12.1979
    endloop
  endfacet
  facet normal 0.789181 -0 0.614161
    outer loop
      vertex 15.2893 4 8.85773
      vertex 15.7745 10.5 8.23426
      vertex 15.2893 10.5 8.85773
    endloop
  endfacet
  facet normal 0.789181 0 0.614161
    outer loop
      vertex 15.7745 10.5 8.23426
      vertex 15.2893 4 8.85773
      vertex 15.7745 4 8.23426
    endloop
  endfacet
  facet normal -1 0 0
    outer loop
      vertex -25 52.5 6
      vertex -25 59.5 14
      vertex -25 59.5 6
    endloop
  endfacet
  facet normal -1 -0 0
    outer loop
      vertex -25 59.5 14
      vertex -25 52.5 6
      vertex -25 52.5 14
    endloop
  endfacet
  facet normal 1 -0 0
    outer loop
      vertex 55 52.5 14
      vertex 55 59.5 6
      vertex 55 59.5 14
    endloop
  endfacet
  facet normal 1 0 0
    outer loop
      vertex 55 59.5 6
      vertex 55 52.5 14
      vertex 55 52.5 6
    endloop
  endfacet
  facet normal 0 -1 0
    outer loop
      vertex -25 52.5 6
      vertex -24.5 52.5 14
      vertex -25 52.5 14
    endloop
  endfacet
  facet normal 0 -1 -0
    outer loop
      vertex -24.5 52.5 14
      vertex -25 52.5 6
      vertex -24.5 52.5 6
    endloop
  endfacet
  facet normal 0 -1 0
    outer loop
      vertex 54.5 52.5 6
      vertex 55 52.5 14
      vertex 54.5 52.5 14
    endloop
  endfacet
  facet normal 0 -1 -0
    outer loop
      vertex 55 52.5 14
      vertex 54.5 52.5 6
      vertex 55 52.5 6
    endloop
  endfacet
  facet normal 0 -1 0
    outer loop
      vertex 11.8359 52.5 12.1979
      vertex -21.5 52.5 14
      vertex -16.6108 52.5 12.3266
    endloop
  endfacet
  facet normal 0 -1 0
    outer loop
      vertex -21.5 52.5 14
      vertex 11.8359 52.5 12.1979
      vertex 12.6018 52.5 12.3918
    endloop
  endfacet
  facet normal 0 -1 0
    outer loop
      vertex -15.8873 52.5 12.0092
      vertex 11.8359 52.5 12.1979
      vertex -16.6108 52.5 12.3266
    endloop
  endfacet
  facet normal 0 -1 0
    outer loop
      vertex -15.8873 52.5 12.0092
      vertex 11.1745 52.5 11.7657
      vertex 11.8359 52.5 12.1979
    endloop
  endfacet
  facet normal 0 -1 0
    outer loop
      vertex -15.3061 52.5 11.4741
      vertex 11.1745 52.5 11.7657
      vertex -15.8873 52.5 12.0092
    endloop
  endfacet
  facet normal 0 -1 0
    outer loop
      vertex -15.3061 52.5 11.4741
      vertex 10.6893 52.5 11.1423
      vertex 11.1745 52.5 11.7657
    endloop
  endfacet
  facet normal 0 -1 0
    outer loop
      vertex -14.93 52.5 10.7793
      vertex 10.6893 52.5 11.1423
      vertex -15.3061 52.5 11.4741
    endloop
  endfacet
  facet normal 0 -1 0
    outer loop
      vertex -14.93 52.5 10.7793
      vertex 10.4327 52.5 10.395
      vertex 10.6893 52.5 11.1423
    endloop
  endfacet
  facet normal 0 -1 0
    outer loop
      vertex -14.8 52.5 10
      vertex 10.4327 52.5 10.395
      vertex -14.93 52.5 10.7793
    endloop
  endfacet
  facet normal 0 -1 0
    outer loop
      vertex -14.8 52.5 10
      vertex 10.4327 52.5 9.60497
      vertex 10.4327 52.5 10.395
    endloop
  endfacet
  facet normal 0 -1 0
    outer loop
      vertex -14.93 52.5 9.22072
      vertex 10.4327 52.5 9.60497
      vertex -14.8 52.5 10
    endloop
  endfacet
  facet normal 0 -1 0
    outer loop
      vertex -14.93 52.5 9.22072
      vertex 10.6893 52.5 8.85773
      vertex 10.4327 52.5 9.60497
    endloop
  endfacet
  facet normal 0 -1 0
    outer loop
      vertex -15.3061 52.5 8.52589
      vertex 10.6893 52.5 8.85773
      vertex -14.93 52.5 9.22072
    endloop
  endfacet
  facet normal 0 -1 0
    outer loop
      vertex -15.3061 52.5 8.52589
      vertex 11.1745 52.5 8.23426
      vertex 10.6893 52.5 8.85773
    endloop
  endfacet
  facet normal 0 -1 0
    outer loop
      vertex -15.8873 52.5 7.9908
      vertex 11.1745 52.5 8.23426
      vertex -15.3061 52.5 8.52589
    endloop
  endfacet
  facet normal 0 -1 0
    outer loop
      vertex -15.8873 52.5 7.9908
      vertex 11.8359 52.5 7.80214
      vertex 11.1745 52.5 8.23426
    endloop
  endfacet
  facet normal 0 -1 0
    outer loop
      vertex -16.6108 52.5 7.67344
      vertex 11.8359 52.5 7.80214
      vertex -15.8873 52.5 7.9908
    endloop
  endfacet
  facet normal 0 -1 0
    outer loop
      vertex -21.5 52.5 6
      vertex -16.6108 52.5 7.67344
      vertex -17.3982 52.5 7.6082
    endloop
  endfacet
  facet normal 0 -1 -0
    outer loop
      vertex -16.6108 52.5 7.67344
      vertex -21.5 52.5 6
      vertex 11.8359 52.5 7.80214
    endloop
  endfacet
  facet normal 0 -1 0
    outer loop
      vertex 16.9655 52.5 13.9061
      vertex 43.9345 52.5 12.1561
      vertex 46.9655 52.5 13.9061
    endloop
  endfacet
  facet normal 0 -1 0
    outer loop
      vertex 20.4655 52.5 7.84391
      vertex 43.9345 52.5 12.1561
      vertex 16.9655 52.5 13.9061
    endloop
  endfacet
  facet normal 0 -1 0
    outer loop
      vertex 47.4345 52.5 6.09391
      vertex 20.4655 52.5 7.84391
      vertex 17.4345 52.5 6.09391
    endloop
  endfacet
  facet normal 0 -1 0
    outer loop
      vertex 20.4655 52.5 7.84391
      vertex 47.4345 52.5 6.09391
      vertex 43.9345 52.5 12.1561
    endloop
  endfacet
  facet normal 0 -1 0
    outer loop
      vertex -21.5 52.5 14
      vertex 16.9655 52.5 13.9061
      vertex 51.5 52.5 14
    endloop
  endfacet
  facet normal 0 -1 0
    outer loop
      vertex -16.6108 52.5 12.3266
      vertex -21.5 52.5 14
      vertex -17.3982 52.5 12.3918
    endloop
  endfacet
  facet normal 0 -1 0
    outer loop
      vertex -21.5 52.5 14
      vertex -18.1641 52.5 12.1979
      vertex -17.3982 52.5 12.3918
    endloop
  endfacet
  facet normal 0 -1 0
    outer loop
      vertex -21.5 52.5 14
      vertex -18.8255 52.5 11.7657
      vertex -18.1641 52.5 12.1979
    endloop
  endfacet
  facet normal 0 -1 0
    outer loop
      vertex -21.5 52.5 14
      vertex -19.3107 52.5 11.1423
      vertex -18.8255 52.5 11.7657
    endloop
  endfacet
  facet normal 0 -1 0
    outer loop
      vertex -21.5 52.5 14
      vertex -19.5673 52.5 10.395
      vertex -19.3107 52.5 11.1423
    endloop
  endfacet
  facet normal 0 -1 0
    outer loop
      vertex -21.5 52.5 14
      vertex -19.5673 52.5 9.60497
      vertex -19.5673 52.5 10.395
    endloop
  endfacet
  facet normal 0 -1 0
    outer loop
      vertex -21.5 52.5 6
      vertex -19.5673 52.5 9.60497
      vertex -21.5 52.5 14
    endloop
  endfacet
  facet normal 0 -1 -0
    outer loop
      vertex 11.8359 52.5 7.80214
      vertex -21.5 52.5 6
      vertex 12.6018 52.5 7.6082
    endloop
  endfacet
  facet normal 0 -1 0
    outer loop
      vertex 51.5 52.5 6
      vertex 17.4345 52.5 6.09391
      vertex -21.5 52.5 6
    endloop
  endfacet
  facet normal 0 -1 -0
    outer loop
      vertex 12.6018 52.5 7.6082
      vertex -21.5 52.5 6
      vertex 17.4345 52.5 6.09391
    endloop
  endfacet
  facet normal 0 -1 -0
    outer loop
      vertex -18.1641 52.5 7.80214
      vertex -21.5 52.5 6
      vertex -17.3982 52.5 7.6082
    endloop
  endfacet
  facet normal 0 -1 -0
    outer loop
      vertex -18.8255 52.5 8.23426
      vertex -21.5 52.5 6
      vertex -18.1641 52.5 7.80214
    endloop
  endfacet
  facet normal 0 -1 -0
    outer loop
      vertex -19.3107 52.5 8.85773
      vertex -21.5 52.5 6
      vertex -18.8255 52.5 8.23426
    endloop
  endfacet
  facet normal 0 -1 -0
    outer loop
      vertex -19.5673 52.5 9.60497
      vertex -21.5 52.5 6
      vertex -19.3107 52.5 8.85773
    endloop
  endfacet
  facet normal 0 -1 0
    outer loop
      vertex 46.9655 52.5 13.9061
      vertex 51.5 52.5 14
      vertex 16.9655 52.5 13.9061
    endloop
  endfacet
  facet normal 0 -1 0
    outer loop
      vertex 50.4655 52.5 7.84391
      vertex 51.5 52.5 14
      vertex 46.9655 52.5 13.9061
    endloop
  endfacet
  facet normal 0 -1 0
    outer loop
      vertex 50.4655 52.5 7.84391
      vertex 51.5 52.5 6
      vertex 51.5 52.5 14
    endloop
  endfacet
  facet normal 0 -1 0
    outer loop
      vertex 47.4345 52.5 6.09391
      vertex 51.5 52.5 6
      vertex 50.4655 52.5 7.84391
    endloop
  endfacet
  facet normal 0 -1 0
    outer loop
      vertex 17.4345 52.5 6.09391
      vertex 51.5 52.5 6
      vertex 47.4345 52.5 6.09391
    endloop
  endfacet
  facet normal 0 -1 0
    outer loop
      vertex -21.5 52.5 14
      vertex 12.6018 52.5 12.3918
      vertex 16.9655 52.5 13.9061
    endloop
  endfacet
  facet normal 0 -1 0
    outer loop
      vertex 13.3892 52.5 12.3266
      vertex 16.9655 52.5 13.9061
      vertex 12.6018 52.5 12.3918
    endloop
  endfacet
  facet normal 0 -1 0
    outer loop
      vertex 13.3892 52.5 12.3266
      vertex 13.9345 52.5 12.1561
      vertex 16.9655 52.5 13.9061
    endloop
  endfacet
  facet normal -0 -1 -0
    outer loop
      vertex 13.9345 52.5 12.1561
      vertex 13.3892 52.5 12.3266
      vertex 13.9876 52.5 12.0641
    endloop
  endfacet
  facet normal 0 -1 0
    outer loop
      vertex 15.07 52.5 9.22072
      vertex 17.4345 52.5 6.09391
      vertex 15.1954 52.5 9.97215
    endloop
  endfacet
  facet normal 0 -1 0
    outer loop
      vertex 14.6939 52.5 8.52589
      vertex 17.4345 52.5 6.09391
      vertex 15.07 52.5 9.22072
    endloop
  endfacet
  facet normal 0 -1 0
    outer loop
      vertex 14.1127 52.5 7.9908
      vertex 17.4345 52.5 6.09391
      vertex 14.6939 52.5 8.52589
    endloop
  endfacet
  facet normal 0 -1 0
    outer loop
      vertex 13.3892 52.5 7.67344
      vertex 17.4345 52.5 6.09391
      vertex 14.1127 52.5 7.9908
    endloop
  endfacet
  facet normal 0 -1 0
    outer loop
      vertex 17.4345 52.5 6.09391
      vertex 13.3892 52.5 7.67344
      vertex 12.6018 52.5 7.6082
    endloop
  endfacet
  facet normal 0 -1 0
    outer loop
      vertex 15.4505 52.5 11.5303
      vertex 18.9495 52.5 8.46974
      vertex 16.7495 52.5 12.2803
    endloop
  endfacet
  facet normal -0 -1 0
    outer loop
      vertex 18.9495 52.5 8.46974
      vertex 15.4505 52.5 11.5303
      vertex 17.6505 52.5 7.71974
    endloop
  endfacet
  facet normal 0 -1 0
    outer loop
      vertex 45.4505 52.5 11.5303
      vertex 48.9495 52.5 8.46974
      vertex 46.7495 52.5 12.2803
    endloop
  endfacet
  facet normal -0 -1 0
    outer loop
      vertex 48.9495 52.5 8.46974
      vertex 45.4505 52.5 11.5303
      vertex 47.6505 52.5 7.71974
    endloop
  endfacet
  facet normal 0 1 0
    outer loop
      vertex -25 59.5 14
      vertex -16.6108 59.5 12.3266
      vertex -17.3982 59.5 12.3918
    endloop
  endfacet
  facet normal 0 1 -0
    outer loop
      vertex 11.8359 59.5 12.1979
      vertex -16.6108 59.5 12.3266
      vertex 12.6018 59.5 12.3918
    endloop
  endfacet
  facet normal 0 1 0
    outer loop
      vertex 11.8359 59.5 12.1979
      vertex -15.8873 59.5 12.0092
      vertex -16.6108 59.5 12.3266
    endloop
  endfacet
  facet normal 0 1 -0
    outer loop
      vertex 11.1745 59.5 11.7657
      vertex -15.8873 59.5 12.0092
      vertex 11.8359 59.5 12.1979
    endloop
  endfacet
  facet normal 0 1 0
    outer loop
      vertex 11.1745 59.5 11.7657
      vertex -15.3061 59.5 11.4741
      vertex -15.8873 59.5 12.0092
    endloop
  endfacet
  facet normal 0 1 -0
    outer loop
      vertex 10.6893 59.5 11.1423
      vertex -15.3061 59.5 11.4741
      vertex 11.1745 59.5 11.7657
    endloop
  endfacet
  facet normal 0 1 0
    outer loop
      vertex 10.6893 59.5 11.1423
      vertex -14.93 59.5 10.7793
      vertex -15.3061 59.5 11.4741
    endloop
  endfacet
  facet normal 0 1 -0
    outer loop
      vertex 10.4327 59.5 10.395
      vertex -14.93 59.5 10.7793
      vertex 10.6893 59.5 11.1423
    endloop
  endfacet
  facet normal 0 1 0
    outer loop
      vertex 10.4327 59.5 10.395
      vertex -14.8 59.5 10
      vertex -14.93 59.5 10.7793
    endloop
  endfacet
  facet normal 0 1 -0
    outer loop
      vertex 10.4327 59.5 9.60497
      vertex -14.8 59.5 10
      vertex 10.4327 59.5 10.395
    endloop
  endfacet
  facet normal 0 1 0
    outer loop
      vertex 10.4327 59.5 9.60497
      vertex -14.93 59.5 9.22072
      vertex -14.8 59.5 10
    endloop
  endfacet
  facet normal 0 1 0
    outer loop
      vertex 10.6893 59.5 8.85773
      vertex -14.93 59.5 9.22072
      vertex 10.4327 59.5 9.60497
    endloop
  endfacet
  facet normal 0 1 0
    outer loop
      vertex 10.6893 59.5 8.85773
      vertex -15.3061 59.5 8.52589
      vertex -14.93 59.5 9.22072
    endloop
  endfacet
  facet normal 0 1 0
    outer loop
      vertex 11.1745 59.5 8.23426
      vertex -15.3061 59.5 8.52589
      vertex 10.6893 59.5 8.85773
    endloop
  endfacet
  facet normal 0 1 0
    outer loop
      vertex 11.1745 59.5 8.23426
      vertex -15.8873 59.5 7.9908
      vertex -15.3061 59.5 8.52589
    endloop
  endfacet
  facet normal 0 1 0
    outer loop
      vertex 11.8359 59.5 7.80214
      vertex -15.8873 59.5 7.9908
      vertex 11.1745 59.5 8.23426
    endloop
  endfacet
  facet normal 0 1 0
    outer loop
      vertex 11.8359 59.5 7.80214
      vertex -16.6108 59.5 7.67344
      vertex -15.8873 59.5 7.9908
    endloop
  endfacet
  facet normal 0 1 0
    outer loop
      vertex 12.6018 59.5 7.6082
      vertex -16.6108 59.5 7.67344
      vertex 11.8359 59.5 7.80214
    endloop
  endfacet
  facet normal 0 1 0
    outer loop
      vertex -25 59.5 6
      vertex -16.6108 59.5 7.67344
      vertex 12.6018 59.5 7.6082
    endloop
  endfacet
  facet normal 0 1 0
    outer loop
      vertex 55 59.5 14
      vertex 12.6018 59.5 12.3918
      vertex -25 59.5 14
    endloop
  endfacet
  facet normal 0 1 0
    outer loop
      vertex 55 59.5 14
      vertex 13.3892 59.5 12.3266
      vertex 12.6018 59.5 12.3918
    endloop
  endfacet
  facet normal 0 1 0
    outer loop
      vertex 55 59.5 14
      vertex 14.1127 59.5 12.0092
      vertex 13.3892 59.5 12.3266
    endloop
  endfacet
  facet normal 0 1 0
    outer loop
      vertex 55 59.5 14
      vertex 14.6939 59.5 11.4741
      vertex 14.1127 59.5 12.0092
    endloop
  endfacet
  facet normal 0 1 0
    outer loop
      vertex 55 59.5 14
      vertex 15.07 59.5 10.7793
      vertex 14.6939 59.5 11.4741
    endloop
  endfacet
  facet normal 0 1 0
    outer loop
      vertex 55 59.5 14
      vertex 15.2 59.5 10
      vertex 15.07 59.5 10.7793
    endloop
  endfacet
  facet normal 0 1 -0
    outer loop
      vertex 55 59.5 6
      vertex 15.2 59.5 10
      vertex 55 59.5 14
    endloop
  endfacet
  facet normal 0 1 0
    outer loop
      vertex 15.2 59.5 10
      vertex 55 59.5 6
      vertex 15.07 59.5 9.22072
    endloop
  endfacet
  facet normal 0 1 0
    outer loop
      vertex 15.07 59.5 9.22072
      vertex 55 59.5 6
      vertex 14.6939 59.5 8.52589
    endloop
  endfacet
  facet normal 0 1 0
    outer loop
      vertex 14.6939 59.5 8.52589
      vertex 55 59.5 6
      vertex 14.1127 59.5 7.9908
    endloop
  endfacet
  facet normal 0 1 0
    outer loop
      vertex -25 59.5 6
      vertex 12.6018 59.5 7.6082
      vertex 55 59.5 6
    endloop
  endfacet
  facet normal 0 1 0
    outer loop
      vertex 13.3892 59.5 7.67344
      vertex 55 59.5 6
      vertex 12.6018 59.5 7.6082
    endloop
  endfacet
  facet normal 0 1 0
    outer loop
      vertex 14.1127 59.5 7.9908
      vertex 55 59.5 6
      vertex 13.3892 59.5 7.67344
    endloop
  endfacet
  facet normal 0 1 -0
    outer loop
      vertex -16.6108 59.5 12.3266
      vertex -25 59.5 14
      vertex 12.6018 59.5 12.3918
    endloop
  endfacet
  facet normal 0 1 -0
    outer loop
      vertex -18.1641 59.5 12.1979
      vertex -25 59.5 14
      vertex -17.3982 59.5 12.3918
    endloop
  endfacet
  facet normal 0 1 -0
    outer loop
      vertex -18.8255 59.5 11.7657
      vertex -25 59.5 14
      vertex -18.1641 59.5 12.1979
    endloop
  endfacet
  facet normal 0 1 -0
    outer loop
      vertex -19.3107 59.5 11.1423
      vertex -25 59.5 14
      vertex -18.8255 59.5 11.7657
    endloop
  endfacet
  facet normal 0 1 -0
    outer loop
      vertex -19.5673 59.5 10.395
      vertex -25 59.5 14
      vertex -19.3107 59.5 11.1423
    endloop
  endfacet
  facet normal 0 1 -0
    outer loop
      vertex -19.5673 59.5 9.60497
      vertex -25 59.5 14
      vertex -19.5673 59.5 10.395
    endloop
  endfacet
  facet normal 0 1 0
    outer loop
      vertex -25 59.5 6
      vertex -19.5673 59.5 9.60497
      vertex -19.3107 59.5 8.85773
    endloop
  endfacet
  facet normal 0 1 0
    outer loop
      vertex -25 59.5 6
      vertex -19.3107 59.5 8.85773
      vertex -18.8255 59.5 8.23426
    endloop
  endfacet
  facet normal 0 1 0
    outer loop
      vertex -19.5673 59.5 9.60497
      vertex -25 59.5 6
      vertex -25 59.5 14
    endloop
  endfacet
  facet normal 0 1 0
    outer loop
      vertex -18.1641 59.5 7.80214
      vertex -25 59.5 6
      vertex -18.8255 59.5 8.23426
    endloop
  endfacet
  facet normal 0 1 0
    outer loop
      vertex -17.3982 59.5 7.6082
      vertex -25 59.5 6
      vertex -18.1641 59.5 7.80214
    endloop
  endfacet
  facet normal 0 1 0
    outer loop
      vertex -16.6108 59.5 7.67344
      vertex -25 59.5 6
      vertex -17.3982 59.5 7.6082
    endloop
  endfacet
  facet normal -0.98637 0 -0.164543
    outer loop
      vertex -14.8 52.5 10
      vertex -14.93 59.5 10.7793
      vertex -14.8 59.5 10
    endloop
  endfacet
  facet normal -0.98637 -0 -0.164543
    outer loop
      vertex -14.93 59.5 10.7793
      vertex -14.8 52.5 10
      vertex -14.93 52.5 10.7793
    endloop
  endfacet
  facet normal 1 -0 0
    outer loop
      vertex -19.5673 52.5 10.395
      vertex -19.5673 59.5 9.60497
      vertex -19.5673 59.5 10.395
    endloop
  endfacet
  facet normal 1 0 0
    outer loop
      vertex -19.5673 59.5 9.60497
      vertex -19.5673 52.5 10.395
      vertex -19.5673 52.5 9.60497
    endloop
  endfacet
  facet normal -0.401699 0 0.915772
    outer loop
      vertex -16.6108 59.5 7.67344
      vertex -15.8873 52.5 7.9908
      vertex -15.8873 59.5 7.9908
    endloop
  endfacet
  facet normal -0.401699 0 0.915772
    outer loop
      vertex -15.8873 52.5 7.9908
      vertex -16.6108 59.5 7.67344
      vertex -16.6108 52.5 7.67344
    endloop
  endfacet
  facet normal -0.082572 0 0.996585
    outer loop
      vertex -17.3982 59.5 7.6082
      vertex -16.6108 52.5 7.67344
      vertex -16.6108 59.5 7.67344
    endloop
  endfacet
  facet normal -0.082572 0 0.996585
    outer loop
      vertex -16.6108 52.5 7.67344
      vertex -17.3982 59.5 7.6082
      vertex -17.3982 52.5 7.6082
    endloop
  endfacet
  facet normal -0.677328 0 -0.735681
    outer loop
      vertex -15.8873 52.5 12.0092
      vertex -15.3061 59.5 11.4741
      vertex -15.3061 52.5 11.4741
    endloop
  endfacet
  facet normal -0.677328 0 -0.735681
    outer loop
      vertex -15.3061 59.5 11.4741
      vertex -15.8873 52.5 12.0092
      vertex -15.8873 59.5 12.0092
    endloop
  endfacet
  facet normal -0.401742 0 -0.915753
    outer loop
      vertex -16.6108 52.5 12.3266
      vertex -15.8873 59.5 12.0092
      vertex -15.8873 52.5 12.0092
    endloop
  endfacet
  facet normal -0.401742 0 -0.915753
    outer loop
      vertex -15.8873 59.5 12.0092
      vertex -16.6108 52.5 12.3266
      vertex -16.6108 59.5 12.3266
    endloop
  endfacet
  facet normal 0.789148 0 -0.614203
    outer loop
      vertex -18.8255 52.5 11.7657
      vertex -19.3107 59.5 11.1423
      vertex -18.8255 59.5 11.7657
    endloop
  endfacet
  facet normal 0.789148 0 -0.614203
    outer loop
      vertex -19.3107 59.5 11.1423
      vertex -18.8255 52.5 11.7657
      vertex -19.3107 52.5 11.1423
    endloop
  endfacet
  facet normal -0.677321 0 0.735688
    outer loop
      vertex -15.8873 59.5 7.9908
      vertex -15.3061 52.5 8.52589
      vertex -15.3061 59.5 8.52589
    endloop
  endfacet
  facet normal -0.677321 0 0.735688
    outer loop
      vertex -15.3061 52.5 8.52589
      vertex -15.8873 59.5 7.9908
      vertex -15.8873 52.5 7.9908
    endloop
  endfacet
  facet normal -0.879424 0 -0.476038
    outer loop
      vertex -14.93 52.5 10.7793
      vertex -15.3061 59.5 11.4741
      vertex -14.93 59.5 10.7793
    endloop
  endfacet
  facet normal -0.879424 -0 -0.476038
    outer loop
      vertex -15.3061 59.5 11.4741
      vertex -14.93 52.5 10.7793
      vertex -15.3061 52.5 11.4741
    endloop
  endfacet
  facet normal 0.245423 0 -0.969416
    outer loop
      vertex -18.1641 52.5 12.1979
      vertex -17.3982 59.5 12.3918
      vertex -17.3982 52.5 12.3918
    endloop
  endfacet
  facet normal 0.245423 0 -0.969416
    outer loop
      vertex -17.3982 59.5 12.3918
      vertex -18.1641 52.5 12.1979
      vertex -18.1641 59.5 12.1979
    endloop
  endfacet
  facet normal 0.945797 0 -0.324758
    outer loop
      vertex -19.3107 52.5 11.1423
      vertex -19.5673 59.5 10.395
      vertex -19.3107 59.5 11.1423
    endloop
  endfacet
  facet normal 0.945797 0 -0.324758
    outer loop
      vertex -19.5673 59.5 10.395
      vertex -19.3107 52.5 11.1423
      vertex -19.5673 52.5 10.395
    endloop
  endfacet
  facet normal 0.547024 0 -0.837117
    outer loop
      vertex -18.8255 52.5 11.7657
      vertex -18.1641 59.5 12.1979
      vertex -18.1641 52.5 12.1979
    endloop
  endfacet
  facet normal 0.547024 0 -0.837117
    outer loop
      vertex -18.1641 59.5 12.1979
      vertex -18.8255 52.5 11.7657
      vertex -18.8255 59.5 11.7657
    endloop
  endfacet
  facet normal -0.879433 0 0.476023
    outer loop
      vertex -15.3061 52.5 8.52589
      vertex -14.93 59.5 9.22072
      vertex -15.3061 59.5 8.52589
    endloop
  endfacet
  facet normal -0.879433 0 0.476023
    outer loop
      vertex -14.93 59.5 9.22072
      vertex -15.3061 52.5 8.52589
      vertex -14.93 52.5 9.22072
    endloop
  endfacet
  facet normal -0.986369 0 0.164547
    outer loop
      vertex -14.93 52.5 9.22072
      vertex -14.8 59.5 10
      vertex -14.93 59.5 9.22072
    endloop
  endfacet
  facet normal -0.986369 0 0.164547
    outer loop
      vertex -14.8 59.5 10
      vertex -14.93 52.5 9.22072
      vertex -14.8 52.5 10
    endloop
  endfacet
  facet normal 0.245471 0 0.969404
    outer loop
      vertex -18.1641 59.5 7.80214
      vertex -17.3982 52.5 7.6082
      vertex -17.3982 59.5 7.6082
    endloop
  endfacet
  facet normal 0.245471 0 0.969404
    outer loop
      vertex -17.3982 52.5 7.6082
      vertex -18.1641 59.5 7.80214
      vertex -18.1641 52.5 7.80214
    endloop
  endfacet
  facet normal 0.546953 0 0.837163
    outer loop
      vertex -18.8255 59.5 8.23426
      vertex -18.1641 52.5 7.80214
      vertex -18.1641 59.5 7.80214
    endloop
  endfacet
  facet normal 0.546953 0 0.837163
    outer loop
      vertex -18.1641 52.5 7.80214
      vertex -18.8255 59.5 8.23426
      vertex -18.8255 52.5 8.23426
    endloop
  endfacet
  facet normal -0.0825217 0 -0.996589
    outer loop
      vertex -17.3982 52.5 12.3918
      vertex -16.6108 59.5 12.3266
      vertex -16.6108 52.5 12.3266
    endloop
  endfacet
  facet normal -0.0825217 0 -0.996589
    outer loop
      vertex -16.6108 59.5 12.3266
      vertex -17.3982 52.5 12.3918
      vertex -17.3982 59.5 12.3918
    endloop
  endfacet
  facet normal 0.945789 -0 0.324781
    outer loop
      vertex -19.5673 52.5 9.60497
      vertex -19.3107 59.5 8.85773
      vertex -19.5673 59.5 9.60497
    endloop
  endfacet
  facet normal 0.945789 0 0.324781
    outer loop
      vertex -19.3107 59.5 8.85773
      vertex -19.5673 52.5 9.60497
      vertex -19.3107 52.5 8.85773
    endloop
  endfacet
  facet normal 0.789181 -0 0.614161
    outer loop
      vertex -19.3107 52.5 8.85773
      vertex -18.8255 59.5 8.23426
      vertex -19.3107 59.5 8.85773
    endloop
  endfacet
  facet normal 0.789181 0 0.614161
    outer loop
      vertex -18.8255 59.5 8.23426
      vertex -19.3107 52.5 8.85773
      vertex -18.8255 52.5 8.23426
    endloop
  endfacet
  facet normal -0.98637 0 -0.164543
    outer loop
      vertex 15.2 53 10
      vertex 15.07 59.5 10.7793
      vertex 15.2 59.5 10
    endloop
  endfacet
  facet normal -0.98637 -0 -0.164543
    outer loop
      vertex 15.07 59.5 10.7793
      vertex 15.2 53 10
      vertex 15.07 53 10.7793
    endloop
  endfacet
  facet normal 1 -0 0
    outer loop
      vertex 10.4327 52.5 10.395
      vertex 10.4327 59.5 9.60497
      vertex 10.4327 59.5 10.395
    endloop
  endfacet
  facet normal 1 0 0
    outer loop
      vertex 10.4327 59.5 9.60497
      vertex 10.4327 52.5 10.395
      vertex 10.4327 52.5 9.60497
    endloop
  endfacet
  facet normal -0.401699 0 0.915772
    outer loop
      vertex 13.3892 59.5 7.67344
      vertex 14.1127 52.5 7.9908
      vertex 14.1127 59.5 7.9908
    endloop
  endfacet
  facet normal -0.401699 0 0.915772
    outer loop
      vertex 14.1127 52.5 7.9908
      vertex 13.3892 59.5 7.67344
      vertex 13.3892 52.5 7.67344
    endloop
  endfacet
  facet normal -0.082572 0 0.996585
    outer loop
      vertex 12.6018 59.5 7.6082
      vertex 13.3892 52.5 7.67344
      vertex 13.3892 59.5 7.67344
    endloop
  endfacet
  facet normal -0.082572 0 0.996585
    outer loop
      vertex 13.3892 52.5 7.67344
      vertex 12.6018 59.5 7.6082
      vertex 12.6018 52.5 7.6082
    endloop
  endfacet
  facet normal -0.677328 0 -0.735681
    outer loop
      vertex 14.1127 53 12.0092
      vertex 14.6939 59.5 11.4741
      vertex 14.6939 53 11.4741
    endloop
  endfacet
  facet normal -0.677328 0 -0.735681
    outer loop
      vertex 14.6939 59.5 11.4741
      vertex 14.1127 53 12.0092
      vertex 14.1127 59.5 12.0092
    endloop
  endfacet
  facet normal -0.401718 0 -0.915764
    outer loop
      vertex 13.9876 52.5 12.0641
      vertex 13.3892 52.5 12.3266
      vertex 13.9876 53 12.0641
    endloop
  endfacet
  facet normal -0.401855 0 -0.915703
    outer loop
      vertex 13.9876 53 12.0641
      vertex 14.1127 59.5 12.0092
      vertex 14.1127 53 12.0092
    endloop
  endfacet
  facet normal -0.401718 -0 -0.915764
    outer loop
      vertex 13.3892 59.5 12.3266
      vertex 13.9876 53 12.0641
      vertex 13.3892 52.5 12.3266
    endloop
  endfacet
  facet normal -0.401742 -2.61129e-06 -0.915753
    outer loop
      vertex 13.9876 53 12.0641
      vertex 13.3892 59.5 12.3266
      vertex 14.1127 59.5 12.0092
    endloop
  endfacet
  facet normal -0.677321 0 0.735688
    outer loop
      vertex 14.1127 59.5 7.9908
      vertex 14.6939 52.5 8.52589
      vertex 14.6939 59.5 8.52589
    endloop
  endfacet
  facet normal -0.677321 0 0.735688
    outer loop
      vertex 14.6939 52.5 8.52589
      vertex 14.1127 59.5 7.9908
      vertex 14.1127 52.5 7.9908
    endloop
  endfacet
  facet normal -0.879424 0 -0.476038
    outer loop
      vertex 15.07 53 10.7793
      vertex 14.6939 59.5 11.4741
      vertex 15.07 59.5 10.7793
    endloop
  endfacet
  facet normal -0.879424 -0 -0.476038
    outer loop
      vertex 14.6939 59.5 11.4741
      vertex 15.07 53 10.7793
      vertex 14.6939 53 11.4741
    endloop
  endfacet
  facet normal 0.245423 0 -0.969416
    outer loop
      vertex 11.8359 52.5 12.1979
      vertex 12.6018 59.5 12.3918
      vertex 12.6018 52.5 12.3918
    endloop
  endfacet
  facet normal 0.245423 0 -0.969416
    outer loop
      vertex 12.6018 59.5 12.3918
      vertex 11.8359 52.5 12.1979
      vertex 11.8359 59.5 12.1979
    endloop
  endfacet
  facet normal 0.945797 0 -0.324758
    outer loop
      vertex 10.6893 52.5 11.1423
      vertex 10.4327 59.5 10.395
      vertex 10.6893 59.5 11.1423
    endloop
  endfacet
  facet normal 0.945797 0 -0.324758
    outer loop
      vertex 10.4327 59.5 10.395
      vertex 10.6893 52.5 11.1423
      vertex 10.4327 52.5 10.395
    endloop
  endfacet
  facet normal 0.547024 0 -0.837117
    outer loop
      vertex 11.1745 52.5 11.7657
      vertex 11.8359 59.5 12.1979
      vertex 11.8359 52.5 12.1979
    endloop
  endfacet
  facet normal 0.547024 0 -0.837117
    outer loop
      vertex 11.8359 59.5 12.1979
      vertex 11.1745 52.5 11.7657
      vertex 11.1745 59.5 11.7657
    endloop
  endfacet
  facet normal 0.789148 0 -0.614203
    outer loop
      vertex 11.1745 52.5 11.7657
      vertex 10.6893 59.5 11.1423
      vertex 11.1745 59.5 11.7657
    endloop
  endfacet
  facet normal 0.789148 0 -0.614203
    outer loop
      vertex 10.6893 59.5 11.1423
      vertex 11.1745 52.5 11.7657
      vertex 10.6893 52.5 11.1423
    endloop
  endfacet
  facet normal -0.986369 -6.97367e-06 0.164547
    outer loop
      vertex 15.07 59.5 9.22072
      vertex 15.1954 53 9.97215
      vertex 15.2 59.5 10
    endloop
  endfacet
  facet normal -0.986359 0 0.164605
    outer loop
      vertex 15.07 52.5 9.22072
      vertex 15.1954 53 9.97215
      vertex 15.07 59.5 9.22072
    endloop
  endfacet
  facet normal -0.986359 0 0.164605
    outer loop
      vertex 15.1954 53 9.97215
      vertex 15.07 52.5 9.22072
      vertex 15.1954 52.5 9.97215
    endloop
  endfacet
  facet normal -0.986632 0 0.162963
    outer loop
      vertex 15.2 59.5 10
      vertex 15.1954 53 9.97215
      vertex 15.2 53 10
    endloop
  endfacet
  facet normal 0.245471 0 0.969404
    outer loop
      vertex 11.8359 59.5 7.80214
      vertex 12.6018 52.5 7.6082
      vertex 12.6018 59.5 7.6082
    endloop
  endfacet
  facet normal 0.245471 0 0.969404
    outer loop
      vertex 12.6018 52.5 7.6082
      vertex 11.8359 59.5 7.80214
      vertex 11.8359 52.5 7.80214
    endloop
  endfacet
  facet normal 0.546953 0 0.837163
    outer loop
      vertex 11.1745 59.5 8.23426
      vertex 11.8359 52.5 7.80214
      vertex 11.8359 59.5 7.80214
    endloop
  endfacet
  facet normal 0.546953 0 0.837163
    outer loop
      vertex 11.8359 52.5 7.80214
      vertex 11.1745 59.5 8.23426
      vertex 11.1745 52.5 8.23426
    endloop
  endfacet
  facet normal -0.0825217 0 -0.996589
    outer loop
      vertex 12.6018 52.5 12.3918
      vertex 13.3892 59.5 12.3266
      vertex 13.3892 52.5 12.3266
    endloop
  endfacet
  facet normal -0.0825217 0 -0.996589
    outer loop
      vertex 13.3892 59.5 12.3266
      vertex 12.6018 52.5 12.3918
      vertex 12.6018 59.5 12.3918
    endloop
  endfacet
  facet normal -0.879433 0 0.476023
    outer loop
      vertex 14.6939 52.5 8.52589
      vertex 15.07 59.5 9.22072
      vertex 14.6939 59.5 8.52589
    endloop
  endfacet
  facet normal -0.879433 0 0.476023
    outer loop
      vertex 15.07 59.5 9.22072
      vertex 14.6939 52.5 8.52589
      vertex 15.07 52.5 9.22072
    endloop
  endfacet
  facet normal 0.945789 -0 0.324781
    outer loop
      vertex 10.4327 52.5 9.60497
      vertex 10.6893 59.5 8.85773
      vertex 10.4327 59.5 9.60497
    endloop
  endfacet
  facet normal 0.945789 0 0.324781
    outer loop
      vertex 10.6893 59.5 8.85773
      vertex 10.4327 52.5 9.60497
      vertex 10.6893 52.5 8.85773
    endloop
  endfacet
  facet normal 0.789181 -0 0.614161
    outer loop
      vertex 10.6893 52.5 8.85773
      vertex 11.1745 59.5 8.23426
      vertex 10.6893 59.5 8.85773
    endloop
  endfacet
  facet normal 0.789181 0 0.614161
    outer loop
      vertex 11.1745 59.5 8.23426
      vertex 10.6893 52.5 8.85773
      vertex 11.1745 52.5 8.23426
    endloop
  endfacet
  facet normal 0.866026 -0 0.499999
    outer loop
      vertex 16.9655 47 13.9061
      vertex 20.4655 52.5 7.84391
      vertex 16.9655 52.5 13.9061
    endloop
  endfacet
  facet normal 0.866026 0 0.499999
    outer loop
      vertex 20.4655 52.5 7.84391
      vertex 16.9655 47 13.9061
      vertex 20.4655 47 7.84391
    endloop
  endfacet
  facet normal -0.500011 0 0.866019
    outer loop
      vertex 13.9345 52.5 12.1561
      vertex 16.9655 47 13.9061
      vertex 16.9655 52.5 13.9061
    endloop
  endfacet
  facet normal -0.500011 0 0.866019
    outer loop
      vertex 16.9655 47 13.9061
      vertex 13.9345 52.5 12.1561
      vertex 13.9345 47 12.1561
    endloop
  endfacet
  facet normal 0 1 0
    outer loop
      vertex 14.6939 53 11.4741
      vertex 13.9876 53 12.0641
      vertex 14.1127 53 12.0092
    endloop
  endfacet
  facet normal 0 1 0
    outer loop
      vertex 15.07 53 10.7793
      vertex 13.9876 53 12.0641
      vertex 14.6939 53 11.4741
    endloop
  endfacet
  facet normal 0 1 -0
    outer loop
      vertex 15.1954 53 9.97215
      vertex 15.07 53 10.7793
      vertex 15.2 53 10
    endloop
  endfacet
  facet normal 0 1 0
    outer loop
      vertex 15.07 53 10.7793
      vertex 15.1954 53 9.97215
      vertex 13.9876 53 12.0641
    endloop
  endfacet
  facet normal 0 -1 0
    outer loop
      vertex 13.9345 47 12.1561
      vertex 16.7495 47 12.2803
      vertex 16.9655 47 13.9061
    endloop
  endfacet
  facet normal 0 -1 0
    outer loop
      vertex 13.9345 47 12.1561
      vertex 15.4505 47 11.5303
      vertex 16.7495 47 12.2803
    endloop
  endfacet
  facet normal 0 -1 0
    outer loop
      vertex 13.9345 47 12.1561
      vertex 17.6505 47 7.71974
      vertex 15.4505 47 11.5303
    endloop
  endfacet
  facet normal -0 -1 0
    outer loop
      vertex 17.6505 47 7.71974
      vertex 13.9345 47 12.1561
      vertex 17.4345 47 6.09391
    endloop
  endfacet
  facet normal 0 -1 0
    outer loop
      vertex 18.9495 47 8.46974
      vertex 16.9655 47 13.9061
      vertex 16.7495 47 12.2803
    endloop
  endfacet
  facet normal 0 -1 0
    outer loop
      vertex 18.9495 47 8.46974
      vertex 20.4655 47 7.84391
      vertex 16.9655 47 13.9061
    endloop
  endfacet
  facet normal 0 -1 0
    outer loop
      vertex 17.6505 47 7.71974
      vertex 20.4655 47 7.84391
      vertex 18.9495 47 8.46974
    endloop
  endfacet
  facet normal 0 -1 0
    outer loop
      vertex 20.4655 47 7.84391
      vertex 17.6505 47 7.71974
      vertex 17.4345 47 6.09391
    endloop
  endfacet
  facet normal 0.500011 0 -0.866019
    outer loop
      vertex 17.4345 47 6.09391
      vertex 20.4655 52.5 7.84391
      vertex 20.4655 47 7.84391
    endloop
  endfacet
  facet normal 0.500011 0 -0.866019
    outer loop
      vertex 20.4655 52.5 7.84391
      vertex 17.4345 47 6.09391
      vertex 17.4345 52.5 6.09391
    endloop
  endfacet
  facet normal -0.866026 0 -0.5
    outer loop
      vertex 17.4345 47 6.09391
      vertex 15.1954 52.5 9.97215
      vertex 17.4345 52.5 6.09391
    endloop
  endfacet
  facet normal -0.866026 -2.50104e-07 -0.499999
    outer loop
      vertex 13.9345 47 12.1561
      vertex 15.1954 52.5 9.97215
      vertex 17.4345 47 6.09391
    endloop
  endfacet
  facet normal -0.866023 -2.63855e-06 -0.500004
    outer loop
      vertex 15.1954 52.5 9.97215
      vertex 13.9345 47 12.1561
      vertex 13.9876 52.5 12.0641
    endloop
  endfacet
  facet normal -0.866092 0 -0.499885
    outer loop
      vertex 13.9876 52.5 12.0641
      vertex 13.9345 47 12.1561
      vertex 13.9345 52.5 12.1561
    endloop
  endfacet
  facet normal -0.866023 0 -0.500004
    outer loop
      vertex 15.1954 52.5 9.97215
      vertex 13.9876 53 12.0641
      vertex 15.1954 53 9.97215
    endloop
  endfacet
  facet normal -0.866023 -0 -0.500004
    outer loop
      vertex 13.9876 53 12.0641
      vertex 15.1954 52.5 9.97215
      vertex 13.9876 52.5 12.0641
    endloop
  endfacet
  facet normal -0.866028 0 -0.499995
    outer loop
      vertex 18.9495 47 8.46974
      vertex 16.7495 52.5 12.2803
      vertex 18.9495 52.5 8.46974
    endloop
  endfacet
  facet normal -0.866028 -0 -0.499995
    outer loop
      vertex 16.7495 52.5 12.2803
      vertex 18.9495 47 8.46974
      vertex 16.7495 47 12.2803
    endloop
  endfacet
  facet normal 0.500011 0 -0.866019
    outer loop
      vertex 15.4505 47 11.5303
      vertex 16.7495 52.5 12.2803
      vertex 16.7495 47 12.2803
    endloop
  endfacet
  facet normal 0.500011 0 -0.866019
    outer loop
      vertex 16.7495 52.5 12.2803
      vertex 15.4505 47 11.5303
      vertex 15.4505 52.5 11.5303
    endloop
  endfacet
  facet normal 0.866028 -0 0.499995
    outer loop
      vertex 15.4505 47 11.5303
      vertex 17.6505 52.5 7.71974
      vertex 15.4505 52.5 11.5303
    endloop
  endfacet
  facet normal 0.866028 0 0.499995
    outer loop
      vertex 17.6505 52.5 7.71974
      vertex 15.4505 47 11.5303
      vertex 17.6505 47 7.71974
    endloop
  endfacet
  facet normal -0.500011 0 0.866019
    outer loop
      vertex 17.6505 52.5 7.71974
      vertex 18.9495 47 8.46974
      vertex 18.9495 52.5 8.46974
    endloop
  endfacet
  facet normal -0.500011 0 0.866019
    outer loop
      vertex 18.9495 47 8.46974
      vertex 17.6505 52.5 7.71974
      vertex 17.6505 47 7.71974
    endloop
  endfacet
  facet normal 0.866026 -0 0.499999
    outer loop
      vertex 46.9655 47 13.9061
      vertex 50.4655 52.5 7.84391
      vertex 46.9655 52.5 13.9061
    endloop
  endfacet
  facet normal 0.866026 0 0.499999
    outer loop
      vertex 50.4655 52.5 7.84391
      vertex 46.9655 47 13.9061
      vertex 50.4655 47 7.84391
    endloop
  endfacet
  facet normal -0.500011 0 0.866019
    outer loop
      vertex 43.9345 52.5 12.1561
      vertex 46.9655 47 13.9061
      vertex 46.9655 52.5 13.9061
    endloop
  endfacet
  facet normal -0.500011 0 0.866019
    outer loop
      vertex 46.9655 47 13.9061
      vertex 43.9345 52.5 12.1561
      vertex 43.9345 47 12.1561
    endloop
  endfacet
  facet normal 0 -1 0
    outer loop
      vertex 43.9345 47 12.1561
      vertex 46.7495 47 12.2803
      vertex 46.9655 47 13.9061
    endloop
  endfacet
  facet normal 0 -1 0
    outer loop
      vertex 43.9345 47 12.1561
      vertex 45.4505 47 11.5303
      vertex 46.7495 47 12.2803
    endloop
  endfacet
  facet normal 0 -1 0
    outer loop
      vertex 43.9345 47 12.1561
      vertex 47.6505 47 7.71974
      vertex 45.4505 47 11.5303
    endloop
  endfacet
  facet normal -0 -1 0
    outer loop
      vertex 47.6505 47 7.71974
      vertex 43.9345 47 12.1561
      vertex 47.4345 47 6.09391
    endloop
  endfacet
  facet normal 0 -1 0
    outer loop
      vertex 48.9495 47 8.46974
      vertex 46.9655 47 13.9061
      vertex 46.7495 47 12.2803
    endloop
  endfacet
  facet normal 0 -1 0
    outer loop
      vertex 48.9495 47 8.46974
      vertex 50.4655 47 7.84391
      vertex 46.9655 47 13.9061
    endloop
  endfacet
  facet normal 0 -1 0
    outer loop
      vertex 47.6505 47 7.71974
      vertex 50.4655 47 7.84391
      vertex 48.9495 47 8.46974
    endloop
  endfacet
  facet normal 0 -1 0
    outer loop
      vertex 50.4655 47 7.84391
      vertex 47.6505 47 7.71974
      vertex 47.4345 47 6.09391
    endloop
  endfacet
  facet normal 0.500011 0 -0.866019
    outer loop
      vertex 47.4345 47 6.09391
      vertex 50.4655 52.5 7.84391
      vertex 50.4655 47 7.84391
    endloop
  endfacet
  facet normal 0.500011 0 -0.866019
    outer loop
      vertex 50.4655 52.5 7.84391
      vertex 47.4345 47 6.09391
      vertex 47.4345 52.5 6.09391
    endloop
  endfacet
  facet normal -0.866026 0 -0.499999
    outer loop
      vertex 47.4345 47 6.09391
      vertex 43.9345 52.5 12.1561
      vertex 47.4345 52.5 6.09391
    endloop
  endfacet
  facet normal -0.866026 -0 -0.499999
    outer loop
      vertex 43.9345 52.5 12.1561
      vertex 47.4345 47 6.09391
      vertex 43.9345 47 12.1561
    endloop
  endfacet
  facet normal -0.866028 0 -0.499995
    outer loop
      vertex 48.9495 47 8.46974
      vertex 46.7495 52.5 12.2803
      vertex 48.9495 52.5 8.46974
    endloop
  endfacet
  facet normal -0.866028 -0 -0.499995
    outer loop
      vertex 46.7495 52.5 12.2803
      vertex 48.9495 47 8.46974
      vertex 46.7495 47 12.2803
    endloop
  endfacet
  facet normal 0.500011 0 -0.866019
    outer loop
      vertex 45.4505 47 11.5303
      vertex 46.7495 52.5 12.2803
      vertex 46.7495 47 12.2803
    endloop
  endfacet
  facet normal 0.500011 0 -0.866019
    outer loop
      vertex 46.7495 52.5 12.2803
      vertex 45.4505 47 11.5303
      vertex 45.4505 52.5 11.5303
    endloop
  endfacet
  facet normal 0.866028 -0 0.499995
    outer loop
      vertex 45.4505 47 11.5303
      vertex 47.6505 52.5 7.71974
      vertex 45.4505 52.5 11.5303
    endloop
  endfacet
  facet normal 0.866028 0 0.499995
    outer loop
      vertex 47.6505 52.5 7.71974
      vertex 45.4505 47 11.5303
      vertex 47.6505 47 7.71974
    endloop
  endfacet
  facet normal -0.500011 0 0.866019
    outer loop
      vertex 47.6505 52.5 7.71974
      vertex 48.9495 47 8.46974
      vertex 48.9495 52.5 8.46974
    endloop
  endfacet
  facet normal -0.500011 0 0.866019
    outer loop
      vertex 48.9495 47 8.46974
      vertex 47.6505 52.5 7.71974
      vertex 47.6505 47 7.71974
    endloop
  endfacet
  facet normal -0.866023 0 0.500004
    outer loop
      vertex 9.53446 10.5 7.84391
      vertex 13.0345 16 13.9061
      vertex 9.53446 16 7.84391
    endloop
  endfacet
  facet normal -0.866023 0 0.500004
    outer loop
      vertex 13.0345 16 13.9061
      vertex 9.53446 10.5 7.84391
      vertex 13.0345 10.5 13.9061
    endloop
  endfacet
  facet normal 0.500011 0 0.866019
    outer loop
      vertex 13.0345 16 13.9061
      vertex 16.0655 10.5 12.1561
      vertex 16.0655 16 12.1561
    endloop
  endfacet
  facet normal 0.500011 0 0.866019
    outer loop
      vertex 16.0655 10.5 12.1561
      vertex 13.0345 16 13.9061
      vertex 13.0345 10.5 13.9061
    endloop
  endfacet
  facet normal 0 -1 0
    outer loop
      vertex 15.2893 10 11.1423
      vertex 15.8799 10 11.8346
      vertex 15.7745 10 11.7657
    endloop
  endfacet
  facet normal 0 -1 0
    outer loop
      vertex 15.0327 10 10.3672
      vertex 15.2893 10 11.1423
      vertex 15.0327 10 10.395
    endloop
  endfacet
  facet normal 0 -1 -0
    outer loop
      vertex 15.2893 10 11.1423
      vertex 15.0327 10 10.3672
      vertex 15.8799 10 11.8346
    endloop
  endfacet
  facet normal 0 1 0
    outer loop
      vertex 16.0655 16 12.1561
      vertex 13.2505 16 12.2803
      vertex 13.0345 16 13.9061
    endloop
  endfacet
  facet normal 0 1 0
    outer loop
      vertex 16.0655 16 12.1561
      vertex 14.5495 16 11.5303
      vertex 13.2505 16 12.2803
    endloop
  endfacet
  facet normal 0 1 0
    outer loop
      vertex 16.0655 16 12.1561
      vertex 12.3495 16 7.71974
      vertex 14.5495 16 11.5303
    endloop
  endfacet
  facet normal -0 1 0
    outer loop
      vertex 12.3495 16 7.71974
      vertex 16.0655 16 12.1561
      vertex 12.5655 16 6.09391
    endloop
  endfacet
  facet normal 0 1 0
    outer loop
      vertex 11.0505 16 8.46974
      vertex 13.0345 16 13.9061
      vertex 13.2505 16 12.2803
    endloop
  endfacet
  facet normal 0 1 -0
    outer loop
      vertex 11.0505 16 8.46974
      vertex 9.53446 16 7.84391
      vertex 13.0345 16 13.9061
    endloop
  endfacet
  facet normal 0 1 0
    outer loop
      vertex 12.3495 16 7.71974
      vertex 9.53446 16 7.84391
      vertex 11.0505 16 8.46974
    endloop
  endfacet
  facet normal 0 1 0
    outer loop
      vertex 9.53446 16 7.84391
      vertex 12.3495 16 7.71974
      vertex 12.5655 16 6.09391
    endloop
  endfacet
  facet normal -0.500006 0 -0.866022
    outer loop
      vertex 9.53446 10.5 7.84391
      vertex 12.5655 16 6.09391
      vertex 12.5655 10.5 6.09391
    endloop
  endfacet
  facet normal -0.500006 0 -0.866022
    outer loop
      vertex 12.5655 16 6.09391
      vertex 9.53446 10.5 7.84391
      vertex 9.53446 16 7.84391
    endloop
  endfacet
  facet normal 0.866026 0 -0.499998
    outer loop
      vertex 15.8799 10 11.8346
      vertex 15.0327 10.5 10.3672
      vertex 15.8799 10.5 11.8346
    endloop
  endfacet
  facet normal 0.866026 0 -0.499998
    outer loop
      vertex 15.0327 10.5 10.3672
      vertex 15.8799 10 11.8346
      vertex 15.0327 10 10.3672
    endloop
  endfacet
  facet normal 0.866047 0 -0.499963
    outer loop
      vertex 15.8799 10.5 11.8346
      vertex 16.0655 16 12.1561
      vertex 16.0655 10.5 12.1561
    endloop
  endfacet
  facet normal 0.866026 2.72125e-06 -0.499998
    outer loop
      vertex 15.0327 10.5 10.3672
      vertex 16.0655 16 12.1561
      vertex 15.8799 10.5 11.8346
    endloop
  endfacet
  facet normal 0.866026 3.12124e-06 -0.499999
    outer loop
      vertex 16.0655 16 12.1561
      vertex 15.0327 10.5 10.3672
      vertex 12.5655 16 6.09391
    endloop
  endfacet
  facet normal 0.866024 0 -0.500002
    outer loop
      vertex 12.5655 16 6.09391
      vertex 15.0327 10.5 10.3672
      vertex 12.5655 10.5 6.09391
    endloop
  endfacet
  facet normal 0.866028 0 -0.499995
    outer loop
      vertex 13.2505 10.5 12.2803
      vertex 11.0505 16 8.46974
      vertex 13.2505 16 12.2803
    endloop
  endfacet
  facet normal 0.866028 0 -0.499995
    outer loop
      vertex 11.0505 16 8.46974
      vertex 13.2505 10.5 12.2803
      vertex 11.0505 10.5 8.46974
    endloop
  endfacet
  facet normal -0.500011 0 -0.866019
    outer loop
      vertex 13.2505 10.5 12.2803
      vertex 14.5495 16 11.5303
      vertex 14.5495 10.5 11.5303
    endloop
  endfacet
  facet normal -0.500011 0 -0.866019
    outer loop
      vertex 14.5495 16 11.5303
      vertex 13.2505 10.5 12.2803
      vertex 13.2505 16 12.2803
    endloop
  endfacet
  facet normal -0.866028 0 0.499995
    outer loop
      vertex 12.3495 10.5 7.71974
      vertex 14.5495 16 11.5303
      vertex 12.3495 16 7.71974
    endloop
  endfacet
  facet normal -0.866028 0 0.499995
    outer loop
      vertex 14.5495 16 11.5303
      vertex 12.3495 10.5 7.71974
      vertex 14.5495 10.5 11.5303
    endloop
  endfacet
  facet normal 0.500011 0 0.866019
    outer loop
      vertex 11.0505 16 8.46974
      vertex 12.3495 10.5 7.71974
      vertex 12.3495 16 7.71974
    endloop
  endfacet
  facet normal 0.500011 0 0.866019
    outer loop
      vertex 12.3495 10.5 7.71974
      vertex 11.0505 16 8.46974
      vertex 11.0505 10.5 8.46974
    endloop
  endfacet
  facet normal -0.866026 0 0.499999
    outer loop
      vertex -20.4655 10.5 7.84391
      vertex -16.9655 16 13.9061
      vertex -20.4655 16 7.84391
    endloop
  endfacet
  facet normal -0.866026 0 0.499999
    outer loop
      vertex -16.9655 16 13.9061
      vertex -20.4655 10.5 7.84391
      vertex -16.9655 10.5 13.9061
    endloop
  endfacet
  facet normal 0.500011 0 0.866019
    outer loop
      vertex -16.9655 16 13.9061
      vertex -13.9345 10.5 12.1561
      vertex -13.9345 16 12.1561
    endloop
  endfacet
  facet normal 0.500011 0 0.866019
    outer loop
      vertex -13.9345 10.5 12.1561
      vertex -16.9655 16 13.9061
      vertex -16.9655 10.5 13.9061
    endloop
  endfacet
  facet normal 0 1 0
    outer loop
      vertex -13.9345 16 12.1561
      vertex -16.7495 16 12.2803
      vertex -16.9655 16 13.9061
    endloop
  endfacet
  facet normal 0 1 0
    outer loop
      vertex -13.9345 16 12.1561
      vertex -15.4505 16 11.5303
      vertex -16.7495 16 12.2803
    endloop
  endfacet
  facet normal 0 1 0
    outer loop
      vertex -13.9345 16 12.1561
      vertex -17.6505 16 7.71974
      vertex -15.4505 16 11.5303
    endloop
  endfacet
  facet normal -0 1 0
    outer loop
      vertex -17.6505 16 7.71974
      vertex -13.9345 16 12.1561
      vertex -17.4345 16 6.09391
    endloop
  endfacet
  facet normal 0 1 0
    outer loop
      vertex -18.9495 16 8.46974
      vertex -16.9655 16 13.9061
      vertex -16.7495 16 12.2803
    endloop
  endfacet
  facet normal 0 1 -0
    outer loop
      vertex -18.9495 16 8.46974
      vertex -20.4655 16 7.84391
      vertex -16.9655 16 13.9061
    endloop
  endfacet
  facet normal 0 1 0
    outer loop
      vertex -17.6505 16 7.71974
      vertex -20.4655 16 7.84391
      vertex -18.9495 16 8.46974
    endloop
  endfacet
  facet normal 0 1 0
    outer loop
      vertex -20.4655 16 7.84391
      vertex -17.6505 16 7.71974
      vertex -17.4345 16 6.09391
    endloop
  endfacet
  facet normal -0.500011 0 -0.866019
    outer loop
      vertex -20.4655 10.5 7.84391
      vertex -17.4345 16 6.09391
      vertex -17.4345 10.5 6.09391
    endloop
  endfacet
  facet normal -0.500011 0 -0.866019
    outer loop
      vertex -17.4345 16 6.09391
      vertex -20.4655 10.5 7.84391
      vertex -20.4655 16 7.84391
    endloop
  endfacet
  facet normal 0.866026 0 -0.499999
    outer loop
      vertex -13.9345 10.5 12.1561
      vertex -17.4345 16 6.09391
      vertex -13.9345 16 12.1561
    endloop
  endfacet
  facet normal 0.866026 0 -0.499999
    outer loop
      vertex -17.4345 16 6.09391
      vertex -13.9345 10.5 12.1561
      vertex -17.4345 10.5 6.09391
    endloop
  endfacet
  facet normal 0.866028 0 -0.499995
    outer loop
      vertex -16.7495 10.5 12.2803
      vertex -18.9495 16 8.46974
      vertex -16.7495 16 12.2803
    endloop
  endfacet
  facet normal 0.866028 0 -0.499995
    outer loop
      vertex -18.9495 16 8.46974
      vertex -16.7495 10.5 12.2803
      vertex -18.9495 10.5 8.46974
    endloop
  endfacet
  facet normal -0.500011 0 -0.866019
    outer loop
      vertex -16.7495 10.5 12.2803
      vertex -15.4505 16 11.5303
      vertex -15.4505 10.5 11.5303
    endloop
  endfacet
  facet normal -0.500011 0 -0.866019
    outer loop
      vertex -15.4505 16 11.5303
      vertex -16.7495 10.5 12.2803
      vertex -16.7495 16 12.2803
    endloop
  endfacet
  facet normal -0.866028 0 0.499995
    outer loop
      vertex -17.6505 10.5 7.71974
      vertex -15.4505 16 11.5303
      vertex -17.6505 16 7.71974
    endloop
  endfacet
  facet normal -0.866028 0 0.499995
    outer loop
      vertex -15.4505 16 11.5303
      vertex -17.6505 10.5 7.71974
      vertex -15.4505 10.5 11.5303
    endloop
  endfacet
  facet normal 0.500011 0 0.866019
    outer loop
      vertex -18.9495 16 8.46974
      vertex -17.6505 10.5 7.71974
      vertex -17.6505 16 7.71974
    endloop
  endfacet
  facet normal 0.500011 0 0.866019
    outer loop
      vertex -17.6505 10.5 7.71974
      vertex -18.9495 16 8.46974
      vertex -18.9495 10.5 8.46974
    endloop
  endfacet
  facet normal -1 0 0
    outer loop
      vertex 51.5 10.5 6
      vertex 51.5 52.5 14
      vertex 51.5 52.5 6
    endloop
  endfacet
  facet normal -1 -0 0
    outer loop
      vertex 51.5 52.5 14
      vertex 51.5 10.5 6
      vertex 51.5 10.5 14
    endloop
  endfacet
  facet normal 1 -0 0
    outer loop
      vertex 54.5 10.5 14
      vertex 54.5 52.5 6
      vertex 54.5 52.5 14
    endloop
  endfacet
  facet normal 1 0 0
    outer loop
      vertex 54.5 52.5 6
      vertex 54.5 10.5 14
      vertex 54.5 10.5 6
    endloop
  endfacet
  facet normal -1 0 0
    outer loop
      vertex -24.5 10.5 6
      vertex -24.5 52.5 14
      vertex -24.5 52.5 6
    endloop
  endfacet
  facet normal -1 -0 0
    outer loop
      vertex -24.5 52.5 14
      vertex -24.5 10.5 6
      vertex -24.5 10.5 14
    endloop
  endfacet
  facet normal 1 -0 0
    outer loop
      vertex -21.5 10.5 14
      vertex -21.5 52.5 6
      vertex -21.5 52.5 14
    endloop
  endfacet
  facet normal 1 0 0
    outer loop
      vertex -21.5 52.5 6
      vertex -21.5 10.5 14
      vertex -21.5 10.5 6
    endloop
  endfacet
endsolid OpenSCAD_Model
