solid OpenSCAD_Model
  facet normal 0.991449 0.130498 0
    outer loop
      vertex 23 0 1
      vertex 22.8978 0.776457 -2
      vertex 22.8978 0.776457 1
    endloop
  endfacet
  facet normal 0.991449 0.130498 0
    outer loop
      vertex 22.8978 0.776457 -2
      vertex 23 0 1
      vertex 23 0 -2
    endloop
  endfacet
  facet normal -0.130516 0.991446 0
    outer loop
      vertex 20 3 -2
      vertex 19.2235 2.89778 1
      vertex 20 3 1
    endloop
  endfacet
  facet normal -0.130516 0.991446 0
    outer loop
      vertex 19.2235 2.89778 1
      vertex 20 3 -2
      vertex 19.2235 2.89778 -2
    endloop
  endfacet
  facet normal 0.130516 -0.991446 0
    outer loop
      vertex 20 -3 -2
      vertex 20.7765 -2.89778 1
      vertex 20 -3 1
    endloop
  endfacet
  facet normal 0.130516 -0.991446 0
    outer loop
      vertex 20.7765 -2.89778 1
      vertex 20 -3 -2
      vertex 20.7765 -2.89778 -2
    endloop
  endfacet
  facet normal 0.382701 -0.923872 0
    outer loop
      vertex 20.7765 -2.89778 -2
      vertex 21.5 -2.59808 1
      vertex 20.7765 -2.89778 1
    endloop
  endfacet
  facet normal 0.382701 -0.923872 0
    outer loop
      vertex 21.5 -2.59808 1
      vertex 20.7765 -2.89778 -2
      vertex 21.5 -2.59808 -2
    endloop
  endfacet
  facet normal 0.608777 0.793341 -0
    outer loop
      vertex 22.1213 2.12132 -2
      vertex 21.5 2.59808 1
      vertex 22.1213 2.12132 1
    endloop
  endfacet
  facet normal 0.608777 0.793341 0
    outer loop
      vertex 21.5 2.59808 1
      vertex 22.1213 2.12132 -2
      vertex 21.5 2.59808 -2
    endloop
  endfacet
  facet normal 0.92388 0.382682 0
    outer loop
      vertex 22.8978 0.776457 1
      vertex 22.5981 1.5 -2
      vertex 22.5981 1.5 1
    endloop
  endfacet
  facet normal 0.92388 0.382682 0
    outer loop
      vertex 22.5981 1.5 -2
      vertex 22.8978 0.776457 1
      vertex 22.8978 0.776457 -2
    endloop
  endfacet
  facet normal -0.793326 0.608797 0
    outer loop
      vertex 17.4019 1.5 -2
      vertex 17.8787 2.12132 -1
      vertex 17.8787 2.12132 -2
    endloop
  endfacet
  facet normal -0.793326 0.608797 0
    outer loop
      vertex 17.8787 2.12132 -1
      vertex 17.4019 1.5 -2
      vertex 17.4019 1.5 -1
    endloop
  endfacet
  facet normal 0 0 -1
    outer loop
      vertex 21.2 0 -2
      vertex 23 0 -2
      vertex 22.8978 -0.776457 -2
    endloop
  endfacet
  facet normal 0 0 -1
    outer loop
      vertex 20.9193 -0.771344 -2
      vertex 22.8978 -0.776457 -2
      vertex 22.5981 -1.5 -2
    endloop
  endfacet
  facet normal 0 0 -1
    outer loop
      vertex 23 0 -2
      vertex 21.2 0 -2
      vertex 22.8978 0.776457 -2
    endloop
  endfacet
  facet normal 0 0 -1
    outer loop
      vertex 20.9193 -0.771344 -2
      vertex 22.5981 -1.5 -2
      vertex 22.1213 -2.12132 -2
    endloop
  endfacet
  facet normal 0 0 -1
    outer loop
      vertex 20.9193 0.771344 -2
      vertex 22.8978 0.776457 -2
      vertex 21.2 0 -2
    endloop
  endfacet
  facet normal 0 0 -1
    outer loop
      vertex 20.9193 -0.771344 -2
      vertex 22.1213 -2.12132 -2
      vertex 21.5 -2.59808 -2
    endloop
  endfacet
  facet normal -0 0 -1
    outer loop
      vertex 22.8978 0.776457 -2
      vertex 20.9193 0.771344 -2
      vertex 22.5981 1.5 -2
    endloop
  endfacet
  facet normal -0 0 -1
    outer loop
      vertex 22.5981 1.5 -2
      vertex 20.9193 0.771344 -2
      vertex 22.1213 2.12132 -2
    endloop
  endfacet
  facet normal 0 0 -1
    outer loop
      vertex 22.8978 -0.776457 -2
      vertex 20.9193 -0.771344 -2
      vertex 21.2 0 -2
    endloop
  endfacet
  facet normal 0 0 -1
    outer loop
      vertex 20.2084 -1.18177 -2
      vertex 21.5 -2.59808 -2
      vertex 20.7765 -2.89778 -2
    endloop
  endfacet
  facet normal 0 0 -1
    outer loop
      vertex 21.5 -2.59808 -2
      vertex 20.2084 -1.18177 -2
      vertex 20.9193 -0.771344 -2
    endloop
  endfacet
  facet normal 0 0 -1
    outer loop
      vertex 20 -3 -2
      vertex 20.2084 -1.18177 -2
      vertex 20.7765 -2.89778 -2
    endloop
  endfacet
  facet normal 0 0 -1
    outer loop
      vertex 19.2235 -2.89778 -2
      vertex 20.2084 -1.18177 -2
      vertex 20 -3 -2
    endloop
  endfacet
  facet normal -0 0 -1
    outer loop
      vertex 20.2084 -1.18177 -2
      vertex 19.2235 -2.89778 -2
      vertex 19.4 -1.03923 -2
    endloop
  endfacet
  facet normal 0 0 -1
    outer loop
      vertex 18.5 -2.59808 -2
      vertex 19.4 -1.03923 -2
      vertex 19.2235 -2.89778 -2
    endloop
  endfacet
  facet normal -0 0 -1
    outer loop
      vertex 19.4 -1.03923 -2
      vertex 17.8787 -2.12132 -2
      vertex 18.8724 -0.410423 -2
    endloop
  endfacet
  facet normal 0 0 -1
    outer loop
      vertex 17.8787 -2.12132 -2
      vertex 19.4 -1.03923 -2
      vertex 18.5 -2.59808 -2
    endloop
  endfacet
  facet normal -0 0 -1
    outer loop
      vertex 22.1213 2.12132 -2
      vertex 20.9193 0.771344 -2
      vertex 21.5 2.59808 -2
    endloop
  endfacet
  facet normal 0 0 -1
    outer loop
      vertex 20.2084 1.18177 -2
      vertex 21.5 2.59808 -2
      vertex 20.9193 0.771344 -2
    endloop
  endfacet
  facet normal -0 0 -1
    outer loop
      vertex 21.5 2.59808 -2
      vertex 20.2084 1.18177 -2
      vertex 20.7765 2.89778 -2
    endloop
  endfacet
  facet normal 0 0 -1
    outer loop
      vertex 20.2084 1.18177 -2
      vertex 20 3 -2
      vertex 20.7765 2.89778 -2
    endloop
  endfacet
  facet normal 0 0 -1
    outer loop
      vertex 19.2235 2.89778 -2
      vertex 20.2084 1.18177 -2
      vertex 19.4 1.03923 -2
    endloop
  endfacet
  facet normal 0 0 -1
    outer loop
      vertex 20.2084 1.18177 -2
      vertex 19.2235 2.89778 -2
      vertex 20 3 -2
    endloop
  endfacet
  facet normal 0 0 -1
    outer loop
      vertex 17.8787 2.12132 -2
      vertex 19.4 1.03923 -2
      vertex 18.8724 0.410423 -2
    endloop
  endfacet
  facet normal 0 0 -1
    outer loop
      vertex 19.4 1.03923 -2
      vertex 18.5 2.59808 -2
      vertex 19.2235 2.89778 -2
    endloop
  endfacet
  facet normal 0 0 -1
    outer loop
      vertex 17.4019 -1.5 -2
      vertex 18.8724 -0.410423 -2
      vertex 17.8787 -2.12132 -2
    endloop
  endfacet
  facet normal 0 0 -1
    outer loop
      vertex 17.1022 -0.776457 -2
      vertex 18.8724 -0.410423 -2
      vertex 17.4019 -1.5 -2
    endloop
  endfacet
  facet normal 0 0 -1
    outer loop
      vertex 19.4 1.03923 -2
      vertex 17.8787 2.12132 -2
      vertex 18.5 2.59808 -2
    endloop
  endfacet
  facet normal 0 0 -1
    outer loop
      vertex 17 0 -2
      vertex 18.8724 -0.410423 -2
      vertex 17.1022 -0.776457 -2
    endloop
  endfacet
  facet normal 0 0 -1
    outer loop
      vertex 18.8724 0.410423 -2
      vertex 17.4019 1.5 -2
      vertex 17.8787 2.12132 -2
    endloop
  endfacet
  facet normal 0 0 -1
    outer loop
      vertex 18.8724 -0.410423 -2
      vertex 17 0 -2
      vertex 18.8724 0.410423 -2
    endloop
  endfacet
  facet normal 0 0 -1
    outer loop
      vertex 18.8724 0.410423 -2
      vertex 17.1022 0.776457 -2
      vertex 17.4019 1.5 -2
    endloop
  endfacet
  facet normal -0 0 -1
    outer loop
      vertex 18.8724 0.410423 -2
      vertex 17 0 -2
      vertex 17.1022 0.776457 -2
    endloop
  endfacet
  facet normal -0.382701 0.923872 0
    outer loop
      vertex 19.2235 2.89778 1
      vertex 18.5 2.59808 -1
      vertex 18.5 2.59808 1
    endloop
  endfacet
  facet normal -0.382701 0.923872 0
    outer loop
      vertex 19.2235 2.89778 -2
      vertex 18.5 2.59808 -1
      vertex 19.2235 2.89778 1
    endloop
  endfacet
  facet normal -0.382701 0.923872 0
    outer loop
      vertex 18.5 2.59808 -1
      vertex 19.2235 2.89778 -2
      vertex 18.5 2.59808 -2
    endloop
  endfacet
  facet normal 0.793326 0.608797 0
    outer loop
      vertex 22.5981 1.5 1
      vertex 22.1213 2.12132 -2
      vertex 22.1213 2.12132 1
    endloop
  endfacet
  facet normal 0.793326 0.608797 0
    outer loop
      vertex 22.1213 2.12132 -2
      vertex 22.5981 1.5 1
      vertex 22.5981 1.5 -2
    endloop
  endfacet
  facet normal 0.130516 0.991446 -0
    outer loop
      vertex 20.7765 2.89778 -2
      vertex 20 3 1
      vertex 20.7765 2.89778 1
    endloop
  endfacet
  facet normal 0.130516 0.991446 0
    outer loop
      vertex 20 3 1
      vertex 20.7765 2.89778 -2
      vertex 20 3 -2
    endloop
  endfacet
  facet normal 0.382701 0.923872 -0
    outer loop
      vertex 21.5 2.59808 -2
      vertex 20.7765 2.89778 1
      vertex 21.5 2.59808 1
    endloop
  endfacet
  facet normal 0.382701 0.923872 0
    outer loop
      vertex 20.7765 2.89778 1
      vertex 21.5 2.59808 -2
      vertex 20.7765 2.89778 -2
    endloop
  endfacet
  facet normal -0.92388 0.382682 0
    outer loop
      vertex 17.1022 0.776457 -2
      vertex 17.4019 1.5 -1
      vertex 17.4019 1.5 -2
    endloop
  endfacet
  facet normal -0.92388 0.382682 0
    outer loop
      vertex 17.4019 1.5 -1
      vertex 17.1022 0.776457 -2
      vertex 17.1022 0.776457 -1
    endloop
  endfacet
  facet normal -0.991449 0.130498 0
    outer loop
      vertex 17 0 -2
      vertex 17.1022 0.776457 -1
      vertex 17.1022 0.776457 -2
    endloop
  endfacet
  facet normal -0.991449 0.130498 0
    outer loop
      vertex 17.1022 0.776457 -1
      vertex 17 0 -2
      vertex 17 0 -1
    endloop
  endfacet
  facet normal -0.991449 -0.130498 0
    outer loop
      vertex 17.1022 -0.776457 -2
      vertex 17 0 -1
      vertex 17 0 -2
    endloop
  endfacet
  facet normal -0.991449 -0.130498 0
    outer loop
      vertex 17 0 -1
      vertex 17.1022 -0.776457 -2
      vertex 17.1022 -0.776457 -1
    endloop
  endfacet
  facet normal -0.608777 0.793341 0
    outer loop
      vertex 18.5 2.59808 -2
      vertex 17.8787 2.12132 -1
      vertex 18.5 2.59808 -1
    endloop
  endfacet
  facet normal -0.608777 0.793341 0
    outer loop
      vertex 17.8787 2.12132 -1
      vertex 18.5 2.59808 -2
      vertex 17.8787 2.12132 -2
    endloop
  endfacet
  facet normal -0.923872 -0.382703 0
    outer loop
      vertex 17.1022 -0.776457 -2
      vertex 17.1948 -1 -1
      vertex 17.1022 -0.776457 -1
    endloop
  endfacet
  facet normal -0.92388 -0.382682 5.41999e-06
    outer loop
      vertex 17.4019 -1.5 -2
      vertex 17.1948 -1 -1
      vertex 17.1022 -0.776457 -2
    endloop
  endfacet
  facet normal -0.923884 -0.382673 -0
    outer loop
      vertex 17.4019 -1.5 1
      vertex 17.1948 -1 -1
      vertex 17.4019 -1.5 -2
    endloop
  endfacet
  facet normal -0.923884 -0.382673 0
    outer loop
      vertex 17.1948 -1 -1
      vertex 17.4019 -1.5 1
      vertex 17.1948 -1 1
    endloop
  endfacet
  facet normal 0.92388 -0.382682 0
    outer loop
      vertex 22.5981 -1.5 1
      vertex 22.8978 -0.776457 -2
      vertex 22.8978 -0.776457 1
    endloop
  endfacet
  facet normal 0.92388 -0.382682 0
    outer loop
      vertex 22.8978 -0.776457 -2
      vertex 22.5981 -1.5 1
      vertex 22.5981 -1.5 -2
    endloop
  endfacet
  facet normal 0 0 1
    outer loop
      vertex 17.1948 -1 1
      vertex 18.5 2.59808 1
      vertex 18.5 3 1
    endloop
  endfacet
  facet normal 0 0 1
    outer loop
      vertex 18.5 2.59808 1
      vertex 17.1948 -1 1
      vertex 18.5 -2.59808 1
    endloop
  endfacet
  facet normal 0 0 1
    outer loop
      vertex 18.5 -2.59808 1
      vertex 17.1948 -1 1
      vertex 17.8787 -2.12132 1
    endloop
  endfacet
  facet normal 0 0 1
    outer loop
      vertex 17.8787 -2.12132 1
      vertex 17.1948 -1 1
      vertex 17.4019 -1.5 1
    endloop
  endfacet
  facet normal -0 0 1
    outer loop
      vertex 2.89778 0.776457 1
      vertex 17.1948 -1 1
      vertex 18.5 3 1
    endloop
  endfacet
  facet normal 0 0 1
    outer loop
      vertex 17.1948 -1 1
      vertex 2.89778 0.776457 1
      vertex 3 0 1
    endloop
  endfacet
  facet normal 0 0 1
    outer loop
      vertex 18.5 3 1
      vertex 2.59808 1.5 1
      vertex 2.89778 0.776457 1
    endloop
  endfacet
  facet normal 0 0 1
    outer loop
      vertex 18.5 3 1
      vertex 2.12132 2.12132 1
      vertex 2.59808 1.5 1
    endloop
  endfacet
  facet normal -0 0 1
    outer loop
      vertex 1.5 3 1
      vertex 2.12132 2.12132 1
      vertex 18.5 3 1
    endloop
  endfacet
  facet normal 0 0 1
    outer loop
      vertex 2.12132 2.12132 1
      vertex 1.5 3 1
      vertex 1.5 2.59808 1
    endloop
  endfacet
  facet normal -0 0 1
    outer loop
      vertex 2.89778 -0.776457 1
      vertex 17.1948 -1 1
      vertex 3 0 1
    endloop
  endfacet
  facet normal 0 0 1
    outer loop
      vertex 17.1948 -1 1
      vertex 2.89778 -0.776457 1
      vertex 2.80518 -1 1
    endloop
  endfacet
  facet normal 0 0 1
    outer loop
      vertex 21.2 0 1
      vertex 23 0 1
      vertex 22.8978 0.776457 1
    endloop
  endfacet
  facet normal 0 0 1
    outer loop
      vertex 20.9193 0.771344 1
      vertex 22.8978 0.776457 1
      vertex 22.5981 1.5 1
    endloop
  endfacet
  facet normal 0 0 1
    outer loop
      vertex 23 0 1
      vertex 21.2 0 1
      vertex 22.8978 -0.776457 1
    endloop
  endfacet
  facet normal 0 0 1
    outer loop
      vertex 20.9193 0.771344 1
      vertex 22.5981 1.5 1
      vertex 22.1213 2.12132 1
    endloop
  endfacet
  facet normal -0 0 1
    outer loop
      vertex 20.9193 -0.771344 1
      vertex 22.8978 -0.776457 1
      vertex 21.2 0 1
    endloop
  endfacet
  facet normal 0 0 1
    outer loop
      vertex 20.9193 0.771344 1
      vertex 22.1213 2.12132 1
      vertex 21.5 2.59808 1
    endloop
  endfacet
  facet normal 0 0 1
    outer loop
      vertex 22.8978 -0.776457 1
      vertex 20.9193 -0.771344 1
      vertex 22.5981 -1.5 1
    endloop
  endfacet
  facet normal 0 0 1
    outer loop
      vertex 22.5981 -1.5 1
      vertex 20.9193 -0.771344 1
      vertex 22.1213 -2.12132 1
    endloop
  endfacet
  facet normal 0 0 1
    outer loop
      vertex 22.8978 0.776457 1
      vertex 20.9193 0.771344 1
      vertex 21.2 0 1
    endloop
  endfacet
  facet normal 0 0 1
    outer loop
      vertex 20.2084 1.18177 1
      vertex 21.5 2.59808 1
      vertex 20.7765 2.89778 1
    endloop
  endfacet
  facet normal 0 0 1
    outer loop
      vertex 21.5 2.59808 1
      vertex 20.2084 1.18177 1
      vertex 20.9193 0.771344 1
    endloop
  endfacet
  facet normal 0 0 1
    outer loop
      vertex 20 3 1
      vertex 20.2084 1.18177 1
      vertex 20.7765 2.89778 1
    endloop
  endfacet
  facet normal -0 0 1
    outer loop
      vertex 19.2235 2.89778 1
      vertex 20.2084 1.18177 1
      vertex 20 3 1
    endloop
  endfacet
  facet normal 0 0 1
    outer loop
      vertex 20.2084 1.18177 1
      vertex 19.2235 2.89778 1
      vertex 19.4 1.03923 1
    endloop
  endfacet
  facet normal -0 0 1
    outer loop
      vertex 18.5 2.59808 1
      vertex 19.4 1.03923 1
      vertex 19.2235 2.89778 1
    endloop
  endfacet
  facet normal 0 0 1
    outer loop
      vertex 18.8724 0.410423 1
      vertex 18.5 2.59808 1
      vertex 18.8724 -0.410423 1
    endloop
  endfacet
  facet normal 0 0 1
    outer loop
      vertex 19.4 1.03923 1
      vertex 18.5 2.59808 1
      vertex 18.8724 0.410423 1
    endloop
  endfacet
  facet normal 0 0 1
    outer loop
      vertex 22.1213 -2.12132 1
      vertex 20.9193 -0.771344 1
      vertex 21.5 -2.59808 1
    endloop
  endfacet
  facet normal -0 0 1
    outer loop
      vertex 20.2084 -1.18177 1
      vertex 21.5 -2.59808 1
      vertex 20.9193 -0.771344 1
    endloop
  endfacet
  facet normal 0 0 1
    outer loop
      vertex 21.5 -2.59808 1
      vertex 20.2084 -1.18177 1
      vertex 20.7765 -2.89778 1
    endloop
  endfacet
  facet normal 0 0 1
    outer loop
      vertex 20.2084 -1.18177 1
      vertex 20 -3 1
      vertex 20.7765 -2.89778 1
    endloop
  endfacet
  facet normal 0 0 1
    outer loop
      vertex 19.2235 -2.89778 1
      vertex 20.2084 -1.18177 1
      vertex 19.4 -1.03923 1
    endloop
  endfacet
  facet normal 0 0 1
    outer loop
      vertex 20.2084 -1.18177 1
      vertex 19.2235 -2.89778 1
      vertex 20 -3 1
    endloop
  endfacet
  facet normal 0 0 1
    outer loop
      vertex 18.5 -2.59808 1
      vertex 19.4 -1.03923 1
      vertex 18.8724 -0.410423 1
    endloop
  endfacet
  facet normal 0 0 1
    outer loop
      vertex 19.4 -1.03923 1
      vertex 18.5 -2.59808 1
      vertex 19.2235 -2.89778 1
    endloop
  endfacet
  facet normal 0 0 1
    outer loop
      vertex 18.5 -2.59808 1
      vertex 18.8724 -0.410423 1
      vertex 18.5 2.59808 1
    endloop
  endfacet
  facet normal -0.382701 -0.923872 0
    outer loop
      vertex 18.5 -2.59808 -2
      vertex 19.2235 -2.89778 1
      vertex 18.5 -2.59808 1
    endloop
  endfacet
  facet normal -0.382701 -0.923872 -0
    outer loop
      vertex 19.2235 -2.89778 1
      vertex 18.5 -2.59808 -2
      vertex 19.2235 -2.89778 -2
    endloop
  endfacet
  facet normal -0.793326 -0.608797 0
    outer loop
      vertex 17.8787 -2.12132 -2
      vertex 17.4019 -1.5 1
      vertex 17.4019 -1.5 -2
    endloop
  endfacet
  facet normal -0.793326 -0.608797 0
    outer loop
      vertex 17.4019 -1.5 1
      vertex 17.8787 -2.12132 -2
      vertex 17.8787 -2.12132 1
    endloop
  endfacet
  facet normal 0.608777 -0.793341 0
    outer loop
      vertex 21.5 -2.59808 -2
      vertex 22.1213 -2.12132 1
      vertex 21.5 -2.59808 1
    endloop
  endfacet
  facet normal 0.608777 -0.793341 0
    outer loop
      vertex 22.1213 -2.12132 1
      vertex 21.5 -2.59808 -2
      vertex 22.1213 -2.12132 -2
    endloop
  endfacet
  facet normal 0.991449 -0.130498 0
    outer loop
      vertex 22.8978 -0.776457 1
      vertex 23 0 -2
      vertex 23 0 1
    endloop
  endfacet
  facet normal 0.991449 -0.130498 0
    outer loop
      vertex 23 0 -2
      vertex 22.8978 -0.776457 1
      vertex 22.8978 -0.776457 -2
    endloop
  endfacet
  facet normal -0.130516 -0.991446 0
    outer loop
      vertex 19.2235 -2.89778 -2
      vertex 20 -3 1
      vertex 19.2235 -2.89778 1
    endloop
  endfacet
  facet normal -0.130516 -0.991446 -0
    outer loop
      vertex 20 -3 1
      vertex 19.2235 -2.89778 -2
      vertex 20 -3 -2
    endloop
  endfacet
  facet normal -0.608777 -0.793341 0
    outer loop
      vertex 17.8787 -2.12132 -2
      vertex 18.5 -2.59808 1
      vertex 17.8787 -2.12132 1
    endloop
  endfacet
  facet normal -0.608777 -0.793341 -0
    outer loop
      vertex 18.5 -2.59808 1
      vertex 17.8787 -2.12132 -2
      vertex 18.5 -2.59808 -2
    endloop
  endfacet
  facet normal 0.793326 -0.608797 0
    outer loop
      vertex 22.1213 -2.12132 1
      vertex 22.5981 -1.5 -2
      vertex 22.5981 -1.5 1
    endloop
  endfacet
  facet normal 0.793326 -0.608797 0
    outer loop
      vertex 22.5981 -1.5 -2
      vertex 22.1213 -2.12132 1
      vertex 22.1213 -2.12132 -2
    endloop
  endfacet
  facet normal -0.939711 -0.34197 0
    outer loop
      vertex 21.2 0 -2
      vertex 20.9193 0.771344 1
      vertex 20.9193 0.771344 -2
    endloop
  endfacet
  facet normal -0.939711 -0.34197 0
    outer loop
      vertex 20.9193 0.771344 1
      vertex 21.2 0 -2
      vertex 21.2 0 1
    endloop
  endfacet
  facet normal 1 -0 0
    outer loop
      vertex 18.8724 -0.410423 1
      vertex 18.8724 0.410423 -2
      vertex 18.8724 0.410423 1
    endloop
  endfacet
  facet normal 1 0 0
    outer loop
      vertex 18.8724 0.410423 -2
      vertex 18.8724 -0.410423 1
      vertex 18.8724 -0.410423 -2
    endloop
  endfacet
  facet normal 0.173645 -0.984808 0
    outer loop
      vertex 19.4 1.03923 -2
      vertex 20.2084 1.18177 1
      vertex 19.4 1.03923 1
    endloop
  endfacet
  facet normal 0.173645 -0.984808 0
    outer loop
      vertex 20.2084 1.18177 1
      vertex 19.4 1.03923 -2
      vertex 20.2084 1.18177 -2
    endloop
  endfacet
  facet normal -0.499989 -0.866032 0
    outer loop
      vertex 20.2084 1.18177 -2
      vertex 20.9193 0.771344 1
      vertex 20.2084 1.18177 1
    endloop
  endfacet
  facet normal -0.499989 -0.866032 -0
    outer loop
      vertex 20.9193 0.771344 1
      vertex 20.2084 1.18177 -2
      vertex 20.9193 0.771344 -2
    endloop
  endfacet
  facet normal 0.766063 -0.642765 0
    outer loop
      vertex 18.8724 0.410423 1
      vertex 19.4 1.03923 -2
      vertex 19.4 1.03923 1
    endloop
  endfacet
  facet normal 0.766063 -0.642765 0
    outer loop
      vertex 19.4 1.03923 -2
      vertex 18.8724 0.410423 1
      vertex 18.8724 0.410423 -2
    endloop
  endfacet
  facet normal -0.499989 0.866032 0
    outer loop
      vertex 20.9193 -0.771344 -2
      vertex 20.2084 -1.18177 1
      vertex 20.9193 -0.771344 1
    endloop
  endfacet
  facet normal -0.499989 0.866032 0
    outer loop
      vertex 20.2084 -1.18177 1
      vertex 20.9193 -0.771344 -2
      vertex 20.2084 -1.18177 -2
    endloop
  endfacet
  facet normal 0.766063 0.642765 0
    outer loop
      vertex 19.4 -1.03923 1
      vertex 18.8724 -0.410423 -2
      vertex 18.8724 -0.410423 1
    endloop
  endfacet
  facet normal 0.766063 0.642765 0
    outer loop
      vertex 18.8724 -0.410423 -2
      vertex 19.4 -1.03923 1
      vertex 19.4 -1.03923 -2
    endloop
  endfacet
  facet normal 0.173645 0.984808 -0
    outer loop
      vertex 20.2084 -1.18177 -2
      vertex 19.4 -1.03923 1
      vertex 20.2084 -1.18177 1
    endloop
  endfacet
  facet normal 0.173645 0.984808 0
    outer loop
      vertex 19.4 -1.03923 1
      vertex 20.2084 -1.18177 -2
      vertex 19.4 -1.03923 -2
    endloop
  endfacet
  facet normal -0.939711 0.34197 0
    outer loop
      vertex 20.9193 -0.771344 -2
      vertex 21.2 0 1
      vertex 21.2 0 -2
    endloop
  endfacet
  facet normal -0.939711 0.34197 0
    outer loop
      vertex 21.2 0 1
      vertex 20.9193 -0.771344 -2
      vertex 20.9193 -0.771344 1
    endloop
  endfacet
  facet normal -1 0 0
    outer loop
      vertex -0.5 1.5 7
      vertex -0.5 0.69282 47.1
      vertex -0.5 1.5 50
    endloop
  endfacet
  facet normal -1 0 0
    outer loop
      vertex -0.5 1.5 7
      vertex -0.5 0 46.7
      vertex -0.5 0.69282 47.1
    endloop
  endfacet
  facet normal -1 0 0
    outer loop
      vertex -0.5 -1.5 7
      vertex -0.5 0 46.7
      vertex -0.5 1.5 7
    endloop
  endfacet
  facet normal -1 0 0
    outer loop
      vertex -0.5 -1.5 50
      vertex -0.5 -0.69282 47.1
      vertex -0.5 -1.5 7
    endloop
  endfacet
  facet normal -1 -0 0
    outer loop
      vertex -0.5 0 46.7
      vertex -0.5 -1.5 7
      vertex -0.5 -0.69282 47.1
    endloop
  endfacet
  facet normal -1 0 0
    outer loop
      vertex -0.5 0.69282 47.9
      vertex -0.5 1.5 50
      vertex -0.5 0.69282 47.1
    endloop
  endfacet
  facet normal -1 0 0
    outer loop
      vertex -0.5 0 48.3
      vertex -0.5 1.5 50
      vertex -0.5 0.69282 47.9
    endloop
  endfacet
  facet normal -1 0 0
    outer loop
      vertex -0.5 -1.5 50
      vertex -0.5 0 48.3
      vertex -0.5 -0.69282 47.9
    endloop
  endfacet
  facet normal -1 0 0
    outer loop
      vertex -0.5 0 48.3
      vertex -0.5 -1.5 50
      vertex -0.5 1.5 50
    endloop
  endfacet
  facet normal -1 0 0
    outer loop
      vertex -0.5 -0.69282 47.1
      vertex -0.5 -1.5 50
      vertex -0.5 -0.69282 47.9
    endloop
  endfacet
  facet normal -0 0 1
    outer loop
      vertex -0.5 1.5 50
      vertex 0.5 -1.5 50
      vertex 0.5 1.5 50
    endloop
  endfacet
  facet normal 0 0 1
    outer loop
      vertex 0.5 -1.5 50
      vertex -0.5 1.5 50
      vertex -0.5 -1.5 50
    endloop
  endfacet
  facet normal 1 0 0
    outer loop
      vertex 0.5 0.69282 47.1
      vertex 0.5 1.5 50
      vertex 0.5 0.69282 47.9
    endloop
  endfacet
  facet normal 1 0 0
    outer loop
      vertex 0.5 1.5 50
      vertex 0.5 0 48.3
      vertex 0.5 0.69282 47.9
    endloop
  endfacet
  facet normal 1 -0 0
    outer loop
      vertex 0.5 -1.5 50
      vertex 0.5 0 48.3
      vertex 0.5 1.5 50
    endloop
  endfacet
  facet normal 1 0 0
    outer loop
      vertex 0.5 -0.69282 47.9
      vertex 0.5 -1.5 50
      vertex 0.5 -0.69282 47.1
    endloop
  endfacet
  facet normal 1 0 0
    outer loop
      vertex 0.5 0 48.3
      vertex 0.5 -1.5 50
      vertex 0.5 -0.69282 47.9
    endloop
  endfacet
  facet normal 1 0 0
    outer loop
      vertex 0.5 1.5 50
      vertex 0.5 0.69282 47.1
      vertex 0.5 1.5 7
    endloop
  endfacet
  facet normal 1 -0 0
    outer loop
      vertex 0.5 0 46.7
      vertex 0.5 1.5 7
      vertex 0.5 0.69282 47.1
    endloop
  endfacet
  facet normal 1 0 0
    outer loop
      vertex 0.5 -1.5 7
      vertex 0.5 0 46.7
      vertex 0.5 -0.69282 47.1
    endloop
  endfacet
  facet normal 1 0 0
    outer loop
      vertex 0.5 -1.5 7
      vertex 0.5 -0.69282 47.1
      vertex 0.5 -1.5 50
    endloop
  endfacet
  facet normal 1 0 0
    outer loop
      vertex 0.5 0 46.7
      vertex 0.5 -1.5 7
      vertex 0.5 1.5 7
    endloop
  endfacet
  facet normal 0 -1 0
    outer loop
      vertex -0.5 -1.5 7
      vertex 0.5 -1.5 50
      vertex -0.5 -1.5 50
    endloop
  endfacet
  facet normal 0 -1 -0
    outer loop
      vertex 0.5 -1.5 50
      vertex -0.5 -1.5 7
      vertex 0.5 -1.5 7
    endloop
  endfacet
  facet normal 0 1 -0
    outer loop
      vertex 0.5 1.5 7
      vertex -0.5 1.5 50
      vertex 0.5 1.5 50
    endloop
  endfacet
  facet normal 0 1 0
    outer loop
      vertex -0.5 1.5 50
      vertex 0.5 1.5 7
      vertex -0.5 1.5 7
    endloop
  endfacet
  facet normal 0 -0.5 0.866025
    outer loop
      vertex -0.5 0.69282 47.1
      vertex 0.5 0 46.7
      vertex 0.5 0.69282 47.1
    endloop
  endfacet
  facet normal 0 -0.5 0.866025
    outer loop
      vertex 0.5 0 46.7
      vertex -0.5 0.69282 47.1
      vertex -0.5 0 46.7
    endloop
  endfacet
  facet normal 0 -0.5 -0.866025
    outer loop
      vertex -0.5 0 48.3
      vertex 0.5 0.69282 47.9
      vertex 0.5 0 48.3
    endloop
  endfacet
  facet normal -0 -0.5 -0.866025
    outer loop
      vertex 0.5 0.69282 47.9
      vertex -0.5 0 48.3
      vertex -0.5 0.69282 47.9
    endloop
  endfacet
  facet normal 0 -1 0
    outer loop
      vertex -0.5 0.69282 47.1
      vertex 0.5 0.69282 47.9
      vertex -0.5 0.69282 47.9
    endloop
  endfacet
  facet normal 0 -1 -0
    outer loop
      vertex 0.5 0.69282 47.9
      vertex -0.5 0.69282 47.1
      vertex 0.5 0.69282 47.1
    endloop
  endfacet
  facet normal 0 1 -0
    outer loop
      vertex 0.5 -0.69282 47.1
      vertex -0.5 -0.69282 47.9
      vertex 0.5 -0.69282 47.9
    endloop
  endfacet
  facet normal 0 1 0
    outer loop
      vertex -0.5 -0.69282 47.9
      vertex 0.5 -0.69282 47.1
      vertex -0.5 -0.69282 47.1
    endloop
  endfacet
  facet normal 0 0.5 -0.866025
    outer loop
      vertex -0.5 -0.69282 47.9
      vertex 0.5 0 48.3
      vertex 0.5 -0.69282 47.9
    endloop
  endfacet
  facet normal 0 0.5 -0.866025
    outer loop
      vertex 0.5 0 48.3
      vertex -0.5 -0.69282 47.9
      vertex -0.5 0 48.3
    endloop
  endfacet
  facet normal -0 0.5 0.866025
    outer loop
      vertex -0.5 0 46.7
      vertex 0.5 -0.69282 47.1
      vertex 0.5 0 46.7
    endloop
  endfacet
  facet normal 0 0.5 0.866025
    outer loop
      vertex 0.5 -0.69282 47.1
      vertex -0.5 0 46.7
      vertex -0.5 -0.69282 47.1
    endloop
  endfacet
  facet normal 0.991445 0.130523 0
    outer loop
      vertex 3 0 2
      vertex 2.89778 0.776457 1
      vertex 2.89778 0.776457 2
    endloop
  endfacet
  facet normal 0.991445 0.130523 0
    outer loop
      vertex 2.89778 0.776457 1
      vertex 3 0 2
      vertex 3 0 1
    endloop
  endfacet
  facet normal -0.991445 0.130523 0
    outer loop
      vertex -3 0 -1
      vertex -2.89778 0.776457 2
      vertex -2.89778 0.776457 -1
    endloop
  endfacet
  facet normal -0.991445 0.130523 0
    outer loop
      vertex -2.89778 0.776457 2
      vertex -3 0 -1
      vertex -3 0 2
    endloop
  endfacet
  facet normal 0.130523 0.991445 -0
    outer loop
      vertex 0.776457 2.89778 -1
      vertex 0 3 2
      vertex 0.776457 2.89778 2
    endloop
  endfacet
  facet normal 0.130523 0.991445 0
    outer loop
      vertex 0 3 2
      vertex 0.776457 2.89778 -1
      vertex 0 3 -1
    endloop
  endfacet
  facet normal -0.130523 -0.991445 0
    outer loop
      vertex -0.776457 -2.89778 -1
      vertex 0 -3 2
      vertex -0.776457 -2.89778 2
    endloop
  endfacet
  facet normal -0.130523 -0.991445 -0
    outer loop
      vertex 0 -3 2
      vertex -0.776457 -2.89778 -1
      vertex 0 -3 -1
    endloop
  endfacet
  facet normal 0.608765 0.793351 -0
    outer loop
      vertex 2.12132 2.12132 1
      vertex 1.5 2.59808 2
      vertex 2.12132 2.12132 2
    endloop
  endfacet
  facet normal 0.608765 0.793351 0
    outer loop
      vertex 1.5 2.59808 2
      vertex 2.12132 2.12132 1
      vertex 1.5 2.59808 1
    endloop
  endfacet
  facet normal 0.92388 0.382682 0
    outer loop
      vertex 2.89778 0.776457 2
      vertex 2.59808 1.5 1
      vertex 2.59808 1.5 2
    endloop
  endfacet
  facet normal 0.92388 0.382682 0
    outer loop
      vertex 2.59808 1.5 1
      vertex 2.89778 0.776457 2
      vertex 2.89778 0.776457 1
    endloop
  endfacet
  facet normal 0.382682 0.92388 -0
    outer loop
      vertex 1.5 2.59808 1
      vertex 0.776457 2.89778 2
      vertex 1.5 2.59808 2
    endloop
  endfacet
  facet normal 0.382682 0.92388 0
    outer loop
      vertex 0.776457 2.89778 -1
      vertex 1.5 2.59808 1
      vertex 1.5 2.59808 -1
    endloop
  endfacet
  facet normal 0.382682 0.92388 0
    outer loop
      vertex 1.5 2.59808 1
      vertex 0.776457 2.89778 -1
      vertex 0.776457 2.89778 2
    endloop
  endfacet
  facet normal -0.608765 0.793351 0
    outer loop
      vertex -1.5 2.59808 -1
      vertex -2.12132 2.12132 2
      vertex -1.5 2.59808 2
    endloop
  endfacet
  facet normal -0.608765 0.793351 0
    outer loop
      vertex -2.12132 2.12132 2
      vertex -1.5 2.59808 -1
      vertex -2.12132 2.12132 -1
    endloop
  endfacet
  facet normal -0.793351 0.608765 0
    outer loop
      vertex -2.59808 1.5 -1
      vertex -2.12132 2.12132 2
      vertex -2.12132 2.12132 -1
    endloop
  endfacet
  facet normal -0.793351 0.608765 0
    outer loop
      vertex -2.12132 2.12132 2
      vertex -2.59808 1.5 -1
      vertex -2.59808 1.5 2
    endloop
  endfacet
  facet normal -0.382682 0.92388 0
    outer loop
      vertex -0.776457 2.89778 -1
      vertex -1.5 2.59808 2
      vertex -0.776457 2.89778 2
    endloop
  endfacet
  facet normal -0.382682 0.92388 0
    outer loop
      vertex -1.5 2.59808 2
      vertex -0.776457 2.89778 -1
      vertex -1.5 2.59808 -1
    endloop
  endfacet
  facet normal 0.793351 -0.608765 0
    outer loop
      vertex 2.12132 -2.12132 2
      vertex 2.59808 -1.5 -1
      vertex 2.59808 -1.5 2
    endloop
  endfacet
  facet normal 0.793351 -0.608765 0
    outer loop
      vertex 2.59808 -1.5 -1
      vertex 2.12132 -2.12132 2
      vertex 2.12132 -2.12132 -1
    endloop
  endfacet
  facet normal 0.923872 -0.382703 0
    outer loop
      vertex 2.89778 -0.776457 2
      vertex 2.80518 -1 1
      vertex 2.89778 -0.776457 1
    endloop
  endfacet
  facet normal 0.92388 -0.382682 -5.41999e-06
    outer loop
      vertex 2.59808 -1.5 2
      vertex 2.80518 -1 1
      vertex 2.89778 -0.776457 2
    endloop
  endfacet
  facet normal 0.923884 -0.382673 0
    outer loop
      vertex 2.59808 -1.5 -1
      vertex 2.80518 -1 1
      vertex 2.59808 -1.5 2
    endloop
  endfacet
  facet normal 0.923884 -0.382673 0
    outer loop
      vertex 2.80518 -1 1
      vertex 2.59808 -1.5 -1
      vertex 2.80518 -1 -1
    endloop
  endfacet
  facet normal -0.608765 -0.793351 0
    outer loop
      vertex -2.12132 -2.12132 -1
      vertex -1.5 -2.59808 2
      vertex -2.12132 -2.12132 2
    endloop
  endfacet
  facet normal -0.608765 -0.793351 -0
    outer loop
      vertex -1.5 -2.59808 2
      vertex -2.12132 -2.12132 -1
      vertex -1.5 -2.59808 -1
    endloop
  endfacet
  facet normal -0 0 -1
    outer loop
      vertex 17.1022 -0.776457 -1
      vertex 2.80518 -1 -1
      vertex 17 0 -1
    endloop
  endfacet
  facet normal 0 0 -1
    outer loop
      vertex 2.80518 -1 -1
      vertex 17.1022 -0.776457 -1
      vertex 17.1948 -1 -1
    endloop
  endfacet
  facet normal 0 0 -1
    outer loop
      vertex 17.8787 2.12132 -1
      vertex 18.5 3 -1
      vertex 18.5 2.59808 -1
    endloop
  endfacet
  facet normal 0 0 -1
    outer loop
      vertex 1.5 3 -1
      vertex 17.8787 2.12132 -1
      vertex 17.4019 1.5 -1
    endloop
  endfacet
  facet normal 0 0 -1
    outer loop
      vertex 2.80518 -1 -1
      vertex 17.1022 0.776457 -1
      vertex 17 0 -1
    endloop
  endfacet
  facet normal 0 0 -1
    outer loop
      vertex 1.5 3 -1
      vertex 17.1022 0.776457 -1
      vertex 2.80518 -1 -1
    endloop
  endfacet
  facet normal 0 0 -1
    outer loop
      vertex 17.1022 0.776457 -1
      vertex 1.5 3 -1
      vertex 17.4019 1.5 -1
    endloop
  endfacet
  facet normal 0 0 -1
    outer loop
      vertex 2.12132 -2.12132 -1
      vertex 2.80518 -1 -1
      vertex 2.59808 -1.5 -1
    endloop
  endfacet
  facet normal 0 0 -1
    outer loop
      vertex 1.5 -2.59808 -1
      vertex 2.80518 -1 -1
      vertex 2.12132 -2.12132 -1
    endloop
  endfacet
  facet normal 0 0 -1
    outer loop
      vertex 0.776457 -2.89778 -1
      vertex 2.80518 -1 -1
      vertex 1.5 -2.59808 -1
    endloop
  endfacet
  facet normal 0 0 -1
    outer loop
      vertex 1.5 3 -1
      vertex 2.80518 -1 -1
      vertex 1.5 2.59808 -1
    endloop
  endfacet
  facet normal 0 0 -1
    outer loop
      vertex 17.8787 2.12132 -1
      vertex 1.5 3 -1
      vertex 18.5 3 -1
    endloop
  endfacet
  facet normal 0 0 -1
    outer loop
      vertex 0 -3 -1
      vertex 2.80518 -1 -1
      vertex 0.776457 -2.89778 -1
    endloop
  endfacet
  facet normal 0 0 -1
    outer loop
      vertex 2.80518 -1 -1
      vertex 0.776457 2.89778 -1
      vertex 1.5 2.59808 -1
    endloop
  endfacet
  facet normal -0 0 -1
    outer loop
      vertex 2.80518 -1 -1
      vertex 0 -3 -1
      vertex 0.776457 2.89778 -1
    endloop
  endfacet
  facet normal 0 0 -1
    outer loop
      vertex 0 -3 -1
      vertex 0 3 -1
      vertex 0.776457 2.89778 -1
    endloop
  endfacet
  facet normal 0 0 -1
    outer loop
      vertex -0.776457 -2.89778 -1
      vertex 0 3 -1
      vertex 0 -3 -1
    endloop
  endfacet
  facet normal 0 0 -1
    outer loop
      vertex -0.776457 -2.89778 -1
      vertex -0.776457 2.89778 -1
      vertex 0 3 -1
    endloop
  endfacet
  facet normal 0 0 -1
    outer loop
      vertex -1.5 -2.59808 -1
      vertex -0.776457 2.89778 -1
      vertex -0.776457 -2.89778 -1
    endloop
  endfacet
  facet normal 0 0 -1
    outer loop
      vertex -1.5 -2.59808 -1
      vertex -1.5 2.59808 -1
      vertex -0.776457 2.89778 -1
    endloop
  endfacet
  facet normal 0 0 -1
    outer loop
      vertex -2.12132 -2.12132 -1
      vertex -1.5 2.59808 -1
      vertex -1.5 -2.59808 -1
    endloop
  endfacet
  facet normal 0 0 -1
    outer loop
      vertex -2.12132 -2.12132 -1
      vertex -2.12132 2.12132 -1
      vertex -1.5 2.59808 -1
    endloop
  endfacet
  facet normal 0 0 -1
    outer loop
      vertex -2.59808 -1.5 -1
      vertex -2.12132 2.12132 -1
      vertex -2.12132 -2.12132 -1
    endloop
  endfacet
  facet normal 0 0 -1
    outer loop
      vertex -2.59808 -1.5 -1
      vertex -2.59808 1.5 -1
      vertex -2.12132 2.12132 -1
    endloop
  endfacet
  facet normal 0 0 -1
    outer loop
      vertex -2.89778 -0.776457 -1
      vertex -2.59808 1.5 -1
      vertex -2.59808 -1.5 -1
    endloop
  endfacet
  facet normal 0 0 -1
    outer loop
      vertex -2.89778 -0.776457 -1
      vertex -2.89778 0.776457 -1
      vertex -2.59808 1.5 -1
    endloop
  endfacet
  facet normal 0 -0 -1
    outer loop
      vertex -2.89778 0.776457 -1
      vertex -2.89778 -0.776457 -1
      vertex -3 0 -1
    endloop
  endfacet
  facet normal 0.793351 0.608765 0
    outer loop
      vertex 2.59808 1.5 2
      vertex 2.12132 2.12132 1
      vertex 2.12132 2.12132 2
    endloop
  endfacet
  facet normal 0.793351 0.608765 0
    outer loop
      vertex 2.12132 2.12132 1
      vertex 2.59808 1.5 2
      vertex 2.59808 1.5 1
    endloop
  endfacet
  facet normal -0.92388 0.382682 0
    outer loop
      vertex -2.89778 0.776457 -1
      vertex -2.59808 1.5 2
      vertex -2.59808 1.5 -1
    endloop
  endfacet
  facet normal -0.92388 0.382682 0
    outer loop
      vertex -2.59808 1.5 2
      vertex -2.89778 0.776457 -1
      vertex -2.89778 0.776457 2
    endloop
  endfacet
  facet normal 0 0 1
    outer loop
      vertex 2 0 2
      vertex 3 0 2
      vertex 2.89778 0.776457 2
    endloop
  endfacet
  facet normal 0 0 1
    outer loop
      vertex 1.84776 0.765367 2
      vertex 2.89778 0.776457 2
      vertex 2.59808 1.5 2
    endloop
  endfacet
  facet normal 0 0 1
    outer loop
      vertex 3 0 2
      vertex 2 0 2
      vertex 2.89778 -0.776457 2
    endloop
  endfacet
  facet normal 0 0 1
    outer loop
      vertex 1.41421 1.41421 2
      vertex 2.59808 1.5 2
      vertex 2.12132 2.12132 2
    endloop
  endfacet
  facet normal -0 0 1
    outer loop
      vertex 1.84776 -0.765367 2
      vertex 2.89778 -0.776457 2
      vertex 2 0 2
    endloop
  endfacet
  facet normal 0 0 1
    outer loop
      vertex 2.89778 -0.776457 2
      vertex 1.84776 -0.765367 2
      vertex 2.59808 -1.5 2
    endloop
  endfacet
  facet normal 0 0 1
    outer loop
      vertex 2.89778 0.776457 2
      vertex 1.84776 0.765367 2
      vertex 2 0 2
    endloop
  endfacet
  facet normal 0 0 1
    outer loop
      vertex 1.41421 1.41421 2
      vertex 2.12132 2.12132 2
      vertex 1.5 2.59808 2
    endloop
  endfacet
  facet normal 0 0 1
    outer loop
      vertex 2.59808 1.5 2
      vertex 1.41421 1.41421 2
      vertex 1.84776 0.765367 2
    endloop
  endfacet
  facet normal 0 0 1
    outer loop
      vertex 0.765367 1.84776 2
      vertex 1.5 2.59808 2
      vertex 0.776457 2.89778 2
    endloop
  endfacet
  facet normal 0 0 1
    outer loop
      vertex 1.5 2.59808 2
      vertex 0.765367 1.84776 2
      vertex 1.41421 1.41421 2
    endloop
  endfacet
  facet normal 0 0 1
    outer loop
      vertex 0 2 2
      vertex 0.776457 2.89778 2
      vertex 0 3 2
    endloop
  endfacet
  facet normal 0 0 1
    outer loop
      vertex 0.776457 2.89778 2
      vertex 0 2 2
      vertex 0.765367 1.84776 2
    endloop
  endfacet
  facet normal -0 0 1
    outer loop
      vertex -0.776457 2.89778 2
      vertex 0 2 2
      vertex 0 3 2
    endloop
  endfacet
  facet normal 0 0 1
    outer loop
      vertex 0 2 2
      vertex -0.776457 2.89778 2
      vertex -0.765367 1.84776 2
    endloop
  endfacet
  facet normal -0 0 1
    outer loop
      vertex -1.5 2.59808 2
      vertex -0.765367 1.84776 2
      vertex -0.776457 2.89778 2
    endloop
  endfacet
  facet normal 0 0 1
    outer loop
      vertex -0.765367 1.84776 2
      vertex -1.5 2.59808 2
      vertex -1.41421 1.41421 2
    endloop
  endfacet
  facet normal -0 0 1
    outer loop
      vertex -2.12132 2.12132 2
      vertex -1.41421 1.41421 2
      vertex -1.5 2.59808 2
    endloop
  endfacet
  facet normal -0 0 1
    outer loop
      vertex -2.59808 1.5 2
      vertex -1.41421 1.41421 2
      vertex -2.12132 2.12132 2
    endloop
  endfacet
  facet normal 0 0 1
    outer loop
      vertex -1.41421 1.41421 2
      vertex -2.59808 1.5 2
      vertex -1.84776 0.765367 2
    endloop
  endfacet
  facet normal -0 0 1
    outer loop
      vertex 1.41421 -1.41421 2
      vertex 2.59808 -1.5 2
      vertex 1.84776 -0.765367 2
    endloop
  endfacet
  facet normal 0 0 1
    outer loop
      vertex 2.59808 -1.5 2
      vertex 1.41421 -1.41421 2
      vertex 2.12132 -2.12132 2
    endloop
  endfacet
  facet normal 0 0 1
    outer loop
      vertex 2.12132 -2.12132 2
      vertex 1.41421 -1.41421 2
      vertex 1.5 -2.59808 2
    endloop
  endfacet
  facet normal -0 0 1
    outer loop
      vertex 0.765367 -1.84776 2
      vertex 1.5 -2.59808 2
      vertex 1.41421 -1.41421 2
    endloop
  endfacet
  facet normal 0 0 1
    outer loop
      vertex 1.5 -2.59808 2
      vertex 0.765367 -1.84776 2
      vertex 0.776457 -2.89778 2
    endloop
  endfacet
  facet normal -0 0 1
    outer loop
      vertex 0 -2 2
      vertex 0.776457 -2.89778 2
      vertex 0.765367 -1.84776 2
    endloop
  endfacet
  facet normal 0 0 1
    outer loop
      vertex 0 -2 2
      vertex 0 -3 2
      vertex 0.776457 -2.89778 2
    endloop
  endfacet
  facet normal 0 0 1
    outer loop
      vertex -0.776457 -2.89778 2
      vertex 0 -2 2
      vertex -0.765367 -1.84776 2
    endloop
  endfacet
  facet normal 0 0 1
    outer loop
      vertex 0 -2 2
      vertex -0.776457 -2.89778 2
      vertex 0 -3 2
    endloop
  endfacet
  facet normal 0 0 1
    outer loop
      vertex -1.5 -2.59808 2
      vertex -0.765367 -1.84776 2
      vertex -1.41421 -1.41421 2
    endloop
  endfacet
  facet normal 0 0 1
    outer loop
      vertex -0.765367 -1.84776 2
      vertex -1.5 -2.59808 2
      vertex -0.776457 -2.89778 2
    endloop
  endfacet
  facet normal 0 0 1
    outer loop
      vertex -2.59808 -1.5 2
      vertex -1.41421 -1.41421 2
      vertex -1.84776 -0.765367 2
    endloop
  endfacet
  facet normal 0 0 1
    outer loop
      vertex -2.89778 -0.776457 2
      vertex -1.84776 -0.765367 2
      vertex -2 0 2
    endloop
  endfacet
  facet normal 0 0 1
    outer loop
      vertex -1.41421 -1.41421 2
      vertex -2.12132 -2.12132 2
      vertex -1.5 -2.59808 2
    endloop
  endfacet
  facet normal -0 0 1
    outer loop
      vertex -2.89778 0.776457 2
      vertex -1.84776 0.765367 2
      vertex -2.59808 1.5 2
    endloop
  endfacet
  facet normal 0 0 1
    outer loop
      vertex -1.84776 0.765367 2
      vertex -2.89778 0.776457 2
      vertex -2 0 2
    endloop
  endfacet
  facet normal 0 0 1
    outer loop
      vertex -1.41421 -1.41421 2
      vertex -2.59808 -1.5 2
      vertex -2.12132 -2.12132 2
    endloop
  endfacet
  facet normal 0 0 1
    outer loop
      vertex -3 0 2
      vertex -2 0 2
      vertex -2.89778 0.776457 2
    endloop
  endfacet
  facet normal 0 0 1
    outer loop
      vertex -1.84776 -0.765367 2
      vertex -2.89778 -0.776457 2
      vertex -2.59808 -1.5 2
    endloop
  endfacet
  facet normal 0 0 1
    outer loop
      vertex -2 0 2
      vertex -3 0 2
      vertex -2.89778 -0.776457 2
    endloop
  endfacet
  facet normal -0.130523 0.991445 0
    outer loop
      vertex 0 3 -1
      vertex -0.776457 2.89778 2
      vertex 0 3 2
    endloop
  endfacet
  facet normal -0.130523 0.991445 0
    outer loop
      vertex -0.776457 2.89778 2
      vertex 0 3 -1
      vertex -0.776457 2.89778 -1
    endloop
  endfacet
  facet normal 0.991445 -0.130523 0
    outer loop
      vertex 2.89778 -0.776457 2
      vertex 3 0 1
      vertex 3 0 2
    endloop
  endfacet
  facet normal 0.991445 -0.130523 0
    outer loop
      vertex 3 0 1
      vertex 2.89778 -0.776457 2
      vertex 2.89778 -0.776457 1
    endloop
  endfacet
  facet normal 0.130523 -0.991445 0
    outer loop
      vertex 0 -3 -1
      vertex 0.776457 -2.89778 2
      vertex 0 -3 2
    endloop
  endfacet
  facet normal 0.130523 -0.991445 0
    outer loop
      vertex 0.776457 -2.89778 2
      vertex 0 -3 -1
      vertex 0.776457 -2.89778 -1
    endloop
  endfacet
  facet normal 0.608765 -0.793351 0
    outer loop
      vertex 1.5 -2.59808 -1
      vertex 2.12132 -2.12132 2
      vertex 1.5 -2.59808 2
    endloop
  endfacet
  facet normal 0.608765 -0.793351 0
    outer loop
      vertex 2.12132 -2.12132 2
      vertex 1.5 -2.59808 -1
      vertex 2.12132 -2.12132 -1
    endloop
  endfacet
  facet normal -0.382682 -0.92388 0
    outer loop
      vertex -1.5 -2.59808 -1
      vertex -0.776457 -2.89778 2
      vertex -1.5 -2.59808 2
    endloop
  endfacet
  facet normal -0.382682 -0.92388 -0
    outer loop
      vertex -0.776457 -2.89778 2
      vertex -1.5 -2.59808 -1
      vertex -0.776457 -2.89778 -1
    endloop
  endfacet
  facet normal -0.793351 -0.608765 0
    outer loop
      vertex -2.12132 -2.12132 -1
      vertex -2.59808 -1.5 2
      vertex -2.59808 -1.5 -1
    endloop
  endfacet
  facet normal -0.793351 -0.608765 0
    outer loop
      vertex -2.59808 -1.5 2
      vertex -2.12132 -2.12132 -1
      vertex -2.12132 -2.12132 2
    endloop
  endfacet
  facet normal -0.991445 -0.130523 0
    outer loop
      vertex -2.89778 -0.776457 -1
      vertex -3 0 2
      vertex -3 0 -1
    endloop
  endfacet
  facet normal -0.991445 -0.130523 0
    outer loop
      vertex -3 0 2
      vertex -2.89778 -0.776457 -1
      vertex -2.89778 -0.776457 2
    endloop
  endfacet
  facet normal 0.382682 -0.92388 0
    outer loop
      vertex 0.776457 -2.89778 -1
      vertex 1.5 -2.59808 2
      vertex 0.776457 -2.89778 2
    endloop
  endfacet
  facet normal 0.382682 -0.92388 0
    outer loop
      vertex 1.5 -2.59808 2
      vertex 0.776457 -2.89778 -1
      vertex 1.5 -2.59808 -1
    endloop
  endfacet
  facet normal -0.92388 -0.382682 0
    outer loop
      vertex -2.59808 -1.5 -1
      vertex -2.89778 -0.776457 2
      vertex -2.89778 -0.776457 -1
    endloop
  endfacet
  facet normal -0.92388 -0.382682 0
    outer loop
      vertex -2.89778 -0.776457 2
      vertex -2.59808 -1.5 -1
      vertex -2.59808 -1.5 2
    endloop
  endfacet
  facet normal 0.980786 0.195089 0
    outer loop
      vertex 2 0 7
      vertex 1.84776 0.765367 2
      vertex 1.84776 0.765367 7
    endloop
  endfacet
  facet normal 0.980786 0.195089 0
    outer loop
      vertex 1.84776 0.765367 2
      vertex 2 0 7
      vertex 2 0 2
    endloop
  endfacet
  facet normal -0.980786 0.195089 0
    outer loop
      vertex -2 0 2
      vertex -1.84776 0.765367 7
      vertex -1.84776 0.765367 2
    endloop
  endfacet
  facet normal -0.980786 0.195089 0
    outer loop
      vertex -1.84776 0.765367 7
      vertex -2 0 2
      vertex -2 0 7
    endloop
  endfacet
  facet normal 0.195089 0.980786 -0
    outer loop
      vertex 0.765367 1.84776 2
      vertex 0 2 7
      vertex 0.765367 1.84776 7
    endloop
  endfacet
  facet normal 0.195089 0.980786 0
    outer loop
      vertex 0 2 7
      vertex 0.765367 1.84776 2
      vertex 0 2 2
    endloop
  endfacet
  facet normal 0.831465 0.555576 0
    outer loop
      vertex 1.84776 0.765367 7
      vertex 1.41421 1.41421 2
      vertex 1.41421 1.41421 7
    endloop
  endfacet
  facet normal 0.831465 0.555576 0
    outer loop
      vertex 1.41421 1.41421 2
      vertex 1.84776 0.765367 7
      vertex 1.84776 0.765367 2
    endloop
  endfacet
  facet normal -0.195089 -0.980786 0
    outer loop
      vertex -0.765367 -1.84776 2
      vertex 0 -2 7
      vertex -0.765367 -1.84776 7
    endloop
  endfacet
  facet normal -0.195089 -0.980786 -0
    outer loop
      vertex 0 -2 7
      vertex -0.765367 -1.84776 2
      vertex 0 -2 2
    endloop
  endfacet
  facet normal 0.195089 -0.980786 0
    outer loop
      vertex 0 -2 2
      vertex 0.765367 -1.84776 7
      vertex 0 -2 7
    endloop
  endfacet
  facet normal 0.195089 -0.980786 0
    outer loop
      vertex 0.765367 -1.84776 7
      vertex 0 -2 2
      vertex 0.765367 -1.84776 2
    endloop
  endfacet
  facet normal 0.555576 0.831465 -0
    outer loop
      vertex 1.41421 1.41421 2
      vertex 0.765367 1.84776 7
      vertex 1.41421 1.41421 7
    endloop
  endfacet
  facet normal 0.555576 0.831465 0
    outer loop
      vertex 0.765367 1.84776 7
      vertex 1.41421 1.41421 2
      vertex 0.765367 1.84776 2
    endloop
  endfacet
  facet normal -0.555576 0.831465 0
    outer loop
      vertex -0.765367 1.84776 2
      vertex -1.41421 1.41421 7
      vertex -0.765367 1.84776 7
    endloop
  endfacet
  facet normal -0.555576 0.831465 0
    outer loop
      vertex -1.41421 1.41421 7
      vertex -0.765367 1.84776 2
      vertex -1.41421 1.41421 2
    endloop
  endfacet
  facet normal -0.831465 0.555576 0
    outer loop
      vertex -1.84776 0.765367 2
      vertex -1.41421 1.41421 7
      vertex -1.41421 1.41421 2
    endloop
  endfacet
  facet normal -0.831465 0.555576 0
    outer loop
      vertex -1.41421 1.41421 7
      vertex -1.84776 0.765367 2
      vertex -1.84776 0.765367 7
    endloop
  endfacet
  facet normal 0 0 1
    outer loop
      vertex 0.5 1.5 7
      vertex 2 0 7
      vertex 1.84776 0.765367 7
    endloop
  endfacet
  facet normal 0 0 1
    outer loop
      vertex 0.5 1.5 7
      vertex 1.84776 0.765367 7
      vertex 1.41421 1.41421 7
    endloop
  endfacet
  facet normal 0 0 1
    outer loop
      vertex 0.5 -1.5 7
      vertex 2 0 7
      vertex 0.5 1.5 7
    endloop
  endfacet
  facet normal -0 0 1
    outer loop
      vertex 0.5 1.5 7
      vertex 1.41421 1.41421 7
      vertex 0.765367 1.84776 7
    endloop
  endfacet
  facet normal 0 0 1
    outer loop
      vertex 2 0 7
      vertex 0.5 -1.5 7
      vertex 1.84776 -0.765367 7
    endloop
  endfacet
  facet normal 0 0 1
    outer loop
      vertex 1.84776 -0.765367 7
      vertex 0.5 -1.5 7
      vertex 1.41421 -1.41421 7
    endloop
  endfacet
  facet normal 0 0 1
    outer loop
      vertex 0 2 7
      vertex 0.5 1.5 7
      vertex 0.765367 1.84776 7
    endloop
  endfacet
  facet normal 0 0 1
    outer loop
      vertex 0 2 7
      vertex -0.5 1.5 7
      vertex 0.5 1.5 7
    endloop
  endfacet
  facet normal 0 0 1
    outer loop
      vertex -1.41421 1.41421 7
      vertex -0.5 1.5 7
      vertex -0.765367 1.84776 7
    endloop
  endfacet
  facet normal -0 0 1
    outer loop
      vertex -0.765367 1.84776 7
      vertex -0.5 1.5 7
      vertex 0 2 7
    endloop
  endfacet
  facet normal 0 0 1
    outer loop
      vertex 1.41421 -1.41421 7
      vertex 0.5 -1.5 7
      vertex 0.765367 -1.84776 7
    endloop
  endfacet
  facet normal 0 0 1
    outer loop
      vertex 0.5 -1.5 7
      vertex 0 -2 7
      vertex 0.765367 -1.84776 7
    endloop
  endfacet
  facet normal -0 0 1
    outer loop
      vertex -0.5 -1.5 7
      vertex 0 -2 7
      vertex 0.5 -1.5 7
    endloop
  endfacet
  facet normal 0 0 1
    outer loop
      vertex -0.5 -1.5 7
      vertex -0.765367 -1.84776 7
      vertex 0 -2 7
    endloop
  endfacet
  facet normal 0 0 1
    outer loop
      vertex -1.84776 0.765367 7
      vertex -0.5 1.5 7
      vertex -1.41421 1.41421 7
    endloop
  endfacet
  facet normal 0 0 1
    outer loop
      vertex -2 0 7
      vertex -0.5 1.5 7
      vertex -1.84776 0.765367 7
    endloop
  endfacet
  facet normal 0 0 1
    outer loop
      vertex -0.5 -1.5 7
      vertex -1.41421 -1.41421 7
      vertex -0.765367 -1.84776 7
    endloop
  endfacet
  facet normal 0 0 1
    outer loop
      vertex -0.5 1.5 7
      vertex -2 0 7
      vertex -0.5 -1.5 7
    endloop
  endfacet
  facet normal 0 0 1
    outer loop
      vertex -0.5 -1.5 7
      vertex -1.84776 -0.765367 7
      vertex -1.41421 -1.41421 7
    endloop
  endfacet
  facet normal 0 0 1
    outer loop
      vertex -0.5 -1.5 7
      vertex -2 0 7
      vertex -1.84776 -0.765367 7
    endloop
  endfacet
  facet normal -0.195089 0.980786 0
    outer loop
      vertex 0 2 2
      vertex -0.765367 1.84776 7
      vertex 0 2 7
    endloop
  endfacet
  facet normal -0.195089 0.980786 0
    outer loop
      vertex -0.765367 1.84776 7
      vertex 0 2 2
      vertex -0.765367 1.84776 2
    endloop
  endfacet
  facet normal -0.555576 -0.831465 0
    outer loop
      vertex -1.41421 -1.41421 2
      vertex -0.765367 -1.84776 7
      vertex -1.41421 -1.41421 7
    endloop
  endfacet
  facet normal -0.555576 -0.831465 -0
    outer loop
      vertex -0.765367 -1.84776 7
      vertex -1.41421 -1.41421 2
      vertex -0.765367 -1.84776 2
    endloop
  endfacet
  facet normal -0.980786 -0.195089 0
    outer loop
      vertex -1.84776 -0.765367 2
      vertex -2 0 7
      vertex -2 0 2
    endloop
  endfacet
  facet normal -0.980786 -0.195089 0
    outer loop
      vertex -2 0 7
      vertex -1.84776 -0.765367 2
      vertex -1.84776 -0.765367 7
    endloop
  endfacet
  facet normal 0.980786 -0.195089 0
    outer loop
      vertex 1.84776 -0.765367 7
      vertex 2 0 2
      vertex 2 0 7
    endloop
  endfacet
  facet normal 0.980786 -0.195089 0
    outer loop
      vertex 2 0 2
      vertex 1.84776 -0.765367 7
      vertex 1.84776 -0.765367 2
    endloop
  endfacet
  facet normal 0.555576 -0.831465 0
    outer loop
      vertex 0.765367 -1.84776 2
      vertex 1.41421 -1.41421 7
      vertex 0.765367 -1.84776 7
    endloop
  endfacet
  facet normal 0.555576 -0.831465 0
    outer loop
      vertex 1.41421 -1.41421 7
      vertex 0.765367 -1.84776 2
      vertex 1.41421 -1.41421 2
    endloop
  endfacet
  facet normal 0.831465 -0.555576 0
    outer loop
      vertex 1.41421 -1.41421 7
      vertex 1.84776 -0.765367 2
      vertex 1.84776 -0.765367 7
    endloop
  endfacet
  facet normal 0.831465 -0.555576 0
    outer loop
      vertex 1.84776 -0.765367 2
      vertex 1.41421 -1.41421 7
      vertex 1.41421 -1.41421 2
    endloop
  endfacet
  facet normal -0.831465 -0.555576 0
    outer loop
      vertex -1.41421 -1.41421 2
      vertex -1.84776 -0.765367 7
      vertex -1.84776 -0.765367 2
    endloop
  endfacet
  facet normal -0.831465 -0.555576 0
    outer loop
      vertex -1.84776 -0.765367 7
      vertex -1.41421 -1.41421 2
      vertex -1.41421 -1.41421 7
    endloop
  endfacet
  facet normal -1 0 0
    outer loop
      vertex 1.5 2.59808 -1
      vertex 1.5 3 1
      vertex 1.5 3 -1
    endloop
  endfacet
  facet normal -1 -0 0
    outer loop
      vertex 1.5 3 1
      vertex 1.5 2.59808 -1
      vertex 1.5 2.59808 1
    endloop
  endfacet
  facet normal 1 -0 0
    outer loop
      vertex 18.5 2.59808 1
      vertex 18.5 3 -1
      vertex 18.5 3 1
    endloop
  endfacet
  facet normal 1 0 0
    outer loop
      vertex 18.5 3 -1
      vertex 18.5 2.59808 1
      vertex 18.5 2.59808 -1
    endloop
  endfacet
  facet normal 0 1 -0
    outer loop
      vertex 18.5 3 -1
      vertex 1.5 3 1
      vertex 18.5 3 1
    endloop
  endfacet
  facet normal 0 1 0
    outer loop
      vertex 1.5 3 1
      vertex 18.5 3 -1
      vertex 1.5 3 -1
    endloop
  endfacet
  facet normal 0 -1 0
    outer loop
      vertex 2.80518 -1 -1
      vertex 17.1948 -1 1
      vertex 2.80518 -1 1
    endloop
  endfacet
  facet normal 0 -1 -0
    outer loop
      vertex 17.1948 -1 1
      vertex 2.80518 -1 -1
      vertex 17.1948 -1 -1
    endloop
  endfacet
endsolid OpenSCAD_Model
