solid OpenSCAD_Model
  facet normal -1 0 0
    outer loop
      vertex -0.5 50 -3
      vertex -0.5 48.3 -1
      vertex -0.5 50 1
    endloop
  endfacet
  facet normal -1 0 0
    outer loop
      vertex -0.5 50 -3
      vertex -0.5 47.9 -1.69282
      vertex -0.5 48.3 -1
    endloop
  endfacet
  facet normal -1 0 0
    outer loop
      vertex -0.5 50 -3
      vertex -0.5 47.1 -1.69282
      vertex -0.5 47.9 -1.69282
    endloop
  endfacet
  facet normal -1 -0 0
    outer loop
      vertex -0.5 47.1 -1.69282
      vertex -0.5 15 -2.90054
      vertex -0.5 46.7 -1
    endloop
  endfacet
  facet normal -1 0 0
    outer loop
      vertex -0.5 50 -3
      vertex -0.5 15 -2.90054
      vertex -0.5 47.1 -1.69282
    endloop
  endfacet
  facet normal -1 0 0
    outer loop
      vertex -0.5 0 -3
      vertex -0.5 15 -2.90054
      vertex -0.5 50 -3
    endloop
  endfacet
  facet normal -1 0 0
    outer loop
      vertex -0.5 15 -2.90054
      vertex -0.5 0 -3
      vertex -0.5 2 -2.93417
    endloop
  endfacet
  facet normal -1 -0 0
    outer loop
      vertex -0.5 2 -2.93417
      vertex -0.5 0 -3
      vertex -0.5 0 -2.93417
    endloop
  endfacet
  facet normal -1 0 0
    outer loop
      vertex -0.5 47.9 -0.307179
      vertex -0.5 50 1
      vertex -0.5 48.3 -1
    endloop
  endfacet
  facet normal -1 0 0
    outer loop
      vertex -0.5 47.1 -0.307179
      vertex -0.5 50 1
      vertex -0.5 47.9 -0.307179
    endloop
  endfacet
  facet normal -1 0 0
    outer loop
      vertex -0.5 15 0.900543
      vertex -0.5 46.7 -1
      vertex -0.5 15 -2.90054
    endloop
  endfacet
  facet normal -1 0 0
    outer loop
      vertex -0.5 46.7 -1
      vertex -0.5 15 0.900543
      vertex -0.5 47.1 -0.307179
    endloop
  endfacet
  facet normal -1 0 0
    outer loop
      vertex -0.5 47.1 -0.307179
      vertex -0.5 15 0.900543
      vertex -0.5 50 1
    endloop
  endfacet
  facet normal -1 0 0
    outer loop
      vertex -0.5 2 1
      vertex -0.5 15 0.900543
      vertex -0.5 2 0.900543
    endloop
  endfacet
  facet normal -1 0 0
    outer loop
      vertex -0.5 15 0.900543
      vertex -0.5 2 1
      vertex -0.5 50 1
    endloop
  endfacet
  facet normal -1 -0 0
    outer loop
      vertex -0.5 15 -2.90054
      vertex -0.5 2 -2.93417
      vertex -0.5 2 -2.90054
    endloop
  endfacet
  facet normal 0 1 -0
    outer loop
      vertex 0.5 50 -3
      vertex -0.5 50 1
      vertex 0.5 50 1
    endloop
  endfacet
  facet normal 0 1 0
    outer loop
      vertex -0.5 50 1
      vertex 0.5 50 -3
      vertex -0.5 50 -3
    endloop
  endfacet
  facet normal 1 0 0
    outer loop
      vertex 0.5 50 1
      vertex 0.5 48.3 -1
      vertex 0.5 50 -3
    endloop
  endfacet
  facet normal 1 0 0
    outer loop
      vertex 0.5 50 1
      vertex 0.5 47.9 -0.307179
      vertex 0.5 48.3 -1
    endloop
  endfacet
  facet normal 1 0 0
    outer loop
      vertex 0.5 50 1
      vertex 0.5 47.1 -0.307179
      vertex 0.5 47.9 -0.307179
    endloop
  endfacet
  facet normal 1 0 0
    outer loop
      vertex 0.5 47.1 -0.307179
      vertex 0.5 15 0.900543
      vertex 0.5 46.7 -1
    endloop
  endfacet
  facet normal 1 0 0
    outer loop
      vertex 0.5 50 1
      vertex 0.5 15 0.900543
      vertex 0.5 47.1 -0.307179
    endloop
  endfacet
  facet normal 1 -0 0
    outer loop
      vertex 0.5 2 1
      vertex 0.5 15 0.900543
      vertex 0.5 50 1
    endloop
  endfacet
  facet normal 1 0 0
    outer loop
      vertex 0.5 15 0.900543
      vertex 0.5 2 1
      vertex 0.5 2 0.900543
    endloop
  endfacet
  facet normal 1 -0 0
    outer loop
      vertex 0.5 47.9 -1.69282
      vertex 0.5 50 -3
      vertex 0.5 48.3 -1
    endloop
  endfacet
  facet normal 1 -0 0
    outer loop
      vertex 0.5 47.1 -1.69282
      vertex 0.5 50 -3
      vertex 0.5 47.9 -1.69282
    endloop
  endfacet
  facet normal 1 0 0
    outer loop
      vertex 0.5 15 -2.90054
      vertex 0.5 46.7 -1
      vertex 0.5 15 0.900543
    endloop
  endfacet
  facet normal 1 0 0
    outer loop
      vertex 0.5 46.7 -1
      vertex 0.5 15 -2.90054
      vertex 0.5 47.1 -1.69282
    endloop
  endfacet
  facet normal 1 0 0
    outer loop
      vertex 0.5 47.1 -1.69282
      vertex 0.5 15 -2.90054
      vertex 0.5 50 -3
    endloop
  endfacet
  facet normal 1 0 0
    outer loop
      vertex 0.5 2 -2.93417
      vertex 0.5 15 -2.90054
      vertex 0.5 2 -2.90054
    endloop
  endfacet
  facet normal 1 0 0
    outer loop
      vertex 0.5 0 -3
      vertex 0.5 15 -2.90054
      vertex 0.5 2 -2.93417
    endloop
  endfacet
  facet normal 1 0 0
    outer loop
      vertex 0.5 0 -3
      vertex 0.5 2 -2.93417
      vertex 0.5 0 -2.93417
    endloop
  endfacet
  facet normal 1 0 0
    outer loop
      vertex 0.5 15 -2.90054
      vertex 0.5 0 -3
      vertex 0.5 50 -3
    endloop
  endfacet
  facet normal 0 -1 0
    outer loop
      vertex 0 0 -3
      vertex -0.5 0 -2.93417
      vertex -0.5 0 -3
    endloop
  endfacet
  facet normal 0 -1 -0
    outer loop
      vertex 0.5 0 -2.93417
      vertex 0 0 -3
      vertex 0.5 0 -3
    endloop
  endfacet
  facet normal -0 0 1
    outer loop
      vertex -0.5 50 1
      vertex 0.5 2 1
      vertex 0.5 50 1
    endloop
  endfacet
  facet normal 0 0 1
    outer loop
      vertex 0.5 2 1
      vertex -0.5 50 1
      vertex -0.5 2 1
    endloop
  endfacet
  facet normal 0 0 -1
    outer loop
      vertex 0 0 -3
      vertex 0.5 50 -3
      vertex 0.5 0 -3
    endloop
  endfacet
  facet normal 0 0 -1
    outer loop
      vertex -0.5 0 -3
      vertex 0.5 50 -3
      vertex 0 0 -3
    endloop
  endfacet
  facet normal -0 0 -1
    outer loop
      vertex 0.5 50 -3
      vertex -0.5 0 -3
      vertex -0.5 50 -3
    endloop
  endfacet
  facet normal 0 0.866025 0.5
    outer loop
      vertex 0.5 47.1 -1.69282
      vertex -0.5 46.7 -1
      vertex 0.5 46.7 -1
    endloop
  endfacet
  facet normal 0 0.866025 0.5
    outer loop
      vertex -0.5 46.7 -1
      vertex 0.5 47.1 -1.69282
      vertex -0.5 47.1 -1.69282
    endloop
  endfacet
  facet normal 0 -0.866026 -0.5
    outer loop
      vertex -0.5 48.3 -1
      vertex 0.5 47.9 -0.307179
      vertex -0.5 47.9 -0.307179
    endloop
  endfacet
  facet normal 0 -0.866026 -0.5
    outer loop
      vertex 0.5 47.9 -0.307179
      vertex -0.5 48.3 -1
      vertex 0.5 48.3 -1
    endloop
  endfacet
  facet normal -0 0 1
    outer loop
      vertex -0.5 47.9 -1.69282
      vertex 0.5 47.1 -1.69282
      vertex 0.5 47.9 -1.69282
    endloop
  endfacet
  facet normal 0 0 1
    outer loop
      vertex 0.5 47.1 -1.69282
      vertex -0.5 47.9 -1.69282
      vertex -0.5 47.1 -1.69282
    endloop
  endfacet
  facet normal 0 0 -1
    outer loop
      vertex -0.5 47.1 -0.307179
      vertex 0.5 47.9 -0.307179
      vertex 0.5 47.1 -0.307179
    endloop
  endfacet
  facet normal -0 0 -1
    outer loop
      vertex 0.5 47.9 -0.307179
      vertex -0.5 47.1 -0.307179
      vertex -0.5 47.9 -0.307179
    endloop
  endfacet
  facet normal 0 -0.866025 0.5
    outer loop
      vertex -0.5 47.9 -1.69282
      vertex 0.5 48.3 -1
      vertex -0.5 48.3 -1
    endloop
  endfacet
  facet normal 0 -0.866025 0.5
    outer loop
      vertex 0.5 48.3 -1
      vertex -0.5 47.9 -1.69282
      vertex 0.5 47.9 -1.69282
    endloop
  endfacet
  facet normal 0 0.866026 -0.5
    outer loop
      vertex 0.5 46.7 -1
      vertex -0.5 47.1 -0.307179
      vertex 0.5 47.1 -0.307179
    endloop
  endfacet
  facet normal 0 0.866026 -0.5
    outer loop
      vertex -0.5 47.1 -0.307179
      vertex 0.5 46.7 -1
      vertex -0.5 46.7 -1
    endloop
  endfacet
  facet normal 0.991449 0 -0.130498
    outer loop
      vertex 23 -4 0
      vertex 22.8978 1 -0.776457
      vertex 23 1 0
    endloop
  endfacet
  facet normal 0.991449 0 -0.130498
    outer loop
      vertex 22.8978 1 -0.776457
      vertex 23 -4 0
      vertex 22.8978 -4 -0.776457
    endloop
  endfacet
  facet normal -0.130516 0 -0.991446
    outer loop
      vertex 19.2235 -4 -2.89778
      vertex 20 1 -3
      vertex 20 -4 -3
    endloop
  endfacet
  facet normal -0.130516 0 -0.991446
    outer loop
      vertex 20 1 -3
      vertex 19.2235 -4 -2.89778
      vertex 19.2235 1 -2.89778
    endloop
  endfacet
  facet normal 0.130516 0 0.991446
    outer loop
      vertex 20 1 3
      vertex 20.7765 -4 2.89778
      vertex 20.7765 1 2.89778
    endloop
  endfacet
  facet normal 0.130516 0 0.991446
    outer loop
      vertex 20.7765 -4 2.89778
      vertex 20 1 3
      vertex 20 -4 3
    endloop
  endfacet
  facet normal 0.382701 0 0.923872
    outer loop
      vertex 20.7765 1 2.89778
      vertex 21.5 -4 2.59808
      vertex 21.5 1 2.59808
    endloop
  endfacet
  facet normal 0.382701 0 0.923872
    outer loop
      vertex 21.5 -4 2.59808
      vertex 20.7765 1 2.89778
      vertex 20.7765 -4 2.89778
    endloop
  endfacet
  facet normal 0.608777 0 -0.793341
    outer loop
      vertex 21.5 -4 -2.59808
      vertex 22.1213 1 -2.12132
      vertex 22.1213 -4 -2.12132
    endloop
  endfacet
  facet normal 0.608777 0 -0.793341
    outer loop
      vertex 22.1213 1 -2.12132
      vertex 21.5 -4 -2.59808
      vertex 21.5 1 -2.59808
    endloop
  endfacet
  facet normal 0.92388 0 -0.382682
    outer loop
      vertex 22.8978 -4 -0.776457
      vertex 22.5981 1 -1.5
      vertex 22.8978 1 -0.776457
    endloop
  endfacet
  facet normal 0.92388 0 -0.382682
    outer loop
      vertex 22.5981 1 -1.5
      vertex 22.8978 -4 -0.776457
      vertex 22.5981 -4 -1.5
    endloop
  endfacet
  facet normal -0.793326 0 -0.608797
    outer loop
      vertex 17.8787 -4 -2.12132
      vertex 17.4019 -1.5 -1.5
      vertex 17.8787 -1.5 -2.12132
    endloop
  endfacet
  facet normal -0.793326 -0 -0.608797
    outer loop
      vertex 17.4019 -1.5 -1.5
      vertex 17.8787 -4 -2.12132
      vertex 17.4019 -4 -1.5
    endloop
  endfacet
  facet normal 0 -1 0
    outer loop
      vertex 20.2084 -4 1.18177
      vertex 20 -4 3
      vertex 19.2235 -4 2.89778
    endloop
  endfacet
  facet normal 0 -1 0
    outer loop
      vertex 19.4 -4 1.03923
      vertex 19.2235 -4 2.89778
      vertex 18.5 -4 2.59808
    endloop
  endfacet
  facet normal 0 -1 0
    outer loop
      vertex 20 -4 3
      vertex 20.2084 -4 1.18177
      vertex 20.7765 -4 2.89778
    endloop
  endfacet
  facet normal 0 -1 0
    outer loop
      vertex 19.4 -4 1.03923
      vertex 18.5 -4 2.59808
      vertex 17.8787 -4 2.12132
    endloop
  endfacet
  facet normal 0 -1 -0
    outer loop
      vertex 20.7765 -4 2.89778
      vertex 20.2084 -4 1.18177
      vertex 21.5 -4 2.59808
    endloop
  endfacet
  facet normal 0 -1 0
    outer loop
      vertex 18.8724 -4 0.410423
      vertex 17.8787 -4 2.12132
      vertex 17.4019 -4 1.5
    endloop
  endfacet
  facet normal 0 -1 0
    outer loop
      vertex 20.9193 -4 0.771344
      vertex 21.5 -4 2.59808
      vertex 20.2084 -4 1.18177
    endloop
  endfacet
  facet normal 0 -1 -0
    outer loop
      vertex 21.5 -4 2.59808
      vertex 20.9193 -4 0.771344
      vertex 22.1213 -4 2.12132
    endloop
  endfacet
  facet normal 0 -1 0
    outer loop
      vertex 19.2235 -4 2.89778
      vertex 19.4 -4 1.03923
      vertex 20.2084 -4 1.18177
    endloop
  endfacet
  facet normal 0 -1 0
    outer loop
      vertex 18.8724 -4 0.410423
      vertex 17.4019 -4 1.5
      vertex 17.1022 -4 0.776457
    endloop
  endfacet
  facet normal 0 -1 0
    outer loop
      vertex 17.8787 -4 2.12132
      vertex 18.8724 -4 0.410423
      vertex 19.4 -4 1.03923
    endloop
  endfacet
  facet normal 0 -1 0
    outer loop
      vertex 17 -4 0
      vertex 18.8724 -4 0.410423
      vertex 17.1022 -4 0.776457
    endloop
  endfacet
  facet normal 0 -1 0
    outer loop
      vertex 17 -4 0
      vertex 18.8724 -4 -0.410423
      vertex 18.8724 -4 0.410423
    endloop
  endfacet
  facet normal 0 -1 0
    outer loop
      vertex 17.1022 -4 -0.776457
      vertex 18.8724 -4 -0.410423
      vertex 17 -4 0
    endloop
  endfacet
  facet normal 0 -1 0
    outer loop
      vertex 17.4019 -4 -1.5
      vertex 18.8724 -4 -0.410423
      vertex 17.1022 -4 -0.776457
    endloop
  endfacet
  facet normal 0 -1 0
    outer loop
      vertex 17.8787 -4 -2.12132
      vertex 18.8724 -4 -0.410423
      vertex 17.4019 -4 -1.5
    endloop
  endfacet
  facet normal 0 -1 -0
    outer loop
      vertex 18.8724 -4 -0.410423
      vertex 17.8787 -4 -2.12132
      vertex 19.4 -4 -1.03923
    endloop
  endfacet
  facet normal 0 -1 -0
    outer loop
      vertex 22.1213 -4 2.12132
      vertex 20.9193 -4 0.771344
      vertex 22.5981 -4 1.5
    endloop
  endfacet
  facet normal 0 -1 -0
    outer loop
      vertex 22.5981 -4 1.5
      vertex 20.9193 -4 0.771344
      vertex 22.8978 -4 0.776457
    endloop
  endfacet
  facet normal 0 -1 0
    outer loop
      vertex 21.2 -4 0
      vertex 22.8978 -4 0.776457
      vertex 20.9193 -4 0.771344
    endloop
  endfacet
  facet normal 0 -1 0
    outer loop
      vertex 21.2 -4 0
      vertex 23 -4 0
      vertex 22.8978 -4 0.776457
    endloop
  endfacet
  facet normal 0 -1 0
    outer loop
      vertex 22.8978 -4 -0.776457
      vertex 21.2 -4 0
      vertex 20.9193 -4 -0.771344
    endloop
  endfacet
  facet normal 0 -1 0
    outer loop
      vertex 21.2 -4 0
      vertex 22.8978 -4 -0.776457
      vertex 23 -4 0
    endloop
  endfacet
  facet normal 0 -1 0
    outer loop
      vertex 21.5 -4 -2.59808
      vertex 20.9193 -4 -0.771344
      vertex 20.2084 -4 -1.18177
    endloop
  endfacet
  facet normal 0 -1 0
    outer loop
      vertex 20.9193 -4 -0.771344
      vertex 22.5981 -4 -1.5
      vertex 22.8978 -4 -0.776457
    endloop
  endfacet
  facet normal 0 -1 0
    outer loop
      vertex 18.5 -4 -2.59808
      vertex 19.4 -4 -1.03923
      vertex 17.8787 -4 -2.12132
    endloop
  endfacet
  facet normal 0 -1 0
    outer loop
      vertex 19.2235 -4 -2.89778
      vertex 19.4 -4 -1.03923
      vertex 18.5 -4 -2.59808
    endloop
  endfacet
  facet normal 0 -1 0
    outer loop
      vertex 20.9193 -4 -0.771344
      vertex 22.1213 -4 -2.12132
      vertex 22.5981 -4 -1.5
    endloop
  endfacet
  facet normal 0 -1 -0
    outer loop
      vertex 19.4 -4 -1.03923
      vertex 19.2235 -4 -2.89778
      vertex 20.2084 -4 -1.18177
    endloop
  endfacet
  facet normal 0 -1 0
    outer loop
      vertex 20.9193 -4 -0.771344
      vertex 21.5 -4 -2.59808
      vertex 22.1213 -4 -2.12132
    endloop
  endfacet
  facet normal 0 -1 0
    outer loop
      vertex 20 -4 -3
      vertex 20.2084 -4 -1.18177
      vertex 19.2235 -4 -2.89778
    endloop
  endfacet
  facet normal 0 -1 0
    outer loop
      vertex 20.2084 -4 -1.18177
      vertex 20.7765 -4 -2.89778
      vertex 21.5 -4 -2.59808
    endloop
  endfacet
  facet normal 0 -1 -0
    outer loop
      vertex 20.2084 -4 -1.18177
      vertex 20 -4 -3
      vertex 20.7765 -4 -2.89778
    endloop
  endfacet
  facet normal -0.382701 -0 -0.923872
    outer loop
      vertex 18.5 -1.5 -2.59808
      vertex 19.2235 -4 -2.89778
      vertex 18.5 -4 -2.59808
    endloop
  endfacet
  facet normal -0.382701 0 -0.923872
    outer loop
      vertex 19.2235 -4 -2.89778
      vertex 18.5 -1.5 -2.59808
      vertex 19.2235 1 -2.89778
    endloop
  endfacet
  facet normal -0.382701 0 -0.923872
    outer loop
      vertex 19.2235 1 -2.89778
      vertex 18.5 -1.5 -2.59808
      vertex 18.5 1 -2.59808
    endloop
  endfacet
  facet normal 0.793326 0 -0.608797
    outer loop
      vertex 22.5981 -4 -1.5
      vertex 22.1213 1 -2.12132
      vertex 22.5981 1 -1.5
    endloop
  endfacet
  facet normal 0.793326 0 -0.608797
    outer loop
      vertex 22.1213 1 -2.12132
      vertex 22.5981 -4 -1.5
      vertex 22.1213 -4 -2.12132
    endloop
  endfacet
  facet normal 0.130516 0 -0.991446
    outer loop
      vertex 20 -4 -3
      vertex 20.7765 1 -2.89778
      vertex 20.7765 -4 -2.89778
    endloop
  endfacet
  facet normal 0.130516 0 -0.991446
    outer loop
      vertex 20.7765 1 -2.89778
      vertex 20 -4 -3
      vertex 20 1 -3
    endloop
  endfacet
  facet normal 0.382701 0 -0.923872
    outer loop
      vertex 20.7765 -4 -2.89778
      vertex 21.5 1 -2.59808
      vertex 21.5 -4 -2.59808
    endloop
  endfacet
  facet normal 0.382701 0 -0.923872
    outer loop
      vertex 21.5 1 -2.59808
      vertex 20.7765 -4 -2.89778
      vertex 20.7765 1 -2.89778
    endloop
  endfacet
  facet normal -0.92388 0 -0.382682
    outer loop
      vertex 17.4019 -4 -1.5
      vertex 17.1022 -1.5 -0.776457
      vertex 17.4019 -1.5 -1.5
    endloop
  endfacet
  facet normal -0.92388 -0 -0.382682
    outer loop
      vertex 17.1022 -1.5 -0.776457
      vertex 17.4019 -4 -1.5
      vertex 17.1022 -4 -0.776457
    endloop
  endfacet
  facet normal -0.991449 0 -0.130498
    outer loop
      vertex 17.1022 -4 -0.776457
      vertex 17 -1.5 0
      vertex 17.1022 -1.5 -0.776457
    endloop
  endfacet
  facet normal -0.991449 -0 -0.130498
    outer loop
      vertex 17 -1.5 0
      vertex 17.1022 -4 -0.776457
      vertex 17 -4 0
    endloop
  endfacet
  facet normal -0.991449 0 0.130498
    outer loop
      vertex 17 -4 0
      vertex 17.1022 -1.5 0.776457
      vertex 17 -1.5 0
    endloop
  endfacet
  facet normal -0.991449 0 0.130498
    outer loop
      vertex 17.1022 -1.5 0.776457
      vertex 17 -4 0
      vertex 17.1022 -4 0.776457
    endloop
  endfacet
  facet normal -0.608777 0 -0.793341
    outer loop
      vertex 17.8787 -4 -2.12132
      vertex 18.5 -1.5 -2.59808
      vertex 18.5 -4 -2.59808
    endloop
  endfacet
  facet normal -0.608777 0 -0.793341
    outer loop
      vertex 18.5 -1.5 -2.59808
      vertex 17.8787 -4 -2.12132
      vertex 17.8787 -1.5 -2.12132
    endloop
  endfacet
  facet normal -0.923872 0 0.382703
    outer loop
      vertex 17.1022 -1.5 0.776457
      vertex 17.1022 -4 0.776457
      vertex 17.1948 -1.5 1
    endloop
  endfacet
  facet normal -0.923884 0 0.382673
    outer loop
      vertex 17.1948 -1.5 1
      vertex 17.4019 1 1.5
      vertex 17.1948 1 1
    endloop
  endfacet
  facet normal -0.92388 2.16799e-06 0.382682
    outer loop
      vertex 17.4019 -4 1.5
      vertex 17.1948 -1.5 1
      vertex 17.1022 -4 0.776457
    endloop
  endfacet
  facet normal -0.923884 0 0.382673
    outer loop
      vertex 17.1948 -1.5 1
      vertex 17.4019 -4 1.5
      vertex 17.4019 1 1.5
    endloop
  endfacet
  facet normal 0.92388 -0 0.382682
    outer loop
      vertex 22.5981 -4 1.5
      vertex 22.8978 1 0.776457
      vertex 22.5981 1 1.5
    endloop
  endfacet
  facet normal 0.92388 0 0.382682
    outer loop
      vertex 22.8978 1 0.776457
      vertex 22.5981 -4 1.5
      vertex 22.8978 -4 0.776457
    endloop
  endfacet
  facet normal 0 1 -0
    outer loop
      vertex 18.8724 1 0.410423
      vertex 18.5 1 1
      vertex 19.4 1 1.03923
    endloop
  endfacet
  facet normal 0 1 -0
    outer loop
      vertex 18.8724 1 -0.410423
      vertex 18.5 1 1
      vertex 18.8724 1 0.410423
    endloop
  endfacet
  facet normal 0 1 -0
    outer loop
      vertex 21.5 1 -2.59808
      vertex 20.9193 1 -0.771344
      vertex 22.1213 1 -2.12132
    endloop
  endfacet
  facet normal 0 1 0
    outer loop
      vertex 20.9193 1 -0.771344
      vertex 21.5 1 -2.59808
      vertex 20.2084 1 -1.18177
    endloop
  endfacet
  facet normal 0 1 -0
    outer loop
      vertex 20.7765 1 -2.89778
      vertex 20.2084 1 -1.18177
      vertex 21.5 1 -2.59808
    endloop
  endfacet
  facet normal 0 1 0
    outer loop
      vertex 18.8724 1 -0.410423
      vertex 18.5 1 -2.59808
      vertex 18.5 1 1
    endloop
  endfacet
  facet normal 0 1 0
    outer loop
      vertex 19.4 1 -1.03923
      vertex 18.5 1 -2.59808
      vertex 18.8724 1 -0.410423
    endloop
  endfacet
  facet normal 0 1 0
    outer loop
      vertex 20 1 -3
      vertex 20.2084 1 -1.18177
      vertex 20.7765 1 -2.89778
    endloop
  endfacet
  facet normal -0 1 0
    outer loop
      vertex 19.2235 1 -2.89778
      vertex 20.2084 1 -1.18177
      vertex 20 1 -3
    endloop
  endfacet
  facet normal 0 1 0
    outer loop
      vertex 19.4 1 -1.03923
      vertex 19.2235 1 -2.89778
      vertex 18.5 1 -2.59808
    endloop
  endfacet
  facet normal 0 1 0
    outer loop
      vertex 20.2084 1 -1.18177
      vertex 19.2235 1 -2.89778
      vertex 19.4 1 -1.03923
    endloop
  endfacet
  facet normal 0 1 -0
    outer loop
      vertex 20.2084 1 1.18177
      vertex 20 1 3
      vertex 20.7765 1 2.89778
    endloop
  endfacet
  facet normal 0 1 0
    outer loop
      vertex 20.2084 1 1.18177
      vertex 20.7765 1 2.89778
      vertex 21.5 1 2.59808
    endloop
  endfacet
  facet normal 0 1 0
    outer loop
      vertex 20 1 3
      vertex 20.2084 1 1.18177
      vertex 19.2235 1 2.89778
    endloop
  endfacet
  facet normal 0 1 0
    outer loop
      vertex 20.9193 1 0.771344
      vertex 21.5 1 2.59808
      vertex 22.1213 1 2.12132
    endloop
  endfacet
  facet normal 0 1 -0
    outer loop
      vertex 19.4 1 1.03923
      vertex 19.2235 1 2.89778
      vertex 20.2084 1 1.18177
    endloop
  endfacet
  facet normal 0 1 0
    outer loop
      vertex 20.9193 1 0.771344
      vertex 22.1213 1 2.12132
      vertex 22.5981 1 1.5
    endloop
  endfacet
  facet normal 0 1 0
    outer loop
      vertex 19.2235 1 2.89778
      vertex 19.4 1 1.03923
      vertex 18.5 1 2.59808
    endloop
  endfacet
  facet normal 0 1 0
    outer loop
      vertex 18.5 1 1
      vertex 18.5 1 2.59808
      vertex 19.4 1 1.03923
    endloop
  endfacet
  facet normal 0 1 0
    outer loop
      vertex 20.9193 1 0.771344
      vertex 22.5981 1 1.5
      vertex 22.8978 1 0.776457
    endloop
  endfacet
  facet normal 0 1 0
    outer loop
      vertex 21.5 1 2.59808
      vertex 20.9193 1 0.771344
      vertex 20.2084 1 1.18177
    endloop
  endfacet
  facet normal 0 1 0
    outer loop
      vertex 21.2 1 0
      vertex 22.8978 1 0.776457
      vertex 23 1 0
    endloop
  endfacet
  facet normal 0 1 0
    outer loop
      vertex 22.8978 1 0.776457
      vertex 21.2 1 0
      vertex 20.9193 1 0.771344
    endloop
  endfacet
  facet normal 0 1 -0
    outer loop
      vertex 22.8978 1 -0.776457
      vertex 21.2 1 0
      vertex 23 1 0
    endloop
  endfacet
  facet normal 0 1 0
    outer loop
      vertex 21.2 1 0
      vertex 22.8978 1 -0.776457
      vertex 20.9193 1 -0.771344
    endloop
  endfacet
  facet normal 0 1 -0
    outer loop
      vertex 22.5981 1 -1.5
      vertex 20.9193 1 -0.771344
      vertex 22.8978 1 -0.776457
    endloop
  endfacet
  facet normal 0 1 -0
    outer loop
      vertex 22.1213 1 -2.12132
      vertex 20.9193 1 -0.771344
      vertex 22.5981 1 -1.5
    endloop
  endfacet
  facet normal 0 1 0
    outer loop
      vertex 18.5 1 2.59808
      vertex 18.5 1 1
      vertex 17.8787 1 2.12132
    endloop
  endfacet
  facet normal 0 1 0
    outer loop
      vertex 17.8787 1 2.12132
      vertex 18.5 1 1
      vertex 17.4019 1 1.5
    endloop
  endfacet
  facet normal 0 1 0
    outer loop
      vertex 17.4019 1 1.5
      vertex 18.5 1 1
      vertex 17.1948 1 1
    endloop
  endfacet
  facet normal -0.382701 0 0.923872
    outer loop
      vertex 18.5 1 2.59808
      vertex 19.2235 -4 2.89778
      vertex 19.2235 1 2.89778
    endloop
  endfacet
  facet normal -0.382701 0 0.923872
    outer loop
      vertex 19.2235 -4 2.89778
      vertex 18.5 1 2.59808
      vertex 18.5 -4 2.59808
    endloop
  endfacet
  facet normal -0.793326 0 0.608797
    outer loop
      vertex 17.4019 -4 1.5
      vertex 17.8787 1 2.12132
      vertex 17.4019 1 1.5
    endloop
  endfacet
  facet normal -0.793326 0 0.608797
    outer loop
      vertex 17.8787 1 2.12132
      vertex 17.4019 -4 1.5
      vertex 17.8787 -4 2.12132
    endloop
  endfacet
  facet normal 0.608777 0 0.793341
    outer loop
      vertex 21.5 1 2.59808
      vertex 22.1213 -4 2.12132
      vertex 22.1213 1 2.12132
    endloop
  endfacet
  facet normal 0.608777 0 0.793341
    outer loop
      vertex 22.1213 -4 2.12132
      vertex 21.5 1 2.59808
      vertex 21.5 -4 2.59808
    endloop
  endfacet
  facet normal 0.991449 -0 0.130498
    outer loop
      vertex 22.8978 -4 0.776457
      vertex 23 1 0
      vertex 22.8978 1 0.776457
    endloop
  endfacet
  facet normal 0.991449 0 0.130498
    outer loop
      vertex 23 1 0
      vertex 22.8978 -4 0.776457
      vertex 23 -4 0
    endloop
  endfacet
  facet normal -0.608777 0 0.793341
    outer loop
      vertex 17.8787 1 2.12132
      vertex 18.5 -4 2.59808
      vertex 18.5 1 2.59808
    endloop
  endfacet
  facet normal -0.608777 0 0.793341
    outer loop
      vertex 18.5 -4 2.59808
      vertex 17.8787 1 2.12132
      vertex 17.8787 -4 2.12132
    endloop
  endfacet
  facet normal 0.793326 -0 0.608797
    outer loop
      vertex 22.1213 -4 2.12132
      vertex 22.5981 1 1.5
      vertex 22.1213 1 2.12132
    endloop
  endfacet
  facet normal 0.793326 0 0.608797
    outer loop
      vertex 22.5981 1 1.5
      vertex 22.1213 -4 2.12132
      vertex 22.5981 -4 1.5
    endloop
  endfacet
  facet normal -0.130516 0 0.991446
    outer loop
      vertex 19.2235 1 2.89778
      vertex 20 -4 3
      vertex 20 1 3
    endloop
  endfacet
  facet normal -0.130516 0 0.991446
    outer loop
      vertex 20 -4 3
      vertex 19.2235 1 2.89778
      vertex 19.2235 -4 2.89778
    endloop
  endfacet
  facet normal -0.939711 0 0.34197
    outer loop
      vertex 20.9193 -4 -0.771344
      vertex 21.2 1 0
      vertex 20.9193 1 -0.771344
    endloop
  endfacet
  facet normal -0.939711 0 0.34197
    outer loop
      vertex 21.2 1 0
      vertex 20.9193 -4 -0.771344
      vertex 21.2 -4 0
    endloop
  endfacet
  facet normal 1 -0 0
    outer loop
      vertex 18.8724 -4 0.410423
      vertex 18.8724 1 -0.410423
      vertex 18.8724 1 0.410423
    endloop
  endfacet
  facet normal 1 0 0
    outer loop
      vertex 18.8724 1 -0.410423
      vertex 18.8724 -4 0.410423
      vertex 18.8724 -4 -0.410423
    endloop
  endfacet
  facet normal 0.173645 0 0.984808
    outer loop
      vertex 19.4 1 -1.03923
      vertex 20.2084 -4 -1.18177
      vertex 20.2084 1 -1.18177
    endloop
  endfacet
  facet normal 0.173645 0 0.984808
    outer loop
      vertex 20.2084 -4 -1.18177
      vertex 19.4 1 -1.03923
      vertex 19.4 -4 -1.03923
    endloop
  endfacet
  facet normal -0.499989 0 0.866032
    outer loop
      vertex 20.2084 1 -1.18177
      vertex 20.9193 -4 -0.771344
      vertex 20.9193 1 -0.771344
    endloop
  endfacet
  facet normal -0.499989 0 0.866032
    outer loop
      vertex 20.9193 -4 -0.771344
      vertex 20.2084 1 -1.18177
      vertex 20.2084 -4 -1.18177
    endloop
  endfacet
  facet normal 0.766063 -0 0.642765
    outer loop
      vertex 18.8724 -4 -0.410423
      vertex 19.4 1 -1.03923
      vertex 18.8724 1 -0.410423
    endloop
  endfacet
  facet normal 0.766063 0 0.642765
    outer loop
      vertex 19.4 1 -1.03923
      vertex 18.8724 -4 -0.410423
      vertex 19.4 -4 -1.03923
    endloop
  endfacet
  facet normal -0.499989 0 -0.866032
    outer loop
      vertex 20.2084 -4 1.18177
      vertex 20.9193 1 0.771344
      vertex 20.9193 -4 0.771344
    endloop
  endfacet
  facet normal -0.499989 0 -0.866032
    outer loop
      vertex 20.9193 1 0.771344
      vertex 20.2084 -4 1.18177
      vertex 20.2084 1 1.18177
    endloop
  endfacet
  facet normal 0.766063 0 -0.642765
    outer loop
      vertex 19.4 -4 1.03923
      vertex 18.8724 1 0.410423
      vertex 19.4 1 1.03923
    endloop
  endfacet
  facet normal 0.766063 0 -0.642765
    outer loop
      vertex 18.8724 1 0.410423
      vertex 19.4 -4 1.03923
      vertex 18.8724 -4 0.410423
    endloop
  endfacet
  facet normal -0.939711 0 -0.34197
    outer loop
      vertex 21.2 -4 0
      vertex 20.9193 1 0.771344
      vertex 21.2 1 0
    endloop
  endfacet
  facet normal -0.939711 -0 -0.34197
    outer loop
      vertex 20.9193 1 0.771344
      vertex 21.2 -4 0
      vertex 20.9193 -4 0.771344
    endloop
  endfacet
  facet normal 0.173645 0 -0.984808
    outer loop
      vertex 19.4 -4 1.03923
      vertex 20.2084 1 1.18177
      vertex 20.2084 -4 1.18177
    endloop
  endfacet
  facet normal 0.173645 0 -0.984808
    outer loop
      vertex 20.2084 1 1.18177
      vertex 19.4 -4 1.03923
      vertex 19.4 1 1.03923
    endloop
  endfacet
  facet normal 0.991445 0 -0.130523
    outer loop
      vertex 3 1.5 0
      vertex 2.89778 2 -0.776457
      vertex 3 2 0
    endloop
  endfacet
  facet normal 0.991445 0 -0.130523
    outer loop
      vertex 2.89778 2 -0.776457
      vertex 3 1.5 0
      vertex 2.89778 1.5 -0.776457
    endloop
  endfacet
  facet normal -0.991445 0 -0.130523
    outer loop
      vertex -2.89778 -1.5 -0.776457
      vertex -3 2 0
      vertex -2.89778 2 -0.776457
    endloop
  endfacet
  facet normal -0.991445 -0 -0.130523
    outer loop
      vertex -3 2 0
      vertex -2.89778 -1.5 -0.776457
      vertex -3 -1.5 0
    endloop
  endfacet
  facet normal 0.130504 0 -0.991448
    outer loop
      vertex 0.776457 -1.5 -2.89778
      vertex 0.5 0 -2.93417
      vertex 0.776457 2 -2.89778
    endloop
  endfacet
  facet normal 0.130523 3.54489e-06 -0.991445
    outer loop
      vertex 0 -1.5 -3
      vertex 0.5 0 -2.93417
      vertex 0.776457 -1.5 -2.89778
    endloop
  endfacet
  facet normal 0.130534 0 -0.991444
    outer loop
      vertex 0.5 0 -2.93417
      vertex 0 -1.5 -3
      vertex 0 0 -3
    endloop
  endfacet
  facet normal 0.130504 0 -0.991448
    outer loop
      vertex 0.776457 2 -2.89778
      vertex 0.5 0 -2.93417
      vertex 0.5 2 -2.93417
    endloop
  endfacet
  facet normal 0.608765 0 -0.793351
    outer loop
      vertex 1.5 1.5 -2.59808
      vertex 2.12132 2 -2.12132
      vertex 2.12132 1.5 -2.12132
    endloop
  endfacet
  facet normal 0.608765 0 -0.793351
    outer loop
      vertex 2.12132 2 -2.12132
      vertex 1.5 1.5 -2.59808
      vertex 1.5 2 -2.59808
    endloop
  endfacet
  facet normal 0.92388 0 -0.382682
    outer loop
      vertex 2.89778 1.5 -0.776457
      vertex 2.59808 2 -1.5
      vertex 2.89778 2 -0.776457
    endloop
  endfacet
  facet normal 0.92388 0 -0.382682
    outer loop
      vertex 2.59808 2 -1.5
      vertex 2.89778 1.5 -0.776457
      vertex 2.59808 1.5 -1.5
    endloop
  endfacet
  facet normal 0.382682 0 -0.92388
    outer loop
      vertex 0.776457 -1.5 -2.89778
      vertex 1.5 1.5 -2.59808
      vertex 1.5 -1.5 -2.59808
    endloop
  endfacet
  facet normal 0.382682 0 -0.92388
    outer loop
      vertex 0.776457 2 -2.89778
      vertex 1.5 1.5 -2.59808
      vertex 0.776457 -1.5 -2.89778
    endloop
  endfacet
  facet normal 0.382682 0 -0.92388
    outer loop
      vertex 1.5 1.5 -2.59808
      vertex 0.776457 2 -2.89778
      vertex 1.5 2 -2.59808
    endloop
  endfacet
  facet normal -0.608765 0 -0.793351
    outer loop
      vertex -2.12132 -1.5 -2.12132
      vertex -1.5 2 -2.59808
      vertex -1.5 -1.5 -2.59808
    endloop
  endfacet
  facet normal -0.608765 0 -0.793351
    outer loop
      vertex -1.5 2 -2.59808
      vertex -2.12132 -1.5 -2.12132
      vertex -2.12132 2 -2.12132
    endloop
  endfacet
  facet normal -0.793351 0 -0.608765
    outer loop
      vertex -2.12132 -1.5 -2.12132
      vertex -2.59808 2 -1.5
      vertex -2.12132 2 -2.12132
    endloop
  endfacet
  facet normal -0.793351 -0 -0.608765
    outer loop
      vertex -2.59808 2 -1.5
      vertex -2.12132 -1.5 -2.12132
      vertex -2.59808 -1.5 -1.5
    endloop
  endfacet
  facet normal -0.382682 0 -0.92388
    outer loop
      vertex -1.5 -1.5 -2.59808
      vertex -0.776457 2 -2.89778
      vertex -0.776457 -1.5 -2.89778
    endloop
  endfacet
  facet normal -0.382682 0 -0.92388
    outer loop
      vertex -0.776457 2 -2.89778
      vertex -1.5 -1.5 -2.59808
      vertex -1.5 2 -2.59808
    endloop
  endfacet
  facet normal 0.793351 -0 0.608765
    outer loop
      vertex 2.12132 -1.5 2.12132
      vertex 2.59808 2 1.5
      vertex 2.12132 2 2.12132
    endloop
  endfacet
  facet normal 0.793351 0 0.608765
    outer loop
      vertex 2.59808 2 1.5
      vertex 2.12132 -1.5 2.12132
      vertex 2.59808 -1.5 1.5
    endloop
  endfacet
  facet normal 0.92388 -1.084e-05 0.382682
    outer loop
      vertex 2.59808 2 1.5
      vertex 2.80518 1.5 1
      vertex 2.89778 2 0.776457
    endloop
  endfacet
  facet normal 0.923884 -0 0.382673
    outer loop
      vertex 2.59808 -1.5 1.5
      vertex 2.80518 1.5 1
      vertex 2.59808 2 1.5
    endloop
  endfacet
  facet normal 0.923884 0 0.382673
    outer loop
      vertex 2.80518 1.5 1
      vertex 2.59808 -1.5 1.5
      vertex 2.80518 -1.5 1
    endloop
  endfacet
  facet normal 0.923872 0 0.382703
    outer loop
      vertex 2.89778 2 0.776457
      vertex 2.80518 1.5 1
      vertex 2.89778 1.5 0.776457
    endloop
  endfacet
  facet normal -0.608765 0 0.793351
    outer loop
      vertex -2.12132 2 2.12132
      vertex -1.5 -1.5 2.59808
      vertex -1.5 2 2.59808
    endloop
  endfacet
  facet normal -0.608765 0 0.793351
    outer loop
      vertex -1.5 -1.5 2.59808
      vertex -2.12132 2 2.12132
      vertex -2.12132 -1.5 2.12132
    endloop
  endfacet
  facet normal 0 -1 0
    outer loop
      vertex -0.776457 -1.5 -2.89778
      vertex 1.5 -1.5 -2.59808
      vertex -1.5 -1.5 -2.59808
    endloop
  endfacet
  facet normal 0 -1 0
    outer loop
      vertex -0.776457 -1.5 -2.89778
      vertex 0.776457 -1.5 -2.89778
      vertex 1.5 -1.5 -2.59808
    endloop
  endfacet
  facet normal -0 -1 0
    outer loop
      vertex 0.776457 -1.5 -2.89778
      vertex -0.776457 -1.5 -2.89778
      vertex 0 -1.5 -3
    endloop
  endfacet
  facet normal 0 -1 0
    outer loop
      vertex -0.776457 -1.5 2.89778
      vertex 0.776457 -1.5 2.89778
      vertex 0 -1.5 3
    endloop
  endfacet
  facet normal 0 -1 0
    outer loop
      vertex -1.5 -1.5 2.59808
      vertex 0.776457 -1.5 2.89778
      vertex -0.776457 -1.5 2.89778
    endloop
  endfacet
  facet normal 0 -1 0
    outer loop
      vertex -1.5 -1.5 2.59808
      vertex 1.5 -1.5 2.59808
      vertex 0.776457 -1.5 2.89778
    endloop
  endfacet
  facet normal 0 -1 0
    outer loop
      vertex -2.12132 -1.5 2.12132
      vertex 1.5 -1.5 2.59808
      vertex -1.5 -1.5 2.59808
    endloop
  endfacet
  facet normal 0 -1 0
    outer loop
      vertex 2.80518 -1.5 1
      vertex 1.5 -1.5 2.59808
      vertex -2.12132 -1.5 2.12132
    endloop
  endfacet
  facet normal 0 -1 0
    outer loop
      vertex 2.80518 -1.5 1
      vertex -2.12132 -1.5 2.12132
      vertex -2.59808 -1.5 1.5
    endloop
  endfacet
  facet normal 0 -1 0
    outer loop
      vertex 1.5 -1.5 2.59808
      vertex 2.80518 -1.5 1
      vertex 2.12132 -1.5 2.12132
    endloop
  endfacet
  facet normal 0 -1 0
    outer loop
      vertex 2.12132 -1.5 2.12132
      vertex 2.80518 -1.5 1
      vertex 2.59808 -1.5 1.5
    endloop
  endfacet
  facet normal 0 -1 0
    outer loop
      vertex -2.89778 -1.5 0.776457
      vertex 2.80518 -1.5 1
      vertex -2.59808 -1.5 1.5
    endloop
  endfacet
  facet normal 0 -1 0
    outer loop
      vertex 1.5 -1.5 -2.59808
      vertex 2.80518 -1.5 1
      vertex -2.89778 -1.5 0.776457
    endloop
  endfacet
  facet normal 0 -1 0
    outer loop
      vertex 1.5 -1.5 -3
      vertex 2.80518 -1.5 1
      vertex 1.5 -1.5 -2.59808
    endloop
  endfacet
  facet normal 0 -1 0
    outer loop
      vertex 1.5 -1.5 -2.59808
      vertex -2.89778 -1.5 0.776457
      vertex -3 -1.5 0
    endloop
  endfacet
  facet normal 0 -1 0
    outer loop
      vertex 2.80518 -1.5 1
      vertex 17.1022 -1.5 0.776457
      vertex 17.1948 -1.5 1
    endloop
  endfacet
  facet normal 0 -1 0
    outer loop
      vertex 1.5 -1.5 -2.59808
      vertex -3 -1.5 0
      vertex -2.89778 -1.5 -0.776457
    endloop
  endfacet
  facet normal 0 -1 0
    outer loop
      vertex 2.80518 -1.5 1
      vertex 17 -1.5 0
      vertex 17.1022 -1.5 0.776457
    endloop
  endfacet
  facet normal 0 -1 0
    outer loop
      vertex 1.5 -1.5 -2.59808
      vertex -2.89778 -1.5 -0.776457
      vertex -2.59808 -1.5 -1.5
    endloop
  endfacet
  facet normal 0 -1 0
    outer loop
      vertex 2.80518 -1.5 1
      vertex 17.1022 -1.5 -0.776457
      vertex 17 -1.5 0
    endloop
  endfacet
  facet normal 0 -1 0
    outer loop
      vertex 1.5 -1.5 -2.59808
      vertex -2.59808 -1.5 -1.5
      vertex -2.12132 -1.5 -2.12132
    endloop
  endfacet
  facet normal 0 -1 -0
    outer loop
      vertex 2.80518 -1.5 1
      vertex 1.5 -1.5 -3
      vertex 17.1022 -1.5 -0.776457
    endloop
  endfacet
  facet normal 0 -1 0
    outer loop
      vertex 1.5 -1.5 -2.59808
      vertex -2.12132 -1.5 -2.12132
      vertex -1.5 -1.5 -2.59808
    endloop
  endfacet
  facet normal 0 -1 -0
    outer loop
      vertex 17.1022 -1.5 -0.776457
      vertex 1.5 -1.5 -3
      vertex 17.4019 -1.5 -1.5
    endloop
  endfacet
  facet normal 0 -1 -0
    outer loop
      vertex 17.4019 -1.5 -1.5
      vertex 1.5 -1.5 -3
      vertex 17.8787 -1.5 -2.12132
    endloop
  endfacet
  facet normal 0 -1 0
    outer loop
      vertex 18.5 -1.5 -3
      vertex 17.8787 -1.5 -2.12132
      vertex 1.5 -1.5 -3
    endloop
  endfacet
  facet normal 0 -1 0
    outer loop
      vertex 17.8787 -1.5 -2.12132
      vertex 18.5 -1.5 -3
      vertex 18.5 -1.5 -2.59808
    endloop
  endfacet
  facet normal 0.793351 0 -0.608765
    outer loop
      vertex 2.59808 1.5 -1.5
      vertex 2.12132 2 -2.12132
      vertex 2.59808 2 -1.5
    endloop
  endfacet
  facet normal 0.793351 0 -0.608765
    outer loop
      vertex 2.12132 2 -2.12132
      vertex 2.59808 1.5 -1.5
      vertex 2.12132 1.5 -2.12132
    endloop
  endfacet
  facet normal -0.92388 0 -0.382682
    outer loop
      vertex -2.59808 -1.5 -1.5
      vertex -2.89778 2 -0.776457
      vertex -2.59808 2 -1.5
    endloop
  endfacet
  facet normal -0.92388 -0 -0.382682
    outer loop
      vertex -2.89778 2 -0.776457
      vertex -2.59808 -1.5 -1.5
      vertex -2.89778 -1.5 -0.776457
    endloop
  endfacet
  facet normal 0 1 -0
    outer loop
      vertex 0.5 2 1
      vertex 0 2 3
      vertex 0.776457 2 2.89778
    endloop
  endfacet
  facet normal 0 1 0
    outer loop
      vertex 0.5 2 1
      vertex 0.776457 2 2.89778
      vertex 1.5 2 2.59808
    endloop
  endfacet
  facet normal 0 1 0
    outer loop
      vertex -0.5 2 1
      vertex 0 2 3
      vertex 0.5 2 1
    endloop
  endfacet
  facet normal 0 1 0
    outer loop
      vertex 0.765367 2 0.847758
      vertex 1.5 2 2.59808
      vertex 2.12132 2 2.12132
    endloop
  endfacet
  facet normal 0 1 0
    outer loop
      vertex 0 2 3
      vertex -0.5 2 1
      vertex -0.776457 2 2.89778
    endloop
  endfacet
  facet normal 0 1 0
    outer loop
      vertex 1.41421 2 0.414213
      vertex 2.12132 2 2.12132
      vertex 2.59808 2 1.5
    endloop
  endfacet
  facet normal 0 1 0
    outer loop
      vertex -0.776457 2 2.89778
      vertex -0.5 2 1
      vertex -1.5 2 2.59808
    endloop
  endfacet
  facet normal 0 1 -0
    outer loop
      vertex -0.765367 2 0.847758
      vertex -1.5 2 2.59808
      vertex -0.5 2 1
    endloop
  endfacet
  facet normal 0 1 0
    outer loop
      vertex 1.5 2 2.59808
      vertex 0.765367 2 0.847758
      vertex 0.5 2 1
    endloop
  endfacet
  facet normal 0 1 0
    outer loop
      vertex 0.5 2 1
      vertex 0.765367 2 0.847758
      vertex 0.5 2 0.900543
    endloop
  endfacet
  facet normal 0 1 0
    outer loop
      vertex 1.41421 2 0.414213
      vertex 2.59808 2 1.5
      vertex 2.89778 2 0.776457
    endloop
  endfacet
  facet normal 0 1 0
    outer loop
      vertex 2.12132 2 2.12132
      vertex 1.41421 2 0.414213
      vertex 0.765367 2 0.847758
    endloop
  endfacet
  facet normal 0 1 0
    outer loop
      vertex 1.84776 2 -0.234632
      vertex 2.89778 2 0.776457
      vertex 3 2 0
    endloop
  endfacet
  facet normal 0 1 0
    outer loop
      vertex 2.89778 2 0.776457
      vertex 1.84776 2 -0.234632
      vertex 1.41421 2 0.414213
    endloop
  endfacet
  facet normal 0 1 -0
    outer loop
      vertex 2.89778 2 -0.776457
      vertex 1.84776 2 -0.234632
      vertex 3 2 0
    endloop
  endfacet
  facet normal 0 1 0
    outer loop
      vertex 2.89778 2 -0.776457
      vertex 2 2 -1
      vertex 1.84776 2 -0.234632
    endloop
  endfacet
  facet normal 0 1 -0
    outer loop
      vertex 2.59808 2 -1.5
      vertex 2 2 -1
      vertex 2.89778 2 -0.776457
    endloop
  endfacet
  facet normal 0 1 0
    outer loop
      vertex 2.59808 2 -1.5
      vertex 1.84776 2 -1.76537
      vertex 2 2 -1
    endloop
  endfacet
  facet normal 0 1 -0
    outer loop
      vertex 2.12132 2 -2.12132
      vertex 1.84776 2 -1.76537
      vertex 2.59808 2 -1.5
    endloop
  endfacet
  facet normal 0 1 0
    outer loop
      vertex 2.12132 2 -2.12132
      vertex 1.41421 2 -2.41421
      vertex 1.84776 2 -1.76537
    endloop
  endfacet
  facet normal 0 1 -0
    outer loop
      vertex 1.5 2 -2.59808
      vertex 1.41421 2 -2.41421
      vertex 2.12132 2 -2.12132
    endloop
  endfacet
  facet normal 0 1 0
    outer loop
      vertex 1.5 2 -2.59808
      vertex 0.765367 2 -2.84776
      vertex 1.41421 2 -2.41421
    endloop
  endfacet
  facet normal 0 1 -0
    outer loop
      vertex 0.776457 2 -2.89778
      vertex 0.765367 2 -2.84776
      vertex 1.5 2 -2.59808
    endloop
  endfacet
  facet normal 0 1 0
    outer loop
      vertex 0.776457 2 -2.89778
      vertex 0.5 2 -2.90054
      vertex 0.765367 2 -2.84776
    endloop
  endfacet
  facet normal -0 1 0
    outer loop
      vertex 0.5 2 -2.90054
      vertex 0.776457 2 -2.89778
      vertex 0.5 2 -2.93417
    endloop
  endfacet
  facet normal 0 1 0
    outer loop
      vertex -1.5 2 2.59808
      vertex -0.765367 2 0.847758
      vertex -2.12132 2 2.12132
    endloop
  endfacet
  facet normal 0 1 0
    outer loop
      vertex -0.765367 2 0.847758
      vertex -0.5 2 1
      vertex -0.5 2 0.900543
    endloop
  endfacet
  facet normal 0 1 -0
    outer loop
      vertex -1.41421 2 0.414213
      vertex -2.12132 2 2.12132
      vertex -0.765367 2 0.847758
    endloop
  endfacet
  facet normal 0 1 0
    outer loop
      vertex -2.12132 2 2.12132
      vertex -1.41421 2 0.414213
      vertex -2.59808 2 1.5
    endloop
  endfacet
  facet normal 0 1 0
    outer loop
      vertex -2.59808 2 1.5
      vertex -1.41421 2 0.414213
      vertex -2.89778 2 0.776457
    endloop
  endfacet
  facet normal 0 1 -0
    outer loop
      vertex -1.84776 2 -0.234632
      vertex -2.89778 2 0.776457
      vertex -1.41421 2 0.414213
    endloop
  endfacet
  facet normal 0 1 0
    outer loop
      vertex -2.89778 2 0.776457
      vertex -1.84776 2 -0.234632
      vertex -3 2 0
    endloop
  endfacet
  facet normal 0 1 0
    outer loop
      vertex -1.84776 2 -0.234632
      vertex -2.89778 2 -0.776457
      vertex -3 2 0
    endloop
  endfacet
  facet normal 0 1 -0
    outer loop
      vertex -2 2 -1
      vertex -2.89778 2 -0.776457
      vertex -1.84776 2 -0.234632
    endloop
  endfacet
  facet normal 0 1 0
    outer loop
      vertex -2 2 -1
      vertex -2.59808 2 -1.5
      vertex -2.89778 2 -0.776457
    endloop
  endfacet
  facet normal 0 1 0
    outer loop
      vertex -1.84776 2 -1.76537
      vertex -2.59808 2 -1.5
      vertex -2 2 -1
    endloop
  endfacet
  facet normal 0 1 0
    outer loop
      vertex -1.84776 2 -1.76537
      vertex -2.12132 2 -2.12132
      vertex -2.59808 2 -1.5
    endloop
  endfacet
  facet normal 0 1 0
    outer loop
      vertex -1.41421 2 -2.41421
      vertex -2.12132 2 -2.12132
      vertex -1.84776 2 -1.76537
    endloop
  endfacet
  facet normal 0 1 0
    outer loop
      vertex -1.41421 2 -2.41421
      vertex -1.5 2 -2.59808
      vertex -2.12132 2 -2.12132
    endloop
  endfacet
  facet normal 0 1 0
    outer loop
      vertex -0.765367 2 -2.84776
      vertex -1.5 2 -2.59808
      vertex -1.41421 2 -2.41421
    endloop
  endfacet
  facet normal 0 1 0
    outer loop
      vertex -0.765367 2 -2.84776
      vertex -0.776457 2 -2.89778
      vertex -1.5 2 -2.59808
    endloop
  endfacet
  facet normal 0 1 0
    outer loop
      vertex -0.5 2 -2.90054
      vertex -0.776457 2 -2.89778
      vertex -0.765367 2 -2.84776
    endloop
  endfacet
  facet normal 0 1 0
    outer loop
      vertex -0.776457 2 -2.89778
      vertex -0.5 2 -2.90054
      vertex -0.5 2 -2.93417
    endloop
  endfacet
  facet normal -0.130534 0 -0.991444
    outer loop
      vertex 0 -1.5 -3
      vertex -0.5 0 -2.93417
      vertex 0 0 -3
    endloop
  endfacet
  facet normal -0.130523 3.54489e-06 -0.991445
    outer loop
      vertex -0.776457 -1.5 -2.89778
      vertex -0.5 0 -2.93417
      vertex 0 -1.5 -3
    endloop
  endfacet
  facet normal -0.130504 -0 -0.991448
    outer loop
      vertex -0.776457 2 -2.89778
      vertex -0.5 0 -2.93417
      vertex -0.776457 -1.5 -2.89778
    endloop
  endfacet
  facet normal -0.130504 0 -0.991448
    outer loop
      vertex -0.5 0 -2.93417
      vertex -0.776457 2 -2.89778
      vertex -0.5 2 -2.93417
    endloop
  endfacet
  facet normal 0.991445 -0 0.130523
    outer loop
      vertex 2.89778 1.5 0.776457
      vertex 3 2 0
      vertex 2.89778 2 0.776457
    endloop
  endfacet
  facet normal 0.991445 0 0.130523
    outer loop
      vertex 3 2 0
      vertex 2.89778 1.5 0.776457
      vertex 3 1.5 0
    endloop
  endfacet
  facet normal 0.130523 0 0.991445
    outer loop
      vertex 0 2 3
      vertex 0.776457 -1.5 2.89778
      vertex 0.776457 2 2.89778
    endloop
  endfacet
  facet normal 0.130523 0 0.991445
    outer loop
      vertex 0.776457 -1.5 2.89778
      vertex 0 2 3
      vertex 0 -1.5 3
    endloop
  endfacet
  facet normal 0.608765 0 0.793351
    outer loop
      vertex 1.5 2 2.59808
      vertex 2.12132 -1.5 2.12132
      vertex 2.12132 2 2.12132
    endloop
  endfacet
  facet normal 0.608765 0 0.793351
    outer loop
      vertex 2.12132 -1.5 2.12132
      vertex 1.5 2 2.59808
      vertex 1.5 -1.5 2.59808
    endloop
  endfacet
  facet normal -0.382682 0 0.92388
    outer loop
      vertex -1.5 2 2.59808
      vertex -0.776457 -1.5 2.89778
      vertex -0.776457 2 2.89778
    endloop
  endfacet
  facet normal -0.382682 0 0.92388
    outer loop
      vertex -0.776457 -1.5 2.89778
      vertex -1.5 2 2.59808
      vertex -1.5 -1.5 2.59808
    endloop
  endfacet
  facet normal -0.793351 0 0.608765
    outer loop
      vertex -2.59808 -1.5 1.5
      vertex -2.12132 2 2.12132
      vertex -2.59808 2 1.5
    endloop
  endfacet
  facet normal -0.793351 0 0.608765
    outer loop
      vertex -2.12132 2 2.12132
      vertex -2.59808 -1.5 1.5
      vertex -2.12132 -1.5 2.12132
    endloop
  endfacet
  facet normal -0.991445 0 0.130523
    outer loop
      vertex -3 -1.5 0
      vertex -2.89778 2 0.776457
      vertex -3 2 0
    endloop
  endfacet
  facet normal -0.991445 0 0.130523
    outer loop
      vertex -2.89778 2 0.776457
      vertex -3 -1.5 0
      vertex -2.89778 -1.5 0.776457
    endloop
  endfacet
  facet normal 0.382682 0 0.92388
    outer loop
      vertex 0.776457 2 2.89778
      vertex 1.5 -1.5 2.59808
      vertex 1.5 2 2.59808
    endloop
  endfacet
  facet normal 0.382682 0 0.92388
    outer loop
      vertex 1.5 -1.5 2.59808
      vertex 0.776457 2 2.89778
      vertex 0.776457 -1.5 2.89778
    endloop
  endfacet
  facet normal -0.130523 0 0.991445
    outer loop
      vertex -0.776457 2 2.89778
      vertex 0 -1.5 3
      vertex 0 2 3
    endloop
  endfacet
  facet normal -0.130523 0 0.991445
    outer loop
      vertex 0 -1.5 3
      vertex -0.776457 2 2.89778
      vertex -0.776457 -1.5 2.89778
    endloop
  endfacet
  facet normal -0.92388 0 0.382682
    outer loop
      vertex -2.89778 -1.5 0.776457
      vertex -2.59808 2 1.5
      vertex -2.89778 2 0.776457
    endloop
  endfacet
  facet normal -0.92388 0 0.382682
    outer loop
      vertex -2.59808 2 1.5
      vertex -2.89778 -1.5 0.776457
      vertex -2.59808 -1.5 1.5
    endloop
  endfacet
  facet normal 0.980786 0 -0.195088
    outer loop
      vertex 2 2 -1
      vertex 1.84776 15 -1.76537
      vertex 2 15 -1
    endloop
  endfacet
  facet normal 0.980786 0 -0.195088
    outer loop
      vertex 1.84776 15 -1.76537
      vertex 2 2 -1
      vertex 1.84776 2 -1.76537
    endloop
  endfacet
  facet normal 0.195091 0 0.980785
    outer loop
      vertex 0.5 15 0.900543
      vertex 0.765367 2 0.847758
      vertex 0.765367 15 0.847758
    endloop
  endfacet
  facet normal 0.195091 0 0.980785
    outer loop
      vertex 0.765367 2 0.847758
      vertex 0.5 15 0.900543
      vertex 0.5 2 0.900543
    endloop
  endfacet
  facet normal -0.195073 0 -0.980789
    outer loop
      vertex -0.765367 2 -2.84776
      vertex -0.5 15 -2.90054
      vertex -0.5 2 -2.90054
    endloop
  endfacet
  facet normal -0.195073 0 -0.980789
    outer loop
      vertex -0.5 15 -2.90054
      vertex -0.765367 2 -2.84776
      vertex -0.765367 15 -2.84776
    endloop
  endfacet
  facet normal 0.555576 0 -0.831465
    outer loop
      vertex 0.765367 2 -2.84776
      vertex 1.41421 15 -2.41421
      vertex 1.41421 2 -2.41421
    endloop
  endfacet
  facet normal 0.555576 0 -0.831465
    outer loop
      vertex 1.41421 15 -2.41421
      vertex 0.765367 2 -2.84776
      vertex 0.765367 15 -2.84776
    endloop
  endfacet
  facet normal 0.831464 0 -0.555578
    outer loop
      vertex 1.84776 2 -1.76537
      vertex 1.41421 15 -2.41421
      vertex 1.84776 15 -1.76537
    endloop
  endfacet
  facet normal 0.831464 0 -0.555578
    outer loop
      vertex 1.41421 15 -2.41421
      vertex 1.84776 2 -1.76537
      vertex 1.41421 2 -2.41421
    endloop
  endfacet
  facet normal 0.195073 0 -0.980789
    outer loop
      vertex 0.5 2 -2.90054
      vertex 0.765367 15 -2.84776
      vertex 0.765367 2 -2.84776
    endloop
  endfacet
  facet normal 0.195073 0 -0.980789
    outer loop
      vertex 0.765367 15 -2.84776
      vertex 0.5 2 -2.90054
      vertex 0.5 15 -2.90054
    endloop
  endfacet
  facet normal -0.831464 0 -0.555578
    outer loop
      vertex -1.41421 2 -2.41421
      vertex -1.84776 15 -1.76537
      vertex -1.41421 15 -2.41421
    endloop
  endfacet
  facet normal -0.831464 -0 -0.555578
    outer loop
      vertex -1.84776 15 -1.76537
      vertex -1.41421 2 -2.41421
      vertex -1.84776 2 -1.76537
    endloop
  endfacet
  facet normal -0.980786 0 -0.195088
    outer loop
      vertex -1.84776 2 -1.76537
      vertex -2 15 -1
      vertex -1.84776 15 -1.76537
    endloop
  endfacet
  facet normal -0.980786 -0 -0.195088
    outer loop
      vertex -2 15 -1
      vertex -1.84776 2 -1.76537
      vertex -2 2 -1
    endloop
  endfacet
  facet normal 0 1 0
    outer loop
      vertex 1.41421 15 0.414213
      vertex 0.5 15 0.900543
      vertex 0.765367 15 0.847758
    endloop
  endfacet
  facet normal 0 1 0
    outer loop
      vertex 1.84776 15 -0.234632
      vertex 0.5 15 0.900543
      vertex 1.41421 15 0.414213
    endloop
  endfacet
  facet normal 0 1 0
    outer loop
      vertex 2 15 -1
      vertex 0.5 15 0.900543
      vertex 1.84776 15 -0.234632
    endloop
  endfacet
  facet normal 0 1 -0
    outer loop
      vertex 1.84776 15 -1.76537
      vertex 0.5 15 0.900543
      vertex 2 15 -1
    endloop
  endfacet
  facet normal 0 1 0
    outer loop
      vertex 0.5 15 -2.90054
      vertex 1.84776 15 -1.76537
      vertex 1.41421 15 -2.41421
    endloop
  endfacet
  facet normal 0 1 0
    outer loop
      vertex 0.5 15 -2.90054
      vertex 1.41421 15 -2.41421
      vertex 0.765367 15 -2.84776
    endloop
  endfacet
  facet normal 0 1 0
    outer loop
      vertex 1.84776 15 -1.76537
      vertex 0.5 15 -2.90054
      vertex 0.5 15 0.900543
    endloop
  endfacet
  facet normal 0 1 0
    outer loop
      vertex -0.5 15 0.900543
      vertex -1.41421 15 0.414213
      vertex -0.765367 15 0.847758
    endloop
  endfacet
  facet normal 0 1 0
    outer loop
      vertex -0.5 15 0.900543
      vertex -1.84776 15 -0.234632
      vertex -1.41421 15 0.414213
    endloop
  endfacet
  facet normal 0 1 0
    outer loop
      vertex -0.5 15 0.900543
      vertex -2 15 -1
      vertex -1.84776 15 -0.234632
    endloop
  endfacet
  facet normal 0 1 0
    outer loop
      vertex -0.5 15 0.900543
      vertex -1.84776 15 -1.76537
      vertex -2 15 -1
    endloop
  endfacet
  facet normal 0 1 -0
    outer loop
      vertex -0.5 15 -2.90054
      vertex -1.84776 15 -1.76537
      vertex -0.5 15 0.900543
    endloop
  endfacet
  facet normal 0 1 0
    outer loop
      vertex -1.84776 15 -1.76537
      vertex -0.5 15 -2.90054
      vertex -1.41421 15 -2.41421
    endloop
  endfacet
  facet normal 0 1 0
    outer loop
      vertex -1.41421 15 -2.41421
      vertex -0.5 15 -2.90054
      vertex -0.765367 15 -2.84776
    endloop
  endfacet
  facet normal -0.555576 0 -0.831465
    outer loop
      vertex -1.41421 2 -2.41421
      vertex -0.765367 15 -2.84776
      vertex -0.765367 2 -2.84776
    endloop
  endfacet
  facet normal -0.555576 0 -0.831465
    outer loop
      vertex -0.765367 15 -2.84776
      vertex -1.41421 2 -2.41421
      vertex -1.41421 15 -2.41421
    endloop
  endfacet
  facet normal 0.980786 -0 0.195089
    outer loop
      vertex 1.84776 2 -0.234632
      vertex 2 15 -1
      vertex 1.84776 15 -0.234632
    endloop
  endfacet
  facet normal 0.980786 0 0.195089
    outer loop
      vertex 2 15 -1
      vertex 1.84776 2 -0.234632
      vertex 2 2 -1
    endloop
  endfacet
  facet normal -0.980786 0 0.195089
    outer loop
      vertex -2 2 -1
      vertex -1.84776 15 -0.234632
      vertex -2 15 -1
    endloop
  endfacet
  facet normal -0.980786 0 0.195089
    outer loop
      vertex -1.84776 15 -0.234632
      vertex -2 2 -1
      vertex -1.84776 2 -0.234632
    endloop
  endfacet
  facet normal -0.195091 0 0.980785
    outer loop
      vertex -0.765367 15 0.847758
      vertex -0.5 2 0.900543
      vertex -0.5 15 0.900543
    endloop
  endfacet
  facet normal -0.195091 0 0.980785
    outer loop
      vertex -0.5 2 0.900543
      vertex -0.765367 15 0.847758
      vertex -0.765367 2 0.847758
    endloop
  endfacet
  facet normal -0.555572 0 0.831468
    outer loop
      vertex -1.41421 15 0.414213
      vertex -0.765367 2 0.847758
      vertex -0.765367 15 0.847758
    endloop
  endfacet
  facet normal -0.555572 0 0.831468
    outer loop
      vertex -0.765367 2 0.847758
      vertex -1.41421 15 0.414213
      vertex -1.41421 2 0.414213
    endloop
  endfacet
  facet normal -0.831466 0 0.555575
    outer loop
      vertex -1.84776 2 -0.234632
      vertex -1.41421 15 0.414213
      vertex -1.84776 15 -0.234632
    endloop
  endfacet
  facet normal -0.831466 0 0.555575
    outer loop
      vertex -1.41421 15 0.414213
      vertex -1.84776 2 -0.234632
      vertex -1.41421 2 0.414213
    endloop
  endfacet
  facet normal 0.831466 -0 0.555575
    outer loop
      vertex 1.41421 2 0.414213
      vertex 1.84776 15 -0.234632
      vertex 1.41421 15 0.414213
    endloop
  endfacet
  facet normal 0.831466 0 0.555575
    outer loop
      vertex 1.84776 15 -0.234632
      vertex 1.41421 2 0.414213
      vertex 1.84776 2 -0.234632
    endloop
  endfacet
  facet normal 0.555572 0 0.831468
    outer loop
      vertex 0.765367 15 0.847758
      vertex 1.41421 2 0.414213
      vertex 1.41421 15 0.414213
    endloop
  endfacet
  facet normal 0.555572 0 0.831468
    outer loop
      vertex 1.41421 2 0.414213
      vertex 0.765367 15 0.847758
      vertex 0.765367 2 0.847758
    endloop
  endfacet
  facet normal -1 0 0
    outer loop
      vertex 1.5 -1.5 -3
      vertex 1.5 1.5 -2.59808
      vertex 1.5 1.5 -3
    endloop
  endfacet
  facet normal -1 -0 0
    outer loop
      vertex 1.5 1.5 -2.59808
      vertex 1.5 -1.5 -3
      vertex 1.5 -1.5 -2.59808
    endloop
  endfacet
  facet normal 0 1 0
    outer loop
      vertex 18.5 1.5 1
      vertex 2.89778 1.5 0.776457
      vertex 2.80518 1.5 1
    endloop
  endfacet
  facet normal 0 1 0
    outer loop
      vertex 18.5 1.5 1
      vertex 3 1.5 0
      vertex 2.89778 1.5 0.776457
    endloop
  endfacet
  facet normal 0 1 -0
    outer loop
      vertex 18.5 1.5 -3
      vertex 3 1.5 0
      vertex 18.5 1.5 1
    endloop
  endfacet
  facet normal 0 1 0
    outer loop
      vertex 3 1.5 0
      vertex 18.5 1.5 -3
      vertex 2.89778 1.5 -0.776457
    endloop
  endfacet
  facet normal 0 1 0
    outer loop
      vertex 2.89778 1.5 -0.776457
      vertex 18.5 1.5 -3
      vertex 2.59808 1.5 -1.5
    endloop
  endfacet
  facet normal 0 1 0
    outer loop
      vertex 2.59808 1.5 -1.5
      vertex 18.5 1.5 -3
      vertex 2.12132 1.5 -2.12132
    endloop
  endfacet
  facet normal 0 1 0
    outer loop
      vertex 1.5 1.5 -3
      vertex 2.12132 1.5 -2.12132
      vertex 18.5 1.5 -3
    endloop
  endfacet
  facet normal 0 1 0
    outer loop
      vertex 2.12132 1.5 -2.12132
      vertex 1.5 1.5 -3
      vertex 1.5 1.5 -2.59808
    endloop
  endfacet
  facet normal 1 0 0
    outer loop
      vertex 18.5 1 -2.59808
      vertex 18.5 1.5 1
      vertex 18.5 1 1
    endloop
  endfacet
  facet normal 1 0 0
    outer loop
      vertex 18.5 1.5 1
      vertex 18.5 1 -2.59808
      vertex 18.5 1.5 -3
    endloop
  endfacet
  facet normal 1 0 0
    outer loop
      vertex 18.5 -1.5 -3
      vertex 18.5 1 -2.59808
      vertex 18.5 -1.5 -2.59808
    endloop
  endfacet
  facet normal 1 0 0
    outer loop
      vertex 18.5 1 -2.59808
      vertex 18.5 -1.5 -3
      vertex 18.5 1.5 -3
    endloop
  endfacet
  facet normal 0 0 -1
    outer loop
      vertex 1.5 -1.5 -3
      vertex 18.5 1.5 -3
      vertex 18.5 -1.5 -3
    endloop
  endfacet
  facet normal -0 0 -1
    outer loop
      vertex 18.5 1.5 -3
      vertex 1.5 -1.5 -3
      vertex 1.5 1.5 -3
    endloop
  endfacet
  facet normal 0 0 1
    outer loop
      vertex 18.5 1.5 1
      vertex 17.1948 1 1
      vertex 18.5 1 1
    endloop
  endfacet
  facet normal -0 0 1
    outer loop
      vertex 2.80518 1.5 1
      vertex 17.1948 1 1
      vertex 18.5 1.5 1
    endloop
  endfacet
  facet normal 0 0 1
    outer loop
      vertex 2.80518 -1.5 1
      vertex 17.1948 1 1
      vertex 2.80518 1.5 1
    endloop
  endfacet
  facet normal 0 0 1
    outer loop
      vertex 17.1948 1 1
      vertex 2.80518 -1.5 1
      vertex 17.1948 -1.5 1
    endloop
  endfacet
endsolid OpenSCAD_Model
