solid OpenSCAD_Model
  facet normal 0.866026 0.499999 0
    outer loop
      vertex 15 0 150
      vertex 7.5 12.9904 0
      vertex 7.5 12.9904 150
    endloop
  endfacet
  facet normal 0.866026 0.499999 0
    outer loop
      vertex 7.5 12.9904 0
      vertex 15 0 150
      vertex 15 0 0
    endloop
  endfacet
  facet normal 0 1 -0
    outer loop
      vertex 7.5 12.9904 0
      vertex -7.5 12.9904 150
      vertex 7.5 12.9904 150
    endloop
  endfacet
  facet normal 0 1 0
    outer loop
      vertex -7.5 12.9904 150
      vertex 7.5 12.9904 0
      vertex -7.5 12.9904 0
    endloop
  endfacet
  facet normal -0.866026 0.499999 0
    outer loop
      vertex -15 -0 0
      vertex -7.5 12.9904 150
      vertex -7.5 12.9904 0
    endloop
  endfacet
  facet normal -0.866026 0.499999 0
    outer loop
      vertex -7.5 12.9904 150
      vertex -15 -0 0
      vertex -15 -0 150
    endloop
  endfacet
  facet normal -0.866026 -0.499999 0
    outer loop
      vertex -7.5 -12.9904 0
      vertex -15 -0 150
      vertex -15 -0 0
    endloop
  endfacet
  facet normal -0.866026 -0.499999 0
    outer loop
      vertex -15 -0 150
      vertex -7.5 -12.9904 0
      vertex -7.5 -12.9904 150
    endloop
  endfacet
  facet normal 0 -1 0
    outer loop
      vertex -7.5 -12.9904 0
      vertex 7.5 -12.9904 150
      vertex -7.5 -12.9904 150
    endloop
  endfacet
  facet normal 0 -1 -0
    outer loop
      vertex 7.5 -12.9904 150
      vertex -7.5 -12.9904 0
      vertex 7.5 -12.9904 0
    endloop
  endfacet
  facet normal 0.866026 -0.499999 0
    outer loop
      vertex 7.5 -12.9904 150
      vertex 15 0 0
      vertex 15 0 150
    endloop
  endfacet
  facet normal 0.866026 -0.499999 0
    outer loop
      vertex 15 0 0
      vertex 7.5 -12.9904 150
      vertex 7.5 -12.9904 0
    endloop
  endfacet
  facet normal 0 0 -1
    outer loop
      vertex 7.5 -12.9904 0
      vertex 7.5 12.9904 0
      vertex 15 0 0
    endloop
  endfacet
  facet normal 0 0 -1
    outer loop
      vertex -7.5 -12.9904 0
      vertex 7.5 12.9904 0
      vertex 7.5 -12.9904 0
    endloop
  endfacet
  facet normal 0 0 -1
    outer loop
      vertex -7.5 -12.9904 0
      vertex -7.5 12.9904 0
      vertex 7.5 12.9904 0
    endloop
  endfacet
  facet normal 0 -0 -1
    outer loop
      vertex -7.5 12.9904 0
      vertex -7.5 -12.9904 0
      vertex -15 -0 0
    endloop
  endfacet
  facet normal 0 0 1
    outer loop
      vertex 7.5 12.9904 150
      vertex 7.5 -12.9904 150
      vertex 15 0 150
    endloop
  endfacet
  facet normal -0 0 1
    outer loop
      vertex -7.5 12.9904 150
      vertex 7.5 -12.9904 150
      vertex 7.5 12.9904 150
    endloop
  endfacet
  facet normal 0 0 1
    outer loop
      vertex -7.5 12.9904 150
      vertex -7.5 -12.9904 150
      vertex 7.5 -12.9904 150
    endloop
  endfacet
  facet normal 0 -0 1
    outer loop
      vertex -7.5 -12.9904 150
      vertex -7.5 12.9904 150
      vertex -15 -0 150
    endloop
  endfacet
endsolid OpenSCAD_Model
