solid OpenSCAD_Model
  facet normal 0 0 -1
    outer loop
      vertex 1.2002 26.2002 0
      vertex 4.59961 27 0
      vertex 5.15723 26.2002 0
    endloop
  endfacet
  facet normal -0 0 -1
    outer loop
      vertex 4.59961 27 0
      vertex 1.2002 26.2002 0
      vertex 1.2002 27 0
    endloop
  endfacet
  facet normal -0 0 -1
    outer loop
      vertex 5.40039 3.28711 0
      vertex 4.59961 3 0
      vertex 5.15723 3.7998 0
    endloop
  endfacet
  facet normal 0 0 -1
    outer loop
      vertex 1.2002 3.7998 0
      vertex 4.59961 3 0
      vertex 1.2002 3 0
    endloop
  endfacet
  facet normal 0 0 -1
    outer loop
      vertex 4.59961 3 0
      vertex 1.2002 3.7998 0
      vertex 5.15723 3.7998 0
    endloop
  endfacet
  facet normal 0 0 -1
    outer loop
      vertex 20.7715 15 0
      vertex 5.40039 26.7129 0
      vertex 21.25 15.3438 0
    endloop
  endfacet
  facet normal 0 0 -1
    outer loop
      vertex 4.59961 27 0
      vertex 5.40039 26.7129 0
      vertex 5.15723 26.2002 0
    endloop
  endfacet
  facet normal 0 0 -1
    outer loop
      vertex 5.15723 26.2002 0
      vertex 5.40039 26.7129 0
      vertex 20.7715 15 0
    endloop
  endfacet
  facet normal 0 0 -1
    outer loop
      vertex 42.6572 26.2002 0
      vertex 58.75 15.3438 0
      vertex 58.2715 15 0
    endloop
  endfacet
  facet normal 0 0 -1
    outer loop
      vertex 42.6572 26.2002 0
      vertex 42.5 27 0
      vertex 58.75 15.3438 0
    endloop
  endfacet
  facet normal 0 0 -1
    outer loop
      vertex 42.5 27 0
      vertex 41.7002 27 0
      vertex 42.5 28.7998 0
    endloop
  endfacet
  facet normal 0 0 -1
    outer loop
      vertex 42.6572 26.2002 0
      vertex 41.7002 27 0
      vertex 42.5 27 0
    endloop
  endfacet
  facet normal 0 0 -1
    outer loop
      vertex 40.2998 26.2002 0
      vertex 41.7002 27 0
      vertex 42.6572 26.2002 0
    endloop
  endfacet
  facet normal 0 0 -1
    outer loop
      vertex 39.7002 26.2002 0
      vertex 40.2998 26.2002 0
      vertex 39.7002 3.7998 0
    endloop
  endfacet
  facet normal 0 0 -1
    outer loop
      vertex 39.7002 26.2002 0
      vertex 41.7002 27 0
      vertex 40.2998 26.2002 0
    endloop
  endfacet
  facet normal 0 0 -1
    outer loop
      vertex 39.7002 26.2002 0
      vertex 38.2998 27 0
      vertex 41.7002 27 0
    endloop
  endfacet
  facet normal 0 0 -1
    outer loop
      vertex 38.2998 27 0
      vertex 37.5 27 0
      vertex 38.2998 28.7998 0
    endloop
  endfacet
  facet normal 0 0 -1
    outer loop
      vertex 37.3428 26.2002 0
      vertex 38.2998 27 0
      vertex 39.7002 26.2002 0
    endloop
  endfacet
  facet normal -0 0 -1
    outer loop
      vertex 38.2998 27 0
      vertex 37.3428 26.2002 0
      vertex 37.5 27 0
    endloop
  endfacet
  facet normal 0 0 -1
    outer loop
      vertex 21.25 15.3438 0
      vertex 37.3428 26.2002 0
      vertex 21.7285 15 0
    endloop
  endfacet
  facet normal 0 0 -1
    outer loop
      vertex 21.25 15.3438 0
      vertex 21.7285 15 0
      vertex 21.25 14.6562 0
    endloop
  endfacet
  facet normal -0 0 -1
    outer loop
      vertex 37.3428 26.2002 0
      vertex 21.25 15.3438 0
      vertex 37.5 27 0
    endloop
  endfacet
  facet normal 0 0 -1
    outer loop
      vertex 21.25 14.6562 0
      vertex 20.7715 15 0
      vertex 21.25 15.3438 0
    endloop
  endfacet
  facet normal 0 0 -1
    outer loop
      vertex 5.40039 3.28711 0
      vertex 20.7715 15 0
      vertex 21.25 14.6562 0
    endloop
  endfacet
  facet normal 0 0 -1
    outer loop
      vertex 20.7715 15 0
      vertex 5.40039 3.28711 0
      vertex 5.15723 3.7998 0
    endloop
  endfacet
  facet normal 0 0 -1
    outer loop
      vertex 59.2285 15 0
      vertex 74.5996 26.7129 0
      vertex 74.8428 26.2002 0
    endloop
  endfacet
  facet normal 0 0 -1
    outer loop
      vertex 58.75 15.3438 0
      vertex 59.2285 15 0
      vertex 58.75 14.6562 0
    endloop
  endfacet
  facet normal 0 0 -1
    outer loop
      vertex 59.2285 15 0
      vertex 58.75 15.3438 0
      vertex 74.5996 26.7129 0
    endloop
  endfacet
  facet normal 0 0 -1
    outer loop
      vertex 58.75 14.6562 0
      vertex 58.2715 15 0
      vertex 58.75 15.3438 0
    endloop
  endfacet
  facet normal -0 0 -1
    outer loop
      vertex 58.75 14.6562 0
      vertex 42.6572 3.7998 0
      vertex 58.2715 15 0
    endloop
  endfacet
  facet normal 0 0 -1
    outer loop
      vertex 42.5 3 0
      vertex 42.6572 3.7998 0
      vertex 58.75 14.6562 0
    endloop
  endfacet
  facet normal 0 0 -1
    outer loop
      vertex 41.7002 3 0
      vertex 42.5 3 0
      vertex 41.7002 1.2002 0
    endloop
  endfacet
  facet normal 0 0 -1
    outer loop
      vertex 42.5 3 0
      vertex 41.7002 3 0
      vertex 42.6572 3.7998 0
    endloop
  endfacet
  facet normal 0 0 -1
    outer loop
      vertex 41.7002 3 0
      vertex 40.2998 3.7998 0
      vertex 42.6572 3.7998 0
    endloop
  endfacet
  facet normal 0 0 -1
    outer loop
      vertex 40.2998 3.7998 0
      vertex 39.7002 3.7998 0
      vertex 40.2998 26.2002 0
    endloop
  endfacet
  facet normal 0 0 -1
    outer loop
      vertex 41.7002 3 0
      vertex 39.7002 3.7998 0
      vertex 40.2998 3.7998 0
    endloop
  endfacet
  facet normal 0 0 -1
    outer loop
      vertex 38.2998 3 0
      vertex 39.7002 3.7998 0
      vertex 41.7002 3 0
    endloop
  endfacet
  facet normal 0 0 -1
    outer loop
      vertex 37.5 3 0
      vertex 38.2998 3 0
      vertex 37.5 1.2002 0
    endloop
  endfacet
  facet normal 0 0 -1
    outer loop
      vertex 37.3428 3.7998 0
      vertex 38.2998 3 0
      vertex 37.5 3 0
    endloop
  endfacet
  facet normal 0 0 -1
    outer loop
      vertex 38.2998 3 0
      vertex 37.3428 3.7998 0
      vertex 39.7002 3.7998 0
    endloop
  endfacet
  facet normal 0 0 -1
    outer loop
      vertex 21.25 14.6562 0
      vertex 37.3428 3.7998 0
      vertex 37.5 3 0
    endloop
  endfacet
  facet normal 0 0 -1
    outer loop
      vertex 37.3428 3.7998 0
      vertex 21.25 14.6562 0
      vertex 21.7285 15 0
    endloop
  endfacet
  facet normal 0 0 -1
    outer loop
      vertex 75.4004 3 0
      vertex 74.5996 3.28711 0
      vertex 74.8428 3.7998 0
    endloop
  endfacet
  facet normal 0 0 -1
    outer loop
      vertex 74.5996 3.28711 0
      vertex 59.2285 15 0
      vertex 74.8428 3.7998 0
    endloop
  endfacet
  facet normal 0 -0 -1
    outer loop
      vertex 59.2285 15 0
      vertex 74.5996 3.28711 0
      vertex 58.75 14.6562 0
    endloop
  endfacet
  facet normal 0 0 -1
    outer loop
      vertex 78.7998 26.2002 0
      vertex 75.4004 27 0
      vertex 78.7998 27 0
    endloop
  endfacet
  facet normal 0 0 -1
    outer loop
      vertex 74.5996 26.7129 0
      vertex 75.4004 27 0
      vertex 74.8428 26.2002 0
    endloop
  endfacet
  facet normal 0 0 -1
    outer loop
      vertex 74.8428 26.2002 0
      vertex 75.4004 27 0
      vertex 78.7998 26.2002 0
    endloop
  endfacet
  facet normal 0 0 -1
    outer loop
      vertex 75.4004 3 0
      vertex 78.7998 3.7998 0
      vertex 78.7998 3 0
    endloop
  endfacet
  facet normal -0 0 -1
    outer loop
      vertex 78.7998 3.7998 0
      vertex 75.4004 3 0
      vertex 74.8428 3.7998 0
    endloop
  endfacet
  facet normal 0 0 -1
    outer loop
      vertex 78.7998 3 0
      vertex 80 0 0
      vertex 78.7998 1.2002 0
    endloop
  endfacet
  facet normal 0 0 -1
    outer loop
      vertex 80 0 0
      vertex 75.4004 1.2002 0
      vertex 78.7998 1.2002 0
    endloop
  endfacet
  facet normal 0 0 -1
    outer loop
      vertex 74.5996 1.2002 0
      vertex 75.4004 3 0
      vertex 75.4004 1.2002 0
    endloop
  endfacet
  facet normal 0 0 -1
    outer loop
      vertex 74.5996 3.28711 0
      vertex 75.4004 3 0
      vertex 74.5996 1.2002 0
    endloop
  endfacet
  facet normal 0 0 -1
    outer loop
      vertex 80 0 0
      vertex 74.5996 1.2002 0
      vertex 75.4004 1.2002 0
    endloop
  endfacet
  facet normal 0 0 -1
    outer loop
      vertex 80 0 0
      vertex 42.5 1.2002 0
      vertex 74.5996 1.2002 0
    endloop
  endfacet
  facet normal 0 0 -1
    outer loop
      vertex 42.5 1.2002 0
      vertex 41.7002 1.2002 0
      vertex 42.5 3 0
    endloop
  endfacet
  facet normal 0 0 -1
    outer loop
      vertex 80 0 0
      vertex 41.7002 1.2002 0
      vertex 42.5 1.2002 0
    endloop
  endfacet
  facet normal 0 0 -1
    outer loop
      vertex 80 0 0
      vertex 38.2998 1.2002 0
      vertex 41.7002 1.2002 0
    endloop
  endfacet
  facet normal 0 0 -1
    outer loop
      vertex 38.2998 1.2002 0
      vertex 37.5 1.2002 0
      vertex 38.2998 3 0
    endloop
  endfacet
  facet normal 0 0 -1
    outer loop
      vertex 80 0 0
      vertex 37.5 1.2002 0
      vertex 38.2998 1.2002 0
    endloop
  endfacet
  facet normal 0 0 -1
    outer loop
      vertex 0 0 0
      vertex 37.5 1.2002 0
      vertex 80 0 0
    endloop
  endfacet
  facet normal 0 0 -1
    outer loop
      vertex 4.59961 3 0
      vertex 5.40039 1.2002 0
      vertex 4.59961 1.2002 0
    endloop
  endfacet
  facet normal 0 0 -1
    outer loop
      vertex 5.40039 1.2002 0
      vertex 4.59961 3 0
      vertex 5.40039 3.28711 0
    endloop
  endfacet
  facet normal -0 0 -1
    outer loop
      vertex 37.5 1.2002 0
      vertex 0 0 0
      vertex 5.40039 1.2002 0
    endloop
  endfacet
  facet normal -0 0 -1
    outer loop
      vertex 5.40039 1.2002 0
      vertex 0 0 0
      vertex 4.59961 1.2002 0
    endloop
  endfacet
  facet normal 0 0 -1
    outer loop
      vertex 0 0 0
      vertex 1.2002 3 0
      vertex 1.2002 1.2002 0
    endloop
  endfacet
  facet normal -0 0 -1
    outer loop
      vertex 1.2002 3 0
      vertex 0 0 0
      vertex 1.2002 3.7998 0
    endloop
  endfacet
  facet normal -0 0 -1
    outer loop
      vertex 1.2002 3.7998 0
      vertex 0 0 0
      vertex 1.2002 26.2002 0
    endloop
  endfacet
  facet normal 0 0 -1
    outer loop
      vertex 0 30 0
      vertex 1.2002 26.2002 0
      vertex 0 0 0
    endloop
  endfacet
  facet normal 0 0 -1
    outer loop
      vertex 1.2002 26.2002 0
      vertex 0 30 0
      vertex 1.2002 27 0
    endloop
  endfacet
  facet normal -0 0 -1
    outer loop
      vertex 4.59961 1.2002 0
      vertex 0 0 0
      vertex 1.2002 1.2002 0
    endloop
  endfacet
  facet normal 0 0 -1
    outer loop
      vertex 78.7998 3.7998 0
      vertex 80 0 0
      vertex 78.7998 3 0
    endloop
  endfacet
  facet normal 0 0 -1
    outer loop
      vertex 80 0 0
      vertex 78.7998 3.7998 0
      vertex 80 30 0
    endloop
  endfacet
  facet normal 0 0 -1
    outer loop
      vertex 78.7998 26.2002 0
      vertex 80 30 0
      vertex 78.7998 3.7998 0
    endloop
  endfacet
  facet normal 0 0 -1
    outer loop
      vertex 78.7998 27 0
      vertex 80 30 0
      vertex 78.7998 26.2002 0
    endloop
  endfacet
  facet normal 0 0 -1
    outer loop
      vertex 78.7998 28.7998 0
      vertex 80 30 0
      vertex 78.7998 27 0
    endloop
  endfacet
  facet normal 0 0 -1
    outer loop
      vertex 75.4004 28.7998 0
      vertex 80 30 0
      vertex 78.7998 28.7998 0
    endloop
  endfacet
  facet normal 0 0 -1
    outer loop
      vertex 74.5996 28.7998 0
      vertex 75.4004 27 0
      vertex 74.5996 26.7129 0
    endloop
  endfacet
  facet normal 0 0 -1
    outer loop
      vertex 75.4004 27 0
      vertex 74.5996 28.7998 0
      vertex 75.4004 28.7998 0
    endloop
  endfacet
  facet normal 0 0 -1
    outer loop
      vertex 74.5996 28.7998 0
      vertex 80 30 0
      vertex 75.4004 28.7998 0
    endloop
  endfacet
  facet normal 0 0 -1
    outer loop
      vertex 42.5 28.7998 0
      vertex 80 30 0
      vertex 74.5996 28.7998 0
    endloop
  endfacet
  facet normal 0 0 -1
    outer loop
      vertex 41.7002 28.7998 0
      vertex 42.5 28.7998 0
      vertex 41.7002 27 0
    endloop
  endfacet
  facet normal 0 0 -1
    outer loop
      vertex 41.7002 28.7998 0
      vertex 80 30 0
      vertex 42.5 28.7998 0
    endloop
  endfacet
  facet normal 0 0 -1
    outer loop
      vertex 38.2998 28.7998 0
      vertex 80 30 0
      vertex 41.7002 28.7998 0
    endloop
  endfacet
  facet normal 0 0 -1
    outer loop
      vertex 37.5 28.7998 0
      vertex 38.2998 28.7998 0
      vertex 37.5 27 0
    endloop
  endfacet
  facet normal 0 0 -1
    outer loop
      vertex 37.5 28.7998 0
      vertex 80 30 0
      vertex 38.2998 28.7998 0
    endloop
  endfacet
  facet normal 0 0 -1
    outer loop
      vertex 0 30 0
      vertex 37.5 28.7998 0
      vertex 5.40039 28.7998 0
    endloop
  endfacet
  facet normal 0 0 -1
    outer loop
      vertex 5.40039 26.7129 0
      vertex 4.59961 27 0
      vertex 5.40039 28.7998 0
    endloop
  endfacet
  facet normal 0 0 -1
    outer loop
      vertex 4.59961 28.7998 0
      vertex 5.40039 28.7998 0
      vertex 4.59961 27 0
    endloop
  endfacet
  facet normal 0 0 -1
    outer loop
      vertex 0 30 0
      vertex 5.40039 28.7998 0
      vertex 4.59961 28.7998 0
    endloop
  endfacet
  facet normal 0 0 -1
    outer loop
      vertex 0 30 0
      vertex 4.59961 28.7998 0
      vertex 1.2002 28.7998 0
    endloop
  endfacet
  facet normal 0 0 -1
    outer loop
      vertex 37.5 28.7998 0
      vertex 0 30 0
      vertex 80 30 0
    endloop
  endfacet
  facet normal 0 0 -1
    outer loop
      vertex 1.2002 27 0
      vertex 0 30 0
      vertex 1.2002 28.7998 0
    endloop
  endfacet
  facet normal -0 0 1
    outer loop
      vertex 1.2002 3.7998 2
      vertex 4.59961 3 2
      vertex 5.15723 3.7998 2
    endloop
  endfacet
  facet normal 0 0 1
    outer loop
      vertex 4.59961 3 2
      vertex 1.2002 3.7998 2
      vertex 1.2002 3 2
    endloop
  endfacet
  facet normal 0 0 1
    outer loop
      vertex 5.40039 26.7129 2
      vertex 4.59961 27 2
      vertex 5.15723 26.2002 2
    endloop
  endfacet
  facet normal 0 0 1
    outer loop
      vertex 1.2002 26.2002 2
      vertex 4.59961 27 2
      vertex 1.2002 27 2
    endloop
  endfacet
  facet normal 0 0 1
    outer loop
      vertex 4.59961 27 2
      vertex 1.2002 26.2002 2
      vertex 5.15723 26.2002 2
    endloop
  endfacet
  facet normal 0 0 1
    outer loop
      vertex 20.7715 15 2
      vertex 5.40039 3.28711 2
      vertex 21.25 14.6562 2
    endloop
  endfacet
  facet normal 0 0 1
    outer loop
      vertex 4.59961 3 2
      vertex 5.40039 3.28711 2
      vertex 5.15723 3.7998 2
    endloop
  endfacet
  facet normal -0 0 1
    outer loop
      vertex 5.15723 3.7998 2
      vertex 5.40039 3.28711 2
      vertex 20.7715 15 2
    endloop
  endfacet
  facet normal 0 0 1
    outer loop
      vertex 42.6572 3.7998 2
      vertex 58.75 14.6562 2
      vertex 58.2715 15 2
    endloop
  endfacet
  facet normal -0 0 1
    outer loop
      vertex 42.6572 3.7998 2
      vertex 42.5 3 2
      vertex 58.75 14.6562 2
    endloop
  endfacet
  facet normal 0 0 1
    outer loop
      vertex 42.5 3 2
      vertex 41.7002 3 2
      vertex 42.5 1.2002 2
    endloop
  endfacet
  facet normal 0 0 1
    outer loop
      vertex 42.6572 3.7998 2
      vertex 41.7002 3 2
      vertex 42.5 3 2
    endloop
  endfacet
  facet normal -0 0 1
    outer loop
      vertex 40.2998 3.7998 2
      vertex 41.7002 3 2
      vertex 42.6572 3.7998 2
    endloop
  endfacet
  facet normal 0 0 1
    outer loop
      vertex 39.7002 3.7998 2
      vertex 40.2998 3.7998 2
      vertex 39.7002 26.2002 2
    endloop
  endfacet
  facet normal -0 0 1
    outer loop
      vertex 39.7002 3.7998 2
      vertex 41.7002 3 2
      vertex 40.2998 3.7998 2
    endloop
  endfacet
  facet normal 0 0 1
    outer loop
      vertex 39.7002 3.7998 2
      vertex 38.2998 3 2
      vertex 41.7002 3 2
    endloop
  endfacet
  facet normal 0 0 1
    outer loop
      vertex 38.2998 3 2
      vertex 37.5 3 2
      vertex 38.2998 1.2002 2
    endloop
  endfacet
  facet normal -0 0 1
    outer loop
      vertex 37.3428 3.7998 2
      vertex 38.2998 3 2
      vertex 39.7002 3.7998 2
    endloop
  endfacet
  facet normal 0 0 1
    outer loop
      vertex 38.2998 3 2
      vertex 37.3428 3.7998 2
      vertex 37.5 3 2
    endloop
  endfacet
  facet normal -0 0 1
    outer loop
      vertex 21.25 14.6562 2
      vertex 37.3428 3.7998 2
      vertex 21.7285 15 2
    endloop
  endfacet
  facet normal 0 0 1
    outer loop
      vertex 21.25 14.6562 2
      vertex 21.7285 15 2
      vertex 21.25 15.3438 2
    endloop
  endfacet
  facet normal 0 0 1
    outer loop
      vertex 37.3428 3.7998 2
      vertex 21.25 14.6562 2
      vertex 37.5 3 2
    endloop
  endfacet
  facet normal 0 0 1
    outer loop
      vertex 21.25 15.3438 2
      vertex 20.7715 15 2
      vertex 21.25 14.6562 2
    endloop
  endfacet
  facet normal 0 0 1
    outer loop
      vertex 5.40039 26.7129 2
      vertex 20.7715 15 2
      vertex 21.25 15.3438 2
    endloop
  endfacet
  facet normal 0 0 1
    outer loop
      vertex 20.7715 15 2
      vertex 5.40039 26.7129 2
      vertex 5.15723 26.2002 2
    endloop
  endfacet
  facet normal 0 0 1
    outer loop
      vertex 59.2285 15 2
      vertex 74.5996 3.28711 2
      vertex 74.8428 3.7998 2
    endloop
  endfacet
  facet normal 0 0 1
    outer loop
      vertex 58.75 14.6562 2
      vertex 59.2285 15 2
      vertex 58.75 15.3438 2
    endloop
  endfacet
  facet normal 0 0 1
    outer loop
      vertex 59.2285 15 2
      vertex 58.75 14.6562 2
      vertex 74.5996 3.28711 2
    endloop
  endfacet
  facet normal 0 0 1
    outer loop
      vertex 58.75 15.3438 2
      vertex 58.2715 15 2
      vertex 58.75 14.6562 2
    endloop
  endfacet
  facet normal 0 0 1
    outer loop
      vertex 58.75 15.3438 2
      vertex 42.6572 26.2002 2
      vertex 58.2715 15 2
    endloop
  endfacet
  facet normal 0 0 1
    outer loop
      vertex 42.5 27 2
      vertex 42.6572 26.2002 2
      vertex 58.75 15.3438 2
    endloop
  endfacet
  facet normal 0 0 1
    outer loop
      vertex 41.7002 27 2
      vertex 42.5 27 2
      vertex 41.7002 28.7998 2
    endloop
  endfacet
  facet normal 0 0 1
    outer loop
      vertex 42.5 27 2
      vertex 41.7002 27 2
      vertex 42.6572 26.2002 2
    endloop
  endfacet
  facet normal 0 0 1
    outer loop
      vertex 41.7002 27 2
      vertex 40.2998 26.2002 2
      vertex 42.6572 26.2002 2
    endloop
  endfacet
  facet normal 0 0 1
    outer loop
      vertex 40.2998 26.2002 2
      vertex 39.7002 26.2002 2
      vertex 40.2998 3.7998 2
    endloop
  endfacet
  facet normal 0 0 1
    outer loop
      vertex 41.7002 27 2
      vertex 39.7002 26.2002 2
      vertex 40.2998 26.2002 2
    endloop
  endfacet
  facet normal -0 0 1
    outer loop
      vertex 38.2998 27 2
      vertex 39.7002 26.2002 2
      vertex 41.7002 27 2
    endloop
  endfacet
  facet normal 0 0 1
    outer loop
      vertex 37.5 27 2
      vertex 38.2998 27 2
      vertex 37.5 28.7998 2
    endloop
  endfacet
  facet normal 0 0 1
    outer loop
      vertex 37.3428 26.2002 2
      vertex 38.2998 27 2
      vertex 37.5 27 2
    endloop
  endfacet
  facet normal 0 0 1
    outer loop
      vertex 38.2998 27 2
      vertex 37.3428 26.2002 2
      vertex 39.7002 26.2002 2
    endloop
  endfacet
  facet normal 0 0 1
    outer loop
      vertex 21.25 15.3438 2
      vertex 37.3428 26.2002 2
      vertex 37.5 27 2
    endloop
  endfacet
  facet normal 0 0 1
    outer loop
      vertex 37.3428 26.2002 2
      vertex 21.25 15.3438 2
      vertex 21.7285 15 2
    endloop
  endfacet
  facet normal 0 0 1
    outer loop
      vertex 75.4004 27 2
      vertex 74.5996 26.7129 2
      vertex 74.8428 26.2002 2
    endloop
  endfacet
  facet normal 0 0 1
    outer loop
      vertex 74.5996 26.7129 2
      vertex 59.2285 15 2
      vertex 74.8428 26.2002 2
    endloop
  endfacet
  facet normal 0 -0 1
    outer loop
      vertex 59.2285 15 2
      vertex 74.5996 26.7129 2
      vertex 58.75 15.3438 2
    endloop
  endfacet
  facet normal 0 0 1
    outer loop
      vertex 78.7998 3.7998 2
      vertex 75.4004 3 2
      vertex 78.7998 3 2
    endloop
  endfacet
  facet normal -0 0 1
    outer loop
      vertex 74.5996 3.28711 2
      vertex 75.4004 3 2
      vertex 74.8428 3.7998 2
    endloop
  endfacet
  facet normal -0 0 1
    outer loop
      vertex 74.8428 3.7998 2
      vertex 75.4004 3 2
      vertex 78.7998 3.7998 2
    endloop
  endfacet
  facet normal -0 0 1
    outer loop
      vertex 75.4004 27 2
      vertex 78.7998 26.2002 2
      vertex 78.7998 27 2
    endloop
  endfacet
  facet normal 0 0 1
    outer loop
      vertex 78.7998 26.2002 2
      vertex 75.4004 27 2
      vertex 74.8428 26.2002 2
    endloop
  endfacet
  facet normal 0 0 1
    outer loop
      vertex 78.7998 27 2
      vertex 80 30 2
      vertex 78.7998 28.7998 2
    endloop
  endfacet
  facet normal 0 0 1
    outer loop
      vertex 80 30 2
      vertex 75.4004 28.7998 2
      vertex 78.7998 28.7998 2
    endloop
  endfacet
  facet normal -0 0 1
    outer loop
      vertex 74.5996 28.7998 2
      vertex 75.4004 27 2
      vertex 75.4004 28.7998 2
    endloop
  endfacet
  facet normal 0 0 1
    outer loop
      vertex 74.5996 26.7129 2
      vertex 75.4004 27 2
      vertex 74.5996 28.7998 2
    endloop
  endfacet
  facet normal 0 0 1
    outer loop
      vertex 80 30 2
      vertex 74.5996 28.7998 2
      vertex 75.4004 28.7998 2
    endloop
  endfacet
  facet normal 0 0 1
    outer loop
      vertex 80 30 2
      vertex 42.5 28.7998 2
      vertex 74.5996 28.7998 2
    endloop
  endfacet
  facet normal 0 0 1
    outer loop
      vertex 42.5 28.7998 2
      vertex 41.7002 28.7998 2
      vertex 42.5 27 2
    endloop
  endfacet
  facet normal 0 0 1
    outer loop
      vertex 80 30 2
      vertex 41.7002 28.7998 2
      vertex 42.5 28.7998 2
    endloop
  endfacet
  facet normal 0 0 1
    outer loop
      vertex 80 30 2
      vertex 38.2998 28.7998 2
      vertex 41.7002 28.7998 2
    endloop
  endfacet
  facet normal 0 0 1
    outer loop
      vertex 38.2998 28.7998 2
      vertex 37.5 28.7998 2
      vertex 38.2998 27 2
    endloop
  endfacet
  facet normal 0 0 1
    outer loop
      vertex 80 30 2
      vertex 37.5 28.7998 2
      vertex 38.2998 28.7998 2
    endloop
  endfacet
  facet normal -0 0 1
    outer loop
      vertex 0 30 2
      vertex 37.5 28.7998 2
      vertex 80 30 2
    endloop
  endfacet
  facet normal 0 0 1
    outer loop
      vertex 4.59961 27 2
      vertex 5.40039 28.7998 2
      vertex 4.59961 28.7998 2
    endloop
  endfacet
  facet normal 0 0 1
    outer loop
      vertex 5.40039 28.7998 2
      vertex 4.59961 27 2
      vertex 5.40039 26.7129 2
    endloop
  endfacet
  facet normal 0 0 1
    outer loop
      vertex 37.5 28.7998 2
      vertex 0 30 2
      vertex 5.40039 28.7998 2
    endloop
  endfacet
  facet normal 0 0 1
    outer loop
      vertex 5.40039 28.7998 2
      vertex 0 30 2
      vertex 4.59961 28.7998 2
    endloop
  endfacet
  facet normal 0 0 1
    outer loop
      vertex 0 30 2
      vertex 1.2002 27 2
      vertex 1.2002 28.7998 2
    endloop
  endfacet
  facet normal 0 0 1
    outer loop
      vertex 1.2002 27 2
      vertex 0 30 2
      vertex 1.2002 26.2002 2
    endloop
  endfacet
  facet normal 0 0 1
    outer loop
      vertex 1.2002 26.2002 2
      vertex 0 30 2
      vertex 1.2002 3.7998 2
    endloop
  endfacet
  facet normal 0 0 1
    outer loop
      vertex 0 0 2
      vertex 1.2002 3.7998 2
      vertex 0 30 2
    endloop
  endfacet
  facet normal 0 0 1
    outer loop
      vertex 1.2002 3.7998 2
      vertex 0 0 2
      vertex 1.2002 3 2
    endloop
  endfacet
  facet normal 0 0 1
    outer loop
      vertex 4.59961 28.7998 2
      vertex 0 30 2
      vertex 1.2002 28.7998 2
    endloop
  endfacet
  facet normal 0 0 1
    outer loop
      vertex 78.7998 26.2002 2
      vertex 80 30 2
      vertex 78.7998 27 2
    endloop
  endfacet
  facet normal 0 0 1
    outer loop
      vertex 80 30 2
      vertex 78.7998 26.2002 2
      vertex 80 0 2
    endloop
  endfacet
  facet normal -0 0 1
    outer loop
      vertex 78.7998 3.7998 2
      vertex 80 0 2
      vertex 78.7998 26.2002 2
    endloop
  endfacet
  facet normal -0 0 1
    outer loop
      vertex 78.7998 3 2
      vertex 80 0 2
      vertex 78.7998 3.7998 2
    endloop
  endfacet
  facet normal -0 0 1
    outer loop
      vertex 78.7998 1.2002 2
      vertex 80 0 2
      vertex 78.7998 3 2
    endloop
  endfacet
  facet normal -0 0 1
    outer loop
      vertex 75.4004 1.2002 2
      vertex 80 0 2
      vertex 78.7998 1.2002 2
    endloop
  endfacet
  facet normal 0 0 1
    outer loop
      vertex 74.5996 1.2002 2
      vertex 75.4004 3 2
      vertex 74.5996 3.28711 2
    endloop
  endfacet
  facet normal 0 0 1
    outer loop
      vertex 75.4004 3 2
      vertex 74.5996 1.2002 2
      vertex 75.4004 1.2002 2
    endloop
  endfacet
  facet normal -0 0 1
    outer loop
      vertex 74.5996 1.2002 2
      vertex 80 0 2
      vertex 75.4004 1.2002 2
    endloop
  endfacet
  facet normal -0 0 1
    outer loop
      vertex 42.5 1.2002 2
      vertex 80 0 2
      vertex 74.5996 1.2002 2
    endloop
  endfacet
  facet normal 0 0 1
    outer loop
      vertex 41.7002 1.2002 2
      vertex 42.5 1.2002 2
      vertex 41.7002 3 2
    endloop
  endfacet
  facet normal -0 0 1
    outer loop
      vertex 41.7002 1.2002 2
      vertex 80 0 2
      vertex 42.5 1.2002 2
    endloop
  endfacet
  facet normal -0 0 1
    outer loop
      vertex 38.2998 1.2002 2
      vertex 80 0 2
      vertex 41.7002 1.2002 2
    endloop
  endfacet
  facet normal 0 0 1
    outer loop
      vertex 37.5 1.2002 2
      vertex 38.2998 1.2002 2
      vertex 37.5 3 2
    endloop
  endfacet
  facet normal -0 0 1
    outer loop
      vertex 37.5 1.2002 2
      vertex 80 0 2
      vertex 38.2998 1.2002 2
    endloop
  endfacet
  facet normal 0 0 1
    outer loop
      vertex 0 0 2
      vertex 37.5 1.2002 2
      vertex 5.40039 1.2002 2
    endloop
  endfacet
  facet normal 0 0 1
    outer loop
      vertex 5.40039 3.28711 2
      vertex 4.59961 3 2
      vertex 5.40039 1.2002 2
    endloop
  endfacet
  facet normal 0 0 1
    outer loop
      vertex 4.59961 1.2002 2
      vertex 5.40039 1.2002 2
      vertex 4.59961 3 2
    endloop
  endfacet
  facet normal 0 0 1
    outer loop
      vertex 0 0 2
      vertex 5.40039 1.2002 2
      vertex 4.59961 1.2002 2
    endloop
  endfacet
  facet normal 0 0 1
    outer loop
      vertex 0 0 2
      vertex 4.59961 1.2002 2
      vertex 1.2002 1.2002 2
    endloop
  endfacet
  facet normal 0 0 1
    outer loop
      vertex 37.5 1.2002 2
      vertex 0 0 2
      vertex 80 0 2
    endloop
  endfacet
  facet normal 0 0 1
    outer loop
      vertex 1.2002 3 2
      vertex 0 0 2
      vertex 1.2002 1.2002 2
    endloop
  endfacet
  facet normal 0 1 -0
    outer loop
      vertex 80 30 0
      vertex 0 30 2
      vertex 80 30 2
    endloop
  endfacet
  facet normal 0 1 0
    outer loop
      vertex 0 30 2
      vertex 80 30 0
      vertex 0 30 0
    endloop
  endfacet
  facet normal -1 0 0
    outer loop
      vertex 0 0 0
      vertex 0 30 2
      vertex 0 30 0
    endloop
  endfacet
  facet normal -1 -0 0
    outer loop
      vertex 0 30 2
      vertex 0 0 0
      vertex 0 0 2
    endloop
  endfacet
  facet normal 0 -1 0
    outer loop
      vertex 0 0 0
      vertex 80 0 2
      vertex 0 0 2
    endloop
  endfacet
  facet normal 0 -1 -0
    outer loop
      vertex 80 0 2
      vertex 0 0 0
      vertex 80 0 0
    endloop
  endfacet
  facet normal 1 -0 0
    outer loop
      vertex 80 0 2
      vertex 80 30 0
      vertex 80 30 2
    endloop
  endfacet
  facet normal 1 0 0
    outer loop
      vertex 80 30 0
      vertex 80 0 2
      vertex 80 0 0
    endloop
  endfacet
  facet normal 1 -0 0
    outer loop
      vertex 42.5 27 2
      vertex 42.5 28.7998 0
      vertex 42.5 28.7998 2
    endloop
  endfacet
  facet normal 1 0 0
    outer loop
      vertex 42.5 28.7998 0
      vertex 42.5 27 2
      vertex 42.5 27 0
    endloop
  endfacet
  facet normal 0 -1 0
    outer loop
      vertex 42.5 28.7998 0
      vertex 74.5996 28.7998 2
      vertex 42.5 28.7998 2
    endloop
  endfacet
  facet normal 0 -1 -0
    outer loop
      vertex 74.5996 28.7998 2
      vertex 42.5 28.7998 0
      vertex 74.5996 28.7998 0
    endloop
  endfacet
  facet normal -1 0 0
    outer loop
      vertex 74.5996 26.7129 0
      vertex 74.5996 28.7998 2
      vertex 74.5996 28.7998 0
    endloop
  endfacet
  facet normal -1 -0 0
    outer loop
      vertex 74.5996 28.7998 2
      vertex 74.5996 26.7129 0
      vertex 74.5996 26.7129 2
    endloop
  endfacet
  facet normal -0.582865 0.812569 0
    outer loop
      vertex 74.5996 26.7129 0
      vertex 58.75 15.3438 2
      vertex 74.5996 26.7129 2
    endloop
  endfacet
  facet normal -0.582865 0.812569 0
    outer loop
      vertex 58.75 15.3438 2
      vertex 74.5996 26.7129 0
      vertex 58.75 15.3438 0
    endloop
  endfacet
  facet normal 0.582861 0.812572 -0
    outer loop
      vertex 58.75 15.3438 0
      vertex 42.5 27 2
      vertex 58.75 15.3438 2
    endloop
  endfacet
  facet normal 0.582861 0.812572 0
    outer loop
      vertex 42.5 27 2
      vertex 58.75 15.3438 0
      vertex 42.5 27 0
    endloop
  endfacet
  facet normal 1 -0 0
    outer loop
      vertex 38.2998 27 2
      vertex 38.2998 28.7998 0
      vertex 38.2998 28.7998 2
    endloop
  endfacet
  facet normal 1 0 0
    outer loop
      vertex 38.2998 28.7998 0
      vertex 38.2998 27 2
      vertex 38.2998 27 0
    endloop
  endfacet
  facet normal 0 -1 0
    outer loop
      vertex 38.2998 28.7998 0
      vertex 41.7002 28.7998 2
      vertex 38.2998 28.7998 2
    endloop
  endfacet
  facet normal 0 -1 -0
    outer loop
      vertex 41.7002 28.7998 2
      vertex 38.2998 28.7998 0
      vertex 41.7002 28.7998 0
    endloop
  endfacet
  facet normal -1 0 0
    outer loop
      vertex 41.7002 27 0
      vertex 41.7002 28.7998 2
      vertex 41.7002 28.7998 0
    endloop
  endfacet
  facet normal -1 -0 0
    outer loop
      vertex 41.7002 28.7998 2
      vertex 41.7002 27 0
      vertex 41.7002 27 2
    endloop
  endfacet
  facet normal 0 1 -0
    outer loop
      vertex 41.7002 27 0
      vertex 38.2998 27 2
      vertex 41.7002 27 2
    endloop
  endfacet
  facet normal 0 1 0
    outer loop
      vertex 38.2998 27 2
      vertex 41.7002 27 0
      vertex 38.2998 27 0
    endloop
  endfacet
  facet normal 1 -0 0
    outer loop
      vertex 75.4004 27 2
      vertex 75.4004 28.7998 0
      vertex 75.4004 28.7998 2
    endloop
  endfacet
  facet normal 1 0 0
    outer loop
      vertex 75.4004 28.7998 0
      vertex 75.4004 27 2
      vertex 75.4004 27 0
    endloop
  endfacet
  facet normal 0 -1 0
    outer loop
      vertex 75.4004 28.7998 0
      vertex 78.7998 28.7998 2
      vertex 75.4004 28.7998 2
    endloop
  endfacet
  facet normal 0 -1 -0
    outer loop
      vertex 78.7998 28.7998 2
      vertex 75.4004 28.7998 0
      vertex 78.7998 28.7998 0
    endloop
  endfacet
  facet normal -1 0 0
    outer loop
      vertex 78.7998 27 0
      vertex 78.7998 28.7998 2
      vertex 78.7998 28.7998 0
    endloop
  endfacet
  facet normal -1 -0 0
    outer loop
      vertex 78.7998 28.7998 2
      vertex 78.7998 27 0
      vertex 78.7998 27 2
    endloop
  endfacet
  facet normal 0 1 -0
    outer loop
      vertex 78.7998 27 0
      vertex 75.4004 27 2
      vertex 78.7998 27 2
    endloop
  endfacet
  facet normal 0 1 0
    outer loop
      vertex 75.4004 27 2
      vertex 78.7998 27 0
      vertex 75.4004 27 0
    endloop
  endfacet
  facet normal 1 -0 0
    outer loop
      vertex 5.40039 26.7129 2
      vertex 5.40039 28.7998 0
      vertex 5.40039 28.7998 2
    endloop
  endfacet
  facet normal 1 0 0
    outer loop
      vertex 5.40039 28.7998 0
      vertex 5.40039 26.7129 2
      vertex 5.40039 26.7129 0
    endloop
  endfacet
  facet normal 0 -1 0
    outer loop
      vertex 5.40039 28.7998 0
      vertex 37.5 28.7998 2
      vertex 5.40039 28.7998 2
    endloop
  endfacet
  facet normal 0 -1 -0
    outer loop
      vertex 37.5 28.7998 2
      vertex 5.40039 28.7998 0
      vertex 37.5 28.7998 0
    endloop
  endfacet
  facet normal -1 0 0
    outer loop
      vertex 37.5 27 0
      vertex 37.5 28.7998 2
      vertex 37.5 28.7998 0
    endloop
  endfacet
  facet normal -1 -0 0
    outer loop
      vertex 37.5 28.7998 2
      vertex 37.5 27 0
      vertex 37.5 27 2
    endloop
  endfacet
  facet normal -0.582861 0.812572 0
    outer loop
      vertex 37.5 27 0
      vertex 21.25 15.3438 2
      vertex 37.5 27 2
    endloop
  endfacet
  facet normal -0.582861 0.812572 0
    outer loop
      vertex 21.25 15.3438 2
      vertex 37.5 27 0
      vertex 21.25 15.3438 0
    endloop
  endfacet
  facet normal 0.582865 0.812569 -0
    outer loop
      vertex 21.25 15.3438 0
      vertex 5.40039 26.7129 2
      vertex 21.25 15.3438 2
    endloop
  endfacet
  facet normal 0.582865 0.812569 0
    outer loop
      vertex 5.40039 26.7129 2
      vertex 21.25 15.3438 0
      vertex 5.40039 26.7129 0
    endloop
  endfacet
  facet normal 1 -0 0
    outer loop
      vertex 1.2002 27 2
      vertex 1.2002 28.7998 0
      vertex 1.2002 28.7998 2
    endloop
  endfacet
  facet normal 1 0 0
    outer loop
      vertex 1.2002 28.7998 0
      vertex 1.2002 27 2
      vertex 1.2002 27 0
    endloop
  endfacet
  facet normal 0 -1 0
    outer loop
      vertex 1.2002 28.7998 0
      vertex 4.59961 28.7998 2
      vertex 1.2002 28.7998 2
    endloop
  endfacet
  facet normal 0 -1 -0
    outer loop
      vertex 4.59961 28.7998 2
      vertex 1.2002 28.7998 0
      vertex 4.59961 28.7998 0
    endloop
  endfacet
  facet normal -1 0 0
    outer loop
      vertex 4.59961 27 0
      vertex 4.59961 28.7998 2
      vertex 4.59961 28.7998 0
    endloop
  endfacet
  facet normal -1 -0 0
    outer loop
      vertex 4.59961 28.7998 2
      vertex 4.59961 27 0
      vertex 4.59961 27 2
    endloop
  endfacet
  facet normal 0 1 -0
    outer loop
      vertex 4.59961 27 0
      vertex 1.2002 27 2
      vertex 4.59961 27 2
    endloop
  endfacet
  facet normal 0 1 0
    outer loop
      vertex 1.2002 27 2
      vertex 4.59961 27 0
      vertex 1.2002 27 0
    endloop
  endfacet
  facet normal 0.582861 0.812572 -0
    outer loop
      vertex 74.8428 3.7998 0
      vertex 59.2285 15 2
      vertex 74.8428 3.7998 2
    endloop
  endfacet
  facet normal 0.582861 0.812572 0
    outer loop
      vertex 59.2285 15 2
      vertex 74.8428 3.7998 0
      vertex 59.2285 15 0
    endloop
  endfacet
  facet normal 0.582861 -0.812572 0
    outer loop
      vertex 59.2285 15 0
      vertex 74.8428 26.2002 2
      vertex 59.2285 15 2
    endloop
  endfacet
  facet normal 0.582861 -0.812572 0
    outer loop
      vertex 74.8428 26.2002 2
      vertex 59.2285 15 0
      vertex 74.8428 26.2002 0
    endloop
  endfacet
  facet normal 0 -1 0
    outer loop
      vertex 74.8428 26.2002 0
      vertex 78.7998 26.2002 2
      vertex 74.8428 26.2002 2
    endloop
  endfacet
  facet normal 0 -1 -0
    outer loop
      vertex 78.7998 26.2002 2
      vertex 74.8428 26.2002 0
      vertex 78.7998 26.2002 0
    endloop
  endfacet
  facet normal -1 0 0
    outer loop
      vertex 78.7998 3.7998 0
      vertex 78.7998 26.2002 2
      vertex 78.7998 26.2002 0
    endloop
  endfacet
  facet normal -1 -0 0
    outer loop
      vertex 78.7998 26.2002 2
      vertex 78.7998 3.7998 0
      vertex 78.7998 3.7998 2
    endloop
  endfacet
  facet normal 0 1 -0
    outer loop
      vertex 78.7998 3.7998 0
      vertex 74.8428 3.7998 2
      vertex 78.7998 3.7998 2
    endloop
  endfacet
  facet normal 0 1 0
    outer loop
      vertex 74.8428 3.7998 2
      vertex 78.7998 3.7998 0
      vertex 74.8428 3.7998 0
    endloop
  endfacet
  facet normal 1 -0 0
    outer loop
      vertex 40.2998 3.7998 2
      vertex 40.2998 26.2002 0
      vertex 40.2998 26.2002 2
    endloop
  endfacet
  facet normal 1 0 0
    outer loop
      vertex 40.2998 26.2002 0
      vertex 40.2998 3.7998 2
      vertex 40.2998 3.7998 0
    endloop
  endfacet
  facet normal 0 -1 0
    outer loop
      vertex 40.2998 26.2002 0
      vertex 42.6572 26.2002 2
      vertex 40.2998 26.2002 2
    endloop
  endfacet
  facet normal 0 -1 -0
    outer loop
      vertex 42.6572 26.2002 2
      vertex 40.2998 26.2002 0
      vertex 42.6572 26.2002 0
    endloop
  endfacet
  facet normal -0.582861 -0.812572 0
    outer loop
      vertex 42.6572 26.2002 0
      vertex 58.2715 15 2
      vertex 42.6572 26.2002 2
    endloop
  endfacet
  facet normal -0.582861 -0.812572 -0
    outer loop
      vertex 58.2715 15 2
      vertex 42.6572 26.2002 0
      vertex 58.2715 15 0
    endloop
  endfacet
  facet normal -0.582861 0.812572 0
    outer loop
      vertex 58.2715 15 0
      vertex 42.6572 3.7998 2
      vertex 58.2715 15 2
    endloop
  endfacet
  facet normal -0.582861 0.812572 0
    outer loop
      vertex 42.6572 3.7998 2
      vertex 58.2715 15 0
      vertex 42.6572 3.7998 0
    endloop
  endfacet
  facet normal 0 1 -0
    outer loop
      vertex 42.6572 3.7998 0
      vertex 40.2998 3.7998 2
      vertex 42.6572 3.7998 2
    endloop
  endfacet
  facet normal 0 1 0
    outer loop
      vertex 40.2998 3.7998 2
      vertex 42.6572 3.7998 0
      vertex 40.2998 3.7998 0
    endloop
  endfacet
  facet normal 1 -0 0
    outer loop
      vertex 1.2002 3.7998 2
      vertex 1.2002 26.2002 0
      vertex 1.2002 26.2002 2
    endloop
  endfacet
  facet normal 1 0 0
    outer loop
      vertex 1.2002 26.2002 0
      vertex 1.2002 3.7998 2
      vertex 1.2002 3.7998 0
    endloop
  endfacet
  facet normal 0 -1 0
    outer loop
      vertex 1.2002 26.2002 0
      vertex 5.15723 26.2002 2
      vertex 1.2002 26.2002 2
    endloop
  endfacet
  facet normal 0 -1 -0
    outer loop
      vertex 5.15723 26.2002 2
      vertex 1.2002 26.2002 0
      vertex 5.15723 26.2002 0
    endloop
  endfacet
  facet normal -0.582862 -0.812571 0
    outer loop
      vertex 5.15723 26.2002 0
      vertex 20.7715 15 2
      vertex 5.15723 26.2002 2
    endloop
  endfacet
  facet normal -0.582862 -0.812571 -0
    outer loop
      vertex 20.7715 15 2
      vertex 5.15723 26.2002 0
      vertex 20.7715 15 0
    endloop
  endfacet
  facet normal -0.582862 0.812571 0
    outer loop
      vertex 20.7715 15 0
      vertex 5.15723 3.7998 2
      vertex 20.7715 15 2
    endloop
  endfacet
  facet normal -0.582862 0.812571 0
    outer loop
      vertex 5.15723 3.7998 2
      vertex 20.7715 15 0
      vertex 5.15723 3.7998 0
    endloop
  endfacet
  facet normal 0 1 -0
    outer loop
      vertex 5.15723 3.7998 0
      vertex 1.2002 3.7998 2
      vertex 5.15723 3.7998 2
    endloop
  endfacet
  facet normal 0 1 0
    outer loop
      vertex 1.2002 3.7998 2
      vertex 5.15723 3.7998 0
      vertex 1.2002 3.7998 0
    endloop
  endfacet
  facet normal 0.582861 0.812572 -0
    outer loop
      vertex 37.3428 3.7998 0
      vertex 21.7285 15 2
      vertex 37.3428 3.7998 2
    endloop
  endfacet
  facet normal 0.582861 0.812572 0
    outer loop
      vertex 21.7285 15 2
      vertex 37.3428 3.7998 0
      vertex 21.7285 15 0
    endloop
  endfacet
  facet normal 0.582861 -0.812572 0
    outer loop
      vertex 21.7285 15 0
      vertex 37.3428 26.2002 2
      vertex 21.7285 15 2
    endloop
  endfacet
  facet normal 0.582861 -0.812572 0
    outer loop
      vertex 37.3428 26.2002 2
      vertex 21.7285 15 0
      vertex 37.3428 26.2002 0
    endloop
  endfacet
  facet normal 0 -1 0
    outer loop
      vertex 37.3428 26.2002 0
      vertex 39.7002 26.2002 2
      vertex 37.3428 26.2002 2
    endloop
  endfacet
  facet normal 0 -1 -0
    outer loop
      vertex 39.7002 26.2002 2
      vertex 37.3428 26.2002 0
      vertex 39.7002 26.2002 0
    endloop
  endfacet
  facet normal -1 0 0
    outer loop
      vertex 39.7002 3.7998 0
      vertex 39.7002 26.2002 2
      vertex 39.7002 26.2002 0
    endloop
  endfacet
  facet normal -1 -0 0
    outer loop
      vertex 39.7002 26.2002 2
      vertex 39.7002 3.7998 0
      vertex 39.7002 3.7998 2
    endloop
  endfacet
  facet normal 0 1 -0
    outer loop
      vertex 39.7002 3.7998 0
      vertex 37.3428 3.7998 2
      vertex 39.7002 3.7998 2
    endloop
  endfacet
  facet normal 0 1 0
    outer loop
      vertex 37.3428 3.7998 2
      vertex 39.7002 3.7998 0
      vertex 37.3428 3.7998 0
    endloop
  endfacet
  facet normal 1 -0 0
    outer loop
      vertex 42.5 1.2002 2
      vertex 42.5 3 0
      vertex 42.5 3 2
    endloop
  endfacet
  facet normal 1 0 0
    outer loop
      vertex 42.5 3 0
      vertex 42.5 1.2002 2
      vertex 42.5 1.2002 0
    endloop
  endfacet
  facet normal 0.582861 -0.812572 0
    outer loop
      vertex 42.5 3 0
      vertex 58.75 14.6562 2
      vertex 42.5 3 2
    endloop
  endfacet
  facet normal 0.582861 -0.812572 0
    outer loop
      vertex 58.75 14.6562 2
      vertex 42.5 3 0
      vertex 58.75 14.6562 0
    endloop
  endfacet
  facet normal -0.582865 -0.812569 0
    outer loop
      vertex 58.75 14.6562 0
      vertex 74.5996 3.28711 2
      vertex 58.75 14.6562 2
    endloop
  endfacet
  facet normal -0.582865 -0.812569 -0
    outer loop
      vertex 74.5996 3.28711 2
      vertex 58.75 14.6562 0
      vertex 74.5996 3.28711 0
    endloop
  endfacet
  facet normal -1 0 0
    outer loop
      vertex 74.5996 1.2002 0
      vertex 74.5996 3.28711 2
      vertex 74.5996 3.28711 0
    endloop
  endfacet
  facet normal -1 -0 0
    outer loop
      vertex 74.5996 3.28711 2
      vertex 74.5996 1.2002 0
      vertex 74.5996 1.2002 2
    endloop
  endfacet
  facet normal 0 1 -0
    outer loop
      vertex 74.5996 1.2002 0
      vertex 42.5 1.2002 2
      vertex 74.5996 1.2002 2
    endloop
  endfacet
  facet normal 0 1 0
    outer loop
      vertex 42.5 1.2002 2
      vertex 74.5996 1.2002 0
      vertex 42.5 1.2002 0
    endloop
  endfacet
  facet normal 1 -0 0
    outer loop
      vertex 5.40039 1.2002 2
      vertex 5.40039 3.28711 0
      vertex 5.40039 3.28711 2
    endloop
  endfacet
  facet normal 1 0 0
    outer loop
      vertex 5.40039 3.28711 0
      vertex 5.40039 1.2002 2
      vertex 5.40039 1.2002 0
    endloop
  endfacet
  facet normal 0.582864 -0.812569 0
    outer loop
      vertex 5.40039 3.28711 0
      vertex 21.25 14.6562 2
      vertex 5.40039 3.28711 2
    endloop
  endfacet
  facet normal 0.582864 -0.812569 0
    outer loop
      vertex 21.25 14.6562 2
      vertex 5.40039 3.28711 0
      vertex 21.25 14.6562 0
    endloop
  endfacet
  facet normal -0.582861 -0.812572 0
    outer loop
      vertex 21.25 14.6562 0
      vertex 37.5 3 2
      vertex 21.25 14.6562 2
    endloop
  endfacet
  facet normal -0.582861 -0.812572 -0
    outer loop
      vertex 37.5 3 2
      vertex 21.25 14.6562 0
      vertex 37.5 3 0
    endloop
  endfacet
  facet normal -1 0 0
    outer loop
      vertex 37.5 1.2002 0
      vertex 37.5 3 2
      vertex 37.5 3 0
    endloop
  endfacet
  facet normal -1 -0 0
    outer loop
      vertex 37.5 3 2
      vertex 37.5 1.2002 0
      vertex 37.5 1.2002 2
    endloop
  endfacet
  facet normal 0 1 -0
    outer loop
      vertex 37.5 1.2002 0
      vertex 5.40039 1.2002 2
      vertex 37.5 1.2002 2
    endloop
  endfacet
  facet normal 0 1 0
    outer loop
      vertex 5.40039 1.2002 2
      vertex 37.5 1.2002 0
      vertex 5.40039 1.2002 0
    endloop
  endfacet
  facet normal 1 -0 0
    outer loop
      vertex 38.2998 1.2002 2
      vertex 38.2998 3 0
      vertex 38.2998 3 2
    endloop
  endfacet
  facet normal 1 0 0
    outer loop
      vertex 38.2998 3 0
      vertex 38.2998 1.2002 2
      vertex 38.2998 1.2002 0
    endloop
  endfacet
  facet normal 0 -1 0
    outer loop
      vertex 38.2998 3 0
      vertex 41.7002 3 2
      vertex 38.2998 3 2
    endloop
  endfacet
  facet normal 0 -1 -0
    outer loop
      vertex 41.7002 3 2
      vertex 38.2998 3 0
      vertex 41.7002 3 0
    endloop
  endfacet
  facet normal -1 0 0
    outer loop
      vertex 41.7002 1.2002 0
      vertex 41.7002 3 2
      vertex 41.7002 3 0
    endloop
  endfacet
  facet normal -1 -0 0
    outer loop
      vertex 41.7002 3 2
      vertex 41.7002 1.2002 0
      vertex 41.7002 1.2002 2
    endloop
  endfacet
  facet normal 0 1 -0
    outer loop
      vertex 41.7002 1.2002 0
      vertex 38.2998 1.2002 2
      vertex 41.7002 1.2002 2
    endloop
  endfacet
  facet normal 0 1 0
    outer loop
      vertex 38.2998 1.2002 2
      vertex 41.7002 1.2002 0
      vertex 38.2998 1.2002 0
    endloop
  endfacet
  facet normal 1 -0 0
    outer loop
      vertex 75.4004 1.2002 2
      vertex 75.4004 3 0
      vertex 75.4004 3 2
    endloop
  endfacet
  facet normal 1 0 0
    outer loop
      vertex 75.4004 3 0
      vertex 75.4004 1.2002 2
      vertex 75.4004 1.2002 0
    endloop
  endfacet
  facet normal 0 -1 0
    outer loop
      vertex 75.4004 3 0
      vertex 78.7998 3 2
      vertex 75.4004 3 2
    endloop
  endfacet
  facet normal 0 -1 -0
    outer loop
      vertex 78.7998 3 2
      vertex 75.4004 3 0
      vertex 78.7998 3 0
    endloop
  endfacet
  facet normal -1 0 0
    outer loop
      vertex 78.7998 1.2002 0
      vertex 78.7998 3 2
      vertex 78.7998 3 0
    endloop
  endfacet
  facet normal -1 -0 0
    outer loop
      vertex 78.7998 3 2
      vertex 78.7998 1.2002 0
      vertex 78.7998 1.2002 2
    endloop
  endfacet
  facet normal 0 1 -0
    outer loop
      vertex 78.7998 1.2002 0
      vertex 75.4004 1.2002 2
      vertex 78.7998 1.2002 2
    endloop
  endfacet
  facet normal 0 1 0
    outer loop
      vertex 75.4004 1.2002 2
      vertex 78.7998 1.2002 0
      vertex 75.4004 1.2002 0
    endloop
  endfacet
  facet normal 1 -0 0
    outer loop
      vertex 1.2002 1.2002 2
      vertex 1.2002 3 0
      vertex 1.2002 3 2
    endloop
  endfacet
  facet normal 1 0 0
    outer loop
      vertex 1.2002 3 0
      vertex 1.2002 1.2002 2
      vertex 1.2002 1.2002 0
    endloop
  endfacet
  facet normal 0 -1 0
    outer loop
      vertex 1.2002 3 0
      vertex 4.59961 3 2
      vertex 1.2002 3 2
    endloop
  endfacet
  facet normal 0 -1 -0
    outer loop
      vertex 4.59961 3 2
      vertex 1.2002 3 0
      vertex 4.59961 3 0
    endloop
  endfacet
  facet normal -1 0 0
    outer loop
      vertex 4.59961 1.2002 0
      vertex 4.59961 3 2
      vertex 4.59961 3 0
    endloop
  endfacet
  facet normal -1 -0 0
    outer loop
      vertex 4.59961 3 2
      vertex 4.59961 1.2002 0
      vertex 4.59961 1.2002 2
    endloop
  endfacet
  facet normal 0 1 -0
    outer loop
      vertex 4.59961 1.2002 0
      vertex 1.2002 1.2002 2
      vertex 4.59961 1.2002 2
    endloop
  endfacet
  facet normal 0 1 0
    outer loop
      vertex 1.2002 1.2002 2
      vertex 4.59961 1.2002 0
      vertex 1.2002 1.2002 0
    endloop
  endfacet
  facet normal 0 0 -1
    outer loop
      vertex 20.7715 55 0
      vertex 5 67 0
      vertex 21.25 55.3438 0
    endloop
  endfacet
  facet normal 0 0 -1
    outer loop
      vertex 4.59961 66.5996 0
      vertex 5 67 0
      vertex 20.7715 55 0
    endloop
  endfacet
  facet normal 0 0 -1
    outer loop
      vertex 4.59961 66.5996 0
      vertex 4.2002 67.5996 0
      vertex 5 67 0
    endloop
  endfacet
  facet normal 0 0 -1
    outer loop
      vertex 3.2002 67.5996 0
      vertex 4.2002 67.5996 0
      vertex 4.59961 66.5996 0
    endloop
  endfacet
  facet normal 0 0 -1
    outer loop
      vertex 1.40039 68.7998 0
      vertex 4.40039 68.7998 0
      vertex 3.2002 67.5996 0
    endloop
  endfacet
  facet normal 0 0 -1
    outer loop
      vertex 4.40039 68.7998 0
      vertex 1.40039 68.7998 0
      vertex 4.2002 70 0
    endloop
  endfacet
  facet normal -0 0 -1
    outer loop
      vertex 4.2002 70 0
      vertex 1.40039 68.7998 0
      vertex 1.59961 70 0
    endloop
  endfacet
  facet normal 0 0 -1
    outer loop
      vertex 1.2002 67.5996 0
      vertex 1.40039 68.7998 0
      vertex 3.2002 67.5996 0
    endloop
  endfacet
  facet normal 0 0 -1
    outer loop
      vertex 1.2002 67.5996 0
      vertex 0 68.7998 0
      vertex 1.40039 68.7998 0
    endloop
  endfacet
  facet normal 0 0 -1
    outer loop
      vertex 0 68.7998 0
      vertex 1.2002 67.5996 0
      vertex 0 41.2002 0
    endloop
  endfacet
  facet normal 0 0 -1
    outer loop
      vertex 4.40039 41.2002 0
      vertex 38.2998 42.4004 0
      vertex 38.5 41.2002 0
    endloop
  endfacet
  facet normal 0 0 -1
    outer loop
      vertex 4.40039 41.2002 0
      vertex 4.2002 42.4004 0
      vertex 38.2998 42.4004 0
    endloop
  endfacet
  facet normal 0 0 -1
    outer loop
      vertex 1.40039 41.2002 0
      vertex 4.40039 41.2002 0
      vertex 4.2002 40 0
    endloop
  endfacet
  facet normal 0 0 -1
    outer loop
      vertex 4.40039 41.2002 0
      vertex 3.2002 42.4004 0
      vertex 4.2002 42.4004 0
    endloop
  endfacet
  facet normal 0 0 -1
    outer loop
      vertex 1.40039 41.2002 0
      vertex 4.2002 40 0
      vertex 1.59961 40 0
    endloop
  endfacet
  facet normal 0 0 -1
    outer loop
      vertex 4.40039 41.2002 0
      vertex 1.40039 41.2002 0
      vertex 3.2002 42.4004 0
    endloop
  endfacet
  facet normal 0 0 -1
    outer loop
      vertex 1.40039 41.2002 0
      vertex 1.2002 42.4004 0
      vertex 3.2002 42.4004 0
    endloop
  endfacet
  facet normal -0 0 -1
    outer loop
      vertex 1.2002 42.4004 0
      vertex 0 41.2002 0
      vertex 1.2002 67.5996 0
    endloop
  endfacet
  facet normal 0 0 -1
    outer loop
      vertex 0 41.2002 0
      vertex 1.2002 42.4004 0
      vertex 1.40039 41.2002 0
    endloop
  endfacet
  facet normal 0 0 -1
    outer loop
      vertex 38.2998 67.5996 0
      vertex 4.40039 68.7998 0
      vertex 38.5 68.7998 0
    endloop
  endfacet
  facet normal 0 0 -1
    outer loop
      vertex 4.2002 67.5996 0
      vertex 4.40039 68.7998 0
      vertex 38.2998 67.5996 0
    endloop
  endfacet
  facet normal 0 0 -1
    outer loop
      vertex 3.2002 67.5996 0
      vertex 4.40039 68.7998 0
      vertex 4.2002 67.5996 0
    endloop
  endfacet
  facet normal 0 0 -1
    outer loop
      vertex 58.2715 55 0
      vertex 42.5 67 0
      vertex 58.75 55.3438 0
    endloop
  endfacet
  facet normal 0 0 -1
    outer loop
      vertex 42.0996 66.5996 0
      vertex 42.5 67 0
      vertex 58.2715 55 0
    endloop
  endfacet
  facet normal 0 0 -1
    outer loop
      vertex 42.0996 66.5996 0
      vertex 41.7002 67.5996 0
      vertex 42.5 67 0
    endloop
  endfacet
  facet normal 0 0 -1
    outer loop
      vertex 40.7002 67.5996 0
      vertex 41.5 68.7998 0
      vertex 41.7002 67.5996 0
    endloop
  endfacet
  facet normal 0 0 -1
    outer loop
      vertex 40.7002 67.5996 0
      vertex 41.7002 67.5996 0
      vertex 42.0996 66.5996 0
    endloop
  endfacet
  facet normal 0 0 -1
    outer loop
      vertex 40.2998 67.5996 0
      vertex 41.5 68.7998 0
      vertex 40.7002 67.5996 0
    endloop
  endfacet
  facet normal 0 0 -1
    outer loop
      vertex 38.5 68.7998 0
      vertex 41.5 68.7998 0
      vertex 40.2998 67.5996 0
    endloop
  endfacet
  facet normal 0 0 -1
    outer loop
      vertex 39.7002 67.5996 0
      vertex 40.2998 67.5996 0
      vertex 39.7002 42.4004 0
    endloop
  endfacet
  facet normal 0 0 -1
    outer loop
      vertex 38.5 68.7998 0
      vertex 40.2998 67.5996 0
      vertex 39.7002 67.5996 0
    endloop
  endfacet
  facet normal 0 0 -1
    outer loop
      vertex 38.5 68.7998 0
      vertex 39.7002 67.5996 0
      vertex 39.2998 67.5996 0
    endloop
  endfacet
  facet normal 0 0 -1
    outer loop
      vertex 41.5 68.7998 0
      vertex 38.5 68.7998 0
      vertex 41.2998 70 0
    endloop
  endfacet
  facet normal -0 0 -1
    outer loop
      vertex 41.2998 70 0
      vertex 38.5 68.7998 0
      vertex 38.7002 70 0
    endloop
  endfacet
  facet normal 0 0 -1
    outer loop
      vertex 39.2998 67.5996 0
      vertex 38.2998 67.5996 0
      vertex 38.5 68.7998 0
    endloop
  endfacet
  facet normal 0 0 -1
    outer loop
      vertex 37.9004 66.5996 0
      vertex 38.2998 67.5996 0
      vertex 39.2998 67.5996 0
    endloop
  endfacet
  facet normal 0 0 -1
    outer loop
      vertex 37.9004 66.5996 0
      vertex 37.5 67 0
      vertex 38.2998 67.5996 0
    endloop
  endfacet
  facet normal 0 0 -1
    outer loop
      vertex 21.7285 55 0
      vertex 37.5 67 0
      vertex 37.9004 66.5996 0
    endloop
  endfacet
  facet normal 0 0 -1
    outer loop
      vertex 21.25 55.3438 0
      vertex 21.7285 55 0
      vertex 21.25 54.6562 0
    endloop
  endfacet
  facet normal 0 0 -1
    outer loop
      vertex 21.7285 55 0
      vertex 21.25 55.3438 0
      vertex 37.5 67 0
    endloop
  endfacet
  facet normal 0 0 -1
    outer loop
      vertex 21.25 54.6562 0
      vertex 20.7715 55 0
      vertex 21.25 55.3438 0
    endloop
  endfacet
  facet normal 0 0 -1
    outer loop
      vertex 5 43 0
      vertex 20.7715 55 0
      vertex 21.25 54.6562 0
    endloop
  endfacet
  facet normal 0 0 -1
    outer loop
      vertex 5 43 0
      vertex 4.59961 43.4004 0
      vertex 20.7715 55 0
    endloop
  endfacet
  facet normal 0 0 -1
    outer loop
      vertex 4.2002 42.4004 0
      vertex 4.59961 43.4004 0
      vertex 5 43 0
    endloop
  endfacet
  facet normal 0 0 -1
    outer loop
      vertex 4.59961 43.4004 0
      vertex 4.2002 42.4004 0
      vertex 3.2002 42.4004 0
    endloop
  endfacet
  facet normal 0 0 -1
    outer loop
      vertex 75.4004 66.5996 0
      vertex 75.7998 67.5996 0
      vertex 76.7998 67.5996 0
    endloop
  endfacet
  facet normal 0 0 -1
    outer loop
      vertex 75.4004 66.5996 0
      vertex 75 67 0
      vertex 75.7998 67.5996 0
    endloop
  endfacet
  facet normal 0 0 -1
    outer loop
      vertex 59.2285 55 0
      vertex 75 67 0
      vertex 75.4004 66.5996 0
    endloop
  endfacet
  facet normal 0 0 -1
    outer loop
      vertex 58.75 55.3438 0
      vertex 59.2285 55 0
      vertex 58.75 54.6562 0
    endloop
  endfacet
  facet normal 0 0 -1
    outer loop
      vertex 59.2285 55 0
      vertex 58.75 55.3438 0
      vertex 75 67 0
    endloop
  endfacet
  facet normal 0 0 -1
    outer loop
      vertex 58.75 54.6562 0
      vertex 58.2715 55 0
      vertex 58.75 55.3438 0
    endloop
  endfacet
  facet normal 0 0 -1
    outer loop
      vertex 42.5 43 0
      vertex 58.2715 55 0
      vertex 58.75 54.6562 0
    endloop
  endfacet
  facet normal 0 0 -1
    outer loop
      vertex 42.5 43 0
      vertex 42.0996 43.4004 0
      vertex 58.2715 55 0
    endloop
  endfacet
  facet normal 0 0 -1
    outer loop
      vertex 41.7002 42.4004 0
      vertex 42.0996 43.4004 0
      vertex 42.5 43 0
    endloop
  endfacet
  facet normal 0 0 -1
    outer loop
      vertex 38.5 41.2002 0
      vertex 41.5 41.2002 0
      vertex 41.2998 40 0
    endloop
  endfacet
  facet normal 0 0 -1
    outer loop
      vertex 41.7002 42.4004 0
      vertex 40.7002 42.4004 0
      vertex 42.0996 43.4004 0
    endloop
  endfacet
  facet normal 0 0 -1
    outer loop
      vertex 41.5 41.2002 0
      vertex 40.7002 42.4004 0
      vertex 41.7002 42.4004 0
    endloop
  endfacet
  facet normal 0 0 -1
    outer loop
      vertex 41.5 41.2002 0
      vertex 40.2998 42.4004 0
      vertex 40.7002 42.4004 0
    endloop
  endfacet
  facet normal 0 0 -1
    outer loop
      vertex 40.2998 42.4004 0
      vertex 39.7002 42.4004 0
      vertex 40.2998 67.5996 0
    endloop
  endfacet
  facet normal 0 0 -1
    outer loop
      vertex 41.5 41.2002 0
      vertex 38.5 41.2002 0
      vertex 40.2998 42.4004 0
    endloop
  endfacet
  facet normal -0 0 -1
    outer loop
      vertex 40.2998 42.4004 0
      vertex 38.5 41.2002 0
      vertex 39.7002 42.4004 0
    endloop
  endfacet
  facet normal 0 0 -1
    outer loop
      vertex 38.5 41.2002 0
      vertex 41.2998 40 0
      vertex 38.7002 40 0
    endloop
  endfacet
  facet normal -0 0 -1
    outer loop
      vertex 39.7002 42.4004 0
      vertex 38.5 41.2002 0
      vertex 39.2998 42.4004 0
    endloop
  endfacet
  facet normal 0 0 -1
    outer loop
      vertex 38.2998 42.4004 0
      vertex 39.2998 42.4004 0
      vertex 38.5 41.2002 0
    endloop
  endfacet
  facet normal 0 0 -1
    outer loop
      vertex 38.2998 42.4004 0
      vertex 37.9004 43.4004 0
      vertex 39.2998 42.4004 0
    endloop
  endfacet
  facet normal 0 0 -1
    outer loop
      vertex 37.5 43 0
      vertex 37.9004 43.4004 0
      vertex 38.2998 42.4004 0
    endloop
  endfacet
  facet normal 0 0 -1
    outer loop
      vertex 37.5 43 0
      vertex 21.7285 55 0
      vertex 37.9004 43.4004 0
    endloop
  endfacet
  facet normal 0 -0 -1
    outer loop
      vertex 21.7285 55 0
      vertex 37.5 43 0
      vertex 21.25 54.6562 0
    endloop
  endfacet
  facet normal -0 0 -1
    outer loop
      vertex 76.7998 42.4004 0
      vertex 75.5996 41.2002 0
      vertex 75.7998 42.4004 0
    endloop
  endfacet
  facet normal 0 0 -1
    outer loop
      vertex 75.5996 41.2002 0
      vertex 41.7002 42.4004 0
      vertex 75.7998 42.4004 0
    endloop
  endfacet
  facet normal 0 -0 -1
    outer loop
      vertex 41.7002 42.4004 0
      vertex 75.5996 41.2002 0
      vertex 41.5 41.2002 0
    endloop
  endfacet
  facet normal 0 0 -1
    outer loop
      vertex 80 41.2002 0
      vertex 78.7998 42.4004 0
      vertex 80 68.7998 0
    endloop
  endfacet
  facet normal 0 0 -1
    outer loop
      vertex 78.5996 41.2002 0
      vertex 78.7998 42.4004 0
      vertex 80 41.2002 0
    endloop
  endfacet
  facet normal 0 0 -1
    outer loop
      vertex 78.5996 41.2002 0
      vertex 76.7998 42.4004 0
      vertex 78.7998 42.4004 0
    endloop
  endfacet
  facet normal 0 0 -1
    outer loop
      vertex 75.7998 40 0
      vertex 78.5996 41.2002 0
      vertex 78.4004 40 0
    endloop
  endfacet
  facet normal 0 0 -1
    outer loop
      vertex 75.5996 41.2002 0
      vertex 78.5996 41.2002 0
      vertex 75.7998 40 0
    endloop
  endfacet
  facet normal 0 0 -1
    outer loop
      vertex 78.5996 41.2002 0
      vertex 75.5996 41.2002 0
      vertex 76.7998 42.4004 0
    endloop
  endfacet
  facet normal 0 0 -1
    outer loop
      vertex 75.7998 42.4004 0
      vertex 75.4004 43.4004 0
      vertex 76.7998 42.4004 0
    endloop
  endfacet
  facet normal 0 0 -1
    outer loop
      vertex 75 43 0
      vertex 75.4004 43.4004 0
      vertex 75.7998 42.4004 0
    endloop
  endfacet
  facet normal 0 0 -1
    outer loop
      vertex 75 43 0
      vertex 59.2285 55 0
      vertex 75.4004 43.4004 0
    endloop
  endfacet
  facet normal 0 -0 -1
    outer loop
      vertex 59.2285 55 0
      vertex 75 43 0
      vertex 58.75 54.6562 0
    endloop
  endfacet
  facet normal 0 0 -1
    outer loop
      vertex 78.7998 67.5996 0
      vertex 80 68.7998 0
      vertex 78.7998 42.4004 0
    endloop
  endfacet
  facet normal 0 0 -1
    outer loop
      vertex 78.7998 67.5996 0
      vertex 78.5996 68.7998 0
      vertex 80 68.7998 0
    endloop
  endfacet
  facet normal 0 0 -1
    outer loop
      vertex 76.7998 67.5996 0
      vertex 78.5996 68.7998 0
      vertex 78.7998 67.5996 0
    endloop
  endfacet
  facet normal 0 0 -1
    outer loop
      vertex 75.5996 68.7998 0
      vertex 78.5996 68.7998 0
      vertex 76.7998 67.5996 0
    endloop
  endfacet
  facet normal 0 0 -1
    outer loop
      vertex 75.5996 68.7998 0
      vertex 76.7998 67.5996 0
      vertex 75.7998 67.5996 0
    endloop
  endfacet
  facet normal 0 0 -1
    outer loop
      vertex 78.5996 68.7998 0
      vertex 75.5996 68.7998 0
      vertex 78.4004 70 0
    endloop
  endfacet
  facet normal -0 0 -1
    outer loop
      vertex 78.4004 70 0
      vertex 75.5996 68.7998 0
      vertex 75.7998 70 0
    endloop
  endfacet
  facet normal 0 0 -1
    outer loop
      vertex 41.7002 67.5996 0
      vertex 75.5996 68.7998 0
      vertex 75.7998 67.5996 0
    endloop
  endfacet
  facet normal -0 0 -1
    outer loop
      vertex 75.5996 68.7998 0
      vertex 41.7002 67.5996 0
      vertex 41.5 68.7998 0
    endloop
  endfacet
  facet normal 0 0 1
    outer loop
      vertex 20.7715 55 1.2
      vertex 5 43 1.2
      vertex 21.25 54.6562 1.2
    endloop
  endfacet
  facet normal -0 0 1
    outer loop
      vertex 4.59961 43.4004 1.2
      vertex 5 43 1.2
      vertex 20.7715 55 1.2
    endloop
  endfacet
  facet normal 0 0 1
    outer loop
      vertex 4.59961 43.4004 1.2
      vertex 4.2002 42.4004 1.2
      vertex 5 43 1.2
    endloop
  endfacet
  facet normal 0 0 1
    outer loop
      vertex 3.2002 42.4004 1.2
      vertex 4.2002 42.4004 1.2
      vertex 4.59961 43.4004 1.2
    endloop
  endfacet
  facet normal 0 0 1
    outer loop
      vertex 1.40039 41.2002 1.2
      vertex 4.40039 41.2002 1.2
      vertex 3.2002 42.4004 1.2
    endloop
  endfacet
  facet normal 0 0 1
    outer loop
      vertex 4.40039 41.2002 1.2
      vertex 1.40039 41.2002 1.2
      vertex 4.2002 40 1.2
    endloop
  endfacet
  facet normal 0 0 1
    outer loop
      vertex 4.2002 40 1.2
      vertex 1.40039 41.2002 1.2
      vertex 1.59961 40 1.2
    endloop
  endfacet
  facet normal -0 0 1
    outer loop
      vertex 1.2002 42.4004 1.2
      vertex 1.40039 41.2002 1.2
      vertex 3.2002 42.4004 1.2
    endloop
  endfacet
  facet normal 0 0 1
    outer loop
      vertex 1.2002 42.4004 1.2
      vertex 0 41.2002 1.2
      vertex 1.40039 41.2002 1.2
    endloop
  endfacet
  facet normal 0 0 1
    outer loop
      vertex 0 41.2002 1.2
      vertex 1.2002 42.4004 1.2
      vertex 0 68.7998 1.2
    endloop
  endfacet
  facet normal -0 0 1
    outer loop
      vertex 4.40039 68.7998 1.2
      vertex 38.2998 67.5996 1.2
      vertex 38.5 68.7998 1.2
    endloop
  endfacet
  facet normal 0 0 1
    outer loop
      vertex 4.40039 68.7998 1.2
      vertex 4.2002 67.5996 1.2
      vertex 38.2998 67.5996 1.2
    endloop
  endfacet
  facet normal 0 0 1
    outer loop
      vertex 1.40039 68.7998 1.2
      vertex 4.40039 68.7998 1.2
      vertex 4.2002 70 1.2
    endloop
  endfacet
  facet normal 0 0 1
    outer loop
      vertex 4.40039 68.7998 1.2
      vertex 3.2002 67.5996 1.2
      vertex 4.2002 67.5996 1.2
    endloop
  endfacet
  facet normal 0 0 1
    outer loop
      vertex 1.40039 68.7998 1.2
      vertex 4.2002 70 1.2
      vertex 1.59961 70 1.2
    endloop
  endfacet
  facet normal 0 0 1
    outer loop
      vertex 4.40039 68.7998 1.2
      vertex 1.40039 68.7998 1.2
      vertex 3.2002 67.5996 1.2
    endloop
  endfacet
  facet normal 0 0 1
    outer loop
      vertex 1.40039 68.7998 1.2
      vertex 1.2002 67.5996 1.2
      vertex 3.2002 67.5996 1.2
    endloop
  endfacet
  facet normal 0 0 1
    outer loop
      vertex 1.2002 67.5996 1.2
      vertex 0 68.7998 1.2
      vertex 1.2002 42.4004 1.2
    endloop
  endfacet
  facet normal -0 0 1
    outer loop
      vertex 0 68.7998 1.2
      vertex 1.2002 67.5996 1.2
      vertex 1.40039 68.7998 1.2
    endloop
  endfacet
  facet normal 0 0 1
    outer loop
      vertex 38.2998 42.4004 1.2
      vertex 4.40039 41.2002 1.2
      vertex 38.5 41.2002 1.2
    endloop
  endfacet
  facet normal -0 0 1
    outer loop
      vertex 4.2002 42.4004 1.2
      vertex 4.40039 41.2002 1.2
      vertex 38.2998 42.4004 1.2
    endloop
  endfacet
  facet normal -0 0 1
    outer loop
      vertex 3.2002 42.4004 1.2
      vertex 4.40039 41.2002 1.2
      vertex 4.2002 42.4004 1.2
    endloop
  endfacet
  facet normal 0 0 1
    outer loop
      vertex 58.2715 55 1.2
      vertex 42.5 43 1.2
      vertex 58.75 54.6562 1.2
    endloop
  endfacet
  facet normal -0 0 1
    outer loop
      vertex 42.0996 43.4004 1.2
      vertex 42.5 43 1.2
      vertex 58.2715 55 1.2
    endloop
  endfacet
  facet normal 0 0 1
    outer loop
      vertex 42.0996 43.4004 1.2
      vertex 41.7002 42.4004 1.2
      vertex 42.5 43 1.2
    endloop
  endfacet
  facet normal -0 0 1
    outer loop
      vertex 40.7002 42.4004 1.2
      vertex 41.5 41.2002 1.2
      vertex 41.7002 42.4004 1.2
    endloop
  endfacet
  facet normal 0 0 1
    outer loop
      vertex 40.7002 42.4004 1.2
      vertex 41.7002 42.4004 1.2
      vertex 42.0996 43.4004 1.2
    endloop
  endfacet
  facet normal -0 0 1
    outer loop
      vertex 40.2998 42.4004 1.2
      vertex 41.5 41.2002 1.2
      vertex 40.7002 42.4004 1.2
    endloop
  endfacet
  facet normal 0 0 1
    outer loop
      vertex 38.5 41.2002 1.2
      vertex 41.5 41.2002 1.2
      vertex 40.2998 42.4004 1.2
    endloop
  endfacet
  facet normal 0 0 1
    outer loop
      vertex 39.7002 42.4004 1.2
      vertex 40.2998 42.4004 1.2
      vertex 39.7002 67.5996 1.2
    endloop
  endfacet
  facet normal 0 0 1
    outer loop
      vertex 38.5 41.2002 1.2
      vertex 40.2998 42.4004 1.2
      vertex 39.7002 42.4004 1.2
    endloop
  endfacet
  facet normal 0 0 1
    outer loop
      vertex 38.5 41.2002 1.2
      vertex 39.7002 42.4004 1.2
      vertex 39.2998 42.4004 1.2
    endloop
  endfacet
  facet normal 0 0 1
    outer loop
      vertex 41.5 41.2002 1.2
      vertex 38.5 41.2002 1.2
      vertex 41.2998 40 1.2
    endloop
  endfacet
  facet normal 0 0 1
    outer loop
      vertex 41.2998 40 1.2
      vertex 38.5 41.2002 1.2
      vertex 38.7002 40 1.2
    endloop
  endfacet
  facet normal 0 0 1
    outer loop
      vertex 39.2998 42.4004 1.2
      vertex 38.2998 42.4004 1.2
      vertex 38.5 41.2002 1.2
    endloop
  endfacet
  facet normal 0 0 1
    outer loop
      vertex 37.9004 43.4004 1.2
      vertex 38.2998 42.4004 1.2
      vertex 39.2998 42.4004 1.2
    endloop
  endfacet
  facet normal 0 0 1
    outer loop
      vertex 37.9004 43.4004 1.2
      vertex 37.5 43 1.2
      vertex 38.2998 42.4004 1.2
    endloop
  endfacet
  facet normal 0 0 1
    outer loop
      vertex 21.7285 55 1.2
      vertex 37.5 43 1.2
      vertex 37.9004 43.4004 1.2
    endloop
  endfacet
  facet normal 0 0 1
    outer loop
      vertex 21.25 54.6562 1.2
      vertex 21.7285 55 1.2
      vertex 21.25 55.3438 1.2
    endloop
  endfacet
  facet normal 0 0 1
    outer loop
      vertex 21.7285 55 1.2
      vertex 21.25 54.6562 1.2
      vertex 37.5 43 1.2
    endloop
  endfacet
  facet normal 0 0 1
    outer loop
      vertex 21.25 55.3438 1.2
      vertex 20.7715 55 1.2
      vertex 21.25 54.6562 1.2
    endloop
  endfacet
  facet normal 0 0 1
    outer loop
      vertex 5 67 1.2
      vertex 20.7715 55 1.2
      vertex 21.25 55.3438 1.2
    endloop
  endfacet
  facet normal 0 0 1
    outer loop
      vertex 5 67 1.2
      vertex 4.59961 66.5996 1.2
      vertex 20.7715 55 1.2
    endloop
  endfacet
  facet normal 0 0 1
    outer loop
      vertex 4.2002 67.5996 1.2
      vertex 4.59961 66.5996 1.2
      vertex 5 67 1.2
    endloop
  endfacet
  facet normal 0 0 1
    outer loop
      vertex 4.59961 66.5996 1.2
      vertex 4.2002 67.5996 1.2
      vertex 3.2002 67.5996 1.2
    endloop
  endfacet
  facet normal 0 0 1
    outer loop
      vertex 75.4004 43.4004 1.2
      vertex 75.7998 42.4004 1.2
      vertex 76.7998 42.4004 1.2
    endloop
  endfacet
  facet normal 0 0 1
    outer loop
      vertex 75.4004 43.4004 1.2
      vertex 75 43 1.2
      vertex 75.7998 42.4004 1.2
    endloop
  endfacet
  facet normal 0 0 1
    outer loop
      vertex 59.2285 55 1.2
      vertex 75 43 1.2
      vertex 75.4004 43.4004 1.2
    endloop
  endfacet
  facet normal 0 0 1
    outer loop
      vertex 58.75 54.6562 1.2
      vertex 59.2285 55 1.2
      vertex 58.75 55.3438 1.2
    endloop
  endfacet
  facet normal 0 0 1
    outer loop
      vertex 59.2285 55 1.2
      vertex 58.75 54.6562 1.2
      vertex 75 43 1.2
    endloop
  endfacet
  facet normal 0 0 1
    outer loop
      vertex 58.75 55.3438 1.2
      vertex 58.2715 55 1.2
      vertex 58.75 54.6562 1.2
    endloop
  endfacet
  facet normal 0 0 1
    outer loop
      vertex 42.5 67 1.2
      vertex 58.2715 55 1.2
      vertex 58.75 55.3438 1.2
    endloop
  endfacet
  facet normal 0 0 1
    outer loop
      vertex 42.5 67 1.2
      vertex 42.0996 66.5996 1.2
      vertex 58.2715 55 1.2
    endloop
  endfacet
  facet normal 0 0 1
    outer loop
      vertex 41.7002 67.5996 1.2
      vertex 42.0996 66.5996 1.2
      vertex 42.5 67 1.2
    endloop
  endfacet
  facet normal 0 0 1
    outer loop
      vertex 38.5 68.7998 1.2
      vertex 41.5 68.7998 1.2
      vertex 41.2998 70 1.2
    endloop
  endfacet
  facet normal 0 0 1
    outer loop
      vertex 41.7002 67.5996 1.2
      vertex 40.7002 67.5996 1.2
      vertex 42.0996 66.5996 1.2
    endloop
  endfacet
  facet normal 0 0 1
    outer loop
      vertex 41.5 68.7998 1.2
      vertex 40.7002 67.5996 1.2
      vertex 41.7002 67.5996 1.2
    endloop
  endfacet
  facet normal 0 0 1
    outer loop
      vertex 41.5 68.7998 1.2
      vertex 40.2998 67.5996 1.2
      vertex 40.7002 67.5996 1.2
    endloop
  endfacet
  facet normal 0 0 1
    outer loop
      vertex 40.2998 67.5996 1.2
      vertex 39.7002 67.5996 1.2
      vertex 40.2998 42.4004 1.2
    endloop
  endfacet
  facet normal 0 0 1
    outer loop
      vertex 41.5 68.7998 1.2
      vertex 38.5 68.7998 1.2
      vertex 40.2998 67.5996 1.2
    endloop
  endfacet
  facet normal 0 0 1
    outer loop
      vertex 40.2998 67.5996 1.2
      vertex 38.5 68.7998 1.2
      vertex 39.7002 67.5996 1.2
    endloop
  endfacet
  facet normal 0 0 1
    outer loop
      vertex 38.5 68.7998 1.2
      vertex 41.2998 70 1.2
      vertex 38.7002 70 1.2
    endloop
  endfacet
  facet normal 0 0 1
    outer loop
      vertex 39.7002 67.5996 1.2
      vertex 38.5 68.7998 1.2
      vertex 39.2998 67.5996 1.2
    endloop
  endfacet
  facet normal 0 0 1
    outer loop
      vertex 38.2998 67.5996 1.2
      vertex 39.2998 67.5996 1.2
      vertex 38.5 68.7998 1.2
    endloop
  endfacet
  facet normal -0 0 1
    outer loop
      vertex 38.2998 67.5996 1.2
      vertex 37.9004 66.5996 1.2
      vertex 39.2998 67.5996 1.2
    endloop
  endfacet
  facet normal -0 0 1
    outer loop
      vertex 37.5 67 1.2
      vertex 37.9004 66.5996 1.2
      vertex 38.2998 67.5996 1.2
    endloop
  endfacet
  facet normal 0 0 1
    outer loop
      vertex 37.5 67 1.2
      vertex 21.7285 55 1.2
      vertex 37.9004 66.5996 1.2
    endloop
  endfacet
  facet normal 0 -0 1
    outer loop
      vertex 21.7285 55 1.2
      vertex 37.5 67 1.2
      vertex 21.25 55.3438 1.2
    endloop
  endfacet
  facet normal 0 0 1
    outer loop
      vertex 76.7998 67.5996 1.2
      vertex 75.5996 68.7998 1.2
      vertex 75.7998 67.5996 1.2
    endloop
  endfacet
  facet normal 0 0 1
    outer loop
      vertex 75.5996 68.7998 1.2
      vertex 41.7002 67.5996 1.2
      vertex 75.7998 67.5996 1.2
    endloop
  endfacet
  facet normal 0 -0 1
    outer loop
      vertex 41.7002 67.5996 1.2
      vertex 75.5996 68.7998 1.2
      vertex 41.5 68.7998 1.2
    endloop
  endfacet
  facet normal 0 0 1
    outer loop
      vertex 80 68.7998 1.2
      vertex 78.7998 67.5996 1.2
      vertex 80 41.2002 1.2
    endloop
  endfacet
  facet normal -0 0 1
    outer loop
      vertex 78.5996 68.7998 1.2
      vertex 78.7998 67.5996 1.2
      vertex 80 68.7998 1.2
    endloop
  endfacet
  facet normal 0 0 1
    outer loop
      vertex 78.5996 68.7998 1.2
      vertex 76.7998 67.5996 1.2
      vertex 78.7998 67.5996 1.2
    endloop
  endfacet
  facet normal -0 0 1
    outer loop
      vertex 75.7998 70 1.2
      vertex 78.5996 68.7998 1.2
      vertex 78.4004 70 1.2
    endloop
  endfacet
  facet normal 0 0 1
    outer loop
      vertex 75.5996 68.7998 1.2
      vertex 78.5996 68.7998 1.2
      vertex 75.7998 70 1.2
    endloop
  endfacet
  facet normal 0 0 1
    outer loop
      vertex 78.5996 68.7998 1.2
      vertex 75.5996 68.7998 1.2
      vertex 76.7998 67.5996 1.2
    endloop
  endfacet
  facet normal -0 0 1
    outer loop
      vertex 75.7998 67.5996 1.2
      vertex 75.4004 66.5996 1.2
      vertex 76.7998 67.5996 1.2
    endloop
  endfacet
  facet normal -0 0 1
    outer loop
      vertex 75 67 1.2
      vertex 75.4004 66.5996 1.2
      vertex 75.7998 67.5996 1.2
    endloop
  endfacet
  facet normal 0 0 1
    outer loop
      vertex 75 67 1.2
      vertex 59.2285 55 1.2
      vertex 75.4004 66.5996 1.2
    endloop
  endfacet
  facet normal 0 -0 1
    outer loop
      vertex 59.2285 55 1.2
      vertex 75 67 1.2
      vertex 58.75 55.3438 1.2
    endloop
  endfacet
  facet normal -0 0 1
    outer loop
      vertex 78.7998 42.4004 1.2
      vertex 80 41.2002 1.2
      vertex 78.7998 67.5996 1.2
    endloop
  endfacet
  facet normal 0 0 1
    outer loop
      vertex 78.7998 42.4004 1.2
      vertex 78.5996 41.2002 1.2
      vertex 80 41.2002 1.2
    endloop
  endfacet
  facet normal -0 0 1
    outer loop
      vertex 76.7998 42.4004 1.2
      vertex 78.5996 41.2002 1.2
      vertex 78.7998 42.4004 1.2
    endloop
  endfacet
  facet normal 0 0 1
    outer loop
      vertex 75.5996 41.2002 1.2
      vertex 78.5996 41.2002 1.2
      vertex 76.7998 42.4004 1.2
    endloop
  endfacet
  facet normal 0 0 1
    outer loop
      vertex 75.5996 41.2002 1.2
      vertex 76.7998 42.4004 1.2
      vertex 75.7998 42.4004 1.2
    endloop
  endfacet
  facet normal 0 0 1
    outer loop
      vertex 78.5996 41.2002 1.2
      vertex 75.5996 41.2002 1.2
      vertex 78.4004 40 1.2
    endloop
  endfacet
  facet normal 0 0 1
    outer loop
      vertex 78.4004 40 1.2
      vertex 75.5996 41.2002 1.2
      vertex 75.7998 40 1.2
    endloop
  endfacet
  facet normal -0 0 1
    outer loop
      vertex 41.7002 42.4004 1.2
      vertex 75.5996 41.2002 1.2
      vertex 75.7998 42.4004 1.2
    endloop
  endfacet
  facet normal 0 0 1
    outer loop
      vertex 75.5996 41.2002 1.2
      vertex 41.7002 42.4004 1.2
      vertex 41.5 41.2002 1.2
    endloop
  endfacet
  facet normal 0 -1 0
    outer loop
      vertex 4.40039 41.2002 0
      vertex 38.5 41.2002 1.2
      vertex 4.40039 41.2002 1.2
    endloop
  endfacet
  facet normal 0 -1 -0
    outer loop
      vertex 38.5 41.2002 1.2
      vertex 4.40039 41.2002 0
      vertex 38.5 41.2002 0
    endloop
  endfacet
  facet normal -0.986372 -0.164532 0
    outer loop
      vertex 38.7002 40 0
      vertex 38.5 41.2002 1.2
      vertex 38.5 41.2002 0
    endloop
  endfacet
  facet normal -0.986372 -0.164532 0
    outer loop
      vertex 38.5 41.2002 1.2
      vertex 38.7002 40 0
      vertex 38.7002 40 1.2
    endloop
  endfacet
  facet normal 0 -1 0
    outer loop
      vertex 38.7002 40 0
      vertex 41.2998 40 1.2
      vertex 38.7002 40 1.2
    endloop
  endfacet
  facet normal 0 -1 -0
    outer loop
      vertex 41.2998 40 1.2
      vertex 38.7002 40 0
      vertex 41.2998 40 0
    endloop
  endfacet
  facet normal 0.986372 -0.164532 0
    outer loop
      vertex 41.2998 40 1.2
      vertex 41.5 41.2002 0
      vertex 41.5 41.2002 1.2
    endloop
  endfacet
  facet normal 0.986372 -0.164532 0
    outer loop
      vertex 41.5 41.2002 0
      vertex 41.2998 40 1.2
      vertex 41.2998 40 0
    endloop
  endfacet
  facet normal 0 -1 0
    outer loop
      vertex 41.5 41.2002 0
      vertex 75.5996 41.2002 1.2
      vertex 41.5 41.2002 1.2
    endloop
  endfacet
  facet normal 0 -1 -0
    outer loop
      vertex 75.5996 41.2002 1.2
      vertex 41.5 41.2002 0
      vertex 75.5996 41.2002 0
    endloop
  endfacet
  facet normal -0.986372 -0.164532 0
    outer loop
      vertex 75.7998 40 0
      vertex 75.5996 41.2002 1.2
      vertex 75.5996 41.2002 0
    endloop
  endfacet
  facet normal -0.986372 -0.164532 0
    outer loop
      vertex 75.5996 41.2002 1.2
      vertex 75.7998 40 0
      vertex 75.7998 40 1.2
    endloop
  endfacet
  facet normal 0 -1 0
    outer loop
      vertex 75.7998 40 0
      vertex 78.4004 40 1.2
      vertex 75.7998 40 1.2
    endloop
  endfacet
  facet normal 0 -1 -0
    outer loop
      vertex 78.4004 40 1.2
      vertex 75.7998 40 0
      vertex 78.4004 40 0
    endloop
  endfacet
  facet normal 0.986505 -0.163733 0
    outer loop
      vertex 78.4004 40 1.2
      vertex 78.5996 41.2002 0
      vertex 78.5996 41.2002 1.2
    endloop
  endfacet
  facet normal 0.986505 -0.163733 0
    outer loop
      vertex 78.5996 41.2002 0
      vertex 78.4004 40 1.2
      vertex 78.4004 40 0
    endloop
  endfacet
  facet normal 0 -1 0
    outer loop
      vertex 78.5996 41.2002 0
      vertex 80 41.2002 1.2
      vertex 78.5996 41.2002 1.2
    endloop
  endfacet
  facet normal 0 -1 -0
    outer loop
      vertex 80 41.2002 1.2
      vertex 78.5996 41.2002 0
      vertex 80 41.2002 0
    endloop
  endfacet
  facet normal 1 -0 0
    outer loop
      vertex 80 41.2002 1.2
      vertex 80 68.7998 0
      vertex 80 68.7998 1.2
    endloop
  endfacet
  facet normal 1 0 0
    outer loop
      vertex 80 68.7998 0
      vertex 80 41.2002 1.2
      vertex 80 41.2002 0
    endloop
  endfacet
  facet normal 0 1 -0
    outer loop
      vertex 80 68.7998 0
      vertex 78.5996 68.7998 1.2
      vertex 80 68.7998 1.2
    endloop
  endfacet
  facet normal 0 1 0
    outer loop
      vertex 78.5996 68.7998 1.2
      vertex 80 68.7998 0
      vertex 78.5996 68.7998 0
    endloop
  endfacet
  facet normal 0.986505 0.163733 0
    outer loop
      vertex 78.5996 68.7998 1.2
      vertex 78.4004 70 0
      vertex 78.4004 70 1.2
    endloop
  endfacet
  facet normal 0.986505 0.163733 0
    outer loop
      vertex 78.4004 70 0
      vertex 78.5996 68.7998 1.2
      vertex 78.5996 68.7998 0
    endloop
  endfacet
  facet normal 0 1 -0
    outer loop
      vertex 78.4004 70 0
      vertex 75.7998 70 1.2
      vertex 78.4004 70 1.2
    endloop
  endfacet
  facet normal 0 1 0
    outer loop
      vertex 75.7998 70 1.2
      vertex 78.4004 70 0
      vertex 75.7998 70 0
    endloop
  endfacet
  facet normal -0.986372 0.164532 0
    outer loop
      vertex 75.5996 68.7998 0
      vertex 75.7998 70 1.2
      vertex 75.7998 70 0
    endloop
  endfacet
  facet normal -0.986372 0.164532 0
    outer loop
      vertex 75.7998 70 1.2
      vertex 75.5996 68.7998 0
      vertex 75.5996 68.7998 1.2
    endloop
  endfacet
  facet normal 0 1 -0
    outer loop
      vertex 75.5996 68.7998 0
      vertex 41.5 68.7998 1.2
      vertex 75.5996 68.7998 1.2
    endloop
  endfacet
  facet normal 0 1 0
    outer loop
      vertex 41.5 68.7998 1.2
      vertex 75.5996 68.7998 0
      vertex 41.5 68.7998 0
    endloop
  endfacet
  facet normal 0.986372 0.164532 0
    outer loop
      vertex 41.5 68.7998 1.2
      vertex 41.2998 70 0
      vertex 41.2998 70 1.2
    endloop
  endfacet
  facet normal 0.986372 0.164532 0
    outer loop
      vertex 41.2998 70 0
      vertex 41.5 68.7998 1.2
      vertex 41.5 68.7998 0
    endloop
  endfacet
  facet normal 0 1 -0
    outer loop
      vertex 41.2998 70 0
      vertex 38.7002 70 1.2
      vertex 41.2998 70 1.2
    endloop
  endfacet
  facet normal 0 1 0
    outer loop
      vertex 38.7002 70 1.2
      vertex 41.2998 70 0
      vertex 38.7002 70 0
    endloop
  endfacet
  facet normal -0.986372 0.164532 0
    outer loop
      vertex 38.5 68.7998 0
      vertex 38.7002 70 1.2
      vertex 38.7002 70 0
    endloop
  endfacet
  facet normal -0.986372 0.164532 0
    outer loop
      vertex 38.7002 70 1.2
      vertex 38.5 68.7998 0
      vertex 38.5 68.7998 1.2
    endloop
  endfacet
  facet normal 0 1 -0
    outer loop
      vertex 38.5 68.7998 0
      vertex 4.40039 68.7998 1.2
      vertex 38.5 68.7998 1.2
    endloop
  endfacet
  facet normal 0 1 0
    outer loop
      vertex 4.40039 68.7998 1.2
      vertex 38.5 68.7998 0
      vertex 4.40039 68.7998 0
    endloop
  endfacet
  facet normal 0.986373 0.164524 0
    outer loop
      vertex 4.40039 68.7998 1.2
      vertex 4.2002 70 0
      vertex 4.2002 70 1.2
    endloop
  endfacet
  facet normal 0.986373 0.164524 0
    outer loop
      vertex 4.2002 70 0
      vertex 4.40039 68.7998 1.2
      vertex 4.40039 68.7998 0
    endloop
  endfacet
  facet normal 0 1 -0
    outer loop
      vertex 4.2002 70 0
      vertex 1.59961 70 1.2
      vertex 4.2002 70 1.2
    endloop
  endfacet
  facet normal 0 1 0
    outer loop
      vertex 1.59961 70 1.2
      vertex 4.2002 70 0
      vertex 1.59961 70 0
    endloop
  endfacet
  facet normal -0.986502 0.163749 0
    outer loop
      vertex 1.40039 68.7998 0
      vertex 1.59961 70 1.2
      vertex 1.59961 70 0
    endloop
  endfacet
  facet normal -0.986502 0.163749 0
    outer loop
      vertex 1.59961 70 1.2
      vertex 1.40039 68.7998 0
      vertex 1.40039 68.7998 1.2
    endloop
  endfacet
  facet normal 0 1 -0
    outer loop
      vertex 1.40039 68.7998 0
      vertex 0 68.7998 1.2
      vertex 1.40039 68.7998 1.2
    endloop
  endfacet
  facet normal 0 1 0
    outer loop
      vertex 0 68.7998 1.2
      vertex 1.40039 68.7998 0
      vertex 0 68.7998 0
    endloop
  endfacet
  facet normal -1 0 0
    outer loop
      vertex 0 41.2002 0
      vertex 0 68.7998 1.2
      vertex 0 68.7998 0
    endloop
  endfacet
  facet normal -1 -0 0
    outer loop
      vertex 0 68.7998 1.2
      vertex 0 41.2002 0
      vertex 0 41.2002 1.2
    endloop
  endfacet
  facet normal 0 -1 0
    outer loop
      vertex 0 41.2002 0
      vertex 1.40039 41.2002 1.2
      vertex 0 41.2002 1.2
    endloop
  endfacet
  facet normal 0 -1 -0
    outer loop
      vertex 1.40039 41.2002 1.2
      vertex 0 41.2002 0
      vertex 1.40039 41.2002 0
    endloop
  endfacet
  facet normal -0.986502 -0.163749 0
    outer loop
      vertex 1.59961 40 0
      vertex 1.40039 41.2002 1.2
      vertex 1.40039 41.2002 0
    endloop
  endfacet
  facet normal -0.986502 -0.163749 0
    outer loop
      vertex 1.40039 41.2002 1.2
      vertex 1.59961 40 0
      vertex 1.59961 40 1.2
    endloop
  endfacet
  facet normal 0 -1 0
    outer loop
      vertex 1.59961 40 0
      vertex 4.2002 40 1.2
      vertex 1.59961 40 1.2
    endloop
  endfacet
  facet normal 0 -1 -0
    outer loop
      vertex 4.2002 40 1.2
      vertex 1.59961 40 0
      vertex 4.2002 40 0
    endloop
  endfacet
  facet normal 0.986373 -0.164524 0
    outer loop
      vertex 4.2002 40 1.2
      vertex 4.40039 41.2002 0
      vertex 4.40039 41.2002 1.2
    endloop
  endfacet
  facet normal 0.986373 -0.164524 0
    outer loop
      vertex 4.40039 41.2002 0
      vertex 4.2002 40 1.2
      vertex 4.2002 40 0
    endloop
  endfacet
  facet normal 0.581403 0.813616 -0
    outer loop
      vertex 39.2998 42.4004 0
      vertex 37.9004 43.4004 1.2
      vertex 39.2998 42.4004 1.2
    endloop
  endfacet
  facet normal 0.581403 0.813616 0
    outer loop
      vertex 37.9004 43.4004 1.2
      vertex 39.2998 42.4004 0
      vertex 37.9004 43.4004 0
    endloop
  endfacet
  facet normal 0.582842 0.812585 -0
    outer loop
      vertex 37.9004 43.4004 0
      vertex 21.7285 55 1.2
      vertex 37.9004 43.4004 1.2
    endloop
  endfacet
  facet normal 0.582842 0.812585 0
    outer loop
      vertex 21.7285 55 1.2
      vertex 37.9004 43.4004 0
      vertex 21.7285 55 0
    endloop
  endfacet
  facet normal 0.582842 -0.812585 0
    outer loop
      vertex 21.7285 55 0
      vertex 37.9004 66.5996 1.2
      vertex 21.7285 55 1.2
    endloop
  endfacet
  facet normal 0.582842 -0.812585 0
    outer loop
      vertex 37.9004 66.5996 1.2
      vertex 21.7285 55 0
      vertex 37.9004 66.5996 0
    endloop
  endfacet
  facet normal 0.581403 -0.813616 0
    outer loop
      vertex 37.9004 66.5996 0
      vertex 39.2998 67.5996 1.2
      vertex 37.9004 66.5996 1.2
    endloop
  endfacet
  facet normal 0.581403 -0.813616 0
    outer loop
      vertex 39.2998 67.5996 1.2
      vertex 37.9004 66.5996 0
      vertex 39.2998 67.5996 0
    endloop
  endfacet
  facet normal 0 -1 0
    outer loop
      vertex 39.2998 67.5996 0
      vertex 39.7002 67.5996 1.2
      vertex 39.2998 67.5996 1.2
    endloop
  endfacet
  facet normal 0 -1 -0
    outer loop
      vertex 39.7002 67.5996 1.2
      vertex 39.2998 67.5996 0
      vertex 39.7002 67.5996 0
    endloop
  endfacet
  facet normal -1 0 0
    outer loop
      vertex 39.7002 42.4004 0
      vertex 39.7002 67.5996 1.2
      vertex 39.7002 67.5996 0
    endloop
  endfacet
  facet normal -1 -0 0
    outer loop
      vertex 39.7002 67.5996 1.2
      vertex 39.7002 42.4004 0
      vertex 39.7002 42.4004 1.2
    endloop
  endfacet
  facet normal 0 1 -0
    outer loop
      vertex 39.7002 42.4004 0
      vertex 39.2998 42.4004 1.2
      vertex 39.7002 42.4004 1.2
    endloop
  endfacet
  facet normal 0 1 0
    outer loop
      vertex 39.2998 42.4004 1.2
      vertex 39.7002 42.4004 0
      vertex 39.2998 42.4004 0
    endloop
  endfacet
  facet normal 1 -0 0
    outer loop
      vertex 1.2002 42.4004 1.2
      vertex 1.2002 67.5996 0
      vertex 1.2002 67.5996 1.2
    endloop
  endfacet
  facet normal 1 0 0
    outer loop
      vertex 1.2002 67.5996 0
      vertex 1.2002 42.4004 1.2
      vertex 1.2002 42.4004 0
    endloop
  endfacet
  facet normal 0 -1 0
    outer loop
      vertex 1.2002 67.5996 0
      vertex 3.2002 67.5996 1.2
      vertex 1.2002 67.5996 1.2
    endloop
  endfacet
  facet normal 0 -1 -0
    outer loop
      vertex 3.2002 67.5996 1.2
      vertex 1.2002 67.5996 0
      vertex 3.2002 67.5996 0
    endloop
  endfacet
  facet normal -0.5814 -0.813618 0
    outer loop
      vertex 3.2002 67.5996 0
      vertex 4.59961 66.5996 1.2
      vertex 3.2002 67.5996 1.2
    endloop
  endfacet
  facet normal -0.5814 -0.813618 -0
    outer loop
      vertex 4.59961 66.5996 1.2
      vertex 3.2002 67.5996 0
      vertex 4.59961 66.5996 0
    endloop
  endfacet
  facet normal -0.582842 -0.812585 0
    outer loop
      vertex 4.59961 66.5996 0
      vertex 20.7715 55 1.2
      vertex 4.59961 66.5996 1.2
    endloop
  endfacet
  facet normal -0.582842 -0.812585 -0
    outer loop
      vertex 20.7715 55 1.2
      vertex 4.59961 66.5996 0
      vertex 20.7715 55 0
    endloop
  endfacet
  facet normal -0.582842 0.812585 0
    outer loop
      vertex 20.7715 55 0
      vertex 4.59961 43.4004 1.2
      vertex 20.7715 55 1.2
    endloop
  endfacet
  facet normal -0.582842 0.812585 0
    outer loop
      vertex 4.59961 43.4004 1.2
      vertex 20.7715 55 0
      vertex 4.59961 43.4004 0
    endloop
  endfacet
  facet normal -0.5814 0.813618 0
    outer loop
      vertex 4.59961 43.4004 0
      vertex 3.2002 42.4004 1.2
      vertex 4.59961 43.4004 1.2
    endloop
  endfacet
  facet normal -0.5814 0.813618 0
    outer loop
      vertex 3.2002 42.4004 1.2
      vertex 4.59961 43.4004 0
      vertex 3.2002 42.4004 0
    endloop
  endfacet
  facet normal 0 1 -0
    outer loop
      vertex 3.2002 42.4004 0
      vertex 1.2002 42.4004 1.2
      vertex 3.2002 42.4004 1.2
    endloop
  endfacet
  facet normal 0 1 0
    outer loop
      vertex 1.2002 42.4004 1.2
      vertex 3.2002 42.4004 0
      vertex 1.2002 42.4004 0
    endloop
  endfacet
  facet normal 0.59984 0.80012 -0
    outer loop
      vertex 5 67 0
      vertex 4.2002 67.5996 1.2
      vertex 5 67 1.2
    endloop
  endfacet
  facet normal 0.59984 0.80012 0
    outer loop
      vertex 4.2002 67.5996 1.2
      vertex 5 67 0
      vertex 4.2002 67.5996 0
    endloop
  endfacet
  facet normal 0 -1 0
    outer loop
      vertex 4.2002 67.5996 0
      vertex 38.2998 67.5996 1.2
      vertex 4.2002 67.5996 1.2
    endloop
  endfacet
  facet normal 0 -1 -0
    outer loop
      vertex 38.2998 67.5996 1.2
      vertex 4.2002 67.5996 0
      vertex 38.2998 67.5996 0
    endloop
  endfacet
  facet normal -0.59984 0.80012 0
    outer loop
      vertex 38.2998 67.5996 0
      vertex 37.5 67 1.2
      vertex 38.2998 67.5996 1.2
    endloop
  endfacet
  facet normal -0.59984 0.80012 0
    outer loop
      vertex 37.5 67 1.2
      vertex 38.2998 67.5996 0
      vertex 37.5 67 0
    endloop
  endfacet
  facet normal -0.582861 0.812572 0
    outer loop
      vertex 37.5 67 0
      vertex 21.25 55.3438 1.2
      vertex 37.5 67 1.2
    endloop
  endfacet
  facet normal -0.582861 0.812572 0
    outer loop
      vertex 21.25 55.3438 1.2
      vertex 37.5 67 0
      vertex 21.25 55.3438 0
    endloop
  endfacet
  facet normal 0.582861 0.812572 -0
    outer loop
      vertex 21.25 55.3438 0
      vertex 5 67 1.2
      vertex 21.25 55.3438 1.2
    endloop
  endfacet
  facet normal 0.582861 0.812572 0
    outer loop
      vertex 5 67 1.2
      vertex 21.25 55.3438 0
      vertex 5 67 0
    endloop
  endfacet
  facet normal 1 -0 0
    outer loop
      vertex 40.2998 42.4004 1.2
      vertex 40.2998 67.5996 0
      vertex 40.2998 67.5996 1.2
    endloop
  endfacet
  facet normal 1 0 0
    outer loop
      vertex 40.2998 67.5996 0
      vertex 40.2998 42.4004 1.2
      vertex 40.2998 42.4004 0
    endloop
  endfacet
  facet normal 0 -1 0
    outer loop
      vertex 40.2998 67.5996 0
      vertex 40.7002 67.5996 1.2
      vertex 40.2998 67.5996 1.2
    endloop
  endfacet
  facet normal 0 -1 -0
    outer loop
      vertex 40.7002 67.5996 1.2
      vertex 40.2998 67.5996 0
      vertex 40.7002 67.5996 0
    endloop
  endfacet
  facet normal -0.581403 -0.813616 0
    outer loop
      vertex 40.7002 67.5996 0
      vertex 42.0996 66.5996 1.2
      vertex 40.7002 67.5996 1.2
    endloop
  endfacet
  facet normal -0.581403 -0.813616 -0
    outer loop
      vertex 42.0996 66.5996 1.2
      vertex 40.7002 67.5996 0
      vertex 42.0996 66.5996 0
    endloop
  endfacet
  facet normal -0.582842 -0.812585 0
    outer loop
      vertex 42.0996 66.5996 0
      vertex 58.2715 55 1.2
      vertex 42.0996 66.5996 1.2
    endloop
  endfacet
  facet normal -0.582842 -0.812585 -0
    outer loop
      vertex 58.2715 55 1.2
      vertex 42.0996 66.5996 0
      vertex 58.2715 55 0
    endloop
  endfacet
  facet normal -0.582842 0.812585 0
    outer loop
      vertex 58.2715 55 0
      vertex 42.0996 43.4004 1.2
      vertex 58.2715 55 1.2
    endloop
  endfacet
  facet normal -0.582842 0.812585 0
    outer loop
      vertex 42.0996 43.4004 1.2
      vertex 58.2715 55 0
      vertex 42.0996 43.4004 0
    endloop
  endfacet
  facet normal -0.581403 0.813616 0
    outer loop
      vertex 42.0996 43.4004 0
      vertex 40.7002 42.4004 1.2
      vertex 42.0996 43.4004 1.2
    endloop
  endfacet
  facet normal -0.581403 0.813616 0
    outer loop
      vertex 40.7002 42.4004 1.2
      vertex 42.0996 43.4004 0
      vertex 40.7002 42.4004 0
    endloop
  endfacet
  facet normal 0 1 -0
    outer loop
      vertex 40.7002 42.4004 0
      vertex 40.2998 42.4004 1.2
      vertex 40.7002 42.4004 1.2
    endloop
  endfacet
  facet normal 0 1 0
    outer loop
      vertex 40.2998 42.4004 1.2
      vertex 40.7002 42.4004 0
      vertex 40.2998 42.4004 0
    endloop
  endfacet
  facet normal 0.581403 0.813616 -0
    outer loop
      vertex 76.7998 42.4004 0
      vertex 75.4004 43.4004 1.2
      vertex 76.7998 42.4004 1.2
    endloop
  endfacet
  facet normal 0.581403 0.813616 0
    outer loop
      vertex 75.4004 43.4004 1.2
      vertex 76.7998 42.4004 0
      vertex 75.4004 43.4004 0
    endloop
  endfacet
  facet normal 0.582842 0.812585 -0
    outer loop
      vertex 75.4004 43.4004 0
      vertex 59.2285 55 1.2
      vertex 75.4004 43.4004 1.2
    endloop
  endfacet
  facet normal 0.582842 0.812585 0
    outer loop
      vertex 59.2285 55 1.2
      vertex 75.4004 43.4004 0
      vertex 59.2285 55 0
    endloop
  endfacet
  facet normal 0.582842 -0.812585 0
    outer loop
      vertex 59.2285 55 0
      vertex 75.4004 66.5996 1.2
      vertex 59.2285 55 1.2
    endloop
  endfacet
  facet normal 0.582842 -0.812585 0
    outer loop
      vertex 75.4004 66.5996 1.2
      vertex 59.2285 55 0
      vertex 75.4004 66.5996 0
    endloop
  endfacet
  facet normal 0.581403 -0.813616 0
    outer loop
      vertex 75.4004 66.5996 0
      vertex 76.7998 67.5996 1.2
      vertex 75.4004 66.5996 1.2
    endloop
  endfacet
  facet normal 0.581403 -0.813616 0
    outer loop
      vertex 76.7998 67.5996 1.2
      vertex 75.4004 66.5996 0
      vertex 76.7998 67.5996 0
    endloop
  endfacet
  facet normal 0 -1 0
    outer loop
      vertex 76.7998 67.5996 0
      vertex 78.7998 67.5996 1.2
      vertex 76.7998 67.5996 1.2
    endloop
  endfacet
  facet normal 0 -1 -0
    outer loop
      vertex 78.7998 67.5996 1.2
      vertex 76.7998 67.5996 0
      vertex 78.7998 67.5996 0
    endloop
  endfacet
  facet normal -1 0 0
    outer loop
      vertex 78.7998 42.4004 0
      vertex 78.7998 67.5996 1.2
      vertex 78.7998 67.5996 0
    endloop
  endfacet
  facet normal -1 -0 0
    outer loop
      vertex 78.7998 67.5996 1.2
      vertex 78.7998 42.4004 0
      vertex 78.7998 42.4004 1.2
    endloop
  endfacet
  facet normal 0 1 -0
    outer loop
      vertex 78.7998 42.4004 0
      vertex 76.7998 42.4004 1.2
      vertex 78.7998 42.4004 1.2
    endloop
  endfacet
  facet normal 0 1 0
    outer loop
      vertex 76.7998 42.4004 1.2
      vertex 78.7998 42.4004 0
      vertex 76.7998 42.4004 0
    endloop
  endfacet
  facet normal 0.59984 0.80012 -0
    outer loop
      vertex 42.5 67 0
      vertex 41.7002 67.5996 1.2
      vertex 42.5 67 1.2
    endloop
  endfacet
  facet normal 0.59984 0.80012 0
    outer loop
      vertex 41.7002 67.5996 1.2
      vertex 42.5 67 0
      vertex 41.7002 67.5996 0
    endloop
  endfacet
  facet normal 0 -1 0
    outer loop
      vertex 41.7002 67.5996 0
      vertex 75.7998 67.5996 1.2
      vertex 41.7002 67.5996 1.2
    endloop
  endfacet
  facet normal 0 -1 -0
    outer loop
      vertex 75.7998 67.5996 1.2
      vertex 41.7002 67.5996 0
      vertex 75.7998 67.5996 0
    endloop
  endfacet
  facet normal -0.59984 0.80012 0
    outer loop
      vertex 75.7998 67.5996 0
      vertex 75 67 1.2
      vertex 75.7998 67.5996 1.2
    endloop
  endfacet
  facet normal -0.59984 0.80012 0
    outer loop
      vertex 75 67 1.2
      vertex 75.7998 67.5996 0
      vertex 75 67 0
    endloop
  endfacet
  facet normal -0.582861 0.812572 0
    outer loop
      vertex 75 67 0
      vertex 58.75 55.3438 1.2
      vertex 75 67 1.2
    endloop
  endfacet
  facet normal -0.582861 0.812572 0
    outer loop
      vertex 58.75 55.3438 1.2
      vertex 75 67 0
      vertex 58.75 55.3438 0
    endloop
  endfacet
  facet normal 0.582861 0.812572 -0
    outer loop
      vertex 58.75 55.3438 0
      vertex 42.5 67 1.2
      vertex 58.75 55.3438 1.2
    endloop
  endfacet
  facet normal 0.582861 0.812572 0
    outer loop
      vertex 42.5 67 1.2
      vertex 58.75 55.3438 0
      vertex 42.5 67 0
    endloop
  endfacet
  facet normal 0.59984 -0.80012 0
    outer loop
      vertex 4.2002 42.4004 0
      vertex 5 43 1.2
      vertex 4.2002 42.4004 1.2
    endloop
  endfacet
  facet normal 0.59984 -0.80012 0
    outer loop
      vertex 5 43 1.2
      vertex 4.2002 42.4004 0
      vertex 5 43 0
    endloop
  endfacet
  facet normal 0.582861 -0.812572 0
    outer loop
      vertex 5 43 0
      vertex 21.25 54.6562 1.2
      vertex 5 43 1.2
    endloop
  endfacet
  facet normal 0.582861 -0.812572 0
    outer loop
      vertex 21.25 54.6562 1.2
      vertex 5 43 0
      vertex 21.25 54.6562 0
    endloop
  endfacet
  facet normal -0.582861 -0.812572 0
    outer loop
      vertex 21.25 54.6562 0
      vertex 37.5 43 1.2
      vertex 21.25 54.6562 1.2
    endloop
  endfacet
  facet normal -0.582861 -0.812572 -0
    outer loop
      vertex 37.5 43 1.2
      vertex 21.25 54.6562 0
      vertex 37.5 43 0
    endloop
  endfacet
  facet normal -0.59984 -0.80012 0
    outer loop
      vertex 37.5 43 0
      vertex 38.2998 42.4004 1.2
      vertex 37.5 43 1.2
    endloop
  endfacet
  facet normal -0.59984 -0.80012 -0
    outer loop
      vertex 38.2998 42.4004 1.2
      vertex 37.5 43 0
      vertex 38.2998 42.4004 0
    endloop
  endfacet
  facet normal 0 1 -0
    outer loop
      vertex 38.2998 42.4004 0
      vertex 4.2002 42.4004 1.2
      vertex 38.2998 42.4004 1.2
    endloop
  endfacet
  facet normal 0 1 0
    outer loop
      vertex 4.2002 42.4004 1.2
      vertex 38.2998 42.4004 0
      vertex 4.2002 42.4004 0
    endloop
  endfacet
  facet normal 0.59984 -0.80012 0
    outer loop
      vertex 41.7002 42.4004 0
      vertex 42.5 43 1.2
      vertex 41.7002 42.4004 1.2
    endloop
  endfacet
  facet normal 0.59984 -0.80012 0
    outer loop
      vertex 42.5 43 1.2
      vertex 41.7002 42.4004 0
      vertex 42.5 43 0
    endloop
  endfacet
  facet normal 0.582861 -0.812572 0
    outer loop
      vertex 42.5 43 0
      vertex 58.75 54.6562 1.2
      vertex 42.5 43 1.2
    endloop
  endfacet
  facet normal 0.582861 -0.812572 0
    outer loop
      vertex 58.75 54.6562 1.2
      vertex 42.5 43 0
      vertex 58.75 54.6562 0
    endloop
  endfacet
  facet normal -0.582861 -0.812572 0
    outer loop
      vertex 58.75 54.6562 0
      vertex 75 43 1.2
      vertex 58.75 54.6562 1.2
    endloop
  endfacet
  facet normal -0.582861 -0.812572 -0
    outer loop
      vertex 75 43 1.2
      vertex 58.75 54.6562 0
      vertex 75 43 0
    endloop
  endfacet
  facet normal -0.59984 -0.80012 0
    outer loop
      vertex 75 43 0
      vertex 75.7998 42.4004 1.2
      vertex 75 43 1.2
    endloop
  endfacet
  facet normal -0.59984 -0.80012 -0
    outer loop
      vertex 75.7998 42.4004 1.2
      vertex 75 43 0
      vertex 75.7998 42.4004 0
    endloop
  endfacet
  facet normal 0 1 -0
    outer loop
      vertex 75.7998 42.4004 0
      vertex 41.7002 42.4004 1.2
      vertex 75.7998 42.4004 1.2
    endloop
  endfacet
  facet normal 0 1 0
    outer loop
      vertex 41.7002 42.4004 1.2
      vertex 75.7998 42.4004 0
      vertex 41.7002 42.4004 0
    endloop
  endfacet
endsolid OpenSCAD_Model
