solid OpenSCAD_Model
  facet normal -0 0 -1
    outer loop
      vertex 38.7002 48.7998 0
      vertex 36.2002 48 0
      vertex 36.2998 48.7998 0
    endloop
  endfacet
  facet normal 0 0 -1
    outer loop
      vertex 1 29 0
      vertex 0 30 0
      vertex 4 29 0
    endloop
  endfacet
  facet normal 0 0 -1
    outer loop
      vertex 38.7998 48 0
      vertex 36.2002 48 0
      vertex 38.7002 48.7998 0
    endloop
  endfacet
  facet normal 0 0 -1
    outer loop
      vertex 1.2002 48 0
      vertex 1.2998 48.7998 0
      vertex 3.7002 48.7998 0
    endloop
  endfacet
  facet normal 0 0 -1
    outer loop
      vertex 19.2002 32 0
      vertex 20.7002 31.2002 0
      vertex 19.2998 31.2002 0
    endloop
  endfacet
  facet normal -0 -0 -1
    outer loop
      vertex 4 28 0
      vertex 4 27 0
      vertex 1 28 0
    endloop
  endfacet
  facet normal 0 0 -1
    outer loop
      vertex 19.2002 32 0
      vertex 20.7998 32 0
      vertex 20.7002 31.2002 0
    endloop
  endfacet
  facet normal 0 0 -1
    outer loop
      vertex 40 32 0
      vertex 38.7998 32 0
      vertex 39 34 0
    endloop
  endfacet
  facet normal 0 0 -1
    outer loop
      vertex 40 32 0
      vertex 39 34 0
      vertex 39 46 0
    endloop
  endfacet
  facet normal 0 0 -1
    outer loop
      vertex 36.2002 32 0
      vertex 38.7002 31.2002 0
      vertex 36.2998 31.2002 0
    endloop
  endfacet
  facet normal 0 0 -1
    outer loop
      vertex 40 0 0
      vertex 21 1 0
      vertex 22 1 0
    endloop
  endfacet
  facet normal 0 0 -1
    outer loop
      vertex 36.2002 32 0
      vertex 38.7998 32 0
      vertex 38.7002 31.2002 0
    endloop
  endfacet
  facet normal 0 -0 -1
    outer loop
      vertex 38.7998 48 0
      vertex 39 46 0
      vertex 38 47 0
    endloop
  endfacet
  facet normal 0 -0 -1
    outer loop
      vertex 19.2002 48 0
      vertex 20.7998 48 0
      vertex 19 47 0
    endloop
  endfacet
  facet normal 0 0 -1
    outer loop
      vertex 19 33 0
      vertex 20.5625 39.127 0
      vertex 21 33 0
    endloop
  endfacet
  facet normal 0 0 -1
    outer loop
      vertex 36.2002 32 0
      vertex 20.7998 32 0
      vertex 21 33 0
    endloop
  endfacet
  facet normal 0 -0 -1
    outer loop
      vertex 20.7002 48.7998 0
      vertex 20.7998 48 0
      vertex 19.2002 48 0
    endloop
  endfacet
  facet normal 0 -0 -1
    outer loop
      vertex 19.2998 48.7998 0
      vertex 20.7002 48.7998 0
      vertex 19.2002 48 0
    endloop
  endfacet
  facet normal -0 0 -1
    outer loop
      vertex 21 47 0
      vertex 20.5625 40.873 0
      vertex 19 47 0
    endloop
  endfacet
  facet normal 0 0 -1
    outer loop
      vertex 20.7998 32 0
      vertex 19 33 0
      vertex 21 33 0
    endloop
  endfacet
  facet normal 0 0 -1
    outer loop
      vertex 20.5625 39.127 0
      vertex 19.4375 39.127 0
      vertex 19.4375 40.873 0
    endloop
  endfacet
  facet normal 0 -0 -1
    outer loop
      vertex 3.7002 48.7998 0
      vertex 3.7998 48 0
      vertex 1.2002 48 0
    endloop
  endfacet
  facet normal 0 0 -1
    outer loop
      vertex 1.2002 48 0
      vertex 3.7998 48 0
      vertex 2 47 0
    endloop
  endfacet
  facet normal 0 0 -1
    outer loop
      vertex 3.7998 32 0
      vertex 1.2002 32 0
      vertex 2 33 0
    endloop
  endfacet
  facet normal 0 0 -1
    outer loop
      vertex 0 48 0
      vertex 1 34 0
      vertex 0 32 0
    endloop
  endfacet
  facet normal 0 0 -1
    outer loop
      vertex 3.7002 31.2002 0
      vertex 1.2002 32 0
      vertex 3.7998 32 0
    endloop
  endfacet
  facet normal 0 0 -1
    outer loop
      vertex 38 33 0
      vertex 39 34 0
      vertex 38.7998 32 0
    endloop
  endfacet
  facet normal 0 0 -1
    outer loop
      vertex 3.7002 31.2002 0
      vertex 1.2998 31.2002 0
      vertex 1.2002 32 0
    endloop
  endfacet
  facet normal 0 0 -1
    outer loop
      vertex 21 47 0
      vertex 19 47 0
      vertex 20.7998 48 0
    endloop
  endfacet
  facet normal -0 0 -1
    outer loop
      vertex 40 48 0
      vertex 39 46 0
      vertex 38.7998 48 0
    endloop
  endfacet
  facet normal 0 0 -1
    outer loop
      vertex 19.4375 40.873 0
      vertex 19 47 0
      vertex 20.5625 40.873 0
    endloop
  endfacet
  facet normal 0 0 -1
    outer loop
      vertex 21 47 0
      vertex 20.7998 48 0
      vertex 36.2002 48 0
    endloop
  endfacet
  facet normal -0 0 -1
    outer loop
      vertex 38.7998 48 0
      vertex 38 47 0
      vertex 36.2002 48 0
    endloop
  endfacet
  facet normal -0 0 -1
    outer loop
      vertex 1.2002 48 0
      vertex 1 46 0
      vertex 0 48 0
    endloop
  endfacet
  facet normal 0 -0 -1
    outer loop
      vertex 36.2002 48 0
      vertex 38 47 0
      vertex 21 47 0
    endloop
  endfacet
  facet normal 0 0 -1
    outer loop
      vertex 21.9229 40 0
      vertex 20.5625 40.873 0
      vertex 38 47 0
    endloop
  endfacet
  facet normal 0 0 -1
    outer loop
      vertex 19 47 0
      vertex 3.7998 48 0
      vertex 19.2002 48 0
    endloop
  endfacet
  facet normal 0 0 -1
    outer loop
      vertex 40 32 0
      vertex 39 46 0
      vertex 40 48 0
    endloop
  endfacet
  facet normal 0 -0 -1
    outer loop
      vertex 3.7998 48 0
      vertex 19 47 0
      vertex 2 47 0
    endloop
  endfacet
  facet normal 0 -0 -1
    outer loop
      vertex 1 34 0
      vertex 1.2002 32 0
      vertex 0 32 0
    endloop
  endfacet
  facet normal 0 0 -1
    outer loop
      vertex 18.0771 40 0
      vertex 19.4375 40.873 0
      vertex 19.4375 39.127 0
    endloop
  endfacet
  facet normal 0 0 -1
    outer loop
      vertex 20.5625 39.127 0
      vertex 20.5625 40.873 0
      vertex 21.9229 40 0
    endloop
  endfacet
  facet normal 0 -0 -1
    outer loop
      vertex 19 33 0
      vertex 19.2002 32 0
      vertex 3.7998 32 0
    endloop
  endfacet
  facet normal 0 -0 -1
    outer loop
      vertex 38 47 0
      vertex 39 46 0
      vertex 21.9229 40 0
    endloop
  endfacet
  facet normal -0 0 -1
    outer loop
      vertex 2 47 0
      vertex 1 46 0
      vertex 1.2002 48 0
    endloop
  endfacet
  facet normal -0 -0 -1
    outer loop
      vertex 1 46 0
      vertex 1 34 0
      vertex 0 48 0
    endloop
  endfacet
  facet normal -0 0 -1
    outer loop
      vertex 19.4375 40.873 0
      vertex 18.0771 40 0
      vertex 2 47 0
    endloop
  endfacet
  facet normal 0 0 -1
    outer loop
      vertex 20.7998 32 0
      vertex 19.2002 32 0
      vertex 19 33 0
    endloop
  endfacet
  facet normal 0 -0 -1
    outer loop
      vertex 2 47 0
      vertex 18.0771 40 0
      vertex 1 46 0
    endloop
  endfacet
  facet normal 0 0 -1
    outer loop
      vertex 20.5625 39.127 0
      vertex 19.4375 40.873 0
      vertex 20.5625 40.873 0
    endloop
  endfacet
  facet normal 0 -0 -1
    outer loop
      vertex 18.0771 40 0
      vertex 19.4375 39.127 0
      vertex 2 33 0
    endloop
  endfacet
  facet normal -0 0 -1
    outer loop
      vertex 2 33 0
      vertex 1.2002 32 0
      vertex 1 34 0
    endloop
  endfacet
  facet normal 0 0 -1
    outer loop
      vertex 3.7998 32 0
      vertex 2 33 0
      vertex 19 33 0
    endloop
  endfacet
  facet normal 0 0 -1
    outer loop
      vertex 1 34 0
      vertex 18.0771 40 0
      vertex 2 33 0
    endloop
  endfacet
  facet normal 0 0 -1
    outer loop
      vertex 36.2002 32 0
      vertex 38 33 0
      vertex 38.7998 32 0
    endloop
  endfacet
  facet normal 0 -0 -1
    outer loop
      vertex 21.9229 40 0
      vertex 38 33 0
      vertex 20.5625 39.127 0
    endloop
  endfacet
  facet normal 0 0 -1
    outer loop
      vertex 19 33 0
      vertex 19.4375 39.127 0
      vertex 20.5625 39.127 0
    endloop
  endfacet
  facet normal 0 0 -1
    outer loop
      vertex 36.2002 32 0
      vertex 21 33 0
      vertex 38 33 0
    endloop
  endfacet
  facet normal -0 0 -1
    outer loop
      vertex 39 34 0
      vertex 38 33 0
      vertex 21.9229 40 0
    endloop
  endfacet
  facet normal 0 0 -1
    outer loop
      vertex 0 30 0
      vertex 1 27 0
      vertex 1 3 0
    endloop
  endfacet
  facet normal 0 0 -1
    outer loop
      vertex 0 0 0
      vertex 0 30 0
      vertex 1 3 0
    endloop
  endfacet
  facet normal 0 0 -1
    outer loop
      vertex 1 28 0
      vertex 0 30 0
      vertex 1 29 0
    endloop
  endfacet
  facet normal 0 0 -1
    outer loop
      vertex 4 28 0
      vertex 4 29 0
      vertex 5 28 0
    endloop
  endfacet
  facet normal 0 0 -1
    outer loop
      vertex 4 29 0
      vertex 0 30 0
      vertex 5 29 0
    endloop
  endfacet
  facet normal 0 0 -1
    outer loop
      vertex 35 28 0
      vertex 35 29 0
      vertex 36 28 0
    endloop
  endfacet
  facet normal 0 0 -1
    outer loop
      vertex 5 28 0
      vertex 4 29 0
      vertex 5 29 0
    endloop
  endfacet
  facet normal 0 0 -1
    outer loop
      vertex 4 27 0
      vertex 1 27 0
      vertex 1 28 0
    endloop
  endfacet
  facet normal 0 0 -1
    outer loop
      vertex 0 30 0
      vertex 19 29 0
      vertex 18 29 0
    endloop
  endfacet
  facet normal 0 0 -1
    outer loop
      vertex 5 29 0
      vertex 0 30 0
      vertex 18 29 0
    endloop
  endfacet
  facet normal 0 -0 -1
    outer loop
      vertex 21 28 0
      vertex 22 27 0
      vertex 18 27 0
    endloop
  endfacet
  facet normal 0 0 -1
    outer loop
      vertex 0 30 0
      vertex 21 29 0
      vertex 19 29 0
    endloop
  endfacet
  facet normal 0 0 -1
    outer loop
      vertex 22 29 0
      vertex 40 30 0
      vertex 35 29 0
    endloop
  endfacet
  facet normal -0 0 -1
    outer loop
      vertex 40 30 0
      vertex 21 29 0
      vertex 0 30 0
    endloop
  endfacet
  facet normal 0 0 -1
    outer loop
      vertex 40 30 0
      vertex 39 27 0
      vertex 39 28 0
    endloop
  endfacet
  facet normal 0 -0 -1
    outer loop
      vertex 40 30 0
      vertex 40 0 0
      vertex 39 27 0
    endloop
  endfacet
  facet normal 0 0 -1
    outer loop
      vertex 21 28 0
      vertex 22 29 0
      vertex 22 27 0
    endloop
  endfacet
  facet normal 0 0 -1
    outer loop
      vertex 18 29 0
      vertex 19 28 0
      vertex 18 27 0
    endloop
  endfacet
  facet normal 0 -0 -1
    outer loop
      vertex 19 28 0
      vertex 21 28 0
      vertex 18 27 0
    endloop
  endfacet
  facet normal 0 0 -1
    outer loop
      vertex 18 29 0
      vertex 19 29 0
      vertex 19 28 0
    endloop
  endfacet
  facet normal 0 0 -1
    outer loop
      vertex 40 30 0
      vertex 22 29 0
      vertex 21 29 0
    endloop
  endfacet
  facet normal 0 0 -1
    outer loop
      vertex 21 29 0
      vertex 22 29 0
      vertex 21 28 0
    endloop
  endfacet
  facet normal 0 0 -1
    outer loop
      vertex 39 27 0
      vertex 36 27 0
      vertex 36 28 0
    endloop
  endfacet
  facet normal 0 0 -1
    outer loop
      vertex 40 30 0
      vertex 36 29 0
      vertex 35 29 0
    endloop
  endfacet
  facet normal -0 -0 -1
    outer loop
      vertex 36 29 0
      vertex 36 28 0
      vertex 35 29 0
    endloop
  endfacet
  facet normal 0 0 -1
    outer loop
      vertex 39 28 0
      vertex 39 29 0
      vertex 40 30 0
    endloop
  endfacet
  facet normal 0 0 -1
    outer loop
      vertex 39 29 0
      vertex 36 29 0
      vertex 40 30 0
    endloop
  endfacet
  facet normal 0 0 -1
    outer loop
      vertex 20 15.9033 0
      vertex 21.1201 15 0
      vertex 20 14.0967 0
    endloop
  endfacet
  facet normal 0 0 -1
    outer loop
      vertex 4 27 0
      vertex 5 28 0
      vertex 18.8799 15 0
    endloop
  endfacet
  facet normal 0 0 -1
    outer loop
      vertex 0 0 0
      vertex 1 2 0
      vertex 1 1 0
    endloop
  endfacet
  facet normal 0 0 -1
    outer loop
      vertex 0 30 0
      vertex 1 28 0
      vertex 1 27 0
    endloop
  endfacet
  facet normal 0 0 -1
    outer loop
      vertex 4 28 0
      vertex 5 28 0
      vertex 4 27 0
    endloop
  endfacet
  facet normal 0 0 -1
    outer loop
      vertex 5 28 0
      vertex 20 15.9033 0
      vertex 18.8799 15 0
    endloop
  endfacet
  facet normal 0 0 -1
    outer loop
      vertex 36 1 0
      vertex 35 2 0
      vertex 36 2 0
    endloop
  endfacet
  facet normal 0 0 -1
    outer loop
      vertex 4 3 0
      vertex 18.8799 15 0
      vertex 5 2 0
    endloop
  endfacet
  facet normal -0 0 -1
    outer loop
      vertex 18 1 0
      vertex 0 0 0
      vertex 5 1 0
    endloop
  endfacet
  facet normal 0 0 -1
    outer loop
      vertex 35 28 0
      vertex 21.1201 15 0
      vertex 20 15.9033 0
    endloop
  endfacet
  facet normal 0 0 -1
    outer loop
      vertex 20 14.0967 0
      vertex 18.8799 15 0
      vertex 20 15.9033 0
    endloop
  endfacet
  facet normal -0 -0 -1
    outer loop
      vertex 36 28 0
      vertex 36 27 0
      vertex 35 28 0
    endloop
  endfacet
  facet normal -0 0 -1
    outer loop
      vertex 36 27 0
      vertex 21.1201 15 0
      vertex 35 28 0
    endloop
  endfacet
  facet normal 0 0 -1
    outer loop
      vertex 39 3 0
      vertex 39 27 0
      vertex 40 0 0
    endloop
  endfacet
  facet normal 0 0 -1
    outer loop
      vertex 39 27 0
      vertex 36 28 0
      vertex 39 28 0
    endloop
  endfacet
  facet normal 0 0 -1
    outer loop
      vertex 0 0 0
      vertex 18 1 0
      vertex 19 1 0
    endloop
  endfacet
  facet normal 0 0 -1
    outer loop
      vertex 20 14.0967 0
      vertex 21.1201 15 0
      vertex 35 2 0
    endloop
  endfacet
  facet normal 0 0 -1
    outer loop
      vertex 1 2 0
      vertex 1 3 0
      vertex 4 2 0
    endloop
  endfacet
  facet normal 0 0 -1
    outer loop
      vertex 35 1 0
      vertex 35 2 0
      vertex 36 1 0
    endloop
  endfacet
  facet normal 0 0 -1
    outer loop
      vertex 5 1 0
      vertex 4 1 0
      vertex 4 2 0
    endloop
  endfacet
  facet normal 0 0 -1
    outer loop
      vertex 35 2 0
      vertex 21.1201 15 0
      vertex 36 3 0
    endloop
  endfacet
  facet normal 0 0 -1
    outer loop
      vertex 21 2 0
      vertex 19 2 0
      vertex 18 3 0
    endloop
  endfacet
  facet normal 0 -0 -1
    outer loop
      vertex 18.8799 15 0
      vertex 20 14.0967 0
      vertex 5 2 0
    endloop
  endfacet
  facet normal 0 0 -1
    outer loop
      vertex 40 0 0
      vertex 35 1 0
      vertex 36 1 0
    endloop
  endfacet
  facet normal 0 0 -1
    outer loop
      vertex 40 0 0
      vertex 22 1 0
      vertex 35 1 0
    endloop
  endfacet
  facet normal 0 0 -1
    outer loop
      vertex 18 1 0
      vertex 19 2 0
      vertex 19 1 0
    endloop
  endfacet
  facet normal 0 0 -1
    outer loop
      vertex 0 0 0
      vertex 21 1 0
      vertex 40 0 0
    endloop
  endfacet
  facet normal 0 0 -1
    outer loop
      vertex 21 2 0
      vertex 22 3 0
      vertex 22 1 0
    endloop
  endfacet
  facet normal 0 0 -1
    outer loop
      vertex 0 0 0
      vertex 19 1 0
      vertex 21 1 0
    endloop
  endfacet
  facet normal 0 0 -1
    outer loop
      vertex 18 1 0
      vertex 18 3 0
      vertex 19 2 0
    endloop
  endfacet
  facet normal 0 0 -1
    outer loop
      vertex 18 3 0
      vertex 22 3 0
      vertex 21 2 0
    endloop
  endfacet
  facet normal 0 0 -1
    outer loop
      vertex 21 2 0
      vertex 22 1 0
      vertex 21 1 0
    endloop
  endfacet
  facet normal 0 0 -1
    outer loop
      vertex 0 0 0
      vertex 4 1 0
      vertex 5 1 0
    endloop
  endfacet
  facet normal 0 0 -1
    outer loop
      vertex 4 2 0
      vertex 5 2 0
      vertex 5 1 0
    endloop
  endfacet
  facet normal 0 0 -1
    outer loop
      vertex 0 0 0
      vertex 1 1 0
      vertex 4 1 0
    endloop
  endfacet
  facet normal 0 0 -1
    outer loop
      vertex 0 0 0
      vertex 1 3 0
      vertex 1 2 0
    endloop
  endfacet
  facet normal 0 0 -1
    outer loop
      vertex 5 2 0
      vertex 4 2 0
      vertex 4 3 0
    endloop
  endfacet
  facet normal 0 0 -1
    outer loop
      vertex 4 2 0
      vertex 1 3 0
      vertex 4 3 0
    endloop
  endfacet
  facet normal 0 0 -1
    outer loop
      vertex 40 0 0
      vertex 39 2 0
      vertex 39 3 0
    endloop
  endfacet
  facet normal 0 0 -1
    outer loop
      vertex 36 2 0
      vertex 36 3 0
      vertex 39 2 0
    endloop
  endfacet
  facet normal 0 0 -1
    outer loop
      vertex 40 0 0
      vertex 36 1 0
      vertex 39 1 0
    endloop
  endfacet
  facet normal 0 0 -1
    outer loop
      vertex 36 3 0
      vertex 39 3 0
      vertex 39 2 0
    endloop
  endfacet
  facet normal 0 0 -1
    outer loop
      vertex 36 2 0
      vertex 35 2 0
      vertex 36 3 0
    endloop
  endfacet
  facet normal 0 0 -1
    outer loop
      vertex 39 2 0
      vertex 40 0 0
      vertex 39 1 0
    endloop
  endfacet
  facet normal -0 0 1
    outer loop
      vertex 36.2998 48.7998 0.8
      vertex 36.2002 48 0.8
      vertex 38.7002 48.7998 0.8
    endloop
  endfacet
  facet normal 0 0 1
    outer loop
      vertex 4 29 0.8
      vertex 0 30 0.8
      vertex 1 29 0.8
    endloop
  endfacet
  facet normal 0 0 1
    outer loop
      vertex 38.7002 48.7998 0.8
      vertex 36.2002 48 0.8
      vertex 38.7998 48 0.8
    endloop
  endfacet
  facet normal 0 0 1
    outer loop
      vertex 3.7002 48.7998 0.8
      vertex 1.2998 48.7998 0.8
      vertex 1.2002 48 0.8
    endloop
  endfacet
  facet normal 0 -0 1
    outer loop
      vertex 19.2998 31.2002 0.8
      vertex 20.7002 31.2002 0.8
      vertex 19.2002 32 0.8
    endloop
  endfacet
  facet normal -0 0 1
    outer loop
      vertex 1 28 0.8
      vertex 4 27 0.8
      vertex 4 28 0.8
    endloop
  endfacet
  facet normal 0 -0 1
    outer loop
      vertex 20.7002 31.2002 0.8
      vertex 20.7998 32 0.8
      vertex 19.2002 32 0.8
    endloop
  endfacet
  facet normal 0 0 1
    outer loop
      vertex 39 34 0.8
      vertex 38.7998 32 0.8
      vertex 40 32 0.8
    endloop
  endfacet
  facet normal 0 0 1
    outer loop
      vertex 39 46 0.8
      vertex 39 34 0.8
      vertex 40 32 0.8
    endloop
  endfacet
  facet normal 0 -0 1
    outer loop
      vertex 36.2998 31.2002 0.8
      vertex 38.7002 31.2002 0.8
      vertex 36.2002 32 0.8
    endloop
  endfacet
  facet normal 0 0 1
    outer loop
      vertex 22 1 0.8
      vertex 21 1 0.8
      vertex 40 0 0.8
    endloop
  endfacet
  facet normal 0 -0 1
    outer loop
      vertex 38.7002 31.2002 0.8
      vertex 38.7998 32 0.8
      vertex 36.2002 32 0.8
    endloop
  endfacet
  facet normal -0 0 1
    outer loop
      vertex 38 47 0.8
      vertex 39 46 0.8
      vertex 38.7998 48 0.8
    endloop
  endfacet
  facet normal 0 0 1
    outer loop
      vertex 19 47 0.8
      vertex 20.7998 48 0.8
      vertex 19.2002 48 0.8
    endloop
  endfacet
  facet normal 0 0 1
    outer loop
      vertex 21 33 0.8
      vertex 20.5625 39.127 0.8
      vertex 19 33 0.8
    endloop
  endfacet
  facet normal 0 0 1
    outer loop
      vertex 21 33 0.8
      vertex 20.7998 32 0.8
      vertex 36.2002 32 0.8
    endloop
  endfacet
  facet normal 0 0 1
    outer loop
      vertex 19.2002 48 0.8
      vertex 20.7998 48 0.8
      vertex 20.7002 48.7998 0.8
    endloop
  endfacet
  facet normal 0 0 1
    outer loop
      vertex 19.2002 48 0.8
      vertex 20.7002 48.7998 0.8
      vertex 19.2998 48.7998 0.8
    endloop
  endfacet
  facet normal -0 0 1
    outer loop
      vertex 19 47 0.8
      vertex 20.5625 40.873 0.8
      vertex 21 47 0.8
    endloop
  endfacet
  facet normal 0 0 1
    outer loop
      vertex 21 33 0.8
      vertex 19 33 0.8
      vertex 20.7998 32 0.8
    endloop
  endfacet
  facet normal 0 0 1
    outer loop
      vertex 19.4375 40.873 0.8
      vertex 19.4375 39.127 0.8
      vertex 20.5625 39.127 0.8
    endloop
  endfacet
  facet normal 0 0 1
    outer loop
      vertex 1.2002 48 0.8
      vertex 3.7998 48 0.8
      vertex 3.7002 48.7998 0.8
    endloop
  endfacet
  facet normal 0 -0 1
    outer loop
      vertex 2 47 0.8
      vertex 3.7998 48 0.8
      vertex 1.2002 48 0.8
    endloop
  endfacet
  facet normal 0 0 1
    outer loop
      vertex 2 33 0.8
      vertex 1.2002 32 0.8
      vertex 3.7998 32 0.8
    endloop
  endfacet
  facet normal 0 0 1
    outer loop
      vertex 0 32 0.8
      vertex 1 34 0.8
      vertex 0 48 0.8
    endloop
  endfacet
  facet normal 0 0 1
    outer loop
      vertex 3.7998 32 0.8
      vertex 1.2002 32 0.8
      vertex 3.7002 31.2002 0.8
    endloop
  endfacet
  facet normal 0 -0 1
    outer loop
      vertex 38.7998 32 0.8
      vertex 39 34 0.8
      vertex 38 33 0.8
    endloop
  endfacet
  facet normal 0 0 1
    outer loop
      vertex 1.2002 32 0.8
      vertex 1.2998 31.2002 0.8
      vertex 3.7002 31.2002 0.8
    endloop
  endfacet
  facet normal 0 0 1
    outer loop
      vertex 20.7998 48 0.8
      vertex 19 47 0.8
      vertex 21 47 0.8
    endloop
  endfacet
  facet normal -0 0 1
    outer loop
      vertex 38.7998 48 0.8
      vertex 39 46 0.8
      vertex 40 48 0.8
    endloop
  endfacet
  facet normal 0 0 1
    outer loop
      vertex 20.5625 40.873 0.8
      vertex 19 47 0.8
      vertex 19.4375 40.873 0.8
    endloop
  endfacet
  facet normal 0 0 1
    outer loop
      vertex 36.2002 48 0.8
      vertex 20.7998 48 0.8
      vertex 21 47 0.8
    endloop
  endfacet
  facet normal -0 0 1
    outer loop
      vertex 36.2002 48 0.8
      vertex 38 47 0.8
      vertex 38.7998 48 0.8
    endloop
  endfacet
  facet normal -0 0 1
    outer loop
      vertex 0 48 0.8
      vertex 1 46 0.8
      vertex 1.2002 48 0.8
    endloop
  endfacet
  facet normal 0 0 1
    outer loop
      vertex 21 47 0.8
      vertex 38 47 0.8
      vertex 36.2002 48 0.8
    endloop
  endfacet
  facet normal 0 0 1
    outer loop
      vertex 38 47 0.8
      vertex 20.5625 40.873 0.8
      vertex 21.9229 40 0.8
    endloop
  endfacet
  facet normal 0 0 1
    outer loop
      vertex 19.2002 48 0.8
      vertex 3.7998 48 0.8
      vertex 19 47 0.8
    endloop
  endfacet
  facet normal 0 0 1
    outer loop
      vertex 40 48 0.8
      vertex 39 46 0.8
      vertex 40 32 0.8
    endloop
  endfacet
  facet normal 0 0 1
    outer loop
      vertex 2 47 0.8
      vertex 19 47 0.8
      vertex 3.7998 48 0.8
    endloop
  endfacet
  facet normal 0 0 1
    outer loop
      vertex 0 32 0.8
      vertex 1.2002 32 0.8
      vertex 1 34 0.8
    endloop
  endfacet
  facet normal 0 -0 1
    outer loop
      vertex 19.4375 39.127 0.8
      vertex 19.4375 40.873 0.8
      vertex 18.0771 40 0.8
    endloop
  endfacet
  facet normal 0 0 1
    outer loop
      vertex 21.9229 40 0.8
      vertex 20.5625 40.873 0.8
      vertex 20.5625 39.127 0.8
    endloop
  endfacet
  facet normal 0 0 1
    outer loop
      vertex 3.7998 32 0.8
      vertex 19.2002 32 0.8
      vertex 19 33 0.8
    endloop
  endfacet
  facet normal 0 0 1
    outer loop
      vertex 21.9229 40 0.8
      vertex 39 46 0.8
      vertex 38 47 0.8
    endloop
  endfacet
  facet normal 0 0 1
    outer loop
      vertex 1.2002 48 0.8
      vertex 1 46 0.8
      vertex 2 47 0.8
    endloop
  endfacet
  facet normal 0 0 1
    outer loop
      vertex 0 48 0.8
      vertex 1 34 0.8
      vertex 1 46 0.8
    endloop
  endfacet
  facet normal 0 0 1
    outer loop
      vertex 2 47 0.8
      vertex 18.0771 40 0.8
      vertex 19.4375 40.873 0.8
    endloop
  endfacet
  facet normal 0 0 1
    outer loop
      vertex 19 33 0.8
      vertex 19.2002 32 0.8
      vertex 20.7998 32 0.8
    endloop
  endfacet
  facet normal -0 0 1
    outer loop
      vertex 1 46 0.8
      vertex 18.0771 40 0.8
      vertex 2 47 0.8
    endloop
  endfacet
  facet normal 0 0 1
    outer loop
      vertex 20.5625 40.873 0.8
      vertex 19.4375 40.873 0.8
      vertex 20.5625 39.127 0.8
    endloop
  endfacet
  facet normal 0 0 1
    outer loop
      vertex 2 33 0.8
      vertex 19.4375 39.127 0.8
      vertex 18.0771 40 0.8
    endloop
  endfacet
  facet normal 0 0 1
    outer loop
      vertex 1 34 0.8
      vertex 1.2002 32 0.8
      vertex 2 33 0.8
    endloop
  endfacet
  facet normal 0 0 1
    outer loop
      vertex 19 33 0.8
      vertex 2 33 0.8
      vertex 3.7998 32 0.8
    endloop
  endfacet
  facet normal 0 -0 1
    outer loop
      vertex 2 33 0.8
      vertex 18.0771 40 0.8
      vertex 1 34 0.8
    endloop
  endfacet
  facet normal 0 0 1
    outer loop
      vertex 38.7998 32 0.8
      vertex 38 33 0.8
      vertex 36.2002 32 0.8
    endloop
  endfacet
  facet normal -0 0 1
    outer loop
      vertex 20.5625 39.127 0.8
      vertex 38 33 0.8
      vertex 21.9229 40 0.8
    endloop
  endfacet
  facet normal 0 0 1
    outer loop
      vertex 20.5625 39.127 0.8
      vertex 19.4375 39.127 0.8
      vertex 19 33 0.8
    endloop
  endfacet
  facet normal 0 0 1
    outer loop
      vertex 38 33 0.8
      vertex 21 33 0.8
      vertex 36.2002 32 0.8
    endloop
  endfacet
  facet normal 0 0 1
    outer loop
      vertex 21.9229 40 0.8
      vertex 38 33 0.8
      vertex 39 34 0.8
    endloop
  endfacet
  facet normal 0 -0 1
    outer loop
      vertex 1 3 0.8
      vertex 1 27 0.8
      vertex 0 30 0.8
    endloop
  endfacet
  facet normal 0 0 1
    outer loop
      vertex 1 3 0.8
      vertex 0 30 0.8
      vertex 0 0 0.8
    endloop
  endfacet
  facet normal 0 0 1
    outer loop
      vertex 1 29 0.8
      vertex 0 30 0.8
      vertex 1 28 0.8
    endloop
  endfacet
  facet normal 0 0 1
    outer loop
      vertex 5 28 0.8
      vertex 4 29 0.8
      vertex 4 28 0.8
    endloop
  endfacet
  facet normal 0 0 1
    outer loop
      vertex 5 29 0.8
      vertex 0 30 0.8
      vertex 4 29 0.8
    endloop
  endfacet
  facet normal 0 0 1
    outer loop
      vertex 36 28 0.8
      vertex 35 29 0.8
      vertex 35 28 0.8
    endloop
  endfacet
  facet normal 0 0 1
    outer loop
      vertex 5 29 0.8
      vertex 4 29 0.8
      vertex 5 28 0.8
    endloop
  endfacet
  facet normal 0 0 1
    outer loop
      vertex 1 28 0.8
      vertex 1 27 0.8
      vertex 4 27 0.8
    endloop
  endfacet
  facet normal 0 -0 1
    outer loop
      vertex 18 29 0.8
      vertex 19 29 0.8
      vertex 0 30 0.8
    endloop
  endfacet
  facet normal 0 0 1
    outer loop
      vertex 18 29 0.8
      vertex 0 30 0.8
      vertex 5 29 0.8
    endloop
  endfacet
  facet normal 0 0 1
    outer loop
      vertex 18 27 0.8
      vertex 22 27 0.8
      vertex 21 28 0.8
    endloop
  endfacet
  facet normal 0 -0 1
    outer loop
      vertex 19 29 0.8
      vertex 21 29 0.8
      vertex 0 30 0.8
    endloop
  endfacet
  facet normal 0 -0 1
    outer loop
      vertex 35 29 0.8
      vertex 40 30 0.8
      vertex 22 29 0.8
    endloop
  endfacet
  facet normal -0 0 1
    outer loop
      vertex 0 30 0.8
      vertex 21 29 0.8
      vertex 40 30 0.8
    endloop
  endfacet
  facet normal -0 0 1
    outer loop
      vertex 39 28 0.8
      vertex 39 27 0.8
      vertex 40 30 0.8
    endloop
  endfacet
  facet normal -0 0 1
    outer loop
      vertex 39 27 0.8
      vertex 40 0 0.8
      vertex 40 30 0.8
    endloop
  endfacet
  facet normal 0 -0 1
    outer loop
      vertex 22 27 0.8
      vertex 22 29 0.8
      vertex 21 28 0.8
    endloop
  endfacet
  facet normal 0 0 1
    outer loop
      vertex 18 27 0.8
      vertex 19 28 0.8
      vertex 18 29 0.8
    endloop
  endfacet
  facet normal 0 0 1
    outer loop
      vertex 18 27 0.8
      vertex 21 28 0.8
      vertex 19 28 0.8
    endloop
  endfacet
  facet normal 0 -0 1
    outer loop
      vertex 19 28 0.8
      vertex 19 29 0.8
      vertex 18 29 0.8
    endloop
  endfacet
  facet normal 0 0 1
    outer loop
      vertex 21 29 0.8
      vertex 22 29 0.8
      vertex 40 30 0.8
    endloop
  endfacet
  facet normal 0 0 1
    outer loop
      vertex 21 28 0.8
      vertex 22 29 0.8
      vertex 21 29 0.8
    endloop
  endfacet
  facet normal 0 0 1
    outer loop
      vertex 36 28 0.8
      vertex 36 27 0.8
      vertex 39 27 0.8
    endloop
  endfacet
  facet normal 0 0 1
    outer loop
      vertex 35 29 0.8
      vertex 36 29 0.8
      vertex 40 30 0.8
    endloop
  endfacet
  facet normal -0 0 1
    outer loop
      vertex 35 29 0.8
      vertex 36 28 0.8
      vertex 36 29 0.8
    endloop
  endfacet
  facet normal 0 0 1
    outer loop
      vertex 40 30 0.8
      vertex 39 29 0.8
      vertex 39 28 0.8
    endloop
  endfacet
  facet normal 0 0 1
    outer loop
      vertex 40 30 0.8
      vertex 36 29 0.8
      vertex 39 29 0.8
    endloop
  endfacet
  facet normal 0 0 1
    outer loop
      vertex 20 14.0967 0.8
      vertex 21.1201 15 0.8
      vertex 20 15.9033 0.8
    endloop
  endfacet
  facet normal 0 0 1
    outer loop
      vertex 18.8799 15 0.8
      vertex 5 28 0.8
      vertex 4 27 0.8
    endloop
  endfacet
  facet normal 0 -0 1
    outer loop
      vertex 1 1 0.8
      vertex 1 2 0.8
      vertex 0 0 0.8
    endloop
  endfacet
  facet normal 0 -0 1
    outer loop
      vertex 1 27 0.8
      vertex 1 28 0.8
      vertex 0 30 0.8
    endloop
  endfacet
  facet normal 0 0 1
    outer loop
      vertex 4 27 0.8
      vertex 5 28 0.8
      vertex 4 28 0.8
    endloop
  endfacet
  facet normal 0 -0 1
    outer loop
      vertex 18.8799 15 0.8
      vertex 20 15.9033 0.8
      vertex 5 28 0.8
    endloop
  endfacet
  facet normal 0 0 1
    outer loop
      vertex 36 2 0.8
      vertex 35 2 0.8
      vertex 36 1 0.8
    endloop
  endfacet
  facet normal 0 -0 1
    outer loop
      vertex 5 2 0.8
      vertex 18.8799 15 0.8
      vertex 4 3 0.8
    endloop
  endfacet
  facet normal -0 0 1
    outer loop
      vertex 5 1 0.8
      vertex 0 0 0.8
      vertex 18 1 0.8
    endloop
  endfacet
  facet normal -0 0 1
    outer loop
      vertex 20 15.9033 0.8
      vertex 21.1201 15 0.8
      vertex 35 28 0.8
    endloop
  endfacet
  facet normal 0 0 1
    outer loop
      vertex 20 15.9033 0.8
      vertex 18.8799 15 0.8
      vertex 20 14.0967 0.8
    endloop
  endfacet
  facet normal -0 0 1
    outer loop
      vertex 35 28 0.8
      vertex 36 27 0.8
      vertex 36 28 0.8
    endloop
  endfacet
  facet normal 0 0 1
    outer loop
      vertex 35 28 0.8
      vertex 21.1201 15 0.8
      vertex 36 27 0.8
    endloop
  endfacet
  facet normal 0 0 1
    outer loop
      vertex 40 0 0.8
      vertex 39 27 0.8
      vertex 39 3 0.8
    endloop
  endfacet
  facet normal 0 0 1
    outer loop
      vertex 39 28 0.8
      vertex 36 28 0.8
      vertex 39 27 0.8
    endloop
  endfacet
  facet normal 0 0 1
    outer loop
      vertex 19 1 0.8
      vertex 18 1 0.8
      vertex 0 0 0.8
    endloop
  endfacet
  facet normal 0 0 1
    outer loop
      vertex 35 2 0.8
      vertex 21.1201 15 0.8
      vertex 20 14.0967 0.8
    endloop
  endfacet
  facet normal 0 0 1
    outer loop
      vertex 4 2 0.8
      vertex 1 3 0.8
      vertex 1 2 0.8
    endloop
  endfacet
  facet normal 0 0 1
    outer loop
      vertex 36 1 0.8
      vertex 35 2 0.8
      vertex 35 1 0.8
    endloop
  endfacet
  facet normal 0 0 1
    outer loop
      vertex 4 2 0.8
      vertex 4 1 0.8
      vertex 5 1 0.8
    endloop
  endfacet
  facet normal 0 0 1
    outer loop
      vertex 36 3 0.8
      vertex 21.1201 15 0.8
      vertex 35 2 0.8
    endloop
  endfacet
  facet normal 0 0 1
    outer loop
      vertex 18 3 0.8
      vertex 19 2 0.8
      vertex 21 2 0.8
    endloop
  endfacet
  facet normal 0 0 1
    outer loop
      vertex 5 2 0.8
      vertex 20 14.0967 0.8
      vertex 18.8799 15 0.8
    endloop
  endfacet
  facet normal 0 0 1
    outer loop
      vertex 36 1 0.8
      vertex 35 1 0.8
      vertex 40 0 0.8
    endloop
  endfacet
  facet normal 0 0 1
    outer loop
      vertex 35 1 0.8
      vertex 22 1 0.8
      vertex 40 0 0.8
    endloop
  endfacet
  facet normal 0 -0 1
    outer loop
      vertex 19 1 0.8
      vertex 19 2 0.8
      vertex 18 1 0.8
    endloop
  endfacet
  facet normal 0 0 1
    outer loop
      vertex 40 0 0.8
      vertex 21 1 0.8
      vertex 0 0 0.8
    endloop
  endfacet
  facet normal 0 -0 1
    outer loop
      vertex 22 1 0.8
      vertex 22 3 0.8
      vertex 21 2 0.8
    endloop
  endfacet
  facet normal 0 0 1
    outer loop
      vertex 21 1 0.8
      vertex 19 1 0.8
      vertex 0 0 0.8
    endloop
  endfacet
  facet normal 0 0 1
    outer loop
      vertex 19 2 0.8
      vertex 18 3 0.8
      vertex 18 1 0.8
    endloop
  endfacet
  facet normal 0 -0 1
    outer loop
      vertex 21 2 0.8
      vertex 22 3 0.8
      vertex 18 3 0.8
    endloop
  endfacet
  facet normal 0 0 1
    outer loop
      vertex 21 1 0.8
      vertex 22 1 0.8
      vertex 21 2 0.8
    endloop
  endfacet
  facet normal 0 0 1
    outer loop
      vertex 5 1 0.8
      vertex 4 1 0.8
      vertex 0 0 0.8
    endloop
  endfacet
  facet normal 0 -0 1
    outer loop
      vertex 5 1 0.8
      vertex 5 2 0.8
      vertex 4 2 0.8
    endloop
  endfacet
  facet normal 0 0 1
    outer loop
      vertex 4 1 0.8
      vertex 1 1 0.8
      vertex 0 0 0.8
    endloop
  endfacet
  facet normal 0 -0 1
    outer loop
      vertex 1 2 0.8
      vertex 1 3 0.8
      vertex 0 0 0.8
    endloop
  endfacet
  facet normal 0 0 1
    outer loop
      vertex 4 3 0.8
      vertex 4 2 0.8
      vertex 5 2 0.8
    endloop
  endfacet
  facet normal 0 0 1
    outer loop
      vertex 4 3 0.8
      vertex 1 3 0.8
      vertex 4 2 0.8
    endloop
  endfacet
  facet normal 0 0 1
    outer loop
      vertex 39 3 0.8
      vertex 39 2 0.8
      vertex 40 0 0.8
    endloop
  endfacet
  facet normal 0 0 1
    outer loop
      vertex 39 2 0.8
      vertex 36 3 0.8
      vertex 36 2 0.8
    endloop
  endfacet
  facet normal 0 0 1
    outer loop
      vertex 39 1 0.8
      vertex 36 1 0.8
      vertex 40 0 0.8
    endloop
  endfacet
  facet normal 0 -0 1
    outer loop
      vertex 39 2 0.8
      vertex 39 3 0.8
      vertex 36 3 0.8
    endloop
  endfacet
  facet normal 0 0 1
    outer loop
      vertex 36 3 0.8
      vertex 35 2 0.8
      vertex 36 2 0.8
    endloop
  endfacet
  facet normal -0 0 1
    outer loop
      vertex 39 1 0.8
      vertex 40 0 0.8
      vertex 39 2 0.8
    endloop
  endfacet
  facet normal 0 -1 0
    outer loop
      vertex 19.2002 32 0
      vertex 3.7998 32 0.8
      vertex 3.7998 32 0
    endloop
  endfacet
  facet normal 0 -1 0
    outer loop
      vertex 19.2002 32 0
      vertex 19.2002 32 0.8
      vertex 3.7998 32 0.8
    endloop
  endfacet
  facet normal -0.992335 -0.123577 0
    outer loop
      vertex 19.2998 31.2002 0
      vertex 19.2002 32 0.8
      vertex 19.2002 32 0
    endloop
  endfacet
  facet normal -0.992335 -0.123577 0
    outer loop
      vertex 19.2998 31.2002 0
      vertex 19.2998 31.2002 0.8
      vertex 19.2002 32 0.8
    endloop
  endfacet
  facet normal 0 -1 0
    outer loop
      vertex 20.7002 31.2002 0
      vertex 19.2998 31.2002 0.8
      vertex 19.2998 31.2002 0
    endloop
  endfacet
  facet normal 0 -1 0
    outer loop
      vertex 20.7002 31.2002 0
      vertex 20.7002 31.2002 0.8
      vertex 19.2998 31.2002 0.8
    endloop
  endfacet
  facet normal 0.992335 -0.123577 0
    outer loop
      vertex 20.7998 32 0
      vertex 20.7002 31.2002 0.8
      vertex 20.7002 31.2002 0
    endloop
  endfacet
  facet normal 0.992335 -0.123577 0
    outer loop
      vertex 20.7998 32 0
      vertex 20.7998 32 0.8
      vertex 20.7002 31.2002 0.8
    endloop
  endfacet
  facet normal 0 -1 0
    outer loop
      vertex 36.2002 32 0
      vertex 20.7998 32 0.8
      vertex 20.7998 32 0
    endloop
  endfacet
  facet normal 0 -1 0
    outer loop
      vertex 36.2002 32 0
      vertex 36.2002 32 0.8
      vertex 20.7998 32 0.8
    endloop
  endfacet
  facet normal -0.992335 -0.123577 0
    outer loop
      vertex 36.2998 31.2002 0
      vertex 36.2002 32 0.8
      vertex 36.2002 32 0
    endloop
  endfacet
  facet normal -0.992335 -0.123577 0
    outer loop
      vertex 36.2998 31.2002 0
      vertex 36.2998 31.2002 0.8
      vertex 36.2002 32 0.8
    endloop
  endfacet
  facet normal 0 -1 0
    outer loop
      vertex 38.7002 31.2002 0
      vertex 36.2998 31.2002 0.8
      vertex 36.2998 31.2002 0
    endloop
  endfacet
  facet normal 0 -1 0
    outer loop
      vertex 38.7002 31.2002 0
      vertex 38.7002 31.2002 0.8
      vertex 36.2998 31.2002 0.8
    endloop
  endfacet
  facet normal 0.992335 -0.123577 0
    outer loop
      vertex 38.7998 32 0
      vertex 38.7002 31.2002 0.8
      vertex 38.7002 31.2002 0
    endloop
  endfacet
  facet normal 0.992335 -0.123577 0
    outer loop
      vertex 38.7998 32 0
      vertex 38.7998 32 0.8
      vertex 38.7002 31.2002 0.8
    endloop
  endfacet
  facet normal 0 -1 0
    outer loop
      vertex 40 32 0
      vertex 38.7998 32 0.8
      vertex 38.7998 32 0
    endloop
  endfacet
  facet normal 0 -1 0
    outer loop
      vertex 40 32 0
      vertex 40 32 0.8
      vertex 38.7998 32 0.8
    endloop
  endfacet
  facet normal 1 0 0
    outer loop
      vertex 40 48 0
      vertex 40 32 0.8
      vertex 40 32 0
    endloop
  endfacet
  facet normal 1 0 -0
    outer loop
      vertex 40 48 0
      vertex 40 48 0.8
      vertex 40 32 0.8
    endloop
  endfacet
  facet normal 0 1 0
    outer loop
      vertex 38.7998 48 0
      vertex 40 48 0.8
      vertex 40 48 0
    endloop
  endfacet
  facet normal 0 1 0
    outer loop
      vertex 38.7998 48 0
      vertex 38.7998 48 0.8
      vertex 40 48 0.8
    endloop
  endfacet
  facet normal 0.992335 0.123577 0
    outer loop
      vertex 38.7002 48.7998 0
      vertex 38.7998 48 0.8
      vertex 38.7998 48 0
    endloop
  endfacet
  facet normal 0.992335 0.123577 -0
    outer loop
      vertex 38.7002 48.7998 0
      vertex 38.7002 48.7998 0.8
      vertex 38.7998 48 0.8
    endloop
  endfacet
  facet normal 0 1 0
    outer loop
      vertex 36.2998 48.7998 0
      vertex 38.7002 48.7998 0.8
      vertex 38.7002 48.7998 0
    endloop
  endfacet
  facet normal 0 1 0
    outer loop
      vertex 36.2998 48.7998 0
      vertex 36.2998 48.7998 0.8
      vertex 38.7002 48.7998 0.8
    endloop
  endfacet
  facet normal -0.992335 0.123577 0
    outer loop
      vertex 36.2002 48 0
      vertex 36.2998 48.7998 0.8
      vertex 36.2998 48.7998 0
    endloop
  endfacet
  facet normal -0.992335 0.123577 0
    outer loop
      vertex 36.2002 48 0
      vertex 36.2002 48 0.8
      vertex 36.2998 48.7998 0.8
    endloop
  endfacet
  facet normal 0 1 0
    outer loop
      vertex 20.7998 48 0
      vertex 36.2002 48 0.8
      vertex 36.2002 48 0
    endloop
  endfacet
  facet normal 0 1 0
    outer loop
      vertex 20.7998 48 0
      vertex 20.7998 48 0.8
      vertex 36.2002 48 0.8
    endloop
  endfacet
  facet normal 0.992335 0.123577 0
    outer loop
      vertex 20.7002 48.7998 0
      vertex 20.7998 48 0.8
      vertex 20.7998 48 0
    endloop
  endfacet
  facet normal 0.992335 0.123577 -0
    outer loop
      vertex 20.7002 48.7998 0
      vertex 20.7002 48.7998 0.8
      vertex 20.7998 48 0.8
    endloop
  endfacet
  facet normal 0 1 0
    outer loop
      vertex 19.2998 48.7998 0
      vertex 20.7002 48.7998 0.8
      vertex 20.7002 48.7998 0
    endloop
  endfacet
  facet normal 0 1 0
    outer loop
      vertex 19.2998 48.7998 0
      vertex 19.2998 48.7998 0.8
      vertex 20.7002 48.7998 0.8
    endloop
  endfacet
  facet normal -0.992335 0.123577 0
    outer loop
      vertex 19.2002 48 0
      vertex 19.2998 48.7998 0.8
      vertex 19.2998 48.7998 0
    endloop
  endfacet
  facet normal -0.992335 0.123577 0
    outer loop
      vertex 19.2002 48 0
      vertex 19.2002 48 0.8
      vertex 19.2998 48.7998 0.8
    endloop
  endfacet
  facet normal 0 1 0
    outer loop
      vertex 3.7998 48 0
      vertex 19.2002 48 0.8
      vertex 19.2002 48 0
    endloop
  endfacet
  facet normal 0 1 0
    outer loop
      vertex 3.7998 48 0
      vertex 3.7998 48 0.8
      vertex 19.2002 48 0.8
    endloop
  endfacet
  facet normal 0.992335 0.123577 0
    outer loop
      vertex 3.7002 48.7998 0
      vertex 3.7998 48 0.8
      vertex 3.7998 48 0
    endloop
  endfacet
  facet normal 0.992335 0.123577 -0
    outer loop
      vertex 3.7002 48.7998 0
      vertex 3.7002 48.7998 0.8
      vertex 3.7998 48 0.8
    endloop
  endfacet
  facet normal 0 1 0
    outer loop
      vertex 1.2998 48.7998 0
      vertex 3.7002 48.7998 0.8
      vertex 3.7002 48.7998 0
    endloop
  endfacet
  facet normal 0 1 0
    outer loop
      vertex 1.2998 48.7998 0
      vertex 1.2998 48.7998 0.8
      vertex 3.7002 48.7998 0.8
    endloop
  endfacet
  facet normal -0.992335 0.123577 0
    outer loop
      vertex 1.2002 48 0
      vertex 1.2998 48.7998 0.8
      vertex 1.2998 48.7998 0
    endloop
  endfacet
  facet normal -0.992335 0.123577 0
    outer loop
      vertex 1.2002 48 0
      vertex 1.2002 48 0.8
      vertex 1.2998 48.7998 0.8
    endloop
  endfacet
  facet normal 0 1 0
    outer loop
      vertex 0 48 0
      vertex 1.2002 48 0.8
      vertex 1.2002 48 0
    endloop
  endfacet
  facet normal 0 1 0
    outer loop
      vertex 0 48 0
      vertex 0 48 0.8
      vertex 1.2002 48 0.8
    endloop
  endfacet
  facet normal -1 0 0
    outer loop
      vertex 0 32 0
      vertex 0 48 0.8
      vertex 0 48 0
    endloop
  endfacet
  facet normal -1 0 0
    outer loop
      vertex 0 32 0
      vertex 0 32 0.8
      vertex 0 48 0.8
    endloop
  endfacet
  facet normal 0 -1 0
    outer loop
      vertex 1.2002 32 0
      vertex 0 32 0.8
      vertex 0 32 0
    endloop
  endfacet
  facet normal 0 -1 0
    outer loop
      vertex 1.2002 32 0
      vertex 1.2002 32 0.8
      vertex 0 32 0.8
    endloop
  endfacet
  facet normal -0.992335 -0.123577 0
    outer loop
      vertex 1.2998 31.2002 0
      vertex 1.2002 32 0.8
      vertex 1.2002 32 0
    endloop
  endfacet
  facet normal -0.992335 -0.123577 0
    outer loop
      vertex 1.2998 31.2002 0
      vertex 1.2998 31.2002 0.8
      vertex 1.2002 32 0.8
    endloop
  endfacet
  facet normal 0 -1 0
    outer loop
      vertex 3.7002 31.2002 0
      vertex 1.2998 31.2002 0.8
      vertex 1.2998 31.2002 0
    endloop
  endfacet
  facet normal 0 -1 0
    outer loop
      vertex 3.7002 31.2002 0
      vertex 3.7002 31.2002 0.8
      vertex 1.2998 31.2002 0.8
    endloop
  endfacet
  facet normal 0.992335 -0.123577 0
    outer loop
      vertex 3.7998 32 0
      vertex 3.7002 31.2002 0.8
      vertex 3.7002 31.2002 0
    endloop
  endfacet
  facet normal 0.992335 -0.123577 0
    outer loop
      vertex 3.7998 32 0
      vertex 3.7998 32 0.8
      vertex 3.7002 31.2002 0.8
    endloop
  endfacet
  facet normal 0 -1 0
    outer loop
      vertex 38 47 0
      vertex 38 47 0.8
      vertex 21 47 0
    endloop
  endfacet
  facet normal 0 -1 0
    outer loop
      vertex 21 47 0.8
      vertex 21 47 0
      vertex 38 47 0.8
    endloop
  endfacet
  facet normal -0.331501 0.943455 0
    outer loop
      vertex 20.5625 40.873 0
      vertex 20.5625 40.873 0.8
      vertex 38 47 0
    endloop
  endfacet
  facet normal -0.331501 0.943455 0
    outer loop
      vertex 38 47 0.8
      vertex 38 47 0
      vertex 20.5625 40.873 0.8
    endloop
  endfacet
  facet normal 0.99746 -0.0712239 0
    outer loop
      vertex 21 47 0
      vertex 21 47 0.8
      vertex 20.5625 40.873 0
    endloop
  endfacet
  facet normal 0.99746 -0.0712239 0
    outer loop
      vertex 20.5625 40.873 0.8
      vertex 20.5625 40.873 0
      vertex 21 47 0.8
    endloop
  endfacet
  facet normal 0 -1 0
    outer loop
      vertex 19 47 0
      vertex 19 47 0.8
      vertex 2 47 0
    endloop
  endfacet
  facet normal 0 -1 0
    outer loop
      vertex 2 47 0.8
      vertex 2 47 0
      vertex 19 47 0.8
    endloop
  endfacet
  facet normal -0.99746 -0.0712239 0
    outer loop
      vertex 19.4375 40.873 0
      vertex 19.4375 40.873 0.8
      vertex 19 47 0
    endloop
  endfacet
  facet normal -0.99746 -0.0712239 -0
    outer loop
      vertex 19 47 0.8
      vertex 19 47 0
      vertex 19.4375 40.873 0.8
    endloop
  endfacet
  facet normal 0.331501 0.943455 -0
    outer loop
      vertex 2 47 0
      vertex 2 47 0.8
      vertex 19.4375 40.873 0
    endloop
  endfacet
  facet normal 0.331501 0.943455 0
    outer loop
      vertex 19.4375 40.873 0.8
      vertex 19.4375 40.873 0
      vertex 2 47 0.8
    endloop
  endfacet
  facet normal 0.331483 -0.943461 0
    outer loop
      vertex 39 46 0
      vertex 39 46 0.8
      vertex 21.9229 40 0
    endloop
  endfacet
  facet normal 0.331483 -0.943461 0
    outer loop
      vertex 21.9229 40 0.8
      vertex 21.9229 40 0
      vertex 39 46 0.8
    endloop
  endfacet
  facet normal -1 0 0
    outer loop
      vertex 39 34 0
      vertex 39 34 0.8
      vertex 39 46 0
    endloop
  endfacet
  facet normal -1 -0 -0
    outer loop
      vertex 39 46 0.8
      vertex 39 46 0
      vertex 39 34 0.8
    endloop
  endfacet
  facet normal 0.331483 0.943461 -0
    outer loop
      vertex 21.9229 40 0
      vertex 21.9229 40 0.8
      vertex 39 34 0
    endloop
  endfacet
  facet normal 0.331483 0.943461 0
    outer loop
      vertex 39 34 0.8
      vertex 39 34 0
      vertex 21.9229 40 0.8
    endloop
  endfacet
  facet normal -0.331483 -0.943461 0
    outer loop
      vertex 18.0771 40 0
      vertex 18.0771 40 0.8
      vertex 1 46 0
    endloop
  endfacet
  facet normal -0.331483 -0.943461 -0
    outer loop
      vertex 1 46 0.8
      vertex 1 46 0
      vertex 18.0771 40 0.8
    endloop
  endfacet
  facet normal -0.331483 0.943461 0
    outer loop
      vertex 1 34 0
      vertex 1 34 0.8
      vertex 18.0771 40 0
    endloop
  endfacet
  facet normal -0.331483 0.943461 0
    outer loop
      vertex 18.0771 40 0.8
      vertex 18.0771 40 0
      vertex 1 34 0.8
    endloop
  endfacet
  facet normal 1 0 -0
    outer loop
      vertex 1 46 0
      vertex 1 46 0.8
      vertex 1 34 0
    endloop
  endfacet
  facet normal 1 -0 0
    outer loop
      vertex 1 34 0.8
      vertex 1 34 0
      vertex 1 46 0.8
    endloop
  endfacet
  facet normal 0.331501 -0.943455 0
    outer loop
      vertex 19.4375 39.127 0
      vertex 19.4375 39.127 0.8
      vertex 2 33 0
    endloop
  endfacet
  facet normal 0.331501 -0.943455 0
    outer loop
      vertex 2 33 0.8
      vertex 2 33 0
      vertex 19.4375 39.127 0.8
    endloop
  endfacet
  facet normal -0.99746 0.0712239 0
    outer loop
      vertex 19 33 0
      vertex 19 33 0.8
      vertex 19.4375 39.127 0
    endloop
  endfacet
  facet normal -0.99746 0.0712239 0
    outer loop
      vertex 19.4375 39.127 0.8
      vertex 19.4375 39.127 0
      vertex 19 33 0.8
    endloop
  endfacet
  facet normal 0 1 0
    outer loop
      vertex 2 33 0
      vertex 2 33 0.8
      vertex 19 33 0
    endloop
  endfacet
  facet normal 0 1 0
    outer loop
      vertex 19 33 0.8
      vertex 19 33 0
      vertex 2 33 0.8
    endloop
  endfacet
  facet normal 0.99746 0.0712239 -0
    outer loop
      vertex 20.5625 39.127 0
      vertex 20.5625 39.127 0.8
      vertex 21 33 0
    endloop
  endfacet
  facet normal 0.99746 0.0712239 0
    outer loop
      vertex 21 33 0.8
      vertex 21 33 0
      vertex 20.5625 39.127 0.8
    endloop
  endfacet
  facet normal -0.331501 -0.943455 0
    outer loop
      vertex 38 33 0
      vertex 38 33 0.8
      vertex 20.5625 39.127 0
    endloop
  endfacet
  facet normal -0.331501 -0.943455 -0
    outer loop
      vertex 20.5625 39.127 0.8
      vertex 20.5625 39.127 0
      vertex 38 33 0.8
    endloop
  endfacet
  facet normal 0 1 0
    outer loop
      vertex 21 33 0
      vertex 21 33 0.8
      vertex 38 33 0
    endloop
  endfacet
  facet normal 0 1 0
    outer loop
      vertex 38 33 0.8
      vertex 38 33 0
      vertex 21 33 0.8
    endloop
  endfacet
  facet normal 0 1 0
    outer loop
      vertex 0 30 0
      vertex 40 30 0.8
      vertex 40 30 0
    endloop
  endfacet
  facet normal 0 1 0
    outer loop
      vertex 0 30 0
      vertex 0 30 0.8
      vertex 40 30 0.8
    endloop
  endfacet
  facet normal -1 0 0
    outer loop
      vertex 0 0 0
      vertex 0 30 0.8
      vertex 0 30 0
    endloop
  endfacet
  facet normal -1 0 0
    outer loop
      vertex 0 0 0
      vertex 0 0 0.8
      vertex 0 30 0.8
    endloop
  endfacet
  facet normal 0 -1 0
    outer loop
      vertex 40 0 0
      vertex 0 0 0.8
      vertex 0 0 0
    endloop
  endfacet
  facet normal 0 -1 0
    outer loop
      vertex 40 0 0
      vertex 40 0 0.8
      vertex 0 0 0.8
    endloop
  endfacet
  facet normal 1 0 0
    outer loop
      vertex 40 30 0
      vertex 40 0 0.8
      vertex 40 0 0
    endloop
  endfacet
  facet normal 1 0 -0
    outer loop
      vertex 40 30 0
      vertex 40 30 0.8
      vertex 40 0 0.8
    endloop
  endfacet
  facet normal 1 0 -0
    outer loop
      vertex 1 29 0
      vertex 1 29 0.8
      vertex 1 28 0
    endloop
  endfacet
  facet normal 1 -0 0
    outer loop
      vertex 1 28 0.8
      vertex 1 28 0
      vertex 1 29 0.8
    endloop
  endfacet
  facet normal 0 -1 0
    outer loop
      vertex 4 29 0
      vertex 4 29 0.8
      vertex 1 29 0
    endloop
  endfacet
  facet normal 0 -1 0
    outer loop
      vertex 1 29 0.8
      vertex 1 29 0
      vertex 4 29 0.8
    endloop
  endfacet
  facet normal -1 0 0
    outer loop
      vertex 4 28 0
      vertex 4 28 0.8
      vertex 4 29 0
    endloop
  endfacet
  facet normal -1 -0 -0
    outer loop
      vertex 4 29 0.8
      vertex 4 29 0
      vertex 4 28 0.8
    endloop
  endfacet
  facet normal 0 1 0
    outer loop
      vertex 1 28 0
      vertex 1 28 0.8
      vertex 4 28 0
    endloop
  endfacet
  facet normal 0 1 0
    outer loop
      vertex 4 28 0.8
      vertex 4 28 0
      vertex 1 28 0.8
    endloop
  endfacet
  facet normal 1 0 -0
    outer loop
      vertex 5 29 0
      vertex 5 29 0.8
      vertex 5 28 0
    endloop
  endfacet
  facet normal 1 -0 0
    outer loop
      vertex 5 28 0.8
      vertex 5 28 0
      vertex 5 29 0.8
    endloop
  endfacet
  facet normal 0 -1 0
    outer loop
      vertex 18 29 0
      vertex 18 29 0.8
      vertex 5 29 0
    endloop
  endfacet
  facet normal 0 -1 0
    outer loop
      vertex 5 29 0.8
      vertex 5 29 0
      vertex 18 29 0.8
    endloop
  endfacet
  facet normal -1 0 0
    outer loop
      vertex 18 27 0
      vertex 18 27 0.8
      vertex 18 29 0
    endloop
  endfacet
  facet normal -1 -0 -0
    outer loop
      vertex 18 29 0.8
      vertex 18 29 0
      vertex 18 27 0.8
    endloop
  endfacet
  facet normal 0 -1 0
    outer loop
      vertex 22 27 0
      vertex 22 27 0.8
      vertex 18 27 0
    endloop
  endfacet
  facet normal 0 -1 0
    outer loop
      vertex 18 27 0.8
      vertex 18 27 0
      vertex 22 27 0.8
    endloop
  endfacet
  facet normal 1 0 -0
    outer loop
      vertex 22 29 0
      vertex 22 29 0.8
      vertex 22 27 0
    endloop
  endfacet
  facet normal 1 -0 0
    outer loop
      vertex 22 27 0.8
      vertex 22 27 0
      vertex 22 29 0.8
    endloop
  endfacet
  facet normal 0 -1 0
    outer loop
      vertex 35 29 0
      vertex 35 29 0.8
      vertex 22 29 0
    endloop
  endfacet
  facet normal 0 -1 0
    outer loop
      vertex 22 29 0.8
      vertex 22 29 0
      vertex 35 29 0.8
    endloop
  endfacet
  facet normal -1 0 0
    outer loop
      vertex 35 28 0
      vertex 35 28 0.8
      vertex 35 29 0
    endloop
  endfacet
  facet normal -1 -0 -0
    outer loop
      vertex 35 29 0.8
      vertex 35 29 0
      vertex 35 28 0.8
    endloop
  endfacet
  facet normal -0.62775 0.778415 0
    outer loop
      vertex 20 15.9033 0
      vertex 20 15.9033 0.8
      vertex 35 28 0
    endloop
  endfacet
  facet normal -0.62775 0.778415 0
    outer loop
      vertex 35 28 0.8
      vertex 35 28 0
      vertex 20 15.9033 0.8
    endloop
  endfacet
  facet normal 0.62775 0.778415 -0
    outer loop
      vertex 5 28 0
      vertex 5 28 0.8
      vertex 20 15.9033 0
    endloop
  endfacet
  facet normal 0.62775 0.778415 0
    outer loop
      vertex 20 15.9033 0.8
      vertex 20 15.9033 0
      vertex 5 28 0.8
    endloop
  endfacet
  facet normal 1 0 -0
    outer loop
      vertex 19 29 0
      vertex 19 29 0.8
      vertex 19 28 0
    endloop
  endfacet
  facet normal 1 -0 0
    outer loop
      vertex 19 28 0.8
      vertex 19 28 0
      vertex 19 29 0.8
    endloop
  endfacet
  facet normal 0 -1 0
    outer loop
      vertex 21 29 0
      vertex 21 29 0.8
      vertex 19 29 0
    endloop
  endfacet
  facet normal 0 -1 0
    outer loop
      vertex 19 29 0.8
      vertex 19 29 0
      vertex 21 29 0.8
    endloop
  endfacet
  facet normal -1 0 0
    outer loop
      vertex 21 28 0
      vertex 21 28 0.8
      vertex 21 29 0
    endloop
  endfacet
  facet normal -1 -0 -0
    outer loop
      vertex 21 29 0.8
      vertex 21 29 0
      vertex 21 28 0.8
    endloop
  endfacet
  facet normal 0 1 0
    outer loop
      vertex 19 28 0
      vertex 19 28 0.8
      vertex 21 28 0
    endloop
  endfacet
  facet normal 0 1 0
    outer loop
      vertex 21 28 0.8
      vertex 21 28 0
      vertex 19 28 0.8
    endloop
  endfacet
  facet normal 1 0 -0
    outer loop
      vertex 36 29 0
      vertex 36 29 0.8
      vertex 36 28 0
    endloop
  endfacet
  facet normal 1 -0 0
    outer loop
      vertex 36 28 0.8
      vertex 36 28 0
      vertex 36 29 0.8
    endloop
  endfacet
  facet normal 0 -1 0
    outer loop
      vertex 39 29 0
      vertex 39 29 0.8
      vertex 36 29 0
    endloop
  endfacet
  facet normal 0 -1 0
    outer loop
      vertex 36 29 0.8
      vertex 36 29 0
      vertex 39 29 0.8
    endloop
  endfacet
  facet normal -1 0 0
    outer loop
      vertex 39 28 0
      vertex 39 28 0.8
      vertex 39 29 0
    endloop
  endfacet
  facet normal -1 -0 -0
    outer loop
      vertex 39 29 0.8
      vertex 39 29 0
      vertex 39 28 0.8
    endloop
  endfacet
  facet normal 0 1 0
    outer loop
      vertex 36 28 0
      vertex 36 28 0.8
      vertex 39 28 0
    endloop
  endfacet
  facet normal 0 1 0
    outer loop
      vertex 39 28 0.8
      vertex 39 28 0
      vertex 36 28 0.8
    endloop
  endfacet
  facet normal 1 0 -0
    outer loop
      vertex 1 27 0
      vertex 1 27 0.8
      vertex 1 3 0
    endloop
  endfacet
  facet normal 1 -0 0
    outer loop
      vertex 1 3 0.8
      vertex 1 3 0
      vertex 1 27 0.8
    endloop
  endfacet
  facet normal 0 -1 0
    outer loop
      vertex 4 27 0
      vertex 4 27 0.8
      vertex 1 27 0
    endloop
  endfacet
  facet normal 0 -1 0
    outer loop
      vertex 1 27 0.8
      vertex 1 27 0
      vertex 4 27 0.8
    endloop
  endfacet
  facet normal -0.627755 -0.778411 0
    outer loop
      vertex 18.8799 15 0
      vertex 18.8799 15 0.8
      vertex 4 27 0
    endloop
  endfacet
  facet normal -0.627755 -0.778411 -0
    outer loop
      vertex 4 27 0.8
      vertex 4 27 0
      vertex 18.8799 15 0.8
    endloop
  endfacet
  facet normal -0.627755 0.778411 0
    outer loop
      vertex 4 3 0
      vertex 4 3 0.8
      vertex 18.8799 15 0
    endloop
  endfacet
  facet normal -0.627755 0.778411 0
    outer loop
      vertex 18.8799 15 0.8
      vertex 18.8799 15 0
      vertex 4 3 0.8
    endloop
  endfacet
  facet normal 0 1 0
    outer loop
      vertex 1 3 0
      vertex 1 3 0.8
      vertex 4 3 0
    endloop
  endfacet
  facet normal 0 1 0
    outer loop
      vertex 4 3 0.8
      vertex 4 3 0
      vertex 1 3 0.8
    endloop
  endfacet
  facet normal 0.627755 0.778411 -0
    outer loop
      vertex 21.1201 15 0
      vertex 21.1201 15 0.8
      vertex 36 3 0
    endloop
  endfacet
  facet normal 0.627755 0.778411 0
    outer loop
      vertex 36 3 0.8
      vertex 36 3 0
      vertex 21.1201 15 0.8
    endloop
  endfacet
  facet normal 0.627755 -0.778411 0
    outer loop
      vertex 36 27 0
      vertex 36 27 0.8
      vertex 21.1201 15 0
    endloop
  endfacet
  facet normal 0.627755 -0.778411 0
    outer loop
      vertex 21.1201 15 0.8
      vertex 21.1201 15 0
      vertex 36 27 0.8
    endloop
  endfacet
  facet normal 0 -1 0
    outer loop
      vertex 39 27 0
      vertex 39 27 0.8
      vertex 36 27 0
    endloop
  endfacet
  facet normal 0 -1 0
    outer loop
      vertex 36 27 0.8
      vertex 36 27 0
      vertex 39 27 0.8
    endloop
  endfacet
  facet normal -1 0 0
    outer loop
      vertex 39 3 0
      vertex 39 3 0.8
      vertex 39 27 0
    endloop
  endfacet
  facet normal -1 -0 -0
    outer loop
      vertex 39 27 0.8
      vertex 39 27 0
      vertex 39 3 0.8
    endloop
  endfacet
  facet normal 0 1 0
    outer loop
      vertex 36 3 0
      vertex 36 3 0.8
      vertex 39 3 0
    endloop
  endfacet
  facet normal 0 1 0
    outer loop
      vertex 39 3 0.8
      vertex 39 3 0
      vertex 36 3 0.8
    endloop
  endfacet
  facet normal 1 0 -0
    outer loop
      vertex 5 2 0
      vertex 5 2 0.8
      vertex 5 1 0
    endloop
  endfacet
  facet normal 1 -0 0
    outer loop
      vertex 5 1 0.8
      vertex 5 1 0
      vertex 5 2 0.8
    endloop
  endfacet
  facet normal 0.62775 -0.778415 0
    outer loop
      vertex 20 14.0967 0
      vertex 20 14.0967 0.8
      vertex 5 2 0
    endloop
  endfacet
  facet normal 0.62775 -0.778415 0
    outer loop
      vertex 5 2 0.8
      vertex 5 2 0
      vertex 20 14.0967 0.8
    endloop
  endfacet
  facet normal -0.62775 -0.778415 0
    outer loop
      vertex 35 2 0
      vertex 35 2 0.8
      vertex 20 14.0967 0
    endloop
  endfacet
  facet normal -0.62775 -0.778415 -0
    outer loop
      vertex 20 14.0967 0.8
      vertex 20 14.0967 0
      vertex 35 2 0.8
    endloop
  endfacet
  facet normal -1 0 0
    outer loop
      vertex 35 1 0
      vertex 35 1 0.8
      vertex 35 2 0
    endloop
  endfacet
  facet normal -1 -0 -0
    outer loop
      vertex 35 2 0.8
      vertex 35 2 0
      vertex 35 1 0.8
    endloop
  endfacet
  facet normal 0 1 0
    outer loop
      vertex 22 1 0
      vertex 22 1 0.8
      vertex 35 1 0
    endloop
  endfacet
  facet normal 0 1 0
    outer loop
      vertex 35 1 0.8
      vertex 35 1 0
      vertex 22 1 0.8
    endloop
  endfacet
  facet normal 1 0 -0
    outer loop
      vertex 22 3 0
      vertex 22 3 0.8
      vertex 22 1 0
    endloop
  endfacet
  facet normal 1 -0 0
    outer loop
      vertex 22 1 0.8
      vertex 22 1 0
      vertex 22 3 0.8
    endloop
  endfacet
  facet normal 0 1 0
    outer loop
      vertex 18 3 0
      vertex 18 3 0.8
      vertex 22 3 0
    endloop
  endfacet
  facet normal 0 1 0
    outer loop
      vertex 22 3 0.8
      vertex 22 3 0
      vertex 18 3 0.8
    endloop
  endfacet
  facet normal -1 0 0
    outer loop
      vertex 18 1 0
      vertex 18 1 0.8
      vertex 18 3 0
    endloop
  endfacet
  facet normal -1 -0 -0
    outer loop
      vertex 18 3 0.8
      vertex 18 3 0
      vertex 18 1 0.8
    endloop
  endfacet
  facet normal 0 1 0
    outer loop
      vertex 5 1 0
      vertex 5 1 0.8
      vertex 18 1 0
    endloop
  endfacet
  facet normal 0 1 0
    outer loop
      vertex 18 1 0.8
      vertex 18 1 0
      vertex 5 1 0.8
    endloop
  endfacet
  facet normal 1 0 -0
    outer loop
      vertex 19 2 0
      vertex 19 2 0.8
      vertex 19 1 0
    endloop
  endfacet
  facet normal 1 -0 0
    outer loop
      vertex 19 1 0.8
      vertex 19 1 0
      vertex 19 2 0.8
    endloop
  endfacet
  facet normal 0 -1 0
    outer loop
      vertex 21 2 0
      vertex 21 2 0.8
      vertex 19 2 0
    endloop
  endfacet
  facet normal 0 -1 0
    outer loop
      vertex 19 2 0.8
      vertex 19 2 0
      vertex 21 2 0.8
    endloop
  endfacet
  facet normal -1 0 0
    outer loop
      vertex 21 1 0
      vertex 21 1 0.8
      vertex 21 2 0
    endloop
  endfacet
  facet normal -1 -0 -0
    outer loop
      vertex 21 2 0.8
      vertex 21 2 0
      vertex 21 1 0.8
    endloop
  endfacet
  facet normal 0 1 0
    outer loop
      vertex 19 1 0
      vertex 19 1 0.8
      vertex 21 1 0
    endloop
  endfacet
  facet normal 0 1 0
    outer loop
      vertex 21 1 0.8
      vertex 21 1 0
      vertex 19 1 0.8
    endloop
  endfacet
  facet normal 1 0 -0
    outer loop
      vertex 1 2 0
      vertex 1 2 0.8
      vertex 1 1 0
    endloop
  endfacet
  facet normal 1 -0 0
    outer loop
      vertex 1 1 0.8
      vertex 1 1 0
      vertex 1 2 0.8
    endloop
  endfacet
  facet normal 0 -1 0
    outer loop
      vertex 4 2 0
      vertex 4 2 0.8
      vertex 1 2 0
    endloop
  endfacet
  facet normal 0 -1 0
    outer loop
      vertex 1 2 0.8
      vertex 1 2 0
      vertex 4 2 0.8
    endloop
  endfacet
  facet normal -1 0 0
    outer loop
      vertex 4 1 0
      vertex 4 1 0.8
      vertex 4 2 0
    endloop
  endfacet
  facet normal -1 -0 -0
    outer loop
      vertex 4 2 0.8
      vertex 4 2 0
      vertex 4 1 0.8
    endloop
  endfacet
  facet normal 0 1 0
    outer loop
      vertex 1 1 0
      vertex 1 1 0.8
      vertex 4 1 0
    endloop
  endfacet
  facet normal 0 1 0
    outer loop
      vertex 4 1 0.8
      vertex 4 1 0
      vertex 1 1 0.8
    endloop
  endfacet
  facet normal 1 0 -0
    outer loop
      vertex 36 2 0
      vertex 36 2 0.8
      vertex 36 1 0
    endloop
  endfacet
  facet normal 1 -0 0
    outer loop
      vertex 36 1 0.8
      vertex 36 1 0
      vertex 36 2 0.8
    endloop
  endfacet
  facet normal 0 -1 0
    outer loop
      vertex 39 2 0
      vertex 39 2 0.8
      vertex 36 2 0
    endloop
  endfacet
  facet normal 0 -1 0
    outer loop
      vertex 36 2 0.8
      vertex 36 2 0
      vertex 39 2 0.8
    endloop
  endfacet
  facet normal -1 0 0
    outer loop
      vertex 39 1 0
      vertex 39 1 0.8
      vertex 39 2 0
    endloop
  endfacet
  facet normal -1 -0 -0
    outer loop
      vertex 39 2 0.8
      vertex 39 2 0
      vertex 39 1 0.8
    endloop
  endfacet
  facet normal 0 1 0
    outer loop
      vertex 36 1 0
      vertex 36 1 0.8
      vertex 39 1 0
    endloop
  endfacet
  facet normal 0 1 0
    outer loop
      vertex 39 1 0.8
      vertex 39 1 0
      vertex 36 1 0.8
    endloop
  endfacet
endsolid OpenSCAD_Model
