solid OpenSCAD_Model
  facet normal 0 0 -1
    outer loop
      vertex 0 30 0
      vertex 41.7002 29.2002 0
      vertex 38.2998 29.2002 0
    endloop
  endfacet
  facet normal 0 0 -1
    outer loop
      vertex 75.4004 26.5996 0
      vertex 75 27 0
      vertex 75.7998 27.4004 0
    endloop
  endfacet
  facet normal 0 0 -1
    outer loop
      vertex 80 30 0
      vertex 79.2002 27.4004 0
      vertex 79.2002 29.2002 0
    endloop
  endfacet
  facet normal 0 0 -1
    outer loop
      vertex 79.2002 27.4004 0
      vertex 80 30 0
      vertex 80 0 0
    endloop
  endfacet
  facet normal 0 0 -1
    outer loop
      vertex 79.2002 2.59961 0
      vertex 78.7998 3.40039 0
      vertex 78.7998 26.5996 0
    endloop
  endfacet
  facet normal -0 0 -1
    outer loop
      vertex 80 30 0
      vertex 41.7002 29.2002 0
      vertex 0 30 0
    endloop
  endfacet
  facet normal 0 0 -1
    outer loop
      vertex 80 30 0
      vertex 79.2002 29.2002 0
      vertex 75.7998 29.2002 0
    endloop
  endfacet
  facet normal 0 0 -1
    outer loop
      vertex 0 30 0
      vertex 38.2998 29.2002 0
      vertex 4.2002 29.2002 0
    endloop
  endfacet
  facet normal 0 0 -1
    outer loop
      vertex 80 30 0
      vertex 75.7998 29.2002 0
      vertex 41.7002 29.2002 0
    endloop
  endfacet
  facet normal 0 -0 -1
    outer loop
      vertex 38.2998 29.2002 0
      vertex 38.2998 27.4004 0
      vertex 37.5 28.7998 0
    endloop
  endfacet
  facet normal 0 0 -1
    outer loop
      vertex 0 30 0
      vertex 0.799805 2.59961 0
      vertex 0 0 0
    endloop
  endfacet
  facet normal 0 0 -1
    outer loop
      vertex 42.5 27 0
      vertex 58.7852 15.3184 0
      vertex 58.3057 14.9756 0
    endloop
  endfacet
  facet normal 0 0 -1
    outer loop
      vertex 0 30 0
      vertex 0.799805 29.2002 0
      vertex 0.799805 27.4004 0
    endloop
  endfacet
  facet normal 0 0 -1
    outer loop
      vertex 0 30 0
      vertex 4.2002 29.2002 0
      vertex 0.799805 29.2002 0
    endloop
  endfacet
  facet normal 0 0 -1
    outer loop
      vertex 21.6943 14.9756 0
      vertex 21.2148 15.3184 0
      vertex 37.5 27 0
    endloop
  endfacet
  facet normal 0 0 -1
    outer loop
      vertex 75.7998 27.4004 0
      vertex 75 28.7998 0
      vertex 75.7998 29.2002 0
    endloop
  endfacet
  facet normal 0 0 -1
    outer loop
      vertex 38.2998 27.4004 0
      vertex 41.7002 27.4004 0
      vertex 40.2998 26.5996 0
    endloop
  endfacet
  facet normal 0 -0 -1
    outer loop
      vertex 42.5 28.7998 0
      vertex 42.5 27 0
      vertex 41.7002 27.4004 0
    endloop
  endfacet
  facet normal 0 0 -1
    outer loop
      vertex 37.5 27 0
      vertex 38.2998 27.4004 0
      vertex 37.9004 26.5996 0
    endloop
  endfacet
  facet normal 0 0 -1
    outer loop
      vertex 75 28.7998 0
      vertex 42.5 28.7998 0
      vertex 41.7002 29.2002 0
    endloop
  endfacet
  facet normal -0 0 -1
    outer loop
      vertex 42.5 28.7998 0
      vertex 41.7002 27.4004 0
      vertex 41.7002 29.2002 0
    endloop
  endfacet
  facet normal -0 0 -1
    outer loop
      vertex 75.7998 29.2002 0
      vertex 75 28.7998 0
      vertex 41.7002 29.2002 0
    endloop
  endfacet
  facet normal -0 0 -1
    outer loop
      vertex 75.7998 27.4004 0
      vertex 75 27 0
      vertex 75 28.7998 0
    endloop
  endfacet
  facet normal 0 -0 -1
    outer loop
      vertex 5 27 0
      vertex 20.7354 14.9746 0
      vertex 4.59961 26.5996 0
    endloop
  endfacet
  facet normal 0 -0 -1
    outer loop
      vertex 5 28.7998 0
      vertex 5 27 0
      vertex 4.2002 27.4004 0
    endloop
  endfacet
  facet normal 0 0 -1
    outer loop
      vertex 1.2002 26.5996 0
      vertex 0.799805 27.4004 0
      vertex 4.2002 27.4004 0
    endloop
  endfacet
  facet normal 0 0 -1
    outer loop
      vertex 37.5 28.7998 0
      vertex 5 28.7998 0
      vertex 4.2002 29.2002 0
    endloop
  endfacet
  facet normal -0 0 -1
    outer loop
      vertex 5 28.7998 0
      vertex 4.2002 27.4004 0
      vertex 4.2002 29.2002 0
    endloop
  endfacet
  facet normal -0 0 -1
    outer loop
      vertex 38.2998 29.2002 0
      vertex 37.5 28.7998 0
      vertex 4.2002 29.2002 0
    endloop
  endfacet
  facet normal -0 0 -1
    outer loop
      vertex 38.2998 27.4004 0
      vertex 37.5 27 0
      vertex 37.5 28.7998 0
    endloop
  endfacet
  facet normal 0 0 -1
    outer loop
      vertex 79.2002 2.59961 0
      vertex 80 0 0
      vertex 79.2002 0.799805 0
    endloop
  endfacet
  facet normal 0 0 -1
    outer loop
      vertex 0.799805 27.4004 0
      vertex 1.2002 3.40039 0
      vertex 0.799805 2.59961 0
    endloop
  endfacet
  facet normal 0 0 -1
    outer loop
      vertex 4.59961 26.5996 0
      vertex 1.2002 26.5996 0
      vertex 4.2002 27.4004 0
    endloop
  endfacet
  facet normal -0 -0 -1
    outer loop
      vertex 1.2002 26.5996 0
      vertex 1.2002 3.40039 0
      vertex 0.799805 27.4004 0
    endloop
  endfacet
  facet normal -0 0 -1
    outer loop
      vertex 5 27 0
      vertex 4.59961 26.5996 0
      vertex 4.2002 27.4004 0
    endloop
  endfacet
  facet normal -0 0 -1
    outer loop
      vertex 21.2148 15.3184 0
      vertex 20.7354 14.9746 0
      vertex 5 27 0
    endloop
  endfacet
  facet normal 0 0 -1
    outer loop
      vertex 75.7998 2.59961 0
      vertex 78.7998 3.40039 0
      vertex 79.2002 2.59961 0
    endloop
  endfacet
  facet normal 0 -0 -1
    outer loop
      vertex 42.5 27 0
      vertex 58.3057 14.9756 0
      vertex 42.0996 26.5996 0
    endloop
  endfacet
  facet normal 0 0 -1
    outer loop
      vertex 75 3 0
      vertex 75.7998 2.59961 0
      vertex 75 1.2002 0
    endloop
  endfacet
  facet normal 0 0 -1
    outer loop
      vertex 59.2646 14.9746 0
      vertex 58.7852 15.3184 0
      vertex 75 27 0
    endloop
  endfacet
  facet normal 0 0 -1
    outer loop
      vertex 78.7998 26.5996 0
      vertex 75.4004 26.5996 0
      vertex 75.7998 27.4004 0
    endloop
  endfacet
  facet normal -0 0 -1
    outer loop
      vertex 75.4004 26.5996 0
      vertex 59.2646 14.9746 0
      vertex 75 27 0
    endloop
  endfacet
  facet normal -0 0 -1
    outer loop
      vertex 79.2002 27.4004 0
      vertex 78.7998 26.5996 0
      vertex 75.7998 27.4004 0
    endloop
  endfacet
  facet normal 0 0 -1
    outer loop
      vertex 42.5 3 0
      vertex 58.3057 14.9756 0
      vertex 58.7842 14.6318 0
    endloop
  endfacet
  facet normal 0 0 -1
    outer loop
      vertex 80 0 0
      vertex 0 0 0
      vertex 41.7002 0.799805 0
    endloop
  endfacet
  facet normal 0 0 -1
    outer loop
      vertex 37.5 3 0
      vertex 38.2998 2.59961 0
      vertex 37.5 1.2002 0
    endloop
  endfacet
  facet normal 0 0 -1
    outer loop
      vertex 42.0996 26.5996 0
      vertex 40.2998 26.5996 0
      vertex 41.7002 27.4004 0
    endloop
  endfacet
  facet normal 0 0 -1
    outer loop
      vertex 42.0996 26.5996 0
      vertex 41.7002 27.4004 0
      vertex 42.5 27 0
    endloop
  endfacet
  facet normal 0 0 -1
    outer loop
      vertex 42.0996 3.40039 0
      vertex 58.3057 14.9756 0
      vertex 42.5 3 0
    endloop
  endfacet
  facet normal 0 0 -1
    outer loop
      vertex 58.3057 14.9756 0
      vertex 58.7852 15.3184 0
      vertex 58.7842 14.6318 0
    endloop
  endfacet
  facet normal 0 0 -1
    outer loop
      vertex 40.2998 3.40039 0
      vertex 39.7002 26.5996 0
      vertex 40.2998 26.5996 0
    endloop
  endfacet
  facet normal 0 0 -1
    outer loop
      vertex 21.2158 14.6318 0
      vertex 21.6943 14.9756 0
      vertex 37.5 3 0
    endloop
  endfacet
  facet normal -0 0 -1
    outer loop
      vertex 38.2998 0.799805 0
      vertex 0 0 0
      vertex 4.2002 0.799805 0
    endloop
  endfacet
  facet normal 0 -0 -1
    outer loop
      vertex 21.2148 15.3184 0
      vertex 21.2158 14.6318 0
      vertex 20.7354 14.9746 0
    endloop
  endfacet
  facet normal 0 0 -1
    outer loop
      vertex 4.2002 2.59961 0
      vertex 4.59961 3.40039 0
      vertex 5 3 0
    endloop
  endfacet
  facet normal 0 0 -1
    outer loop
      vertex 39.7002 26.5996 0
      vertex 37.9004 26.5996 0
      vertex 38.2998 27.4004 0
    endloop
  endfacet
  facet normal -0 0 -1
    outer loop
      vertex 37.9004 26.5996 0
      vertex 21.6943 14.9756 0
      vertex 37.5 27 0
    endloop
  endfacet
  facet normal 0 0 -1
    outer loop
      vertex 39.7002 3.40039 0
      vertex 39.7002 26.5996 0
      vertex 40.2998 3.40039 0
    endloop
  endfacet
  facet normal 0 0 -1
    outer loop
      vertex 39.7002 26.5996 0
      vertex 38.2998 27.4004 0
      vertex 40.2998 26.5996 0
    endloop
  endfacet
  facet normal 0 0 -1
    outer loop
      vertex 4.2002 0.799805 0
      vertex 37.5 1.2002 0
      vertex 38.2998 0.799805 0
    endloop
  endfacet
  facet normal 0 0 -1
    outer loop
      vertex 37.9004 3.40039 0
      vertex 39.7002 3.40039 0
      vertex 38.2998 2.59961 0
    endloop
  endfacet
  facet normal 0 0 -1
    outer loop
      vertex 0.799805 2.59961 0
      vertex 1.2002 3.40039 0
      vertex 4.2002 2.59961 0
    endloop
  endfacet
  facet normal 0 0 -1
    outer loop
      vertex 5 3 0
      vertex 4.59961 3.40039 0
      vertex 20.7354 14.9746 0
    endloop
  endfacet
  facet normal -0 0 -1
    outer loop
      vertex 21.6943 14.9756 0
      vertex 21.2158 14.6318 0
      vertex 21.2148 15.3184 0
    endloop
  endfacet
  facet normal -0 0 -1
    outer loop
      vertex 21.2158 14.6318 0
      vertex 5 3 0
      vertex 20.7354 14.9746 0
    endloop
  endfacet
  facet normal 0 0 -1
    outer loop
      vertex 37.5 1.2002 0
      vertex 38.2998 2.59961 0
      vertex 38.2998 0.799805 0
    endloop
  endfacet
  facet normal 0 0 -1
    outer loop
      vertex 37.5 3 0
      vertex 21.6943 14.9756 0
      vertex 37.9004 3.40039 0
    endloop
  endfacet
  facet normal 0 0 -1
    outer loop
      vertex 75 3 0
      vertex 58.7842 14.6318 0
      vertex 59.2646 14.9746 0
    endloop
  endfacet
  facet normal 0 0 -1
    outer loop
      vertex 75.7998 0.799805 0
      vertex 41.7002 0.799805 0
      vertex 75 1.2002 0
    endloop
  endfacet
  facet normal 0 0 -1
    outer loop
      vertex 41.7002 0.799805 0
      vertex 42.5 1.2002 0
      vertex 75 1.2002 0
    endloop
  endfacet
  facet normal 0 -0 -1
    outer loop
      vertex 42.0996 3.40039 0
      vertex 42.5 3 0
      vertex 41.7002 2.59961 0
    endloop
  endfacet
  facet normal 0 0 -1
    outer loop
      vertex 58.7842 14.6318 0
      vertex 58.7852 15.3184 0
      vertex 59.2646 14.9746 0
    endloop
  endfacet
  facet normal 0 0 -1
    outer loop
      vertex 75 1.2002 0
      vertex 75.7998 2.59961 0
      vertex 75.7998 0.799805 0
    endloop
  endfacet
  facet normal 0 0 -1
    outer loop
      vertex 75 3 0
      vertex 59.2646 14.9746 0
      vertex 75.4004 3.40039 0
    endloop
  endfacet
  facet normal -0 0 -1
    outer loop
      vertex 37.5 1.2002 0
      vertex 4.2002 0.799805 0
      vertex 5 1.2002 0
    endloop
  endfacet
  facet normal 0 0 -1
    outer loop
      vertex 4.2002 2.59961 0
      vertex 5 3 0
      vertex 5 1.2002 0
    endloop
  endfacet
  facet normal 0 -0 -1
    outer loop
      vertex 0.799805 0.799805 0
      vertex 4.2002 0.799805 0
      vertex 0 0 0
    endloop
  endfacet
  facet normal -0 -0 -1
    outer loop
      vertex 0.799805 27.4004 0
      vertex 0.799805 2.59961 0
      vertex 0 30 0
    endloop
  endfacet
  facet normal 0 -0 -1
    outer loop
      vertex 0.799805 2.59961 0
      vertex 0.799805 0.799805 0
      vertex 0 0 0
    endloop
  endfacet
  facet normal 0 0 -1
    outer loop
      vertex 4.2002 0.799805 0
      vertex 4.2002 2.59961 0
      vertex 5 1.2002 0
    endloop
  endfacet
  facet normal 0 0 -1
    outer loop
      vertex 4.2002 2.59961 0
      vertex 1.2002 3.40039 0
      vertex 4.59961 3.40039 0
    endloop
  endfacet
  facet normal 0 0 -1
    outer loop
      vertex 80 0 0
      vertex 41.7002 0.799805 0
      vertex 75.7998 0.799805 0
    endloop
  endfacet
  facet normal 0 0 -1
    outer loop
      vertex 41.7002 2.59961 0
      vertex 42.5 3 0
      vertex 42.5 1.2002 0
    endloop
  endfacet
  facet normal 0 0 -1
    outer loop
      vertex 0 0 0
      vertex 38.2998 0.799805 0
      vertex 41.7002 0.799805 0
    endloop
  endfacet
  facet normal 0 0 -1
    outer loop
      vertex 80 0 0
      vertex 75.7998 0.799805 0
      vertex 79.2002 0.799805 0
    endloop
  endfacet
  facet normal 0 -0 -1
    outer loop
      vertex 37.9004 3.40039 0
      vertex 38.2998 2.59961 0
      vertex 37.5 3 0
    endloop
  endfacet
  facet normal 0 0 -1
    outer loop
      vertex 41.7002 0.799805 0
      vertex 41.7002 2.59961 0
      vertex 42.5 1.2002 0
    endloop
  endfacet
  facet normal 0 0 -1
    outer loop
      vertex 41.7002 2.59961 0
      vertex 40.2998 3.40039 0
      vertex 42.0996 3.40039 0
    endloop
  endfacet
  facet normal 0 -0 -1
    outer loop
      vertex 39.7002 3.40039 0
      vertex 40.2998 3.40039 0
      vertex 38.2998 2.59961 0
    endloop
  endfacet
  facet normal 0 -0 -1
    outer loop
      vertex 40.2998 3.40039 0
      vertex 41.7002 2.59961 0
      vertex 38.2998 2.59961 0
    endloop
  endfacet
  facet normal -0 0 -1
    outer loop
      vertex 78.7998 3.40039 0
      vertex 75.7998 2.59961 0
      vertex 75.4004 3.40039 0
    endloop
  endfacet
  facet normal 0 0 -1
    outer loop
      vertex 75.7998 2.59961 0
      vertex 75 3 0
      vertex 75.4004 3.40039 0
    endloop
  endfacet
  facet normal 0 0 -1
    outer loop
      vertex 80 0 0
      vertex 79.2002 2.59961 0
      vertex 79.2002 27.4004 0
    endloop
  endfacet
  facet normal 0 0 -1
    outer loop
      vertex 79.2002 2.59961 0
      vertex 78.7998 26.5996 0
      vertex 79.2002 27.4004 0
    endloop
  endfacet
  facet normal 0 -0 1
    outer loop
      vertex 38.2998 29.2002 1.2
      vertex 41.7002 29.2002 1.2
      vertex 0 30 1.2
    endloop
  endfacet
  facet normal 0 0 1
    outer loop
      vertex 75.7998 27.4004 1.2
      vertex 75 27 1.2
      vertex 75.4004 26.5996 1.2
    endloop
  endfacet
  facet normal -0 0 1
    outer loop
      vertex 79.2002 29.2002 1.2
      vertex 79.2002 27.4004 1.2
      vertex 80 30 1.2
    endloop
  endfacet
  facet normal 0 -0 1
    outer loop
      vertex 80 0 1.2
      vertex 80 30 1.2
      vertex 79.2002 27.4004 1.2
    endloop
  endfacet
  facet normal 0 0 1
    outer loop
      vertex 78.7998 26.5996 1.2
      vertex 78.7998 3.40039 1.2
      vertex 79.2002 2.59961 1.2
    endloop
  endfacet
  facet normal -0 0 1
    outer loop
      vertex 0 30 1.2
      vertex 41.7002 29.2002 1.2
      vertex 80 30 1.2
    endloop
  endfacet
  facet normal 0 0 1
    outer loop
      vertex 75.7998 29.2002 1.2
      vertex 79.2002 29.2002 1.2
      vertex 80 30 1.2
    endloop
  endfacet
  facet normal 0 -0 1
    outer loop
      vertex 4.2002 29.2002 1.2
      vertex 38.2998 29.2002 1.2
      vertex 0 30 1.2
    endloop
  endfacet
  facet normal 0 0 1
    outer loop
      vertex 41.7002 29.2002 1.2
      vertex 75.7998 29.2002 1.2
      vertex 80 30 1.2
    endloop
  endfacet
  facet normal -0 0 1
    outer loop
      vertex 37.5 28.7998 1.2
      vertex 38.2998 27.4004 1.2
      vertex 38.2998 29.2002 1.2
    endloop
  endfacet
  facet normal 0 0 1
    outer loop
      vertex 0 0 1.2
      vertex 0.799805 2.59961 1.2
      vertex 0 30 1.2
    endloop
  endfacet
  facet normal 0 -0 1
    outer loop
      vertex 58.3057 14.9756 1.2
      vertex 58.7852 15.3184 1.2
      vertex 42.5 27 1.2
    endloop
  endfacet
  facet normal 0 -0 1
    outer loop
      vertex 0.799805 27.4004 1.2
      vertex 0.799805 29.2002 1.2
      vertex 0 30 1.2
    endloop
  endfacet
  facet normal 0 -0 1
    outer loop
      vertex 0.799805 29.2002 1.2
      vertex 4.2002 29.2002 1.2
      vertex 0 30 1.2
    endloop
  endfacet
  facet normal 0 0 1
    outer loop
      vertex 37.5 27 1.2
      vertex 21.2148 15.3184 1.2
      vertex 21.6943 14.9756 1.2
    endloop
  endfacet
  facet normal 0 0 1
    outer loop
      vertex 75.7998 29.2002 1.2
      vertex 75 28.7998 1.2
      vertex 75.7998 27.4004 1.2
    endloop
  endfacet
  facet normal 0 -0 1
    outer loop
      vertex 40.2998 26.5996 1.2
      vertex 41.7002 27.4004 1.2
      vertex 38.2998 27.4004 1.2
    endloop
  endfacet
  facet normal -0 0 1
    outer loop
      vertex 41.7002 27.4004 1.2
      vertex 42.5 27 1.2
      vertex 42.5 28.7998 1.2
    endloop
  endfacet
  facet normal 0 -0 1
    outer loop
      vertex 37.9004 26.5996 1.2
      vertex 38.2998 27.4004 1.2
      vertex 37.5 27 1.2
    endloop
  endfacet
  facet normal 0 0 1
    outer loop
      vertex 41.7002 29.2002 1.2
      vertex 42.5 28.7998 1.2
      vertex 75 28.7998 1.2
    endloop
  endfacet
  facet normal 0 0 1
    outer loop
      vertex 41.7002 29.2002 1.2
      vertex 41.7002 27.4004 1.2
      vertex 42.5 28.7998 1.2
    endloop
  endfacet
  facet normal -0 0 1
    outer loop
      vertex 41.7002 29.2002 1.2
      vertex 75 28.7998 1.2
      vertex 75.7998 29.2002 1.2
    endloop
  endfacet
  facet normal 0 0 1
    outer loop
      vertex 75 28.7998 1.2
      vertex 75 27 1.2
      vertex 75.7998 27.4004 1.2
    endloop
  endfacet
  facet normal -0 0 1
    outer loop
      vertex 4.59961 26.5996 1.2
      vertex 20.7354 14.9746 1.2
      vertex 5 27 1.2
    endloop
  endfacet
  facet normal -0 0 1
    outer loop
      vertex 4.2002 27.4004 1.2
      vertex 5 27 1.2
      vertex 5 28.7998 1.2
    endloop
  endfacet
  facet normal 0 0 1
    outer loop
      vertex 4.2002 27.4004 1.2
      vertex 0.799805 27.4004 1.2
      vertex 1.2002 26.5996 1.2
    endloop
  endfacet
  facet normal 0 0 1
    outer loop
      vertex 4.2002 29.2002 1.2
      vertex 5 28.7998 1.2
      vertex 37.5 28.7998 1.2
    endloop
  endfacet
  facet normal 0 0 1
    outer loop
      vertex 4.2002 29.2002 1.2
      vertex 4.2002 27.4004 1.2
      vertex 5 28.7998 1.2
    endloop
  endfacet
  facet normal -0 0 1
    outer loop
      vertex 4.2002 29.2002 1.2
      vertex 37.5 28.7998 1.2
      vertex 38.2998 29.2002 1.2
    endloop
  endfacet
  facet normal 0 0 1
    outer loop
      vertex 37.5 28.7998 1.2
      vertex 37.5 27 1.2
      vertex 38.2998 27.4004 1.2
    endloop
  endfacet
  facet normal -0 0 1
    outer loop
      vertex 79.2002 0.799805 1.2
      vertex 80 0 1.2
      vertex 79.2002 2.59961 1.2
    endloop
  endfacet
  facet normal 0 0 1
    outer loop
      vertex 0.799805 2.59961 1.2
      vertex 1.2002 3.40039 1.2
      vertex 0.799805 27.4004 1.2
    endloop
  endfacet
  facet normal 0 0 1
    outer loop
      vertex 4.2002 27.4004 1.2
      vertex 1.2002 26.5996 1.2
      vertex 4.59961 26.5996 1.2
    endloop
  endfacet
  facet normal 0 0 1
    outer loop
      vertex 0.799805 27.4004 1.2
      vertex 1.2002 3.40039 1.2
      vertex 1.2002 26.5996 1.2
    endloop
  endfacet
  facet normal 0 0 1
    outer loop
      vertex 4.2002 27.4004 1.2
      vertex 4.59961 26.5996 1.2
      vertex 5 27 1.2
    endloop
  endfacet
  facet normal 0 0 1
    outer loop
      vertex 5 27 1.2
      vertex 20.7354 14.9746 1.2
      vertex 21.2148 15.3184 1.2
    endloop
  endfacet
  facet normal 0 0 1
    outer loop
      vertex 79.2002 2.59961 1.2
      vertex 78.7998 3.40039 1.2
      vertex 75.7998 2.59961 1.2
    endloop
  endfacet
  facet normal -0 0 1
    outer loop
      vertex 42.0996 26.5996 1.2
      vertex 58.3057 14.9756 1.2
      vertex 42.5 27 1.2
    endloop
  endfacet
  facet normal 0 0 1
    outer loop
      vertex 75 1.2002 1.2
      vertex 75.7998 2.59961 1.2
      vertex 75 3 1.2
    endloop
  endfacet
  facet normal 0 0 1
    outer loop
      vertex 75 27 1.2
      vertex 58.7852 15.3184 1.2
      vertex 59.2646 14.9746 1.2
    endloop
  endfacet
  facet normal 0 0 1
    outer loop
      vertex 75.7998 27.4004 1.2
      vertex 75.4004 26.5996 1.2
      vertex 78.7998 26.5996 1.2
    endloop
  endfacet
  facet normal 0 0 1
    outer loop
      vertex 75 27 1.2
      vertex 59.2646 14.9746 1.2
      vertex 75.4004 26.5996 1.2
    endloop
  endfacet
  facet normal -0 0 1
    outer loop
      vertex 75.7998 27.4004 1.2
      vertex 78.7998 26.5996 1.2
      vertex 79.2002 27.4004 1.2
    endloop
  endfacet
  facet normal 0 0 1
    outer loop
      vertex 58.7842 14.6318 1.2
      vertex 58.3057 14.9756 1.2
      vertex 42.5 3 1.2
    endloop
  endfacet
  facet normal 0 0 1
    outer loop
      vertex 41.7002 0.799805 1.2
      vertex 0 0 1.2
      vertex 80 0 1.2
    endloop
  endfacet
  facet normal 0 0 1
    outer loop
      vertex 37.5 1.2002 1.2
      vertex 38.2998 2.59961 1.2
      vertex 37.5 3 1.2
    endloop
  endfacet
  facet normal 0 0 1
    outer loop
      vertex 41.7002 27.4004 1.2
      vertex 40.2998 26.5996 1.2
      vertex 42.0996 26.5996 1.2
    endloop
  endfacet
  facet normal 0 0 1
    outer loop
      vertex 42.5 27 1.2
      vertex 41.7002 27.4004 1.2
      vertex 42.0996 26.5996 1.2
    endloop
  endfacet
  facet normal 0 -0 1
    outer loop
      vertex 42.5 3 1.2
      vertex 58.3057 14.9756 1.2
      vertex 42.0996 3.40039 1.2
    endloop
  endfacet
  facet normal 0 -0 1
    outer loop
      vertex 58.7842 14.6318 1.2
      vertex 58.7852 15.3184 1.2
      vertex 58.3057 14.9756 1.2
    endloop
  endfacet
  facet normal 0 0 1
    outer loop
      vertex 40.2998 26.5996 1.2
      vertex 39.7002 26.5996 1.2
      vertex 40.2998 3.40039 1.2
    endloop
  endfacet
  facet normal 0 0 1
    outer loop
      vertex 37.5 3 1.2
      vertex 21.6943 14.9756 1.2
      vertex 21.2158 14.6318 1.2
    endloop
  endfacet
  facet normal -0 0 1
    outer loop
      vertex 4.2002 0.799805 1.2
      vertex 0 0 1.2
      vertex 38.2998 0.799805 1.2
    endloop
  endfacet
  facet normal -0 0 1
    outer loop
      vertex 20.7354 14.9746 1.2
      vertex 21.2158 14.6318 1.2
      vertex 21.2148 15.3184 1.2
    endloop
  endfacet
  facet normal 0 0 1
    outer loop
      vertex 5 3 1.2
      vertex 4.59961 3.40039 1.2
      vertex 4.2002 2.59961 1.2
    endloop
  endfacet
  facet normal 0 0 1
    outer loop
      vertex 38.2998 27.4004 1.2
      vertex 37.9004 26.5996 1.2
      vertex 39.7002 26.5996 1.2
    endloop
  endfacet
  facet normal 0 0 1
    outer loop
      vertex 37.5 27 1.2
      vertex 21.6943 14.9756 1.2
      vertex 37.9004 26.5996 1.2
    endloop
  endfacet
  facet normal 0 0 1
    outer loop
      vertex 40.2998 3.40039 1.2
      vertex 39.7002 26.5996 1.2
      vertex 39.7002 3.40039 1.2
    endloop
  endfacet
  facet normal 0 0 1
    outer loop
      vertex 40.2998 26.5996 1.2
      vertex 38.2998 27.4004 1.2
      vertex 39.7002 26.5996 1.2
    endloop
  endfacet
  facet normal 0 0 1
    outer loop
      vertex 38.2998 0.799805 1.2
      vertex 37.5 1.2002 1.2
      vertex 4.2002 0.799805 1.2
    endloop
  endfacet
  facet normal 0 -0 1
    outer loop
      vertex 38.2998 2.59961 1.2
      vertex 39.7002 3.40039 1.2
      vertex 37.9004 3.40039 1.2
    endloop
  endfacet
  facet normal 0 0 1
    outer loop
      vertex 4.2002 2.59961 1.2
      vertex 1.2002 3.40039 1.2
      vertex 0.799805 2.59961 1.2
    endloop
  endfacet
  facet normal 0 0 1
    outer loop
      vertex 20.7354 14.9746 1.2
      vertex 4.59961 3.40039 1.2
      vertex 5 3 1.2
    endloop
  endfacet
  facet normal 0 0 1
    outer loop
      vertex 21.2148 15.3184 1.2
      vertex 21.2158 14.6318 1.2
      vertex 21.6943 14.9756 1.2
    endloop
  endfacet
  facet normal 0 0 1
    outer loop
      vertex 20.7354 14.9746 1.2
      vertex 5 3 1.2
      vertex 21.2158 14.6318 1.2
    endloop
  endfacet
  facet normal 0 -0 1
    outer loop
      vertex 38.2998 0.799805 1.2
      vertex 38.2998 2.59961 1.2
      vertex 37.5 1.2002 1.2
    endloop
  endfacet
  facet normal 0 0 1
    outer loop
      vertex 37.9004 3.40039 1.2
      vertex 21.6943 14.9756 1.2
      vertex 37.5 3 1.2
    endloop
  endfacet
  facet normal 0 0 1
    outer loop
      vertex 59.2646 14.9746 1.2
      vertex 58.7842 14.6318 1.2
      vertex 75 3 1.2
    endloop
  endfacet
  facet normal 0 0 1
    outer loop
      vertex 75 1.2002 1.2
      vertex 41.7002 0.799805 1.2
      vertex 75.7998 0.799805 1.2
    endloop
  endfacet
  facet normal 0 0 1
    outer loop
      vertex 75 1.2002 1.2
      vertex 42.5 1.2002 1.2
      vertex 41.7002 0.799805 1.2
    endloop
  endfacet
  facet normal 0 0 1
    outer loop
      vertex 41.7002 2.59961 1.2
      vertex 42.5 3 1.2
      vertex 42.0996 3.40039 1.2
    endloop
  endfacet
  facet normal 0 0 1
    outer loop
      vertex 59.2646 14.9746 1.2
      vertex 58.7852 15.3184 1.2
      vertex 58.7842 14.6318 1.2
    endloop
  endfacet
  facet normal 0 -0 1
    outer loop
      vertex 75.7998 0.799805 1.2
      vertex 75.7998 2.59961 1.2
      vertex 75 1.2002 1.2
    endloop
  endfacet
  facet normal 0 0 1
    outer loop
      vertex 75.4004 3.40039 1.2
      vertex 59.2646 14.9746 1.2
      vertex 75 3 1.2
    endloop
  endfacet
  facet normal -0 0 1
    outer loop
      vertex 5 1.2002 1.2
      vertex 4.2002 0.799805 1.2
      vertex 37.5 1.2002 1.2
    endloop
  endfacet
  facet normal 0 -0 1
    outer loop
      vertex 5 1.2002 1.2
      vertex 5 3 1.2
      vertex 4.2002 2.59961 1.2
    endloop
  endfacet
  facet normal 0 0 1
    outer loop
      vertex 0 0 1.2
      vertex 4.2002 0.799805 1.2
      vertex 0.799805 0.799805 1.2
    endloop
  endfacet
  facet normal 0 0 1
    outer loop
      vertex 0 30 1.2
      vertex 0.799805 2.59961 1.2
      vertex 0.799805 27.4004 1.2
    endloop
  endfacet
  facet normal 0 0 1
    outer loop
      vertex 0 0 1.2
      vertex 0.799805 0.799805 1.2
      vertex 0.799805 2.59961 1.2
    endloop
  endfacet
  facet normal 0 0 1
    outer loop
      vertex 5 1.2002 1.2
      vertex 4.2002 2.59961 1.2
      vertex 4.2002 0.799805 1.2
    endloop
  endfacet
  facet normal 0 0 1
    outer loop
      vertex 4.59961 3.40039 1.2
      vertex 1.2002 3.40039 1.2
      vertex 4.2002 2.59961 1.2
    endloop
  endfacet
  facet normal 0 0 1
    outer loop
      vertex 75.7998 0.799805 1.2
      vertex 41.7002 0.799805 1.2
      vertex 80 0 1.2
    endloop
  endfacet
  facet normal 0 -0 1
    outer loop
      vertex 42.5 1.2002 1.2
      vertex 42.5 3 1.2
      vertex 41.7002 2.59961 1.2
    endloop
  endfacet
  facet normal 0 0 1
    outer loop
      vertex 41.7002 0.799805 1.2
      vertex 38.2998 0.799805 1.2
      vertex 0 0 1.2
    endloop
  endfacet
  facet normal 0 0 1
    outer loop
      vertex 79.2002 0.799805 1.2
      vertex 75.7998 0.799805 1.2
      vertex 80 0 1.2
    endloop
  endfacet
  facet normal -0 0 1
    outer loop
      vertex 37.5 3 1.2
      vertex 38.2998 2.59961 1.2
      vertex 37.9004 3.40039 1.2
    endloop
  endfacet
  facet normal 0 0 1
    outer loop
      vertex 42.5 1.2002 1.2
      vertex 41.7002 2.59961 1.2
      vertex 41.7002 0.799805 1.2
    endloop
  endfacet
  facet normal 0 0 1
    outer loop
      vertex 42.0996 3.40039 1.2
      vertex 40.2998 3.40039 1.2
      vertex 41.7002 2.59961 1.2
    endloop
  endfacet
  facet normal 0 0 1
    outer loop
      vertex 38.2998 2.59961 1.2
      vertex 40.2998 3.40039 1.2
      vertex 39.7002 3.40039 1.2
    endloop
  endfacet
  facet normal 0 0 1
    outer loop
      vertex 38.2998 2.59961 1.2
      vertex 41.7002 2.59961 1.2
      vertex 40.2998 3.40039 1.2
    endloop
  endfacet
  facet normal -0 0 1
    outer loop
      vertex 75.4004 3.40039 1.2
      vertex 75.7998 2.59961 1.2
      vertex 78.7998 3.40039 1.2
    endloop
  endfacet
  facet normal 0 0 1
    outer loop
      vertex 75.4004 3.40039 1.2
      vertex 75 3 1.2
      vertex 75.7998 2.59961 1.2
    endloop
  endfacet
  facet normal 0 0 1
    outer loop
      vertex 79.2002 27.4004 1.2
      vertex 79.2002 2.59961 1.2
      vertex 80 0 1.2
    endloop
  endfacet
  facet normal 0 0 1
    outer loop
      vertex 79.2002 27.4004 1.2
      vertex 78.7998 26.5996 1.2
      vertex 79.2002 2.59961 1.2
    endloop
  endfacet
  facet normal 0 1 0
    outer loop
      vertex 0 30 0
      vertex 80 30 1.2
      vertex 80 30 0
    endloop
  endfacet
  facet normal 0 1 0
    outer loop
      vertex 0 30 0
      vertex 0 30 1.2
      vertex 80 30 1.2
    endloop
  endfacet
  facet normal -1 0 0
    outer loop
      vertex 0 0 0
      vertex 0 30 1.2
      vertex 0 30 0
    endloop
  endfacet
  facet normal -1 0 0
    outer loop
      vertex 0 0 0
      vertex 0 0 1.2
      vertex 0 30 1.2
    endloop
  endfacet
  facet normal 0 -1 0
    outer loop
      vertex 80 0 0
      vertex 0 0 1.2
      vertex 0 0 0
    endloop
  endfacet
  facet normal 0 -1 0
    outer loop
      vertex 80 0 0
      vertex 80 0 1.2
      vertex 0 0 1.2
    endloop
  endfacet
  facet normal 1 0 0
    outer loop
      vertex 80 30 0
      vertex 80 0 1.2
      vertex 80 0 0
    endloop
  endfacet
  facet normal 1 0 -0
    outer loop
      vertex 80 30 0
      vertex 80 30 1.2
      vertex 80 0 1.2
    endloop
  endfacet
  facet normal 1 0 -0
    outer loop
      vertex 75.7998 29.2002 0
      vertex 75.7998 29.2002 1.2
      vertex 75.7998 27.4004 0
    endloop
  endfacet
  facet normal 1 -0 0
    outer loop
      vertex 75.7998 27.4004 1.2
      vertex 75.7998 27.4004 0
      vertex 75.7998 29.2002 1.2
    endloop
  endfacet
  facet normal 0 -1 0
    outer loop
      vertex 79.2002 29.2002 0
      vertex 79.2002 29.2002 1.2
      vertex 75.7998 29.2002 0
    endloop
  endfacet
  facet normal 0 -1 0
    outer loop
      vertex 75.7998 29.2002 1.2
      vertex 75.7998 29.2002 0
      vertex 79.2002 29.2002 1.2
    endloop
  endfacet
  facet normal -1 0 0
    outer loop
      vertex 79.2002 27.4004 0
      vertex 79.2002 27.4004 1.2
      vertex 79.2002 29.2002 0
    endloop
  endfacet
  facet normal -1 -0 -0
    outer loop
      vertex 79.2002 29.2002 1.2
      vertex 79.2002 29.2002 0
      vertex 79.2002 27.4004 1.2
    endloop
  endfacet
  facet normal 0 1 0
    outer loop
      vertex 75.7998 27.4004 0
      vertex 75.7998 27.4004 1.2
      vertex 79.2002 27.4004 0
    endloop
  endfacet
  facet normal 0 1 0
    outer loop
      vertex 79.2002 27.4004 1.2
      vertex 79.2002 27.4004 0
      vertex 75.7998 27.4004 1.2
    endloop
  endfacet
  facet normal 1 0 -0
    outer loop
      vertex 38.2998 29.2002 0
      vertex 38.2998 29.2002 1.2
      vertex 38.2998 27.4004 0
    endloop
  endfacet
  facet normal 1 -0 0
    outer loop
      vertex 38.2998 27.4004 1.2
      vertex 38.2998 27.4004 0
      vertex 38.2998 29.2002 1.2
    endloop
  endfacet
  facet normal 0 -1 0
    outer loop
      vertex 41.7002 29.2002 0
      vertex 41.7002 29.2002 1.2
      vertex 38.2998 29.2002 0
    endloop
  endfacet
  facet normal 0 -1 0
    outer loop
      vertex 38.2998 29.2002 1.2
      vertex 38.2998 29.2002 0
      vertex 41.7002 29.2002 1.2
    endloop
  endfacet
  facet normal -1 0 0
    outer loop
      vertex 41.7002 27.4004 0
      vertex 41.7002 27.4004 1.2
      vertex 41.7002 29.2002 0
    endloop
  endfacet
  facet normal -1 -0 -0
    outer loop
      vertex 41.7002 29.2002 1.2
      vertex 41.7002 29.2002 0
      vertex 41.7002 27.4004 1.2
    endloop
  endfacet
  facet normal 0 1 0
    outer loop
      vertex 38.2998 27.4004 0
      vertex 38.2998 27.4004 1.2
      vertex 41.7002 27.4004 0
    endloop
  endfacet
  facet normal 0 1 0
    outer loop
      vertex 41.7002 27.4004 1.2
      vertex 41.7002 27.4004 0
      vertex 38.2998 27.4004 1.2
    endloop
  endfacet
  facet normal 1 0 -0
    outer loop
      vertex 0.799805 29.2002 0
      vertex 0.799805 29.2002 1.2
      vertex 0.799805 27.4004 0
    endloop
  endfacet
  facet normal 1 -0 0
    outer loop
      vertex 0.799805 27.4004 1.2
      vertex 0.799805 27.4004 0
      vertex 0.799805 29.2002 1.2
    endloop
  endfacet
  facet normal 0 -1 0
    outer loop
      vertex 4.2002 29.2002 0
      vertex 4.2002 29.2002 1.2
      vertex 0.799805 29.2002 0
    endloop
  endfacet
  facet normal 0 -1 0
    outer loop
      vertex 0.799805 29.2002 1.2
      vertex 0.799805 29.2002 0
      vertex 4.2002 29.2002 1.2
    endloop
  endfacet
  facet normal -1 0 0
    outer loop
      vertex 4.2002 27.4004 0
      vertex 4.2002 27.4004 1.2
      vertex 4.2002 29.2002 0
    endloop
  endfacet
  facet normal -1 -0 -0
    outer loop
      vertex 4.2002 29.2002 1.2
      vertex 4.2002 29.2002 0
      vertex 4.2002 27.4004 1.2
    endloop
  endfacet
  facet normal 0 1 0
    outer loop
      vertex 0.799805 27.4004 0
      vertex 0.799805 27.4004 1.2
      vertex 4.2002 27.4004 0
    endloop
  endfacet
  facet normal 0 1 0
    outer loop
      vertex 4.2002 27.4004 1.2
      vertex 4.2002 27.4004 0
      vertex 0.799805 27.4004 1.2
    endloop
  endfacet
  facet normal 1 0 -0
    outer loop
      vertex 42.5 28.7998 0
      vertex 42.5 28.7998 1.2
      vertex 42.5 27 0
    endloop
  endfacet
  facet normal 1 -0 0
    outer loop
      vertex 42.5 27 1.2
      vertex 42.5 27 0
      vertex 42.5 28.7998 1.2
    endloop
  endfacet
  facet normal 0 -1 0
    outer loop
      vertex 75 28.7998 0
      vertex 75 28.7998 1.2
      vertex 42.5 28.7998 0
    endloop
  endfacet
  facet normal 0 -1 0
    outer loop
      vertex 42.5 28.7998 1.2
      vertex 42.5 28.7998 0
      vertex 75 28.7998 1.2
    endloop
  endfacet
  facet normal -1 0 0
    outer loop
      vertex 75 27 0
      vertex 75 27 1.2
      vertex 75 28.7998 0
    endloop
  endfacet
  facet normal -1 -0 -0
    outer loop
      vertex 75 28.7998 1.2
      vertex 75 28.7998 0
      vertex 75 27 1.2
    endloop
  endfacet
  facet normal -0.584534 0.81137 0
    outer loop
      vertex 58.7852 15.3184 0
      vertex 58.7852 15.3184 1.2
      vertex 75 27 0
    endloop
  endfacet
  facet normal -0.584534 0.81137 0
    outer loop
      vertex 75 27 1.2
      vertex 75 27 0
      vertex 58.7852 15.3184 1.2
    endloop
  endfacet
  facet normal 0.582866 0.812568 -0
    outer loop
      vertex 42.5 27 0
      vertex 42.5 27 1.2
      vertex 58.7852 15.3184 0
    endloop
  endfacet
  facet normal 0.582866 0.812568 0
    outer loop
      vertex 58.7852 15.3184 1.2
      vertex 58.7852 15.3184 0
      vertex 42.5 27 1.2
    endloop
  endfacet
  facet normal 1 0 -0
    outer loop
      vertex 5 28.7998 0
      vertex 5 28.7998 1.2
      vertex 5 27 0
    endloop
  endfacet
  facet normal 1 -0 0
    outer loop
      vertex 5 27 1.2
      vertex 5 27 0
      vertex 5 28.7998 1.2
    endloop
  endfacet
  facet normal 0 -1 0
    outer loop
      vertex 37.5 28.7998 0
      vertex 37.5 28.7998 1.2
      vertex 5 28.7998 0
    endloop
  endfacet
  facet normal 0 -1 0
    outer loop
      vertex 5 28.7998 1.2
      vertex 5 28.7998 0
      vertex 37.5 28.7998 1.2
    endloop
  endfacet
  facet normal -1 0 0
    outer loop
      vertex 37.5 27 0
      vertex 37.5 27 1.2
      vertex 37.5 28.7998 0
    endloop
  endfacet
  facet normal -1 -0 -0
    outer loop
      vertex 37.5 28.7998 1.2
      vertex 37.5 28.7998 0
      vertex 37.5 27 1.2
    endloop
  endfacet
  facet normal -0.582866 0.812568 0
    outer loop
      vertex 21.2148 15.3184 0
      vertex 21.2148 15.3184 1.2
      vertex 37.5 27 0
    endloop
  endfacet
  facet normal -0.582866 0.812568 0
    outer loop
      vertex 37.5 27 1.2
      vertex 37.5 27 0
      vertex 21.2148 15.3184 1.2
    endloop
  endfacet
  facet normal 0.584534 0.81137 -0
    outer loop
      vertex 5 27 0
      vertex 5 27 1.2
      vertex 21.2148 15.3184 0
    endloop
  endfacet
  facet normal 0.584534 0.81137 0
    outer loop
      vertex 21.2148 15.3184 1.2
      vertex 21.2148 15.3184 0
      vertex 5 27 1.2
    endloop
  endfacet
  facet normal 1 0 -0
    outer loop
      vertex 1.2002 26.5996 0
      vertex 1.2002 26.5996 1.2
      vertex 1.2002 3.40039 0
    endloop
  endfacet
  facet normal 1 -0 0
    outer loop
      vertex 1.2002 3.40039 1.2
      vertex 1.2002 3.40039 0
      vertex 1.2002 26.5996 1.2
    endloop
  endfacet
  facet normal 0 -1 0
    outer loop
      vertex 4.59961 26.5996 0
      vertex 4.59961 26.5996 1.2
      vertex 1.2002 26.5996 0
    endloop
  endfacet
  facet normal 0 -1 0
    outer loop
      vertex 1.2002 26.5996 1.2
      vertex 1.2002 26.5996 0
      vertex 4.59961 26.5996 1.2
    endloop
  endfacet
  facet normal -0.584544 -0.811362 0
    outer loop
      vertex 20.7354 14.9746 0
      vertex 20.7354 14.9746 1.2
      vertex 4.59961 26.5996 0
    endloop
  endfacet
  facet normal -0.584544 -0.811362 -0
    outer loop
      vertex 4.59961 26.5996 1.2
      vertex 4.59961 26.5996 0
      vertex 20.7354 14.9746 1.2
    endloop
  endfacet
  facet normal -0.582859 0.812573 0
    outer loop
      vertex 4.59961 3.40039 0
      vertex 4.59961 3.40039 1.2
      vertex 20.7354 14.9746 0
    endloop
  endfacet
  facet normal -0.582859 0.812573 0
    outer loop
      vertex 20.7354 14.9746 1.2
      vertex 20.7354 14.9746 0
      vertex 4.59961 3.40039 1.2
    endloop
  endfacet
  facet normal 0 1 0
    outer loop
      vertex 1.2002 3.40039 0
      vertex 1.2002 3.40039 1.2
      vertex 4.59961 3.40039 0
    endloop
  endfacet
  facet normal 0 1 0
    outer loop
      vertex 4.59961 3.40039 1.2
      vertex 4.59961 3.40039 0
      vertex 1.2002 3.40039 1.2
    endloop
  endfacet
  facet normal 0.582859 0.812573 -0
    outer loop
      vertex 59.2646 14.9746 0
      vertex 59.2646 14.9746 1.2
      vertex 75.4004 3.40039 0
    endloop
  endfacet
  facet normal 0.582859 0.812573 0
    outer loop
      vertex 75.4004 3.40039 1.2
      vertex 75.4004 3.40039 0
      vertex 59.2646 14.9746 1.2
    endloop
  endfacet
  facet normal 0.584544 -0.811362 0
    outer loop
      vertex 75.4004 26.5996 0
      vertex 75.4004 26.5996 1.2
      vertex 59.2646 14.9746 0
    endloop
  endfacet
  facet normal 0.584544 -0.811362 0
    outer loop
      vertex 59.2646 14.9746 1.2
      vertex 59.2646 14.9746 0
      vertex 75.4004 26.5996 1.2
    endloop
  endfacet
  facet normal 0 -1 0
    outer loop
      vertex 78.7998 26.5996 0
      vertex 78.7998 26.5996 1.2
      vertex 75.4004 26.5996 0
    endloop
  endfacet
  facet normal 0 -1 0
    outer loop
      vertex 75.4004 26.5996 1.2
      vertex 75.4004 26.5996 0
      vertex 78.7998 26.5996 1.2
    endloop
  endfacet
  facet normal -1 0 0
    outer loop
      vertex 78.7998 3.40039 0
      vertex 78.7998 3.40039 1.2
      vertex 78.7998 26.5996 0
    endloop
  endfacet
  facet normal -1 -0 -0
    outer loop
      vertex 78.7998 26.5996 1.2
      vertex 78.7998 26.5996 0
      vertex 78.7998 3.40039 1.2
    endloop
  endfacet
  facet normal 0 1 0
    outer loop
      vertex 75.4004 3.40039 0
      vertex 75.4004 3.40039 1.2
      vertex 78.7998 3.40039 0
    endloop
  endfacet
  facet normal 0 1 0
    outer loop
      vertex 78.7998 3.40039 1.2
      vertex 78.7998 3.40039 0
      vertex 75.4004 3.40039 1.2
    endloop
  endfacet
  facet normal 1 0 -0
    outer loop
      vertex 40.2998 26.5996 0
      vertex 40.2998 26.5996 1.2
      vertex 40.2998 3.40039 0
    endloop
  endfacet
  facet normal 1 -0 0
    outer loop
      vertex 40.2998 3.40039 1.2
      vertex 40.2998 3.40039 0
      vertex 40.2998 26.5996 1.2
    endloop
  endfacet
  facet normal 0 -1 0
    outer loop
      vertex 42.0996 26.5996 0
      vertex 42.0996 26.5996 1.2
      vertex 40.2998 26.5996 0
    endloop
  endfacet
  facet normal 0 -1 0
    outer loop
      vertex 40.2998 26.5996 1.2
      vertex 40.2998 26.5996 0
      vertex 42.0996 26.5996 1.2
    endloop
  endfacet
  facet normal -0.582838 -0.812588 0
    outer loop
      vertex 58.3057 14.9756 0
      vertex 58.3057 14.9756 1.2
      vertex 42.0996 26.5996 0
    endloop
  endfacet
  facet normal -0.582838 -0.812588 -0
    outer loop
      vertex 42.0996 26.5996 1.2
      vertex 42.0996 26.5996 0
      vertex 58.3057 14.9756 1.2
    endloop
  endfacet
  facet normal -0.581219 0.813747 0
    outer loop
      vertex 42.0996 3.40039 0
      vertex 42.0996 3.40039 1.2
      vertex 58.3057 14.9756 0
    endloop
  endfacet
  facet normal -0.581219 0.813747 0
    outer loop
      vertex 58.3057 14.9756 1.2
      vertex 58.3057 14.9756 0
      vertex 42.0996 3.40039 1.2
    endloop
  endfacet
  facet normal 0 1 0
    outer loop
      vertex 40.2998 3.40039 0
      vertex 40.2998 3.40039 1.2
      vertex 42.0996 3.40039 0
    endloop
  endfacet
  facet normal 0 1 0
    outer loop
      vertex 42.0996 3.40039 1.2
      vertex 42.0996 3.40039 0
      vertex 40.2998 3.40039 1.2
    endloop
  endfacet
  facet normal 0.581219 0.813747 -0
    outer loop
      vertex 21.6943 14.9756 0
      vertex 21.6943 14.9756 1.2
      vertex 37.9004 3.40039 0
    endloop
  endfacet
  facet normal 0.581219 0.813747 0
    outer loop
      vertex 37.9004 3.40039 1.2
      vertex 37.9004 3.40039 0
      vertex 21.6943 14.9756 1.2
    endloop
  endfacet
  facet normal 0.582838 -0.812588 0
    outer loop
      vertex 37.9004 26.5996 0
      vertex 37.9004 26.5996 1.2
      vertex 21.6943 14.9756 0
    endloop
  endfacet
  facet normal 0.582838 -0.812588 0
    outer loop
      vertex 21.6943 14.9756 1.2
      vertex 21.6943 14.9756 0
      vertex 37.9004 26.5996 1.2
    endloop
  endfacet
  facet normal 0 -1 0
    outer loop
      vertex 39.7002 26.5996 0
      vertex 39.7002 26.5996 1.2
      vertex 37.9004 26.5996 0
    endloop
  endfacet
  facet normal 0 -1 0
    outer loop
      vertex 37.9004 26.5996 1.2
      vertex 37.9004 26.5996 0
      vertex 39.7002 26.5996 1.2
    endloop
  endfacet
  facet normal -1 0 0
    outer loop
      vertex 39.7002 3.40039 0
      vertex 39.7002 3.40039 1.2
      vertex 39.7002 26.5996 0
    endloop
  endfacet
  facet normal -1 -0 -0
    outer loop
      vertex 39.7002 26.5996 1.2
      vertex 39.7002 26.5996 0
      vertex 39.7002 3.40039 1.2
    endloop
  endfacet
  facet normal 0 1 0
    outer loop
      vertex 37.9004 3.40039 0
      vertex 37.9004 3.40039 1.2
      vertex 39.7002 3.40039 0
    endloop
  endfacet
  facet normal 0 1 0
    outer loop
      vertex 39.7002 3.40039 1.2
      vertex 39.7002 3.40039 0
      vertex 37.9004 3.40039 1.2
    endloop
  endfacet
  facet normal 1 0 -0
    outer loop
      vertex 5 3 0
      vertex 5 3 1.2
      vertex 5 1.2002 0
    endloop
  endfacet
  facet normal 1 -0 0
    outer loop
      vertex 5 1.2002 1.2
      vertex 5 1.2002 0
      vertex 5 3 1.2
    endloop
  endfacet
  facet normal 0.582866 -0.812568 0
    outer loop
      vertex 21.2158 14.6318 0
      vertex 21.2158 14.6318 1.2
      vertex 5 3 0
    endloop
  endfacet
  facet normal 0.582866 -0.812568 0
    outer loop
      vertex 5 3 1.2
      vertex 5 3 0
      vertex 21.2158 14.6318 1.2
    endloop
  endfacet
  facet normal -0.581246 -0.813728 0
    outer loop
      vertex 37.5 3 0
      vertex 37.5 3 1.2
      vertex 21.2158 14.6318 0
    endloop
  endfacet
  facet normal -0.581246 -0.813728 -0
    outer loop
      vertex 21.2158 14.6318 1.2
      vertex 21.2158 14.6318 0
      vertex 37.5 3 1.2
    endloop
  endfacet
  facet normal -1 0 0
    outer loop
      vertex 37.5 1.2002 0
      vertex 37.5 1.2002 1.2
      vertex 37.5 3 0
    endloop
  endfacet
  facet normal -1 -0 -0
    outer loop
      vertex 37.5 3 1.2
      vertex 37.5 3 0
      vertex 37.5 1.2002 1.2
    endloop
  endfacet
  facet normal 0 1 0
    outer loop
      vertex 5 1.2002 0
      vertex 5 1.2002 1.2
      vertex 37.5 1.2002 0
    endloop
  endfacet
  facet normal 0 1 0
    outer loop
      vertex 37.5 1.2002 1.2
      vertex 37.5 1.2002 0
      vertex 5 1.2002 1.2
    endloop
  endfacet
  facet normal 1 0 -0
    outer loop
      vertex 42.5 3 0
      vertex 42.5 3 1.2
      vertex 42.5 1.2002 0
    endloop
  endfacet
  facet normal 1 -0 0
    outer loop
      vertex 42.5 1.2002 1.2
      vertex 42.5 1.2002 0
      vertex 42.5 3 1.2
    endloop
  endfacet
  facet normal 0.581246 -0.813728 0
    outer loop
      vertex 58.7842 14.6318 0
      vertex 58.7842 14.6318 1.2
      vertex 42.5 3 0
    endloop
  endfacet
  facet normal 0.581246 -0.813728 0
    outer loop
      vertex 42.5 3 1.2
      vertex 42.5 3 0
      vertex 58.7842 14.6318 1.2
    endloop
  endfacet
  facet normal -0.582866 -0.812568 0
    outer loop
      vertex 75 3 0
      vertex 75 3 1.2
      vertex 58.7842 14.6318 0
    endloop
  endfacet
  facet normal -0.582866 -0.812568 -0
    outer loop
      vertex 58.7842 14.6318 1.2
      vertex 58.7842 14.6318 0
      vertex 75 3 1.2
    endloop
  endfacet
  facet normal -1 0 0
    outer loop
      vertex 75 1.2002 0
      vertex 75 1.2002 1.2
      vertex 75 3 0
    endloop
  endfacet
  facet normal -1 -0 -0
    outer loop
      vertex 75 3 1.2
      vertex 75 3 0
      vertex 75 1.2002 1.2
    endloop
  endfacet
  facet normal 0 1 0
    outer loop
      vertex 42.5 1.2002 0
      vertex 42.5 1.2002 1.2
      vertex 75 1.2002 0
    endloop
  endfacet
  facet normal 0 1 0
    outer loop
      vertex 75 1.2002 1.2
      vertex 75 1.2002 0
      vertex 42.5 1.2002 1.2
    endloop
  endfacet
  facet normal 1 0 -0
    outer loop
      vertex 0.799805 2.59961 0
      vertex 0.799805 2.59961 1.2
      vertex 0.799805 0.799805 0
    endloop
  endfacet
  facet normal 1 -0 0
    outer loop
      vertex 0.799805 0.799805 1.2
      vertex 0.799805 0.799805 0
      vertex 0.799805 2.59961 1.2
    endloop
  endfacet
  facet normal 0 -1 0
    outer loop
      vertex 4.2002 2.59961 0
      vertex 4.2002 2.59961 1.2
      vertex 0.799805 2.59961 0
    endloop
  endfacet
  facet normal 0 -1 0
    outer loop
      vertex 0.799805 2.59961 1.2
      vertex 0.799805 2.59961 0
      vertex 4.2002 2.59961 1.2
    endloop
  endfacet
  facet normal -1 0 0
    outer loop
      vertex 4.2002 0.799805 0
      vertex 4.2002 0.799805 1.2
      vertex 4.2002 2.59961 0
    endloop
  endfacet
  facet normal -1 -0 -0
    outer loop
      vertex 4.2002 2.59961 1.2
      vertex 4.2002 2.59961 0
      vertex 4.2002 0.799805 1.2
    endloop
  endfacet
  facet normal 0 1 0
    outer loop
      vertex 0.799805 0.799805 0
      vertex 0.799805 0.799805 1.2
      vertex 4.2002 0.799805 0
    endloop
  endfacet
  facet normal 0 1 0
    outer loop
      vertex 4.2002 0.799805 1.2
      vertex 4.2002 0.799805 0
      vertex 0.799805 0.799805 1.2
    endloop
  endfacet
  facet normal 1 0 -0
    outer loop
      vertex 38.2998 2.59961 0
      vertex 38.2998 2.59961 1.2
      vertex 38.2998 0.799805 0
    endloop
  endfacet
  facet normal 1 -0 0
    outer loop
      vertex 38.2998 0.799805 1.2
      vertex 38.2998 0.799805 0
      vertex 38.2998 2.59961 1.2
    endloop
  endfacet
  facet normal 0 -1 0
    outer loop
      vertex 41.7002 2.59961 0
      vertex 41.7002 2.59961 1.2
      vertex 38.2998 2.59961 0
    endloop
  endfacet
  facet normal 0 -1 0
    outer loop
      vertex 38.2998 2.59961 1.2
      vertex 38.2998 2.59961 0
      vertex 41.7002 2.59961 1.2
    endloop
  endfacet
  facet normal -1 0 0
    outer loop
      vertex 41.7002 0.799805 0
      vertex 41.7002 0.799805 1.2
      vertex 41.7002 2.59961 0
    endloop
  endfacet
  facet normal -1 -0 -0
    outer loop
      vertex 41.7002 2.59961 1.2
      vertex 41.7002 2.59961 0
      vertex 41.7002 0.799805 1.2
    endloop
  endfacet
  facet normal 0 1 0
    outer loop
      vertex 38.2998 0.799805 0
      vertex 38.2998 0.799805 1.2
      vertex 41.7002 0.799805 0
    endloop
  endfacet
  facet normal 0 1 0
    outer loop
      vertex 41.7002 0.799805 1.2
      vertex 41.7002 0.799805 0
      vertex 38.2998 0.799805 1.2
    endloop
  endfacet
  facet normal 1 0 -0
    outer loop
      vertex 75.7998 2.59961 0
      vertex 75.7998 2.59961 1.2
      vertex 75.7998 0.799805 0
    endloop
  endfacet
  facet normal 1 -0 0
    outer loop
      vertex 75.7998 0.799805 1.2
      vertex 75.7998 0.799805 0
      vertex 75.7998 2.59961 1.2
    endloop
  endfacet
  facet normal 0 -1 0
    outer loop
      vertex 79.2002 2.59961 0
      vertex 79.2002 2.59961 1.2
      vertex 75.7998 2.59961 0
    endloop
  endfacet
  facet normal 0 -1 0
    outer loop
      vertex 75.7998 2.59961 1.2
      vertex 75.7998 2.59961 0
      vertex 79.2002 2.59961 1.2
    endloop
  endfacet
  facet normal -1 0 0
    outer loop
      vertex 79.2002 0.799805 0
      vertex 79.2002 0.799805 1.2
      vertex 79.2002 2.59961 0
    endloop
  endfacet
  facet normal -1 -0 -0
    outer loop
      vertex 79.2002 2.59961 1.2
      vertex 79.2002 2.59961 0
      vertex 79.2002 0.799805 1.2
    endloop
  endfacet
  facet normal 0 1 0
    outer loop
      vertex 75.7998 0.799805 0
      vertex 75.7998 0.799805 1.2
      vertex 79.2002 0.799805 0
    endloop
  endfacet
  facet normal 0 1 0
    outer loop
      vertex 79.2002 0.799805 1.2
      vertex 79.2002 0.799805 0
      vertex 75.7998 0.799805 1.2
    endloop
  endfacet
endsolid OpenSCAD_Model
