solid OpenSCAD_Model
  facet normal 0 0 -1
    outer loop
      vertex 50 0 0
      vertex 48 1.2002 0
      vertex 50 1.2002 0
    endloop
  endfacet
  facet normal 0 0 -1
    outer loop
      vertex 47.2002 1.2002 0
      vertex 48 2.90039 0
      vertex 48 1.2002 0
    endloop
  endfacet
  facet normal -0 0 -1
    outer loop
      vertex 48 2.90039 0
      vertex 47.2002 1.2002 0
      vertex 47.2002 3.21777 0
    endloop
  endfacet
  facet normal 0 0 -1
    outer loop
      vertex 50 0 0
      vertex 47.2002 1.2002 0
      vertex 48 1.2002 0
    endloop
  endfacet
  facet normal 0 0 -1
    outer loop
      vertex 50 0 0
      vertex 25.7998 1.2002 0
      vertex 47.2002 1.2002 0
    endloop
  endfacet
  facet normal 0 0 -1
    outer loop
      vertex 25.4004 1.59961 0
      vertex 24.5996 1.59961 0
      vertex 25.4004 7.2002 0
    endloop
  endfacet
  facet normal 0 0 -1
    outer loop
      vertex 25.7998 1.2002 0
      vertex 24.5996 1.59961 0
      vertex 25.4004 1.59961 0
    endloop
  endfacet
  facet normal 0 0 -1
    outer loop
      vertex 25.7998 1.2002 0
      vertex 24.2002 1.2002 0
      vertex 24.5996 1.59961 0
    endloop
  endfacet
  facet normal 0 0 -1
    outer loop
      vertex 50 0 0
      vertex 24.2002 1.2002 0
      vertex 25.7998 1.2002 0
    endloop
  endfacet
  facet normal 0 0 -1
    outer loop
      vertex 0 0 0
      vertex 24.2002 1.2002 0
      vertex 50 0 0
    endloop
  endfacet
  facet normal 0 0 -1
    outer loop
      vertex 2 2.90039 0
      vertex 2.7998 3.21777 0
      vertex 2.7998 1.2002 0
    endloop
  endfacet
  facet normal 0 0 -1
    outer loop
      vertex 2 2.90039 0
      vertex 2.7998 1.2002 0
      vertex 2 1.2002 0
    endloop
  endfacet
  facet normal -0 0 -1
    outer loop
      vertex 24.2002 1.2002 0
      vertex 0 0 0
      vertex 2.7998 1.2002 0
    endloop
  endfacet
  facet normal -0 0 -1
    outer loop
      vertex 2.7998 1.2002 0
      vertex 0 0 0
      vertex 2 1.2002 0
    endloop
  endfacet
  facet normal -0 0 -1
    outer loop
      vertex 2 1.2002 0
      vertex 0 0 0
      vertex 0 1.2002 0
    endloop
  endfacet
  facet normal 0 0 -1
    outer loop
      vertex 50 2.90039 0
      vertex 48.7998 3.59961 0
      vertex 50 17.0996 0
    endloop
  endfacet
  facet normal 0 0 -1
    outer loop
      vertex 48 2.90039 0
      vertex 48.7998 3.59961 0
      vertex 50 2.90039 0
    endloop
  endfacet
  facet normal -0 0 -1
    outer loop
      vertex 48.7998 3.59961 0
      vertex 48 2.90039 0
      vertex 47.626 3.59961 0
    endloop
  endfacet
  facet normal 0 0 -1
    outer loop
      vertex 48.7998 16.4004 0
      vertex 50 17.0996 0
      vertex 48.7998 3.59961 0
    endloop
  endfacet
  facet normal 0 0 -1
    outer loop
      vertex 48.7998 16.4004 0
      vertex 48 17.0996 0
      vertex 50 17.0996 0
    endloop
  endfacet
  facet normal 0 0 -1
    outer loop
      vertex 47.2002 16.7822 0
      vertex 48 17.0996 0
      vertex 47.626 16.4004 0
    endloop
  endfacet
  facet normal 0 0 -1
    outer loop
      vertex 47.626 16.4004 0
      vertex 48 17.0996 0
      vertex 48.7998 16.4004 0
    endloop
  endfacet
  facet normal 0 0 -1
    outer loop
      vertex 48 18.7998 0
      vertex 50 20 0
      vertex 50 18.7998 0
    endloop
  endfacet
  facet normal 0 0 -1
    outer loop
      vertex 47.2002 18.7998 0
      vertex 48 17.0996 0
      vertex 47.2002 16.7822 0
    endloop
  endfacet
  facet normal 0 0 -1
    outer loop
      vertex 48 17.0996 0
      vertex 47.2002 18.7998 0
      vertex 48 18.7998 0
    endloop
  endfacet
  facet normal 0 0 -1
    outer loop
      vertex 47.2002 18.7998 0
      vertex 50 20 0
      vertex 48 18.7998 0
    endloop
  endfacet
  facet normal 0 0 -1
    outer loop
      vertex 25.7998 18.7998 0
      vertex 50 20 0
      vertex 47.2002 18.7998 0
    endloop
  endfacet
  facet normal 0 0 -1
    outer loop
      vertex 24.5996 18.4004 0
      vertex 25.4004 18.4004 0
      vertex 24.5996 12.7998 0
    endloop
  endfacet
  facet normal 0 0 -1
    outer loop
      vertex 24.5996 18.4004 0
      vertex 25.7998 18.7998 0
      vertex 25.4004 18.4004 0
    endloop
  endfacet
  facet normal 0 0 -1
    outer loop
      vertex 24.2002 18.7998 0
      vertex 25.7998 18.7998 0
      vertex 24.5996 18.4004 0
    endloop
  endfacet
  facet normal 0 0 -1
    outer loop
      vertex 24.2002 18.7998 0
      vertex 50 20 0
      vertex 25.7998 18.7998 0
    endloop
  endfacet
  facet normal 0 0 -1
    outer loop
      vertex 0 20 0
      vertex 24.2002 18.7998 0
      vertex 2.7998 18.7998 0
    endloop
  endfacet
  facet normal 0 0 -1
    outer loop
      vertex 2.7998 16.7822 0
      vertex 2 17.0996 0
      vertex 2.7998 18.7998 0
    endloop
  endfacet
  facet normal 0 0 -1
    outer loop
      vertex 2 18.7998 0
      vertex 2.7998 18.7998 0
      vertex 2 17.0996 0
    endloop
  endfacet
  facet normal 0 0 -1
    outer loop
      vertex 0 20 0
      vertex 2.7998 18.7998 0
      vertex 2 18.7998 0
    endloop
  endfacet
  facet normal 0 0 -1
    outer loop
      vertex 0 20 0
      vertex 2 18.7998 0
      vertex 0 18.7998 0
    endloop
  endfacet
  facet normal 0 0 -1
    outer loop
      vertex 24.2002 18.7998 0
      vertex 0 20 0
      vertex 50 20 0
    endloop
  endfacet
  facet normal 0 0 -1
    outer loop
      vertex 1.2002 16.4004 0
      vertex 2 17.0996 0
      vertex 2.37402 16.4004 0
    endloop
  endfacet
  facet normal 0 0 -1
    outer loop
      vertex 1.2002 16.4004 0
      vertex 0 17.0996 0
      vertex 2 17.0996 0
    endloop
  endfacet
  facet normal 0 0 -1
    outer loop
      vertex 0 17.0996 0
      vertex 1.2002 16.4004 0
      vertex 0 2.90039 0
    endloop
  endfacet
  facet normal -0 0 -1
    outer loop
      vertex 2.7998 3.21777 0
      vertex 2 2.90039 0
      vertex 2.37402 3.59961 0
    endloop
  endfacet
  facet normal 0 0 -1
    outer loop
      vertex 2 2.90039 0
      vertex 1.2002 3.59961 0
      vertex 2.37402 3.59961 0
    endloop
  endfacet
  facet normal -0 0 -1
    outer loop
      vertex 1.2002 3.59961 0
      vertex 0 2.90039 0
      vertex 1.2002 16.4004 0
    endloop
  endfacet
  facet normal 0 0 -1
    outer loop
      vertex 0 2.90039 0
      vertex 1.2002 3.59961 0
      vertex 2 2.90039 0
    endloop
  endfacet
  facet normal 0 0 -1
    outer loop
      vertex 11.5645 10 0
      vertex 2.7998 16.7822 0
      vertex 12.0518 10.3389 0
    endloop
  endfacet
  facet normal 0 0 -1
    outer loop
      vertex 2 17.0996 0
      vertex 2.7998 16.7822 0
      vertex 2.37402 16.4004 0
    endloop
  endfacet
  facet normal 0 0 -1
    outer loop
      vertex 2.37402 16.4004 0
      vertex 2.7998 16.7822 0
      vertex 11.5645 10 0
    endloop
  endfacet
  facet normal 0 0 -1
    outer loop
      vertex 12.5381 10 0
      vertex 24.2002 18.7998 0
      vertex 24.5996 18.4004 0
    endloop
  endfacet
  facet normal 0 0 -1
    outer loop
      vertex 12.0518 10.3389 0
      vertex 12.5381 10 0
      vertex 12.0518 9.66113 0
    endloop
  endfacet
  facet normal 0 0 -1
    outer loop
      vertex 12.5381 10 0
      vertex 12.0518 10.3389 0
      vertex 24.2002 18.7998 0
    endloop
  endfacet
  facet normal 0 0 -1
    outer loop
      vertex 12.0518 9.66113 0
      vertex 11.5645 10 0
      vertex 12.0518 10.3389 0
    endloop
  endfacet
  facet normal 0 0 -1
    outer loop
      vertex 2.7998 3.21777 0
      vertex 11.5645 10 0
      vertex 12.0518 9.66113 0
    endloop
  endfacet
  facet normal 0 0 -1
    outer loop
      vertex 11.5645 10 0
      vertex 2.7998 3.21777 0
      vertex 2.37402 3.59961 0
    endloop
  endfacet
  facet normal 0 0 -1
    outer loop
      vertex 26.7002 7.2002 0
      vertex 25.9004 8 0
      vertex 26.7002 12.7998 0
    endloop
  endfacet
  facet normal 0 0 -1
    outer loop
      vertex 25.4004 7.2002 0
      vertex 25.9004 8 0
      vertex 26.7002 7.2002 0
    endloop
  endfacet
  facet normal 0 0 -1
    outer loop
      vertex 24.5996 7.2002 0
      vertex 25.4004 7.2002 0
      vertex 24.5996 1.59961 0
    endloop
  endfacet
  facet normal 0 0 -1
    outer loop
      vertex 24.5996 7.2002 0
      vertex 25.9004 8 0
      vertex 25.4004 7.2002 0
    endloop
  endfacet
  facet normal 0 0 -1
    outer loop
      vertex 24.5996 7.2002 0
      vertex 24.0996 8 0
      vertex 25.9004 8 0
    endloop
  endfacet
  facet normal -0 0 -1
    outer loop
      vertex 24.0996 8 0
      vertex 23.2998 7.2002 0
      vertex 24.0996 12 0
    endloop
  endfacet
  facet normal 0 0 -1
    outer loop
      vertex 23.2998 7.2002 0
      vertex 24.0996 8 0
      vertex 24.5996 7.2002 0
    endloop
  endfacet
  facet normal 0 0 -1
    outer loop
      vertex 25.9004 12 0
      vertex 26.7002 12.7998 0
      vertex 25.9004 8 0
    endloop
  endfacet
  facet normal 0 0 -1
    outer loop
      vertex 25.9004 12 0
      vertex 25.4004 12.7998 0
      vertex 26.7002 12.7998 0
    endloop
  endfacet
  facet normal 0 0 -1
    outer loop
      vertex 25.4004 12.7998 0
      vertex 24.5996 12.7998 0
      vertex 25.4004 18.4004 0
    endloop
  endfacet
  facet normal 0 0 -1
    outer loop
      vertex 25.9004 12 0
      vertex 24.5996 12.7998 0
      vertex 25.4004 12.7998 0
    endloop
  endfacet
  facet normal 0 0 -1
    outer loop
      vertex 24.0996 12 0
      vertex 24.5996 12.7998 0
      vertex 25.9004 12 0
    endloop
  endfacet
  facet normal 0 0 -1
    outer loop
      vertex 24.0996 12 0
      vertex 23.2998 12.7998 0
      vertex 24.5996 12.7998 0
    endloop
  endfacet
  facet normal 0 0 -1
    outer loop
      vertex 23.2998 12.7998 0
      vertex 24.0996 12 0
      vertex 23.2998 7.2002 0
    endloop
  endfacet
  facet normal 0 0 -1
    outer loop
      vertex 24.2002 1.2002 0
      vertex 12.5381 10 0
      vertex 24.5996 1.59961 0
    endloop
  endfacet
  facet normal 0 -0 -1
    outer loop
      vertex 12.5381 10 0
      vertex 24.2002 1.2002 0
      vertex 12.0518 9.66113 0
    endloop
  endfacet
  facet normal 0 0 -1
    outer loop
      vertex 37.4619 10 0
      vertex 25.7998 18.7998 0
      vertex 37.9482 10.3389 0
    endloop
  endfacet
  facet normal 0 -0 -1
    outer loop
      vertex 25.7998 18.7998 0
      vertex 37.4619 10 0
      vertex 25.4004 18.4004 0
    endloop
  endfacet
  facet normal 0 0 -1
    outer loop
      vertex 38.4355 10 0
      vertex 47.2002 16.7822 0
      vertex 47.626 16.4004 0
    endloop
  endfacet
  facet normal 0 0 -1
    outer loop
      vertex 37.9482 10.3389 0
      vertex 38.4355 10 0
      vertex 37.9482 9.66113 0
    endloop
  endfacet
  facet normal 0 0 -1
    outer loop
      vertex 38.4355 10 0
      vertex 37.9482 10.3389 0
      vertex 47.2002 16.7822 0
    endloop
  endfacet
  facet normal 0 0 -1
    outer loop
      vertex 37.9482 9.66113 0
      vertex 37.4619 10 0
      vertex 37.9482 10.3389 0
    endloop
  endfacet
  facet normal 0 0 -1
    outer loop
      vertex 25.7998 1.2002 0
      vertex 37.4619 10 0
      vertex 37.9482 9.66113 0
    endloop
  endfacet
  facet normal 0 0 -1
    outer loop
      vertex 37.4619 10 0
      vertex 25.7998 1.2002 0
      vertex 25.4004 1.59961 0
    endloop
  endfacet
  facet normal 0 0 -1
    outer loop
      vertex 48 2.90039 0
      vertex 47.2002 3.21777 0
      vertex 47.626 3.59961 0
    endloop
  endfacet
  facet normal 0 0 -1
    outer loop
      vertex 47.2002 3.21777 0
      vertex 38.4355 10 0
      vertex 47.626 3.59961 0
    endloop
  endfacet
  facet normal 0 -0 -1
    outer loop
      vertex 38.4355 10 0
      vertex 47.2002 3.21777 0
      vertex 37.9482 9.66113 0
    endloop
  endfacet
  facet normal 0 0 1
    outer loop
      vertex 50 20 2
      vertex 48 18.7998 2
      vertex 50 18.7998 2
    endloop
  endfacet
  facet normal -0 0 1
    outer loop
      vertex 47.2002 18.7998 2
      vertex 48 17.0996 2
      vertex 48 18.7998 2
    endloop
  endfacet
  facet normal 0 0 1
    outer loop
      vertex 48 17.0996 2
      vertex 47.2002 18.7998 2
      vertex 47.2002 16.7822 2
    endloop
  endfacet
  facet normal 0 0 1
    outer loop
      vertex 50 20 2
      vertex 47.2002 18.7998 2
      vertex 48 18.7998 2
    endloop
  endfacet
  facet normal 0 0 1
    outer loop
      vertex 50 20 2
      vertex 25.7998 18.7998 2
      vertex 47.2002 18.7998 2
    endloop
  endfacet
  facet normal 0 0 1
    outer loop
      vertex 25.4004 18.4004 2
      vertex 24.5996 18.4004 2
      vertex 25.4004 12.7998 2
    endloop
  endfacet
  facet normal 0 0 1
    outer loop
      vertex 25.7998 18.7998 2
      vertex 24.5996 18.4004 2
      vertex 25.4004 18.4004 2
    endloop
  endfacet
  facet normal 0 0 1
    outer loop
      vertex 25.7998 18.7998 2
      vertex 24.2002 18.7998 2
      vertex 24.5996 18.4004 2
    endloop
  endfacet
  facet normal 0 0 1
    outer loop
      vertex 50 20 2
      vertex 24.2002 18.7998 2
      vertex 25.7998 18.7998 2
    endloop
  endfacet
  facet normal -0 0 1
    outer loop
      vertex 0 20 2
      vertex 24.2002 18.7998 2
      vertex 50 20 2
    endloop
  endfacet
  facet normal -0 0 1
    outer loop
      vertex 2 17.0996 2
      vertex 2.7998 16.7822 2
      vertex 2.7998 18.7998 2
    endloop
  endfacet
  facet normal 0 0 1
    outer loop
      vertex 2 17.0996 2
      vertex 2.7998 18.7998 2
      vertex 2 18.7998 2
    endloop
  endfacet
  facet normal 0 0 1
    outer loop
      vertex 24.2002 18.7998 2
      vertex 0 20 2
      vertex 2.7998 18.7998 2
    endloop
  endfacet
  facet normal 0 0 1
    outer loop
      vertex 2.7998 18.7998 2
      vertex 0 20 2
      vertex 2 18.7998 2
    endloop
  endfacet
  facet normal 0 0 1
    outer loop
      vertex 2 18.7998 2
      vertex 0 20 2
      vertex 0 18.7998 2
    endloop
  endfacet
  facet normal 0 0 1
    outer loop
      vertex 50 17.0996 2
      vertex 48.7998 16.4004 2
      vertex 50 2.90039 2
    endloop
  endfacet
  facet normal -0 0 1
    outer loop
      vertex 48 17.0996 2
      vertex 48.7998 16.4004 2
      vertex 50 17.0996 2
    endloop
  endfacet
  facet normal 0 0 1
    outer loop
      vertex 48.7998 16.4004 2
      vertex 48 17.0996 2
      vertex 47.626 16.4004 2
    endloop
  endfacet
  facet normal -0 0 1
    outer loop
      vertex 48.7998 3.59961 2
      vertex 50 2.90039 2
      vertex 48.7998 16.4004 2
    endloop
  endfacet
  facet normal 0 0 1
    outer loop
      vertex 48.7998 3.59961 2
      vertex 48 2.90039 2
      vertex 50 2.90039 2
    endloop
  endfacet
  facet normal -0 0 1
    outer loop
      vertex 47.2002 3.21777 2
      vertex 48 2.90039 2
      vertex 47.626 3.59961 2
    endloop
  endfacet
  facet normal -0 0 1
    outer loop
      vertex 47.626 3.59961 2
      vertex 48 2.90039 2
      vertex 48.7998 3.59961 2
    endloop
  endfacet
  facet normal -0 0 1
    outer loop
      vertex 48 1.2002 2
      vertex 50 0 2
      vertex 50 1.2002 2
    endloop
  endfacet
  facet normal 0 0 1
    outer loop
      vertex 47.2002 1.2002 2
      vertex 48 2.90039 2
      vertex 47.2002 3.21777 2
    endloop
  endfacet
  facet normal 0 0 1
    outer loop
      vertex 48 2.90039 2
      vertex 47.2002 1.2002 2
      vertex 48 1.2002 2
    endloop
  endfacet
  facet normal -0 0 1
    outer loop
      vertex 47.2002 1.2002 2
      vertex 50 0 2
      vertex 48 1.2002 2
    endloop
  endfacet
  facet normal -0 0 1
    outer loop
      vertex 25.7998 1.2002 2
      vertex 50 0 2
      vertex 47.2002 1.2002 2
    endloop
  endfacet
  facet normal 0 0 1
    outer loop
      vertex 24.5996 1.59961 2
      vertex 25.4004 1.59961 2
      vertex 24.5996 7.2002 2
    endloop
  endfacet
  facet normal -0 0 1
    outer loop
      vertex 24.5996 1.59961 2
      vertex 25.7998 1.2002 2
      vertex 25.4004 1.59961 2
    endloop
  endfacet
  facet normal 0 0 1
    outer loop
      vertex 24.2002 1.2002 2
      vertex 25.7998 1.2002 2
      vertex 24.5996 1.59961 2
    endloop
  endfacet
  facet normal -0 0 1
    outer loop
      vertex 24.2002 1.2002 2
      vertex 50 0 2
      vertex 25.7998 1.2002 2
    endloop
  endfacet
  facet normal 0 0 1
    outer loop
      vertex 0 0 2
      vertex 24.2002 1.2002 2
      vertex 2.7998 1.2002 2
    endloop
  endfacet
  facet normal 0 0 1
    outer loop
      vertex 2.7998 3.21777 2
      vertex 2 2.90039 2
      vertex 2.7998 1.2002 2
    endloop
  endfacet
  facet normal 0 0 1
    outer loop
      vertex 2 1.2002 2
      vertex 2.7998 1.2002 2
      vertex 2 2.90039 2
    endloop
  endfacet
  facet normal 0 0 1
    outer loop
      vertex 0 0 2
      vertex 2.7998 1.2002 2
      vertex 2 1.2002 2
    endloop
  endfacet
  facet normal 0 0 1
    outer loop
      vertex 0 0 2
      vertex 2 1.2002 2
      vertex 0 1.2002 2
    endloop
  endfacet
  facet normal 0 0 1
    outer loop
      vertex 24.2002 1.2002 2
      vertex 0 0 2
      vertex 50 0 2
    endloop
  endfacet
  facet normal -0 0 1
    outer loop
      vertex 1.2002 3.59961 2
      vertex 2 2.90039 2
      vertex 2.37402 3.59961 2
    endloop
  endfacet
  facet normal 0 0 1
    outer loop
      vertex 1.2002 3.59961 2
      vertex 0 2.90039 2
      vertex 2 2.90039 2
    endloop
  endfacet
  facet normal 0 0 1
    outer loop
      vertex 0 2.90039 2
      vertex 1.2002 3.59961 2
      vertex 0 17.0996 2
    endloop
  endfacet
  facet normal 0 0 1
    outer loop
      vertex 2.7998 16.7822 2
      vertex 2 17.0996 2
      vertex 2.37402 16.4004 2
    endloop
  endfacet
  facet normal 0 0 1
    outer loop
      vertex 2 17.0996 2
      vertex 1.2002 16.4004 2
      vertex 2.37402 16.4004 2
    endloop
  endfacet
  facet normal 0 0 1
    outer loop
      vertex 1.2002 16.4004 2
      vertex 0 17.0996 2
      vertex 1.2002 3.59961 2
    endloop
  endfacet
  facet normal -0 0 1
    outer loop
      vertex 0 17.0996 2
      vertex 1.2002 16.4004 2
      vertex 2 17.0996 2
    endloop
  endfacet
  facet normal 0 0 1
    outer loop
      vertex 11.5645 10 2
      vertex 2.7998 3.21777 2
      vertex 12.0518 9.66113 2
    endloop
  endfacet
  facet normal 0 0 1
    outer loop
      vertex 2 2.90039 2
      vertex 2.7998 3.21777 2
      vertex 2.37402 3.59961 2
    endloop
  endfacet
  facet normal -0 0 1
    outer loop
      vertex 2.37402 3.59961 2
      vertex 2.7998 3.21777 2
      vertex 11.5645 10 2
    endloop
  endfacet
  facet normal 0 0 1
    outer loop
      vertex 12.5381 10 2
      vertex 24.2002 1.2002 2
      vertex 24.5996 1.59961 2
    endloop
  endfacet
  facet normal 0 0 1
    outer loop
      vertex 12.0518 9.66113 2
      vertex 12.5381 10 2
      vertex 12.0518 10.3389 2
    endloop
  endfacet
  facet normal 0 0 1
    outer loop
      vertex 12.5381 10 2
      vertex 12.0518 9.66113 2
      vertex 24.2002 1.2002 2
    endloop
  endfacet
  facet normal 0 0 1
    outer loop
      vertex 12.0518 10.3389 2
      vertex 11.5645 10 2
      vertex 12.0518 9.66113 2
    endloop
  endfacet
  facet normal 0 0 1
    outer loop
      vertex 2.7998 16.7822 2
      vertex 11.5645 10 2
      vertex 12.0518 10.3389 2
    endloop
  endfacet
  facet normal 0 0 1
    outer loop
      vertex 11.5645 10 2
      vertex 2.7998 16.7822 2
      vertex 2.37402 16.4004 2
    endloop
  endfacet
  facet normal 0 0 1
    outer loop
      vertex 26.7002 12.7998 2
      vertex 25.9004 12 2
      vertex 26.7002 7.2002 2
    endloop
  endfacet
  facet normal -0 0 1
    outer loop
      vertex 25.4004 12.7998 2
      vertex 25.9004 12 2
      vertex 26.7002 12.7998 2
    endloop
  endfacet
  facet normal 0 0 1
    outer loop
      vertex 24.5996 12.7998 2
      vertex 25.4004 12.7998 2
      vertex 24.5996 18.4004 2
    endloop
  endfacet
  facet normal -0 0 1
    outer loop
      vertex 24.5996 12.7998 2
      vertex 25.9004 12 2
      vertex 25.4004 12.7998 2
    endloop
  endfacet
  facet normal 0 0 1
    outer loop
      vertex 24.5996 12.7998 2
      vertex 24.0996 12 2
      vertex 25.9004 12 2
    endloop
  endfacet
  facet normal 0 0 1
    outer loop
      vertex 24.0996 12 2
      vertex 23.2998 12.7998 2
      vertex 24.0996 8 2
    endloop
  endfacet
  facet normal -0 0 1
    outer loop
      vertex 23.2998 12.7998 2
      vertex 24.0996 12 2
      vertex 24.5996 12.7998 2
    endloop
  endfacet
  facet normal -0 0 1
    outer loop
      vertex 25.9004 8 2
      vertex 26.7002 7.2002 2
      vertex 25.9004 12 2
    endloop
  endfacet
  facet normal 0 0 1
    outer loop
      vertex 25.9004 8 2
      vertex 25.4004 7.2002 2
      vertex 26.7002 7.2002 2
    endloop
  endfacet
  facet normal 0 0 1
    outer loop
      vertex 25.4004 7.2002 2
      vertex 24.5996 7.2002 2
      vertex 25.4004 1.59961 2
    endloop
  endfacet
  facet normal 0 0 1
    outer loop
      vertex 25.9004 8 2
      vertex 24.5996 7.2002 2
      vertex 25.4004 7.2002 2
    endloop
  endfacet
  facet normal -0 0 1
    outer loop
      vertex 24.0996 8 2
      vertex 24.5996 7.2002 2
      vertex 25.9004 8 2
    endloop
  endfacet
  facet normal 0 0 1
    outer loop
      vertex 24.0996 8 2
      vertex 23.2998 7.2002 2
      vertex 24.5996 7.2002 2
    endloop
  endfacet
  facet normal 0 0 1
    outer loop
      vertex 23.2998 7.2002 2
      vertex 24.0996 8 2
      vertex 23.2998 12.7998 2
    endloop
  endfacet
  facet normal 0 0 1
    outer loop
      vertex 24.2002 18.7998 2
      vertex 12.5381 10 2
      vertex 24.5996 18.4004 2
    endloop
  endfacet
  facet normal 0 -0 1
    outer loop
      vertex 12.5381 10 2
      vertex 24.2002 18.7998 2
      vertex 12.0518 10.3389 2
    endloop
  endfacet
  facet normal 0 0 1
    outer loop
      vertex 37.4619 10 2
      vertex 25.7998 1.2002 2
      vertex 37.9482 9.66113 2
    endloop
  endfacet
  facet normal 0 -0 1
    outer loop
      vertex 25.7998 1.2002 2
      vertex 37.4619 10 2
      vertex 25.4004 1.59961 2
    endloop
  endfacet
  facet normal 0 0 1
    outer loop
      vertex 38.4355 10 2
      vertex 47.2002 3.21777 2
      vertex 47.626 3.59961 2
    endloop
  endfacet
  facet normal 0 0 1
    outer loop
      vertex 37.9482 9.66113 2
      vertex 38.4355 10 2
      vertex 37.9482 10.3389 2
    endloop
  endfacet
  facet normal 0 0 1
    outer loop
      vertex 38.4355 10 2
      vertex 37.9482 9.66113 2
      vertex 47.2002 3.21777 2
    endloop
  endfacet
  facet normal 0 0 1
    outer loop
      vertex 37.9482 10.3389 2
      vertex 37.4619 10 2
      vertex 37.9482 9.66113 2
    endloop
  endfacet
  facet normal 0 0 1
    outer loop
      vertex 25.7998 18.7998 2
      vertex 37.4619 10 2
      vertex 37.9482 10.3389 2
    endloop
  endfacet
  facet normal 0 0 1
    outer loop
      vertex 37.4619 10 2
      vertex 25.7998 18.7998 2
      vertex 25.4004 18.4004 2
    endloop
  endfacet
  facet normal 0 0 1
    outer loop
      vertex 48 17.0996 2
      vertex 47.2002 16.7822 2
      vertex 47.626 16.4004 2
    endloop
  endfacet
  facet normal 0 0 1
    outer loop
      vertex 47.2002 16.7822 2
      vertex 38.4355 10 2
      vertex 47.626 16.4004 2
    endloop
  endfacet
  facet normal 0 -0 1
    outer loop
      vertex 38.4355 10 2
      vertex 47.2002 16.7822 2
      vertex 37.9482 10.3389 2
    endloop
  endfacet
  facet normal 0 1 -0
    outer loop
      vertex 50 1.2002 0
      vertex 48 1.2002 2
      vertex 50 1.2002 2
    endloop
  endfacet
  facet normal 0 1 0
    outer loop
      vertex 48 1.2002 2
      vertex 50 1.2002 0
      vertex 48 1.2002 0
    endloop
  endfacet
  facet normal 1 -0 0
    outer loop
      vertex 48 1.2002 2
      vertex 48 2.90039 0
      vertex 48 2.90039 2
    endloop
  endfacet
  facet normal 1 0 0
    outer loop
      vertex 48 2.90039 0
      vertex 48 1.2002 2
      vertex 48 1.2002 0
    endloop
  endfacet
  facet normal 0 -1 0
    outer loop
      vertex 48 2.90039 0
      vertex 50 2.90039 2
      vertex 48 2.90039 2
    endloop
  endfacet
  facet normal 0 -1 -0
    outer loop
      vertex 50 2.90039 2
      vertex 48 2.90039 0
      vertex 50 2.90039 0
    endloop
  endfacet
  facet normal 1 -0 0
    outer loop
      vertex 50 2.90039 2
      vertex 50 17.0996 0
      vertex 50 17.0996 2
    endloop
  endfacet
  facet normal 1 0 0
    outer loop
      vertex 50 17.0996 0
      vertex 50 2.90039 2
      vertex 50 2.90039 0
    endloop
  endfacet
  facet normal 0 1 -0
    outer loop
      vertex 50 17.0996 0
      vertex 48 17.0996 2
      vertex 50 17.0996 2
    endloop
  endfacet
  facet normal 0 1 0
    outer loop
      vertex 48 17.0996 2
      vertex 50 17.0996 0
      vertex 48 17.0996 0
    endloop
  endfacet
  facet normal 1 -0 0
    outer loop
      vertex 48 17.0996 2
      vertex 48 18.7998 0
      vertex 48 18.7998 2
    endloop
  endfacet
  facet normal 1 0 0
    outer loop
      vertex 48 18.7998 0
      vertex 48 17.0996 2
      vertex 48 17.0996 0
    endloop
  endfacet
  facet normal 0 -1 0
    outer loop
      vertex 48 18.7998 0
      vertex 50 18.7998 2
      vertex 48 18.7998 2
    endloop
  endfacet
  facet normal 0 -1 -0
    outer loop
      vertex 50 18.7998 2
      vertex 48 18.7998 0
      vertex 50 18.7998 0
    endloop
  endfacet
  facet normal 1 -0 0
    outer loop
      vertex 50 18.7998 2
      vertex 50 20 0
      vertex 50 20 2
    endloop
  endfacet
  facet normal 1 0 0
    outer loop
      vertex 50 20 0
      vertex 50 18.7998 2
      vertex 50 18.7998 0
    endloop
  endfacet
  facet normal 0 1 -0
    outer loop
      vertex 50 20 0
      vertex 0 20 2
      vertex 50 20 2
    endloop
  endfacet
  facet normal 0 1 0
    outer loop
      vertex 0 20 2
      vertex 50 20 0
      vertex 0 20 0
    endloop
  endfacet
  facet normal -1 0 0
    outer loop
      vertex 0 18.7998 0
      vertex 0 20 2
      vertex 0 20 0
    endloop
  endfacet
  facet normal -1 -0 0
    outer loop
      vertex 0 20 2
      vertex 0 18.7998 0
      vertex 0 18.7998 2
    endloop
  endfacet
  facet normal 0 -1 0
    outer loop
      vertex 0 18.7998 0
      vertex 2 18.7998 2
      vertex 0 18.7998 2
    endloop
  endfacet
  facet normal 0 -1 -0
    outer loop
      vertex 2 18.7998 2
      vertex 0 18.7998 0
      vertex 2 18.7998 0
    endloop
  endfacet
  facet normal -1 0 0
    outer loop
      vertex 2 17.0996 0
      vertex 2 18.7998 2
      vertex 2 18.7998 0
    endloop
  endfacet
  facet normal -1 -0 0
    outer loop
      vertex 2 18.7998 2
      vertex 2 17.0996 0
      vertex 2 17.0996 2
    endloop
  endfacet
  facet normal 0 1 -0
    outer loop
      vertex 2 17.0996 0
      vertex 0 17.0996 2
      vertex 2 17.0996 2
    endloop
  endfacet
  facet normal 0 1 0
    outer loop
      vertex 0 17.0996 2
      vertex 2 17.0996 0
      vertex 0 17.0996 0
    endloop
  endfacet
  facet normal -1 0 0
    outer loop
      vertex 0 2.90039 0
      vertex 0 17.0996 2
      vertex 0 17.0996 0
    endloop
  endfacet
  facet normal -1 -0 0
    outer loop
      vertex 0 17.0996 2
      vertex 0 2.90039 0
      vertex 0 2.90039 2
    endloop
  endfacet
  facet normal 0 -1 0
    outer loop
      vertex 0 2.90039 0
      vertex 2 2.90039 2
      vertex 0 2.90039 2
    endloop
  endfacet
  facet normal 0 -1 -0
    outer loop
      vertex 2 2.90039 2
      vertex 0 2.90039 0
      vertex 2 2.90039 0
    endloop
  endfacet
  facet normal -1 0 0
    outer loop
      vertex 2 1.2002 0
      vertex 2 2.90039 2
      vertex 2 2.90039 0
    endloop
  endfacet
  facet normal -1 -0 0
    outer loop
      vertex 2 2.90039 2
      vertex 2 1.2002 0
      vertex 2 1.2002 2
    endloop
  endfacet
  facet normal 0 1 -0
    outer loop
      vertex 2 1.2002 0
      vertex 0 1.2002 2
      vertex 2 1.2002 2
    endloop
  endfacet
  facet normal 0 1 0
    outer loop
      vertex 0 1.2002 2
      vertex 2 1.2002 0
      vertex 0 1.2002 0
    endloop
  endfacet
  facet normal -1 0 0
    outer loop
      vertex 0 0 0
      vertex 0 1.2002 2
      vertex 0 1.2002 0
    endloop
  endfacet
  facet normal -1 -0 0
    outer loop
      vertex 0 1.2002 2
      vertex 0 0 0
      vertex 0 0 2
    endloop
  endfacet
  facet normal 0 -1 0
    outer loop
      vertex 0 0 0
      vertex 50 0 2
      vertex 0 0 2
    endloop
  endfacet
  facet normal 0 -1 -0
    outer loop
      vertex 50 0 2
      vertex 0 0 0
      vertex 50 0 0
    endloop
  endfacet
  facet normal 1 -0 0
    outer loop
      vertex 50 0 2
      vertex 50 1.2002 0
      vertex 50 1.2002 2
    endloop
  endfacet
  facet normal 1 0 0
    outer loop
      vertex 50 1.2002 0
      vertex 50 0 2
      vertex 50 0 0
    endloop
  endfacet
  facet normal 0 -1 0
    outer loop
      vertex 25.7998 18.7998 0
      vertex 47.2002 18.7998 2
      vertex 25.7998 18.7998 2
    endloop
  endfacet
  facet normal 0 -1 -0
    outer loop
      vertex 47.2002 18.7998 2
      vertex 25.7998 18.7998 0
      vertex 47.2002 18.7998 0
    endloop
  endfacet
  facet normal -1 0 0
    outer loop
      vertex 47.2002 16.7822 0
      vertex 47.2002 18.7998 2
      vertex 47.2002 18.7998 0
    endloop
  endfacet
  facet normal -1 -0 0
    outer loop
      vertex 47.2002 18.7998 2
      vertex 47.2002 16.7822 0
      vertex 47.2002 16.7822 2
    endloop
  endfacet
  facet normal -0.57149 0.820609 0
    outer loop
      vertex 47.2002 16.7822 0
      vertex 37.9482 10.3389 2
      vertex 47.2002 16.7822 2
    endloop
  endfacet
  facet normal -0.57149 0.820609 0
    outer loop
      vertex 37.9482 10.3389 2
      vertex 47.2002 16.7822 0
      vertex 37.9482 10.3389 0
    endloop
  endfacet
  facet normal 0.571512 0.820594 -0
    outer loop
      vertex 37.9482 10.3389 0
      vertex 25.7998 18.7998 2
      vertex 37.9482 10.3389 2
    endloop
  endfacet
  facet normal 0.571512 0.820594 0
    outer loop
      vertex 25.7998 18.7998 2
      vertex 37.9482 10.3389 0
      vertex 25.7998 18.7998 0
    endloop
  endfacet
  facet normal 1 -0 0
    outer loop
      vertex 2.7998 16.7822 2
      vertex 2.7998 18.7998 0
      vertex 2.7998 18.7998 2
    endloop
  endfacet
  facet normal 1 0 0
    outer loop
      vertex 2.7998 18.7998 0
      vertex 2.7998 16.7822 2
      vertex 2.7998 16.7822 0
    endloop
  endfacet
  facet normal 0 -1 0
    outer loop
      vertex 2.7998 18.7998 0
      vertex 24.2002 18.7998 2
      vertex 2.7998 18.7998 2
    endloop
  endfacet
  facet normal 0 -1 -0
    outer loop
      vertex 24.2002 18.7998 2
      vertex 2.7998 18.7998 0
      vertex 24.2002 18.7998 0
    endloop
  endfacet
  facet normal -0.571512 0.820594 0
    outer loop
      vertex 24.2002 18.7998 0
      vertex 12.0518 10.3389 2
      vertex 24.2002 18.7998 2
    endloop
  endfacet
  facet normal -0.571512 0.820594 0
    outer loop
      vertex 12.0518 10.3389 2
      vertex 24.2002 18.7998 0
      vertex 12.0518 10.3389 0
    endloop
  endfacet
  facet normal 0.57149 0.820609 -0
    outer loop
      vertex 12.0518 10.3389 0
      vertex 2.7998 16.7822 2
      vertex 12.0518 10.3389 2
    endloop
  endfacet
  facet normal 0.57149 0.820609 0
    outer loop
      vertex 2.7998 16.7822 2
      vertex 12.0518 10.3389 0
      vertex 2.7998 16.7822 0
    endloop
  endfacet
  facet normal 0 -1 0
    outer loop
      vertex 25.4004 7.2002 0
      vertex 26.7002 7.2002 2
      vertex 25.4004 7.2002 2
    endloop
  endfacet
  facet normal 0 -1 -0
    outer loop
      vertex 26.7002 7.2002 2
      vertex 25.4004 7.2002 0
      vertex 26.7002 7.2002 0
    endloop
  endfacet
  facet normal 1 -0 0
    outer loop
      vertex 26.7002 7.2002 2
      vertex 26.7002 12.7998 0
      vertex 26.7002 12.7998 2
    endloop
  endfacet
  facet normal 1 0 0
    outer loop
      vertex 26.7002 12.7998 0
      vertex 26.7002 7.2002 2
      vertex 26.7002 7.2002 0
    endloop
  endfacet
  facet normal 0 1 -0
    outer loop
      vertex 26.7002 12.7998 0
      vertex 25.4004 12.7998 2
      vertex 26.7002 12.7998 2
    endloop
  endfacet
  facet normal 0 1 0
    outer loop
      vertex 25.4004 12.7998 2
      vertex 26.7002 12.7998 0
      vertex 25.4004 12.7998 0
    endloop
  endfacet
  facet normal 1 -0 0
    outer loop
      vertex 25.4004 12.7998 2
      vertex 25.4004 18.4004 0
      vertex 25.4004 18.4004 2
    endloop
  endfacet
  facet normal 1 0 0
    outer loop
      vertex 25.4004 18.4004 0
      vertex 25.4004 12.7998 2
      vertex 25.4004 12.7998 0
    endloop
  endfacet
  facet normal -0.571513 -0.820593 0
    outer loop
      vertex 25.4004 18.4004 0
      vertex 37.4619 10 2
      vertex 25.4004 18.4004 2
    endloop
  endfacet
  facet normal -0.571513 -0.820593 -0
    outer loop
      vertex 37.4619 10 2
      vertex 25.4004 18.4004 0
      vertex 37.4619 10 0
    endloop
  endfacet
  facet normal -0.571513 0.820593 0
    outer loop
      vertex 37.4619 10 0
      vertex 25.4004 1.59961 2
      vertex 37.4619 10 2
    endloop
  endfacet
  facet normal -0.571513 0.820593 0
    outer loop
      vertex 25.4004 1.59961 2
      vertex 37.4619 10 0
      vertex 25.4004 1.59961 0
    endloop
  endfacet
  facet normal 1 -0 0
    outer loop
      vertex 25.4004 1.59961 2
      vertex 25.4004 7.2002 0
      vertex 25.4004 7.2002 2
    endloop
  endfacet
  facet normal 1 0 0
    outer loop
      vertex 25.4004 7.2002 0
      vertex 25.4004 1.59961 2
      vertex 25.4004 1.59961 0
    endloop
  endfacet
  facet normal 0.571513 -0.820593 0
    outer loop
      vertex 12.5381 10 0
      vertex 24.5996 18.4004 2
      vertex 12.5381 10 2
    endloop
  endfacet
  facet normal 0.571513 -0.820593 0
    outer loop
      vertex 24.5996 18.4004 2
      vertex 12.5381 10 0
      vertex 24.5996 18.4004 0
    endloop
  endfacet
  facet normal -1 0 0
    outer loop
      vertex 24.5996 12.7998 0
      vertex 24.5996 18.4004 2
      vertex 24.5996 18.4004 0
    endloop
  endfacet
  facet normal -1 -0 0
    outer loop
      vertex 24.5996 18.4004 2
      vertex 24.5996 12.7998 0
      vertex 24.5996 12.7998 2
    endloop
  endfacet
  facet normal 0 1 -0
    outer loop
      vertex 24.5996 12.7998 0
      vertex 23.2998 12.7998 2
      vertex 24.5996 12.7998 2
    endloop
  endfacet
  facet normal 0 1 0
    outer loop
      vertex 23.2998 12.7998 2
      vertex 24.5996 12.7998 0
      vertex 23.2998 12.7998 0
    endloop
  endfacet
  facet normal -1 0 0
    outer loop
      vertex 23.2998 7.2002 0
      vertex 23.2998 12.7998 2
      vertex 23.2998 12.7998 0
    endloop
  endfacet
  facet normal -1 -0 0
    outer loop
      vertex 23.2998 12.7998 2
      vertex 23.2998 7.2002 0
      vertex 23.2998 7.2002 2
    endloop
  endfacet
  facet normal 0 -1 0
    outer loop
      vertex 23.2998 7.2002 0
      vertex 24.5996 7.2002 2
      vertex 23.2998 7.2002 2
    endloop
  endfacet
  facet normal 0 -1 -0
    outer loop
      vertex 24.5996 7.2002 2
      vertex 23.2998 7.2002 0
      vertex 24.5996 7.2002 0
    endloop
  endfacet
  facet normal -1 0 0
    outer loop
      vertex 24.5996 1.59961 0
      vertex 24.5996 7.2002 2
      vertex 24.5996 7.2002 0
    endloop
  endfacet
  facet normal -1 -0 0
    outer loop
      vertex 24.5996 7.2002 2
      vertex 24.5996 1.59961 0
      vertex 24.5996 1.59961 2
    endloop
  endfacet
  facet normal 0.571513 0.820593 -0
    outer loop
      vertex 24.5996 1.59961 0
      vertex 12.5381 10 2
      vertex 24.5996 1.59961 2
    endloop
  endfacet
  facet normal 0.571513 0.820593 0
    outer loop
      vertex 12.5381 10 2
      vertex 24.5996 1.59961 0
      vertex 12.5381 10 0
    endloop
  endfacet
  facet normal 0.571486 0.820612 -0
    outer loop
      vertex 47.626 3.59961 0
      vertex 38.4355 10 2
      vertex 47.626 3.59961 2
    endloop
  endfacet
  facet normal 0.571486 0.820612 0
    outer loop
      vertex 38.4355 10 2
      vertex 47.626 3.59961 0
      vertex 38.4355 10 0
    endloop
  endfacet
  facet normal 0.571486 -0.820612 0
    outer loop
      vertex 38.4355 10 0
      vertex 47.626 16.4004 2
      vertex 38.4355 10 2
    endloop
  endfacet
  facet normal 0.571486 -0.820612 0
    outer loop
      vertex 47.626 16.4004 2
      vertex 38.4355 10 0
      vertex 47.626 16.4004 0
    endloop
  endfacet
  facet normal 0 -1 0
    outer loop
      vertex 47.626 16.4004 0
      vertex 48.7998 16.4004 2
      vertex 47.626 16.4004 2
    endloop
  endfacet
  facet normal 0 -1 -0
    outer loop
      vertex 48.7998 16.4004 2
      vertex 47.626 16.4004 0
      vertex 48.7998 16.4004 0
    endloop
  endfacet
  facet normal -1 0 0
    outer loop
      vertex 48.7998 3.59961 0
      vertex 48.7998 16.4004 2
      vertex 48.7998 16.4004 0
    endloop
  endfacet
  facet normal -1 -0 0
    outer loop
      vertex 48.7998 16.4004 2
      vertex 48.7998 3.59961 0
      vertex 48.7998 3.59961 2
    endloop
  endfacet
  facet normal 0 1 -0
    outer loop
      vertex 48.7998 3.59961 0
      vertex 47.626 3.59961 2
      vertex 48.7998 3.59961 2
    endloop
  endfacet
  facet normal 0 1 0
    outer loop
      vertex 47.626 3.59961 2
      vertex 48.7998 3.59961 0
      vertex 47.626 3.59961 0
    endloop
  endfacet
  facet normal 1 -0 0
    outer loop
      vertex 1.2002 3.59961 2
      vertex 1.2002 16.4004 0
      vertex 1.2002 16.4004 2
    endloop
  endfacet
  facet normal 1 0 0
    outer loop
      vertex 1.2002 16.4004 0
      vertex 1.2002 3.59961 2
      vertex 1.2002 3.59961 0
    endloop
  endfacet
  facet normal 0 -1 0
    outer loop
      vertex 1.2002 16.4004 0
      vertex 2.37402 16.4004 2
      vertex 1.2002 16.4004 2
    endloop
  endfacet
  facet normal 0 -1 -0
    outer loop
      vertex 2.37402 16.4004 2
      vertex 1.2002 16.4004 0
      vertex 2.37402 16.4004 0
    endloop
  endfacet
  facet normal -0.571487 -0.820611 0
    outer loop
      vertex 2.37402 16.4004 0
      vertex 11.5645 10 2
      vertex 2.37402 16.4004 2
    endloop
  endfacet
  facet normal -0.571487 -0.820611 -0
    outer loop
      vertex 11.5645 10 2
      vertex 2.37402 16.4004 0
      vertex 11.5645 10 0
    endloop
  endfacet
  facet normal -0.571486 0.820612 0
    outer loop
      vertex 11.5645 10 0
      vertex 2.37402 3.59961 2
      vertex 11.5645 10 2
    endloop
  endfacet
  facet normal -0.571486 0.820612 0
    outer loop
      vertex 2.37402 3.59961 2
      vertex 11.5645 10 0
      vertex 2.37402 3.59961 0
    endloop
  endfacet
  facet normal 0 1 -0
    outer loop
      vertex 2.37402 3.59961 0
      vertex 1.2002 3.59961 2
      vertex 2.37402 3.59961 2
    endloop
  endfacet
  facet normal 0 1 0
    outer loop
      vertex 1.2002 3.59961 2
      vertex 2.37402 3.59961 0
      vertex 1.2002 3.59961 0
    endloop
  endfacet
  facet normal 1 -0 0
    outer loop
      vertex 24.0996 8 2
      vertex 24.0996 12 0
      vertex 24.0996 12 2
    endloop
  endfacet
  facet normal 1 0 0
    outer loop
      vertex 24.0996 12 0
      vertex 24.0996 8 2
      vertex 24.0996 8 0
    endloop
  endfacet
  facet normal 0 -1 0
    outer loop
      vertex 24.0996 12 0
      vertex 25.9004 12 2
      vertex 24.0996 12 2
    endloop
  endfacet
  facet normal 0 -1 -0
    outer loop
      vertex 25.9004 12 2
      vertex 24.0996 12 0
      vertex 25.9004 12 0
    endloop
  endfacet
  facet normal -1 0 0
    outer loop
      vertex 25.9004 8 0
      vertex 25.9004 12 2
      vertex 25.9004 12 0
    endloop
  endfacet
  facet normal -1 -0 0
    outer loop
      vertex 25.9004 12 2
      vertex 25.9004 8 0
      vertex 25.9004 8 2
    endloop
  endfacet
  facet normal 0 1 -0
    outer loop
      vertex 25.9004 8 0
      vertex 24.0996 8 2
      vertex 25.9004 8 2
    endloop
  endfacet
  facet normal 0 1 0
    outer loop
      vertex 24.0996 8 2
      vertex 25.9004 8 0
      vertex 24.0996 8 0
    endloop
  endfacet
  facet normal 0.571514 -0.820593 0
    outer loop
      vertex 25.7998 1.2002 0
      vertex 37.9482 9.66113 2
      vertex 25.7998 1.2002 2
    endloop
  endfacet
  facet normal 0.571514 -0.820593 0
    outer loop
      vertex 37.9482 9.66113 2
      vertex 25.7998 1.2002 0
      vertex 37.9482 9.66113 0
    endloop
  endfacet
  facet normal -0.571494 -0.820606 0
    outer loop
      vertex 37.9482 9.66113 0
      vertex 47.2002 3.21777 2
      vertex 37.9482 9.66113 2
    endloop
  endfacet
  facet normal -0.571494 -0.820606 -0
    outer loop
      vertex 47.2002 3.21777 2
      vertex 37.9482 9.66113 0
      vertex 47.2002 3.21777 0
    endloop
  endfacet
  facet normal -1 0 0
    outer loop
      vertex 47.2002 1.2002 0
      vertex 47.2002 3.21777 2
      vertex 47.2002 3.21777 0
    endloop
  endfacet
  facet normal -1 -0 0
    outer loop
      vertex 47.2002 3.21777 2
      vertex 47.2002 1.2002 0
      vertex 47.2002 1.2002 2
    endloop
  endfacet
  facet normal 0 1 -0
    outer loop
      vertex 47.2002 1.2002 0
      vertex 25.7998 1.2002 2
      vertex 47.2002 1.2002 2
    endloop
  endfacet
  facet normal 0 1 0
    outer loop
      vertex 25.7998 1.2002 2
      vertex 47.2002 1.2002 0
      vertex 25.7998 1.2002 0
    endloop
  endfacet
  facet normal 1 -0 0
    outer loop
      vertex 2.7998 1.2002 2
      vertex 2.7998 3.21777 0
      vertex 2.7998 3.21777 2
    endloop
  endfacet
  facet normal 1 0 0
    outer loop
      vertex 2.7998 3.21777 0
      vertex 2.7998 1.2002 2
      vertex 2.7998 1.2002 0
    endloop
  endfacet
  facet normal 0.571494 -0.820606 0
    outer loop
      vertex 2.7998 3.21777 0
      vertex 12.0518 9.66113 2
      vertex 2.7998 3.21777 2
    endloop
  endfacet
  facet normal 0.571494 -0.820606 0
    outer loop
      vertex 12.0518 9.66113 2
      vertex 2.7998 3.21777 0
      vertex 12.0518 9.66113 0
    endloop
  endfacet
  facet normal -0.571514 -0.820593 0
    outer loop
      vertex 12.0518 9.66113 0
      vertex 24.2002 1.2002 2
      vertex 12.0518 9.66113 2
    endloop
  endfacet
  facet normal -0.571514 -0.820593 -0
    outer loop
      vertex 24.2002 1.2002 2
      vertex 12.0518 9.66113 0
      vertex 24.2002 1.2002 0
    endloop
  endfacet
  facet normal 0 1 -0
    outer loop
      vertex 24.2002 1.2002 0
      vertex 2.7998 1.2002 2
      vertex 24.2002 1.2002 2
    endloop
  endfacet
  facet normal 0 1 0
    outer loop
      vertex 2.7998 1.2002 2
      vertex 24.2002 1.2002 0
      vertex 2.7998 1.2002 0
    endloop
  endfacet
  facet normal 0 0 -1
    outer loop
      vertex 11.5645 40 0
      vertex 2.2002 47.2002 0
      vertex 12.0518 40.3389 0
    endloop
  endfacet
  facet normal 0 0 -1
    outer loop
      vertex 1.7998 46.7998 0
      vertex 2.2002 47.2002 0
      vertex 11.5645 40 0
    endloop
  endfacet
  facet normal 0 0 -1
    outer loop
      vertex 1.2002 47.2002 0
      vertex 2.2002 47.2002 0
      vertex 1.7998 46.7998 0
    endloop
  endfacet
  facet normal 0 0 -1
    outer loop
      vertex 2.2002 47.2002 0
      vertex 1.2002 47.2002 0
      vertex 1.2002 48.7998 0
    endloop
  endfacet
  facet normal 0 0 -1
    outer loop
      vertex 12.5381 40 0
      vertex 24.2002 48.7998 0
      vertex 24.5996 48.4004 0
    endloop
  endfacet
  facet normal 0 0 -1
    outer loop
      vertex 12.0518 40.3389 0
      vertex 12.5381 40 0
      vertex 12.0518 39.6611 0
    endloop
  endfacet
  facet normal 0 0 -1
    outer loop
      vertex 12.5381 40 0
      vertex 12.0518 40.3389 0
      vertex 24.2002 48.7998 0
    endloop
  endfacet
  facet normal 0 0 -1
    outer loop
      vertex 12.0518 39.6611 0
      vertex 11.5645 40 0
      vertex 12.0518 40.3389 0
    endloop
  endfacet
  facet normal 0 0 -1
    outer loop
      vertex 2.2002 32.7998 0
      vertex 11.5645 40 0
      vertex 12.0518 39.6611 0
    endloop
  endfacet
  facet normal 0 0 -1
    outer loop
      vertex 2.2002 32.7998 0
      vertex 1.7998 33.2002 0
      vertex 11.5645 40 0
    endloop
  endfacet
  facet normal 0 0 -1
    outer loop
      vertex 1.2002 32.7998 0
      vertex 2.2002 32.7998 0
      vertex 1.2002 31.2002 0
    endloop
  endfacet
  facet normal 0 0 -1
    outer loop
      vertex 2.2002 32.7998 0
      vertex 1.2002 32.7998 0
      vertex 1.7998 33.2002 0
    endloop
  endfacet
  facet normal 0 0 -1
    outer loop
      vertex 26.7002 38.2002 0
      vertex 25.9004 39 0
      vertex 26.7002 42.7998 0
    endloop
  endfacet
  facet normal 0 0 -1
    outer loop
      vertex 25.4004 38.2002 0
      vertex 25.9004 39 0
      vertex 26.7002 38.2002 0
    endloop
  endfacet
  facet normal 0 0 -1
    outer loop
      vertex 24.5996 38.2002 0
      vertex 25.4004 38.2002 0
      vertex 24.5996 31.5996 0
    endloop
  endfacet
  facet normal 0 0 -1
    outer loop
      vertex 24.5996 38.2002 0
      vertex 25.9004 39 0
      vertex 25.4004 38.2002 0
    endloop
  endfacet
  facet normal 0 0 -1
    outer loop
      vertex 24.5996 38.2002 0
      vertex 24.0996 39 0
      vertex 25.9004 39 0
    endloop
  endfacet
  facet normal -0 0 -1
    outer loop
      vertex 24.0996 39 0
      vertex 23.2998 38.2002 0
      vertex 24.0996 42 0
    endloop
  endfacet
  facet normal 0 0 -1
    outer loop
      vertex 23.2998 38.2002 0
      vertex 24.0996 39 0
      vertex 24.5996 38.2002 0
    endloop
  endfacet
  facet normal 0 0 -1
    outer loop
      vertex 25.9004 42 0
      vertex 26.7002 42.7998 0
      vertex 25.9004 39 0
    endloop
  endfacet
  facet normal 0 0 -1
    outer loop
      vertex 25.9004 42 0
      vertex 25.4004 42.7998 0
      vertex 26.7002 42.7998 0
    endloop
  endfacet
  facet normal 0 0 -1
    outer loop
      vertex 25.4004 42.7998 0
      vertex 24.5996 42.7998 0
      vertex 25.4004 48.4004 0
    endloop
  endfacet
  facet normal 0 0 -1
    outer loop
      vertex 25.9004 42 0
      vertex 24.5996 42.7998 0
      vertex 25.4004 42.7998 0
    endloop
  endfacet
  facet normal 0 0 -1
    outer loop
      vertex 24.0996 42 0
      vertex 24.5996 42.7998 0
      vertex 25.9004 42 0
    endloop
  endfacet
  facet normal 0 0 -1
    outer loop
      vertex 24.0996 42 0
      vertex 23.2998 42.7998 0
      vertex 24.5996 42.7998 0
    endloop
  endfacet
  facet normal 0 0 -1
    outer loop
      vertex 23.2998 42.7998 0
      vertex 24.0996 42 0
      vertex 23.2998 38.2002 0
    endloop
  endfacet
  facet normal 0 0 -1
    outer loop
      vertex 24.2002 31.2002 0
      vertex 12.5381 40 0
      vertex 24.5996 31.5996 0
    endloop
  endfacet
  facet normal 0 -0 -1
    outer loop
      vertex 12.5381 40 0
      vertex 24.2002 31.2002 0
      vertex 12.0518 39.6611 0
    endloop
  endfacet
  facet normal 0 0 -1
    outer loop
      vertex 37.4619 40 0
      vertex 25.7998 48.7998 0
      vertex 37.9482 40.3389 0
    endloop
  endfacet
  facet normal 0 -0 -1
    outer loop
      vertex 25.7998 48.7998 0
      vertex 37.4619 40 0
      vertex 25.4004 48.4004 0
    endloop
  endfacet
  facet normal 0 0 -1
    outer loop
      vertex 47.7998 47.2002 0
      vertex 48.7998 47.2002 0
      vertex 48.2002 46.7998 0
    endloop
  endfacet
  facet normal 0 0 -1
    outer loop
      vertex 48.7998 47.2002 0
      vertex 47.7998 47.2002 0
      vertex 48.7998 48.7998 0
    endloop
  endfacet
  facet normal 0 0 -1
    outer loop
      vertex 38.4355 40 0
      vertex 47.7998 47.2002 0
      vertex 48.2002 46.7998 0
    endloop
  endfacet
  facet normal 0 0 -1
    outer loop
      vertex 37.9482 40.3389 0
      vertex 38.4355 40 0
      vertex 37.9482 39.6611 0
    endloop
  endfacet
  facet normal 0 0 -1
    outer loop
      vertex 38.4355 40 0
      vertex 37.9482 40.3389 0
      vertex 47.7998 47.2002 0
    endloop
  endfacet
  facet normal 0 0 -1
    outer loop
      vertex 37.9482 39.6611 0
      vertex 37.4619 40 0
      vertex 37.9482 40.3389 0
    endloop
  endfacet
  facet normal 0 0 -1
    outer loop
      vertex 25.7998 31.2002 0
      vertex 37.4619 40 0
      vertex 37.9482 39.6611 0
    endloop
  endfacet
  facet normal 0 0 -1
    outer loop
      vertex 37.4619 40 0
      vertex 25.7998 31.2002 0
      vertex 25.4004 31.5996 0
    endloop
  endfacet
  facet normal 0 0 -1
    outer loop
      vertex 47.7998 32.7998 0
      vertex 48.7998 32.7998 0
      vertex 48.7998 31.2002 0
    endloop
  endfacet
  facet normal 0 0 -1
    outer loop
      vertex 48.7998 32.7998 0
      vertex 47.7998 32.7998 0
      vertex 48.2002 33.2002 0
    endloop
  endfacet
  facet normal 0 0 -1
    outer loop
      vertex 47.7998 32.7998 0
      vertex 38.4355 40 0
      vertex 48.2002 33.2002 0
    endloop
  endfacet
  facet normal 0 -0 -1
    outer loop
      vertex 38.4355 40 0
      vertex 47.7998 32.7998 0
      vertex 37.9482 39.6611 0
    endloop
  endfacet
  facet normal 0 0 -1
    outer loop
      vertex 48.9004 30 0
      vertex 50 28.7998 0
      vertex 49 28.7998 0
    endloop
  endfacet
  facet normal 0 0 -1
    outer loop
      vertex 50 28.7998 0
      vertex 48.7998 32.7998 0
      vertex 50 51.2002 0
    endloop
  endfacet
  facet normal 0 0 -1
    outer loop
      vertex 48.7998 31.2002 0
      vertex 50 28.7998 0
      vertex 48.9004 30 0
    endloop
  endfacet
  facet normal 0 0 -1
    outer loop
      vertex 48.7998 47.2002 0
      vertex 50 51.2002 0
      vertex 48.7998 32.7998 0
    endloop
  endfacet
  facet normal 0 0 -1
    outer loop
      vertex 50 28.7998 0
      vertex 48.7998 31.2002 0
      vertex 48.7998 32.7998 0
    endloop
  endfacet
  facet normal 0 0 -1
    outer loop
      vertex 48.9004 30 0
      vertex 25.7998 31.2002 0
      vertex 48.7998 31.2002 0
    endloop
  endfacet
  facet normal 0 0 -1
    outer loop
      vertex 25.4004 31.5996 0
      vertex 24.5996 31.5996 0
      vertex 25.4004 38.2002 0
    endloop
  endfacet
  facet normal 0 0 -1
    outer loop
      vertex 25.7998 31.2002 0
      vertex 24.5996 31.5996 0
      vertex 25.4004 31.5996 0
    endloop
  endfacet
  facet normal 0 0 -1
    outer loop
      vertex 25.7998 31.2002 0
      vertex 24.2002 31.2002 0
      vertex 24.5996 31.5996 0
    endloop
  endfacet
  facet normal 0 0 -1
    outer loop
      vertex 48.9004 30 0
      vertex 24.2002 31.2002 0
      vertex 25.7998 31.2002 0
    endloop
  endfacet
  facet normal 0 0 -1
    outer loop
      vertex 1.09961 30 0
      vertex 24.2002 31.2002 0
      vertex 48.9004 30 0
    endloop
  endfacet
  facet normal 0 0 -1
    outer loop
      vertex 0 28.7998 0
      vertex 1.2002 32.7998 0
      vertex 1.2002 31.2002 0
    endloop
  endfacet
  facet normal -0 0 -1
    outer loop
      vertex 1.2002 32.7998 0
      vertex 0 28.7998 0
      vertex 1.2002 47.2002 0
    endloop
  endfacet
  facet normal 0 0 -1
    outer loop
      vertex 0 28.7998 0
      vertex 1.2002 31.2002 0
      vertex 1.09961 30 0
    endloop
  endfacet
  facet normal -0 0 -1
    outer loop
      vertex 24.2002 31.2002 0
      vertex 1.09961 30 0
      vertex 1.2002 31.2002 0
    endloop
  endfacet
  facet normal 0 0 -1
    outer loop
      vertex 48.7998 48.7998 0
      vertex 50 51.2002 0
      vertex 48.7998 47.2002 0
    endloop
  endfacet
  facet normal -0 0 -1
    outer loop
      vertex 50 51.2002 0
      vertex 48.9004 50 0
      vertex 49 51.2002 0
    endloop
  endfacet
  facet normal 0 0 -1
    outer loop
      vertex 50 51.2002 0
      vertex 48.7998 48.7998 0
      vertex 48.9004 50 0
    endloop
  endfacet
  facet normal 0 0 -1
    outer loop
      vertex 25.7998 48.7998 0
      vertex 48.9004 50 0
      vertex 48.7998 48.7998 0
    endloop
  endfacet
  facet normal 0 0 -1
    outer loop
      vertex 24.5996 48.4004 0
      vertex 25.4004 48.4004 0
      vertex 24.5996 42.7998 0
    endloop
  endfacet
  facet normal 0 0 -1
    outer loop
      vertex 24.5996 48.4004 0
      vertex 25.7998 48.7998 0
      vertex 25.4004 48.4004 0
    endloop
  endfacet
  facet normal 0 0 -1
    outer loop
      vertex 24.2002 48.7998 0
      vertex 25.7998 48.7998 0
      vertex 24.5996 48.4004 0
    endloop
  endfacet
  facet normal 0 0 -1
    outer loop
      vertex 24.2002 48.7998 0
      vertex 48.9004 50 0
      vertex 25.7998 48.7998 0
    endloop
  endfacet
  facet normal 0 0 -1
    outer loop
      vertex 1.09961 50 0
      vertex 24.2002 48.7998 0
      vertex 1.2002 48.7998 0
    endloop
  endfacet
  facet normal 0 0 -1
    outer loop
      vertex 24.2002 48.7998 0
      vertex 1.09961 50 0
      vertex 48.9004 50 0
    endloop
  endfacet
  facet normal 0 0 -1
    outer loop
      vertex 0 51.2002 0
      vertex 1.2002 47.2002 0
      vertex 0 28.7998 0
    endloop
  endfacet
  facet normal 0 0 -1
    outer loop
      vertex 0 28.7998 0
      vertex 1.09961 30 0
      vertex 1 28.7998 0
    endloop
  endfacet
  facet normal 0 0 -1
    outer loop
      vertex 1.2002 47.2002 0
      vertex 0 51.2002 0
      vertex 1.2002 48.7998 0
    endloop
  endfacet
  facet normal 0 0 -1
    outer loop
      vertex 1.2002 48.7998 0
      vertex 0 51.2002 0
      vertex 1.09961 50 0
    endloop
  endfacet
  facet normal 0 0 -1
    outer loop
      vertex 1.09961 50 0
      vertex 0 51.2002 0
      vertex 1 51.2002 0
    endloop
  endfacet
  facet normal 0 0 1
    outer loop
      vertex 11.5645 40 1.2
      vertex 2.2002 32.7998 1.2
      vertex 12.0518 39.6611 1.2
    endloop
  endfacet
  facet normal -0 0 1
    outer loop
      vertex 1.7998 33.2002 1.2
      vertex 2.2002 32.7998 1.2
      vertex 11.5645 40 1.2
    endloop
  endfacet
  facet normal 0 0 1
    outer loop
      vertex 1.2002 32.7998 1.2
      vertex 2.2002 32.7998 1.2
      vertex 1.7998 33.2002 1.2
    endloop
  endfacet
  facet normal 0 0 1
    outer loop
      vertex 2.2002 32.7998 1.2
      vertex 1.2002 32.7998 1.2
      vertex 1.2002 31.2002 1.2
    endloop
  endfacet
  facet normal 0 0 1
    outer loop
      vertex 12.5381 40 1.2
      vertex 24.2002 31.2002 1.2
      vertex 24.5996 31.5996 1.2
    endloop
  endfacet
  facet normal 0 0 1
    outer loop
      vertex 12.0518 39.6611 1.2
      vertex 12.5381 40 1.2
      vertex 12.0518 40.3389 1.2
    endloop
  endfacet
  facet normal 0 0 1
    outer loop
      vertex 12.5381 40 1.2
      vertex 12.0518 39.6611 1.2
      vertex 24.2002 31.2002 1.2
    endloop
  endfacet
  facet normal 0 0 1
    outer loop
      vertex 12.0518 40.3389 1.2
      vertex 11.5645 40 1.2
      vertex 12.0518 39.6611 1.2
    endloop
  endfacet
  facet normal 0 0 1
    outer loop
      vertex 2.2002 47.2002 1.2
      vertex 11.5645 40 1.2
      vertex 12.0518 40.3389 1.2
    endloop
  endfacet
  facet normal 0 0 1
    outer loop
      vertex 2.2002 47.2002 1.2
      vertex 1.7998 46.7998 1.2
      vertex 11.5645 40 1.2
    endloop
  endfacet
  facet normal 0 0 1
    outer loop
      vertex 1.2002 47.2002 1.2
      vertex 2.2002 47.2002 1.2
      vertex 1.2002 48.7998 1.2
    endloop
  endfacet
  facet normal 0 0 1
    outer loop
      vertex 2.2002 47.2002 1.2
      vertex 1.2002 47.2002 1.2
      vertex 1.7998 46.7998 1.2
    endloop
  endfacet
  facet normal 0 0 1
    outer loop
      vertex 26.7002 42.7998 1.2
      vertex 25.9004 42 1.2
      vertex 26.7002 38.2002 1.2
    endloop
  endfacet
  facet normal -0 0 1
    outer loop
      vertex 25.4004 42.7998 1.2
      vertex 25.9004 42 1.2
      vertex 26.7002 42.7998 1.2
    endloop
  endfacet
  facet normal 0 0 1
    outer loop
      vertex 24.5996 42.7998 1.2
      vertex 25.4004 42.7998 1.2
      vertex 24.5996 48.4004 1.2
    endloop
  endfacet
  facet normal -0 0 1
    outer loop
      vertex 24.5996 42.7998 1.2
      vertex 25.9004 42 1.2
      vertex 25.4004 42.7998 1.2
    endloop
  endfacet
  facet normal 0 0 1
    outer loop
      vertex 24.5996 42.7998 1.2
      vertex 24.0996 42 1.2
      vertex 25.9004 42 1.2
    endloop
  endfacet
  facet normal 0 0 1
    outer loop
      vertex 24.0996 42 1.2
      vertex 23.2998 42.7998 1.2
      vertex 24.0996 39 1.2
    endloop
  endfacet
  facet normal -0 0 1
    outer loop
      vertex 23.2998 42.7998 1.2
      vertex 24.0996 42 1.2
      vertex 24.5996 42.7998 1.2
    endloop
  endfacet
  facet normal -0 0 1
    outer loop
      vertex 25.9004 39 1.2
      vertex 26.7002 38.2002 1.2
      vertex 25.9004 42 1.2
    endloop
  endfacet
  facet normal 0 0 1
    outer loop
      vertex 25.9004 39 1.2
      vertex 25.4004 38.2002 1.2
      vertex 26.7002 38.2002 1.2
    endloop
  endfacet
  facet normal 0 0 1
    outer loop
      vertex 25.4004 38.2002 1.2
      vertex 24.5996 38.2002 1.2
      vertex 25.4004 31.5996 1.2
    endloop
  endfacet
  facet normal 0 0 1
    outer loop
      vertex 25.9004 39 1.2
      vertex 24.5996 38.2002 1.2
      vertex 25.4004 38.2002 1.2
    endloop
  endfacet
  facet normal -0 0 1
    outer loop
      vertex 24.0996 39 1.2
      vertex 24.5996 38.2002 1.2
      vertex 25.9004 39 1.2
    endloop
  endfacet
  facet normal 0 0 1
    outer loop
      vertex 24.0996 39 1.2
      vertex 23.2998 38.2002 1.2
      vertex 24.5996 38.2002 1.2
    endloop
  endfacet
  facet normal 0 0 1
    outer loop
      vertex 23.2998 38.2002 1.2
      vertex 24.0996 39 1.2
      vertex 23.2998 42.7998 1.2
    endloop
  endfacet
  facet normal 0 0 1
    outer loop
      vertex 24.2002 48.7998 1.2
      vertex 12.5381 40 1.2
      vertex 24.5996 48.4004 1.2
    endloop
  endfacet
  facet normal 0 -0 1
    outer loop
      vertex 12.5381 40 1.2
      vertex 24.2002 48.7998 1.2
      vertex 12.0518 40.3389 1.2
    endloop
  endfacet
  facet normal 0 0 1
    outer loop
      vertex 37.4619 40 1.2
      vertex 25.7998 31.2002 1.2
      vertex 37.9482 39.6611 1.2
    endloop
  endfacet
  facet normal 0 -0 1
    outer loop
      vertex 25.7998 31.2002 1.2
      vertex 37.4619 40 1.2
      vertex 25.4004 31.5996 1.2
    endloop
  endfacet
  facet normal 0 0 1
    outer loop
      vertex 47.7998 32.7998 1.2
      vertex 48.7998 32.7998 1.2
      vertex 48.2002 33.2002 1.2
    endloop
  endfacet
  facet normal 0 0 1
    outer loop
      vertex 48.7998 32.7998 1.2
      vertex 47.7998 32.7998 1.2
      vertex 48.7998 31.2002 1.2
    endloop
  endfacet
  facet normal 0 0 1
    outer loop
      vertex 38.4355 40 1.2
      vertex 47.7998 32.7998 1.2
      vertex 48.2002 33.2002 1.2
    endloop
  endfacet
  facet normal 0 0 1
    outer loop
      vertex 37.9482 39.6611 1.2
      vertex 38.4355 40 1.2
      vertex 37.9482 40.3389 1.2
    endloop
  endfacet
  facet normal 0 0 1
    outer loop
      vertex 38.4355 40 1.2
      vertex 37.9482 39.6611 1.2
      vertex 47.7998 32.7998 1.2
    endloop
  endfacet
  facet normal 0 0 1
    outer loop
      vertex 37.9482 40.3389 1.2
      vertex 37.4619 40 1.2
      vertex 37.9482 39.6611 1.2
    endloop
  endfacet
  facet normal 0 0 1
    outer loop
      vertex 25.7998 48.7998 1.2
      vertex 37.4619 40 1.2
      vertex 37.9482 40.3389 1.2
    endloop
  endfacet
  facet normal 0 0 1
    outer loop
      vertex 37.4619 40 1.2
      vertex 25.7998 48.7998 1.2
      vertex 25.4004 48.4004 1.2
    endloop
  endfacet
  facet normal 0 0 1
    outer loop
      vertex 47.7998 47.2002 1.2
      vertex 48.7998 47.2002 1.2
      vertex 48.7998 48.7998 1.2
    endloop
  endfacet
  facet normal 0 0 1
    outer loop
      vertex 48.7998 47.2002 1.2
      vertex 47.7998 47.2002 1.2
      vertex 48.2002 46.7998 1.2
    endloop
  endfacet
  facet normal 0 0 1
    outer loop
      vertex 47.7998 47.2002 1.2
      vertex 38.4355 40 1.2
      vertex 48.2002 46.7998 1.2
    endloop
  endfacet
  facet normal 0 -0 1
    outer loop
      vertex 38.4355 40 1.2
      vertex 47.7998 47.2002 1.2
      vertex 37.9482 40.3389 1.2
    endloop
  endfacet
  facet normal 0 0 1
    outer loop
      vertex 48.9004 50 1.2
      vertex 50 51.2002 1.2
      vertex 49 51.2002 1.2
    endloop
  endfacet
  facet normal 0 0 1
    outer loop
      vertex 50 51.2002 1.2
      vertex 48.7998 47.2002 1.2
      vertex 50 28.7998 1.2
    endloop
  endfacet
  facet normal 0 0 1
    outer loop
      vertex 48.7998 48.7998 1.2
      vertex 50 51.2002 1.2
      vertex 48.9004 50 1.2
    endloop
  endfacet
  facet normal -0 0 1
    outer loop
      vertex 48.7998 32.7998 1.2
      vertex 50 28.7998 1.2
      vertex 48.7998 47.2002 1.2
    endloop
  endfacet
  facet normal 0 0 1
    outer loop
      vertex 50 51.2002 1.2
      vertex 48.7998 48.7998 1.2
      vertex 48.7998 47.2002 1.2
    endloop
  endfacet
  facet normal 0 0 1
    outer loop
      vertex 48.9004 50 1.2
      vertex 25.7998 48.7998 1.2
      vertex 48.7998 48.7998 1.2
    endloop
  endfacet
  facet normal 0 0 1
    outer loop
      vertex 25.4004 48.4004 1.2
      vertex 24.5996 48.4004 1.2
      vertex 25.4004 42.7998 1.2
    endloop
  endfacet
  facet normal 0 0 1
    outer loop
      vertex 25.7998 48.7998 1.2
      vertex 24.5996 48.4004 1.2
      vertex 25.4004 48.4004 1.2
    endloop
  endfacet
  facet normal 0 0 1
    outer loop
      vertex 25.7998 48.7998 1.2
      vertex 24.2002 48.7998 1.2
      vertex 24.5996 48.4004 1.2
    endloop
  endfacet
  facet normal 0 0 1
    outer loop
      vertex 48.9004 50 1.2
      vertex 24.2002 48.7998 1.2
      vertex 25.7998 48.7998 1.2
    endloop
  endfacet
  facet normal -0 0 1
    outer loop
      vertex 1.09961 50 1.2
      vertex 24.2002 48.7998 1.2
      vertex 48.9004 50 1.2
    endloop
  endfacet
  facet normal 0 0 1
    outer loop
      vertex 0 51.2002 1.2
      vertex 1.2002 47.2002 1.2
      vertex 1.2002 48.7998 1.2
    endloop
  endfacet
  facet normal 0 0 1
    outer loop
      vertex 1.2002 47.2002 1.2
      vertex 0 51.2002 1.2
      vertex 1.2002 32.7998 1.2
    endloop
  endfacet
  facet normal 0 0 1
    outer loop
      vertex 0 51.2002 1.2
      vertex 1.2002 48.7998 1.2
      vertex 1.09961 50 1.2
    endloop
  endfacet
  facet normal 0 0 1
    outer loop
      vertex 24.2002 48.7998 1.2
      vertex 1.09961 50 1.2
      vertex 1.2002 48.7998 1.2
    endloop
  endfacet
  facet normal -0 0 1
    outer loop
      vertex 48.7998 31.2002 1.2
      vertex 50 28.7998 1.2
      vertex 48.7998 32.7998 1.2
    endloop
  endfacet
  facet normal 0 0 1
    outer loop
      vertex 50 28.7998 1.2
      vertex 48.9004 30 1.2
      vertex 49 28.7998 1.2
    endloop
  endfacet
  facet normal 0 0 1
    outer loop
      vertex 50 28.7998 1.2
      vertex 48.7998 31.2002 1.2
      vertex 48.9004 30 1.2
    endloop
  endfacet
  facet normal -0 0 1
    outer loop
      vertex 25.7998 31.2002 1.2
      vertex 48.9004 30 1.2
      vertex 48.7998 31.2002 1.2
    endloop
  endfacet
  facet normal 0 0 1
    outer loop
      vertex 24.5996 31.5996 1.2
      vertex 25.4004 31.5996 1.2
      vertex 24.5996 38.2002 1.2
    endloop
  endfacet
  facet normal -0 0 1
    outer loop
      vertex 24.5996 31.5996 1.2
      vertex 25.7998 31.2002 1.2
      vertex 25.4004 31.5996 1.2
    endloop
  endfacet
  facet normal 0 0 1
    outer loop
      vertex 24.2002 31.2002 1.2
      vertex 25.7998 31.2002 1.2
      vertex 24.5996 31.5996 1.2
    endloop
  endfacet
  facet normal -0 0 1
    outer loop
      vertex 24.2002 31.2002 1.2
      vertex 48.9004 30 1.2
      vertex 25.7998 31.2002 1.2
    endloop
  endfacet
  facet normal 0 0 1
    outer loop
      vertex 1.09961 30 1.2
      vertex 24.2002 31.2002 1.2
      vertex 1.2002 31.2002 1.2
    endloop
  endfacet
  facet normal 0 0 1
    outer loop
      vertex 24.2002 31.2002 1.2
      vertex 1.09961 30 1.2
      vertex 48.9004 30 1.2
    endloop
  endfacet
  facet normal 0 0 1
    outer loop
      vertex 0 28.7998 1.2
      vertex 1.2002 32.7998 1.2
      vertex 0 51.2002 1.2
    endloop
  endfacet
  facet normal -0 0 1
    outer loop
      vertex 0 51.2002 1.2
      vertex 1.09961 50 1.2
      vertex 1 51.2002 1.2
    endloop
  endfacet
  facet normal 0 0 1
    outer loop
      vertex 1.2002 32.7998 1.2
      vertex 0 28.7998 1.2
      vertex 1.2002 31.2002 1.2
    endloop
  endfacet
  facet normal 0 0 1
    outer loop
      vertex 1.2002 31.2002 1.2
      vertex 0 28.7998 1.2
      vertex 1.09961 30 1.2
    endloop
  endfacet
  facet normal 0 0 1
    outer loop
      vertex 1.09961 30 1.2
      vertex 0 28.7998 1.2
      vertex 1 28.7998 1.2
    endloop
  endfacet
  facet normal 0 -1 0
    outer loop
      vertex 1.09961 30 0
      vertex 48.9004 30 1.2
      vertex 1.09961 30 1.2
    endloop
  endfacet
  facet normal 0 -1 -0
    outer loop
      vertex 48.9004 30 1.2
      vertex 1.09961 30 0
      vertex 48.9004 30 0
    endloop
  endfacet
  facet normal -0.996574 -0.0827019 0
    outer loop
      vertex 49 28.7998 0
      vertex 48.9004 30 1.2
      vertex 48.9004 30 0
    endloop
  endfacet
  facet normal -0.996574 -0.0827019 0
    outer loop
      vertex 48.9004 30 1.2
      vertex 49 28.7998 0
      vertex 49 28.7998 1.2
    endloop
  endfacet
  facet normal 0 -1 0
    outer loop
      vertex 49 28.7998 0
      vertex 50 28.7998 1.2
      vertex 49 28.7998 1.2
    endloop
  endfacet
  facet normal 0 -1 -0
    outer loop
      vertex 50 28.7998 1.2
      vertex 49 28.7998 0
      vertex 50 28.7998 0
    endloop
  endfacet
  facet normal 1 -0 0
    outer loop
      vertex 50 28.7998 1.2
      vertex 50 51.2002 0
      vertex 50 51.2002 1.2
    endloop
  endfacet
  facet normal 1 0 0
    outer loop
      vertex 50 51.2002 0
      vertex 50 28.7998 1.2
      vertex 50 28.7998 0
    endloop
  endfacet
  facet normal 0 1 -0
    outer loop
      vertex 50 51.2002 0
      vertex 49 51.2002 1.2
      vertex 50 51.2002 1.2
    endloop
  endfacet
  facet normal 0 1 0
    outer loop
      vertex 49 51.2002 1.2
      vertex 50 51.2002 0
      vertex 49 51.2002 0
    endloop
  endfacet
  facet normal -0.996574 0.0827019 0
    outer loop
      vertex 48.9004 50 0
      vertex 49 51.2002 1.2
      vertex 49 51.2002 0
    endloop
  endfacet
  facet normal -0.996574 0.0827019 0
    outer loop
      vertex 49 51.2002 1.2
      vertex 48.9004 50 0
      vertex 48.9004 50 1.2
    endloop
  endfacet
  facet normal 0 1 -0
    outer loop
      vertex 48.9004 50 0
      vertex 1.09961 50 1.2
      vertex 48.9004 50 1.2
    endloop
  endfacet
  facet normal 0 1 0
    outer loop
      vertex 1.09961 50 1.2
      vertex 48.9004 50 0
      vertex 1.09961 50 0
    endloop
  endfacet
  facet normal 0.996574 0.0827101 0
    outer loop
      vertex 1.09961 50 1.2
      vertex 1 51.2002 0
      vertex 1 51.2002 1.2
    endloop
  endfacet
  facet normal 0.996574 0.0827101 0
    outer loop
      vertex 1 51.2002 0
      vertex 1.09961 50 1.2
      vertex 1.09961 50 0
    endloop
  endfacet
  facet normal 0 1 -0
    outer loop
      vertex 1 51.2002 0
      vertex 0 51.2002 1.2
      vertex 1 51.2002 1.2
    endloop
  endfacet
  facet normal 0 1 0
    outer loop
      vertex 0 51.2002 1.2
      vertex 1 51.2002 0
      vertex 0 51.2002 0
    endloop
  endfacet
  facet normal -1 0 0
    outer loop
      vertex 0 28.7998 0
      vertex 0 51.2002 1.2
      vertex 0 51.2002 0
    endloop
  endfacet
  facet normal -1 -0 0
    outer loop
      vertex 0 51.2002 1.2
      vertex 0 28.7998 0
      vertex 0 28.7998 1.2
    endloop
  endfacet
  facet normal 0 -1 0
    outer loop
      vertex 0 28.7998 0
      vertex 1 28.7998 1.2
      vertex 0 28.7998 1.2
    endloop
  endfacet
  facet normal 0 -1 -0
    outer loop
      vertex 1 28.7998 1.2
      vertex 0 28.7998 0
      vertex 1 28.7998 0
    endloop
  endfacet
  facet normal 0.996574 -0.0827101 0
    outer loop
      vertex 1 28.7998 1.2
      vertex 1.09961 30 0
      vertex 1.09961 30 1.2
    endloop
  endfacet
  facet normal 0.996574 -0.0827101 0
    outer loop
      vertex 1.09961 30 0
      vertex 1 28.7998 1.2
      vertex 1 28.7998 0
    endloop
  endfacet
  facet normal 0.847939 0.530094 0
    outer loop
      vertex 2.2002 47.2002 1.2
      vertex 1.2002 48.7998 0
      vertex 1.2002 48.7998 1.2
    endloop
  endfacet
  facet normal 0.847939 0.530094 0
    outer loop
      vertex 1.2002 48.7998 0
      vertex 2.2002 47.2002 1.2
      vertex 2.2002 47.2002 0
    endloop
  endfacet
  facet normal 0 -1 0
    outer loop
      vertex 1.2002 48.7998 0
      vertex 24.2002 48.7998 1.2
      vertex 1.2002 48.7998 1.2
    endloop
  endfacet
  facet normal 0 -1 -0
    outer loop
      vertex 24.2002 48.7998 1.2
      vertex 1.2002 48.7998 0
      vertex 24.2002 48.7998 0
    endloop
  endfacet
  facet normal -0.571512 0.820594 0
    outer loop
      vertex 24.2002 48.7998 0
      vertex 12.0518 40.3389 1.2
      vertex 24.2002 48.7998 1.2
    endloop
  endfacet
  facet normal -0.571512 0.820594 0
    outer loop
      vertex 12.0518 40.3389 1.2
      vertex 24.2002 48.7998 0
      vertex 12.0518 40.3389 0
    endloop
  endfacet
  facet normal 0.571514 0.820592 -0
    outer loop
      vertex 12.0518 40.3389 0
      vertex 2.2002 47.2002 1.2
      vertex 12.0518 40.3389 1.2
    endloop
  endfacet
  facet normal 0.571514 0.820592 0
    outer loop
      vertex 2.2002 47.2002 1.2
      vertex 12.0518 40.3389 0
      vertex 2.2002 47.2002 0
    endloop
  endfacet
  facet normal 0 -1 0
    outer loop
      vertex 25.7998 48.7998 0
      vertex 48.7998 48.7998 1.2
      vertex 25.7998 48.7998 1.2
    endloop
  endfacet
  facet normal 0 -1 -0
    outer loop
      vertex 48.7998 48.7998 1.2
      vertex 25.7998 48.7998 0
      vertex 48.7998 48.7998 0
    endloop
  endfacet
  facet normal -0.847939 0.530094 0
    outer loop
      vertex 47.7998 47.2002 0
      vertex 48.7998 48.7998 1.2
      vertex 48.7998 48.7998 0
    endloop
  endfacet
  facet normal -0.847939 0.530094 0
    outer loop
      vertex 48.7998 48.7998 1.2
      vertex 47.7998 47.2002 0
      vertex 47.7998 47.2002 1.2
    endloop
  endfacet
  facet normal -0.571514 0.820592 0
    outer loop
      vertex 47.7998 47.2002 0
      vertex 37.9482 40.3389 1.2
      vertex 47.7998 47.2002 1.2
    endloop
  endfacet
  facet normal -0.571514 0.820592 0
    outer loop
      vertex 37.9482 40.3389 1.2
      vertex 47.7998 47.2002 0
      vertex 37.9482 40.3389 0
    endloop
  endfacet
  facet normal 0.571512 0.820594 -0
    outer loop
      vertex 37.9482 40.3389 0
      vertex 25.7998 48.7998 1.2
      vertex 37.9482 40.3389 1.2
    endloop
  endfacet
  facet normal 0.571512 0.820594 0
    outer loop
      vertex 25.7998 48.7998 1.2
      vertex 37.9482 40.3389 0
      vertex 25.7998 48.7998 0
    endloop
  endfacet
  facet normal 0.571513 -0.820593 0
    outer loop
      vertex 12.5381 40 0
      vertex 24.5996 48.4004 1.2
      vertex 12.5381 40 1.2
    endloop
  endfacet
  facet normal 0.571513 -0.820593 0
    outer loop
      vertex 24.5996 48.4004 1.2
      vertex 12.5381 40 0
      vertex 24.5996 48.4004 0
    endloop
  endfacet
  facet normal -1 0 0
    outer loop
      vertex 24.5996 42.7998 0
      vertex 24.5996 48.4004 1.2
      vertex 24.5996 48.4004 0
    endloop
  endfacet
  facet normal -1 -0 0
    outer loop
      vertex 24.5996 48.4004 1.2
      vertex 24.5996 42.7998 0
      vertex 24.5996 42.7998 1.2
    endloop
  endfacet
  facet normal 0 1 -0
    outer loop
      vertex 24.5996 42.7998 0
      vertex 23.2998 42.7998 1.2
      vertex 24.5996 42.7998 1.2
    endloop
  endfacet
  facet normal 0 1 0
    outer loop
      vertex 23.2998 42.7998 1.2
      vertex 24.5996 42.7998 0
      vertex 23.2998 42.7998 0
    endloop
  endfacet
  facet normal -1 0 0
    outer loop
      vertex 23.2998 38.2002 0
      vertex 23.2998 42.7998 1.2
      vertex 23.2998 42.7998 0
    endloop
  endfacet
  facet normal -1 -0 0
    outer loop
      vertex 23.2998 42.7998 1.2
      vertex 23.2998 38.2002 0
      vertex 23.2998 38.2002 1.2
    endloop
  endfacet
  facet normal 0 -1 0
    outer loop
      vertex 23.2998 38.2002 0
      vertex 24.5996 38.2002 1.2
      vertex 23.2998 38.2002 1.2
    endloop
  endfacet
  facet normal 0 -1 -0
    outer loop
      vertex 24.5996 38.2002 1.2
      vertex 23.2998 38.2002 0
      vertex 24.5996 38.2002 0
    endloop
  endfacet
  facet normal -1 0 0
    outer loop
      vertex 24.5996 31.5996 0
      vertex 24.5996 38.2002 1.2
      vertex 24.5996 38.2002 0
    endloop
  endfacet
  facet normal -1 -0 0
    outer loop
      vertex 24.5996 38.2002 1.2
      vertex 24.5996 31.5996 0
      vertex 24.5996 31.5996 1.2
    endloop
  endfacet
  facet normal 0.571513 0.820593 -0
    outer loop
      vertex 24.5996 31.5996 0
      vertex 12.5381 40 1.2
      vertex 24.5996 31.5996 1.2
    endloop
  endfacet
  facet normal 0.571513 0.820593 0
    outer loop
      vertex 12.5381 40 1.2
      vertex 24.5996 31.5996 0
      vertex 12.5381 40 0
    endloop
  endfacet
  facet normal 0 -1 0
    outer loop
      vertex 25.4004 38.2002 0
      vertex 26.7002 38.2002 1.2
      vertex 25.4004 38.2002 1.2
    endloop
  endfacet
  facet normal 0 -1 -0
    outer loop
      vertex 26.7002 38.2002 1.2
      vertex 25.4004 38.2002 0
      vertex 26.7002 38.2002 0
    endloop
  endfacet
  facet normal 1 -0 0
    outer loop
      vertex 26.7002 38.2002 1.2
      vertex 26.7002 42.7998 0
      vertex 26.7002 42.7998 1.2
    endloop
  endfacet
  facet normal 1 0 0
    outer loop
      vertex 26.7002 42.7998 0
      vertex 26.7002 38.2002 1.2
      vertex 26.7002 38.2002 0
    endloop
  endfacet
  facet normal 0 1 -0
    outer loop
      vertex 26.7002 42.7998 0
      vertex 25.4004 42.7998 1.2
      vertex 26.7002 42.7998 1.2
    endloop
  endfacet
  facet normal 0 1 0
    outer loop
      vertex 25.4004 42.7998 1.2
      vertex 26.7002 42.7998 0
      vertex 25.4004 42.7998 0
    endloop
  endfacet
  facet normal 1 -0 0
    outer loop
      vertex 25.4004 42.7998 1.2
      vertex 25.4004 48.4004 0
      vertex 25.4004 48.4004 1.2
    endloop
  endfacet
  facet normal 1 0 0
    outer loop
      vertex 25.4004 48.4004 0
      vertex 25.4004 42.7998 1.2
      vertex 25.4004 42.7998 0
    endloop
  endfacet
  facet normal -0.571513 -0.820593 0
    outer loop
      vertex 25.4004 48.4004 0
      vertex 37.4619 40 1.2
      vertex 25.4004 48.4004 1.2
    endloop
  endfacet
  facet normal -0.571513 -0.820593 -0
    outer loop
      vertex 37.4619 40 1.2
      vertex 25.4004 48.4004 0
      vertex 37.4619 40 0
    endloop
  endfacet
  facet normal -0.571513 0.820593 0
    outer loop
      vertex 37.4619 40 0
      vertex 25.4004 31.5996 1.2
      vertex 37.4619 40 1.2
    endloop
  endfacet
  facet normal -0.571513 0.820593 0
    outer loop
      vertex 25.4004 31.5996 1.2
      vertex 37.4619 40 0
      vertex 25.4004 31.5996 0
    endloop
  endfacet
  facet normal 1 -0 0
    outer loop
      vertex 25.4004 31.5996 1.2
      vertex 25.4004 38.2002 0
      vertex 25.4004 38.2002 1.2
    endloop
  endfacet
  facet normal 1 0 0
    outer loop
      vertex 25.4004 38.2002 0
      vertex 25.4004 31.5996 1.2
      vertex 25.4004 31.5996 0
    endloop
  endfacet
  facet normal -0.55534 -0.831623 0
    outer loop
      vertex 1.2002 47.2002 0
      vertex 1.7998 46.7998 1.2
      vertex 1.2002 47.2002 1.2
    endloop
  endfacet
  facet normal -0.55534 -0.831623 -0
    outer loop
      vertex 1.7998 46.7998 1.2
      vertex 1.2002 47.2002 0
      vertex 1.7998 46.7998 0
    endloop
  endfacet
  facet normal -0.571459 -0.820631 0
    outer loop
      vertex 1.7998 46.7998 0
      vertex 11.5645 40 1.2
      vertex 1.7998 46.7998 1.2
    endloop
  endfacet
  facet normal -0.571459 -0.820631 -0
    outer loop
      vertex 11.5645 40 1.2
      vertex 1.7998 46.7998 0
      vertex 11.5645 40 0
    endloop
  endfacet
  facet normal -0.571459 0.820631 0
    outer loop
      vertex 11.5645 40 0
      vertex 1.7998 33.2002 1.2
      vertex 11.5645 40 1.2
    endloop
  endfacet
  facet normal -0.571459 0.820631 0
    outer loop
      vertex 1.7998 33.2002 1.2
      vertex 11.5645 40 0
      vertex 1.7998 33.2002 0
    endloop
  endfacet
  facet normal -0.55534 0.831623 0
    outer loop
      vertex 1.7998 33.2002 0
      vertex 1.2002 32.7998 1.2
      vertex 1.7998 33.2002 1.2
    endloop
  endfacet
  facet normal -0.55534 0.831623 0
    outer loop
      vertex 1.2002 32.7998 1.2
      vertex 1.7998 33.2002 0
      vertex 1.2002 32.7998 0
    endloop
  endfacet
  facet normal 1 -0 0
    outer loop
      vertex 1.2002 32.7998 1.2
      vertex 1.2002 47.2002 0
      vertex 1.2002 47.2002 1.2
    endloop
  endfacet
  facet normal 1 0 0
    outer loop
      vertex 1.2002 47.2002 0
      vertex 1.2002 32.7998 1.2
      vertex 1.2002 32.7998 0
    endloop
  endfacet
  facet normal 0.571459 0.820631 -0
    outer loop
      vertex 48.2002 33.2002 0
      vertex 38.4355 40 1.2
      vertex 48.2002 33.2002 1.2
    endloop
  endfacet
  facet normal 0.571459 0.820631 0
    outer loop
      vertex 38.4355 40 1.2
      vertex 48.2002 33.2002 0
      vertex 38.4355 40 0
    endloop
  endfacet
  facet normal 0.571459 -0.820631 0
    outer loop
      vertex 38.4355 40 0
      vertex 48.2002 46.7998 1.2
      vertex 38.4355 40 1.2
    endloop
  endfacet
  facet normal 0.571459 -0.820631 0
    outer loop
      vertex 48.2002 46.7998 1.2
      vertex 38.4355 40 0
      vertex 48.2002 46.7998 0
    endloop
  endfacet
  facet normal 0.55534 -0.831623 0
    outer loop
      vertex 48.2002 46.7998 0
      vertex 48.7998 47.2002 1.2
      vertex 48.2002 46.7998 1.2
    endloop
  endfacet
  facet normal 0.55534 -0.831623 0
    outer loop
      vertex 48.7998 47.2002 1.2
      vertex 48.2002 46.7998 0
      vertex 48.7998 47.2002 0
    endloop
  endfacet
  facet normal -1 0 0
    outer loop
      vertex 48.7998 32.7998 0
      vertex 48.7998 47.2002 1.2
      vertex 48.7998 47.2002 0
    endloop
  endfacet
  facet normal -1 -0 0
    outer loop
      vertex 48.7998 47.2002 1.2
      vertex 48.7998 32.7998 0
      vertex 48.7998 32.7998 1.2
    endloop
  endfacet
  facet normal 0.55534 0.831623 -0
    outer loop
      vertex 48.7998 32.7998 0
      vertex 48.2002 33.2002 1.2
      vertex 48.7998 32.7998 1.2
    endloop
  endfacet
  facet normal 0.55534 0.831623 0
    outer loop
      vertex 48.2002 33.2002 1.2
      vertex 48.7998 32.7998 0
      vertex 48.2002 33.2002 0
    endloop
  endfacet
  facet normal 1 -0 0
    outer loop
      vertex 24.0996 39 1.2
      vertex 24.0996 42 0
      vertex 24.0996 42 1.2
    endloop
  endfacet
  facet normal 1 0 0
    outer loop
      vertex 24.0996 42 0
      vertex 24.0996 39 1.2
      vertex 24.0996 39 0
    endloop
  endfacet
  facet normal 0 -1 0
    outer loop
      vertex 24.0996 42 0
      vertex 25.9004 42 1.2
      vertex 24.0996 42 1.2
    endloop
  endfacet
  facet normal 0 -1 -0
    outer loop
      vertex 25.9004 42 1.2
      vertex 24.0996 42 0
      vertex 25.9004 42 0
    endloop
  endfacet
  facet normal -1 0 0
    outer loop
      vertex 25.9004 39 0
      vertex 25.9004 42 1.2
      vertex 25.9004 42 0
    endloop
  endfacet
  facet normal -1 -0 0
    outer loop
      vertex 25.9004 42 1.2
      vertex 25.9004 39 0
      vertex 25.9004 39 1.2
    endloop
  endfacet
  facet normal 0 1 -0
    outer loop
      vertex 25.9004 39 0
      vertex 24.0996 39 1.2
      vertex 25.9004 39 1.2
    endloop
  endfacet
  facet normal 0 1 0
    outer loop
      vertex 24.0996 39 1.2
      vertex 25.9004 39 0
      vertex 24.0996 39 0
    endloop
  endfacet
  facet normal 0.847939 -0.530094 0
    outer loop
      vertex 1.2002 31.2002 1.2
      vertex 2.2002 32.7998 0
      vertex 2.2002 32.7998 1.2
    endloop
  endfacet
  facet normal 0.847939 -0.530094 0
    outer loop
      vertex 2.2002 32.7998 0
      vertex 1.2002 31.2002 1.2
      vertex 1.2002 31.2002 0
    endloop
  endfacet
  facet normal 0.571514 -0.820592 0
    outer loop
      vertex 2.2002 32.7998 0
      vertex 12.0518 39.6611 1.2
      vertex 2.2002 32.7998 1.2
    endloop
  endfacet
  facet normal 0.571514 -0.820592 0
    outer loop
      vertex 12.0518 39.6611 1.2
      vertex 2.2002 32.7998 0
      vertex 12.0518 39.6611 0
    endloop
  endfacet
  facet normal -0.571512 -0.820594 0
    outer loop
      vertex 12.0518 39.6611 0
      vertex 24.2002 31.2002 1.2
      vertex 12.0518 39.6611 1.2
    endloop
  endfacet
  facet normal -0.571512 -0.820594 -0
    outer loop
      vertex 24.2002 31.2002 1.2
      vertex 12.0518 39.6611 0
      vertex 24.2002 31.2002 0
    endloop
  endfacet
  facet normal 0 1 -0
    outer loop
      vertex 24.2002 31.2002 0
      vertex 1.2002 31.2002 1.2
      vertex 24.2002 31.2002 1.2
    endloop
  endfacet
  facet normal 0 1 0
    outer loop
      vertex 1.2002 31.2002 1.2
      vertex 24.2002 31.2002 0
      vertex 1.2002 31.2002 0
    endloop
  endfacet
  facet normal 0.571512 -0.820594 0
    outer loop
      vertex 25.7998 31.2002 0
      vertex 37.9482 39.6611 1.2
      vertex 25.7998 31.2002 1.2
    endloop
  endfacet
  facet normal 0.571512 -0.820594 0
    outer loop
      vertex 37.9482 39.6611 1.2
      vertex 25.7998 31.2002 0
      vertex 37.9482 39.6611 0
    endloop
  endfacet
  facet normal -0.571514 -0.820592 0
    outer loop
      vertex 37.9482 39.6611 0
      vertex 47.7998 32.7998 1.2
      vertex 37.9482 39.6611 1.2
    endloop
  endfacet
  facet normal -0.571514 -0.820592 -0
    outer loop
      vertex 47.7998 32.7998 1.2
      vertex 37.9482 39.6611 0
      vertex 47.7998 32.7998 0
    endloop
  endfacet
  facet normal -0.847939 -0.530094 0
    outer loop
      vertex 48.7998 31.2002 0
      vertex 47.7998 32.7998 1.2
      vertex 47.7998 32.7998 0
    endloop
  endfacet
  facet normal -0.847939 -0.530094 0
    outer loop
      vertex 47.7998 32.7998 1.2
      vertex 48.7998 31.2002 0
      vertex 48.7998 31.2002 1.2
    endloop
  endfacet
  facet normal 0 1 -0
    outer loop
      vertex 48.7998 31.2002 0
      vertex 25.7998 31.2002 1.2
      vertex 48.7998 31.2002 1.2
    endloop
  endfacet
  facet normal 0 1 0
    outer loop
      vertex 25.7998 31.2002 1.2
      vertex 48.7998 31.2002 0
      vertex 25.7998 31.2002 0
    endloop
  endfacet
endsolid OpenSCAD_Model
