solid OpenSCAD_Model
  facet normal 0 0 -1
    outer loop
      vertex 80 0 0
      vertex 78 1.2002 0
      vertex 80 1.2002 0
    endloop
  endfacet
  facet normal 0 0 -1
    outer loop
      vertex 77.2002 1.2002 0
      vertex 78 2.90039 0
      vertex 78 1.2002 0
    endloop
  endfacet
  facet normal -0 0 -1
    outer loop
      vertex 78 2.90039 0
      vertex 77.2002 1.2002 0
      vertex 77.2002 3.21777 0
    endloop
  endfacet
  facet normal 0 0 -1
    outer loop
      vertex 80 0 0
      vertex 77.2002 1.2002 0
      vertex 78 1.2002 0
    endloop
  endfacet
  facet normal 0 0 -1
    outer loop
      vertex 80 0 0
      vertex 42.7998 1.2002 0
      vertex 77.2002 1.2002 0
    endloop
  endfacet
  facet normal 0 0 -1
    outer loop
      vertex 42 2.90039 0
      vertex 42.7998 3.21777 0
      vertex 42.7998 1.2002 0
    endloop
  endfacet
  facet normal 0 0 -1
    outer loop
      vertex 42 2.90039 0
      vertex 42.7998 1.2002 0
      vertex 42 1.2002 0
    endloop
  endfacet
  facet normal 0 0 -1
    outer loop
      vertex 80 0 0
      vertex 42 1.2002 0
      vertex 42.7998 1.2002 0
    endloop
  endfacet
  facet normal 0 0 -1
    outer loop
      vertex 80 0 0
      vertex 38 1.2002 0
      vertex 42 1.2002 0
    endloop
  endfacet
  facet normal 0 0 -1
    outer loop
      vertex 37.2002 1.2002 0
      vertex 38 2.90039 0
      vertex 38 1.2002 0
    endloop
  endfacet
  facet normal -0 0 -1
    outer loop
      vertex 38 2.90039 0
      vertex 37.2002 1.2002 0
      vertex 37.2002 3.21777 0
    endloop
  endfacet
  facet normal 0 0 -1
    outer loop
      vertex 80 0 0
      vertex 37.2002 1.2002 0
      vertex 38 1.2002 0
    endloop
  endfacet
  facet normal 0 0 -1
    outer loop
      vertex 0 0 0
      vertex 37.2002 1.2002 0
      vertex 80 0 0
    endloop
  endfacet
  facet normal 0 0 -1
    outer loop
      vertex 2 2.90039 0
      vertex 2.7998 3.21777 0
      vertex 2.7998 1.2002 0
    endloop
  endfacet
  facet normal 0 0 -1
    outer loop
      vertex 2 2.90039 0
      vertex 2.7998 1.2002 0
      vertex 2 1.2002 0
    endloop
  endfacet
  facet normal -0 0 -1
    outer loop
      vertex 37.2002 1.2002 0
      vertex 0 0 0
      vertex 2.7998 1.2002 0
    endloop
  endfacet
  facet normal -0 0 -1
    outer loop
      vertex 2.7998 1.2002 0
      vertex 0 0 0
      vertex 2 1.2002 0
    endloop
  endfacet
  facet normal -0 0 -1
    outer loop
      vertex 2 1.2002 0
      vertex 0 0 0
      vertex 0 1.2002 0
    endloop
  endfacet
  facet normal 0 0 -1
    outer loop
      vertex 80 2.90039 0
      vertex 79.2002 3.59961 0
      vertex 80 17.0996 0
    endloop
  endfacet
  facet normal 0 0 -1
    outer loop
      vertex 78 2.90039 0
      vertex 79.2002 3.59961 0
      vertex 80 2.90039 0
    endloop
  endfacet
  facet normal -0 0 -1
    outer loop
      vertex 79.2002 3.59961 0
      vertex 78 2.90039 0
      vertex 77.5996 3.59961 0
    endloop
  endfacet
  facet normal 0 0 -1
    outer loop
      vertex 79.2002 16.4004 0
      vertex 80 17.0996 0
      vertex 79.2002 3.59961 0
    endloop
  endfacet
  facet normal 0 0 -1
    outer loop
      vertex 79.2002 16.4004 0
      vertex 78 17.0996 0
      vertex 80 17.0996 0
    endloop
  endfacet
  facet normal 0 0 -1
    outer loop
      vertex 77.2002 16.7822 0
      vertex 78 17.0996 0
      vertex 77.5996 16.4004 0
    endloop
  endfacet
  facet normal 0 0 -1
    outer loop
      vertex 77.5996 16.4004 0
      vertex 78 17.0996 0
      vertex 79.2002 16.4004 0
    endloop
  endfacet
  facet normal 0 0 -1
    outer loop
      vertex 78 18.7998 0
      vertex 80 20 0
      vertex 80 18.7998 0
    endloop
  endfacet
  facet normal 0 0 -1
    outer loop
      vertex 77.2002 18.7998 0
      vertex 78 17.0996 0
      vertex 77.2002 16.7822 0
    endloop
  endfacet
  facet normal 0 0 -1
    outer loop
      vertex 78 17.0996 0
      vertex 77.2002 18.7998 0
      vertex 78 18.7998 0
    endloop
  endfacet
  facet normal 0 0 -1
    outer loop
      vertex 77.2002 18.7998 0
      vertex 80 20 0
      vertex 78 18.7998 0
    endloop
  endfacet
  facet normal 0 0 -1
    outer loop
      vertex 42.7998 18.7998 0
      vertex 80 20 0
      vertex 77.2002 18.7998 0
    endloop
  endfacet
  facet normal 0 0 -1
    outer loop
      vertex 42.7998 16.7822 0
      vertex 42 17.0996 0
      vertex 42.7998 18.7998 0
    endloop
  endfacet
  facet normal 0 0 -1
    outer loop
      vertex 42 18.7998 0
      vertex 42.7998 18.7998 0
      vertex 42 17.0996 0
    endloop
  endfacet
  facet normal 0 0 -1
    outer loop
      vertex 42 18.7998 0
      vertex 80 20 0
      vertex 42.7998 18.7998 0
    endloop
  endfacet
  facet normal 0 0 -1
    outer loop
      vertex 38 18.7998 0
      vertex 80 20 0
      vertex 42 18.7998 0
    endloop
  endfacet
  facet normal 0 0 -1
    outer loop
      vertex 37.2002 18.7998 0
      vertex 38 17.0996 0
      vertex 37.2002 16.7822 0
    endloop
  endfacet
  facet normal 0 0 -1
    outer loop
      vertex 38 17.0996 0
      vertex 37.2002 18.7998 0
      vertex 38 18.7998 0
    endloop
  endfacet
  facet normal 0 0 -1
    outer loop
      vertex 37.2002 18.7998 0
      vertex 80 20 0
      vertex 38 18.7998 0
    endloop
  endfacet
  facet normal 0 0 -1
    outer loop
      vertex 0 20 0
      vertex 37.2002 18.7998 0
      vertex 2.7998 18.7998 0
    endloop
  endfacet
  facet normal 0 0 -1
    outer loop
      vertex 2.7998 16.7822 0
      vertex 2 17.0996 0
      vertex 2.7998 18.7998 0
    endloop
  endfacet
  facet normal 0 0 -1
    outer loop
      vertex 2 18.7998 0
      vertex 2.7998 18.7998 0
      vertex 2 17.0996 0
    endloop
  endfacet
  facet normal 0 0 -1
    outer loop
      vertex 0 20 0
      vertex 2.7998 18.7998 0
      vertex 2 18.7998 0
    endloop
  endfacet
  facet normal 0 0 -1
    outer loop
      vertex 0 20 0
      vertex 2 18.7998 0
      vertex 0 18.7998 0
    endloop
  endfacet
  facet normal 0 0 -1
    outer loop
      vertex 37.2002 18.7998 0
      vertex 0 20 0
      vertex 80 20 0
    endloop
  endfacet
  facet normal 0 0 -1
    outer loop
      vertex 0.799805 16.4004 0
      vertex 2 17.0996 0
      vertex 2.37402 16.4004 0
    endloop
  endfacet
  facet normal 0 0 -1
    outer loop
      vertex 0.799805 16.4004 0
      vertex 0 17.0996 0
      vertex 2 17.0996 0
    endloop
  endfacet
  facet normal 0 0 -1
    outer loop
      vertex 0 17.0996 0
      vertex 0.799805 16.4004 0
      vertex 0 2.90039 0
    endloop
  endfacet
  facet normal -0 0 -1
    outer loop
      vertex 2.7998 3.21777 0
      vertex 2 2.90039 0
      vertex 2.40039 3.59961 0
    endloop
  endfacet
  facet normal 0 0 -1
    outer loop
      vertex 2 2.90039 0
      vertex 0.799805 3.59961 0
      vertex 2.40039 3.59961 0
    endloop
  endfacet
  facet normal -0 0 -1
    outer loop
      vertex 0.799805 3.59961 0
      vertex 0 2.90039 0
      vertex 0.799805 16.4004 0
    endloop
  endfacet
  facet normal 0 0 -1
    outer loop
      vertex 0 2.90039 0
      vertex 0.799805 3.59961 0
      vertex 2 2.90039 0
    endloop
  endfacet
  facet normal 0 0 -1
    outer loop
      vertex 19.5996 10 0
      vertex 2.7998 16.7822 0
      vertex 20 10.4004 0
    endloop
  endfacet
  facet normal 0 0 -1
    outer loop
      vertex 2 17.0996 0
      vertex 2.7998 16.7822 0
      vertex 2.37402 16.4004 0
    endloop
  endfacet
  facet normal 0 0 -1
    outer loop
      vertex 2.37402 16.4004 0
      vertex 2.7998 16.7822 0
      vertex 19.5996 10 0
    endloop
  endfacet
  facet normal 0 0 -1
    outer loop
      vertex 20.4004 10 0
      vertex 37.2002 16.7822 0
      vertex 37.5996 16.4004 0
    endloop
  endfacet
  facet normal 0 0 -1
    outer loop
      vertex 20.4004 10 0
      vertex 20 10.4004 0
      vertex 37.2002 16.7822 0
    endloop
  endfacet
  facet normal 0 0 -1
    outer loop
      vertex 20 9.59961 0
      vertex 20 10.4004 0
      vertex 20.4004 10 0
    endloop
  endfacet
  facet normal 0 0 -1
    outer loop
      vertex 20 9.59961 0
      vertex 19.5996 10 0
      vertex 20 10.4004 0
    endloop
  endfacet
  facet normal 0 0 -1
    outer loop
      vertex 2.7998 3.21777 0
      vertex 19.5996 10 0
      vertex 20 9.59961 0
    endloop
  endfacet
  facet normal 0 0 -1
    outer loop
      vertex 19.5996 10 0
      vertex 2.7998 3.21777 0
      vertex 2.40039 3.59961 0
    endloop
  endfacet
  facet normal 0 0 -1
    outer loop
      vertex 38 2.90039 0
      vertex 37.2002 3.21777 0
      vertex 37.5996 3.59961 0
    endloop
  endfacet
  facet normal 0 0 -1
    outer loop
      vertex 37.2002 3.21777 0
      vertex 20.4004 10 0
      vertex 37.5996 3.59961 0
    endloop
  endfacet
  facet normal 0 -0 -1
    outer loop
      vertex 20.4004 10 0
      vertex 37.2002 3.21777 0
      vertex 20 9.59961 0
    endloop
  endfacet
  facet normal 0 0 -1
    outer loop
      vertex 40.7998 16.4004 0
      vertex 42 17.0996 0
      vertex 42.374 16.4004 0
    endloop
  endfacet
  facet normal 0 0 -1
    outer loop
      vertex 39.2002 16.4004 0
      vertex 40.7998 16.4004 0
      vertex 39.2002 3.59961 0
    endloop
  endfacet
  facet normal 0 0 -1
    outer loop
      vertex 39.2002 16.4004 0
      vertex 42 17.0996 0
      vertex 40.7998 16.4004 0
    endloop
  endfacet
  facet normal 0 0 -1
    outer loop
      vertex 39.2002 16.4004 0
      vertex 38 17.0996 0
      vertex 42 17.0996 0
    endloop
  endfacet
  facet normal 0 0 -1
    outer loop
      vertex 37.2002 16.7822 0
      vertex 38 17.0996 0
      vertex 37.5996 16.4004 0
    endloop
  endfacet
  facet normal 0 0 -1
    outer loop
      vertex 37.5996 16.4004 0
      vertex 38 17.0996 0
      vertex 39.2002 16.4004 0
    endloop
  endfacet
  facet normal -0 0 -1
    outer loop
      vertex 42.7998 3.21777 0
      vertex 42 2.90039 0
      vertex 42.4004 3.59961 0
    endloop
  endfacet
  facet normal 0 0 -1
    outer loop
      vertex 42 2.90039 0
      vertex 40.7998 3.59961 0
      vertex 42.4004 3.59961 0
    endloop
  endfacet
  facet normal 0 0 -1
    outer loop
      vertex 40.7998 3.59961 0
      vertex 39.2002 3.59961 0
      vertex 40.7998 16.4004 0
    endloop
  endfacet
  facet normal 0 0 -1
    outer loop
      vertex 42 2.90039 0
      vertex 39.2002 3.59961 0
      vertex 40.7998 3.59961 0
    endloop
  endfacet
  facet normal 0 0 -1
    outer loop
      vertex 38 2.90039 0
      vertex 39.2002 3.59961 0
      vertex 42 2.90039 0
    endloop
  endfacet
  facet normal -0 0 -1
    outer loop
      vertex 39.2002 3.59961 0
      vertex 38 2.90039 0
      vertex 37.5996 3.59961 0
    endloop
  endfacet
  facet normal 0 0 -1
    outer loop
      vertex 59.5996 10 0
      vertex 42.7998 16.7822 0
      vertex 60 10.4004 0
    endloop
  endfacet
  facet normal 0 0 -1
    outer loop
      vertex 42 17.0996 0
      vertex 42.7998 16.7822 0
      vertex 42.374 16.4004 0
    endloop
  endfacet
  facet normal 0 0 -1
    outer loop
      vertex 42.374 16.4004 0
      vertex 42.7998 16.7822 0
      vertex 59.5996 10 0
    endloop
  endfacet
  facet normal 0 0 -1
    outer loop
      vertex 60.4004 10 0
      vertex 77.2002 16.7822 0
      vertex 77.5996 16.4004 0
    endloop
  endfacet
  facet normal 0 0 -1
    outer loop
      vertex 60.4004 10 0
      vertex 60 10.4004 0
      vertex 77.2002 16.7822 0
    endloop
  endfacet
  facet normal 0 0 -1
    outer loop
      vertex 60 9.59961 0
      vertex 60 10.4004 0
      vertex 60.4004 10 0
    endloop
  endfacet
  facet normal 0 0 -1
    outer loop
      vertex 60 9.59961 0
      vertex 59.5996 10 0
      vertex 60 10.4004 0
    endloop
  endfacet
  facet normal 0 0 -1
    outer loop
      vertex 42.7998 3.21777 0
      vertex 59.5996 10 0
      vertex 60 9.59961 0
    endloop
  endfacet
  facet normal 0 0 -1
    outer loop
      vertex 59.5996 10 0
      vertex 42.7998 3.21777 0
      vertex 42.4004 3.59961 0
    endloop
  endfacet
  facet normal 0 0 -1
    outer loop
      vertex 78 2.90039 0
      vertex 77.2002 3.21777 0
      vertex 77.5996 3.59961 0
    endloop
  endfacet
  facet normal 0 0 -1
    outer loop
      vertex 77.2002 3.21777 0
      vertex 60.4004 10 0
      vertex 77.5996 3.59961 0
    endloop
  endfacet
  facet normal 0 -0 -1
    outer loop
      vertex 60.4004 10 0
      vertex 77.2002 3.21777 0
      vertex 60 9.59961 0
    endloop
  endfacet
  facet normal 0 0 1
    outer loop
      vertex 80 20 2
      vertex 78 18.7998 2
      vertex 80 18.7998 2
    endloop
  endfacet
  facet normal -0 0 1
    outer loop
      vertex 77.2002 18.7998 2
      vertex 78 17.0996 2
      vertex 78 18.7998 2
    endloop
  endfacet
  facet normal 0 0 1
    outer loop
      vertex 78 17.0996 2
      vertex 77.2002 18.7998 2
      vertex 77.2002 16.7822 2
    endloop
  endfacet
  facet normal 0 0 1
    outer loop
      vertex 80 20 2
      vertex 77.2002 18.7998 2
      vertex 78 18.7998 2
    endloop
  endfacet
  facet normal 0 0 1
    outer loop
      vertex 80 20 2
      vertex 42.7998 18.7998 2
      vertex 77.2002 18.7998 2
    endloop
  endfacet
  facet normal -0 0 1
    outer loop
      vertex 42 17.0996 2
      vertex 42.7998 16.7822 2
      vertex 42.7998 18.7998 2
    endloop
  endfacet
  facet normal 0 0 1
    outer loop
      vertex 42 17.0996 2
      vertex 42.7998 18.7998 2
      vertex 42 18.7998 2
    endloop
  endfacet
  facet normal 0 0 1
    outer loop
      vertex 80 20 2
      vertex 42 18.7998 2
      vertex 42.7998 18.7998 2
    endloop
  endfacet
  facet normal 0 0 1
    outer loop
      vertex 80 20 2
      vertex 38 18.7998 2
      vertex 42 18.7998 2
    endloop
  endfacet
  facet normal -0 0 1
    outer loop
      vertex 37.2002 18.7998 2
      vertex 38 17.0996 2
      vertex 38 18.7998 2
    endloop
  endfacet
  facet normal 0 0 1
    outer loop
      vertex 38 17.0996 2
      vertex 37.2002 18.7998 2
      vertex 37.2002 16.7822 2
    endloop
  endfacet
  facet normal 0 0 1
    outer loop
      vertex 80 20 2
      vertex 37.2002 18.7998 2
      vertex 38 18.7998 2
    endloop
  endfacet
  facet normal -0 0 1
    outer loop
      vertex 0 20 2
      vertex 37.2002 18.7998 2
      vertex 80 20 2
    endloop
  endfacet
  facet normal -0 0 1
    outer loop
      vertex 2 17.0996 2
      vertex 2.7998 16.7822 2
      vertex 2.7998 18.7998 2
    endloop
  endfacet
  facet normal 0 0 1
    outer loop
      vertex 2 17.0996 2
      vertex 2.7998 18.7998 2
      vertex 2 18.7998 2
    endloop
  endfacet
  facet normal 0 0 1
    outer loop
      vertex 37.2002 18.7998 2
      vertex 0 20 2
      vertex 2.7998 18.7998 2
    endloop
  endfacet
  facet normal 0 0 1
    outer loop
      vertex 2.7998 18.7998 2
      vertex 0 20 2
      vertex 2 18.7998 2
    endloop
  endfacet
  facet normal 0 0 1
    outer loop
      vertex 2 18.7998 2
      vertex 0 20 2
      vertex 0 18.7998 2
    endloop
  endfacet
  facet normal 0 0 1
    outer loop
      vertex 80 17.0996 2
      vertex 79.2002 16.4004 2
      vertex 80 2.90039 2
    endloop
  endfacet
  facet normal -0 0 1
    outer loop
      vertex 78 17.0996 2
      vertex 79.2002 16.4004 2
      vertex 80 17.0996 2
    endloop
  endfacet
  facet normal 0 0 1
    outer loop
      vertex 79.2002 16.4004 2
      vertex 78 17.0996 2
      vertex 77.5996 16.4004 2
    endloop
  endfacet
  facet normal -0 0 1
    outer loop
      vertex 79.2002 3.59961 2
      vertex 80 2.90039 2
      vertex 79.2002 16.4004 2
    endloop
  endfacet
  facet normal 0 0 1
    outer loop
      vertex 79.2002 3.59961 2
      vertex 78 2.90039 2
      vertex 80 2.90039 2
    endloop
  endfacet
  facet normal -0 0 1
    outer loop
      vertex 77.2002 3.21777 2
      vertex 78 2.90039 2
      vertex 77.5996 3.59961 2
    endloop
  endfacet
  facet normal -0 0 1
    outer loop
      vertex 77.5996 3.59961 2
      vertex 78 2.90039 2
      vertex 79.2002 3.59961 2
    endloop
  endfacet
  facet normal -0 0 1
    outer loop
      vertex 78 1.2002 2
      vertex 80 0 2
      vertex 80 1.2002 2
    endloop
  endfacet
  facet normal 0 0 1
    outer loop
      vertex 77.2002 1.2002 2
      vertex 78 2.90039 2
      vertex 77.2002 3.21777 2
    endloop
  endfacet
  facet normal 0 0 1
    outer loop
      vertex 78 2.90039 2
      vertex 77.2002 1.2002 2
      vertex 78 1.2002 2
    endloop
  endfacet
  facet normal -0 0 1
    outer loop
      vertex 77.2002 1.2002 2
      vertex 80 0 2
      vertex 78 1.2002 2
    endloop
  endfacet
  facet normal -0 0 1
    outer loop
      vertex 42.7998 1.2002 2
      vertex 80 0 2
      vertex 77.2002 1.2002 2
    endloop
  endfacet
  facet normal 0 0 1
    outer loop
      vertex 42.7998 3.21777 2
      vertex 42 2.90039 2
      vertex 42.7998 1.2002 2
    endloop
  endfacet
  facet normal 0 0 1
    outer loop
      vertex 42 1.2002 2
      vertex 42.7998 1.2002 2
      vertex 42 2.90039 2
    endloop
  endfacet
  facet normal -0 0 1
    outer loop
      vertex 42 1.2002 2
      vertex 80 0 2
      vertex 42.7998 1.2002 2
    endloop
  endfacet
  facet normal -0 0 1
    outer loop
      vertex 38 1.2002 2
      vertex 80 0 2
      vertex 42 1.2002 2
    endloop
  endfacet
  facet normal 0 0 1
    outer loop
      vertex 37.2002 1.2002 2
      vertex 38 2.90039 2
      vertex 37.2002 3.21777 2
    endloop
  endfacet
  facet normal 0 0 1
    outer loop
      vertex 38 2.90039 2
      vertex 37.2002 1.2002 2
      vertex 38 1.2002 2
    endloop
  endfacet
  facet normal -0 0 1
    outer loop
      vertex 37.2002 1.2002 2
      vertex 80 0 2
      vertex 38 1.2002 2
    endloop
  endfacet
  facet normal 0 0 1
    outer loop
      vertex 0 0 2
      vertex 37.2002 1.2002 2
      vertex 2.7998 1.2002 2
    endloop
  endfacet
  facet normal 0 0 1
    outer loop
      vertex 2.7998 3.21777 2
      vertex 2 2.90039 2
      vertex 2.7998 1.2002 2
    endloop
  endfacet
  facet normal 0 0 1
    outer loop
      vertex 2 1.2002 2
      vertex 2.7998 1.2002 2
      vertex 2 2.90039 2
    endloop
  endfacet
  facet normal 0 0 1
    outer loop
      vertex 0 0 2
      vertex 2.7998 1.2002 2
      vertex 2 1.2002 2
    endloop
  endfacet
  facet normal 0 0 1
    outer loop
      vertex 0 0 2
      vertex 2 1.2002 2
      vertex 0 1.2002 2
    endloop
  endfacet
  facet normal 0 0 1
    outer loop
      vertex 37.2002 1.2002 2
      vertex 0 0 2
      vertex 80 0 2
    endloop
  endfacet
  facet normal -0 0 1
    outer loop
      vertex 0.799805 3.59961 2
      vertex 2 2.90039 2
      vertex 2.40039 3.59961 2
    endloop
  endfacet
  facet normal 0 0 1
    outer loop
      vertex 0.799805 3.59961 2
      vertex 0 2.90039 2
      vertex 2 2.90039 2
    endloop
  endfacet
  facet normal 0 0 1
    outer loop
      vertex 0 2.90039 2
      vertex 0.799805 3.59961 2
      vertex 0 17.0996 2
    endloop
  endfacet
  facet normal 0 0 1
    outer loop
      vertex 2.7998 16.7822 2
      vertex 2 17.0996 2
      vertex 2.37402 16.4004 2
    endloop
  endfacet
  facet normal 0 0 1
    outer loop
      vertex 2 17.0996 2
      vertex 0.799805 16.4004 2
      vertex 2.37402 16.4004 2
    endloop
  endfacet
  facet normal 0 0 1
    outer loop
      vertex 0.799805 16.4004 2
      vertex 0 17.0996 2
      vertex 0.799805 3.59961 2
    endloop
  endfacet
  facet normal -0 0 1
    outer loop
      vertex 0 17.0996 2
      vertex 0.799805 16.4004 2
      vertex 2 17.0996 2
    endloop
  endfacet
  facet normal 0 0 1
    outer loop
      vertex 19.5996 10 2
      vertex 2.7998 3.21777 2
      vertex 20 9.59961 2
    endloop
  endfacet
  facet normal 0 0 1
    outer loop
      vertex 2 2.90039 2
      vertex 2.7998 3.21777 2
      vertex 2.40039 3.59961 2
    endloop
  endfacet
  facet normal -0 0 1
    outer loop
      vertex 2.40039 3.59961 2
      vertex 2.7998 3.21777 2
      vertex 19.5996 10 2
    endloop
  endfacet
  facet normal 0 0 1
    outer loop
      vertex 20.4004 10 2
      vertex 37.2002 3.21777 2
      vertex 37.5996 3.59961 2
    endloop
  endfacet
  facet normal 0 0 1
    outer loop
      vertex 20.4004 10 2
      vertex 20 9.59961 2
      vertex 37.2002 3.21777 2
    endloop
  endfacet
  facet normal 0 0 1
    outer loop
      vertex 20 10.4004 2
      vertex 20 9.59961 2
      vertex 20.4004 10 2
    endloop
  endfacet
  facet normal 0 0 1
    outer loop
      vertex 20 10.4004 2
      vertex 19.5996 10 2
      vertex 20 9.59961 2
    endloop
  endfacet
  facet normal 0 0 1
    outer loop
      vertex 2.7998 16.7822 2
      vertex 19.5996 10 2
      vertex 20 10.4004 2
    endloop
  endfacet
  facet normal 0 0 1
    outer loop
      vertex 19.5996 10 2
      vertex 2.7998 16.7822 2
      vertex 2.37402 16.4004 2
    endloop
  endfacet
  facet normal 0 0 1
    outer loop
      vertex 38 17.0996 2
      vertex 37.2002 16.7822 2
      vertex 37.5996 16.4004 2
    endloop
  endfacet
  facet normal 0 0 1
    outer loop
      vertex 37.2002 16.7822 2
      vertex 20.4004 10 2
      vertex 37.5996 16.4004 2
    endloop
  endfacet
  facet normal 0 -0 1
    outer loop
      vertex 20.4004 10 2
      vertex 37.2002 16.7822 2
      vertex 20 10.4004 2
    endloop
  endfacet
  facet normal -0 0 1
    outer loop
      vertex 40.7998 3.59961 2
      vertex 42 2.90039 2
      vertex 42.4004 3.59961 2
    endloop
  endfacet
  facet normal 0 0 1
    outer loop
      vertex 39.2002 3.59961 2
      vertex 40.7998 3.59961 2
      vertex 39.2002 16.4004 2
    endloop
  endfacet
  facet normal -0 0 1
    outer loop
      vertex 39.2002 3.59961 2
      vertex 42 2.90039 2
      vertex 40.7998 3.59961 2
    endloop
  endfacet
  facet normal 0 0 1
    outer loop
      vertex 39.2002 3.59961 2
      vertex 38 2.90039 2
      vertex 42 2.90039 2
    endloop
  endfacet
  facet normal -0 0 1
    outer loop
      vertex 37.2002 3.21777 2
      vertex 38 2.90039 2
      vertex 37.5996 3.59961 2
    endloop
  endfacet
  facet normal -0 0 1
    outer loop
      vertex 37.5996 3.59961 2
      vertex 38 2.90039 2
      vertex 39.2002 3.59961 2
    endloop
  endfacet
  facet normal 0 0 1
    outer loop
      vertex 42.7998 16.7822 2
      vertex 42 17.0996 2
      vertex 42.374 16.4004 2
    endloop
  endfacet
  facet normal 0 0 1
    outer loop
      vertex 42 17.0996 2
      vertex 40.7998 16.4004 2
      vertex 42.374 16.4004 2
    endloop
  endfacet
  facet normal 0 0 1
    outer loop
      vertex 40.7998 16.4004 2
      vertex 39.2002 16.4004 2
      vertex 40.7998 3.59961 2
    endloop
  endfacet
  facet normal 0 0 1
    outer loop
      vertex 42 17.0996 2
      vertex 39.2002 16.4004 2
      vertex 40.7998 16.4004 2
    endloop
  endfacet
  facet normal -0 0 1
    outer loop
      vertex 38 17.0996 2
      vertex 39.2002 16.4004 2
      vertex 42 17.0996 2
    endloop
  endfacet
  facet normal 0 0 1
    outer loop
      vertex 39.2002 16.4004 2
      vertex 38 17.0996 2
      vertex 37.5996 16.4004 2
    endloop
  endfacet
  facet normal 0 0 1
    outer loop
      vertex 59.5996 10 2
      vertex 42.7998 3.21777 2
      vertex 60 9.59961 2
    endloop
  endfacet
  facet normal 0 0 1
    outer loop
      vertex 42 2.90039 2
      vertex 42.7998 3.21777 2
      vertex 42.4004 3.59961 2
    endloop
  endfacet
  facet normal -0 0 1
    outer loop
      vertex 42.4004 3.59961 2
      vertex 42.7998 3.21777 2
      vertex 59.5996 10 2
    endloop
  endfacet
  facet normal 0 0 1
    outer loop
      vertex 60.4004 10 2
      vertex 77.2002 3.21777 2
      vertex 77.5996 3.59961 2
    endloop
  endfacet
  facet normal 0 0 1
    outer loop
      vertex 60.4004 10 2
      vertex 60 9.59961 2
      vertex 77.2002 3.21777 2
    endloop
  endfacet
  facet normal 0 0 1
    outer loop
      vertex 60 10.4004 2
      vertex 60 9.59961 2
      vertex 60.4004 10 2
    endloop
  endfacet
  facet normal 0 0 1
    outer loop
      vertex 60 10.4004 2
      vertex 59.5996 10 2
      vertex 60 9.59961 2
    endloop
  endfacet
  facet normal 0 0 1
    outer loop
      vertex 42.7998 16.7822 2
      vertex 59.5996 10 2
      vertex 60 10.4004 2
    endloop
  endfacet
  facet normal 0 0 1
    outer loop
      vertex 59.5996 10 2
      vertex 42.7998 16.7822 2
      vertex 42.374 16.4004 2
    endloop
  endfacet
  facet normal 0 0 1
    outer loop
      vertex 78 17.0996 2
      vertex 77.2002 16.7822 2
      vertex 77.5996 16.4004 2
    endloop
  endfacet
  facet normal 0 0 1
    outer loop
      vertex 77.2002 16.7822 2
      vertex 60.4004 10 2
      vertex 77.5996 16.4004 2
    endloop
  endfacet
  facet normal 0 -0 1
    outer loop
      vertex 60.4004 10 2
      vertex 77.2002 16.7822 2
      vertex 60 10.4004 2
    endloop
  endfacet
  facet normal 0 1 -0
    outer loop
      vertex 42 1.2002 0
      vertex 38 1.2002 2
      vertex 42 1.2002 2
    endloop
  endfacet
  facet normal 0 1 0
    outer loop
      vertex 38 1.2002 2
      vertex 42 1.2002 0
      vertex 38 1.2002 0
    endloop
  endfacet
  facet normal 1 -0 0
    outer loop
      vertex 38 1.2002 2
      vertex 38 2.90039 0
      vertex 38 2.90039 2
    endloop
  endfacet
  facet normal 1 0 0
    outer loop
      vertex 38 2.90039 0
      vertex 38 1.2002 2
      vertex 38 1.2002 0
    endloop
  endfacet
  facet normal 0 -1 0
    outer loop
      vertex 38 2.90039 0
      vertex 42 2.90039 2
      vertex 38 2.90039 2
    endloop
  endfacet
  facet normal 0 -1 -0
    outer loop
      vertex 42 2.90039 2
      vertex 38 2.90039 0
      vertex 42 2.90039 0
    endloop
  endfacet
  facet normal 0 1 -0
    outer loop
      vertex 42 17.0996 0
      vertex 38 17.0996 2
      vertex 42 17.0996 2
    endloop
  endfacet
  facet normal 0 1 0
    outer loop
      vertex 38 17.0996 2
      vertex 42 17.0996 0
      vertex 38 17.0996 0
    endloop
  endfacet
  facet normal 1 -0 0
    outer loop
      vertex 38 17.0996 2
      vertex 38 18.7998 0
      vertex 38 18.7998 2
    endloop
  endfacet
  facet normal 1 0 0
    outer loop
      vertex 38 18.7998 0
      vertex 38 17.0996 2
      vertex 38 17.0996 0
    endloop
  endfacet
  facet normal 0 -1 0
    outer loop
      vertex 38 18.7998 0
      vertex 42 18.7998 2
      vertex 38 18.7998 2
    endloop
  endfacet
  facet normal 0 -1 -0
    outer loop
      vertex 42 18.7998 2
      vertex 38 18.7998 0
      vertex 42 18.7998 0
    endloop
  endfacet
  facet normal 0 1 -0
    outer loop
      vertex 80 20 0
      vertex 0 20 2
      vertex 80 20 2
    endloop
  endfacet
  facet normal 0 1 0
    outer loop
      vertex 0 20 2
      vertex 80 20 0
      vertex 0 20 0
    endloop
  endfacet
  facet normal -1 0 0
    outer loop
      vertex 0 18.7998 0
      vertex 0 20 2
      vertex 0 20 0
    endloop
  endfacet
  facet normal -1 -0 0
    outer loop
      vertex 0 20 2
      vertex 0 18.7998 0
      vertex 0 18.7998 2
    endloop
  endfacet
  facet normal 0 -1 0
    outer loop
      vertex 0 18.7998 0
      vertex 2 18.7998 2
      vertex 0 18.7998 2
    endloop
  endfacet
  facet normal 0 -1 -0
    outer loop
      vertex 2 18.7998 2
      vertex 0 18.7998 0
      vertex 2 18.7998 0
    endloop
  endfacet
  facet normal -1 0 0
    outer loop
      vertex 2 17.0996 0
      vertex 2 18.7998 2
      vertex 2 18.7998 0
    endloop
  endfacet
  facet normal -1 -0 0
    outer loop
      vertex 2 18.7998 2
      vertex 2 17.0996 0
      vertex 2 17.0996 2
    endloop
  endfacet
  facet normal 0 1 -0
    outer loop
      vertex 2 17.0996 0
      vertex 0 17.0996 2
      vertex 2 17.0996 2
    endloop
  endfacet
  facet normal 0 1 0
    outer loop
      vertex 0 17.0996 2
      vertex 2 17.0996 0
      vertex 0 17.0996 0
    endloop
  endfacet
  facet normal -1 0 0
    outer loop
      vertex 0 2.90039 0
      vertex 0 17.0996 2
      vertex 0 17.0996 0
    endloop
  endfacet
  facet normal -1 -0 0
    outer loop
      vertex 0 17.0996 2
      vertex 0 2.90039 0
      vertex 0 2.90039 2
    endloop
  endfacet
  facet normal 0 -1 0
    outer loop
      vertex 0 2.90039 0
      vertex 2 2.90039 2
      vertex 0 2.90039 2
    endloop
  endfacet
  facet normal 0 -1 -0
    outer loop
      vertex 2 2.90039 2
      vertex 0 2.90039 0
      vertex 2 2.90039 0
    endloop
  endfacet
  facet normal -1 0 0
    outer loop
      vertex 2 1.2002 0
      vertex 2 2.90039 2
      vertex 2 2.90039 0
    endloop
  endfacet
  facet normal -1 -0 0
    outer loop
      vertex 2 2.90039 2
      vertex 2 1.2002 0
      vertex 2 1.2002 2
    endloop
  endfacet
  facet normal 0 1 -0
    outer loop
      vertex 2 1.2002 0
      vertex 0 1.2002 2
      vertex 2 1.2002 2
    endloop
  endfacet
  facet normal 0 1 0
    outer loop
      vertex 0 1.2002 2
      vertex 2 1.2002 0
      vertex 0 1.2002 0
    endloop
  endfacet
  facet normal -1 0 0
    outer loop
      vertex 0 0 0
      vertex 0 1.2002 2
      vertex 0 1.2002 0
    endloop
  endfacet
  facet normal -1 -0 0
    outer loop
      vertex 0 1.2002 2
      vertex 0 0 0
      vertex 0 0 2
    endloop
  endfacet
  facet normal 0 -1 0
    outer loop
      vertex 0 0 0
      vertex 80 0 2
      vertex 0 0 2
    endloop
  endfacet
  facet normal 0 -1 -0
    outer loop
      vertex 80 0 2
      vertex 0 0 0
      vertex 80 0 0
    endloop
  endfacet
  facet normal 1 -0 0
    outer loop
      vertex 2.7998 16.7822 2
      vertex 2.7998 18.7998 0
      vertex 2.7998 18.7998 2
    endloop
  endfacet
  facet normal 1 0 0
    outer loop
      vertex 2.7998 18.7998 0
      vertex 2.7998 16.7822 2
      vertex 2.7998 16.7822 0
    endloop
  endfacet
  facet normal 0 -1 0
    outer loop
      vertex 2.7998 18.7998 0
      vertex 37.2002 18.7998 2
      vertex 2.7998 18.7998 2
    endloop
  endfacet
  facet normal 0 -1 -0
    outer loop
      vertex 37.2002 18.7998 2
      vertex 2.7998 18.7998 0
      vertex 37.2002 18.7998 0
    endloop
  endfacet
  facet normal -1 0 0
    outer loop
      vertex 37.2002 16.7822 0
      vertex 37.2002 18.7998 2
      vertex 37.2002 18.7998 0
    endloop
  endfacet
  facet normal -1 -0 0
    outer loop
      vertex 37.2002 18.7998 2
      vertex 37.2002 16.7822 0
      vertex 37.2002 16.7822 2
    endloop
  endfacet
  facet normal -0.347859 0.937547 0
    outer loop
      vertex 37.2002 16.7822 0
      vertex 20 10.4004 2
      vertex 37.2002 16.7822 2
    endloop
  endfacet
  facet normal -0.347859 0.937547 0
    outer loop
      vertex 20 10.4004 2
      vertex 37.2002 16.7822 0
      vertex 20 10.4004 0
    endloop
  endfacet
  facet normal 0.347859 0.937547 -0
    outer loop
      vertex 20 10.4004 0
      vertex 2.7998 16.7822 2
      vertex 20 10.4004 2
    endloop
  endfacet
  facet normal 0.347859 0.937547 0
    outer loop
      vertex 2.7998 16.7822 2
      vertex 20 10.4004 0
      vertex 2.7998 16.7822 0
    endloop
  endfacet
  facet normal 1 -0 0
    outer loop
      vertex 0.799805 3.59961 2
      vertex 0.799805 16.4004 0
      vertex 0.799805 16.4004 2
    endloop
  endfacet
  facet normal 1 0 0
    outer loop
      vertex 0.799805 16.4004 0
      vertex 0.799805 3.59961 2
      vertex 0.799805 3.59961 0
    endloop
  endfacet
  facet normal 0 -1 0
    outer loop
      vertex 0.799805 16.4004 0
      vertex 2.37402 16.4004 2
      vertex 0.799805 16.4004 2
    endloop
  endfacet
  facet normal 0 -1 -0
    outer loop
      vertex 2.37402 16.4004 2
      vertex 0.799805 16.4004 0
      vertex 2.37402 16.4004 0
    endloop
  endfacet
  facet normal -0.348298 -0.937384 0
    outer loop
      vertex 2.37402 16.4004 0
      vertex 19.5996 10 2
      vertex 2.37402 16.4004 2
    endloop
  endfacet
  facet normal -0.348298 -0.937384 -0
    outer loop
      vertex 19.5996 10 2
      vertex 2.37402 16.4004 0
      vertex 19.5996 10 0
    endloop
  endfacet
  facet normal -0.348766 0.93721 0
    outer loop
      vertex 19.5996 10 0
      vertex 2.40039 3.59961 2
      vertex 19.5996 10 2
    endloop
  endfacet
  facet normal -0.348766 0.93721 0
    outer loop
      vertex 2.40039 3.59961 2
      vertex 19.5996 10 0
      vertex 2.40039 3.59961 0
    endloop
  endfacet
  facet normal 0 1 -0
    outer loop
      vertex 2.40039 3.59961 0
      vertex 0.799805 3.59961 2
      vertex 2.40039 3.59961 2
    endloop
  endfacet
  facet normal 0 1 0
    outer loop
      vertex 0.799805 3.59961 2
      vertex 2.40039 3.59961 0
      vertex 0.799805 3.59961 0
    endloop
  endfacet
  facet normal 0.348767 0.93721 -0
    outer loop
      vertex 37.5996 3.59961 0
      vertex 20.4004 10 2
      vertex 37.5996 3.59961 2
    endloop
  endfacet
  facet normal 0.348767 0.93721 0
    outer loop
      vertex 20.4004 10 2
      vertex 37.5996 3.59961 0
      vertex 20.4004 10 0
    endloop
  endfacet
  facet normal 0.348767 -0.937209 0
    outer loop
      vertex 20.4004 10 0
      vertex 37.5996 16.4004 2
      vertex 20.4004 10 2
    endloop
  endfacet
  facet normal 0.348767 -0.937209 0
    outer loop
      vertex 37.5996 16.4004 2
      vertex 20.4004 10 0
      vertex 37.5996 16.4004 0
    endloop
  endfacet
  facet normal 0 -1 0
    outer loop
      vertex 37.5996 16.4004 0
      vertex 39.2002 16.4004 2
      vertex 37.5996 16.4004 2
    endloop
  endfacet
  facet normal 0 -1 -0
    outer loop
      vertex 39.2002 16.4004 2
      vertex 37.5996 16.4004 0
      vertex 39.2002 16.4004 0
    endloop
  endfacet
  facet normal -1 0 0
    outer loop
      vertex 39.2002 3.59961 0
      vertex 39.2002 16.4004 2
      vertex 39.2002 16.4004 0
    endloop
  endfacet
  facet normal -1 -0 0
    outer loop
      vertex 39.2002 16.4004 2
      vertex 39.2002 3.59961 0
      vertex 39.2002 3.59961 2
    endloop
  endfacet
  facet normal 0 1 -0
    outer loop
      vertex 39.2002 3.59961 0
      vertex 37.5996 3.59961 2
      vertex 39.2002 3.59961 2
    endloop
  endfacet
  facet normal 0 1 0
    outer loop
      vertex 37.5996 3.59961 2
      vertex 39.2002 3.59961 0
      vertex 37.5996 3.59961 0
    endloop
  endfacet
  facet normal 1 -0 0
    outer loop
      vertex 2.7998 1.2002 2
      vertex 2.7998 3.21777 0
      vertex 2.7998 3.21777 2
    endloop
  endfacet
  facet normal 1 0 0
    outer loop
      vertex 2.7998 3.21777 0
      vertex 2.7998 1.2002 2
      vertex 2.7998 1.2002 0
    endloop
  endfacet
  facet normal 0.347861 -0.937546 0
    outer loop
      vertex 2.7998 3.21777 0
      vertex 20 9.59961 2
      vertex 2.7998 3.21777 2
    endloop
  endfacet
  facet normal 0.347861 -0.937546 0
    outer loop
      vertex 20 9.59961 2
      vertex 2.7998 3.21777 0
      vertex 20 9.59961 0
    endloop
  endfacet
  facet normal -0.347861 -0.937546 0
    outer loop
      vertex 20 9.59961 0
      vertex 37.2002 3.21777 2
      vertex 20 9.59961 2
    endloop
  endfacet
  facet normal -0.347861 -0.937546 -0
    outer loop
      vertex 37.2002 3.21777 2
      vertex 20 9.59961 0
      vertex 37.2002 3.21777 0
    endloop
  endfacet
  facet normal -1 0 0
    outer loop
      vertex 37.2002 1.2002 0
      vertex 37.2002 3.21777 2
      vertex 37.2002 3.21777 0
    endloop
  endfacet
  facet normal -1 -0 0
    outer loop
      vertex 37.2002 3.21777 2
      vertex 37.2002 1.2002 0
      vertex 37.2002 1.2002 2
    endloop
  endfacet
  facet normal 0 1 -0
    outer loop
      vertex 37.2002 1.2002 0
      vertex 2.7998 1.2002 2
      vertex 37.2002 1.2002 2
    endloop
  endfacet
  facet normal 0 1 0
    outer loop
      vertex 2.7998 1.2002 2
      vertex 37.2002 1.2002 0
      vertex 2.7998 1.2002 0
    endloop
  endfacet
  facet normal 0 1 -0
    outer loop
      vertex 80 1.2002 0
      vertex 78 1.2002 2
      vertex 80 1.2002 2
    endloop
  endfacet
  facet normal 0 1 0
    outer loop
      vertex 78 1.2002 2
      vertex 80 1.2002 0
      vertex 78 1.2002 0
    endloop
  endfacet
  facet normal 1 -0 0
    outer loop
      vertex 78 1.2002 2
      vertex 78 2.90039 0
      vertex 78 2.90039 2
    endloop
  endfacet
  facet normal 1 0 0
    outer loop
      vertex 78 2.90039 0
      vertex 78 1.2002 2
      vertex 78 1.2002 0
    endloop
  endfacet
  facet normal 0 -1 0
    outer loop
      vertex 78 2.90039 0
      vertex 80 2.90039 2
      vertex 78 2.90039 2
    endloop
  endfacet
  facet normal 0 -1 -0
    outer loop
      vertex 80 2.90039 2
      vertex 78 2.90039 0
      vertex 80 2.90039 0
    endloop
  endfacet
  facet normal 1 -0 0
    outer loop
      vertex 80 2.90039 2
      vertex 80 17.0996 0
      vertex 80 17.0996 2
    endloop
  endfacet
  facet normal 1 0 0
    outer loop
      vertex 80 17.0996 0
      vertex 80 2.90039 2
      vertex 80 2.90039 0
    endloop
  endfacet
  facet normal 0 1 -0
    outer loop
      vertex 80 17.0996 0
      vertex 78 17.0996 2
      vertex 80 17.0996 2
    endloop
  endfacet
  facet normal 0 1 0
    outer loop
      vertex 78 17.0996 2
      vertex 80 17.0996 0
      vertex 78 17.0996 0
    endloop
  endfacet
  facet normal 1 -0 0
    outer loop
      vertex 78 17.0996 2
      vertex 78 18.7998 0
      vertex 78 18.7998 2
    endloop
  endfacet
  facet normal 1 0 0
    outer loop
      vertex 78 18.7998 0
      vertex 78 17.0996 2
      vertex 78 17.0996 0
    endloop
  endfacet
  facet normal 0 -1 0
    outer loop
      vertex 78 18.7998 0
      vertex 80 18.7998 2
      vertex 78 18.7998 2
    endloop
  endfacet
  facet normal 0 -1 -0
    outer loop
      vertex 80 18.7998 2
      vertex 78 18.7998 0
      vertex 80 18.7998 0
    endloop
  endfacet
  facet normal 1 -0 0
    outer loop
      vertex 80 18.7998 2
      vertex 80 20 0
      vertex 80 20 2
    endloop
  endfacet
  facet normal 1 0 0
    outer loop
      vertex 80 20 0
      vertex 80 18.7998 2
      vertex 80 18.7998 0
    endloop
  endfacet
  facet normal -1 0 0
    outer loop
      vertex 42 17.0996 0
      vertex 42 18.7998 2
      vertex 42 18.7998 0
    endloop
  endfacet
  facet normal -1 -0 0
    outer loop
      vertex 42 18.7998 2
      vertex 42 17.0996 0
      vertex 42 17.0996 2
    endloop
  endfacet
  facet normal -1 0 0
    outer loop
      vertex 42 1.2002 0
      vertex 42 2.90039 2
      vertex 42 2.90039 0
    endloop
  endfacet
  facet normal -1 -0 0
    outer loop
      vertex 42 2.90039 2
      vertex 42 1.2002 0
      vertex 42 1.2002 2
    endloop
  endfacet
  facet normal 1 -0 0
    outer loop
      vertex 80 0 2
      vertex 80 1.2002 0
      vertex 80 1.2002 2
    endloop
  endfacet
  facet normal 1 0 0
    outer loop
      vertex 80 1.2002 0
      vertex 80 0 2
      vertex 80 0 0
    endloop
  endfacet
  facet normal 1 -0 0
    outer loop
      vertex 42.7998 16.7822 2
      vertex 42.7998 18.7998 0
      vertex 42.7998 18.7998 2
    endloop
  endfacet
  facet normal 1 0 0
    outer loop
      vertex 42.7998 18.7998 0
      vertex 42.7998 16.7822 2
      vertex 42.7998 16.7822 0
    endloop
  endfacet
  facet normal 0 -1 0
    outer loop
      vertex 42.7998 18.7998 0
      vertex 77.2002 18.7998 2
      vertex 42.7998 18.7998 2
    endloop
  endfacet
  facet normal 0 -1 -0
    outer loop
      vertex 77.2002 18.7998 2
      vertex 42.7998 18.7998 0
      vertex 77.2002 18.7998 0
    endloop
  endfacet
  facet normal -1 0 0
    outer loop
      vertex 77.2002 16.7822 0
      vertex 77.2002 18.7998 2
      vertex 77.2002 18.7998 0
    endloop
  endfacet
  facet normal -1 -0 0
    outer loop
      vertex 77.2002 18.7998 2
      vertex 77.2002 16.7822 0
      vertex 77.2002 16.7822 2
    endloop
  endfacet
  facet normal -0.347859 0.937547 0
    outer loop
      vertex 77.2002 16.7822 0
      vertex 60 10.4004 2
      vertex 77.2002 16.7822 2
    endloop
  endfacet
  facet normal -0.347859 0.937547 0
    outer loop
      vertex 60 10.4004 2
      vertex 77.2002 16.7822 0
      vertex 60 10.4004 0
    endloop
  endfacet
  facet normal 0.347859 0.937547 -0
    outer loop
      vertex 60 10.4004 0
      vertex 42.7998 16.7822 2
      vertex 60 10.4004 2
    endloop
  endfacet
  facet normal 0.347859 0.937547 0
    outer loop
      vertex 42.7998 16.7822 2
      vertex 60 10.4004 0
      vertex 42.7998 16.7822 0
    endloop
  endfacet
  facet normal 1 -0 0
    outer loop
      vertex 40.7998 3.59961 2
      vertex 40.7998 16.4004 0
      vertex 40.7998 16.4004 2
    endloop
  endfacet
  facet normal 1 0 0
    outer loop
      vertex 40.7998 16.4004 0
      vertex 40.7998 3.59961 2
      vertex 40.7998 3.59961 0
    endloop
  endfacet
  facet normal 0 -1 0
    outer loop
      vertex 40.7998 16.4004 0
      vertex 42.374 16.4004 2
      vertex 40.7998 16.4004 2
    endloop
  endfacet
  facet normal 0 -1 -0
    outer loop
      vertex 42.374 16.4004 2
      vertex 40.7998 16.4004 0
      vertex 42.374 16.4004 0
    endloop
  endfacet
  facet normal -0.348297 -0.937384 0
    outer loop
      vertex 42.374 16.4004 0
      vertex 59.5996 10 2
      vertex 42.374 16.4004 2
    endloop
  endfacet
  facet normal -0.348297 -0.937384 -0
    outer loop
      vertex 59.5996 10 2
      vertex 42.374 16.4004 0
      vertex 59.5996 10 0
    endloop
  endfacet
  facet normal -0.348767 0.93721 0
    outer loop
      vertex 59.5996 10 0
      vertex 42.4004 3.59961 2
      vertex 59.5996 10 2
    endloop
  endfacet
  facet normal -0.348767 0.93721 0
    outer loop
      vertex 42.4004 3.59961 2
      vertex 59.5996 10 0
      vertex 42.4004 3.59961 0
    endloop
  endfacet
  facet normal 0 1 -0
    outer loop
      vertex 42.4004 3.59961 0
      vertex 40.7998 3.59961 2
      vertex 42.4004 3.59961 2
    endloop
  endfacet
  facet normal 0 1 0
    outer loop
      vertex 40.7998 3.59961 2
      vertex 42.4004 3.59961 0
      vertex 40.7998 3.59961 0
    endloop
  endfacet
  facet normal 0.348767 0.93721 -0
    outer loop
      vertex 77.5996 3.59961 0
      vertex 60.4004 10 2
      vertex 77.5996 3.59961 2
    endloop
  endfacet
  facet normal 0.348767 0.93721 0
    outer loop
      vertex 60.4004 10 2
      vertex 77.5996 3.59961 0
      vertex 60.4004 10 0
    endloop
  endfacet
  facet normal 0.348767 -0.937209 0
    outer loop
      vertex 60.4004 10 0
      vertex 77.5996 16.4004 2
      vertex 60.4004 10 2
    endloop
  endfacet
  facet normal 0.348767 -0.937209 0
    outer loop
      vertex 77.5996 16.4004 2
      vertex 60.4004 10 0
      vertex 77.5996 16.4004 0
    endloop
  endfacet
  facet normal 0 -1 0
    outer loop
      vertex 77.5996 16.4004 0
      vertex 79.2002 16.4004 2
      vertex 77.5996 16.4004 2
    endloop
  endfacet
  facet normal 0 -1 -0
    outer loop
      vertex 79.2002 16.4004 2
      vertex 77.5996 16.4004 0
      vertex 79.2002 16.4004 0
    endloop
  endfacet
  facet normal -1 0 0
    outer loop
      vertex 79.2002 3.59961 0
      vertex 79.2002 16.4004 2
      vertex 79.2002 16.4004 0
    endloop
  endfacet
  facet normal -1 -0 0
    outer loop
      vertex 79.2002 16.4004 2
      vertex 79.2002 3.59961 0
      vertex 79.2002 3.59961 2
    endloop
  endfacet
  facet normal 0 1 -0
    outer loop
      vertex 79.2002 3.59961 0
      vertex 77.5996 3.59961 2
      vertex 79.2002 3.59961 2
    endloop
  endfacet
  facet normal 0 1 0
    outer loop
      vertex 77.5996 3.59961 2
      vertex 79.2002 3.59961 0
      vertex 77.5996 3.59961 0
    endloop
  endfacet
  facet normal 1 -0 0
    outer loop
      vertex 42.7998 1.2002 2
      vertex 42.7998 3.21777 0
      vertex 42.7998 3.21777 2
    endloop
  endfacet
  facet normal 1 0 0
    outer loop
      vertex 42.7998 3.21777 0
      vertex 42.7998 1.2002 2
      vertex 42.7998 1.2002 0
    endloop
  endfacet
  facet normal 0.347861 -0.937546 0
    outer loop
      vertex 42.7998 3.21777 0
      vertex 60 9.59961 2
      vertex 42.7998 3.21777 2
    endloop
  endfacet
  facet normal 0.347861 -0.937546 0
    outer loop
      vertex 60 9.59961 2
      vertex 42.7998 3.21777 0
      vertex 60 9.59961 0
    endloop
  endfacet
  facet normal -0.347861 -0.937546 0
    outer loop
      vertex 60 9.59961 0
      vertex 77.2002 3.21777 2
      vertex 60 9.59961 2
    endloop
  endfacet
  facet normal -0.347861 -0.937546 -0
    outer loop
      vertex 77.2002 3.21777 2
      vertex 60 9.59961 0
      vertex 77.2002 3.21777 0
    endloop
  endfacet
  facet normal -1 0 0
    outer loop
      vertex 77.2002 1.2002 0
      vertex 77.2002 3.21777 2
      vertex 77.2002 3.21777 0
    endloop
  endfacet
  facet normal -1 -0 0
    outer loop
      vertex 77.2002 3.21777 2
      vertex 77.2002 1.2002 0
      vertex 77.2002 1.2002 2
    endloop
  endfacet
  facet normal 0 1 -0
    outer loop
      vertex 77.2002 1.2002 0
      vertex 42.7998 1.2002 2
      vertex 77.2002 1.2002 2
    endloop
  endfacet
  facet normal 0 1 0
    outer loop
      vertex 42.7998 1.2002 2
      vertex 77.2002 1.2002 0
      vertex 42.7998 1.2002 0
    endloop
  endfacet
  facet normal 0 0 -1
    outer loop
      vertex 19.5996 40 0
      vertex 1.2002 49.2002 0
      vertex 20 40.4004 0
    endloop
  endfacet
  facet normal 0 0 -1
    outer loop
      vertex 0.799805 48.7998 0
      vertex 1.2002 49.2002 0
      vertex 19.5996 40 0
    endloop
  endfacet
  facet normal 0 0 -1
    outer loop
      vertex 0.799805 48.7998 0
      vertex 1.09961 50 0
      vertex 1.2002 49.2002 0
    endloop
  endfacet
  facet normal 0 0 -1
    outer loop
      vertex 0 51.2002 0
      vertex 1.09961 50 0
      vertex 0.799805 48.7998 0
    endloop
  endfacet
  facet normal 0 0 -1
    outer loop
      vertex 1.09961 50 0
      vertex 0 51.2002 0
      vertex 1 51.2002 0
    endloop
  endfacet
  facet normal 0 0 -1
    outer loop
      vertex 0 51.2002 0
      vertex 0.799805 48.7998 0
      vertex 0 28.7998 0
    endloop
  endfacet
  facet normal 0 0 -1
    outer loop
      vertex 38.9004 30 0
      vertex 1.2002 30.7998 0
      vertex 38.7998 30.7998 0
    endloop
  endfacet
  facet normal 0 -0 -1
    outer loop
      vertex 1.2002 30.7998 0
      vertex 38.9004 30 0
      vertex 1.09961 30 0
    endloop
  endfacet
  facet normal 0 0 -1
    outer loop
      vertex 1.2002 49.2002 0
      vertex 38.9004 50 0
      vertex 38.7998 49.2002 0
    endloop
  endfacet
  facet normal -0 0 -1
    outer loop
      vertex 38.9004 50 0
      vertex 1.2002 49.2002 0
      vertex 1.09961 50 0
    endloop
  endfacet
  facet normal 0 0 -1
    outer loop
      vertex 59.5996 40 0
      vertex 41.2002 49.2002 0
      vertex 60 40.4004 0
    endloop
  endfacet
  facet normal 0 0 -1
    outer loop
      vertex 40.7998 48.7998 0
      vertex 41.2002 49.2002 0
      vertex 59.5996 40 0
    endloop
  endfacet
  facet normal 0 0 -1
    outer loop
      vertex 40.7998 48.7998 0
      vertex 41.0996 50 0
      vertex 41.2002 49.2002 0
    endloop
  endfacet
  facet normal 0 0 -1
    outer loop
      vertex 38.9004 50 0
      vertex 41.0996 50 0
      vertex 40.7998 48.7998 0
    endloop
  endfacet
  facet normal 0 0 -1
    outer loop
      vertex 39.2002 48.7998 0
      vertex 40.7998 48.7998 0
      vertex 39.2002 31.2002 0
    endloop
  endfacet
  facet normal 0 0 -1
    outer loop
      vertex 38.9004 50 0
      vertex 40.7998 48.7998 0
      vertex 39.2002 48.7998 0
    endloop
  endfacet
  facet normal 0 0 -1
    outer loop
      vertex 41.0996 50 0
      vertex 38.9004 50 0
      vertex 41 51.2002 0
    endloop
  endfacet
  facet normal -0 0 -1
    outer loop
      vertex 41 51.2002 0
      vertex 38.9004 50 0
      vertex 39 51.2002 0
    endloop
  endfacet
  facet normal 0 0 -1
    outer loop
      vertex 39.2002 48.7998 0
      vertex 38.7998 49.2002 0
      vertex 38.9004 50 0
    endloop
  endfacet
  facet normal 0 0 -1
    outer loop
      vertex 20.4004 40 0
      vertex 38.7998 49.2002 0
      vertex 39.2002 48.7998 0
    endloop
  endfacet
  facet normal 0 0 -1
    outer loop
      vertex 20.4004 40 0
      vertex 20 40.4004 0
      vertex 38.7998 49.2002 0
    endloop
  endfacet
  facet normal 0 0 -1
    outer loop
      vertex 20 39.5996 0
      vertex 20 40.4004 0
      vertex 20.4004 40 0
    endloop
  endfacet
  facet normal 0 0 -1
    outer loop
      vertex 20 39.5996 0
      vertex 19.5996 40 0
      vertex 20 40.4004 0
    endloop
  endfacet
  facet normal 0 0 -1
    outer loop
      vertex 1.2002 30.7998 0
      vertex 19.5996 40 0
      vertex 20 39.5996 0
    endloop
  endfacet
  facet normal 0 0 -1
    outer loop
      vertex 1.2002 30.7998 0
      vertex 0.799805 31.2002 0
      vertex 19.5996 40 0
    endloop
  endfacet
  facet normal 0 0 -1
    outer loop
      vertex 1.09961 30 0
      vertex 0.799805 31.2002 0
      vertex 1.2002 30.7998 0
    endloop
  endfacet
  facet normal 0 0 -1
    outer loop
      vertex 0 28.7998 0
      vertex 1.09961 30 0
      vertex 1 28.7998 0
    endloop
  endfacet
  facet normal -0 0 -1
    outer loop
      vertex 0.799805 31.2002 0
      vertex 0 28.7998 0
      vertex 0.799805 48.7998 0
    endloop
  endfacet
  facet normal -0 0 -1
    outer loop
      vertex 1.09961 30 0
      vertex 0 28.7998 0
      vertex 0.799805 31.2002 0
    endloop
  endfacet
  facet normal 0 0 -1
    outer loop
      vertex 78.9004 30 0
      vertex 41.2002 30.7998 0
      vertex 78.7998 30.7998 0
    endloop
  endfacet
  facet normal 0 -0 -1
    outer loop
      vertex 41.2002 30.7998 0
      vertex 78.9004 30 0
      vertex 41.0996 30 0
    endloop
  endfacet
  facet normal 0 0 -1
    outer loop
      vertex 80 28.7998 0
      vertex 79.2002 31.2002 0
      vertex 80 51.2002 0
    endloop
  endfacet
  facet normal 0 0 -1
    outer loop
      vertex 78.9004 30 0
      vertex 80 28.7998 0
      vertex 79 28.7998 0
    endloop
  endfacet
  facet normal 0 0 -1
    outer loop
      vertex 80 28.7998 0
      vertex 78.9004 30 0
      vertex 79.2002 31.2002 0
    endloop
  endfacet
  facet normal 0 0 -1
    outer loop
      vertex 78.7998 30.7998 0
      vertex 79.2002 31.2002 0
      vertex 78.9004 30 0
    endloop
  endfacet
  facet normal 0 0 -1
    outer loop
      vertex 78.7998 30.7998 0
      vertex 60.4004 40 0
      vertex 79.2002 31.2002 0
    endloop
  endfacet
  facet normal 0 -0 -1
    outer loop
      vertex 60.4004 40 0
      vertex 78.7998 30.7998 0
      vertex 60 39.5996 0
    endloop
  endfacet
  facet normal 0 0 -1
    outer loop
      vertex 79.2002 48.7998 0
      vertex 80 51.2002 0
      vertex 79.2002 31.2002 0
    endloop
  endfacet
  facet normal 0 0 -1
    outer loop
      vertex 78.9004 50 0
      vertex 80 51.2002 0
      vertex 79.2002 48.7998 0
    endloop
  endfacet
  facet normal -0 0 -1
    outer loop
      vertex 80 51.2002 0
      vertex 78.9004 50 0
      vertex 79 51.2002 0
    endloop
  endfacet
  facet normal 0 0 -1
    outer loop
      vertex 79.2002 48.7998 0
      vertex 78.7998 49.2002 0
      vertex 78.9004 50 0
    endloop
  endfacet
  facet normal 0 0 -1
    outer loop
      vertex 60.4004 40 0
      vertex 78.7998 49.2002 0
      vertex 79.2002 48.7998 0
    endloop
  endfacet
  facet normal 0 0 -1
    outer loop
      vertex 60.4004 40 0
      vertex 60 40.4004 0
      vertex 78.7998 49.2002 0
    endloop
  endfacet
  facet normal 0 0 -1
    outer loop
      vertex 60 39.5996 0
      vertex 60 40.4004 0
      vertex 60.4004 40 0
    endloop
  endfacet
  facet normal 0 0 -1
    outer loop
      vertex 60 39.5996 0
      vertex 59.5996 40 0
      vertex 60 40.4004 0
    endloop
  endfacet
  facet normal 0 0 -1
    outer loop
      vertex 41.2002 30.7998 0
      vertex 59.5996 40 0
      vertex 60 39.5996 0
    endloop
  endfacet
  facet normal 0 0 -1
    outer loop
      vertex 41.2002 30.7998 0
      vertex 40.7998 31.2002 0
      vertex 59.5996 40 0
    endloop
  endfacet
  facet normal 0 0 -1
    outer loop
      vertex 41.0996 30 0
      vertex 40.7998 31.2002 0
      vertex 41.2002 30.7998 0
    endloop
  endfacet
  facet normal 0 0 -1
    outer loop
      vertex 38.9004 30 0
      vertex 41.0996 30 0
      vertex 41 28.7998 0
    endloop
  endfacet
  facet normal 0 0 -1
    outer loop
      vertex 40.7998 31.2002 0
      vertex 39.2002 31.2002 0
      vertex 40.7998 48.7998 0
    endloop
  endfacet
  facet normal 0 0 -1
    outer loop
      vertex 41.0996 30 0
      vertex 38.9004 30 0
      vertex 40.7998 31.2002 0
    endloop
  endfacet
  facet normal 0 0 -1
    outer loop
      vertex 38.9004 30 0
      vertex 41 28.7998 0
      vertex 39 28.7998 0
    endloop
  endfacet
  facet normal -0 0 -1
    outer loop
      vertex 40.7998 31.2002 0
      vertex 38.9004 30 0
      vertex 39.2002 31.2002 0
    endloop
  endfacet
  facet normal 0 0 -1
    outer loop
      vertex 38.7998 30.7998 0
      vertex 39.2002 31.2002 0
      vertex 38.9004 30 0
    endloop
  endfacet
  facet normal 0 0 -1
    outer loop
      vertex 38.7998 30.7998 0
      vertex 20.4004 40 0
      vertex 39.2002 31.2002 0
    endloop
  endfacet
  facet normal 0 -0 -1
    outer loop
      vertex 20.4004 40 0
      vertex 38.7998 30.7998 0
      vertex 20 39.5996 0
    endloop
  endfacet
  facet normal 0 0 -1
    outer loop
      vertex 41.2002 49.2002 0
      vertex 78.9004 50 0
      vertex 78.7998 49.2002 0
    endloop
  endfacet
  facet normal -0 0 -1
    outer loop
      vertex 78.9004 50 0
      vertex 41.2002 49.2002 0
      vertex 41.0996 50 0
    endloop
  endfacet
  facet normal 0 0 1
    outer loop
      vertex 19.5996 40 1.2
      vertex 1.2002 30.7998 1.2
      vertex 20 39.5996 1.2
    endloop
  endfacet
  facet normal -0 0 1
    outer loop
      vertex 0.799805 31.2002 1.2
      vertex 1.2002 30.7998 1.2
      vertex 19.5996 40 1.2
    endloop
  endfacet
  facet normal 0 0 1
    outer loop
      vertex 0.799805 31.2002 1.2
      vertex 1.09961 30 1.2
      vertex 1.2002 30.7998 1.2
    endloop
  endfacet
  facet normal 0 0 1
    outer loop
      vertex 0 28.7998 1.2
      vertex 1.09961 30 1.2
      vertex 0.799805 31.2002 1.2
    endloop
  endfacet
  facet normal 0 0 1
    outer loop
      vertex 1.09961 30 1.2
      vertex 0 28.7998 1.2
      vertex 1 28.7998 1.2
    endloop
  endfacet
  facet normal 0 0 1
    outer loop
      vertex 0 28.7998 1.2
      vertex 0.799805 31.2002 1.2
      vertex 0 51.2002 1.2
    endloop
  endfacet
  facet normal 0 0 1
    outer loop
      vertex 38.9004 50 1.2
      vertex 1.2002 49.2002 1.2
      vertex 38.7998 49.2002 1.2
    endloop
  endfacet
  facet normal 0 -0 1
    outer loop
      vertex 1.2002 49.2002 1.2
      vertex 38.9004 50 1.2
      vertex 1.09961 50 1.2
    endloop
  endfacet
  facet normal -0 0 1
    outer loop
      vertex 1.2002 30.7998 1.2
      vertex 38.9004 30 1.2
      vertex 38.7998 30.7998 1.2
    endloop
  endfacet
  facet normal 0 0 1
    outer loop
      vertex 38.9004 30 1.2
      vertex 1.2002 30.7998 1.2
      vertex 1.09961 30 1.2
    endloop
  endfacet
  facet normal 0 0 1
    outer loop
      vertex 59.5996 40 1.2
      vertex 41.2002 30.7998 1.2
      vertex 60 39.5996 1.2
    endloop
  endfacet
  facet normal -0 0 1
    outer loop
      vertex 40.7998 31.2002 1.2
      vertex 41.2002 30.7998 1.2
      vertex 59.5996 40 1.2
    endloop
  endfacet
  facet normal 0 0 1
    outer loop
      vertex 40.7998 31.2002 1.2
      vertex 41.0996 30 1.2
      vertex 41.2002 30.7998 1.2
    endloop
  endfacet
  facet normal 0 0 1
    outer loop
      vertex 38.9004 30 1.2
      vertex 41.0996 30 1.2
      vertex 40.7998 31.2002 1.2
    endloop
  endfacet
  facet normal 0 0 1
    outer loop
      vertex 39.2002 31.2002 1.2
      vertex 40.7998 31.2002 1.2
      vertex 39.2002 48.7998 1.2
    endloop
  endfacet
  facet normal 0 0 1
    outer loop
      vertex 38.9004 30 1.2
      vertex 40.7998 31.2002 1.2
      vertex 39.2002 31.2002 1.2
    endloop
  endfacet
  facet normal 0 0 1
    outer loop
      vertex 41.0996 30 1.2
      vertex 38.9004 30 1.2
      vertex 41 28.7998 1.2
    endloop
  endfacet
  facet normal 0 0 1
    outer loop
      vertex 41 28.7998 1.2
      vertex 38.9004 30 1.2
      vertex 39 28.7998 1.2
    endloop
  endfacet
  facet normal 0 0 1
    outer loop
      vertex 39.2002 31.2002 1.2
      vertex 38.7998 30.7998 1.2
      vertex 38.9004 30 1.2
    endloop
  endfacet
  facet normal 0 0 1
    outer loop
      vertex 20.4004 40 1.2
      vertex 38.7998 30.7998 1.2
      vertex 39.2002 31.2002 1.2
    endloop
  endfacet
  facet normal 0 0 1
    outer loop
      vertex 20.4004 40 1.2
      vertex 20 39.5996 1.2
      vertex 38.7998 30.7998 1.2
    endloop
  endfacet
  facet normal 0 0 1
    outer loop
      vertex 20 40.4004 1.2
      vertex 20 39.5996 1.2
      vertex 20.4004 40 1.2
    endloop
  endfacet
  facet normal 0 0 1
    outer loop
      vertex 20 40.4004 1.2
      vertex 19.5996 40 1.2
      vertex 20 39.5996 1.2
    endloop
  endfacet
  facet normal 0 0 1
    outer loop
      vertex 1.2002 49.2002 1.2
      vertex 19.5996 40 1.2
      vertex 20 40.4004 1.2
    endloop
  endfacet
  facet normal 0 0 1
    outer loop
      vertex 1.2002 49.2002 1.2
      vertex 0.799805 48.7998 1.2
      vertex 19.5996 40 1.2
    endloop
  endfacet
  facet normal 0 0 1
    outer loop
      vertex 1.09961 50 1.2
      vertex 0.799805 48.7998 1.2
      vertex 1.2002 49.2002 1.2
    endloop
  endfacet
  facet normal -0 0 1
    outer loop
      vertex 0 51.2002 1.2
      vertex 1.09961 50 1.2
      vertex 1 51.2002 1.2
    endloop
  endfacet
  facet normal 0 0 1
    outer loop
      vertex 0.799805 48.7998 1.2
      vertex 0 51.2002 1.2
      vertex 0.799805 31.2002 1.2
    endloop
  endfacet
  facet normal 0 0 1
    outer loop
      vertex 1.09961 50 1.2
      vertex 0 51.2002 1.2
      vertex 0.799805 48.7998 1.2
    endloop
  endfacet
  facet normal 0 0 1
    outer loop
      vertex 78.9004 50 1.2
      vertex 41.2002 49.2002 1.2
      vertex 78.7998 49.2002 1.2
    endloop
  endfacet
  facet normal 0 -0 1
    outer loop
      vertex 41.2002 49.2002 1.2
      vertex 78.9004 50 1.2
      vertex 41.0996 50 1.2
    endloop
  endfacet
  facet normal 0 0 1
    outer loop
      vertex 80 51.2002 1.2
      vertex 79.2002 48.7998 1.2
      vertex 80 28.7998 1.2
    endloop
  endfacet
  facet normal 0 0 1
    outer loop
      vertex 78.9004 50 1.2
      vertex 80 51.2002 1.2
      vertex 79 51.2002 1.2
    endloop
  endfacet
  facet normal 0 0 1
    outer loop
      vertex 80 51.2002 1.2
      vertex 78.9004 50 1.2
      vertex 79.2002 48.7998 1.2
    endloop
  endfacet
  facet normal -0 0 1
    outer loop
      vertex 78.7998 49.2002 1.2
      vertex 79.2002 48.7998 1.2
      vertex 78.9004 50 1.2
    endloop
  endfacet
  facet normal 0 0 1
    outer loop
      vertex 78.7998 49.2002 1.2
      vertex 60.4004 40 1.2
      vertex 79.2002 48.7998 1.2
    endloop
  endfacet
  facet normal 0 -0 1
    outer loop
      vertex 60.4004 40 1.2
      vertex 78.7998 49.2002 1.2
      vertex 60 40.4004 1.2
    endloop
  endfacet
  facet normal -0 0 1
    outer loop
      vertex 79.2002 31.2002 1.2
      vertex 80 28.7998 1.2
      vertex 79.2002 48.7998 1.2
    endloop
  endfacet
  facet normal -0 0 1
    outer loop
      vertex 78.9004 30 1.2
      vertex 80 28.7998 1.2
      vertex 79.2002 31.2002 1.2
    endloop
  endfacet
  facet normal 0 0 1
    outer loop
      vertex 80 28.7998 1.2
      vertex 78.9004 30 1.2
      vertex 79 28.7998 1.2
    endloop
  endfacet
  facet normal 0 0 1
    outer loop
      vertex 79.2002 31.2002 1.2
      vertex 78.7998 30.7998 1.2
      vertex 78.9004 30 1.2
    endloop
  endfacet
  facet normal 0 0 1
    outer loop
      vertex 60.4004 40 1.2
      vertex 78.7998 30.7998 1.2
      vertex 79.2002 31.2002 1.2
    endloop
  endfacet
  facet normal 0 0 1
    outer loop
      vertex 60.4004 40 1.2
      vertex 60 39.5996 1.2
      vertex 78.7998 30.7998 1.2
    endloop
  endfacet
  facet normal 0 0 1
    outer loop
      vertex 60 40.4004 1.2
      vertex 60 39.5996 1.2
      vertex 60.4004 40 1.2
    endloop
  endfacet
  facet normal 0 0 1
    outer loop
      vertex 60 40.4004 1.2
      vertex 59.5996 40 1.2
      vertex 60 39.5996 1.2
    endloop
  endfacet
  facet normal 0 0 1
    outer loop
      vertex 41.2002 49.2002 1.2
      vertex 59.5996 40 1.2
      vertex 60 40.4004 1.2
    endloop
  endfacet
  facet normal 0 0 1
    outer loop
      vertex 41.2002 49.2002 1.2
      vertex 40.7998 48.7998 1.2
      vertex 59.5996 40 1.2
    endloop
  endfacet
  facet normal 0 0 1
    outer loop
      vertex 41.0996 50 1.2
      vertex 40.7998 48.7998 1.2
      vertex 41.2002 49.2002 1.2
    endloop
  endfacet
  facet normal 0 0 1
    outer loop
      vertex 38.9004 50 1.2
      vertex 41.0996 50 1.2
      vertex 41 51.2002 1.2
    endloop
  endfacet
  facet normal 0 0 1
    outer loop
      vertex 40.7998 48.7998 1.2
      vertex 39.2002 48.7998 1.2
      vertex 40.7998 31.2002 1.2
    endloop
  endfacet
  facet normal 0 0 1
    outer loop
      vertex 41.0996 50 1.2
      vertex 38.9004 50 1.2
      vertex 40.7998 48.7998 1.2
    endloop
  endfacet
  facet normal 0 0 1
    outer loop
      vertex 38.9004 50 1.2
      vertex 41 51.2002 1.2
      vertex 39 51.2002 1.2
    endloop
  endfacet
  facet normal 0 0 1
    outer loop
      vertex 40.7998 48.7998 1.2
      vertex 38.9004 50 1.2
      vertex 39.2002 48.7998 1.2
    endloop
  endfacet
  facet normal -0 0 1
    outer loop
      vertex 38.7998 49.2002 1.2
      vertex 39.2002 48.7998 1.2
      vertex 38.9004 50 1.2
    endloop
  endfacet
  facet normal 0 0 1
    outer loop
      vertex 38.7998 49.2002 1.2
      vertex 20.4004 40 1.2
      vertex 39.2002 48.7998 1.2
    endloop
  endfacet
  facet normal 0 -0 1
    outer loop
      vertex 20.4004 40 1.2
      vertex 38.7998 49.2002 1.2
      vertex 20 40.4004 1.2
    endloop
  endfacet
  facet normal -0 0 1
    outer loop
      vertex 41.2002 30.7998 1.2
      vertex 78.9004 30 1.2
      vertex 78.7998 30.7998 1.2
    endloop
  endfacet
  facet normal 0 0 1
    outer loop
      vertex 78.9004 30 1.2
      vertex 41.2002 30.7998 1.2
      vertex 41.0996 30 1.2
    endloop
  endfacet
  facet normal 0 -1 0
    outer loop
      vertex 1.09961 30 0
      vertex 38.9004 30 1.2
      vertex 1.09961 30 1.2
    endloop
  endfacet
  facet normal 0 -1 -0
    outer loop
      vertex 38.9004 30 1.2
      vertex 1.09961 30 0
      vertex 38.9004 30 0
    endloop
  endfacet
  facet normal -0.996574 -0.0827019 0
    outer loop
      vertex 39 28.7998 0
      vertex 38.9004 30 1.2
      vertex 38.9004 30 0
    endloop
  endfacet
  facet normal -0.996574 -0.0827019 0
    outer loop
      vertex 38.9004 30 1.2
      vertex 39 28.7998 0
      vertex 39 28.7998 1.2
    endloop
  endfacet
  facet normal 0 -1 0
    outer loop
      vertex 39 28.7998 0
      vertex 41 28.7998 1.2
      vertex 39 28.7998 1.2
    endloop
  endfacet
  facet normal 0 -1 -0
    outer loop
      vertex 41 28.7998 1.2
      vertex 39 28.7998 0
      vertex 41 28.7998 0
    endloop
  endfacet
  facet normal 0 1 -0
    outer loop
      vertex 41 51.2002 0
      vertex 39 51.2002 1.2
      vertex 41 51.2002 1.2
    endloop
  endfacet
  facet normal 0 1 0
    outer loop
      vertex 39 51.2002 1.2
      vertex 41 51.2002 0
      vertex 39 51.2002 0
    endloop
  endfacet
  facet normal -0.996574 0.0827019 0
    outer loop
      vertex 38.9004 50 0
      vertex 39 51.2002 1.2
      vertex 39 51.2002 0
    endloop
  endfacet
  facet normal -0.996574 0.0827019 0
    outer loop
      vertex 39 51.2002 1.2
      vertex 38.9004 50 0
      vertex 38.9004 50 1.2
    endloop
  endfacet
  facet normal 0 1 -0
    outer loop
      vertex 38.9004 50 0
      vertex 1.09961 50 1.2
      vertex 38.9004 50 1.2
    endloop
  endfacet
  facet normal 0 1 0
    outer loop
      vertex 1.09961 50 1.2
      vertex 38.9004 50 0
      vertex 1.09961 50 0
    endloop
  endfacet
  facet normal 0.996574 0.0827101 0
    outer loop
      vertex 1.09961 50 1.2
      vertex 1 51.2002 0
      vertex 1 51.2002 1.2
    endloop
  endfacet
  facet normal 0.996574 0.0827101 0
    outer loop
      vertex 1 51.2002 0
      vertex 1.09961 50 1.2
      vertex 1.09961 50 0
    endloop
  endfacet
  facet normal 0 1 -0
    outer loop
      vertex 1 51.2002 0
      vertex 0 51.2002 1.2
      vertex 1 51.2002 1.2
    endloop
  endfacet
  facet normal 0 1 0
    outer loop
      vertex 0 51.2002 1.2
      vertex 1 51.2002 0
      vertex 0 51.2002 0
    endloop
  endfacet
  facet normal -1 0 0
    outer loop
      vertex 0 28.7998 0
      vertex 0 51.2002 1.2
      vertex 0 51.2002 0
    endloop
  endfacet
  facet normal -1 -0 0
    outer loop
      vertex 0 51.2002 1.2
      vertex 0 28.7998 0
      vertex 0 28.7998 1.2
    endloop
  endfacet
  facet normal 0 -1 0
    outer loop
      vertex 0 28.7998 0
      vertex 1 28.7998 1.2
      vertex 0 28.7998 1.2
    endloop
  endfacet
  facet normal 0 -1 -0
    outer loop
      vertex 1 28.7998 1.2
      vertex 0 28.7998 0
      vertex 1 28.7998 0
    endloop
  endfacet
  facet normal 0.996574 -0.0827101 0
    outer loop
      vertex 1 28.7998 1.2
      vertex 1.09961 30 0
      vertex 1.09961 30 1.2
    endloop
  endfacet
  facet normal 0.996574 -0.0827101 0
    outer loop
      vertex 1.09961 30 0
      vertex 1 28.7998 1.2
      vertex 1 28.7998 0
    endloop
  endfacet
  facet normal 0 -1 0
    outer loop
      vertex 1.2002 49.2002 0
      vertex 38.7998 49.2002 1.2
      vertex 1.2002 49.2002 1.2
    endloop
  endfacet
  facet normal 0 -1 -0
    outer loop
      vertex 38.7998 49.2002 1.2
      vertex 1.2002 49.2002 0
      vertex 38.7998 49.2002 0
    endloop
  endfacet
  facet normal -0.423936 0.905692 0
    outer loop
      vertex 38.7998 49.2002 0
      vertex 20 40.4004 1.2
      vertex 38.7998 49.2002 1.2
    endloop
  endfacet
  facet normal -0.423936 0.905692 0
    outer loop
      vertex 20 40.4004 1.2
      vertex 38.7998 49.2002 0
      vertex 20 40.4004 0
    endloop
  endfacet
  facet normal 0.423936 0.905692 -0
    outer loop
      vertex 20 40.4004 0
      vertex 1.2002 49.2002 1.2
      vertex 20 40.4004 1.2
    endloop
  endfacet
  facet normal 0.423936 0.905692 0
    outer loop
      vertex 1.2002 49.2002 1.2
      vertex 20 40.4004 0
      vertex 1.2002 49.2002 0
    endloop
  endfacet
  facet normal 0.423936 -0.905692 0
    outer loop
      vertex 20.4004 40 0
      vertex 39.2002 48.7998 1.2
      vertex 20.4004 40 1.2
    endloop
  endfacet
  facet normal 0.423936 -0.905692 0
    outer loop
      vertex 39.2002 48.7998 1.2
      vertex 20.4004 40 0
      vertex 39.2002 48.7998 0
    endloop
  endfacet
  facet normal -1 0 0
    outer loop
      vertex 39.2002 31.2002 0
      vertex 39.2002 48.7998 1.2
      vertex 39.2002 48.7998 0
    endloop
  endfacet
  facet normal -1 -0 0
    outer loop
      vertex 39.2002 48.7998 1.2
      vertex 39.2002 31.2002 0
      vertex 39.2002 31.2002 1.2
    endloop
  endfacet
  facet normal 0.423936 0.905692 -0
    outer loop
      vertex 39.2002 31.2002 0
      vertex 20.4004 40 1.2
      vertex 39.2002 31.2002 1.2
    endloop
  endfacet
  facet normal 0.423936 0.905692 0
    outer loop
      vertex 20.4004 40 1.2
      vertex 39.2002 31.2002 0
      vertex 20.4004 40 0
    endloop
  endfacet
  facet normal -0.423936 -0.905692 0
    outer loop
      vertex 0.799805 48.7998 0
      vertex 19.5996 40 1.2
      vertex 0.799805 48.7998 1.2
    endloop
  endfacet
  facet normal -0.423936 -0.905692 -0
    outer loop
      vertex 19.5996 40 1.2
      vertex 0.799805 48.7998 0
      vertex 19.5996 40 0
    endloop
  endfacet
  facet normal -0.423936 0.905692 0
    outer loop
      vertex 19.5996 40 0
      vertex 0.799805 31.2002 1.2
      vertex 19.5996 40 1.2
    endloop
  endfacet
  facet normal -0.423936 0.905692 0
    outer loop
      vertex 0.799805 31.2002 1.2
      vertex 19.5996 40 0
      vertex 0.799805 31.2002 0
    endloop
  endfacet
  facet normal 1 -0 0
    outer loop
      vertex 0.799805 31.2002 1.2
      vertex 0.799805 48.7998 0
      vertex 0.799805 48.7998 1.2
    endloop
  endfacet
  facet normal 1 0 0
    outer loop
      vertex 0.799805 48.7998 0
      vertex 0.799805 31.2002 1.2
      vertex 0.799805 31.2002 0
    endloop
  endfacet
  facet normal 0.423936 -0.905692 0
    outer loop
      vertex 1.2002 30.7998 0
      vertex 20 39.5996 1.2
      vertex 1.2002 30.7998 1.2
    endloop
  endfacet
  facet normal 0.423936 -0.905692 0
    outer loop
      vertex 20 39.5996 1.2
      vertex 1.2002 30.7998 0
      vertex 20 39.5996 0
    endloop
  endfacet
  facet normal -0.423936 -0.905692 0
    outer loop
      vertex 20 39.5996 0
      vertex 38.7998 30.7998 1.2
      vertex 20 39.5996 1.2
    endloop
  endfacet
  facet normal -0.423936 -0.905692 -0
    outer loop
      vertex 38.7998 30.7998 1.2
      vertex 20 39.5996 0
      vertex 38.7998 30.7998 0
    endloop
  endfacet
  facet normal 0 1 -0
    outer loop
      vertex 38.7998 30.7998 0
      vertex 1.2002 30.7998 1.2
      vertex 38.7998 30.7998 1.2
    endloop
  endfacet
  facet normal 0 1 0
    outer loop
      vertex 1.2002 30.7998 1.2
      vertex 38.7998 30.7998 0
      vertex 1.2002 30.7998 0
    endloop
  endfacet
  facet normal 0 -1 0
    outer loop
      vertex 41.0996 30 0
      vertex 78.9004 30 1.2
      vertex 41.0996 30 1.2
    endloop
  endfacet
  facet normal 0 -1 -0
    outer loop
      vertex 78.9004 30 1.2
      vertex 41.0996 30 0
      vertex 78.9004 30 0
    endloop
  endfacet
  facet normal -0.996574 -0.0827019 0
    outer loop
      vertex 79 28.7998 0
      vertex 78.9004 30 1.2
      vertex 78.9004 30 0
    endloop
  endfacet
  facet normal -0.996574 -0.0827019 0
    outer loop
      vertex 78.9004 30 1.2
      vertex 79 28.7998 0
      vertex 79 28.7998 1.2
    endloop
  endfacet
  facet normal 0 -1 0
    outer loop
      vertex 79 28.7998 0
      vertex 80 28.7998 1.2
      vertex 79 28.7998 1.2
    endloop
  endfacet
  facet normal 0 -1 -0
    outer loop
      vertex 80 28.7998 1.2
      vertex 79 28.7998 0
      vertex 80 28.7998 0
    endloop
  endfacet
  facet normal 1 -0 0
    outer loop
      vertex 80 28.7998 1.2
      vertex 80 51.2002 0
      vertex 80 51.2002 1.2
    endloop
  endfacet
  facet normal 1 0 0
    outer loop
      vertex 80 51.2002 0
      vertex 80 28.7998 1.2
      vertex 80 28.7998 0
    endloop
  endfacet
  facet normal 0 1 -0
    outer loop
      vertex 80 51.2002 0
      vertex 79 51.2002 1.2
      vertex 80 51.2002 1.2
    endloop
  endfacet
  facet normal 0 1 0
    outer loop
      vertex 79 51.2002 1.2
      vertex 80 51.2002 0
      vertex 79 51.2002 0
    endloop
  endfacet
  facet normal -0.996574 0.0827019 0
    outer loop
      vertex 78.9004 50 0
      vertex 79 51.2002 1.2
      vertex 79 51.2002 0
    endloop
  endfacet
  facet normal -0.996574 0.0827019 0
    outer loop
      vertex 79 51.2002 1.2
      vertex 78.9004 50 0
      vertex 78.9004 50 1.2
    endloop
  endfacet
  facet normal 0 1 -0
    outer loop
      vertex 78.9004 50 0
      vertex 41.0996 50 1.2
      vertex 78.9004 50 1.2
    endloop
  endfacet
  facet normal 0 1 0
    outer loop
      vertex 41.0996 50 1.2
      vertex 78.9004 50 0
      vertex 41.0996 50 0
    endloop
  endfacet
  facet normal 0.996574 0.0827019 0
    outer loop
      vertex 41.0996 50 1.2
      vertex 41 51.2002 0
      vertex 41 51.2002 1.2
    endloop
  endfacet
  facet normal 0.996574 0.0827019 0
    outer loop
      vertex 41 51.2002 0
      vertex 41.0996 50 1.2
      vertex 41.0996 50 0
    endloop
  endfacet
  facet normal 0.996574 -0.0827019 0
    outer loop
      vertex 41 28.7998 1.2
      vertex 41.0996 30 0
      vertex 41.0996 30 1.2
    endloop
  endfacet
  facet normal 0.996574 -0.0827019 0
    outer loop
      vertex 41.0996 30 0
      vertex 41 28.7998 1.2
      vertex 41 28.7998 0
    endloop
  endfacet
  facet normal 0 -1 0
    outer loop
      vertex 41.2002 49.2002 0
      vertex 78.7998 49.2002 1.2
      vertex 41.2002 49.2002 1.2
    endloop
  endfacet
  facet normal 0 -1 -0
    outer loop
      vertex 78.7998 49.2002 1.2
      vertex 41.2002 49.2002 0
      vertex 78.7998 49.2002 0
    endloop
  endfacet
  facet normal -0.423936 0.905692 0
    outer loop
      vertex 78.7998 49.2002 0
      vertex 60 40.4004 1.2
      vertex 78.7998 49.2002 1.2
    endloop
  endfacet
  facet normal -0.423936 0.905692 0
    outer loop
      vertex 60 40.4004 1.2
      vertex 78.7998 49.2002 0
      vertex 60 40.4004 0
    endloop
  endfacet
  facet normal 0.423936 0.905692 -0
    outer loop
      vertex 60 40.4004 0
      vertex 41.2002 49.2002 1.2
      vertex 60 40.4004 1.2
    endloop
  endfacet
  facet normal 0.423936 0.905692 0
    outer loop
      vertex 41.2002 49.2002 1.2
      vertex 60 40.4004 0
      vertex 41.2002 49.2002 0
    endloop
  endfacet
  facet normal 0.423936 -0.905692 0
    outer loop
      vertex 60.4004 40 0
      vertex 79.2002 48.7998 1.2
      vertex 60.4004 40 1.2
    endloop
  endfacet
  facet normal 0.423936 -0.905692 0
    outer loop
      vertex 79.2002 48.7998 1.2
      vertex 60.4004 40 0
      vertex 79.2002 48.7998 0
    endloop
  endfacet
  facet normal -1 0 0
    outer loop
      vertex 79.2002 31.2002 0
      vertex 79.2002 48.7998 1.2
      vertex 79.2002 48.7998 0
    endloop
  endfacet
  facet normal -1 -0 0
    outer loop
      vertex 79.2002 48.7998 1.2
      vertex 79.2002 31.2002 0
      vertex 79.2002 31.2002 1.2
    endloop
  endfacet
  facet normal 0.423936 0.905692 -0
    outer loop
      vertex 79.2002 31.2002 0
      vertex 60.4004 40 1.2
      vertex 79.2002 31.2002 1.2
    endloop
  endfacet
  facet normal 0.423936 0.905692 0
    outer loop
      vertex 60.4004 40 1.2
      vertex 79.2002 31.2002 0
      vertex 60.4004 40 0
    endloop
  endfacet
  facet normal -0.423936 -0.905692 0
    outer loop
      vertex 40.7998 48.7998 0
      vertex 59.5996 40 1.2
      vertex 40.7998 48.7998 1.2
    endloop
  endfacet
  facet normal -0.423936 -0.905692 -0
    outer loop
      vertex 59.5996 40 1.2
      vertex 40.7998 48.7998 0
      vertex 59.5996 40 0
    endloop
  endfacet
  facet normal -0.423936 0.905692 0
    outer loop
      vertex 59.5996 40 0
      vertex 40.7998 31.2002 1.2
      vertex 59.5996 40 1.2
    endloop
  endfacet
  facet normal -0.423936 0.905692 0
    outer loop
      vertex 40.7998 31.2002 1.2
      vertex 59.5996 40 0
      vertex 40.7998 31.2002 0
    endloop
  endfacet
  facet normal 1 -0 0
    outer loop
      vertex 40.7998 31.2002 1.2
      vertex 40.7998 48.7998 0
      vertex 40.7998 48.7998 1.2
    endloop
  endfacet
  facet normal 1 0 0
    outer loop
      vertex 40.7998 48.7998 0
      vertex 40.7998 31.2002 1.2
      vertex 40.7998 31.2002 0
    endloop
  endfacet
  facet normal 0.423936 -0.905692 0
    outer loop
      vertex 41.2002 30.7998 0
      vertex 60 39.5996 1.2
      vertex 41.2002 30.7998 1.2
    endloop
  endfacet
  facet normal 0.423936 -0.905692 0
    outer loop
      vertex 60 39.5996 1.2
      vertex 41.2002 30.7998 0
      vertex 60 39.5996 0
    endloop
  endfacet
  facet normal -0.423936 -0.905692 0
    outer loop
      vertex 60 39.5996 0
      vertex 78.7998 30.7998 1.2
      vertex 60 39.5996 1.2
    endloop
  endfacet
  facet normal -0.423936 -0.905692 -0
    outer loop
      vertex 78.7998 30.7998 1.2
      vertex 60 39.5996 0
      vertex 78.7998 30.7998 0
    endloop
  endfacet
  facet normal 0 1 -0
    outer loop
      vertex 78.7998 30.7998 0
      vertex 41.2002 30.7998 1.2
      vertex 78.7998 30.7998 1.2
    endloop
  endfacet
  facet normal 0 1 0
    outer loop
      vertex 41.2002 30.7998 1.2
      vertex 78.7998 30.7998 0
      vertex 41.2002 30.7998 0
    endloop
  endfacet
endsolid OpenSCAD_Model
