solid OpenSCAD_Model
  facet normal 0.998629 0.0523539 0
    outer loop
      vertex 15 0 20
      vertex 14.9178 1.56793 0
      vertex 14.9178 1.56793 20
    endloop
  endfacet
  facet normal 0.998629 0.0523539 0
    outer loop
      vertex 14.9178 1.56793 0
      vertex 15 0 20
      vertex 15 0 0
    endloop
  endfacet
  facet normal -0.998629 0.0523539 0
    outer loop
      vertex -15 0 0
      vertex -14.9178 1.56793 20
      vertex -14.9178 1.56793 0
    endloop
  endfacet
  facet normal -0.998629 0.0523539 0
    outer loop
      vertex -14.9178 1.56793 20
      vertex -15 0 0
      vertex -15 0 20
    endloop
  endfacet
  facet normal 0.0523539 0.998629 -0
    outer loop
      vertex 1.56793 14.9178 0
      vertex 0 15 20
      vertex 1.56793 14.9178 20
    endloop
  endfacet
  facet normal 0.0523539 0.998629 0
    outer loop
      vertex 0 15 20
      vertex 1.56793 14.9178 0
      vertex 0 15 0
    endloop
  endfacet
  facet normal -0.0523539 -0.998629 0
    outer loop
      vertex -1.56793 -14.9178 0
      vertex 0 -15 20
      vertex -1.56793 -14.9178 20
    endloop
  endfacet
  facet normal -0.0523539 -0.998629 -0
    outer loop
      vertex 0 -15 20
      vertex -1.56793 -14.9178 0
      vertex 0 -15 0
    endloop
  endfacet
  facet normal -0.777151 -0.629315 0
    outer loop
      vertex -11.1472 -10.037 0
      vertex -12.1353 -8.81678 20
      vertex -12.1353 -8.81678 0
    endloop
  endfacet
  facet normal -0.777151 -0.629315 0
    outer loop
      vertex -12.1353 -8.81678 20
      vertex -11.1472 -10.037 0
      vertex -11.1472 -10.037 20
    endloop
  endfacet
  facet normal 0.707107 0.707107 0
    outer loop
      vertex 11.1472 10.037 20
      vertex 10.037 11.1472 0
      vertex 10.037 11.1472 20
    endloop
  endfacet
  facet normal 0.707107 0.707107 0
    outer loop
      vertex 10.037 11.1472 0
      vertex 11.1472 10.037 20
      vertex 11.1472 10.037 0
    endloop
  endfacet
  facet normal -0.629315 0.777151 0
    outer loop
      vertex -8.81678 12.1353 0
      vertex -10.037 11.1472 20
      vertex -8.81678 12.1353 20
    endloop
  endfacet
  facet normal -0.629315 0.777151 0
    outer loop
      vertex -10.037 11.1472 20
      vertex -8.81678 12.1353 0
      vertex -10.037 11.1472 0
    endloop
  endfacet
  facet normal -0.258841 0.96592 0
    outer loop
      vertex -3.11868 14.6722 0
      vertex -4.63525 14.2658 20
      vertex -3.11868 14.6722 20
    endloop
  endfacet
  facet normal -0.258841 0.96592 0
    outer loop
      vertex -4.63525 14.2658 20
      vertex -3.11868 14.6722 0
      vertex -4.63525 14.2658 0
    endloop
  endfacet
  facet normal 0.933595 0.35833 0
    outer loop
      vertex 14.2658 4.63525 20
      vertex 13.7032 6.10105 0
      vertex 13.7032 6.10105 20
    endloop
  endfacet
  facet normal 0.933595 0.35833 0
    outer loop
      vertex 13.7032 6.10105 0
      vertex 14.2658 4.63525 20
      vertex 14.2658 4.63525 0
    endloop
  endfacet
  facet normal 0.98769 0.156425 0
    outer loop
      vertex 14.9178 1.56793 20
      vertex 14.6722 3.11868 0
      vertex 14.6722 3.11868 20
    endloop
  endfacet
  facet normal 0.98769 0.156425 0
    outer loop
      vertex 14.6722 3.11868 0
      vertex 14.9178 1.56793 20
      vertex 14.9178 1.56793 0
    endloop
  endfacet
  facet normal 0.35833 0.933595 -0
    outer loop
      vertex 6.10105 13.7032 0
      vertex 4.63525 14.2658 20
      vertex 6.10105 13.7032 20
    endloop
  endfacet
  facet normal 0.35833 0.933595 0
    outer loop
      vertex 4.63525 14.2658 20
      vertex 6.10105 13.7032 0
      vertex 4.63525 14.2658 0
    endloop
  endfacet
  facet normal 0.258841 0.96592 -0
    outer loop
      vertex 4.63525 14.2658 0
      vertex 3.11868 14.6722 20
      vertex 4.63525 14.2658 20
    endloop
  endfacet
  facet normal 0.258841 0.96592 0
    outer loop
      vertex 3.11868 14.6722 20
      vertex 4.63525 14.2658 0
      vertex 3.11868 14.6722 0
    endloop
  endfacet
  facet normal 0.544627 0.838678 -0
    outer loop
      vertex 8.81678 12.1353 0
      vertex 7.5 12.9904 20
      vertex 8.81678 12.1353 20
    endloop
  endfacet
  facet normal 0.544627 0.838678 0
    outer loop
      vertex 7.5 12.9904 20
      vertex 8.81678 12.1353 0
      vertex 7.5 12.9904 0
    endloop
  endfacet
  facet normal -0.891007 0.45399 0
    outer loop
      vertex -13.7032 6.10105 0
      vertex -12.9904 7.5 20
      vertex -12.9904 7.5 0
    endloop
  endfacet
  facet normal -0.891007 0.45399 0
    outer loop
      vertex -12.9904 7.5 20
      vertex -13.7032 6.10105 0
      vertex -13.7032 6.10105 20
    endloop
  endfacet
  facet normal -0.156425 0.98769 0
    outer loop
      vertex -1.56793 14.9178 0
      vertex -3.11868 14.6722 20
      vertex -1.56793 14.9178 20
    endloop
  endfacet
  facet normal -0.156425 0.98769 0
    outer loop
      vertex -3.11868 14.6722 20
      vertex -1.56793 14.9178 0
      vertex -3.11868 14.6722 0
    endloop
  endfacet
  facet normal 0.933595 -0.35833 0
    outer loop
      vertex 13.7032 -6.10105 20
      vertex 14.2658 -4.63525 0
      vertex 14.2658 -4.63525 20
    endloop
  endfacet
  facet normal 0.933595 -0.35833 0
    outer loop
      vertex 14.2658 -4.63525 0
      vertex 13.7032 -6.10105 20
      vertex 13.7032 -6.10105 0
    endloop
  endfacet
  facet normal -0.998629 -0.0523539 0
    outer loop
      vertex -14.9178 -1.56793 0
      vertex -15 0 20
      vertex -15 0 0
    endloop
  endfacet
  facet normal -0.998629 -0.0523539 0
    outer loop
      vertex -15 0 20
      vertex -14.9178 -1.56793 0
      vertex -14.9178 -1.56793 20
    endloop
  endfacet
  facet normal 0.96592 0.258841 0
    outer loop
      vertex 14.6722 3.11868 20
      vertex 14.2658 4.63525 0
      vertex 14.2658 4.63525 20
    endloop
  endfacet
  facet normal 0.96592 0.258841 0
    outer loop
      vertex 14.2658 4.63525 0
      vertex 14.6722 3.11868 20
      vertex 14.6722 3.11868 0
    endloop
  endfacet
  facet normal 0.838678 0.544627 0
    outer loop
      vertex 12.9904 7.5 20
      vertex 12.1353 8.81678 0
      vertex 12.1353 8.81678 20
    endloop
  endfacet
  facet normal 0.838678 0.544627 0
    outer loop
      vertex 12.1353 8.81678 0
      vertex 12.9904 7.5 20
      vertex 12.9904 7.5 0
    endloop
  endfacet
  facet normal 0.777151 0.629315 0
    outer loop
      vertex 12.1353 8.81678 20
      vertex 11.1472 10.037 0
      vertex 11.1472 10.037 20
    endloop
  endfacet
  facet normal 0.777151 0.629315 0
    outer loop
      vertex 11.1472 10.037 0
      vertex 12.1353 8.81678 20
      vertex 12.1353 8.81678 0
    endloop
  endfacet
  facet normal 0.891007 0.45399 0
    outer loop
      vertex 13.7032 6.10105 20
      vertex 12.9904 7.5 0
      vertex 12.9904 7.5 20
    endloop
  endfacet
  facet normal 0.891007 0.45399 0
    outer loop
      vertex 12.9904 7.5 0
      vertex 13.7032 6.10105 20
      vertex 13.7032 6.10105 0
    endloop
  endfacet
  facet normal 0.156425 0.98769 -0
    outer loop
      vertex 3.11868 14.6722 0
      vertex 1.56793 14.9178 20
      vertex 3.11868 14.6722 20
    endloop
  endfacet
  facet normal 0.156425 0.98769 0
    outer loop
      vertex 1.56793 14.9178 20
      vertex 3.11868 14.6722 0
      vertex 1.56793 14.9178 0
    endloop
  endfacet
  facet normal 0.45399 0.891007 -0
    outer loop
      vertex 7.5 12.9904 0
      vertex 6.10105 13.7032 20
      vertex 7.5 12.9904 20
    endloop
  endfacet
  facet normal 0.45399 0.891007 0
    outer loop
      vertex 6.10105 13.7032 20
      vertex 7.5 12.9904 0
      vertex 6.10105 13.7032 0
    endloop
  endfacet
  facet normal 0.629315 0.777151 -0
    outer loop
      vertex 10.037 11.1472 0
      vertex 8.81678 12.1353 20
      vertex 10.037 11.1472 20
    endloop
  endfacet
  facet normal 0.629315 0.777151 0
    outer loop
      vertex 8.81678 12.1353 20
      vertex 10.037 11.1472 0
      vertex 8.81678 12.1353 0
    endloop
  endfacet
  facet normal -0.96592 0.258841 0
    outer loop
      vertex -14.6722 3.11868 0
      vertex -14.2658 4.63525 20
      vertex -14.2658 4.63525 0
    endloop
  endfacet
  facet normal -0.96592 0.258841 0
    outer loop
      vertex -14.2658 4.63525 20
      vertex -14.6722 3.11868 0
      vertex -14.6722 3.11868 20
    endloop
  endfacet
  facet normal -0.777151 0.629315 0
    outer loop
      vertex -12.1353 8.81678 0
      vertex -11.1472 10.037 20
      vertex -11.1472 10.037 0
    endloop
  endfacet
  facet normal -0.777151 0.629315 0
    outer loop
      vertex -11.1472 10.037 20
      vertex -12.1353 8.81678 0
      vertex -12.1353 8.81678 20
    endloop
  endfacet
  facet normal -0.707107 0.707107 0
    outer loop
      vertex -11.1472 10.037 0
      vertex -10.037 11.1472 20
      vertex -10.037 11.1472 0
    endloop
  endfacet
  facet normal -0.707107 0.707107 0
    outer loop
      vertex -10.037 11.1472 20
      vertex -11.1472 10.037 0
      vertex -11.1472 10.037 20
    endloop
  endfacet
  facet normal -0.838678 0.544627 0
    outer loop
      vertex -12.9904 7.5 0
      vertex -12.1353 8.81678 20
      vertex -12.1353 8.81678 0
    endloop
  endfacet
  facet normal -0.838678 0.544627 0
    outer loop
      vertex -12.1353 8.81678 20
      vertex -12.9904 7.5 0
      vertex -12.9904 7.5 20
    endloop
  endfacet
  facet normal -0.933595 0.35833 0
    outer loop
      vertex -14.2658 4.63525 0
      vertex -13.7032 6.10105 20
      vertex -13.7032 6.10105 0
    endloop
  endfacet
  facet normal -0.933595 0.35833 0
    outer loop
      vertex -13.7032 6.10105 20
      vertex -14.2658 4.63525 0
      vertex -14.2658 4.63525 20
    endloop
  endfacet
  facet normal -0.98769 0.156425 0
    outer loop
      vertex -14.9178 1.56793 0
      vertex -14.6722 3.11868 20
      vertex -14.6722 3.11868 0
    endloop
  endfacet
  facet normal -0.98769 0.156425 0
    outer loop
      vertex -14.6722 3.11868 20
      vertex -14.9178 1.56793 0
      vertex -14.9178 1.56793 20
    endloop
  endfacet
  facet normal 0 0 1
    outer loop
      vertex 13.7 0 20
      vertex 15 0 20
      vertex 14.9178 1.56793 20
    endloop
  endfacet
  facet normal 0 0 1
    outer loop
      vertex 13.6249 1.43204 20
      vertex 14.9178 1.56793 20
      vertex 14.6722 3.11868 20
    endloop
  endfacet
  facet normal 0 0 1
    outer loop
      vertex 15 0 20
      vertex 13.7 0 20
      vertex 14.9178 -1.56793 20
    endloop
  endfacet
  facet normal 0 0 1
    outer loop
      vertex 13.4006 2.84839 20
      vertex 14.6722 3.11868 20
      vertex 14.2658 4.63525 20
    endloop
  endfacet
  facet normal -0 0 1
    outer loop
      vertex 13.6249 -1.43204 20
      vertex 14.9178 -1.56793 20
      vertex 13.7 0 20
    endloop
  endfacet
  facet normal 0 0 1
    outer loop
      vertex 13.0295 4.23353 20
      vertex 14.2658 4.63525 20
      vertex 13.7032 6.10105 20
    endloop
  endfacet
  facet normal 0 0 1
    outer loop
      vertex 14.9178 -1.56793 20
      vertex 13.6249 -1.43204 20
      vertex 14.6722 -3.11868 20
    endloop
  endfacet
  facet normal -0 0 1
    outer loop
      vertex 13.4006 -2.84839 20
      vertex 14.6722 -3.11868 20
      vertex 13.6249 -1.43204 20
    endloop
  endfacet
  facet normal 0 0 1
    outer loop
      vertex 14.9178 1.56793 20
      vertex 13.6249 1.43204 20
      vertex 13.7 0 20
    endloop
  endfacet
  facet normal 0 0 1
    outer loop
      vertex 14.6722 3.11868 20
      vertex 13.4006 2.84839 20
      vertex 13.6249 1.43204 20
    endloop
  endfacet
  facet normal 0 0 1
    outer loop
      vertex 14.2658 4.63525 20
      vertex 13.0295 4.23353 20
      vertex 13.4006 2.84839 20
    endloop
  endfacet
  facet normal 0 0 1
    outer loop
      vertex 12.5156 5.57229 20
      vertex 13.7032 6.10105 20
      vertex 12.9904 7.5 20
    endloop
  endfacet
  facet normal 0 0 1
    outer loop
      vertex 13.7032 6.10105 20
      vertex 12.5156 5.57229 20
      vertex 13.0295 4.23353 20
    endloop
  endfacet
  facet normal 0 0 1
    outer loop
      vertex 11.8645 6.85 20
      vertex 12.9904 7.5 20
      vertex 12.1353 8.81678 20
    endloop
  endfacet
  facet normal 0 0 1
    outer loop
      vertex 12.9904 7.5 20
      vertex 11.8645 6.85 20
      vertex 12.5156 5.57229 20
    endloop
  endfacet
  facet normal 0 0 1
    outer loop
      vertex 11.0835 8.05266 20
      vertex 12.1353 8.81678 20
      vertex 11.1472 10.037 20
    endloop
  endfacet
  facet normal 0 0 1
    outer loop
      vertex 12.1353 8.81678 20
      vertex 11.0835 8.05266 20
      vertex 11.8645 6.85 20
    endloop
  endfacet
  facet normal 0 0 1
    outer loop
      vertex 11.1472 10.037 20
      vertex 10.1811 9.16709 20
      vertex 11.0835 8.05266 20
    endloop
  endfacet
  facet normal 0 0 1
    outer loop
      vertex 10.037 11.1472 20
      vertex 10.1811 9.16709 20
      vertex 11.1472 10.037 20
    endloop
  endfacet
  facet normal 0 0 1
    outer loop
      vertex 10.037 11.1472 20
      vertex 9.16709 10.1811 20
      vertex 10.1811 9.16709 20
    endloop
  endfacet
  facet normal 0 0 1
    outer loop
      vertex 8.81678 12.1353 20
      vertex 9.16709 10.1811 20
      vertex 10.037 11.1472 20
    endloop
  endfacet
  facet normal 0 0 1
    outer loop
      vertex 8.81678 12.1353 20
      vertex 8.05266 11.0835 20
      vertex 9.16709 10.1811 20
    endloop
  endfacet
  facet normal 0 0 1
    outer loop
      vertex 7.5 12.9904 20
      vertex 8.05266 11.0835 20
      vertex 8.81678 12.1353 20
    endloop
  endfacet
  facet normal 0 0 1
    outer loop
      vertex 7.5 12.9904 20
      vertex 6.85 11.8645 20
      vertex 8.05266 11.0835 20
    endloop
  endfacet
  facet normal 0 0 1
    outer loop
      vertex 6.10105 13.7032 20
      vertex 6.85 11.8645 20
      vertex 7.5 12.9904 20
    endloop
  endfacet
  facet normal 0 0 1
    outer loop
      vertex 6.10105 13.7032 20
      vertex 5.57229 12.5156 20
      vertex 6.85 11.8645 20
    endloop
  endfacet
  facet normal 0 0 1
    outer loop
      vertex 4.63525 14.2658 20
      vertex 5.57229 12.5156 20
      vertex 6.10105 13.7032 20
    endloop
  endfacet
  facet normal 0 0 1
    outer loop
      vertex 4.63525 14.2658 20
      vertex 4.23353 13.0295 20
      vertex 5.57229 12.5156 20
    endloop
  endfacet
  facet normal 0 0 1
    outer loop
      vertex 3.11868 14.6722 20
      vertex 4.23353 13.0295 20
      vertex 4.63525 14.2658 20
    endloop
  endfacet
  facet normal 0 0 1
    outer loop
      vertex 3.11868 14.6722 20
      vertex 2.84839 13.4006 20
      vertex 4.23353 13.0295 20
    endloop
  endfacet
  facet normal 0 0 1
    outer loop
      vertex 1.56793 14.9178 20
      vertex 2.84839 13.4006 20
      vertex 3.11868 14.6722 20
    endloop
  endfacet
  facet normal 0 0 1
    outer loop
      vertex 1.56793 14.9178 20
      vertex 1.43204 13.6249 20
      vertex 2.84839 13.4006 20
    endloop
  endfacet
  facet normal 0 0 1
    outer loop
      vertex 0 15 20
      vertex 1.43204 13.6249 20
      vertex 1.56793 14.9178 20
    endloop
  endfacet
  facet normal 0 0 1
    outer loop
      vertex 0 15 20
      vertex 0 13.7 20
      vertex 1.43204 13.6249 20
    endloop
  endfacet
  facet normal 0 0 1
    outer loop
      vertex 0 15 20
      vertex -1.43204 13.6249 20
      vertex 0 13.7 20
    endloop
  endfacet
  facet normal -0 0 1
    outer loop
      vertex -1.56793 14.9178 20
      vertex -1.43204 13.6249 20
      vertex 0 15 20
    endloop
  endfacet
  facet normal 0 0 1
    outer loop
      vertex -1.56793 14.9178 20
      vertex -2.84839 13.4006 20
      vertex -1.43204 13.6249 20
    endloop
  endfacet
  facet normal -0 0 1
    outer loop
      vertex -3.11868 14.6722 20
      vertex -2.84839 13.4006 20
      vertex -1.56793 14.9178 20
    endloop
  endfacet
  facet normal 0 0 1
    outer loop
      vertex -3.11868 14.6722 20
      vertex -4.23353 13.0295 20
      vertex -2.84839 13.4006 20
    endloop
  endfacet
  facet normal -0 0 1
    outer loop
      vertex -4.63525 14.2658 20
      vertex -4.23353 13.0295 20
      vertex -3.11868 14.6722 20
    endloop
  endfacet
  facet normal 0 0 1
    outer loop
      vertex -4.63525 14.2658 20
      vertex -5.57229 12.5156 20
      vertex -4.23353 13.0295 20
    endloop
  endfacet
  facet normal -0 0 1
    outer loop
      vertex -6.10105 13.7032 20
      vertex -5.57229 12.5156 20
      vertex -4.63525 14.2658 20
    endloop
  endfacet
  facet normal 0 0 1
    outer loop
      vertex -6.10105 13.7032 20
      vertex -6.85 11.8645 20
      vertex -5.57229 12.5156 20
    endloop
  endfacet
  facet normal -0 0 1
    outer loop
      vertex -7.5 12.9904 20
      vertex -6.85 11.8645 20
      vertex -6.10105 13.7032 20
    endloop
  endfacet
  facet normal 0 0 1
    outer loop
      vertex -7.5 12.9904 20
      vertex -8.05266 11.0835 20
      vertex -6.85 11.8645 20
    endloop
  endfacet
  facet normal -0 0 1
    outer loop
      vertex -8.81678 12.1353 20
      vertex -8.05266 11.0835 20
      vertex -7.5 12.9904 20
    endloop
  endfacet
  facet normal 0 0 1
    outer loop
      vertex -8.81678 12.1353 20
      vertex -9.16709 10.1811 20
      vertex -8.05266 11.0835 20
    endloop
  endfacet
  facet normal -0 0 1
    outer loop
      vertex -10.037 11.1472 20
      vertex -9.16709 10.1811 20
      vertex -8.81678 12.1353 20
    endloop
  endfacet
  facet normal 0 0 1
    outer loop
      vertex -10.037 11.1472 20
      vertex -10.1811 9.16709 20
      vertex -9.16709 10.1811 20
    endloop
  endfacet
  facet normal -0 0 1
    outer loop
      vertex -11.1472 10.037 20
      vertex -10.1811 9.16709 20
      vertex -10.037 11.1472 20
    endloop
  endfacet
  facet normal 0 0 1
    outer loop
      vertex -10.1811 9.16709 20
      vertex -11.1472 10.037 20
      vertex -11.0835 8.05266 20
    endloop
  endfacet
  facet normal -0 0 1
    outer loop
      vertex -12.1353 8.81678 20
      vertex -11.0835 8.05266 20
      vertex -11.1472 10.037 20
    endloop
  endfacet
  facet normal 0 0 1
    outer loop
      vertex -11.0835 8.05266 20
      vertex -12.1353 8.81678 20
      vertex -11.8645 6.85 20
    endloop
  endfacet
  facet normal -0 0 1
    outer loop
      vertex -12.9904 7.5 20
      vertex -11.8645 6.85 20
      vertex -12.1353 8.81678 20
    endloop
  endfacet
  facet normal 0 0 1
    outer loop
      vertex -11.8645 6.85 20
      vertex -12.9904 7.5 20
      vertex -12.5156 5.57229 20
    endloop
  endfacet
  facet normal -0 0 1
    outer loop
      vertex -13.7032 6.10105 20
      vertex -12.5156 5.57229 20
      vertex -12.9904 7.5 20
    endloop
  endfacet
  facet normal 0 0 1
    outer loop
      vertex -12.5156 5.57229 20
      vertex -13.7032 6.10105 20
      vertex -13.0295 4.23353 20
    endloop
  endfacet
  facet normal -0 0 1
    outer loop
      vertex -14.2658 4.63525 20
      vertex -13.0295 4.23353 20
      vertex -13.7032 6.10105 20
    endloop
  endfacet
  facet normal -0 0 1
    outer loop
      vertex -14.6722 3.11868 20
      vertex -13.4006 2.84839 20
      vertex -14.2658 4.63525 20
    endloop
  endfacet
  facet normal 0 0 1
    outer loop
      vertex -13.0295 4.23353 20
      vertex -14.2658 4.63525 20
      vertex -13.4006 2.84839 20
    endloop
  endfacet
  facet normal 0 0 1
    outer loop
      vertex 14.6722 -3.11868 20
      vertex 13.4006 -2.84839 20
      vertex 14.2658 -4.63525 20
    endloop
  endfacet
  facet normal -0 0 1
    outer loop
      vertex 13.0295 -4.23353 20
      vertex 14.2658 -4.63525 20
      vertex 13.4006 -2.84839 20
    endloop
  endfacet
  facet normal 0 0 1
    outer loop
      vertex 14.2658 -4.63525 20
      vertex 13.0295 -4.23353 20
      vertex 13.7032 -6.10105 20
    endloop
  endfacet
  facet normal -0 0 1
    outer loop
      vertex 12.5156 -5.57229 20
      vertex 13.7032 -6.10105 20
      vertex 13.0295 -4.23353 20
    endloop
  endfacet
  facet normal 0 0 1
    outer loop
      vertex 13.7032 -6.10105 20
      vertex 12.5156 -5.57229 20
      vertex 12.9904 -7.5 20
    endloop
  endfacet
  facet normal -0 0 1
    outer loop
      vertex 11.8645 -6.85 20
      vertex 12.9904 -7.5 20
      vertex 12.5156 -5.57229 20
    endloop
  endfacet
  facet normal 0 0 1
    outer loop
      vertex 12.9904 -7.5 20
      vertex 11.8645 -6.85 20
      vertex 12.1353 -8.81678 20
    endloop
  endfacet
  facet normal -0 0 1
    outer loop
      vertex 11.0835 -8.05266 20
      vertex 12.1353 -8.81678 20
      vertex 11.8645 -6.85 20
    endloop
  endfacet
  facet normal 0 0 1
    outer loop
      vertex 12.1353 -8.81678 20
      vertex 11.0835 -8.05266 20
      vertex 11.1472 -10.037 20
    endloop
  endfacet
  facet normal -0 0 1
    outer loop
      vertex 10.1811 -9.16709 20
      vertex 11.1472 -10.037 20
      vertex 11.0835 -8.05266 20
    endloop
  endfacet
  facet normal 0 0 1
    outer loop
      vertex 10.1811 -9.16709 20
      vertex 10.037 -11.1472 20
      vertex 11.1472 -10.037 20
    endloop
  endfacet
  facet normal -0 0 1
    outer loop
      vertex 9.16709 -10.1811 20
      vertex 10.037 -11.1472 20
      vertex 10.1811 -9.16709 20
    endloop
  endfacet
  facet normal 0 0 1
    outer loop
      vertex 9.16709 -10.1811 20
      vertex 8.81678 -12.1353 20
      vertex 10.037 -11.1472 20
    endloop
  endfacet
  facet normal -0 0 1
    outer loop
      vertex 8.05266 -11.0835 20
      vertex 8.81678 -12.1353 20
      vertex 9.16709 -10.1811 20
    endloop
  endfacet
  facet normal 0 0 1
    outer loop
      vertex 8.05266 -11.0835 20
      vertex 7.5 -12.9904 20
      vertex 8.81678 -12.1353 20
    endloop
  endfacet
  facet normal -0 0 1
    outer loop
      vertex 6.85 -11.8645 20
      vertex 7.5 -12.9904 20
      vertex 8.05266 -11.0835 20
    endloop
  endfacet
  facet normal 0 0 1
    outer loop
      vertex 6.85 -11.8645 20
      vertex 6.10105 -13.7032 20
      vertex 7.5 -12.9904 20
    endloop
  endfacet
  facet normal -0 0 1
    outer loop
      vertex 5.57229 -12.5156 20
      vertex 6.10105 -13.7032 20
      vertex 6.85 -11.8645 20
    endloop
  endfacet
  facet normal 0 0 1
    outer loop
      vertex 5.57229 -12.5156 20
      vertex 4.63525 -14.2658 20
      vertex 6.10105 -13.7032 20
    endloop
  endfacet
  facet normal -0 0 1
    outer loop
      vertex 4.23353 -13.0295 20
      vertex 4.63525 -14.2658 20
      vertex 5.57229 -12.5156 20
    endloop
  endfacet
  facet normal 0 0 1
    outer loop
      vertex 4.23353 -13.0295 20
      vertex 3.11868 -14.6722 20
      vertex 4.63525 -14.2658 20
    endloop
  endfacet
  facet normal -0 0 1
    outer loop
      vertex 2.84839 -13.4006 20
      vertex 3.11868 -14.6722 20
      vertex 4.23353 -13.0295 20
    endloop
  endfacet
  facet normal 0 0 1
    outer loop
      vertex 2.84839 -13.4006 20
      vertex 1.56793 -14.9178 20
      vertex 3.11868 -14.6722 20
    endloop
  endfacet
  facet normal -0 0 1
    outer loop
      vertex 1.43204 -13.6249 20
      vertex 1.56793 -14.9178 20
      vertex 2.84839 -13.4006 20
    endloop
  endfacet
  facet normal -0 0 1
    outer loop
      vertex 0 -13.7 20
      vertex 1.56793 -14.9178 20
      vertex 1.43204 -13.6249 20
    endloop
  endfacet
  facet normal 0 0 1
    outer loop
      vertex 0 -13.7 20
      vertex 0 -15 20
      vertex 1.56793 -14.9178 20
    endloop
  endfacet
  facet normal 0 0 1
    outer loop
      vertex -1.43204 -13.6249 20
      vertex 0 -15 20
      vertex 0 -13.7 20
    endloop
  endfacet
  facet normal 0 0 1
    outer loop
      vertex -1.43204 -13.6249 20
      vertex -1.56793 -14.9178 20
      vertex 0 -15 20
    endloop
  endfacet
  facet normal 0 0 1
    outer loop
      vertex -2.84839 -13.4006 20
      vertex -1.56793 -14.9178 20
      vertex -1.43204 -13.6249 20
    endloop
  endfacet
  facet normal 0 0 1
    outer loop
      vertex -2.84839 -13.4006 20
      vertex -3.11868 -14.6722 20
      vertex -1.56793 -14.9178 20
    endloop
  endfacet
  facet normal 0 0 1
    outer loop
      vertex -4.23353 -13.0295 20
      vertex -3.11868 -14.6722 20
      vertex -2.84839 -13.4006 20
    endloop
  endfacet
  facet normal 0 0 1
    outer loop
      vertex -4.23353 -13.0295 20
      vertex -4.63525 -14.2658 20
      vertex -3.11868 -14.6722 20
    endloop
  endfacet
  facet normal 0 0 1
    outer loop
      vertex -5.57229 -12.5156 20
      vertex -4.63525 -14.2658 20
      vertex -4.23353 -13.0295 20
    endloop
  endfacet
  facet normal 0 0 1
    outer loop
      vertex -5.57229 -12.5156 20
      vertex -6.10105 -13.7032 20
      vertex -4.63525 -14.2658 20
    endloop
  endfacet
  facet normal 0 0 1
    outer loop
      vertex -6.85 -11.8645 20
      vertex -6.10105 -13.7032 20
      vertex -5.57229 -12.5156 20
    endloop
  endfacet
  facet normal 0 0 1
    outer loop
      vertex -6.85 -11.8645 20
      vertex -7.5 -12.9904 20
      vertex -6.10105 -13.7032 20
    endloop
  endfacet
  facet normal 0 0 1
    outer loop
      vertex -8.05266 -11.0835 20
      vertex -7.5 -12.9904 20
      vertex -6.85 -11.8645 20
    endloop
  endfacet
  facet normal 0 0 1
    outer loop
      vertex -8.05266 -11.0835 20
      vertex -8.81678 -12.1353 20
      vertex -7.5 -12.9904 20
    endloop
  endfacet
  facet normal 0 0 1
    outer loop
      vertex -9.16709 -10.1811 20
      vertex -8.81678 -12.1353 20
      vertex -8.05266 -11.0835 20
    endloop
  endfacet
  facet normal 0 0 1
    outer loop
      vertex -9.16709 -10.1811 20
      vertex -10.037 -11.1472 20
      vertex -8.81678 -12.1353 20
    endloop
  endfacet
  facet normal 0 0 1
    outer loop
      vertex -10.1811 -9.16709 20
      vertex -10.037 -11.1472 20
      vertex -9.16709 -10.1811 20
    endloop
  endfacet
  facet normal 0 0 1
    outer loop
      vertex -11.1472 -10.037 20
      vertex -10.1811 -9.16709 20
      vertex -11.0835 -8.05266 20
    endloop
  endfacet
  facet normal 0 0 1
    outer loop
      vertex -10.1811 -9.16709 20
      vertex -11.1472 -10.037 20
      vertex -10.037 -11.1472 20
    endloop
  endfacet
  facet normal 0 0 1
    outer loop
      vertex -12.1353 -8.81678 20
      vertex -11.0835 -8.05266 20
      vertex -11.8645 -6.85 20
    endloop
  endfacet
  facet normal 0 0 1
    outer loop
      vertex -11.0835 -8.05266 20
      vertex -12.1353 -8.81678 20
      vertex -11.1472 -10.037 20
    endloop
  endfacet
  facet normal 0 0 1
    outer loop
      vertex -12.9904 -7.5 20
      vertex -11.8645 -6.85 20
      vertex -12.5156 -5.57229 20
    endloop
  endfacet
  facet normal 0 0 1
    outer loop
      vertex -11.8645 -6.85 20
      vertex -12.9904 -7.5 20
      vertex -12.1353 -8.81678 20
    endloop
  endfacet
  facet normal 0 0 1
    outer loop
      vertex -13.7032 -6.10105 20
      vertex -12.5156 -5.57229 20
      vertex -13.0295 -4.23353 20
    endloop
  endfacet
  facet normal 0 0 1
    outer loop
      vertex -14.2658 -4.63525 20
      vertex -13.0295 -4.23353 20
      vertex -13.4006 -2.84839 20
    endloop
  endfacet
  facet normal 0 0 1
    outer loop
      vertex -14.6722 -3.11868 20
      vertex -13.4006 -2.84839 20
      vertex -13.6249 -1.43204 20
    endloop
  endfacet
  facet normal 0 0 1
    outer loop
      vertex -12.5156 -5.57229 20
      vertex -13.7032 -6.10105 20
      vertex -12.9904 -7.5 20
    endloop
  endfacet
  facet normal 0 0 1
    outer loop
      vertex -14.9178 -1.56793 20
      vertex -13.6249 -1.43204 20
      vertex -13.7 0 20
    endloop
  endfacet
  facet normal 0 0 1
    outer loop
      vertex -13.4006 2.84839 20
      vertex -14.6722 3.11868 20
      vertex -13.6249 1.43204 20
    endloop
  endfacet
  facet normal -0 0 1
    outer loop
      vertex -14.9178 1.56793 20
      vertex -13.6249 1.43204 20
      vertex -14.6722 3.11868 20
    endloop
  endfacet
  facet normal 0 0 1
    outer loop
      vertex -13.0295 -4.23353 20
      vertex -14.2658 -4.63525 20
      vertex -13.7032 -6.10105 20
    endloop
  endfacet
  facet normal 0 0 1
    outer loop
      vertex -13.6249 1.43204 20
      vertex -14.9178 1.56793 20
      vertex -13.7 0 20
    endloop
  endfacet
  facet normal 0 0 1
    outer loop
      vertex -13.4006 -2.84839 20
      vertex -14.6722 -3.11868 20
      vertex -14.2658 -4.63525 20
    endloop
  endfacet
  facet normal 0 0 1
    outer loop
      vertex -15 0 20
      vertex -13.7 0 20
      vertex -14.9178 1.56793 20
    endloop
  endfacet
  facet normal 0 0 1
    outer loop
      vertex -13.6249 -1.43204 20
      vertex -14.9178 -1.56793 20
      vertex -14.6722 -3.11868 20
    endloop
  endfacet
  facet normal 0 0 1
    outer loop
      vertex -13.7 0 20
      vertex -15 0 20
      vertex -14.9178 -1.56793 20
    endloop
  endfacet
  facet normal -0.45399 0.891007 0
    outer loop
      vertex -6.10105 13.7032 0
      vertex -7.5 12.9904 20
      vertex -6.10105 13.7032 20
    endloop
  endfacet
  facet normal -0.45399 0.891007 0
    outer loop
      vertex -7.5 12.9904 20
      vertex -6.10105 13.7032 0
      vertex -7.5 12.9904 0
    endloop
  endfacet
  facet normal -0.35833 0.933595 0
    outer loop
      vertex -4.63525 14.2658 0
      vertex -6.10105 13.7032 20
      vertex -4.63525 14.2658 20
    endloop
  endfacet
  facet normal -0.35833 0.933595 0
    outer loop
      vertex -6.10105 13.7032 20
      vertex -4.63525 14.2658 0
      vertex -6.10105 13.7032 0
    endloop
  endfacet
  facet normal -0.544627 0.838678 0
    outer loop
      vertex -7.5 12.9904 0
      vertex -8.81678 12.1353 20
      vertex -7.5 12.9904 20
    endloop
  endfacet
  facet normal -0.544627 0.838678 0
    outer loop
      vertex -8.81678 12.1353 20
      vertex -7.5 12.9904 0
      vertex -8.81678 12.1353 0
    endloop
  endfacet
  facet normal -0.0523539 0.998629 0
    outer loop
      vertex 0 15 0
      vertex -1.56793 14.9178 20
      vertex 0 15 20
    endloop
  endfacet
  facet normal -0.0523539 0.998629 0
    outer loop
      vertex -1.56793 14.9178 20
      vertex 0 15 0
      vertex -1.56793 14.9178 0
    endloop
  endfacet
  facet normal 0.998629 -0.0523539 0
    outer loop
      vertex 14.9178 -1.56793 20
      vertex 15 0 0
      vertex 15 0 20
    endloop
  endfacet
  facet normal 0.998629 -0.0523539 0
    outer loop
      vertex 15 0 0
      vertex 14.9178 -1.56793 20
      vertex 14.9178 -1.56793 0
    endloop
  endfacet
  facet normal 0.0523539 -0.998629 0
    outer loop
      vertex 0 -15 0
      vertex 1.56793 -14.9178 20
      vertex 0 -15 20
    endloop
  endfacet
  facet normal 0.0523539 -0.998629 0
    outer loop
      vertex 1.56793 -14.9178 20
      vertex 0 -15 0
      vertex 1.56793 -14.9178 0
    endloop
  endfacet
  facet normal 0.258841 -0.96592 0
    outer loop
      vertex 3.11868 -14.6722 0
      vertex 4.63525 -14.2658 20
      vertex 3.11868 -14.6722 20
    endloop
  endfacet
  facet normal 0.258841 -0.96592 0
    outer loop
      vertex 4.63525 -14.2658 20
      vertex 3.11868 -14.6722 0
      vertex 4.63525 -14.2658 0
    endloop
  endfacet
  facet normal 0.629315 -0.777151 0
    outer loop
      vertex 8.81678 -12.1353 0
      vertex 10.037 -11.1472 20
      vertex 8.81678 -12.1353 20
    endloop
  endfacet
  facet normal 0.629315 -0.777151 0
    outer loop
      vertex 10.037 -11.1472 20
      vertex 8.81678 -12.1353 0
      vertex 10.037 -11.1472 0
    endloop
  endfacet
  facet normal 0.45399 -0.891007 0
    outer loop
      vertex 6.10105 -13.7032 0
      vertex 7.5 -12.9904 20
      vertex 6.10105 -13.7032 20
    endloop
  endfacet
  facet normal 0.45399 -0.891007 0
    outer loop
      vertex 7.5 -12.9904 20
      vertex 6.10105 -13.7032 0
      vertex 7.5 -12.9904 0
    endloop
  endfacet
  facet normal 0.777151 -0.629315 0
    outer loop
      vertex 11.1472 -10.037 20
      vertex 12.1353 -8.81678 0
      vertex 12.1353 -8.81678 20
    endloop
  endfacet
  facet normal 0.777151 -0.629315 0
    outer loop
      vertex 12.1353 -8.81678 0
      vertex 11.1472 -10.037 20
      vertex 11.1472 -10.037 0
    endloop
  endfacet
  facet normal 0.891007 -0.45399 0
    outer loop
      vertex 12.9904 -7.5 20
      vertex 13.7032 -6.10105 0
      vertex 13.7032 -6.10105 20
    endloop
  endfacet
  facet normal 0.891007 -0.45399 0
    outer loop
      vertex 13.7032 -6.10105 0
      vertex 12.9904 -7.5 20
      vertex 12.9904 -7.5 0
    endloop
  endfacet
  facet normal -0.707107 -0.707107 0
    outer loop
      vertex -10.037 -11.1472 0
      vertex -11.1472 -10.037 20
      vertex -11.1472 -10.037 0
    endloop
  endfacet
  facet normal -0.707107 -0.707107 0
    outer loop
      vertex -11.1472 -10.037 20
      vertex -10.037 -11.1472 0
      vertex -10.037 -11.1472 20
    endloop
  endfacet
  facet normal -0.544627 -0.838678 0
    outer loop
      vertex -8.81678 -12.1353 0
      vertex -7.5 -12.9904 20
      vertex -8.81678 -12.1353 20
    endloop
  endfacet
  facet normal -0.544627 -0.838678 -0
    outer loop
      vertex -7.5 -12.9904 20
      vertex -8.81678 -12.1353 0
      vertex -7.5 -12.9904 0
    endloop
  endfacet
  facet normal -0.35833 -0.933595 0
    outer loop
      vertex -6.10105 -13.7032 0
      vertex -4.63525 -14.2658 20
      vertex -6.10105 -13.7032 20
    endloop
  endfacet
  facet normal -0.35833 -0.933595 -0
    outer loop
      vertex -4.63525 -14.2658 20
      vertex -6.10105 -13.7032 0
      vertex -4.63525 -14.2658 0
    endloop
  endfacet
  facet normal -0.156425 -0.98769 0
    outer loop
      vertex -3.11868 -14.6722 0
      vertex -1.56793 -14.9178 20
      vertex -3.11868 -14.6722 20
    endloop
  endfacet
  facet normal -0.156425 -0.98769 -0
    outer loop
      vertex -1.56793 -14.9178 20
      vertex -3.11868 -14.6722 0
      vertex -1.56793 -14.9178 0
    endloop
  endfacet
  facet normal -0.933595 -0.35833 0
    outer loop
      vertex -13.7032 -6.10105 0
      vertex -14.2658 -4.63525 20
      vertex -14.2658 -4.63525 0
    endloop
  endfacet
  facet normal -0.933595 -0.35833 0
    outer loop
      vertex -14.2658 -4.63525 20
      vertex -13.7032 -6.10105 0
      vertex -13.7032 -6.10105 20
    endloop
  endfacet
  facet normal -0.838678 -0.544627 0
    outer loop
      vertex -12.1353 -8.81678 0
      vertex -12.9904 -7.5 20
      vertex -12.9904 -7.5 0
    endloop
  endfacet
  facet normal -0.838678 -0.544627 0
    outer loop
      vertex -12.9904 -7.5 20
      vertex -12.1353 -8.81678 0
      vertex -12.1353 -8.81678 20
    endloop
  endfacet
  facet normal -0.96592 -0.258841 0
    outer loop
      vertex -14.2658 -4.63525 0
      vertex -14.6722 -3.11868 20
      vertex -14.6722 -3.11868 0
    endloop
  endfacet
  facet normal -0.96592 -0.258841 0
    outer loop
      vertex -14.6722 -3.11868 20
      vertex -14.2658 -4.63525 0
      vertex -14.2658 -4.63525 20
    endloop
  endfacet
  facet normal 0 0 -1
    outer loop
      vertex 14.9178 -1.56793 0
      vertex 14.9178 1.56793 0
      vertex 15 0 0
    endloop
  endfacet
  facet normal 0 0 -1
    outer loop
      vertex 14.6722 -3.11868 0
      vertex 14.9178 1.56793 0
      vertex 14.9178 -1.56793 0
    endloop
  endfacet
  facet normal 0 0 -1
    outer loop
      vertex 14.6722 -3.11868 0
      vertex 14.6722 3.11868 0
      vertex 14.9178 1.56793 0
    endloop
  endfacet
  facet normal 0 0 -1
    outer loop
      vertex 14.2658 -4.63525 0
      vertex 14.6722 3.11868 0
      vertex 14.6722 -3.11868 0
    endloop
  endfacet
  facet normal 0 0 -1
    outer loop
      vertex 14.2658 -4.63525 0
      vertex 14.2658 4.63525 0
      vertex 14.6722 3.11868 0
    endloop
  endfacet
  facet normal 0 0 -1
    outer loop
      vertex 13.7032 -6.10105 0
      vertex 14.2658 4.63525 0
      vertex 14.2658 -4.63525 0
    endloop
  endfacet
  facet normal 0 0 -1
    outer loop
      vertex 13.7032 -6.10105 0
      vertex 13.7032 6.10105 0
      vertex 14.2658 4.63525 0
    endloop
  endfacet
  facet normal 0 0 -1
    outer loop
      vertex 12.9904 -7.5 0
      vertex 13.7032 6.10105 0
      vertex 13.7032 -6.10105 0
    endloop
  endfacet
  facet normal 0 0 -1
    outer loop
      vertex 12.9904 -7.5 0
      vertex 12.9904 7.5 0
      vertex 13.7032 6.10105 0
    endloop
  endfacet
  facet normal 0 0 -1
    outer loop
      vertex 12.1353 -8.81678 0
      vertex 12.9904 7.5 0
      vertex 12.9904 -7.5 0
    endloop
  endfacet
  facet normal 0 0 -1
    outer loop
      vertex 12.1353 -8.81678 0
      vertex 12.1353 8.81678 0
      vertex 12.9904 7.5 0
    endloop
  endfacet
  facet normal 0 0 -1
    outer loop
      vertex 11.1472 -10.037 0
      vertex 12.1353 8.81678 0
      vertex 12.1353 -8.81678 0
    endloop
  endfacet
  facet normal 0 0 -1
    outer loop
      vertex 11.1472 -10.037 0
      vertex 11.1472 10.037 0
      vertex 12.1353 8.81678 0
    endloop
  endfacet
  facet normal 0 0 -1
    outer loop
      vertex 10.037 -11.1472 0
      vertex 11.1472 10.037 0
      vertex 11.1472 -10.037 0
    endloop
  endfacet
  facet normal 0 0 -1
    outer loop
      vertex 10.037 -11.1472 0
      vertex 10.037 11.1472 0
      vertex 11.1472 10.037 0
    endloop
  endfacet
  facet normal 0 0 -1
    outer loop
      vertex 8.81678 -12.1353 0
      vertex 10.037 11.1472 0
      vertex 10.037 -11.1472 0
    endloop
  endfacet
  facet normal 0 0 -1
    outer loop
      vertex 8.81678 -12.1353 0
      vertex 8.81678 12.1353 0
      vertex 10.037 11.1472 0
    endloop
  endfacet
  facet normal 0 0 -1
    outer loop
      vertex 7.5 -12.9904 0
      vertex 8.81678 12.1353 0
      vertex 8.81678 -12.1353 0
    endloop
  endfacet
  facet normal 0 0 -1
    outer loop
      vertex 7.5 -12.9904 0
      vertex 7.5 12.9904 0
      vertex 8.81678 12.1353 0
    endloop
  endfacet
  facet normal 0 0 -1
    outer loop
      vertex 6.10105 -13.7032 0
      vertex 7.5 12.9904 0
      vertex 7.5 -12.9904 0
    endloop
  endfacet
  facet normal 0 0 -1
    outer loop
      vertex 6.10105 -13.7032 0
      vertex 6.10105 13.7032 0
      vertex 7.5 12.9904 0
    endloop
  endfacet
  facet normal 0 0 -1
    outer loop
      vertex 4.63525 -14.2658 0
      vertex 6.10105 13.7032 0
      vertex 6.10105 -13.7032 0
    endloop
  endfacet
  facet normal 0 0 -1
    outer loop
      vertex 4.63525 -14.2658 0
      vertex 4.63525 14.2658 0
      vertex 6.10105 13.7032 0
    endloop
  endfacet
  facet normal 0 0 -1
    outer loop
      vertex 3.11868 -14.6722 0
      vertex 4.63525 14.2658 0
      vertex 4.63525 -14.2658 0
    endloop
  endfacet
  facet normal 0 0 -1
    outer loop
      vertex 3.11868 -14.6722 0
      vertex 3.11868 14.6722 0
      vertex 4.63525 14.2658 0
    endloop
  endfacet
  facet normal 0 0 -1
    outer loop
      vertex 1.56793 -14.9178 0
      vertex 3.11868 14.6722 0
      vertex 3.11868 -14.6722 0
    endloop
  endfacet
  facet normal 0 0 -1
    outer loop
      vertex 1.56793 -14.9178 0
      vertex 1.56793 14.9178 0
      vertex 3.11868 14.6722 0
    endloop
  endfacet
  facet normal 0 0 -1
    outer loop
      vertex 0 -15 0
      vertex 1.56793 14.9178 0
      vertex 1.56793 -14.9178 0
    endloop
  endfacet
  facet normal 0 0 -1
    outer loop
      vertex 0 -15 0
      vertex 0 15 0
      vertex 1.56793 14.9178 0
    endloop
  endfacet
  facet normal 0 0 -1
    outer loop
      vertex -1.56793 -14.9178 0
      vertex 0 15 0
      vertex 0 -15 0
    endloop
  endfacet
  facet normal 0 0 -1
    outer loop
      vertex -1.56793 -14.9178 0
      vertex -1.56793 14.9178 0
      vertex 0 15 0
    endloop
  endfacet
  facet normal 0 0 -1
    outer loop
      vertex -3.11868 -14.6722 0
      vertex -1.56793 14.9178 0
      vertex -1.56793 -14.9178 0
    endloop
  endfacet
  facet normal 0 0 -1
    outer loop
      vertex -3.11868 -14.6722 0
      vertex -3.11868 14.6722 0
      vertex -1.56793 14.9178 0
    endloop
  endfacet
  facet normal 0 0 -1
    outer loop
      vertex -4.63525 -14.2658 0
      vertex -3.11868 14.6722 0
      vertex -3.11868 -14.6722 0
    endloop
  endfacet
  facet normal 0 0 -1
    outer loop
      vertex -4.63525 -14.2658 0
      vertex -4.63525 14.2658 0
      vertex -3.11868 14.6722 0
    endloop
  endfacet
  facet normal 0 0 -1
    outer loop
      vertex -6.10105 -13.7032 0
      vertex -4.63525 14.2658 0
      vertex -4.63525 -14.2658 0
    endloop
  endfacet
  facet normal 0 0 -1
    outer loop
      vertex -6.10105 -13.7032 0
      vertex -6.10105 13.7032 0
      vertex -4.63525 14.2658 0
    endloop
  endfacet
  facet normal 0 0 -1
    outer loop
      vertex -7.5 -12.9904 0
      vertex -6.10105 13.7032 0
      vertex -6.10105 -13.7032 0
    endloop
  endfacet
  facet normal 0 0 -1
    outer loop
      vertex -7.5 -12.9904 0
      vertex -7.5 12.9904 0
      vertex -6.10105 13.7032 0
    endloop
  endfacet
  facet normal 0 0 -1
    outer loop
      vertex -8.81678 -12.1353 0
      vertex -7.5 12.9904 0
      vertex -7.5 -12.9904 0
    endloop
  endfacet
  facet normal 0 0 -1
    outer loop
      vertex -8.81678 -12.1353 0
      vertex -8.81678 12.1353 0
      vertex -7.5 12.9904 0
    endloop
  endfacet
  facet normal 0 0 -1
    outer loop
      vertex -10.037 -11.1472 0
      vertex -8.81678 12.1353 0
      vertex -8.81678 -12.1353 0
    endloop
  endfacet
  facet normal 0 0 -1
    outer loop
      vertex -10.037 -11.1472 0
      vertex -10.037 11.1472 0
      vertex -8.81678 12.1353 0
    endloop
  endfacet
  facet normal 0 0 -1
    outer loop
      vertex -11.1472 -10.037 0
      vertex -10.037 11.1472 0
      vertex -10.037 -11.1472 0
    endloop
  endfacet
  facet normal 0 0 -1
    outer loop
      vertex -11.1472 -10.037 0
      vertex -11.1472 10.037 0
      vertex -10.037 11.1472 0
    endloop
  endfacet
  facet normal 0 0 -1
    outer loop
      vertex -12.1353 -8.81678 0
      vertex -11.1472 10.037 0
      vertex -11.1472 -10.037 0
    endloop
  endfacet
  facet normal 0 0 -1
    outer loop
      vertex -12.1353 -8.81678 0
      vertex -12.1353 8.81678 0
      vertex -11.1472 10.037 0
    endloop
  endfacet
  facet normal 0 0 -1
    outer loop
      vertex -12.9904 -7.5 0
      vertex -12.1353 8.81678 0
      vertex -12.1353 -8.81678 0
    endloop
  endfacet
  facet normal 0 0 -1
    outer loop
      vertex -12.9904 -7.5 0
      vertex -12.9904 7.5 0
      vertex -12.1353 8.81678 0
    endloop
  endfacet
  facet normal 0 0 -1
    outer loop
      vertex -13.7032 -6.10105 0
      vertex -12.9904 7.5 0
      vertex -12.9904 -7.5 0
    endloop
  endfacet
  facet normal 0 0 -1
    outer loop
      vertex -13.7032 -6.10105 0
      vertex -13.7032 6.10105 0
      vertex -12.9904 7.5 0
    endloop
  endfacet
  facet normal 0 0 -1
    outer loop
      vertex -14.2658 -4.63525 0
      vertex -13.7032 6.10105 0
      vertex -13.7032 -6.10105 0
    endloop
  endfacet
  facet normal 0 0 -1
    outer loop
      vertex -14.2658 -4.63525 0
      vertex -14.2658 4.63525 0
      vertex -13.7032 6.10105 0
    endloop
  endfacet
  facet normal 0 0 -1
    outer loop
      vertex -14.6722 -3.11868 0
      vertex -14.2658 4.63525 0
      vertex -14.2658 -4.63525 0
    endloop
  endfacet
  facet normal 0 0 -1
    outer loop
      vertex -14.6722 -3.11868 0
      vertex -14.6722 3.11868 0
      vertex -14.2658 4.63525 0
    endloop
  endfacet
  facet normal 0 0 -1
    outer loop
      vertex -14.9178 -1.56793 0
      vertex -14.6722 3.11868 0
      vertex -14.6722 -3.11868 0
    endloop
  endfacet
  facet normal 0 0 -1
    outer loop
      vertex -14.9178 -1.56793 0
      vertex -14.9178 1.56793 0
      vertex -14.6722 3.11868 0
    endloop
  endfacet
  facet normal 0 -0 -1
    outer loop
      vertex -14.9178 1.56793 0
      vertex -14.9178 -1.56793 0
      vertex -15 0 0
    endloop
  endfacet
  facet normal 0.156425 -0.98769 0
    outer loop
      vertex 1.56793 -14.9178 0
      vertex 3.11868 -14.6722 20
      vertex 1.56793 -14.9178 20
    endloop
  endfacet
  facet normal 0.156425 -0.98769 0
    outer loop
      vertex 3.11868 -14.6722 20
      vertex 1.56793 -14.9178 0
      vertex 3.11868 -14.6722 0
    endloop
  endfacet
  facet normal 0.35833 -0.933595 0
    outer loop
      vertex 4.63525 -14.2658 0
      vertex 6.10105 -13.7032 20
      vertex 4.63525 -14.2658 20
    endloop
  endfacet
  facet normal 0.35833 -0.933595 0
    outer loop
      vertex 6.10105 -13.7032 20
      vertex 4.63525 -14.2658 0
      vertex 6.10105 -13.7032 0
    endloop
  endfacet
  facet normal 0.707107 -0.707107 0
    outer loop
      vertex 10.037 -11.1472 20
      vertex 11.1472 -10.037 0
      vertex 11.1472 -10.037 20
    endloop
  endfacet
  facet normal 0.707107 -0.707107 0
    outer loop
      vertex 11.1472 -10.037 0
      vertex 10.037 -11.1472 20
      vertex 10.037 -11.1472 0
    endloop
  endfacet
  facet normal 0.544627 -0.838678 0
    outer loop
      vertex 7.5 -12.9904 0
      vertex 8.81678 -12.1353 20
      vertex 7.5 -12.9904 20
    endloop
  endfacet
  facet normal 0.544627 -0.838678 0
    outer loop
      vertex 8.81678 -12.1353 20
      vertex 7.5 -12.9904 0
      vertex 8.81678 -12.1353 0
    endloop
  endfacet
  facet normal 0.838678 -0.544627 0
    outer loop
      vertex 12.1353 -8.81678 20
      vertex 12.9904 -7.5 0
      vertex 12.9904 -7.5 20
    endloop
  endfacet
  facet normal 0.838678 -0.544627 0
    outer loop
      vertex 12.9904 -7.5 0
      vertex 12.1353 -8.81678 20
      vertex 12.1353 -8.81678 0
    endloop
  endfacet
  facet normal 0.98769 -0.156425 0
    outer loop
      vertex 14.6722 -3.11868 20
      vertex 14.9178 -1.56793 0
      vertex 14.9178 -1.56793 20
    endloop
  endfacet
  facet normal 0.98769 -0.156425 0
    outer loop
      vertex 14.9178 -1.56793 0
      vertex 14.6722 -3.11868 20
      vertex 14.6722 -3.11868 0
    endloop
  endfacet
  facet normal 0.96592 -0.258841 0
    outer loop
      vertex 14.2658 -4.63525 20
      vertex 14.6722 -3.11868 0
      vertex 14.6722 -3.11868 20
    endloop
  endfacet
  facet normal 0.96592 -0.258841 0
    outer loop
      vertex 14.6722 -3.11868 0
      vertex 14.2658 -4.63525 20
      vertex 14.2658 -4.63525 0
    endloop
  endfacet
  facet normal -0.629315 -0.777151 0
    outer loop
      vertex -10.037 -11.1472 0
      vertex -8.81678 -12.1353 20
      vertex -10.037 -11.1472 20
    endloop
  endfacet
  facet normal -0.629315 -0.777151 -0
    outer loop
      vertex -8.81678 -12.1353 20
      vertex -10.037 -11.1472 0
      vertex -8.81678 -12.1353 0
    endloop
  endfacet
  facet normal -0.45399 -0.891007 0
    outer loop
      vertex -7.5 -12.9904 0
      vertex -6.10105 -13.7032 20
      vertex -7.5 -12.9904 20
    endloop
  endfacet
  facet normal -0.45399 -0.891007 -0
    outer loop
      vertex -6.10105 -13.7032 20
      vertex -7.5 -12.9904 0
      vertex -6.10105 -13.7032 0
    endloop
  endfacet
  facet normal -0.258841 -0.96592 0
    outer loop
      vertex -4.63525 -14.2658 0
      vertex -3.11868 -14.6722 20
      vertex -4.63525 -14.2658 20
    endloop
  endfacet
  facet normal -0.258841 -0.96592 -0
    outer loop
      vertex -3.11868 -14.6722 20
      vertex -4.63525 -14.2658 0
      vertex -3.11868 -14.6722 0
    endloop
  endfacet
  facet normal -0.891007 -0.45399 0
    outer loop
      vertex -12.9904 -7.5 0
      vertex -13.7032 -6.10105 20
      vertex -13.7032 -6.10105 0
    endloop
  endfacet
  facet normal -0.891007 -0.45399 0
    outer loop
      vertex -13.7032 -6.10105 20
      vertex -12.9904 -7.5 0
      vertex -12.9904 -7.5 20
    endloop
  endfacet
  facet normal -0.98769 -0.156425 0
    outer loop
      vertex -14.6722 -3.11868 0
      vertex -14.9178 -1.56793 20
      vertex -14.9178 -1.56793 0
    endloop
  endfacet
  facet normal -0.98769 -0.156425 0
    outer loop
      vertex -14.9178 -1.56793 20
      vertex -14.6722 -3.11868 0
      vertex -14.6722 -3.11868 20
    endloop
  endfacet
  facet normal 0.358367 0.933581 -0
    outer loop
      vertex -4.23353 -13.0295 1.1
      vertex -5.57229 -12.5156 20
      vertex -4.23353 -13.0295 20
    endloop
  endfacet
  facet normal 0.358367 0.933581 0
    outer loop
      vertex -5.57229 -12.5156 20
      vertex -4.23353 -13.0295 1.1
      vertex -5.57229 -12.5156 1.1
    endloop
  endfacet
  facet normal -0.544631 -0.838676 0
    outer loop
      vertex 6.85 11.8645 1.1
      vertex 8.05266 11.0835 20
      vertex 6.85 11.8645 20
    endloop
  endfacet
  facet normal -0.544631 -0.838676 -0
    outer loop
      vertex 8.05266 11.0835 20
      vertex 6.85 11.8645 1.1
      vertex 8.05266 11.0835 1.1
    endloop
  endfacet
  facet normal 0.258788 -0.965934 0
    outer loop
      vertex -4.23353 13.0295 1.1
      vertex -2.84839 13.4006 20
      vertex -4.23353 13.0295 20
    endloop
  endfacet
  facet normal 0.258788 -0.965934 0
    outer loop
      vertex -2.84839 13.4006 20
      vertex -4.23353 13.0295 1.1
      vertex -2.84839 13.4006 1.1
    endloop
  endfacet
  facet normal 0.890986 -0.454032 0
    outer loop
      vertex -12.5156 5.57229 20
      vertex -11.8645 6.85 1.1
      vertex -11.8645 6.85 20
    endloop
  endfacet
  facet normal 0.890986 -0.454032 0
    outer loop
      vertex -11.8645 6.85 1.1
      vertex -12.5156 5.57229 20
      vertex -12.5156 5.57229 1.1
    endloop
  endfacet
  facet normal 0.933581 0.358367 0
    outer loop
      vertex -12.5156 -5.57229 20
      vertex -13.0295 -4.23353 1.1
      vertex -13.0295 -4.23353 20
    endloop
  endfacet
  facet normal 0.933581 0.358367 0
    outer loop
      vertex -13.0295 -4.23353 1.1
      vertex -12.5156 -5.57229 20
      vertex -12.5156 -5.57229 1.1
    endloop
  endfacet
  facet normal -0.965934 -0.258788 0
    outer loop
      vertex 13.4006 2.84839 1.1
      vertex 13.0295 4.23353 20
      vertex 13.0295 4.23353 1.1
    endloop
  endfacet
  facet normal -0.965934 -0.258788 0
    outer loop
      vertex 13.0295 4.23353 20
      vertex 13.4006 2.84839 1.1
      vertex 13.4006 2.84839 20
    endloop
  endfacet
  facet normal -0.933581 -0.358367 0
    outer loop
      vertex 13.0295 4.23353 1.1
      vertex 12.5156 5.57229 20
      vertex 12.5156 5.57229 1.1
    endloop
  endfacet
  facet normal -0.933581 -0.358367 0
    outer loop
      vertex 12.5156 5.57229 20
      vertex 13.0295 4.23353 1.1
      vertex 13.0295 4.23353 20
    endloop
  endfacet
  facet normal -0.777162 -0.6293 0
    outer loop
      vertex 11.0835 8.05266 1.1
      vertex 10.1811 9.16709 20
      vertex 10.1811 9.16709 1.1
    endloop
  endfacet
  facet normal -0.777162 -0.6293 0
    outer loop
      vertex 10.1811 9.16709 20
      vertex 11.0835 8.05266 1.1
      vertex 11.0835 8.05266 20
    endloop
  endfacet
  facet normal -0.454032 -0.890986 0
    outer loop
      vertex 5.57229 12.5156 1.1
      vertex 6.85 11.8645 20
      vertex 5.57229 12.5156 20
    endloop
  endfacet
  facet normal -0.454032 -0.890986 -0
    outer loop
      vertex 6.85 11.8645 20
      vertex 5.57229 12.5156 1.1
      vertex 6.85 11.8645 1.1
    endloop
  endfacet
  facet normal -0.0523707 -0.998628 0
    outer loop
      vertex 0 13.7 1.1
      vertex 1.43204 13.6249 20
      vertex 0 13.7 20
    endloop
  endfacet
  facet normal -0.0523707 -0.998628 -0
    outer loop
      vertex 1.43204 13.6249 20
      vertex 0 13.7 1.1
      vertex 1.43204 13.6249 1.1
    endloop
  endfacet
  facet normal -0.156416 -0.987691 0
    outer loop
      vertex 1.43204 13.6249 1.1
      vertex 2.84839 13.4006 20
      vertex 1.43204 13.6249 20
    endloop
  endfacet
  facet normal -0.156416 -0.987691 -0
    outer loop
      vertex 2.84839 13.4006 20
      vertex 1.43204 13.6249 1.1
      vertex 2.84839 13.4006 1.1
    endloop
  endfacet
  facet normal 0.0523707 -0.998628 0
    outer loop
      vertex -1.43204 13.6249 1.1
      vertex 0 13.7 20
      vertex -1.43204 13.6249 20
    endloop
  endfacet
  facet normal 0.0523707 -0.998628 0
    outer loop
      vertex 0 13.7 20
      vertex -1.43204 13.6249 1.1
      vertex 0 13.7 1.1
    endloop
  endfacet
  facet normal 0.544631 -0.838676 0
    outer loop
      vertex -8.05266 11.0835 1.1
      vertex -6.85 11.8645 20
      vertex -8.05266 11.0835 20
    endloop
  endfacet
  facet normal 0.544631 -0.838676 0
    outer loop
      vertex -6.85 11.8645 20
      vertex -8.05266 11.0835 1.1
      vertex -6.85 11.8645 1.1
    endloop
  endfacet
  facet normal -0.933581 0.358367 0
    outer loop
      vertex 12.5156 -5.57229 1.1
      vertex 13.0295 -4.23353 20
      vertex 13.0295 -4.23353 1.1
    endloop
  endfacet
  facet normal -0.933581 0.358367 0
    outer loop
      vertex 13.0295 -4.23353 20
      vertex 12.5156 -5.57229 1.1
      vertex 12.5156 -5.57229 20
    endloop
  endfacet
  facet normal -0.258788 0.965934 0
    outer loop
      vertex 4.23353 -13.0295 1.1
      vertex 2.84839 -13.4006 20
      vertex 4.23353 -13.0295 20
    endloop
  endfacet
  facet normal -0.258788 0.965934 0
    outer loop
      vertex 2.84839 -13.4006 20
      vertex 4.23353 -13.0295 1.1
      vertex 2.84839 -13.4006 1.1
    endloop
  endfacet
  facet normal -0.707107 0.707107 0
    outer loop
      vertex 9.16709 -10.1811 1.1
      vertex 10.1811 -9.16709 20
      vertex 10.1811 -9.16709 1.1
    endloop
  endfacet
  facet normal -0.707107 0.707107 0
    outer loop
      vertex 10.1811 -9.16709 20
      vertex 9.16709 -10.1811 1.1
      vertex 9.16709 -10.1811 20
    endloop
  endfacet
  facet normal 0.998628 0.0523707 0
    outer loop
      vertex -13.6249 -1.43204 20
      vertex -13.7 0 1.1
      vertex -13.7 0 20
    endloop
  endfacet
  facet normal 0.998628 0.0523707 0
    outer loop
      vertex -13.7 0 1.1
      vertex -13.6249 -1.43204 20
      vertex -13.6249 -1.43204 1.1
    endloop
  endfacet
  facet normal 0 0 1
    outer loop
      vertex 13.6249 1.43204 1.1
      vertex 13.6249 -1.43204 1.1
      vertex 13.7 0 1.1
    endloop
  endfacet
  facet normal 0 0 1
    outer loop
      vertex 13.4006 2.84839 1.1
      vertex 13.6249 -1.43204 1.1
      vertex 13.6249 1.43204 1.1
    endloop
  endfacet
  facet normal 0 0 1
    outer loop
      vertex 13.4006 2.84839 1.1
      vertex 13.4006 -2.84839 1.1
      vertex 13.6249 -1.43204 1.1
    endloop
  endfacet
  facet normal 0 0 1
    outer loop
      vertex 13.0295 4.23353 1.1
      vertex 13.4006 -2.84839 1.1
      vertex 13.4006 2.84839 1.1
    endloop
  endfacet
  facet normal 0 0 1
    outer loop
      vertex 13.0295 4.23353 1.1
      vertex 13.0295 -4.23353 1.1
      vertex 13.4006 -2.84839 1.1
    endloop
  endfacet
  facet normal 0 0 1
    outer loop
      vertex 12.5156 5.57229 1.1
      vertex 13.0295 -4.23353 1.1
      vertex 13.0295 4.23353 1.1
    endloop
  endfacet
  facet normal 0 0 1
    outer loop
      vertex 12.5156 5.57229 1.1
      vertex 12.5156 -5.57229 1.1
      vertex 13.0295 -4.23353 1.1
    endloop
  endfacet
  facet normal 0 0 1
    outer loop
      vertex 11.8645 6.85 1.1
      vertex 12.5156 -5.57229 1.1
      vertex 12.5156 5.57229 1.1
    endloop
  endfacet
  facet normal 0 0 1
    outer loop
      vertex 11.8645 6.85 1.1
      vertex 11.8645 -6.85 1.1
      vertex 12.5156 -5.57229 1.1
    endloop
  endfacet
  facet normal 0 0 1
    outer loop
      vertex 11.0835 8.05266 1.1
      vertex 11.8645 -6.85 1.1
      vertex 11.8645 6.85 1.1
    endloop
  endfacet
  facet normal 0 0 1
    outer loop
      vertex 11.0835 8.05266 1.1
      vertex 11.0835 -8.05266 1.1
      vertex 11.8645 -6.85 1.1
    endloop
  endfacet
  facet normal 0 0 1
    outer loop
      vertex 10.1811 9.16709 1.1
      vertex 11.0835 -8.05266 1.1
      vertex 11.0835 8.05266 1.1
    endloop
  endfacet
  facet normal 0 0 1
    outer loop
      vertex 10.1811 9.16709 1.1
      vertex 10.1811 -9.16709 1.1
      vertex 11.0835 -8.05266 1.1
    endloop
  endfacet
  facet normal 0 0 1
    outer loop
      vertex 9.16709 10.1811 1.1
      vertex 10.1811 -9.16709 1.1
      vertex 10.1811 9.16709 1.1
    endloop
  endfacet
  facet normal 0 0 1
    outer loop
      vertex 9.16709 10.1811 1.1
      vertex 9.16709 -10.1811 1.1
      vertex 10.1811 -9.16709 1.1
    endloop
  endfacet
  facet normal 0 0 1
    outer loop
      vertex 8.05266 11.0835 1.1
      vertex 9.16709 -10.1811 1.1
      vertex 9.16709 10.1811 1.1
    endloop
  endfacet
  facet normal 0 0 1
    outer loop
      vertex 8.05266 11.0835 1.1
      vertex 8.05266 -11.0835 1.1
      vertex 9.16709 -10.1811 1.1
    endloop
  endfacet
  facet normal 0 0 1
    outer loop
      vertex 6.85 11.8645 1.1
      vertex 8.05266 -11.0835 1.1
      vertex 8.05266 11.0835 1.1
    endloop
  endfacet
  facet normal 0 0 1
    outer loop
      vertex 6.85 11.8645 1.1
      vertex 6.85 -11.8645 1.1
      vertex 8.05266 -11.0835 1.1
    endloop
  endfacet
  facet normal 0 0 1
    outer loop
      vertex 5.57229 12.5156 1.1
      vertex 6.85 -11.8645 1.1
      vertex 6.85 11.8645 1.1
    endloop
  endfacet
  facet normal 0 0 1
    outer loop
      vertex 5.57229 12.5156 1.1
      vertex 5.57229 -12.5156 1.1
      vertex 6.85 -11.8645 1.1
    endloop
  endfacet
  facet normal 0 0 1
    outer loop
      vertex 4.23353 13.0295 1.1
      vertex 5.57229 -12.5156 1.1
      vertex 5.57229 12.5156 1.1
    endloop
  endfacet
  facet normal 0 0 1
    outer loop
      vertex 4.23353 13.0295 1.1
      vertex 4.23353 -13.0295 1.1
      vertex 5.57229 -12.5156 1.1
    endloop
  endfacet
  facet normal 0 0 1
    outer loop
      vertex 2.84839 13.4006 1.1
      vertex 4.23353 -13.0295 1.1
      vertex 4.23353 13.0295 1.1
    endloop
  endfacet
  facet normal 0 0 1
    outer loop
      vertex 2.84839 13.4006 1.1
      vertex 2.84839 -13.4006 1.1
      vertex 4.23353 -13.0295 1.1
    endloop
  endfacet
  facet normal 0 0 1
    outer loop
      vertex 1.43204 13.6249 1.1
      vertex 2.84839 -13.4006 1.1
      vertex 2.84839 13.4006 1.1
    endloop
  endfacet
  facet normal 0 0 1
    outer loop
      vertex 1.43204 13.6249 1.1
      vertex 1.43204 -13.6249 1.1
      vertex 2.84839 -13.4006 1.1
    endloop
  endfacet
  facet normal 0 0 1
    outer loop
      vertex 0 13.7 1.1
      vertex 1.43204 -13.6249 1.1
      vertex 1.43204 13.6249 1.1
    endloop
  endfacet
  facet normal 0 0 1
    outer loop
      vertex 0 13.7 1.1
      vertex 0 -13.7 1.1
      vertex 1.43204 -13.6249 1.1
    endloop
  endfacet
  facet normal -0 0 1
    outer loop
      vertex -1.43204 13.6249 1.1
      vertex 0 -13.7 1.1
      vertex 0 13.7 1.1
    endloop
  endfacet
  facet normal 0 0 1
    outer loop
      vertex -1.43204 13.6249 1.1
      vertex -1.43204 -13.6249 1.1
      vertex 0 -13.7 1.1
    endloop
  endfacet
  facet normal -0 0 1
    outer loop
      vertex -2.84839 13.4006 1.1
      vertex -1.43204 -13.6249 1.1
      vertex -1.43204 13.6249 1.1
    endloop
  endfacet
  facet normal 0 0 1
    outer loop
      vertex -2.84839 13.4006 1.1
      vertex -2.84839 -13.4006 1.1
      vertex -1.43204 -13.6249 1.1
    endloop
  endfacet
  facet normal -0 0 1
    outer loop
      vertex -4.23353 13.0295 1.1
      vertex -2.84839 -13.4006 1.1
      vertex -2.84839 13.4006 1.1
    endloop
  endfacet
  facet normal 0 0 1
    outer loop
      vertex -4.23353 13.0295 1.1
      vertex -4.23353 -13.0295 1.1
      vertex -2.84839 -13.4006 1.1
    endloop
  endfacet
  facet normal -0 0 1
    outer loop
      vertex -5.57229 12.5156 1.1
      vertex -4.23353 -13.0295 1.1
      vertex -4.23353 13.0295 1.1
    endloop
  endfacet
  facet normal 0 0 1
    outer loop
      vertex -5.57229 12.5156 1.1
      vertex -5.57229 -12.5156 1.1
      vertex -4.23353 -13.0295 1.1
    endloop
  endfacet
  facet normal -0 0 1
    outer loop
      vertex -6.85 11.8645 1.1
      vertex -5.57229 -12.5156 1.1
      vertex -5.57229 12.5156 1.1
    endloop
  endfacet
  facet normal 0 0 1
    outer loop
      vertex -6.85 11.8645 1.1
      vertex -6.85 -11.8645 1.1
      vertex -5.57229 -12.5156 1.1
    endloop
  endfacet
  facet normal -0 0 1
    outer loop
      vertex -8.05266 11.0835 1.1
      vertex -6.85 -11.8645 1.1
      vertex -6.85 11.8645 1.1
    endloop
  endfacet
  facet normal 0 0 1
    outer loop
      vertex -8.05266 11.0835 1.1
      vertex -8.05266 -11.0835 1.1
      vertex -6.85 -11.8645 1.1
    endloop
  endfacet
  facet normal -0 0 1
    outer loop
      vertex -9.16709 10.1811 1.1
      vertex -8.05266 -11.0835 1.1
      vertex -8.05266 11.0835 1.1
    endloop
  endfacet
  facet normal 0 0 1
    outer loop
      vertex -9.16709 10.1811 1.1
      vertex -9.16709 -10.1811 1.1
      vertex -8.05266 -11.0835 1.1
    endloop
  endfacet
  facet normal -0 0 1
    outer loop
      vertex -10.1811 9.16709 1.1
      vertex -9.16709 -10.1811 1.1
      vertex -9.16709 10.1811 1.1
    endloop
  endfacet
  facet normal 0 0 1
    outer loop
      vertex -10.1811 9.16709 1.1
      vertex -10.1811 -9.16709 1.1
      vertex -9.16709 -10.1811 1.1
    endloop
  endfacet
  facet normal -0 0 1
    outer loop
      vertex -11.0835 8.05266 1.1
      vertex -10.1811 -9.16709 1.1
      vertex -10.1811 9.16709 1.1
    endloop
  endfacet
  facet normal 0 0 1
    outer loop
      vertex -11.0835 8.05266 1.1
      vertex -11.0835 -8.05266 1.1
      vertex -10.1811 -9.16709 1.1
    endloop
  endfacet
  facet normal -0 0 1
    outer loop
      vertex -11.8645 6.85 1.1
      vertex -11.0835 -8.05266 1.1
      vertex -11.0835 8.05266 1.1
    endloop
  endfacet
  facet normal 0 0 1
    outer loop
      vertex -11.8645 6.85 1.1
      vertex -11.8645 -6.85 1.1
      vertex -11.0835 -8.05266 1.1
    endloop
  endfacet
  facet normal -0 0 1
    outer loop
      vertex -12.5156 5.57229 1.1
      vertex -11.8645 -6.85 1.1
      vertex -11.8645 6.85 1.1
    endloop
  endfacet
  facet normal 0 0 1
    outer loop
      vertex -12.5156 5.57229 1.1
      vertex -12.5156 -5.57229 1.1
      vertex -11.8645 -6.85 1.1
    endloop
  endfacet
  facet normal -0 0 1
    outer loop
      vertex -13.0295 4.23353 1.1
      vertex -12.5156 -5.57229 1.1
      vertex -12.5156 5.57229 1.1
    endloop
  endfacet
  facet normal 0 0 1
    outer loop
      vertex -13.0295 4.23353 1.1
      vertex -13.0295 -4.23353 1.1
      vertex -12.5156 -5.57229 1.1
    endloop
  endfacet
  facet normal -0 0 1
    outer loop
      vertex -13.4006 2.84839 1.1
      vertex -13.0295 -4.23353 1.1
      vertex -13.0295 4.23353 1.1
    endloop
  endfacet
  facet normal 0 0 1
    outer loop
      vertex -13.4006 2.84839 1.1
      vertex -13.4006 -2.84839 1.1
      vertex -13.0295 -4.23353 1.1
    endloop
  endfacet
  facet normal -0 0 1
    outer loop
      vertex -13.6249 1.43204 1.1
      vertex -13.4006 -2.84839 1.1
      vertex -13.4006 2.84839 1.1
    endloop
  endfacet
  facet normal 0 0 1
    outer loop
      vertex -13.6249 1.43204 1.1
      vertex -13.6249 -1.43204 1.1
      vertex -13.4006 -2.84839 1.1
    endloop
  endfacet
  facet normal 0 -0 1
    outer loop
      vertex -13.6249 -1.43204 1.1
      vertex -13.6249 1.43204 1.1
      vertex -13.7 0 1.1
    endloop
  endfacet
  facet normal 0.777162 0.6293 0
    outer loop
      vertex -10.1811 -9.16709 20
      vertex -11.0835 -8.05266 1.1
      vertex -11.0835 -8.05266 20
    endloop
  endfacet
  facet normal 0.777162 0.6293 0
    outer loop
      vertex -11.0835 -8.05266 1.1
      vertex -10.1811 -9.16709 20
      vertex -10.1811 -9.16709 1.1
    endloop
  endfacet
  facet normal -0.987691 -0.156416 0
    outer loop
      vertex 13.6249 1.43204 1.1
      vertex 13.4006 2.84839 20
      vertex 13.4006 2.84839 1.1
    endloop
  endfacet
  facet normal -0.987691 -0.156416 0
    outer loop
      vertex 13.4006 2.84839 20
      vertex 13.6249 1.43204 1.1
      vertex 13.6249 1.43204 20
    endloop
  endfacet
  facet normal -0.890986 -0.454032 0
    outer loop
      vertex 12.5156 5.57229 1.1
      vertex 11.8645 6.85 20
      vertex 11.8645 6.85 1.1
    endloop
  endfacet
  facet normal -0.890986 -0.454032 0
    outer loop
      vertex 11.8645 6.85 20
      vertex 12.5156 5.57229 1.1
      vertex 12.5156 5.57229 20
    endloop
  endfacet
  facet normal -0.838676 -0.544631 0
    outer loop
      vertex 11.8645 6.85 1.1
      vertex 11.0835 8.05266 20
      vertex 11.0835 8.05266 1.1
    endloop
  endfacet
  facet normal -0.838676 -0.544631 0
    outer loop
      vertex 11.0835 8.05266 20
      vertex 11.8645 6.85 1.1
      vertex 11.8645 6.85 20
    endloop
  endfacet
  facet normal -0.707107 -0.707107 0
    outer loop
      vertex 10.1811 9.16709 1.1
      vertex 9.16709 10.1811 20
      vertex 9.16709 10.1811 1.1
    endloop
  endfacet
  facet normal -0.707107 -0.707107 0
    outer loop
      vertex 9.16709 10.1811 20
      vertex 10.1811 9.16709 1.1
      vertex 10.1811 9.16709 20
    endloop
  endfacet
  facet normal -0.358367 -0.933581 0
    outer loop
      vertex 4.23353 13.0295 1.1
      vertex 5.57229 12.5156 20
      vertex 4.23353 13.0295 20
    endloop
  endfacet
  facet normal -0.358367 -0.933581 -0
    outer loop
      vertex 5.57229 12.5156 20
      vertex 4.23353 13.0295 1.1
      vertex 5.57229 12.5156 1.1
    endloop
  endfacet
  facet normal 0.998628 -0.0523707 0
    outer loop
      vertex -13.7 0 20
      vertex -13.6249 1.43204 1.1
      vertex -13.6249 1.43204 20
    endloop
  endfacet
  facet normal 0.998628 -0.0523707 0
    outer loop
      vertex -13.6249 1.43204 1.1
      vertex -13.7 0 20
      vertex -13.7 0 1.1
    endloop
  endfacet
  facet normal 0.933581 -0.358367 0
    outer loop
      vertex -13.0295 4.23353 20
      vertex -12.5156 5.57229 1.1
      vertex -12.5156 5.57229 20
    endloop
  endfacet
  facet normal 0.933581 -0.358367 0
    outer loop
      vertex -12.5156 5.57229 1.1
      vertex -13.0295 4.23353 20
      vertex -13.0295 4.23353 1.1
    endloop
  endfacet
  facet normal 0.965934 -0.258788 0
    outer loop
      vertex -13.4006 2.84839 20
      vertex -13.0295 4.23353 1.1
      vertex -13.0295 4.23353 20
    endloop
  endfacet
  facet normal 0.965934 -0.258788 0
    outer loop
      vertex -13.0295 4.23353 1.1
      vertex -13.4006 2.84839 20
      vertex -13.4006 2.84839 1.1
    endloop
  endfacet
  facet normal 0.707107 -0.707107 0
    outer loop
      vertex -10.1811 9.16709 20
      vertex -9.16709 10.1811 1.1
      vertex -9.16709 10.1811 20
    endloop
  endfacet
  facet normal 0.707107 -0.707107 0
    outer loop
      vertex -9.16709 10.1811 1.1
      vertex -10.1811 9.16709 20
      vertex -10.1811 9.16709 1.1
    endloop
  endfacet
  facet normal 0.838676 -0.544631 0
    outer loop
      vertex -11.8645 6.85 20
      vertex -11.0835 8.05266 1.1
      vertex -11.0835 8.05266 20
    endloop
  endfacet
  facet normal 0.838676 -0.544631 0
    outer loop
      vertex -11.0835 8.05266 1.1
      vertex -11.8645 6.85 20
      vertex -11.8645 6.85 1.1
    endloop
  endfacet
  facet normal 0.777162 -0.6293 0
    outer loop
      vertex -11.0835 8.05266 20
      vertex -10.1811 9.16709 1.1
      vertex -10.1811 9.16709 20
    endloop
  endfacet
  facet normal 0.777162 -0.6293 0
    outer loop
      vertex -10.1811 9.16709 1.1
      vertex -11.0835 8.05266 20
      vertex -11.0835 8.05266 1.1
    endloop
  endfacet
  facet normal 0.358367 -0.933581 0
    outer loop
      vertex -5.57229 12.5156 1.1
      vertex -4.23353 13.0295 20
      vertex -5.57229 12.5156 20
    endloop
  endfacet
  facet normal 0.358367 -0.933581 0
    outer loop
      vertex -4.23353 13.0295 20
      vertex -5.57229 12.5156 1.1
      vertex -4.23353 13.0295 1.1
    endloop
  endfacet
  facet normal 0.454032 -0.890986 0
    outer loop
      vertex -6.85 11.8645 1.1
      vertex -5.57229 12.5156 20
      vertex -6.85 11.8645 20
    endloop
  endfacet
  facet normal 0.454032 -0.890986 0
    outer loop
      vertex -5.57229 12.5156 20
      vertex -6.85 11.8645 1.1
      vertex -5.57229 12.5156 1.1
    endloop
  endfacet
  facet normal 0.6293 -0.777162 0
    outer loop
      vertex -9.16709 10.1811 1.1
      vertex -8.05266 11.0835 20
      vertex -9.16709 10.1811 20
    endloop
  endfacet
  facet normal 0.6293 -0.777162 0
    outer loop
      vertex -8.05266 11.0835 20
      vertex -9.16709 10.1811 1.1
      vertex -8.05266 11.0835 1.1
    endloop
  endfacet
  facet normal -0.998628 -0.0523707 0
    outer loop
      vertex 13.7 0 1.1
      vertex 13.6249 1.43204 20
      vertex 13.6249 1.43204 1.1
    endloop
  endfacet
  facet normal -0.998628 -0.0523707 0
    outer loop
      vertex 13.6249 1.43204 20
      vertex 13.7 0 1.1
      vertex 13.7 0 20
    endloop
  endfacet
  facet normal -0.0523707 0.998628 0
    outer loop
      vertex 1.43204 -13.6249 1.1
      vertex 0 -13.7 20
      vertex 1.43204 -13.6249 20
    endloop
  endfacet
  facet normal -0.0523707 0.998628 0
    outer loop
      vertex 0 -13.7 20
      vertex 1.43204 -13.6249 1.1
      vertex 0 -13.7 1.1
    endloop
  endfacet
  facet normal -0.965934 0.258788 0
    outer loop
      vertex 13.0295 -4.23353 1.1
      vertex 13.4006 -2.84839 20
      vertex 13.4006 -2.84839 1.1
    endloop
  endfacet
  facet normal -0.965934 0.258788 0
    outer loop
      vertex 13.4006 -2.84839 20
      vertex 13.0295 -4.23353 1.1
      vertex 13.0295 -4.23353 20
    endloop
  endfacet
  facet normal -0.156416 0.987691 0
    outer loop
      vertex 2.84839 -13.4006 1.1
      vertex 1.43204 -13.6249 20
      vertex 2.84839 -13.4006 20
    endloop
  endfacet
  facet normal -0.156416 0.987691 0
    outer loop
      vertex 1.43204 -13.6249 20
      vertex 2.84839 -13.4006 1.1
      vertex 1.43204 -13.6249 1.1
    endloop
  endfacet
  facet normal -0.454032 0.890986 0
    outer loop
      vertex 6.85 -11.8645 1.1
      vertex 5.57229 -12.5156 20
      vertex 6.85 -11.8645 20
    endloop
  endfacet
  facet normal -0.454032 0.890986 0
    outer loop
      vertex 5.57229 -12.5156 20
      vertex 6.85 -11.8645 1.1
      vertex 5.57229 -12.5156 1.1
    endloop
  endfacet
  facet normal -0.6293 0.777162 0
    outer loop
      vertex 9.16709 -10.1811 1.1
      vertex 8.05266 -11.0835 20
      vertex 9.16709 -10.1811 20
    endloop
  endfacet
  facet normal -0.6293 0.777162 0
    outer loop
      vertex 8.05266 -11.0835 20
      vertex 9.16709 -10.1811 1.1
      vertex 8.05266 -11.0835 1.1
    endloop
  endfacet
  facet normal -0.544631 0.838676 0
    outer loop
      vertex 8.05266 -11.0835 1.1
      vertex 6.85 -11.8645 20
      vertex 8.05266 -11.0835 20
    endloop
  endfacet
  facet normal -0.544631 0.838676 0
    outer loop
      vertex 6.85 -11.8645 20
      vertex 8.05266 -11.0835 1.1
      vertex 6.85 -11.8645 1.1
    endloop
  endfacet
  facet normal -0.777162 0.6293 0
    outer loop
      vertex 10.1811 -9.16709 1.1
      vertex 11.0835 -8.05266 20
      vertex 11.0835 -8.05266 1.1
    endloop
  endfacet
  facet normal -0.777162 0.6293 0
    outer loop
      vertex 11.0835 -8.05266 20
      vertex 10.1811 -9.16709 1.1
      vertex 10.1811 -9.16709 20
    endloop
  endfacet
  facet normal -0.890986 0.454032 0
    outer loop
      vertex 11.8645 -6.85 1.1
      vertex 12.5156 -5.57229 20
      vertex 12.5156 -5.57229 1.1
    endloop
  endfacet
  facet normal -0.890986 0.454032 0
    outer loop
      vertex 12.5156 -5.57229 20
      vertex 11.8645 -6.85 1.1
      vertex 11.8645 -6.85 20
    endloop
  endfacet
  facet normal -0.838676 0.544631 0
    outer loop
      vertex 11.0835 -8.05266 1.1
      vertex 11.8645 -6.85 20
      vertex 11.8645 -6.85 1.1
    endloop
  endfacet
  facet normal -0.838676 0.544631 0
    outer loop
      vertex 11.8645 -6.85 20
      vertex 11.0835 -8.05266 1.1
      vertex 11.0835 -8.05266 20
    endloop
  endfacet
  facet normal 0.156416 0.987691 -0
    outer loop
      vertex -1.43204 -13.6249 1.1
      vertex -2.84839 -13.4006 20
      vertex -1.43204 -13.6249 20
    endloop
  endfacet
  facet normal 0.156416 0.987691 0
    outer loop
      vertex -2.84839 -13.4006 20
      vertex -1.43204 -13.6249 1.1
      vertex -2.84839 -13.4006 1.1
    endloop
  endfacet
  facet normal 0.0523707 0.998628 -0
    outer loop
      vertex 0 -13.7 1.1
      vertex -1.43204 -13.6249 20
      vertex 0 -13.7 20
    endloop
  endfacet
  facet normal 0.0523707 0.998628 0
    outer loop
      vertex -1.43204 -13.6249 20
      vertex 0 -13.7 1.1
      vertex -1.43204 -13.6249 1.1
    endloop
  endfacet
  facet normal 0.544631 0.838676 -0
    outer loop
      vertex -6.85 -11.8645 1.1
      vertex -8.05266 -11.0835 20
      vertex -6.85 -11.8645 20
    endloop
  endfacet
  facet normal 0.544631 0.838676 0
    outer loop
      vertex -8.05266 -11.0835 20
      vertex -6.85 -11.8645 1.1
      vertex -8.05266 -11.0835 1.1
    endloop
  endfacet
  facet normal 0.707107 0.707107 0
    outer loop
      vertex -9.16709 -10.1811 20
      vertex -10.1811 -9.16709 1.1
      vertex -10.1811 -9.16709 20
    endloop
  endfacet
  facet normal 0.707107 0.707107 0
    outer loop
      vertex -10.1811 -9.16709 1.1
      vertex -9.16709 -10.1811 20
      vertex -9.16709 -10.1811 1.1
    endloop
  endfacet
  facet normal 0.454032 0.890986 -0
    outer loop
      vertex -5.57229 -12.5156 1.1
      vertex -6.85 -11.8645 20
      vertex -5.57229 -12.5156 20
    endloop
  endfacet
  facet normal 0.454032 0.890986 0
    outer loop
      vertex -6.85 -11.8645 20
      vertex -5.57229 -12.5156 1.1
      vertex -6.85 -11.8645 1.1
    endloop
  endfacet
  facet normal 0.987691 0.156416 0
    outer loop
      vertex -13.4006 -2.84839 20
      vertex -13.6249 -1.43204 1.1
      vertex -13.6249 -1.43204 20
    endloop
  endfacet
  facet normal 0.987691 0.156416 0
    outer loop
      vertex -13.6249 -1.43204 1.1
      vertex -13.4006 -2.84839 20
      vertex -13.4006 -2.84839 1.1
    endloop
  endfacet
  facet normal 0.838676 0.544631 0
    outer loop
      vertex -11.0835 -8.05266 20
      vertex -11.8645 -6.85 1.1
      vertex -11.8645 -6.85 20
    endloop
  endfacet
  facet normal 0.838676 0.544631 0
    outer loop
      vertex -11.8645 -6.85 1.1
      vertex -11.0835 -8.05266 20
      vertex -11.0835 -8.05266 1.1
    endloop
  endfacet
  facet normal -0.6293 -0.777162 0
    outer loop
      vertex 8.05266 11.0835 1.1
      vertex 9.16709 10.1811 20
      vertex 8.05266 11.0835 20
    endloop
  endfacet
  facet normal -0.6293 -0.777162 -0
    outer loop
      vertex 9.16709 10.1811 20
      vertex 8.05266 11.0835 1.1
      vertex 9.16709 10.1811 1.1
    endloop
  endfacet
  facet normal -0.258788 -0.965934 0
    outer loop
      vertex 2.84839 13.4006 1.1
      vertex 4.23353 13.0295 20
      vertex 2.84839 13.4006 20
    endloop
  endfacet
  facet normal -0.258788 -0.965934 -0
    outer loop
      vertex 4.23353 13.0295 20
      vertex 2.84839 13.4006 1.1
      vertex 4.23353 13.0295 1.1
    endloop
  endfacet
  facet normal 0.987691 -0.156416 0
    outer loop
      vertex -13.6249 1.43204 20
      vertex -13.4006 2.84839 1.1
      vertex -13.4006 2.84839 20
    endloop
  endfacet
  facet normal 0.987691 -0.156416 0
    outer loop
      vertex -13.4006 2.84839 1.1
      vertex -13.6249 1.43204 20
      vertex -13.6249 1.43204 1.1
    endloop
  endfacet
  facet normal 0.156416 -0.987691 0
    outer loop
      vertex -2.84839 13.4006 1.1
      vertex -1.43204 13.6249 20
      vertex -2.84839 13.4006 20
    endloop
  endfacet
  facet normal 0.156416 -0.987691 0
    outer loop
      vertex -1.43204 13.6249 20
      vertex -2.84839 13.4006 1.1
      vertex -1.43204 13.6249 1.1
    endloop
  endfacet
  facet normal -0.987691 0.156416 0
    outer loop
      vertex 13.4006 -2.84839 1.1
      vertex 13.6249 -1.43204 20
      vertex 13.6249 -1.43204 1.1
    endloop
  endfacet
  facet normal -0.987691 0.156416 0
    outer loop
      vertex 13.6249 -1.43204 20
      vertex 13.4006 -2.84839 1.1
      vertex 13.4006 -2.84839 20
    endloop
  endfacet
  facet normal -0.998628 0.0523707 0
    outer loop
      vertex 13.6249 -1.43204 1.1
      vertex 13.7 0 20
      vertex 13.7 0 1.1
    endloop
  endfacet
  facet normal -0.998628 0.0523707 0
    outer loop
      vertex 13.7 0 20
      vertex 13.6249 -1.43204 1.1
      vertex 13.6249 -1.43204 20
    endloop
  endfacet
  facet normal -0.358367 0.933581 0
    outer loop
      vertex 5.57229 -12.5156 1.1
      vertex 4.23353 -13.0295 20
      vertex 5.57229 -12.5156 20
    endloop
  endfacet
  facet normal -0.358367 0.933581 0
    outer loop
      vertex 4.23353 -13.0295 20
      vertex 5.57229 -12.5156 1.1
      vertex 4.23353 -13.0295 1.1
    endloop
  endfacet
  facet normal 0.258788 0.965934 -0
    outer loop
      vertex -2.84839 -13.4006 1.1
      vertex -4.23353 -13.0295 20
      vertex -2.84839 -13.4006 20
    endloop
  endfacet
  facet normal 0.258788 0.965934 0
    outer loop
      vertex -4.23353 -13.0295 20
      vertex -2.84839 -13.4006 1.1
      vertex -4.23353 -13.0295 1.1
    endloop
  endfacet
  facet normal 0.6293 0.777162 -0
    outer loop
      vertex -8.05266 -11.0835 1.1
      vertex -9.16709 -10.1811 20
      vertex -8.05266 -11.0835 20
    endloop
  endfacet
  facet normal 0.6293 0.777162 0
    outer loop
      vertex -9.16709 -10.1811 20
      vertex -8.05266 -11.0835 1.1
      vertex -9.16709 -10.1811 1.1
    endloop
  endfacet
  facet normal 0.965934 0.258788 0
    outer loop
      vertex -13.0295 -4.23353 20
      vertex -13.4006 -2.84839 1.1
      vertex -13.4006 -2.84839 20
    endloop
  endfacet
  facet normal 0.965934 0.258788 0
    outer loop
      vertex -13.4006 -2.84839 1.1
      vertex -13.0295 -4.23353 20
      vertex -13.0295 -4.23353 1.1
    endloop
  endfacet
  facet normal 0.890986 0.454032 0
    outer loop
      vertex -11.8645 -6.85 20
      vertex -12.5156 -5.57229 1.1
      vertex -12.5156 -5.57229 20
    endloop
  endfacet
  facet normal 0.890986 0.454032 0
    outer loop
      vertex -12.5156 -5.57229 1.1
      vertex -11.8645 -6.85 20
      vertex -11.8645 -6.85 1.1
    endloop
  endfacet
endsolid OpenSCAD_Model
