solid OpenSCAD_Model
  facet normal 0 0 1
    outer loop
      vertex 98.7121 99.2778 0.3
      vertex -98.7121 -99.2778 0.3
      vertex 99.2778 98.7121 0.3
    endloop
  endfacet
  facet normal 0 -0 1
    outer loop
      vertex -98.7121 -99.2778 0.3
      vertex 98.7121 99.2778 0.3
      vertex -99.2778 -98.7121 0.3
    endloop
  endfacet
  facet normal 0 0 -1
    outer loop
      vertex -98.7121 -99.2778 -0.3
      vertex 98.7121 99.2778 -0.3
      vertex 99.2778 98.7121 -0.3
    endloop
  endfacet
  facet normal 0 0 -1
    outer loop
      vertex 98.7121 99.2778 -0.3
      vertex -98.7121 -99.2778 -0.3
      vertex -99.2778 -98.7121 -0.3
    endloop
  endfacet
  facet normal 0.707107 -0.707107 0
    outer loop
      vertex -98.7121 -99.2778 0.3
      vertex 99.2778 98.7121 -0.3
      vertex 99.2778 98.7121 0.3
    endloop
  endfacet
  facet normal 0.707107 -0.707107 0
    outer loop
      vertex 99.2778 98.7121 -0.3
      vertex -98.7121 -99.2778 0.3
      vertex -98.7121 -99.2778 -0.3
    endloop
  endfacet
  facet normal 0.707107 0.707107 0
    outer loop
      vertex 99.2778 98.7121 0.3
      vertex 98.7121 99.2778 -0.3
      vertex 98.7121 99.2778 0.3
    endloop
  endfacet
  facet normal 0.707107 0.707107 0
    outer loop
      vertex 98.7121 99.2778 -0.3
      vertex 99.2778 98.7121 0.3
      vertex 99.2778 98.7121 -0.3
    endloop
  endfacet
  facet normal -0.707107 0.707107 0
    outer loop
      vertex -99.2778 -98.7121 -0.3
      vertex 98.7121 99.2778 0.3
      vertex 98.7121 99.2778 -0.3
    endloop
  endfacet
  facet normal -0.707107 0.707107 0
    outer loop
      vertex 98.7121 99.2778 0.3
      vertex -99.2778 -98.7121 -0.3
      vertex -99.2778 -98.7121 0.3
    endloop
  endfacet
  facet normal -0.707107 -0.707107 0
    outer loop
      vertex -98.7121 -99.2778 -0.3
      vertex -99.2778 -98.7121 0.3
      vertex -99.2778 -98.7121 -0.3
    endloop
  endfacet
  facet normal -0.707107 -0.707107 0
    outer loop
      vertex -99.2778 -98.7121 0.3
      vertex -98.7121 -99.2778 -0.3
      vertex -98.7121 -99.2778 0.3
    endloop
  endfacet
endsolid OpenSCAD_Model
