solid OpenSCAD_Model
  facet normal -1 0 0
    outer loop
      vertex -25 13 -0.299999
      vertex -25 10.3 0.299999
      vertex -25 13 0.299999
    endloop
  endfacet
  facet normal -1 0 0
    outer loop
      vertex -25 10.3 0.299999
      vertex -25 9.7 0.299999
      vertex -25 10.3 3
    endloop
  endfacet
  facet normal -1 0 0
    outer loop
      vertex -25 13 -0.299999
      vertex -25 9.7 0.299999
      vertex -25 10.3 0.299999
    endloop
  endfacet
  facet normal -1 0 0
    outer loop
      vertex -25 7 -0.299999
      vertex -25 9.7 0.299999
      vertex -25 13 -0.299999
    endloop
  endfacet
  facet normal -1 -0 0
    outer loop
      vertex -25 9.7 0.299999
      vertex -25 7 -0.299999
      vertex -25 7 0.299999
    endloop
  endfacet
  facet normal -1 -0 0
    outer loop
      vertex -25 10.3 3
      vertex -25 9.7 0.299999
      vertex -25 9.7 3
    endloop
  endfacet
  facet normal -0 0 1
    outer loop
      vertex -25 9.7 0.299999
      vertex 25 7 0.299999
      vertex 25 9.7 0.299999
    endloop
  endfacet
  facet normal 0 0 1
    outer loop
      vertex 25 7 0.299999
      vertex -25 9.7 0.299999
      vertex -25 7 0.299999
    endloop
  endfacet
  facet normal -0 0 1
    outer loop
      vertex -25 13 0.299999
      vertex 25 10.3 0.299999
      vertex 25 13 0.299999
    endloop
  endfacet
  facet normal 0 0 1
    outer loop
      vertex 25 10.3 0.299999
      vertex -25 13 0.299999
      vertex -25 10.3 0.299999
    endloop
  endfacet
  facet normal 1 0 0
    outer loop
      vertex 25 10.3 3
      vertex 25 9.7 3
      vertex 25 10.3 0.299999
    endloop
  endfacet
  facet normal 1 -0 0
    outer loop
      vertex 25 10.3 0.299999
      vertex 25 13 -0.299999
      vertex 25 13 0.299999
    endloop
  endfacet
  facet normal 1 0 0
    outer loop
      vertex 25 9.7 0.299999
      vertex 25 10.3 0.299999
      vertex 25 9.7 3
    endloop
  endfacet
  facet normal 1 -0 0
    outer loop
      vertex 25 9.7 0.299999
      vertex 25 13 -0.299999
      vertex 25 10.3 0.299999
    endloop
  endfacet
  facet normal 1 0 0
    outer loop
      vertex 25 7 -0.299999
      vertex 25 9.7 0.299999
      vertex 25 7 0.299999
    endloop
  endfacet
  facet normal 1 0 0
    outer loop
      vertex 25 9.7 0.299999
      vertex 25 7 -0.299999
      vertex 25 13 -0.299999
    endloop
  endfacet
  facet normal 0 1 -0
    outer loop
      vertex 25 13 -0.299999
      vertex -25 13 0.299999
      vertex 25 13 0.299999
    endloop
  endfacet
  facet normal 0 1 0
    outer loop
      vertex -25 13 0.299999
      vertex 25 13 -0.299999
      vertex -25 13 -0.299999
    endloop
  endfacet
  facet normal 0 0 -1
    outer loop
      vertex -25 7 -0.299999
      vertex 25 13 -0.299999
      vertex 25 7 -0.299999
    endloop
  endfacet
  facet normal -0 0 -1
    outer loop
      vertex 25 13 -0.299999
      vertex -25 7 -0.299999
      vertex -25 13 -0.299999
    endloop
  endfacet
  facet normal 0 -1 0
    outer loop
      vertex -25 7 -0.299999
      vertex 25 7 0.299999
      vertex -25 7 0.299999
    endloop
  endfacet
  facet normal 0 -1 -0
    outer loop
      vertex 25 7 0.299999
      vertex -25 7 -0.299999
      vertex 25 7 -0.299999
    endloop
  endfacet
  facet normal -0 0 1
    outer loop
      vertex -25 10.3 3
      vertex 25 9.7 3
      vertex 25 10.3 3
    endloop
  endfacet
  facet normal 0 0 1
    outer loop
      vertex 25 9.7 3
      vertex -25 10.3 3
      vertex -25 9.7 3
    endloop
  endfacet
  facet normal 0 1 -0
    outer loop
      vertex 25 10.3 0.299999
      vertex -25 10.3 3
      vertex 25 10.3 3
    endloop
  endfacet
  facet normal 0 1 0
    outer loop
      vertex -25 10.3 3
      vertex 25 10.3 0.299999
      vertex -25 10.3 0.299999
    endloop
  endfacet
  facet normal 0 -1 0
    outer loop
      vertex -25 9.7 0.299999
      vertex 25 9.7 3
      vertex -25 9.7 3
    endloop
  endfacet
  facet normal 0 -1 -0
    outer loop
      vertex 25 9.7 3
      vertex -25 9.7 0.299999
      vertex 25 9.7 0.299999
    endloop
  endfacet
endsolid OpenSCAD_Model
