solid OpenSCAD_Model
  facet normal -1 0 0
    outer loop
      vertex -150 7 -0.299999
      vertex -150 9.7 0.299999
      vertex -150 9.7 -0.299999
    endloop
  endfacet
  facet normal -1 -0 0
    outer loop
      vertex -150 9.7 0.299999
      vertex -150 7 -0.299999
      vertex -150 7 0.299999
    endloop
  endfacet
  facet normal -1 0 0
    outer loop
      vertex -150 9.7 -0.299999
      vertex -150 10.3 -0.299999
      vertex -150 10.3 -0.5
    endloop
  endfacet
  facet normal -1 0 0
    outer loop
      vertex -150 10.3 -0.299999
      vertex -150 9.7 -0.299999
      vertex -150 10.3 0.299999
    endloop
  endfacet
  facet normal -1 0 0
    outer loop
      vertex -150 9.7 -0.299999
      vertex -150 10.3 -0.5
      vertex -150 9.7 -0.5
    endloop
  endfacet
  facet normal -1 -0 0
    outer loop
      vertex -150 10.3 0.299999
      vertex -150 9.7 -0.299999
      vertex -150 9.7 0.299999
    endloop
  endfacet
  facet normal -1 0 0
    outer loop
      vertex -150 10.3 0.299999
      vertex -150 9.7 0.299999
      vertex -150 10.3 3.5
    endloop
  endfacet
  facet normal -1 -0 0
    outer loop
      vertex -150 10.3 3.5
      vertex -150 9.7 0.299999
      vertex -150 9.7 3.5
    endloop
  endfacet
  facet normal -1 0 0
    outer loop
      vertex -150 10.3 -0.299999
      vertex -150 13 0.299999
      vertex -150 13 -0.299999
    endloop
  endfacet
  facet normal -1 -0 0
    outer loop
      vertex -150 13 0.299999
      vertex -150 10.3 -0.299999
      vertex -150 10.3 0.299999
    endloop
  endfacet
  facet normal -0 0 1
    outer loop
      vertex -150 9.7 0.299999
      vertex 150 7 0.299999
      vertex 150 9.7 0.299999
    endloop
  endfacet
  facet normal 0 0 1
    outer loop
      vertex 150 7 0.299999
      vertex -150 9.7 0.299999
      vertex -150 7 0.299999
    endloop
  endfacet
  facet normal -0 0 1
    outer loop
      vertex -150 13 0.299999
      vertex 150 10.3 0.299999
      vertex 150 13 0.299999
    endloop
  endfacet
  facet normal 0 0 1
    outer loop
      vertex 150 10.3 0.299999
      vertex -150 13 0.299999
      vertex -150 10.3 0.299999
    endloop
  endfacet
  facet normal 1 -0 0
    outer loop
      vertex 150 7 0.299999
      vertex 150 9.7 -0.299999
      vertex 150 9.7 0.299999
    endloop
  endfacet
  facet normal 1 0 0
    outer loop
      vertex 150 9.7 -0.299999
      vertex 150 7 0.299999
      vertex 150 7 -0.299999
    endloop
  endfacet
  facet normal 1 0 0
    outer loop
      vertex 150 9.7 0.299999
      vertex 150 10.3 0.299999
      vertex 150 10.3 3.5
    endloop
  endfacet
  facet normal 1 0 0
    outer loop
      vertex 150 10.3 0.299999
      vertex 150 9.7 0.299999
      vertex 150 10.3 -0.299999
    endloop
  endfacet
  facet normal 1 0 0
    outer loop
      vertex 150 9.7 0.299999
      vertex 150 10.3 3.5
      vertex 150 9.7 3.5
    endloop
  endfacet
  facet normal 1 0 0
    outer loop
      vertex 150 9.7 -0.299999
      vertex 150 10.3 -0.299999
      vertex 150 9.7 0.299999
    endloop
  endfacet
  facet normal 1 0 0
    outer loop
      vertex 150 10.3 -0.299999
      vertex 150 9.7 -0.299999
      vertex 150 10.3 -0.5
    endloop
  endfacet
  facet normal 1 0 0
    outer loop
      vertex 150 10.3 -0.5
      vertex 150 9.7 -0.299999
      vertex 150 9.7 -0.5
    endloop
  endfacet
  facet normal 1 -0 0
    outer loop
      vertex 150 10.3 0.299999
      vertex 150 13 -0.299999
      vertex 150 13 0.299999
    endloop
  endfacet
  facet normal 1 0 0
    outer loop
      vertex 150 13 -0.299999
      vertex 150 10.3 0.299999
      vertex 150 10.3 -0.299999
    endloop
  endfacet
  facet normal 0 0 -1
    outer loop
      vertex -150 7 -0.299999
      vertex 150 9.7 -0.299999
      vertex 150 7 -0.299999
    endloop
  endfacet
  facet normal -0 0 -1
    outer loop
      vertex 150 9.7 -0.299999
      vertex -150 7 -0.299999
      vertex -150 9.7 -0.299999
    endloop
  endfacet
  facet normal 0 0 -1
    outer loop
      vertex -150 10.3 -0.299999
      vertex 150 13 -0.299999
      vertex 150 10.3 -0.299999
    endloop
  endfacet
  facet normal -0 0 -1
    outer loop
      vertex 150 13 -0.299999
      vertex -150 10.3 -0.299999
      vertex -150 13 -0.299999
    endloop
  endfacet
  facet normal 0 -1 0
    outer loop
      vertex -150 7 -0.299999
      vertex 150 7 0.299999
      vertex -150 7 0.299999
    endloop
  endfacet
  facet normal 0 -1 -0
    outer loop
      vertex 150 7 0.299999
      vertex -150 7 -0.299999
      vertex 150 7 -0.299999
    endloop
  endfacet
  facet normal 0 1 -0
    outer loop
      vertex 150 13 -0.299999
      vertex -150 13 0.299999
      vertex 150 13 0.299999
    endloop
  endfacet
  facet normal 0 1 0
    outer loop
      vertex -150 13 0.299999
      vertex 150 13 -0.299999
      vertex -150 13 -0.299999
    endloop
  endfacet
  facet normal -0 0 1
    outer loop
      vertex -150 10.3 3.5
      vertex 150 9.7 3.5
      vertex 150 10.3 3.5
    endloop
  endfacet
  facet normal 0 0 1
    outer loop
      vertex 150 9.7 3.5
      vertex -150 10.3 3.5
      vertex -150 9.7 3.5
    endloop
  endfacet
  facet normal 0 1 -0
    outer loop
      vertex 150 10.3 -0.5
      vertex -150 10.3 -0.299999
      vertex 150 10.3 -0.299999
    endloop
  endfacet
  facet normal 0 1 0
    outer loop
      vertex -150 10.3 -0.299999
      vertex 150 10.3 -0.5
      vertex -150 10.3 -0.5
    endloop
  endfacet
  facet normal 0 1 -0
    outer loop
      vertex 150 10.3 0.299999
      vertex -150 10.3 3.5
      vertex 150 10.3 3.5
    endloop
  endfacet
  facet normal 0 1 0
    outer loop
      vertex -150 10.3 3.5
      vertex 150 10.3 0.299999
      vertex -150 10.3 0.299999
    endloop
  endfacet
  facet normal 0 0 -1
    outer loop
      vertex -150 9.7 -0.5
      vertex 150 10.3 -0.5
      vertex 150 9.7 -0.5
    endloop
  endfacet
  facet normal -0 0 -1
    outer loop
      vertex 150 10.3 -0.5
      vertex -150 9.7 -0.5
      vertex -150 10.3 -0.5
    endloop
  endfacet
  facet normal 0 -1 0
    outer loop
      vertex -150 9.7 0.299999
      vertex 150 9.7 3.5
      vertex -150 9.7 3.5
    endloop
  endfacet
  facet normal 0 -1 -0
    outer loop
      vertex 150 9.7 3.5
      vertex -150 9.7 0.299999
      vertex 150 9.7 0.299999
    endloop
  endfacet
  facet normal 0 -1 0
    outer loop
      vertex -150 9.7 -0.5
      vertex 150 9.7 -0.299999
      vertex -150 9.7 -0.299999
    endloop
  endfacet
  facet normal 0 -1 -0
    outer loop
      vertex 150 9.7 -0.299999
      vertex -150 9.7 -0.5
      vertex 150 9.7 -0.5
    endloop
  endfacet
endsolid OpenSCAD_Model
